<svg xmlns="http://www.w3.org/2000/svg" viewBox="0 0 44.89 44.89"><defs><style>.cls-1,.cls-2,.cls-3{fill:#7c007f;}.cls-1,.cls-4{opacity:0;}.cls-2,.cls-5{opacity:0.5;}.cls-4,.cls-5,.cls-6{fill:#f0f;}.cls-7{fill:#fff;}</style></defs><g id="Layer_2" data-name="Layer 2"><g id="Layer_1-2" data-name="Layer 1"><circle class="cls-1" cx="33.25" cy="11.64" r="4.7" transform="translate(9.77 37.9) rotate(-67.5)"/><circle class="cls-2" cx="33.25" cy="11.64" r="3.81" transform="matrix(0.28, -0.96, 0.96, 0.28, 12.83, 40.34)"/><circle class="cls-3" cx="33.25" cy="11.64" r="2.93"/><path class="cls-1" d="M22.44,27.55a5.11,5.11,0,1,1,5.11-5.11A5.11,5.11,0,0,1,22.44,27.55ZM34,17.55a12.61,12.61,0,0,0-2.7-4,12.43,12.43,0,0,0-4-2.69A12.58,12.58,0,0,0,10.86,27.34a12.43,12.43,0,0,0,2.69,4A12.58,12.58,0,0,0,27.34,34,12.72,12.72,0,0,0,34,27.34a12.6,12.6,0,0,0,0-9.79Z"/><path class="cls-2" d="M22.44,28.44a6,6,0,1,1,6-6A6,6,0,0,1,22.44,28.44Zm0-17.68a11.53,11.53,0,0,0-4.55.92,11.65,11.65,0,0,0-7.13,10.76A11.54,11.54,0,0,0,11.68,27a11.65,11.65,0,0,0,10.76,7.13A11.54,11.54,0,0,0,27,33.21a11.65,11.65,0,0,0,7.13-10.77,11.53,11.53,0,0,0-.92-4.55,11.65,11.65,0,0,0-10.77-7.13Z"/><path class="cls-3" d="M22.44,29.32a6.88,6.88,0,1,1,6.88-6.88A6.88,6.88,0,0,1,22.44,29.32Zm0-17.68a10.81,10.81,0,1,0,10.81,10.8A10.81,10.81,0,0,0,22.44,11.64Z"/><path class="cls-1" d="M37.34,31.31a6,6,0,0,1-6,6H13.58a6,6,0,0,1-6-6V13.58a6,6,0,0,1,6-6H31.31a6,6,0,0,1,6,6Zm6.48-23A13.63,13.63,0,0,0,31.23,0H13.66A13.63,13.63,0,0,0,0,13.66V31.23A13.63,13.63,0,0,0,13.66,44.89H31.23A13.63,13.63,0,0,0,44.89,31.23V13.66A13.59,13.59,0,0,0,43.82,8.34Z"/><path class="cls-2" d="M38.23,31.31a6.92,6.92,0,0,1-6.92,6.92H13.58a6.92,6.92,0,0,1-6.92-6.92V13.58a6.92,6.92,0,0,1,6.92-6.92H31.31a6.92,6.92,0,0,1,6.92,6.92ZM2.88,8.83c-.62.62-1.12,2.53-1.46,3.34a14.06,14.06,0,0,0-.54,3.89V28.82a14.18,14.18,0,0,0,.54,3.9c.34.81.84,2.71,1.46,3.34A11.53,11.53,0,0,0,5.55,39.9a11.71,11.71,0,0,0,4.13,2.58c1.05,1,7.12,1.53,8.65,1.53h7.94a25.73,25.73,0,0,0,5.21-.54c.81-.35,3.95-.84,4.58-1.46a11.53,11.53,0,0,0,3.84-2.67,11.71,11.71,0,0,0,2.58-4.13c1-1.05,1.53-7.12,1.53-8.65V18.62a25.65,25.65,0,0,0-.54-5.21c-.35-.81-.84-4-1.46-4.58a11.14,11.14,0,0,0-3.3-4.95A11.82,11.82,0,0,0,33,1.15a17.34,17.34,0,0,0-3-.27h-15a18,18,0,0,0-3.06.27A11.83,11.83,0,0,0,6.17,3.9,11.11,11.11,0,0,0,2.88,8.83Z"/><path class="cls-3" d="M39.11,31.31a7.8,7.8,0,0,1-7.8,7.8H13.58a7.8,7.8,0,0,1-7.8-7.8V13.58a7.8,7.8,0,0,1,7.8-7.8H31.31a7.8,7.8,0,0,1,7.8,7.8ZM31.23,1.77H13.66A11.89,11.89,0,0,0,1.77,13.66V31.23A11.89,11.89,0,0,0,13.66,43.12H31.23A11.89,11.89,0,0,0,43.12,31.23V13.66A11.89,11.89,0,0,0,31.23,1.77Z"/><circle class="cls-4" cx="33.25" cy="11.64" r="2.93"/><circle class="cls-5" cx="33.25" cy="11.64" r="2.14" transform="translate(11.69 39.5) rotate(-71.57)"/><path class="cls-6" d="M33.25,13a1.35,1.35,0,1,1,1.35-1.35A1.36,1.36,0,0,1,33.25,13Z"/><path class="cls-4" d="M22.44,29.32a6.88,6.88,0,1,1,6.88-6.88A6.88,6.88,0,0,1,22.44,29.32Zm0-17.68a10.81,10.81,0,1,0,10.81,10.8A10.81,10.81,0,0,0,22.44,11.64Z"/><path class="cls-5" d="M22.44,30.11a7.67,7.67,0,1,1,7.67-7.67A7.68,7.68,0,0,1,22.44,30.11Zm0-17.68a10,10,0,1,0,7.09,2.93A10,10,0,0,0,22.44,12.43Z"/><path class="cls-6" d="M22.44,30.9a8.46,8.46,0,1,1,8.46-8.46A8.46,8.46,0,0,1,22.44,30.9Zm6.53-15a9.23,9.23,0,1,0,2.7,6.52A9.19,9.19,0,0,0,29,15.92Z"/><path class="cls-4" d="M39.11,31.31a7.8,7.8,0,0,1-7.8,7.8H13.58a7.8,7.8,0,0,1-7.8-7.8V13.58a7.8,7.8,0,0,1,7.8-7.8H31.31a7.8,7.8,0,0,1,7.8,7.8ZM31.23,1.77H13.66A11.89,11.89,0,0,0,1.77,13.66V31.23A11.89,11.89,0,0,0,13.66,43.12H31.23A11.89,11.89,0,0,0,43.12,31.23V13.66A11.89,11.89,0,0,0,31.23,1.77Z"/><path class="cls-5" d="M39.9,31.31a8.6,8.6,0,0,1-8.59,8.59H13.58A8.6,8.6,0,0,1,5,31.31V13.58A8.6,8.6,0,0,1,13.58,5H31.31a8.6,8.6,0,0,1,8.59,8.59ZM4.07,10c-1,1-1.51,4.37-1.51,5.75V29.13c0,1.38.53,4.77,1.51,5.75a9.91,9.91,0,0,0,5.17,5.48c1.08,1.21,7.3,2,9,2h8.59c1.38,0,7-.53,8-1.51a10.16,10.16,0,0,0,6.83-6.93,15.5,15.5,0,0,0,.62-4.35V15.34A15.31,15.31,0,0,0,41.71,11a10.17,10.17,0,0,0-6.83-6.94c-1-1-6.59-1.51-8-1.51H18.28c-1.75,0-8,.75-9,2A10,10,0,0,0,4.07,10Z"/><path class="cls-6" d="M40.69,31.31a9.39,9.39,0,0,1-9.38,9.38H13.58A9.39,9.39,0,0,1,4.2,31.31V13.58A9.39,9.39,0,0,1,13.58,4.2H31.31a9.39,9.39,0,0,1,9.38,9.38ZM38.52,6.37a10.21,10.21,0,0,0-7.29-3H13.66A10.31,10.31,0,0,0,3.35,13.66V31.23A10.31,10.31,0,0,0,13.66,41.54H31.23A10.31,10.31,0,0,0,41.54,31.23V13.66A10.21,10.21,0,0,0,38.52,6.37Z"/><path class="cls-7" d="M33.25,13a1.35,1.35,0,1,1,1.35-1.35A1.36,1.36,0,0,1,33.25,13Z"/><path class="cls-7" d="M22.44,31.67A9.22,9.22,0,1,1,29,29,9.17,9.17,0,0,1,22.44,31.67Zm0-17.68a8.46,8.46,0,1,0,8.46,8.45A8.46,8.46,0,0,0,22.44,14Z"/><path class="cls-7" d="M13.66,41.54A10.31,10.31,0,0,1,3.35,31.23V13.66A10.31,10.31,0,0,1,13.66,3.35H31.23A10.31,10.31,0,0,1,41.54,13.66V31.23A10.31,10.31,0,0,1,31.23,41.54ZM13.58,4.2A9.39,9.39,0,0,0,4.2,13.58V31.31a9.39,9.39,0,0,0,9.38,9.38H31.31a9.39,9.39,0,0,0,9.38-9.38V13.58A9.39,9.39,0,0,0,31.31,4.2Z"/></g></g></svg>