<svg xmlns="http://www.w3.org/2000/svg" viewBox="0 0 163.88 58.35"><defs><style>.cls-1{fill:#fff;}.cls-2{fill:#ebba3a;}.cls-3{fill:#e24a5e;}.cls-4{fill:#4bb1af;}.cls-5{fill:#acc544;}.cls-6{fill:#db475c;}</style></defs><g id="Layer_2" data-name="Layer 2"><g id="Layer_1-2" data-name="Layer 1"><path class="cls-1" d="M135.86,45.73a0,0,0,0,1-.05,0,3.74,3.74,0,0,1,3.74-3.75.06.06,0,0,1,.06,0,0,0,0,0,1-.05.05h0a3.64,3.64,0,0,0-3.64,3.65,0,0,0,0,1,0,0Z"/><path class="cls-1" d="M52.36,56.41a4.14,4.14,0,0,1-4.14-4.14V26.36a4.14,4.14,0,0,1,8.28,0V52.27A4.14,4.14,0,0,1,52.36,56.41Zm0-33.42A3.37,3.37,0,0,0,49,26.36V52.27a3.37,3.37,0,0,0,6.74,0V26.36A3.37,3.37,0,0,0,52.36,23Z"/><path class="cls-1" d="M159.73,56.41a4.13,4.13,0,0,1-4.13-4.14V12.93a4.14,4.14,0,1,1,8.28,0V52.27A4.14,4.14,0,0,1,159.73,56.41Zm0-46.85a3.37,3.37,0,0,0-3.36,3.37V52.27a3.37,3.37,0,1,0,6.74,0V12.93A3.38,3.38,0,0,0,159.73,9.56Z"/><path class="cls-1" d="M95.26,54.88a4.11,4.11,0,0,1-2.93-1.21l-5.24-5.24a3.34,3.34,0,0,0-4.61,0l-5.24,5.24a4.11,4.11,0,0,1-2.92,1.21h0a4.14,4.14,0,0,1-2.92-7.07l5.23-5.23a3.26,3.26,0,0,0,0-4.62l-5.23-5.24a4.14,4.14,0,0,1,2.92-7.06h0a4.11,4.11,0,0,1,2.92,1.21l5.24,5.23a3.32,3.32,0,0,0,4.61,0L92.18,27l.36,0,.25.24,0,.18a.41.41,0,0,1-.13.33,3.26,3.26,0,0,0-.7,1.06,3.32,3.32,0,0,0-.25,1.25,3.27,3.27,0,0,0,5.57,2.31l.27-.27.35.26a.47.47,0,0,1,0,.6l-5,5a3.21,3.21,0,0,0-1,2.31,3.25,3.25,0,0,0,1,2.31l5.24,5.23a4.16,4.16,0,0,1,0,5.86A4.11,4.11,0,0,1,95.26,54.88ZM84.79,46.7a4,4,0,0,1,2.85,1.18l5.24,5.24a3.45,3.45,0,0,0,4.76,0,3.37,3.37,0,0,0,0-4.76L92.4,43.12a4,4,0,0,1,0-5.71L95.8,34a3.59,3.59,0,0,1-.81.08,4,4,0,0,1-4-4,4.28,4.28,0,0,1,.08-.81l-3.4,3.4a4,4,0,0,1-5.71,0l-5.24-5.23a3.3,3.3,0,0,0-2.37-1h0A3.36,3.36,0,0,0,71,29.79a3.39,3.39,0,0,0,1,2.39l5.24,5.23a4,4,0,0,1,0,5.71l-5.24,5.24a3.37,3.37,0,0,0,0,4.76,3.34,3.34,0,0,0,2.38,1h0a3.3,3.3,0,0,0,2.37-1l5.24-5.24A4,4,0,0,1,84.79,46.7Z"/><path class="cls-1" d="M128.26,56.41a17.09,17.09,0,0,1-15-8.88,16.69,16.69,0,0,1-2-6.8,13.64,13.64,0,0,1-.06-1.41A17.1,17.1,0,0,1,141.8,28.87a16.79,16.79,0,0,1,3.08,6.41l.08.32-.34.18-23.26,9a8.82,8.82,0,0,0,14.55-1.1l.1-.2.29,0a.44.44,0,0,1,.44.44v.25l-.26.15v0a9.6,9.6,0,0,1-16,.57l-.28-.41,23.91-9.27A16.34,16.34,0,0,0,128.26,23a16.34,16.34,0,0,0-16.32,16.33c0,.43,0,.88,0,1.34a16.32,16.32,0,0,0,16.27,15,16.4,16.4,0,0,0,14.08-8l.09-.15h0l-.09-.06.15-.29,0-.12.17-.1a.41.41,0,0,1,.34,0l.34.12-.11.53-.17.33L143,48A17.11,17.11,0,0,1,128.26,56.41Z"/><path class="cls-1" d="M119.13,38.22h-.19l-.27-.29,0-.26a9.68,9.68,0,0,1,15.53-6l.15.12v.64l-.33,0Zm9.13-7.83a8.88,8.88,0,0,0-8.68,6.87l13.72-5.32A8.81,8.81,0,0,0,128.26,30.39Z"/><path class="cls-1" d="M19,30.49A11.54,11.54,0,1,1,30.59,19,11.55,11.55,0,0,1,19,30.49ZM19,8.18A10.77,10.77,0,1,0,29.81,19,10.78,10.78,0,0,0,19,8.18Z"/><path class="cls-1" d="M7.93,54.56a.44.44,0,0,1-.44-.43v-.21H7.6V33.1l.61.46A18.19,18.19,0,1,0,.86,19V54H1v.51l-.43.05a.43.43,0,0,1-.44-.43V19a19,19,0,1,1,19,19A18.73,18.73,0,0,1,8.37,34.61v19.9ZM.22,54H.49l0-.21A.34.34,0,0,0,.22,54Zm7.44-.08h.25l0-.13A.35.35,0,0,0,7.66,53.92Z"/><path class="cls-1" d="M143.32,45.68a3.85,3.85,0,0,1-.36,1.6c-.06.12-.23.41-.28.48s0,0,0,0v0a3.75,3.75,0,0,1-6.85-2.12,3.48,3.48,0,0,1,0-.57,3.76,3.76,0,0,1,7.47.57Zm-.45,1.56a3.84,3.84,0,0,0,.34-1.56A3.65,3.65,0,0,0,139.56,42a3.69,3.69,0,0,0-.92.12,3.64,3.64,0,0,0-2.69,3,3.24,3.24,0,0,0,0,.55,3.65,3.65,0,0,0,6.68,2S142.81,47.36,142.87,47.24Z"/><path class="cls-1" d="M98.75,30.06a3.69,3.69,0,0,1-1.1,2.65,3.75,3.75,0,0,1-6.41-2.65A3.77,3.77,0,0,1,95,26.3,3.77,3.77,0,0,1,98.75,30.06Zm-1.17,2.58a3.6,3.6,0,0,0,1.07-2.58,3.66,3.66,0,0,0-6.24-2.58,3.6,3.6,0,0,0-1.07,2.58,3.66,3.66,0,0,0,6.24,2.58Z"/><path class="cls-1" d="M19,15.2A3.75,3.75,0,1,1,15.29,19,3.75,3.75,0,0,1,19,15.2ZM22.69,19A3.65,3.65,0,1,0,19,22.6,3.66,3.66,0,0,0,22.69,19Z"/><path class="cls-1" d="M4.23,50.37A3.76,3.76,0,1,1,.48,54.13,3.76,3.76,0,0,1,4.23,50.37Zm3.65,3.76a3.65,3.65,0,1,0-3.65,3.65A3.66,3.66,0,0,0,7.88,54.13Z"/><path class="cls-2" d="M4.23,58.35a4.23,4.23,0,1,1,4.23-4.22A4.23,4.23,0,0,1,4.23,58.35Zm0-7.3A3.08,3.08,0,1,0,7.3,54.13,3.08,3.08,0,0,0,4.23,51.05Z"/><path class="cls-3" d="M19,23a4,4,0,1,1,4-4A4,4,0,0,1,19,23Zm0-7.31A3.27,3.27,0,1,0,22.31,19,3.28,3.28,0,0,0,19,15.68Z"/><path class="cls-4" d="M52.36,19.44A4.14,4.14,0,1,1,56.5,15.3,4.15,4.15,0,0,1,52.36,19.44Zm0-7.51a3.37,3.37,0,1,0,3.37,3.37A3.37,3.37,0,0,0,52.36,11.93Z"/><path class="cls-5" d="M159.73,17.07a4.14,4.14,0,1,1,4.15-4.14A4.14,4.14,0,0,1,159.73,17.07Zm0-7.51a3.37,3.37,0,1,0,3.38,3.37A3.37,3.37,0,0,0,159.73,9.56Z"/><path class="cls-6" d="M95,34.09a4,4,0,0,1-4-4,4,4,0,0,1,4-4,4,4,0,0,1,4,4,4,4,0,0,1-1.18,2.85A4,4,0,0,1,95,34.09Zm0-7.3a3.27,3.27,0,1,0,3.27,3.27A3.24,3.24,0,0,0,95,26.79Z"/><path class="cls-4" d="M139.56,49.72a4,4,0,1,1,4-4,4.11,4.11,0,0,1-.38,1.72c-.05.1-.19.33-.26.45l-.05.09A4.05,4.05,0,0,1,139.56,49.72Zm0-7.3a3.54,3.54,0,0,0-.83.1,3.27,3.27,0,0,0-2.4,2.67,3.79,3.79,0,0,0,0,.49,3.26,3.26,0,0,0,6,1.83c.09-.16.21-.35.25-.43a3.4,3.4,0,0,0,.31-1.4A3.27,3.27,0,0,0,139.56,42.42Z"/></g></g></svg>