<svg xmlns="http://www.w3.org/2000/svg" viewBox="0 0 91.41 55.11"><defs><style>.cls-1{fill:#fff;}</style></defs><g id="Layer_2" data-name="Layer 2"><g id="Layer_2_copy" data-name="Layer 2 copy"><path class="cls-1" d="M55.74,28.07c.28-.84.55-1.69.83-2.54.34-1,.69-2.06,1-3.1s.57-1.84.9-2.75a8,8,0,0,1,1.18-2.32,3,3,0,0,1,1.52-1.08A4.77,4.77,0,0,1,64,16.19a3.32,3.32,0,0,1,2.08,2A21.49,21.49,0,0,1,67,21a1.44,1.44,0,0,0,.15.36,3.55,3.55,0,0,0,.29.85A15.42,15.42,0,0,0,68,23.86l2.88,8.71L72,35.9,72,36l-3.45,0a3.57,3.57,0,0,0-.8,0l-2.19,0c-.12,0-.27,0-.32-.13a4.35,4.35,0,0,0-.29-.86c-.19-.79-.46-1.56-.69-2.34a.26.26,0,0,0-.29-.19H57.87c-.2,0-.28.08-.33.27-.28,1-.58,2-.87,3a.34.34,0,0,1-.39.31c-.88,0-1.76,0-2.64,0-.48,0-.47,0-.33-.44l2-6.26Zm3.9-2.17a6.83,6.83,0,0,0-.27.91l0,0c-.27.89-.53,1.77-.81,2.66-.08.26,0,.25.23.25H63c.27,0,.3-.08.23-.32-.39-1.34-.77-2.69-1.15-4a4,4,0,0,0-.22-.67,11.86,11.86,0,0,0-.37-1.42c-.16-.58-.32-1.17-.49-1.76h-.09Z"/><path class="cls-1" d="M81.86,36c-1,0-1.94,0-2.9,0a4.12,4.12,0,0,0-.86,0c-.91,0-1.83,0-2.75,0-.28,0-.36-.08-.36-.36,0-.75,0-1.51,0-2.27,0-.24.07-.31.31-.31h5a7.39,7.39,0,0,0,2-.26,1.83,1.83,0,0,0,.59-3.08,6.72,6.72,0,0,0-2.38-1.14,24.32,24.32,0,0,1-3.7-1.32,4.57,4.57,0,0,1-2.76-4.8,8.25,8.25,0,0,1,.56-2.5,1.28,1.28,0,0,1,.15-.25l.4-.61a7.19,7.19,0,0,1,5-2.38c2.24-.23,4.48-.06,6.73-.1.19,0,.24.08.24.25,0,.8,0,1.6,0,2.4,0,.25-.14.25-.31.25h-4a3.94,3.94,0,0,0-1.66.29A1.2,1.2,0,0,0,80.94,22a5.69,5.69,0,0,0,2,1,22.86,22.86,0,0,1,3.4,1.29,5.13,5.13,0,0,1,2.21,1.92,9.16,9.16,0,0,1,.43,1l.2,1a1.47,1.47,0,0,0,0,.47,6.14,6.14,0,0,0,0,1.05,1.64,1.64,0,0,0,0,.54.11.11,0,0,0,0,.13l0,.18a.09.09,0,0,0,0,.12l-.05.3a.11.11,0,0,0,0,.12,6,6,0,0,1-3.12,4,8.65,8.65,0,0,1-1.92.7l-.12,0-.24,0a.11.11,0,0,0-.13,0l-.25,0Z"/><path class="cls-1" d="M68.58,47.06a3.48,3.48,0,0,1-.73-1.69l0-.18A3.54,3.54,0,0,1,68.46,43s0,0,0-.06a4,4,0,0,1,1.32-.81,2.7,2.7,0,0,1,3.64,2.53,3,3,0,0,1-.91,2.53,3,3,0,0,1-3.36.29Zm1.91.15a1.79,1.79,0,0,0,1.72-.87,2.7,2.7,0,0,0,0-2.93,1.8,1.8,0,0,0-3.11.09A2.82,2.82,0,0,0,69,46.09,1.65,1.65,0,0,0,70.49,47.21Z"/><path class="cls-1" d="M78.78,43.68A13.76,13.76,0,0,0,78,45a.93.93,0,0,0-.23.7c0,.57,0,1.15,0,1.72,0,.28-.09.37-.34.33h-.13c-.25,0-.36-.06-.35-.34,0-.56,0-1.13,0-1.69a1.3,1.3,0,0,0-.19-.72c-.54-.88-1.07-1.78-1.6-2.67,0-.08-.14-.16-.09-.24s.16,0,.24-.05c.47-.1.73.11.93.54.31.65.68,1.28,1,1.92,0,.07,0,.17.15.17s.09-.1.12-.16c.25-.46.49-.92.73-1.38.08-.12.16-.23.23-.36.42-.74.42-.74,1.28-.68Z"/><path class="cls-1" d="M64.76,12.84a13.82,13.82,0,0,0-2.13-.11,5.36,5.36,0,0,0-1.2-.05l-.76,0c-1.42,0-2.84,0-4.27.08s-2.65.17-4,.29c-1.11.11-2.22.26-3.33.41a.31.31,0,0,1-.38-.19c-.27-.49-.55-1-.83-1.47s-.7-1.25-1.12-1.83a3,3,0,0,0-.39-.64c0-.06,0-.12-.08-.17-.95-1.53-1.93-3-3-4.52,0-.06-.13-.11-.09-.21s.12,0,.17,0A21.74,21.74,0,0,0,48.8,6.15c.14,0,.26,0,.35-.09a6.68,6.68,0,0,0,.61-.89,1.88,1.88,0,0,0,.37-.56,12.43,12.43,0,0,0,1.32-2.78l.07,0a2.39,2.39,0,0,1,.13.21,13.37,13.37,0,0,0,2.82,3.18c.11.1.21.19.37.1a9.49,9.49,0,0,0,2.65-2.19,15.67,15.67,0,0,0,2-3c.07-.15.13-.18.23,0a17,17,0,0,0,2.22,3A10.29,10.29,0,0,0,64.8,5.26a.24.24,0,0,0,.3,0,12.91,12.91,0,0,0,2.66-3c.3-.4.3-.4.48,0a10.38,10.38,0,0,0,.85,1.93c.3.56.68,1,1,1.58A.64.64,0,0,0,70.9,6c.52-.17,1-.24,1.57-.39a21.34,21.34,0,0,0,3.38-1.23A1.12,1.12,0,0,1,76,4.33a1.92,1.92,0,0,1-.38.63c-1.42,2.07-2.74,4.2-4,6.34-.38.62-.71,1.26-1.07,1.89a.36.36,0,0,1-.43.22c-1.2-.18-2.4-.33-3.61-.44-.56-.05-1.12-.13-1.69-.13ZM47.68,9.72h0l.12,0h0l1.41.92c-.11-.57-.27-1.09-.42-1.61a.3.3,0,0,0-.25-.23,14.08,14.08,0,0,0-1.45-1l-.07,0,.62,1.72Zm12,1.26c.36-.93.73-1.87,1.1-2.81a.38.38,0,0,0,0-.29l-.53-1.41c-.17-.45-.35-.9-.54-1.37,0,.06-.09.09-.1.12-.35.92-.69,1.83-1,2.75a.38.38,0,0,0,0,.28c.12.35.26.68.38,1A17.07,17.07,0,0,0,59.65,11ZM72.24,7.6l-.07,0a9.14,9.14,0,0,1-.94.58,1.46,1.46,0,0,0-.94,1.23,6,6,0,0,1-.3,1l1.62-1.05a.2.2,0,0,0,.07-.09ZM54.84,9.76,54.57,8.5c0-.18,0-.39-.14-.52a11.34,11.34,0,0,0-1.3-1,.17.17,0,0,0-.2,0c-.06,0,0,.11,0,.16l.3,1.24a.47.47,0,0,0,.16.28C53.85,9.05,54.34,9.39,54.84,9.76Zm9.53.06,1.51-1.15A.35.35,0,0,0,66,8.44c.09-.39.19-.78.28-1.17,0-.09.1-.2,0-.27s-.19,0-.28.06l-1.09.81a.48.48,0,0,0-.17.27C64.63,8.67,64.51,9.2,64.37,9.82Z"/><path class="cls-1" d="M50.56,19.83c-.59,1.31-1.27,2.57-1.9,3.85-1.49,3-3,6-4.48,8.94-.29.57-.28.57.34.57,1,0,2,0,3,0a6.63,6.63,0,0,0,1.26,0,12.05,12.05,0,0,0,1.59,0c.11,0,.21,0,.32,0l1.25,0V36l-1.21,0-.54,0H37.24c-.33,0-.76.15-1-.07s0-.63-.05-1a.87.87,0,0,1,.05-.45c1.41-2.84,2.82-5.67,4.22-8.52.41-.81.8-1.64,1.19-2.46a14,14,0,0,0,.67-1.34c.47-.81.8-1.68,1.27-2.48.06-.1.09-.26-.14-.25l-1.24,0a3.56,3.56,0,0,0-.73,0l-.42,0H36.38c-.27,0-.34-.08-.33-.34,0-.64,0-1.27,0-1.91s0-.61.61-.61h5.58l.64,0h4.76a8.34,8.34,0,0,1,1.5.1c.7.13,1.32.36,1.54,1.13a2.75,2.75,0,0,1,.08,1Z"/><path class="cls-1" d="M88.53,42c.24,0,.27.14.27.34v4.26c0,.51,0,.51.52.47s1.11,0,1.66,0c.3,0,.45.07.4.38a.53.53,0,0,0,0,.12l-.08.12-2,0h-.86c-.49,0-.49,0-.49-.56V42.64C88,42.07,88,42.07,88.53,42Z"/><path class="cls-1" d="M10.57,55.09c-.45.06-.89,0-1.34,0L8.57,55A11.12,11.12,0,0,1,4,53.2,8.8,8.8,0,0,1,.58,49l-.26-.72A15.08,15.08,0,0,1,0,46.52,8.86,8.86,0,0,1,.2,44.11a8.15,8.15,0,0,1,2.93-4.82A7.29,7.29,0,0,1,10,38.06a6.65,6.65,0,0,1,3.63,2.59l.37.6.14.36c1.4,3.33-.62,7-3.51,7.57A5.27,5.27,0,0,1,7.66,49a4.18,4.18,0,0,1-2.55-2.47l-.19-.79a5.89,5.89,0,0,1,0-.84A3.46,3.46,0,0,1,7,42a3.21,3.21,0,0,1,3.47.51l.48.57a3.07,3.07,0,0,1,.33,1.4,2.27,2.27,0,0,1-1.89,2.23,2,2,0,0,1-2.24-1.41v-.67A1.63,1.63,0,0,1,8.2,43.45l.12,0h.43l.12,0,.18,0,.48.33a3.07,3.07,0,0,1,.17.31,1,1,0,0,1-.17,1.12.89.89,0,0,1-1,.22.74.74,0,0,1-.45-.88,1.21,1.21,0,0,1,.15-.22A.56.56,0,0,1,9,44.29a.42.42,0,0,1,0,.65L9,44.85a.3.3,0,0,0-.13-.48.38.38,0,0,0-.49.2.47.47,0,0,0,.37.68.62.62,0,0,0,.71-.38A.72.72,0,0,0,9.18,44a1,1,0,0,0-1.55.7c-.22.79.7,1.63,1.74,1.36a1.74,1.74,0,0,0,.87-2.7,1.46,1.46,0,0,0-.58-.55,1.13,1.13,0,0,0-.18-.12,2.52,2.52,0,0,0-3.64,2.06.26.26,0,0,0,0,.19v.23a1.3,1.3,0,0,0,.08.62,1.14,1.14,0,0,0,.14.54,3.47,3.47,0,0,0,3.15,2,3.78,3.78,0,0,0,3.55-1.8A4.6,4.6,0,0,0,13,41.79a2.44,2.44,0,0,0-.4-.68c-.05-.07-.09-.14-.14-.2a6,6,0,0,0-3.8-2.12,6,6,0,0,0-5.07,1.36,7.49,7.49,0,0,0-2.52,7.64,3.67,3.67,0,0,0,.23.8,4.49,4.49,0,0,0,.21.65,8.68,8.68,0,0,0,3.87,4,10,10,0,0,0,4.23,1.25,1.68,1.68,0,0,0,.74,0l.23,0a5.54,5.54,0,0,0,1.81-.3l.3-.05a12.7,12.7,0,0,0,3-1.33,13.39,13.39,0,0,0,2.81-2.16,11.24,11.24,0,0,0,1.28-1.47c.14-.17.29-.34.42-.51,1.58-2.1,2.9-4.36,4.36-6.54.5-.74,1-1.5,1.45-2.25,1.15-1.83,2.33-3.65,3.5-5.46A3.08,3.08,0,0,0,30,32.23a5.82,5.82,0,0,0-.56-1.43c-.47-1-.88-2-1.28-3a1,1,0,0,0-.73-.73.11.11,0,0,0-.13,0,5,5,0,0,0-1.09,0H20.05a9.91,9.91,0,0,0-1.54,0,1.25,1.25,0,0,0-1.38,1,2.59,2.59,0,0,1-.17.38,19.38,19.38,0,0,0-1.13,2.94,2,2,0,0,0,1.64,2.72,9.23,9.23,0,0,0,1.29.12.72.72,0,0,1,.69.4c.14.33.06.47-.3.47H10.33a.59.59,0,0,1-.3,0c-.11-.06-.3-.15-.16-.31a2.1,2.1,0,0,1,.88-.67,4,4,0,0,0,2.5-2.1c1.27-2.51,2.52-5,3.68-7.61.76-1.69,1.55-3.37,2.33-5.06.54-1.18,1.11-2.36,1.6-3.57l.69-1.42a.51.51,0,0,0,.08-.32,16.56,16.56,0,0,0,1-2c.94-2,1.77-4,2.78-5.95.15-.27.15-.27.32,0a23.18,23.18,0,0,1,1.46,3.06C28.45,12,29.7,14.77,31,17.58a16.4,16.4,0,0,0,.78,1.64,2.67,2.67,0,0,0,.09.26c.9,2,1.79,4,2.72,6a2,2,0,0,1-.13,2.11c-.59.89-1.14,1.81-1.7,2.72-.32.52-.67,1-.95,1.57a12.75,12.75,0,0,0-.83,1.32l-1.4,2.22c-1.19,1.86-2.3,3.77-3.52,5.61C25.39,42,24.86,43,24.28,44c-.75,1.26-1.51,2.51-2.35,3.71l-1,1.43c-.56.64-1.11,1.28-1.71,1.87a13.62,13.62,0,0,1-5.57,3.57A14.44,14.44,0,0,1,10.57,55.09Zm7.87-29.74c0,.17.17.1.26.1h8.09c.07,0,.21.07.21-.11a.49.49,0,0,0,0-.12c-.37-.81-.73-1.62-1.09-2.43a.19.19,0,0,0-.08-.16l-.22-.51a.25.25,0,0,0-.08-.16l-.11-.26a.19.19,0,0,0-.08-.16,3,3,0,0,0-.3-.69.12.12,0,0,0-.07-.14,1.66,1.66,0,0,0-.19-.48L22.9,16c0-.07,0-.17-.13-.18s-.09.1-.12.15c-.4.9-.8,1.79-1.19,2.69l-.78,1.67c-.22.48-.44.95-.65,1.43Z"/><path class="cls-1" d="M85.22,47.73c-.26.09-.38-.08-.47-.35s-.28-.76-.4-1.14A.35.35,0,0,0,84,46c-.54,0-1.07,0-1.61,0a.33.33,0,0,0-.36.25c-.14.43-.31.84-.43,1.26-.07.24-.2.29-.42.29-.55,0-.55,0-.36-.52l1.83-5c.06-.17.12-.24.31-.24.72,0,.73,0,1,.66.57,1.54,1.13,3.07,1.69,4.61C85.73,47.73,85.73,47.73,85.22,47.73Zm-2-2.37h.63c.2,0,.24,0,.17-.25-.25-.69-.55-1.37-.73-2.08,0-.06,0-.13-.11-.13s-.06.09-.08.14c-.18.65-.43,1.28-.66,1.92-.14.39-.14.39.29.39Z"/><path class="cls-1" d="M62,44.91c0-.84,0-1.68,0-2.52,0-.2,0-.3.26-.32a7.33,7.33,0,0,1,2.29,0,1.45,1.45,0,0,1,.39,2.75c-.2.11-.24.16,0,.3a1.77,1.77,0,0,1,.65,1.16c.11.39.2.79.32,1.17.06.19,0,.24-.16.23a1.22,1.22,0,0,0-.27,0c-.24,0-.35-.09-.41-.3-.1-.38-.2-.76-.31-1.14a1.34,1.34,0,0,0-1.77-1c-.17.05-.15.17-.15.29,0,.62,0,1.24,0,1.85,0,.36-.21.32-.44.33s-.41,0-.39-.34,0-.85,0-1.27Zm.82-1.25v.81c0,.13,0,.23.18.23a4.17,4.17,0,0,0,1.17-.07,1.08,1.08,0,0,0,.83-1,1,1,0,0,0-.81-1A3.29,3.29,0,0,0,63,42.62c-.16,0-.2.11-.2.25Z"/><path class="cls-1" d="M38.42,42.05c.33-.1.47.1.59.43.59,1.66,1.19,3.3,1.8,5,.08.23.07.3-.19.3-.53,0-.53,0-.72-.49l-.39-1.05a.3.3,0,0,0-.33-.24c-.55,0-1.11,0-1.67,0-.18,0-.26.06-.32.24-.14.41-.32.81-.43,1.22s-.22.34-.48.33c-.49,0-.5,0-.33-.46.41-1.1.84-2.2,1.22-3.3.17-.51.36-1,.54-1.5S37.77,42.05,38.42,42.05Zm-.12.76a21.38,21.38,0,0,1-.77,2.3c-.06.2,0,.25.18.25H39c.23,0,.24-.09.17-.28-.22-.56-.41-1.13-.63-1.7A1.3,1.3,0,0,0,38.3,42.81Z"/><path class="cls-1" d="M43.14,43.55v-.78a.13.13,0,0,0,0-.06c0-.65,0-.66.72-.68a6.26,6.26,0,0,1,1.83.1,1.63,1.63,0,0,1,1.06,2.34l-.12.25a3,3,0,0,1-.82.6l-.54.15a.12.12,0,0,0-.13,0,6.32,6.32,0,0,1-.87,0c-.26,0-.31.09-.3.32,0,.53,0,1.07,0,1.6,0,.25-.07.36-.32.33h-.22c-.22,0-.29-.08-.29-.3,0-1.13,0-2.26,0-3.39C43.16,43.89,43.14,43.72,43.14,43.55Zm2.75.85a1,1,0,0,0-.3-1.6,2.13,2.13,0,0,0-.91-.16c-.77,0-.77,0-.67.79,0,.23,0,.46,0,.69,0,.82,0,.81.82.79A1.29,1.29,0,0,0,45.89,44.4Z"/><path class="cls-1" d="M32.24,45.2c0-.74,0-1.49,0-2.24,0-.22-.07-.28-.28-.27-.44,0-.87,0-1.31,0-.28,0-.27-.15-.27-.35s0-.32.26-.32l3.94,0c.25,0,.31.1.31.32s-.08.3-.3.3H33.38c-.25,0-.32.09-.32.33,0,1.46,0,2.91,0,4.37,0,.12.06.3-.11.34a1,1,0,0,1-.65,0c-.1,0,0-.17,0-.25C32.24,46.7,32.24,46,32.24,45.2Z"/><path class="cls-1" d="M49.3,46.27c0-1.22,0-2.44,0-3.66a2.62,2.62,0,0,0,0-.28c0-.22.06-.32.29-.29a.74.74,0,0,0,.21,0l.31,0c0,1.42,0,2.83,0,4.24,0,.19,0,.38,0,.57l0,.86a3.34,3.34,0,0,0-.45,0c-.26,0-.39,0-.37-.31A9.14,9.14,0,0,0,49.3,46.27Z"/><path class="cls-1" d="M54.17,47.81a3.73,3.73,0,0,1-1.41-.23c-.38-.15-.11-.39-.07-.58s.2-.12.32-.06a2.57,2.57,0,0,0,1.44.24,1.06,1.06,0,0,0,1-.73.93.93,0,0,0-.57-1.09c-.33-.16-.68-.27-1-.41a2.06,2.06,0,0,1-1-.71,1.4,1.4,0,0,1,.49-1.94,2.89,2.89,0,0,1,2.37-.17c.17,0,.31.11.19.33s0,.42-.39.28a2,2,0,0,0-1.51,0,.77.77,0,0,0-.18,1.38,4.13,4.13,0,0,0,.94.47,6,6,0,0,1,.63.29,1.44,1.44,0,0,1,.82,1.47,1.52,1.52,0,0,1-1.13,1.36A2.72,2.72,0,0,1,54.17,47.81Z"/><path class="cls-1" d="M8.65,44.75c0,.08.1.18,0,.2s-.15-.1-.14-.19,0-.22.09-.22S8.57,44.71,8.65,44.75Z"/><path class="cls-1" d="M9,44.94c-.11.12-.22.12-.4,0A.66.66,0,0,1,9,44.85Z"/></g></g></svg>