<svg xmlns="http://www.w3.org/2000/svg" viewBox="0 0 106.35 78.41"><defs><style>.cls-1,.cls-2{fill:#fff;}.cls-2{fill-rule:evenodd;}</style></defs><g id="Layer_2" data-name="Layer 2"><g id="Layer_2_copy" data-name="Layer 2 copy"><path class="cls-1" d="M50.05,1.27a6.16,6.16,0,0,1,4.38,1.81L72.91,21.56a6.23,6.23,0,0,1,0,8.79L54.43,48.81a6.22,6.22,0,0,1-8.77,0L27.18,30.35a6.25,6.25,0,0,1,0-8.79L45.66,3.08a6.21,6.21,0,0,1,4.39-1.81m0-1.27a7.48,7.48,0,0,0-5.29,2.18L26.28,20.66a7.53,7.53,0,0,0,0,10.59L44.76,49.71a7.5,7.5,0,0,0,10.57,0L73.81,31.25a7.51,7.51,0,0,0,0-10.59L55.33,2.18A7.46,7.46,0,0,0,50.05,0Z"/><path class="cls-1" d="M53.16,16.84a8.76,8.76,0,0,1,9,8.47,9,9,0,0,1-18,0,8.75,8.75,0,0,1,9-8.47m0-1.27A10,10,0,0,0,42.9,25.31a10.28,10.28,0,0,0,20.54,0,10,10,0,0,0-10.28-9.74Z"/><path class="cls-1" d="M53.16,23.59a1.74,1.74,0,1,1,0,3.46,1.74,1.74,0,1,1,0-3.46m0-1.28a3,3,0,1,0,3.15,3,3.09,3.09,0,0,0-3.15-3Z"/><path class="cls-1" d="M48.74,9.22v5.29a12.53,12.53,0,0,0-4.57,3V13.67c.2-2.5,2.27-4,4.57-4.45M50,7.76C46.4,8,43.16,10,42.9,13.62V22A10.63,10.63,0,0,1,50,15.4V7.76Z"/><path class="cls-1" d="M44.25,33.09a12.48,12.48,0,0,0,4.58,3v5.29c-2.3-.48-4.38-1.93-4.58-4.45V33.09M43,28.65V37c.26,3.61,3.52,5.68,7.13,5.85V35.21A10.66,10.66,0,0,1,43,28.65Z"/><path class="cls-2" d="M32.77,63.14a2,2,0,0,1-1,1.82,3.73,3.73,0,0,1-1.88.52V63.74c.64-.06,1-.32,1-.79s-.32-.72-1-.78V60.5c.47-.06.7-.31.7-.69s-.23-.54-.7-.6V57.47a3.57,3.57,0,0,1,1.57.41,1.72,1.72,0,0,1,1,1.59,1.75,1.75,0,0,1-1.2,1.73,2.13,2.13,0,0,1,1.12.71A1.79,1.79,0,0,1,32.77,63.14Zm-2.92,2.34H27.2v-8h2.28a2.36,2.36,0,0,1,.37,0v1.74h-.71v1.33h.34a1.42,1.42,0,0,0,.37,0v1.67a1.51,1.51,0,0,0-.31,0h-.4v1.61h.4a1.51,1.51,0,0,0,.31,0Z"/><polygon class="cls-2" points="38.66 65.48 33.85 65.48 33.85 57.45 38.52 57.45 38.52 59.24 35.77 59.24 35.77 60.38 38.12 60.38 38.12 62.18 35.77 62.18 35.77 63.7 38.66 63.7 38.66 65.48"/><polygon class="cls-2" points="46.45 65.48 44.53 65.48 41.77 60.94 41.77 65.48 39.85 65.48 39.85 57.45 41.77 57.45 44.53 62 44.53 57.45 46.45 57.45 46.45 65.48"/><path class="cls-2" d="M53.7,60.33a2.47,2.47,0,0,1-1.18,2.2,3.81,3.81,0,0,1-1.64.61v-1.8a1.5,1.5,0,0,0,.4-.2.92.92,0,0,0,.46-.81.93.93,0,0,0-.46-.81,1.44,1.44,0,0,0-.4-.18V57.48a3.66,3.66,0,0,1,1.75.74A2.57,2.57,0,0,1,53.7,60.33Zm-2.82,2.81a4.64,4.64,0,0,1-.85.07v2.27H48.11v-8h2.22c.19,0,.37,0,.55,0v1.86a1.42,1.42,0,0,0-.55-.1H50v2.18h.3a2.35,2.35,0,0,0,.55-.08Z"/><path class="cls-2" d="M60.6,65.33l-1.93.43-.51-1.62H56.89V62.35h.72L56.89,60V57.45h.82Zm-3.71-1.19H55.62l-.48,1.62-2-.43,2.89-7.88h.81V60l-.71,2.37h.71Z"/><path class="cls-2" d="M67.42,64.55a3.57,3.57,0,0,1-2.81,1.21A3.06,3.06,0,0,1,62,64.38a4.84,4.84,0,0,1-.92-2.9,4.74,4.74,0,0,1,.95-2.88,3,3,0,0,1,2.56-1.41,3.57,3.57,0,0,1,2.81,1.21l-1.18,1.23a1.68,1.68,0,0,0-1.39-.69,1.49,1.49,0,0,0-1.42.84,3.35,3.35,0,0,0-.37,1.7c0,1.68.6,2.52,1.79,2.52a1.59,1.59,0,0,0,1.39-.81Z"/><polygon class="cls-2" points="75.33 64.78 73.49 65.76 70.42 62.01 70.42 65.48 68.49 65.48 68.49 57.45 70.42 57.45 70.42 60.74 73.11 57.25 74.89 58.11 72.07 61.34 75.33 64.78"/><path class="cls-2" d="M92.38,77.38v-1h0a.87.87,0,0,0,.81-.49,2.42,2.42,0,0,0,0-1.83.87.87,0,0,0-.81-.49h0v-1h0a2,2,0,0,1,1.64.76A2.46,2.46,0,0,1,94.61,75a2.51,2.51,0,0,1-.26,1.11,2.14,2.14,0,0,1-.78.9l1.13,1-1.2.4-1.12-1Z"/><path class="cls-2" d="M100.93,75.38a1.88,1.88,0,0,1-.57,1.39,2,2,0,0,1-1.49.61,2,2,0,0,1-1.5-.61,1.88,1.88,0,0,1-.57-1.39V72.75H98v2.17a2.79,2.79,0,0,0,.11.93.78.78,0,0,0,1.49,0,2.71,2.71,0,0,0,.13-.93V72.75h1.19v2.63Z"/><polygon class="cls-2" points="106.35 77.24 103.33 77.24 103.33 72.75 106.25 72.75 106.25 73.76 104.54 73.76 104.54 74.38 106.01 74.38 106.01 75.39 104.54 75.39 104.54 76.23 106.35 76.23 106.35 77.24"/><path class="cls-2" d="M92.38,72.61v1a.86.86,0,0,0-.81.49,2.19,2.19,0,0,0,0,1.83.86.86,0,0,0,.81.49v1a2,2,0,0,1-1.65-.76,2.57,2.57,0,0,1,0-3.25,2,2,0,0,1,1.65-.76Z"/><polygon class="cls-2" points="71.86 76.48 71.86 75.48 72.32 75.48 71.86 74.15 71.86 74.17 71.86 72.75 72.37 72.75 74.19 77.15 72.97 77.38 72.66 76.48 71.86 76.48 71.86 76.48"/><polygon class="cls-2" points="79.19 77.24 76.24 77.24 76.24 72.75 77.45 72.75 77.45 76.23 79.19 76.23 79.19 77.24 79.19 77.24"/><polygon class="cls-2" points="84.3 77.24 81.33 77.24 81.33 72.75 82.54 72.75 82.54 76.23 84.3 76.23 84.3 77.24 84.3 77.24"/><rect class="cls-1" x="86.57" y="72.75" width="1.21" height="4.5"/><polygon class="cls-2" points="71.86 72.75 71.86 74.17 71.41 75.48 71.86 75.48 71.86 76.48 71.07 76.48 70.76 77.38 69.55 77.15 71.36 72.75 71.86 72.75 71.86 72.75"/><polygon class="cls-2" points="35.1 76.27 35.1 75.27 35.55 75.27 35.1 73.94 35.1 73.96 35.1 72.53 35.61 72.53 37.41 76.94 36.21 77.17 35.9 76.27 35.1 76.27 35.1 76.27"/><path class="cls-2" d="M42.59,76.53a2.29,2.29,0,0,1-1.88.81A2.12,2.12,0,0,1,39,76.58a2.55,2.55,0,0,1-.6-1.69,2.36,2.36,0,0,1,.64-1.6,2.18,2.18,0,0,1,1.67-.72,2.5,2.5,0,0,1,1.88.67l-.78.75a1.35,1.35,0,0,0-1.1-.44,1,1,0,0,0-.82.46,1.57,1.57,0,0,0-.26.88,1.91,1.91,0,0,0,.23,1,.92.92,0,0,0,.85.5,1.17,1.17,0,0,0,.69-.21V74.92h1.19v1.61Z"/><polygon class="cls-2" points="48.01 77.2 45 77.2 45 72.71 47.92 72.71 47.92 73.72 46.2 73.72 46.2 74.34 47.67 74.34 47.67 75.35 46.2 75.35 46.2 76.19 48.01 76.19 48.01 77.2 48.01 77.2"/><polygon class="cls-2" points="57.8 77.18 56.61 77.38 56.24 74.43 55.39 77.24 54.27 77.24 53.41 74.43 53.08 77.38 51.87 77.18 52.82 72.75 53.93 72.75 54.84 75.79 55.74 72.75 56.86 72.75 57.8 77.18 57.8 77.18"/><polygon class="cls-2" points="62.98 77.24 59.96 77.24 59.96 72.75 62.88 72.75 62.88 73.76 61.17 73.76 61.17 74.38 62.64 74.38 62.64 75.39 61.17 75.39 61.17 76.23 62.98 76.23 62.98 77.24 62.98 77.24"/><polygon class="cls-2" points="68.59 73.76 67.32 73.76 67.32 77.24 66.13 77.24 66.13 73.76 64.86 73.76 64.86 72.75 68.59 72.75 68.59 73.76"/><polygon class="cls-2" points="35.1 72.53 35.1 73.96 34.65 75.27 35.1 75.27 35.1 76.27 34.31 76.27 34 77.17 32.8 76.94 34.59 72.53 35.1 72.53 35.1 72.53"/><path class="cls-2" d="M14.72,77.2v-1c.39,0,.59-.18.59-.44s-.2-.41-.59-.44v-.92c.29,0,.43-.18.43-.4s-.14-.29-.43-.34v-1a2.44,2.44,0,0,1,1,.23,1,1,0,0,1,.62.89,1,1,0,0,1-.75,1,1.47,1.47,0,0,1,.71.4,1,1,0,0,1,.26.69,1.11,1.11,0,0,1-.64,1,2.57,2.57,0,0,1-1.18.3Z"/><polygon class="cls-2" points="25.99 77.13 23.03 77.13 23.03 72.63 24.23 72.63 24.23 76.12 25.99 76.12 25.99 77.13 25.99 77.13"/><polygon class="cls-2" points="31.31 77.2 28.36 77.2 28.36 72.71 29.55 72.71 29.55 76.19 31.31 76.19 31.31 77.2"/><polygon class="cls-2" points="3 77.2 0 77.2 0 72.71 2.92 72.71 2.92 73.72 1.21 73.72 1.21 74.34 2.68 74.34 2.68 75.35 1.21 75.35 1.21 76.19 3 76.19 3 77.2 3 77.2"/><path class="cls-2" d="M14.72,72.72v1h-.45v.75h.45v.92h-.45v.88h.45v1H13.06V72.71h1.66Z"/><polygon class="cls-2" points="10.89 77.14 9.7 77.34 9.33 74.39 8.49 77.2 7.36 77.2 6.52 74.39 6.17 77.34 4.96 77.14 5.91 72.71 7.04 72.71 7.92 75.75 8.83 72.71 9.94 72.71 10.89 77.14"/><text/><polygon class="cls-2" points="19.75 76.48 19.75 75.48 20.2 75.48 19.75 74.15 19.75 74.17 19.75 72.75 20.26 72.75 22.06 77.15 20.86 77.38 20.55 76.48 19.75 76.48 19.75 76.48"/><polygon class="cls-2" points="19.75 72.75 19.75 74.17 19.3 75.48 19.75 75.48 19.75 76.48 18.96 76.48 18.65 77.38 17.44 77.15 19.23 72.75 19.75 72.75 19.75 72.75"/><text/></g></g></svg>