<svg xmlns="http://www.w3.org/2000/svg" viewBox="0 0 73.92 47.9"><defs><style>.cls-1,.cls-2{fill:#fff;}.cls-1{fill-rule:evenodd;}</style></defs><g id="Layer_2" data-name="Layer 2"><g id="Layer_2_copy" data-name="Layer 2 copy"><path class="cls-1" d="M33.47,23.12c.05-2,1.73-3.14,3.89-3.57,3.69-.71,10.81-2.19,13.46-5a7,7,0,0,0,2-4.91,8.6,8.6,0,0,0-1.58-4.94A9.53,9.53,0,0,0,47,1.18Q44.22,0,37.66,0H19.84a.49.49,0,0,0-.49.49h0a.51.51,0,0,0,.49.5,7.84,7.84,0,0,1,3.09.47,2.82,2.82,0,0,1,1.34,1.3,11.77,11.77,0,0,1,.38,3.93V20.54c1.69-2.16,4.18-3.67,7.89-4.41A1.17,1.17,0,0,0,33.47,15V2.13a15.64,15.64,0,0,1,6,.82,6.35,6.35,0,0,1,2.9,2.47,7.78,7.78,0,0,1,1,4.14,7.68,7.68,0,0,1-1,4.18,6.74,6.74,0,0,1-2.93,2.53,11.43,11.43,0,0,1-3.87.84c-4.24.37-10.43,2.54-10.91,8.68v5.74a11.69,11.69,0,0,1-.38,3.92,2.85,2.85,0,0,1-1.33,1.28,7.5,7.5,0,0,1-3.1.49.51.51,0,0,0-.49.5h0a.49.49,0,0,0,.49.49H38.75q8.1,0,12.35-3.41a8.75,8.75,0,0,0,3.47-7.14c0-6.88-6.81-9.62-14.71-7.8,3.37,1.42,4.63,4.83,4.57,8.11a9.34,9.34,0,0,1-1,4.22,6.73,6.73,0,0,1-2.87,2.89,8.54,8.54,0,0,1-4.07,1,3,3,0,0,1-2.26-.78A3.1,3.1,0,0,1,33.47,33V23.12Z"/><path class="cls-2" d="M3.9,45.52a1.54,1.54,0,0,1-.53,1.25,2,2,0,0,1-1.3.46H1.52c-1,0-1.52-.44-1.52-1.33V42.19A4.78,4.78,0,0,1,.7,42a4,4,0,0,1,.75-.09h.61a2,2,0,0,1,1.27.39,1.29,1.29,0,0,1,.49,1,1.09,1.09,0,0,1-.6,1.07,1.5,1.5,0,0,1,.49.48A1.09,1.09,0,0,1,3.9,45.52ZM2.56,43.45c0-.29-.21-.44-.64-.44H1.55l-.32,0v.9h.66C2.34,43.94,2.56,43.78,2.56,43.45Zm.09,2.11a.55.55,0,0,0-.17-.46A.93.93,0,0,0,1.92,45H1.24v.9a.16.16,0,0,0,.09.14.56.56,0,0,0,.23.05H2a.85.85,0,0,0,.52-.13A.47.47,0,0,0,2.65,45.56Z"/><path class="cls-2" d="M9.62,44.5a3,3,0,0,1-.68,2,2.32,2.32,0,0,1-1.85.79,2.26,2.26,0,0,1-1.71-.75,2.68,2.68,0,0,1-.69-1.9,3,3,0,0,1,.67-2,2.33,2.33,0,0,1,1.85-.77,2.3,2.3,0,0,1,1.7.72A2.63,2.63,0,0,1,9.62,44.5Zm-1.28.14A2,2,0,0,0,8,43.41,1.06,1.06,0,0,0,7.11,43a1,1,0,0,0-.82.41A1.68,1.68,0,0,0,6,44.5c0,1.11.41,1.67,1.23,1.67A1,1,0,0,0,8,45.78,1.82,1.82,0,0,0,8.34,44.64Z"/><path class="cls-2" d="M14.77,44.82a2.72,2.72,0,0,1-.56,1.83,2.09,2.09,0,0,1-1.67.65A2,2,0,0,1,11,46.67a2.55,2.55,0,0,1-.57-1.77V42h.51a.64.64,0,0,1,.52.25,1.15,1.15,0,0,1,.22.79v1.85a1.66,1.66,0,0,0,.23,1,.88.88,0,0,0,.74.3c.58,0,.87-.4.87-1.22V42H14a.64.64,0,0,1,.55.26,1.23,1.23,0,0,1,.2.76Z"/><path class="cls-2" d="M19.33,42.38a.68.68,0,0,1-.22.46.69.69,0,0,1-.51.23h-.79V47.2h-.53a.71.71,0,0,1-.53-.21.83.83,0,0,1-.2-.59V43.07H15.11v-.45a.62.62,0,0,1,.2-.46.68.68,0,0,1,.53-.21h3.49Z"/><path class="cls-2" d="M21.22,47.2h-.51A.73.73,0,0,1,20.2,47a.78.78,0,0,1-.22-.58V42h.57a.65.65,0,0,1,.46.19.59.59,0,0,1,.21.46Z"/><path class="cls-2" d="M26.63,47.9a5,5,0,0,1-1.28-.2,5.11,5.11,0,0,1-1.21-.45,2.41,2.41,0,0,1-1.35-.84,2.6,2.6,0,0,1-.6-1.77,3,3,0,0,1,.64-2,2.35,2.35,0,0,1,1.91-.78,2.3,2.3,0,0,1,1.68.71,2.67,2.67,0,0,1,.7,1.93,2.75,2.75,0,0,1-.33,1.37,2.13,2.13,0,0,1-.79.88,8.22,8.22,0,0,0,1.3.1v.45C27.3,47.7,27.08,47.9,26.63,47.9Zm-.79-3.28c0-1.09-.41-1.63-1.22-1.63a1,1,0,0,0-.85.41,1.84,1.84,0,0,0-.31,1.1,2,2,0,0,0,.34,1.26,1.13,1.13,0,0,0,.94.42.91.91,0,0,0,.8-.44A2,2,0,0,0,25.84,44.62Z"/><path class="cls-2" d="M32.33,44.82a2.67,2.67,0,0,1-.56,1.83,2.09,2.09,0,0,1-1.67.65,2,2,0,0,1-1.55-.63A2.55,2.55,0,0,1,28,44.9V42h.51a.67.67,0,0,1,.53.25,1.2,1.2,0,0,1,.21.79v1.85a1.66,1.66,0,0,0,.23,1,.89.89,0,0,0,.74.3c.58,0,.87-.4.87-1.22V42h.51a.63.63,0,0,1,.55.26,1.17,1.17,0,0,1,.2.76Z"/><path class="cls-2" d="M37.18,46v.52a.63.63,0,0,1-.27.56,1.86,1.86,0,0,1-1,.17h-.53a2,2,0,0,1-1.48-.52,2.14,2.14,0,0,1-.5-1.55v-.92a10.13,10.13,0,0,1,.09-1.43,1.13,1.13,0,0,1,.29-.66.9.9,0,0,1,.61-.2h2.74v.46c0,.43-.27.65-.8.65H34.76c0,.24,0,.55-.06.92h1.93v.48a.53.53,0,0,1-.18.45.91.91,0,0,1-.55.13H34.7v.18a1,1,0,0,0,.2.73,1.12,1.12,0,0,0,.74.18H36A5.57,5.57,0,0,0,37.18,46Z"/><path class="cls-2" d="M43.83,43.59a1.81,1.81,0,0,1-.52,1.34,1.78,1.78,0,0,1-1.29.5,2.22,2.22,0,0,1-.72-.11V47.2h-.52a.76.76,0,0,1-.51-.2.86.86,0,0,1-.22-.63V42.18a6.23,6.23,0,0,1,.72-.18,3.78,3.78,0,0,1,.71-.09H42a1.81,1.81,0,0,1,1.29.45A1.55,1.55,0,0,1,43.83,43.59Zm-1.28.09a.71.71,0,0,0-.15-.51.62.62,0,0,0-.48-.16H41.6l-.3.05v1.22a3.17,3.17,0,0,0,.59,0,.68.68,0,0,0,.49-.17A.65.65,0,0,0,42.55,43.68Z"/><path class="cls-2" d="M48.11,47.2h-.55A.87.87,0,0,1,47,47a.65.65,0,0,1-.24-.42l0-.16,0-.2q0-.11,0-.18l0-.15h-1.8c-.1.45-.19.88-.25,1.28h-.5c-.38,0-.58-.2-.58-.61a8.38,8.38,0,0,1,.61-2.32A7.48,7.48,0,0,1,45.29,42h.47a1,1,0,0,1,.92.53,13.1,13.1,0,0,1,.82,2.11A15.54,15.54,0,0,1,48.11,47.2Zm-2.36-4a8,8,0,0,0-.62,1.63h1.23A9.3,9.3,0,0,0,45.75,43.25Z"/><path class="cls-2" d="M52.58,43.59a1.73,1.73,0,0,1-1.81,1.84,2.16,2.16,0,0,1-.71-.11V47.2h-.52A.76.76,0,0,1,49,47a.82.82,0,0,1-.22-.63V42.18a6.54,6.54,0,0,1,.71-.18,3.88,3.88,0,0,1,.71-.09h.57a1.84,1.84,0,0,1,1.29.45A1.55,1.55,0,0,1,52.58,43.59Zm-1.28.09a.71.71,0,0,0-.15-.51.58.58,0,0,0-.47-.16h-.33l-.29.05v1.22a3.13,3.13,0,0,0,.58,0,.66.66,0,0,0,.49-.17A.61.61,0,0,0,51.3,43.68Z"/><path class="cls-2" d="M54.55,47.2H54a.73.73,0,0,1-.51-.21.82.82,0,0,1-.22-.58V42h.58a.67.67,0,0,1,.46.19.59.59,0,0,1,.21.46Z"/><path class="cls-2" d="M59.41,46.39a.77.77,0,0,1-.25.64,1.46,1.46,0,0,1-.91.21h-.38a1.93,1.93,0,0,1-1.45-.51,2,2,0,0,1-.5-1.46V42h.53c.5,0,.75.28.75.85v2.4a1.14,1.14,0,0,0,.16.71c.1.14.31.2.63.2h.26a2.89,2.89,0,0,0,1.16-.25Z"/><path class="cls-2" d="M63.56,46.39a.77.77,0,0,1-.25.64,1.46,1.46,0,0,1-.91.21H62a1.92,1.92,0,0,1-1.44-.51,2,2,0,0,1-.5-1.46V42h.53c.49,0,.74.28.74.85v2.4a1.21,1.21,0,0,0,.16.71.77.77,0,0,0,.63.2h.27a2.89,2.89,0,0,0,1.16-.25Z"/><path class="cls-2" d="M68.67,44.5a3,3,0,0,1-.67,2,2.33,2.33,0,0,1-1.85.79,2.23,2.23,0,0,1-1.71-.75,2.64,2.64,0,0,1-.7-1.9,3,3,0,0,1,.68-2A2.49,2.49,0,0,1,68,42.58,2.62,2.62,0,0,1,68.67,44.5Zm-1.28.14a2,2,0,0,0-.31-1.23,1.08,1.08,0,0,0-.91-.42,1,1,0,0,0-.83.41A1.73,1.73,0,0,0,65,44.5c0,1.11.41,1.67,1.23,1.67a1,1,0,0,0,.84-.39A1.89,1.89,0,0,0,67.39,44.64Z"/><path class="cls-2" d="M73.92,47.2h-.51a1.19,1.19,0,0,1-.75-.27,3.28,3.28,0,0,1-.8-1.11c-.65-1.28-1-1.93-1-2V47.2h-.52a.73.73,0,0,1-.51-.21.78.78,0,0,1-.22-.57V42h.62A1.67,1.67,0,0,1,71.75,43q.09.16.42.84l.52,1V42h.56a.63.63,0,0,1,.46.21.67.67,0,0,1,.21.49Z"/></g></g></svg>