<svg xmlns="http://www.w3.org/2000/svg" viewBox="0 0 83.05 91.33"><defs><style>.cls-1{fill:#fff;}.cls-2,.cls-3,.cls-4{fill:none;stroke:#fff;stroke-linecap:round;stroke-linejoin:round;}.cls-2{stroke-width:2.18px;}.cls-3{stroke-width:2.18px;}.cls-4{stroke-width:2.18px;}</style></defs><g id="Layer_2" data-name="Layer 2"><g id="Layer_2_copy" data-name="Layer 2 copy"><path class="cls-1" d="M12.51,87.57H10.07v1.65h2.68l-.09.62H9.36V84.91h3.26v.62H10.07V87h2.44Z"/><path class="cls-1" d="M13.44,87.16c0-.31,0-.63,0-.93h.68c0,.1,0,.36,0,.53a1.13,1.13,0,0,1,1-.62,1,1,0,0,1,1,.63,1.26,1.26,0,0,1,1.15-.63c.59,0,1.14.36,1.14,1.33v2.37h-.69V87.55c0-.4-.14-.82-.68-.82s-.79.42-.79,1v2.07h-.68V87.58c0-.45-.13-.84-.67-.84s-.81.42-.81,1.1v2h-.69Z"/><path class="cls-1" d="M19.48,84.64h.7v2.08a1.19,1.19,0,0,1,1.13-.58c.92,0,1.48.76,1.48,1.83s-.55,2-1.57,2a1,1,0,0,1-1-.54,4.16,4.16,0,0,1,0,.45h-.67v-5.2ZM22.07,88c0-.75-.33-1.25-.94-1.25s-1,.48-1,1.32.23,1.3,1,1.3S22.07,88.82,22.07,88Z"/><path class="cls-1" d="M26.33,89a4.77,4.77,0,0,0,.05.81h-.67a1.78,1.78,0,0,1-.06-.45,1.12,1.12,0,0,1-1.1.54,1.1,1.1,0,0,1-1.22-1.11c0-.81.64-1.18,1.71-1.18h.6v-.29c0-.31-.1-.67-.73-.67s-.67.27-.73.55H23.5c.05-.52.38-1.09,1.43-1.09.9,0,1.4.37,1.4,1.2Zm-.68-.93H25.1c-.7,0-1.06.2-1.06.68a.61.61,0,0,0,.67.62c.83,0,.94-.56.94-1.18Z"/><path class="cls-1" d="M27.37,89.84v-5.2h.69v5.2Z"/><path class="cls-1" d="M29.1,89.84v-5.2h.7v5.2Z"/><path class="cls-1" d="M33.53,89a6.15,6.15,0,0,0,0,.81h-.66a1.78,1.78,0,0,1-.06-.45,1.12,1.12,0,0,1-1.1.54,1.1,1.1,0,0,1-1.22-1.11c0-.81.64-1.18,1.71-1.18h.6v-.29c0-.31-.1-.67-.74-.67s-.67.27-.73.55h-.67c.05-.52.38-1.09,1.43-1.09s1.39.37,1.39,1.2Zm-.68-.93H32.3c-.7,0-1,.2-1,.68a.61.61,0,0,0,.67.62c.82,0,.93-.56.93-1.18Z"/><path class="cls-1" d="M37.61,89.5c0,1.16-.47,1.83-1.68,1.83s-1.47-.64-1.52-1.11h.71a.78.78,0,0,0,.84.57c.78,0,1-.5,1-1.31v-.27a1.09,1.09,0,0,1-1.11.61c-.9,0-1.49-.73-1.49-1.78s.68-1.9,1.56-1.9c.68,0,1,.32,1,.55,0-.15,0-.39,0-.46h.66c0,.23,0,.7,0,1ZM35.05,88c0,.74.38,1.23.94,1.23.75,0,1-.51,1-1.27s-.19-1.24-.94-1.24S35.05,87.24,35.05,88Z"/><path class="cls-1" d="M39.1,88.17c0,.68.34,1.19.93,1.19a.78.78,0,0,0,.83-.53h.7A1.49,1.49,0,0,1,40,89.93a1.65,1.65,0,0,1-1.62-1.85c0-1.09.55-1.94,1.66-1.94a1.55,1.55,0,0,1,1.57,1.73,2.91,2.91,0,0,1,0,.3Zm1.82-.47c0-.56-.28-1-.87-1s-.87.42-.93,1Z"/><path class="cls-1" d="M44.64,88.17c0,.68.34,1.19.93,1.19a.79.79,0,0,0,.83-.53h.7a1.49,1.49,0,0,1-1.55,1.1,1.64,1.64,0,0,1-1.62-1.85c0-1.09.55-1.94,1.66-1.94a1.55,1.55,0,0,1,1.57,1.73,2.91,2.91,0,0,1,0,.3Zm1.82-.47c0-.56-.28-1-.88-1s-.86.42-.92,1Z"/><path class="cls-1" d="M47.94,87.14c0-.31,0-.63,0-.91h.68a5.3,5.3,0,0,1,0,.57,1.12,1.12,0,0,1,1.12-.66c.68,0,1.2.43,1.2,1.38v2.32h-.69V87.61c0-.52-.2-.87-.73-.87s-.9.46-.9,1.17v1.93h-.7Z"/><path class="cls-1" d="M57.85,88.42a1.88,1.88,0,0,1-2,1.49,2.23,2.23,0,0,1-2.24-2.51,2.3,2.3,0,0,1,2.27-2.56,1.81,1.81,0,0,1,2,1.51h-.73a1.19,1.19,0,0,0-1.26-.91c-1,0-1.47,1-1.47,1.93s.39,1.94,1.5,1.94a1.21,1.21,0,0,0,1.23-.89Z"/><path class="cls-1" d="M61.43,89a6.15,6.15,0,0,0,0,.81h-.67a1.49,1.49,0,0,1-.05-.45,1.12,1.12,0,0,1-1.1.54,1.1,1.1,0,0,1-1.22-1.11c0-.81.64-1.18,1.71-1.18h.6v-.29c0-.31-.1-.67-.74-.67s-.67.27-.73.55h-.67c0-.52.37-1.09,1.42-1.09.9,0,1.4.37,1.4,1.2Zm-.68-.93H60.2c-.7,0-1.05.2-1.05.68a.61.61,0,0,0,.67.62c.82,0,.93-.56.93-1.18Z"/><path class="cls-1" d="M62.47,87.21c0-.48,0-.77,0-1h.69c0,.1,0,.4,0,.72a1.25,1.25,0,0,1,1.2-.81v.69a1.11,1.11,0,0,0-1.2,1.29v1.72h-.7Z"/><path class="cls-1" d="M64.8,86.23h.62v-1h.69v1h.78v.56h-.78v2c0,.34.09.5.41.5a1.09,1.09,0,0,0,.3,0v.52a1.78,1.78,0,0,1-.57.06c-.59,0-.83-.3-.83-.91V86.79H64.8Z"/><path class="cls-1" d="M70.68,88A1.72,1.72,0,0,1,69,89.93,1.69,1.69,0,0,1,67.28,88,1.71,1.71,0,0,1,69,86.14,1.69,1.69,0,0,1,70.68,88ZM68,88c0,.77.38,1.32,1,1.32s1-.52,1-1.32-.35-1.32-1-1.32S68,87.22,68,88Z"/><path class="cls-1" d="M71.47,87.14c0-.31,0-.63,0-.91h.68a5.3,5.3,0,0,1,0,.57,1.12,1.12,0,0,1,1.12-.66c.68,0,1.2.43,1.2,1.38v2.32H73.8V87.61c0-.52-.2-.87-.73-.87s-.9.46-.9,1.17v1.93h-.7Z"/><path class="cls-1" d="M17.89,77.66l-1.53,4H14.27L19.6,68h1.92l5.33,13.64H24.69l-1.5-4Zm4.58-1.92-1.92-5.18L18.6,75.74Z"/><path class="cls-1" d="M29.58,81.63h-2V68h3.93a5.5,5.5,0,0,1,3.75,1.14,4.13,4.13,0,0,1,1.3,3.28,3.84,3.84,0,0,1-1.09,2.78,4,4,0,0,1-2.78,1.21l3.87,5.23H34.1L29.58,75.3Zm0-6.55h1a5.61,5.61,0,0,0,3.05-.67,2.26,2.26,0,0,0,1-2,2.22,2.22,0,0,0-.87-1.94,4.73,4.73,0,0,0-2.72-.62H29.58Z"/><path class="cls-1" d="M41.92,81.63H40V69.83H37.4V68h7.07v1.84H41.92Z"/><path class="cls-1" d="M52.89,81.63H45.8V68h7.09v1.82H47.78v4.08h5.11v1.78H47.78v4.08h5.11Z"/><path class="cls-1" d="M67.72,78.21A6.6,6.6,0,0,1,65.26,81a6.93,6.93,0,0,1-3.64,1,6.84,6.84,0,0,1-2.84-.59,6.94,6.94,0,0,1-2.32-1.76,6.61,6.61,0,0,1-1.32-2.19,7.62,7.62,0,0,1-.45-2.64,6.85,6.85,0,0,1,.54-2.7,7.22,7.22,0,0,1,1.59-2.33A7,7,0,0,1,59,68.22a6.85,6.85,0,0,1,2.61-.5,6.78,6.78,0,0,1,3.68,1,6.24,6.24,0,0,1,2.4,2.81H65.39a4.13,4.13,0,0,0-1.61-1.36,4.86,4.86,0,0,0-2.16-.46,4.6,4.6,0,0,0-3.38,1.42,5.26,5.26,0,0,0-1.49,3.63,5.92,5.92,0,0,0,.35,2,4.84,4.84,0,0,0,1,1.64,5,5,0,0,0,1.63,1.14,4.73,4.73,0,0,0,1.87.4,4.84,4.84,0,0,0,2.11-.45,3.81,3.81,0,0,0,1.55-1.29Z"/><path class="cls-1" d="M69.11,74.73A7,7,0,0,1,69.66,72a7.14,7.14,0,0,1,1.59-2.31,7,7,0,0,1,2.21-1.48,6.85,6.85,0,0,1,2.61-.5A7,7,0,0,1,82.52,72a7.07,7.07,0,0,1,.53,2.73,7.63,7.63,0,0,1-.45,2.67,6.51,6.51,0,0,1-1.35,2.2,7.37,7.37,0,0,1-2.37,1.73,7,7,0,0,1-2.83.58,6.84,6.84,0,0,1-2.84-.59,7.08,7.08,0,0,1-2.33-1.76,6.61,6.61,0,0,1-1.32-2.19A7.62,7.62,0,0,1,69.11,74.73Zm2.07,0a5.69,5.69,0,0,0,.35,2,4.84,4.84,0,0,0,1,1.64,5.07,5.07,0,0,0,1.62,1.14,4.81,4.81,0,0,0,1.88.4,4.66,4.66,0,0,0,3.54-1.51A5.2,5.2,0,0,0,81,74.71a4.76,4.76,0,0,0-.34-1.8,5.21,5.21,0,0,0-1-1.58A5.08,5.08,0,0,0,78,70.1a4.64,4.64,0,0,0-2-.4,4.75,4.75,0,0,0-1.84.36,4.66,4.66,0,0,0-1.54,1.06,5.26,5.26,0,0,0-1.49,3.63Z"/><path class="cls-1" d="M12.21,78.66a1.86,1.86,0,0,1-1.82,1.74H3.27a1.86,1.86,0,0,1-1.82-1.89V71.12a1.85,1.85,0,0,1,1.82-1.89h7.12a1.86,1.86,0,0,1,1.83,1.89v.15h1.44v-.15a3.34,3.34,0,0,0-3.27-3.4H3.27A3.35,3.35,0,0,0,0,71.12v7.39A3.34,3.34,0,0,0,3.27,81.9h7.12a3.33,3.33,0,0,0,3.27-3.24Z"/><polygon class="cls-2" points="53.82 1.09 45.81 12.79 64.08 22.72 72.09 11.02 53.82 1.09 53.82 1.09"/><path class="cls-3" d="M24.28,45.4V50L42.6,60l0-23-11,12.4-7.31-4ZM42.6,59.9,64.05,45.71V34.59L48.69,44.75,42.45,37l.15,23Z"/><path class="cls-2" d="M24.22,27.08,45.81,12.79l-12.67.82L11.55,27.89l12.67-.81ZM48.73,44.76,70.32,30.47l-6.24-7.75L42.49,37l6.24,7.76ZM24.22,27.08l-11,12.36,18.28,9.93L42.49,37,24.22,27.08Z"/><polyline class="cls-3" points="24.25 50.02 42.52 59.95 64.11 45.66"/><line class="cls-4" x1="45.88" y1="34.45" x2="45.85" y2="12.85"/></g></g></svg>