<svg xmlns="http://www.w3.org/2000/svg" viewBox="0 0 169 28.11"><defs><style>.cls-1{fill:#fff;}.cls-2{fill:#999;}</style></defs><g id="Layer_2" data-name="Layer 2"><g id="Layer_2_copy" data-name="Layer 2 copy"><path class="cls-1" d="M119.67,8.49a5.26,5.26,0,0,1-.89,0H117a.72.72,0,0,1,0-.19,1.34,1.34,0,0,1,0-.2V.26c0-.09,0-.18,0-.26h2.78c0,.12,0,.23,0,.35,0,2.58,0,5.17,0,7.75A.66.66,0,0,1,119.67,8.49Z"/><path class="cls-1" d="M105.79,14.71a1.79,1.79,0,0,1-.48,1.32l-.09.1c-1.16,1.14-2.22,2.37-3.34,3.56-1.73,1.84-3.47,3.66-5.2,5.49-.65.69-1.29,1.39-1.94,2.09-.11.11-.22.23-.35.34a1.85,1.85,0,0,1-1.15.45,1.51,1.51,0,0,1-.92-.25,5.3,5.3,0,0,1-.52-.42c-2.31-2.26-4.72-4.4-7.07-6.61l-1.68-1.61L81.82,18c-.53-.49-1-1-1.59-1.48a1.6,1.6,0,0,1-.55-1.16,1.86,1.86,0,0,1,.39-1.3l.21-.24,5.38-5.69,4.11-4.39c.29-.31.58-.64.88-1a4.68,4.68,0,0,1,.56-.53A1.79,1.79,0,0,1,92.78,2a1.32,1.32,0,0,1,.49.24l.37.31c.55.53,1.1,1.06,1.66,1.58L103,11.38l2.06,1.91.21.2A1.5,1.5,0,0,1,105.79,14.71Z"/><path class="cls-1" d="M169,3.79V8.18c0,.1,0,.19,0,.3l-.19,0H156.93c-.33,0-.65,0-1,0a.6.6,0,0,1-.51-.24c-.21-.27-.44-.53-.66-.79a1.85,1.85,0,0,0-.2-.2c-.06.43,0,.8-.05,1.18l-.17,0H128.65c-.35,0-.69,0-1,0a.56.56,0,0,1-.49-.24c-.23-.3-.49-.57-.75-.85a.35.35,0,0,0-.11-.08.53.53,0,0,0,0,.3,4.54,4.54,0,0,1-.06.9,2.37,2.37,0,0,1-.75,1.37,3.94,3.94,0,0,1-3.21,1,1.68,1.68,0,0,1-.85-.3c0-.09.13-.09.2-.12a3.81,3.81,0,0,0,.81-.4,2.78,2.78,0,0,0,.72-.73,2.19,2.19,0,0,0,.36-1.19V7.84c0-.64,0-1.29,0-1.93V2.8a.77.77,0,0,1,0-.36,5.41,5.41,0,0,1,.9,0h1.78a.39.39,0,0,1,.08.33V6.12c0,.1,0,.21,0,.33l.2,0h.32l20.09,0h4.53a.81.81,0,0,0,.38,0,.6.6,0,0,0,0-.35V2.5a1.3,1.3,0,0,1,.19-.06h2.4l.12,0a.49.49,0,0,1,.06.35V6.3a1.1,1.1,0,0,0,0,.16,1.38,1.38,0,0,0,.2,0H157l.11,0a.54.54,0,0,0,.06-.32V3.47a1.38,1.38,0,0,0-.28-.9.13.13,0,0,1,0-.06c0-.06.07,0,.1,0l1,0a4.43,4.43,0,0,1,1.09,0l.22,0a.82.82,0,0,1,.59.59,2.79,2.79,0,0,1,.07.38c0,.22,0,.44,0,.65v2a.69.69,0,0,0,0,.35,5.66,5.66,0,0,0,1.6,0c.08-.08.05-.18.05-.27V4.58c0-.35,0-.71,0-1.06a1.58,1.58,0,0,0-.3-1s0,0,0,0c.53,0,1.07-.05,1.61-.05a2.47,2.47,0,0,1,.61.05.89.89,0,0,1,.85.9c0,.23,0,.45,0,.68v2c0,.13,0,.26,0,.38a4.44,4.44,0,0,0,1.6,0,2.77,2.77,0,0,0,0-.3c0-.82,0-1.64,0-2.46a3.43,3.43,0,0,0-.06-.55,1.16,1.16,0,0,0-.28-.63l.06,0c.49,0,1-.05,1.46-.05a4.14,4.14,0,0,1,.7.06,1.53,1.53,0,0,1,.43.13.78.78,0,0,1,.46.69C169,3.46,169,3.62,169,3.79Z"/><path class="cls-2" d="M89.2,26l-.14.18L87.89,27.4a2,2,0,0,1-1.15.67,1.67,1.67,0,0,1-1.37-.3c-.18-.14-.35-.29-.52-.45L78,20.89l-4.39-4.07-.25-.24a1.73,1.73,0,0,1-.32-2.08,2.23,2.23,0,0,1,.32-.48c.16-.2.33-.37.5-.56l9.37-10c.19-.21.37-.42.57-.62a5,5,0,0,1,.59-.54,1.74,1.74,0,0,1,2.21.09l.29.26L88.18,3.9l.21.21-.24.28L83.42,9.44q-1.55,1.63-3.07,3.29l-.58.61a2.85,2.85,0,0,0-.23.26A2.56,2.56,0,0,0,79,16a1.71,1.71,0,0,0,.32.63c.16.18.33.37.51.54l5.42,5.1,3.28,3.07.52.47Z"/><path class="cls-1" d="M82.37,26a1.11,1.11,0,0,1-.11.16c-.42.44-.83.88-1.26,1.3a1.77,1.77,0,0,1-1.56.53,1.37,1.37,0,0,1-.73-.31,5.46,5.46,0,0,1-.44-.38L77,26.15,73.57,22.9l-5.49-5.16-1.14-1-.22-.19a1.72,1.72,0,0,1-.49-1.69,1.87,1.87,0,0,1,.49-.93L71.89,8.4c1.81-1.93,3.63-3.86,5.44-5.8A2.09,2.09,0,0,1,78.22,2a1.76,1.76,0,0,1,1.63.27,5.72,5.72,0,0,1,.46.4l1,1,.41.38a1.71,1.71,0,0,1-.11.14C80.06,5.77,78.56,7.42,77,9.05c-.81.88-1.64,1.74-2.46,2.62l-1.65,1.77a3.48,3.48,0,0,0-.51.7A2.37,2.37,0,0,0,72.19,16a2,2,0,0,0,.41.8,5,5,0,0,0,.45.47l8.86,8.32Z"/><path class="cls-1" d="M63.81,11a.71.71,0,0,1-.16,0H61.22l-.12,0c0-.09-.06-.19-.08-.29-.35-1.3-.69-2.61-1-3.91,0-.07-.05-.14-.1-.27l-.23.35c-.42.66-.83,1.33-1.24,2s-.66,1.08-1,1.63a1.17,1.17,0,0,1-.94.6,2.17,2.17,0,0,1-.51,0,1.11,1.11,0,0,1-.72-.41l-.21-.28c-.63-1-1.34-2-2-3l-.48-.69a2,2,0,0,0-.16-.19,5.08,5.08,0,0,0-.23.89c-.07.29-.13.59-.2.88s-.13.61-.2.92-.13.59-.19.88-.13.59-.2.89a1.24,1.24,0,0,1-.16,0H48.81l-.11,0c-.06-.09,0-.17,0-.25.35-1.27.72-2.53,1.08-3.79l.75-2.61c.07-.26.14-.52.19-.78a1.11,1.11,0,0,1,.85-.88,1.69,1.69,0,0,1,1,0,1.07,1.07,0,0,1,.7.53c.89,1.52,1.88,3,2.8,4.46a2,2,0,0,0,.15.18,2.65,2.65,0,0,0,.17-.22l2.51-4c.1-.16.21-.33.32-.48a1.31,1.31,0,0,1,1.52-.41,3.17,3.17,0,0,1,.47.27.84.84,0,0,1,.36.52l2.13,7.18C63.76,10.76,63.78,10.86,63.81,11Z"/><path class="cls-1" d="M142.61,15.65c-.44,0-.87,0-1.3,0,0,0,0,0-.07.05s0,.22,0,.34c0,.39,0,.77,0,1.16,0,.61,0,1.21,0,1.81a.93.93,0,0,1,0,.22l-.2,0h-1.65l-.08,0c0-.06,0-.14,0-.21v-.58a3.87,3.87,0,0,0-.17-.95,1.66,1.66,0,0,0-1-1l-.31-.09a4.72,4.72,0,0,0-1.06-.12H135.1c-.06,0-.13,0-.16-.09a2.54,2.54,0,0,1,.24-.2c.38-.31.75-.61,1.14-.91l2-1.57s.13-.07.11-.19h-1.52a.85.85,0,0,0-.56.19c-1,.77-2,1.54-3,2.3a.54.54,0,0,0-.24.49c0,.37,0,.74,0,1.1a1.21,1.21,0,0,0,0,.14l.32,0h3.46a.82.82,0,0,1,.85.74,2.32,2.32,0,0,1,0,.83.6.6,0,0,1-.09.18c-7.4,0-14.8,0-22.19,0l-.16,0a.76.76,0,0,1,0-.39V16.07a.81.81,0,0,0,0-.38l-.1,0a8.42,8.42,0,0,0-2.12.19,3,3,0,0,0-.81.32,1.71,1.71,0,0,0-.75.9,2.86,2.86,0,0,0-.13,1.59,2,2,0,0,0,1,1.35,2.45,2.45,0,0,0,.72.28l.77.11.17,0c0,.33-.06.46-.33.5a1.71,1.71,0,0,1-.39,0h-1.42l-.24,0a3.18,3.18,0,0,0,0,1.11.53.53,0,0,0,.12,0c.56,0,1.13,0,1.69,0a4.13,4.13,0,0,0,.86-.11,1.18,1.18,0,0,0,1-1,2.5,2.5,0,0,0,0-.29c0-.12,0-.25.07-.39a2.4,2.4,0,0,1,.46,0h26.69a1.13,1.13,0,0,0,.18,0,1.41,1.41,0,0,0,0-.18V15.88A1.11,1.11,0,0,0,142.61,15.65ZM113.93,19c0,.07,0,.13,0,.21a1.12,1.12,0,0,1-1.18-.46,1.28,1.28,0,0,1-.09-1.37,1.25,1.25,0,0,1,1.21-.6.48.48,0,0,1,.05.17c0,.22,0,.45,0,.67C113.94,18.11,113.93,18.57,113.93,19Z"/><path class="cls-1" d="M33.69,11a.86.86,0,0,1-.18,0h-.65c-.88,0-1.76,0-2.65,0a.88.88,0,0,1-.71-.3c-.36-.38-.75-.75-1.12-1.12-.22-.21-.44-.42-.65-.64a.72.72,0,0,0-.58-.22l-2.81,0-.52,0c0,.39,0,.75,0,1.1s0,.69,0,1a.68.68,0,0,1-.17,0c-.44,0-2.21,0-2.42,0s-.05-.18-.05-.28c0-1,0-2.06.05-3.1,0-.21,0-.43,0-.64l0-.27.23,0h6.66c.29,0,.57,0,.84,0a2.27,2.27,0,0,0,.64-.12.86.86,0,0,0,.51-1.16,1.08,1.08,0,0,0-.74-.67A1.4,1.4,0,0,0,29,4.65H21.78l-.33,0s0-.08,0-.1l1.25-1.65.08-.1a.3.3,0,0,1,.3-.16h.09l5.92,0a4.06,4.06,0,0,1,2.67,1,2.88,2.88,0,0,1,1.06,2.27,2.31,2.31,0,0,1-.67,1.66A2.84,2.84,0,0,1,31,8.27l-.3.11a.42.42,0,0,0,.2.26l1.15.95,1.35,1.15Z"/><path class="cls-1" d="M48.08,11a.77.77,0,0,1-.17,0H38.7a.75.75,0,0,1-.39,0,.34.34,0,0,1,.06-.12l1.32-1.71A.45.45,0,0,1,40.1,9C41,9,42,9,42.88,9a.69.69,0,0,0,.37,0c0-.05,0-.1,0-.14L42.7,8,41.28,6l-.15-.2c-.14.06-.18.17-.25.26l-2,2.88c-.44.63-.89,1.25-1.32,1.88a.48.48,0,0,1-.45.24H34.4l-.27,0a2,2,0,0,1,.12-.22c.17-.25.35-.49.53-.73l4.59-6.21c.15-.21.31-.42.47-.62a2.19,2.19,0,0,1,.47-.44,1.61,1.61,0,0,1,1.9.1,3.26,3.26,0,0,1,.58.65L45,6.66l2.87,4Z"/><path class="cls-1" d="M14.21,4.66a2.87,2.87,0,0,0-.07,1,.51.51,0,0,0,.34.06h1.85l3.62,0h.19a.49.49,0,0,1-.06.16L18.69,7.65a.3.3,0,0,1-.3.14l-3.65-.06-.39,0-.23,0a3.84,3.84,0,0,0,0,1.18,5.21,5.21,0,0,0,.79,0h.78l.81,0,.81,0h2.36a7.53,7.53,0,0,1,.83,0,1.63,1.63,0,0,1-.15.25l-1.2,1.76a.37.37,0,0,1-.35.18H11.65a.88.88,0,0,1,0-.2c0-.1,0-.2,0-.29,0-2.53,0-5,0-7.57v-.3a1.11,1.11,0,0,1,.23,0,1.76,1.76,0,0,1,.23,0q4.05,0,8.12,0a1.13,1.13,0,0,1,.4,0,.83.83,0,0,1,0,.12L19.27,4.42a2.05,2.05,0,0,1-.2.23h-.28l-4.27,0A.54.54,0,0,0,14.21,4.66Z"/><path class="cls-1" d="M115.35,4.53a4.17,4.17,0,0,0-.07-.71,1.5,1.5,0,0,0-1.14-1.26l-.13,0a5,5,0,0,0-1.16-.11h-5l-.2,0c0,.12,0,.23,0,.34V7.73c0,.44,0,.88,0,1.32a4.62,4.62,0,0,1-.06.64.78.78,0,0,1-.31.55l-.2.17a.12.12,0,0,0,0,.17c.2,0,.43,0,.65,0a3.06,3.06,0,0,0,2.2-.94,4.53,4.53,0,0,0,.68-.9l.15-.25h3.41c.37,0,.75,0,1.15,0,0-.09,0-.14,0-.19C115.35,7.05,115.36,5.79,115.35,4.53Zm-2.85,2c-.6,0-1.19,0-1.78,0a1.65,1.65,0,0,1-.06-.65,1.63,1.63,0,0,1,0-.62.78.78,0,0,1,.22,0,2.23,2.23,0,0,1,.92.12A1,1,0,0,1,112.5,6.5Z"/><path class="cls-1" d="M10.9,8.88a.57.57,0,0,1,0,.15c-.4.54-.8,1.07-1.19,1.61,0,.07-.11.13-.16.21a.39.39,0,0,1-.35.18H4.58a5.41,5.41,0,0,1-2.76-.84,3.19,3.19,0,0,1-.5-.39A5.1,5.1,0,0,1,.39,8.57a2.89,2.89,0,0,1-.28-.86A4.27,4.27,0,0,1,.06,6a3,3,0,0,1,.27-.82,4.44,4.44,0,0,1,3.19-2.5A6.54,6.54,0,0,1,4.77,2.6l5.63,0c.11,0,.22,0,.33.06L9.36,4.56l-.3,0H5.27a4.06,4.06,0,0,0-1.2.18,2.52,2.52,0,0,0-.69.36,1.68,1.68,0,0,0-.7,1.22A3,3,0,0,0,2.77,7.5a1.84,1.84,0,0,0,1.7,1.36,4,4,0,0,0,.49,0H10.9Z"/><path class="cls-1" d="M62,20a.61.61,0,0,0-.28.12l.28.11a1.72,1.72,0,0,1,1.27,1.52c0,.22,0,.45,0,.67,0,.8,0,1.6,0,2.4a.14.14,0,0,1,0,.06c-.06.08-.15.06-.23.06H60.84l-.34,0a1.47,1.47,0,0,1,0-.26c0-.29,0-.59,0-.87s0-.76,0-1.14a3.68,3.68,0,0,0-.11-.73.89.89,0,0,0-.63-.64,2.67,2.67,0,0,0-.79-.13l-1.62,0h-.61c-.13,0-.26,0-.38,0a18,18,0,0,1,0-2.32.85.85,0,0,1,.17,0l2.52,0a5.47,5.47,0,0,0,1.07,0,2.27,2.27,0,0,0,.25-.06.71.71,0,0,0,0-1.34,2.67,2.67,0,0,0-.63-.1c-.27,0-.54,0-.81,0l-2.43,0-.13,0a.28.28,0,0,1,0-.12c0-.69,0-1.38,0-2.07a.38.38,0,0,1,0-.13h.26l2.55,0c.56,0,1.12,0,1.68,0a4.41,4.41,0,0,1,1.39.28A2.38,2.38,0,0,1,63.74,17a2.83,2.83,0,0,1-.05,1.5,2,2,0,0,1-.94,1.19A2.83,2.83,0,0,1,62,20Z"/><path class="cls-1" d="M53.25,18.45a3.34,3.34,0,0,0-2.14-3.15,4.34,4.34,0,0,0-3.19-.08,3.43,3.43,0,0,0-2,1.79,3.78,3.78,0,0,0-.19,2.86A3.48,3.48,0,0,0,47.78,22a4.35,4.35,0,0,0,2.47.27,3.53,3.53,0,0,0,2.89-2.66,4.1,4.1,0,0,0,.11-1ZM51,19.66a1.51,1.51,0,0,1-.9,1,1.88,1.88,0,0,1-1.47,0A1.46,1.46,0,0,1,48,20,2.24,2.24,0,0,1,47.67,19c0-.12,0-.24,0-.35a2.21,2.21,0,0,1,.13-.92,1.58,1.58,0,0,1,1.5-1.12A1.71,1.71,0,0,1,51.11,18,2.82,2.82,0,0,1,51,19.66Z"/><path class="cls-1" d="M26.54,19.57a3.48,3.48,0,0,1-2.65,2.52,6,6,0,0,1-1.12.12c-.78,0-1.57,0-2.36,0l-.14,0c-.06-.28-.09-3.06-.05-4.09a1.55,1.55,0,0,1,0-.21,12.82,12.82,0,0,1,2,0,2.45,2.45,0,0,1,0,.27c0,.67,0,1.34,0,2a.91.91,0,0,0,0,.36,1.13,1.13,0,0,0,.18,0,2.11,2.11,0,0,0,1.39-.45,1.74,1.74,0,0,0,.63-1.88,1.69,1.69,0,0,0-1.42-1.37,5.29,5.29,0,0,0-.8-.08h-2a.58.58,0,0,1-.05-.16c0-.45,0-.9,0-1.36a.79.79,0,0,1,0-.13l.22,0a21.19,21.19,0,0,1,2.52,0,4.46,4.46,0,0,1,1.15.19A3.3,3.3,0,0,1,26.58,18,3.63,3.63,0,0,1,26.54,19.57Z"/><path class="cls-1" d="M42.73,20.56a.53.53,0,0,1,0,.16v1.36a.44.44,0,0,1,0,.1s0,0-.08,0A7.45,7.45,0,0,1,40.36,22a3.3,3.3,0,0,1-2.5-2.61,3.52,3.52,0,0,1,1-3.34,3.14,3.14,0,0,1,1.49-.8,7.3,7.3,0,0,1,2.18-.2l.18,0a8.14,8.14,0,0,1,0,1.64.77.77,0,0,1-.34,0,6.71,6.71,0,0,0-1,.06,1.78,1.78,0,0,0-1.49,1.64,1.73,1.73,0,0,0,1.19,1.88,3.64,3.64,0,0,0,1.18.19Z"/><path class="cls-1" d="M34.72,21.38c0,.26,0,.53,0,.8a.8.8,0,0,1-.37,0c-1.32,0-2.65,0-4,0h-.59c-.1-.09-.07-.2-.07-.29,0-.6,0-1.21,0-1.81s0-1.27,0-1.91c0-.1,0-.21,0-.33l.27,0c2.15,0,4.43,0,4.71,0a10.68,10.68,0,0,1,0,1.6c-.1.09-.22.06-.33.06H32.12a.82.82,0,0,0-.37,0,3.17,3.17,0,0,0,0,.87.48.48,0,0,0,.36.07h2.23a.69.69,0,0,1,.37.05A4.12,4.12,0,0,1,34.72,21.38Z"/><path class="cls-1" d="M110.28,19.28c0,.58,0,1.16,0,1.74a4.8,4.8,0,0,1-.23,1.3A2.34,2.34,0,0,1,108,24a3.16,3.16,0,0,1-.82,0,9.39,9.39,0,0,1,0-1.5l.3-.07a1.08,1.08,0,0,0,.78-.61,2.14,2.14,0,0,0,.2-.78c.05-.79,0-1.57,0-2.36s0-1.81,0-2.71c0-.1,0-.19,0-.3a.67.67,0,0,1,.19,0h1.39l.17,0a1.36,1.36,0,0,1,0,.2C110.25,17,110.27,18.14,110.28,19.28Z"/><path class="cls-1" d="M148.34,20.13a2,2,0,0,1,0,.22h-4.7a1,1,0,0,1-.05-.51,4.3,4.3,0,0,1,0-.51.5.5,0,0,1,.35-.06H147a1.81,1.81,0,0,0,0-.19,2.66,2.66,0,0,0-.14-.93,1.89,1.89,0,0,0-1-1.17,2.94,2.94,0,0,0-1-.24.81.81,0,0,1-.36-.08,10.32,10.32,0,0,1,0-1.11l.2,0a4.52,4.52,0,0,1,1.37.22A2.94,2.94,0,0,1,148,17.58a5.15,5.15,0,0,1,.31,1.55C148.36,19.47,148.35,19.8,148.34,20.13Z"/><path class="cls-1" d="M34.67,16.79H29.74a3.15,3.15,0,0,1,0-.81c0-.27,0-.53,0-.82a1.85,1.85,0,0,1,.23,0h4.36a.75.75,0,0,1,.39,0,1.57,1.57,0,0,1,0,.53v.55A1.29,1.29,0,0,1,34.67,16.79Z"/><path class="cls-1" d="M151.56,10.84A1.06,1.06,0,0,1,151,11a1.74,1.74,0,0,1-.39-.11.76.76,0,0,1-.24-1.23.91.91,0,0,1,1.34,0A.78.78,0,0,1,151.56,10.84Z"/><path class="cls-1" d="M154,10.22a.77.77,0,0,1-.67.75h-.17a.82.82,0,0,1-.82-.5A.81.81,0,0,1,153,9.39a1.13,1.13,0,0,1,.45,0A.74.74,0,0,1,154,10.22Z"/><path class="cls-1" d="M142.69,21.6c0,.2,0,.39,0,.56l-.07.06a11.39,11.39,0,0,1-1.17,0,2.78,2.78,0,0,1,0-1.18,6.4,6.4,0,0,1,1.16,0A1,1,0,0,1,142.69,21.6Z"/><path class="cls-1" d="M140.78,22.19a4.22,4.22,0,0,1-1.18,0,3.47,3.47,0,0,1,0-1.16,9,9,0,0,1,1.16,0A4,4,0,0,1,140.78,22.19Z"/></g></g></svg>