<svg xmlns="http://www.w3.org/2000/svg" viewBox="0 0 145.51 37.8"><defs><style>.cls-1{fill:#fff;}</style></defs><g id="Layer_2" data-name="Layer 2"><g id="Layer_2_copy" data-name="Layer 2 copy"><path class="cls-1" d="M36,36.79V33a6,6,0,0,1-5.49,4.13c-4,0-6.81-2.59-6.81-7V17.28l-1.28-.79H25V30.15c0,3.7,2.2,6.51,5.5,6.51,3.12,0,5.4-3.17,5.49-7.12V17.28l-1.27-.79h2.59V36l1.27.75Z"/><path class="cls-1" d="M72.21,36.79H68.34L69.61,36V23.3c0-3.65-2.19-6.51-5.53-6.51C61,16.79,58.71,20,58.63,24V36l1.27.75H56L57.31,36V17.28L56,16.49h2.6v4c.88-2.2,2.72-4.18,5.45-4.18,4,0,6.85,2.59,6.85,7V36Z"/><path class="cls-1" d="M88.51,36.79V31.08c-.88,2.94-2.72,6.06-6.46,6.06-6,0-8.52-5.84-8.52-10.59s2.19-10.24,8.52-10.24c3.87,0,5.67,1.85,6.46,3l1.32-2.85V36l1.27.75Zm0-16.61a6.23,6.23,0,0,0-5.89-3.39c-10.9,0-9.93,19.69-.57,19.69,6.59,0,6.46-9.89,6.46-9.89Z"/><path class="cls-1" d="M53.4,36.79V31.08c-.88,2.94-2.73,6.06-6.46,6.06-6,0-8.53-5.84-8.53-10.59s2.2-10.24,8.53-10.24c3.87,0,5.67,1.85,6.46,3l1.32-2.85V36l1.27.75Zm0-16.61a6.24,6.24,0,0,0-5.89-3.39c-10.9,0-9.93,19.69-.57,19.69,6.59,0,6.46-9.89,6.46-9.89Z"/><path class="cls-1" d="M108.42,31.56c0,3.38-3.34,5.58-8.13,5.58-5.19,0-7.87-4.17-7.87-6l2.07-1.5-1.1,3a7.7,7.7,0,0,0,6.9,4c4.44,0,6.59-2,6.59-5.1,0-5.89-13.71-2.94-13.71-10,0-2.54,2.15-5.27,7.21-5.27,6,0,7.12,4.44,7.25,5.14l0,.05h0v0l-2,1.41,1-2.82c-.66-1.36-2.28-3.34-6.28-3.34-4.71,0-5.8,2.51-5.8,4.79C94.58,27.17,108.42,24.09,108.42,31.56Z"/><path class="cls-1" d="M126.17,31.56c0,3.38-3.34,5.58-8.13,5.58-5.18,0-7.86-4.17-7.86-6l2.06-1.5-1.1,3a7.71,7.71,0,0,0,6.9,4c4.44,0,6.6-2,6.6-5.1,0-5.89-13.72-2.94-13.72-10,0-2.54,2.16-5.27,7.21-5.27,6,0,7.12,4.44,7.25,5.14l.05.05h-.05v0l-2,1.41,1.06-2.82c-.66-1.36-2.29-3.34-6.29-3.34-4.7,0-5.8,2.51-5.8,4.79C112.33,27.17,126.17,24.09,126.17,31.56Z"/><path class="cls-1" d="M142.92,36.79V31.08c-.88,2.94-2.73,6.06-6.46,6.06-6,0-8.53-5.84-8.53-10.59s2.2-10.24,8.53-10.24c3.86,0,5.67,1.85,6.46,3l1.32-2.85V36l1.27.75Zm0-16.61A6.24,6.24,0,0,0,137,16.79c-10.9,0-9.93,19.69-.57,19.69,6.59,0,6.46-9.89,6.46-9.89Z"/><path class="cls-1" d="M41.07,5.94l.36-.29C42.26,5.49,48.57,0,49.64,0a.25.25,0,0,1,.28.24l0,.1c-.79.72-1.67,1.37-2.48,2.08a36.19,36.19,0,0,0-3.17,3.27c-.06.07-.15.16-.15.26s.38.1.38.16,0,.06,0,.1c-.15.21-.62,0-.91.3-1.3,1.24-3.44,4.76-3.44,6.41,0,.46.24,1.3.94,1.3,1,0,1.44-1,2.15-1.36l.17,0c.2,0,.33.11.33.28,0,.66-1.62,1.7-2.39,1.7-1.31,0-1.69-1.07-1.69-2,0-2.09,2.08-4.8,3.49-6.49a2.75,2.75,0,0,0-1-.12H42m.63-.5a3.14,3.14,0,0,0,1,.13c.88-1,1.77-2,2.74-2.9v0Zm3.79-2.84,0,0a0,0,0,0,0,0,0,0,0,0,0,0,0,0A0,0,0,0,0,46.37,2.87Zm.05,0a.08.08,0,0,1,0,0s0,0,0,0l0,0A0,0,0,0,0,46.42,2.83Zm0,0a0,0,0,0,0,0,0s0,0,0,0a.08.08,0,0,1,0,0S46.46,2.81,46.46,2.79Z"/><path class="cls-1" d="M50.93,12.55c.32-.25.67.08.28.31-1.5,1.13-3.82,2.57-4.73,2.57a1.78,1.78,0,0,1-1.9-2c0-.45.21-.92.21-1.33,0-.25-.08-.1-.08-.32,0-.06.31-.33.36-.42.33-.54.59-1.12.93-1.66a28.9,28.9,0,0,1,4.24-5.06c.84-.8,3.12-2.92,4.41-2.92.22,0,.36.1.36.3,0,1.88-8.14,8.37-9,9.07a5.61,5.61,0,0,0-.78,2.78,1.07,1.07,0,0,0,1.2,1C47.7,14.89,49.66,13.55,50.93,12.55Zm-4.39-2.29c.7-.59,8-6.58,8-7.9V2.25h-.05c-2.42,1-6.75,5.88-7.94,8Z"/><path class="cls-1" d="M54.59,16.56c-.79,1.71-3,6.93-5.65,6.93a1,1,0,0,1-1-.94c0-2.39,2.53-4.62,4.48-6.1.57-.43,1.25-.82,1.78-1.26a.87.87,0,0,0,.13-.15A8,8,0,0,0,55.15,12c0-.15,0-.32-.22-.32-.86,0-2.78,2.37-3.82,2.37-.29,0-.36-.22-.36-.43,0-1.17,2-3.65,3.45-3.65.26,0,1.12.12,1.12.45s-.29.34-.49.34-.49-.1-.75-.1c-1,0-2.89,2-2.89,2.85v.09h.08c.67,0,2.62-2.42,3.84-2.42.65,0,.81.74.81,1.16s-.58,2.32-.55,2.46c1.22,0,2.95-1.21,4.22-2.21.32-.25.67.08.28.31-1.51,1.13-3.81,2.32-4.72,2.32A7.57,7.57,0,0,0,54.59,16.56Zm-5.91,6.32h.16c2.23,0,4.64-6.08,5.06-6.95h0c-2.15,1.52-5.36,3.89-5.36,6.48A.52.52,0,0,0,48.68,22.88Z"/><path class="cls-1" d="M66.17,13.61A9.06,9.06,0,0,1,62.11,15a2.2,2.2,0,0,1-2.47-2.28,3.51,3.51,0,0,1,3-2.61.53.53,0,0,1,.58.47c0,.67-2,1.65-2.65,1.9a1.79,1.79,0,0,0-.18.74c0,1,1,1.33,2,1.33a8.55,8.55,0,0,0,4.64-2c.31-.25.66.08.27.31A13.17,13.17,0,0,1,66.17,13.61Zm-5.28-1.69a2.93,2.93,0,0,0,1.65-1.24,5.23,5.23,0,0,0-1.66,1.2Z"/><path class="cls-1" d="M70,14.07c0-.88,1-1.61,1.66-2.21h-.07c-.45,0-.88.19-1.36.19a2.91,2.91,0,0,1-1.53-.45,15.45,15.45,0,0,1-1.39,1.28c-.24.15-.56-.09-.35-.25a17.71,17.71,0,0,0,1.53-1.29c0-.25-.2-.47-.2-.76a1.35,1.35,0,0,1,1.29-1.34.59.59,0,0,1,.63.59c0,.45-.64.94-1,1.25l0,.11a1,1,0,0,0,1,.49c.77,0,1.49-.38,2.22-.38a.41.41,0,0,1,.43.38c0,.67-2.07,1.56-2.07,2.48,0,.48.51.78,1,.78,1.22,0,3.38-1.39,4.64-2.39.32-.25.68.08.29.31-1.51,1.13-3.93,2.58-5,2.58A1.51,1.51,0,0,1,70,14.07ZM69.42,10a.89.89,0,0,0-.39.69v.12a1.12,1.12,0,0,0,.53-.79V9.93Z"/><path class="cls-1" d="M76.21,13.48c0-.77,1.3-3.37,2.29-3.37.2,0,.43.14.43.32s-2.22,1.94-2.22,3.31a1.15,1.15,0,0,0,1.2,1c1.21,0,3-1.21,4.21-2.21.32-.25.68.08.29.31-1.5,1.13-3.81,2.32-4.72,2.32A1.52,1.52,0,0,1,76.21,13.48Zm2.71-4.86c0,.26.49.46.74.46s.46-.09.46-.29-.36-.43-.64-.43S78.92,8.41,78.92,8.62Z"/><path class="cls-1" d="M84.76,13.26l-.16,0c-.9,0-1.47.95-2.48.95-.34,0-.69-.09-.69-.43,0-1.13,2.39-2.51,3.61-2.51.51,0,1.21.31,1.21.81,0,.22-.18.31-.41.31-.49,0-.83-.38-1.31-.38C83.81,12,82,13,82,13.63c0,.12.11.11.22.11.78,0,2-1.09,2.74-1.09,1.45,0,.19,2.11,2,2.11,1.22,0,2.95-1.21,4.22-2.21.31-.25.67.08.28.31-1.51,1.13-3.81,2.32-4.72,2.32A1.93,1.93,0,0,1,84.76,13.26Z"/><path class="cls-1" d="M121.55,2.41a1.58,1.58,0,0,1-.27,1c-1.75,2.53-6.34,3.57-9.56,3.57a15.72,15.72,0,0,1-3.21-.37h0a7.78,7.78,0,0,0-2.59,5.06,3.62,3.62,0,0,0,4,3.74A8.73,8.73,0,0,0,115.59,13c.24-.24,1.22-1.78,1.44-1.78.06,0,0,.11,0,.2a2.52,2.52,0,0,1-.44.84,8.85,8.85,0,0,1-7,3.55,4.29,4.29,0,0,1-4.63-4.4c0-1.95,1.25-3.57,2.47-5.13l.09-.12c0-.11-.57-.42-.7-.52a3.46,3.46,0,0,1-1.27-2.62c0-.61.5-2.08,1.44-2.08a.2.2,0,0,1,.23.22c0,.51-1.09.93-1.09,2.26a2.85,2.85,0,0,0,1.17,2.15c.07.07.33.3.47.3s1.52-1.3,1.7-1.45c2.14-1.73,5.79-3.74,8.84-3.74C119.75.71,121.55,1,121.55,2.41Zm-12.78,3.9a8.89,8.89,0,0,0,2.62.39c2.53,0,6.41-.79,8.29-2.29.62-.5,1.41-1.11,1.41-1.9,0-1-1.58-1.17-2.46-1.17-3.49,0-7.66,2.73-9.86,4.89Z"/><path class="cls-1" d="M120.39,13.26l-.16,0c-.9,0-1.47.95-2.48.95-.34,0-.68-.09-.68-.43,0-1.13,2.38-2.51,3.6-2.51.51,0,1.21.31,1.21.81,0,.22-.18.31-.41.31-.49,0-.83-.38-1.31-.38-.72,0-2.55,1-2.55,1.64,0,.12.12.11.22.11.78,0,2-1.09,2.74-1.09,1.45,0,.19,2.11,2,2.11,1.22,0,3-1.21,4.22-2.21.31-.25.67.08.28.31-1.51,1.13-3.81,2.32-4.72,2.32A1.93,1.93,0,0,1,120.39,13.26Z"/><path class="cls-1" d="M129.73,14.07c0-.88,1-1.61,1.66-2.21h-.07c-.44,0-.88.19-1.36.19a2.85,2.85,0,0,1-1.52-.45,15.71,15.71,0,0,1-1.4,1.28c-.24.15-.56-.09-.35-.25a17.71,17.71,0,0,0,1.53-1.29c0-.25-.2-.47-.2-.76a1.35,1.35,0,0,1,1.29-1.34.59.59,0,0,1,.63.59c0,.45-.64.94-1,1.25l-.05.11a1,1,0,0,0,1,.49c.77,0,1.49-.38,2.22-.38a.42.42,0,0,1,.44.38c0,.67-2.08,1.56-2.08,2.48,0,.48.51.78,1,.78,1.22,0,3.38-1.39,4.64-2.39.32-.25.68.08.29.31-1.5,1.13-3.93,2.58-5,2.58A1.51,1.51,0,0,1,129.73,14.07Zm-.56-4.1a.89.89,0,0,0-.39.69v.12a1.12,1.12,0,0,0,.53-.79V9.93Z"/><path class="cls-1" d="M142.72,13.61A9,9,0,0,1,138.67,15a2.2,2.2,0,0,1-2.47-2.28,3.51,3.51,0,0,1,3-2.61.53.53,0,0,1,.59.47c0,.67-2,1.65-2.65,1.9a1.79,1.79,0,0,0-.18.74c0,1,1.05,1.33,2,1.33a8.55,8.55,0,0,0,4.64-2c.31-.25.66.08.27.31A13,13,0,0,1,142.72,13.61Zm-5.27-1.69a2.93,2.93,0,0,0,1.65-1.24,5.23,5.23,0,0,0-1.66,1.2Z"/><path class="cls-1" d="M0,21.44A16.1,16.1,0,0,1,16.51,5,16.14,16.14,0,0,1,33,21.44,16.66,16.66,0,0,1,16.51,37.8,16.65,16.65,0,0,1,0,21.44Zm1.71,0c0,8.43,6.77,15.61,14.8,15.61s14.81-7.18,14.81-15.61c0-8.93-6.38-15.61-14.81-15.61S1.71,12.51,1.71,21.44Z"/><path class="cls-1" d="M41.54,5.93C25.58,19.11,7.09,12.51,9.13,7.6c2.91-7,26.8-2.91,32.41-1.67h0"/></g></g></svg>