<svg xmlns="http://www.w3.org/2000/svg" viewBox="0 0 100.46 63.9"><defs><style>.cls-1{fill:#fff;}</style></defs><g id="Layer_2" data-name="Layer 2"><g id="Layer_2_copy" data-name="Layer 2 copy"><path class="cls-1" d="M59.13,12.77c18.92,6.94,29.63,25.68,24.95,42.77.36-.78.69-1.58,1-2.39,6.49-17.71-4.32-38-24.16-45.24S19.72,9.09,13.23,26.8c-.3.82-.57,1.64-.79,2.47C19.9,13.2,40.2,5.83,59.13,12.77Z"/><path class="cls-1" d="M8.57,33.84A7.51,7.51,0,0,0,6,34.27,5.74,5.74,0,0,0,3.9,35.58a6.26,6.26,0,0,0-1.4,2.15,8.13,8.13,0,0,0-.51,3,8.26,8.26,0,0,0,.48,3,5.3,5.3,0,0,0,1.34,2.06A5.49,5.49,0,0,0,5.91,47a9,9,0,0,0,2.74.39c.27,0,.56,0,.87,0s.62-.07.93-.13.61-.11.91-.18.56-.15.79-.23v1.77a8.14,8.14,0,0,1-1.69.44,12.68,12.68,0,0,1-2,.15,10.74,10.74,0,0,1-3.64-.57,7.21,7.21,0,0,1-2.67-1.64A7,7,0,0,1,.55,44.3a11.22,11.22,0,0,1,0-7A7.85,7.85,0,0,1,2.27,34.5a7.77,7.77,0,0,1,2.67-1.8,9.21,9.21,0,0,1,3.53-.65c.34,0,.68,0,1,0a9.47,9.47,0,0,1,1,.13,6.66,6.66,0,0,1,.85.19,5.37,5.37,0,0,1,.68.23v1.77A13.37,13.37,0,0,0,10.36,34,9.77,9.77,0,0,0,8.57,33.84Z"/><path class="cls-1" d="M23.1,47.35a5.52,5.52,0,0,0,1.59-.21,4,4,0,0,0,1.21-.59,3.28,3.28,0,0,0,.86-.92,4.21,4.21,0,0,0,.53-1.18,4.9,4.9,0,0,0,.17-.91,8,8,0,0,0,.05-1V32.36h2V42.53q0,.57-.06,1.2a7.91,7.91,0,0,1-.2,1.17,6.15,6.15,0,0,1-.7,1.69,4.84,4.84,0,0,1-1.22,1.34,5.6,5.6,0,0,1-1.8.88,8.32,8.32,0,0,1-2.47.32,8.57,8.57,0,0,1-2.38-.29A5.78,5.78,0,0,1,18.94,48a4.56,4.56,0,0,1-1.2-1.24A6.62,6.62,0,0,1,17,45.21a7.53,7.53,0,0,1-.26-1.32,12.85,12.85,0,0,1-.08-1.36V32.36h2V42.57a7.46,7.46,0,0,0,.08,1.14A4.8,4.8,0,0,0,19,44.78a3.8,3.8,0,0,0,1.43,1.88A4.62,4.62,0,0,0,23.1,47.35Z"/><path class="cls-1" d="M34.9,48.83V32.36h2V48.83Z"/><path class="cls-1" d="M44,36.72a2.23,2.23,0,0,0,.3,1.2,2.56,2.56,0,0,0,.79.78,5,5,0,0,0,1.15.5c.44.13.9.26,1.37.37.64.16,1.27.33,1.89.52a6,6,0,0,1,1.65.78,3.77,3.77,0,0,1,1.17,1.3,4.15,4.15,0,0,1,.45,2,4.62,4.62,0,0,1-.49,2.21A4.2,4.2,0,0,1,50.89,48a6.11,6.11,0,0,1-2,.89,10.86,10.86,0,0,1-2.56.28A9.94,9.94,0,0,1,45,49.05a12.66,12.66,0,0,1-1.28-.21,9.09,9.09,0,0,1-1.1-.31,4.13,4.13,0,0,1-.77-.34V46.35a7,7,0,0,0,1,.41,10.8,10.8,0,0,0,1.15.31,11.84,11.84,0,0,0,1.19.21,9.28,9.28,0,0,0,1.14.07A8.7,8.7,0,0,0,48,47.2a4.27,4.27,0,0,0,1.37-.49,2.5,2.5,0,0,0,.94-.94,3,3,0,0,0,.34-1.5,2.27,2.27,0,0,0-.3-1.22,2.45,2.45,0,0,0-.81-.79,4.57,4.57,0,0,0-1.16-.51c-.44-.13-.9-.25-1.38-.37-.64-.15-1.27-.31-1.88-.5a5.76,5.76,0,0,1-1.64-.77,3.83,3.83,0,0,1-1.16-1.27,4,4,0,0,1-.43-2,4.71,4.71,0,0,1,.46-2.16,4.18,4.18,0,0,1,1.24-1.49,5.18,5.18,0,0,1,1.81-.88,8.43,8.43,0,0,1,2.17-.28A11.92,11.92,0,0,1,50,32.3a12.19,12.19,0,0,1,2.09.66v1.86a14.49,14.49,0,0,0-2.11-.7,9.74,9.74,0,0,0-2.34-.28A5.61,5.61,0,0,0,46,34a3.19,3.19,0,0,0-1.15.58,2.23,2.23,0,0,0-.67.91A3,3,0,0,0,44,36.72Z"/><path class="cls-1" d="M57.52,48.83V32.36h2V48.83Z"/><path class="cls-1" d="M73.7,48.83h-.92L68.63,39c-.57-1.35-1.15-2.82-1.72-4.42h-.1Q67,38,67,40.86v8H65V32.36h2.9l3.87,9.32c.45,1.06.94,2.35,1.47,3.85h.06c.59-1.67,1.08-3,1.47-3.85l3.87-9.32H81.5V48.83h-2v-8q0-2.79.17-6.29h-.1c-.6,1.69-1.18,3.16-1.72,4.42Z"/><path class="cls-1" d="M85.29,48.83,92,32.36h1.73l6.71,16.47H98.26l-2-5H89.41l-2,5Zm7.56-13.91Q91.74,38,90.74,40.51l-.61,1.55h5.45L95,40.51c-.68-1.71-1.36-3.57-2.07-5.59Z"/><path class="cls-1" d="M6.94,63.69a2.94,2.94,0,0,1-1.18.21,2.1,2.1,0,0,1-2.22-2.28,2.24,2.24,0,0,1,2.35-2.36,2.49,2.49,0,0,1,1.07.2l-.15.48a2,2,0,0,0-.9-.19A1.67,1.67,0,0,0,4.16,61.6a1.63,1.63,0,0,0,1.72,1.81,2.36,2.36,0,0,0,1-.19Z"/><path class="cls-1" d="M10.25,59.33V62c0,1,.45,1.43,1.05,1.43S12.39,63,12.39,62V59.33H13V62c0,1.38-.73,1.94-1.7,1.94S9.67,63.38,9.67,62V59.33Z"/><path class="cls-1" d="M16.57,59.33v4.5H16v-4.5Z"/><path class="cls-1" d="M19.5,63.12a2,2,0,0,0,1,.29c.59,0,.94-.3.94-.76s-.24-.66-.85-.89-1.19-.65-1.19-1.28a1.3,1.3,0,0,1,1.46-1.22,2,2,0,0,1,1,.22l-.16.47a1.73,1.73,0,0,0-.84-.21c-.62,0-.85.37-.85.67s.27.63.89.87,1.14.66,1.14,1.32-.5,1.3-1.56,1.3a2.31,2.31,0,0,1-1.15-.29Z"/><path class="cls-1" d="M25.44,59.33v4.5h-.58v-4.5Z"/><path class="cls-1" d="M28.45,63.83v-4.5h.64l1.44,2.28a12.74,12.74,0,0,1,.8,1.46h0a17.82,17.82,0,0,1-.07-1.84V59.33h.55v4.5h-.59l-1.43-2.28a14.19,14.19,0,0,1-.83-1.5h0c0,.56,0,1.1,0,1.85v1.92Z"/><path class="cls-1" d="M37.16,61.72H35.42v1.62h1.94v.49H34.83v-4.5h2.43v.49H35.42v1.42h1.74Z"/><path class="cls-1" d="M40,63.12a2,2,0,0,0,1,.29c.59,0,.94-.3.94-.76s-.25-.66-.85-.89S40,61.11,40,60.48a1.29,1.29,0,0,1,1.45-1.22,2,2,0,0,1,1,.22l-.16.47a1.75,1.75,0,0,0-.85-.21c-.61,0-.84.37-.84.67s.27.63.89.87,1.14.66,1.14,1.32-.5,1.3-1.56,1.3a2.31,2.31,0,0,1-1.15-.29Z"/><path class="cls-1" d="M52.6,61.85c0-.62-.08-1.38-.08-1.94h0c-.16.52-.34,1.09-.57,1.71l-.79,2.18h-.44L50,61.66a16.25,16.25,0,0,1-.51-1.75h0c0,.56-.05,1.31-.08,2l-.12,1.93h-.56l.32-4.5h.73l.77,2.18c.19.55.33,1,.45,1.51h0c.12-.45.28-1,.48-1.51l.8-2.18H53l.28,4.5H52.7Z"/><path class="cls-1" d="M57.92,63.9a2.06,2.06,0,0,1-2-2.28A2.13,2.13,0,0,1,58,59.26a2.05,2.05,0,0,1,2,2.27,2.11,2.11,0,0,1-2.08,2.37Zm0-.47c.92,0,1.44-.85,1.44-1.87s-.47-1.82-1.43-1.82-1.45.9-1.45,1.87.52,1.82,1.43,1.82Z"/><path class="cls-1" d="M62.75,59.4A7.59,7.59,0,0,1,64,59.3a2.54,2.54,0,0,1,1.82.56,2,2,0,0,1,.64,1.61,2.37,2.37,0,0,1-.65,1.75,2.78,2.78,0,0,1-2,.65,8,8,0,0,1-1.06-.06Zm.59,4a3.39,3.39,0,0,0,.59,0,1.72,1.72,0,0,0,1.91-1.91A1.6,1.6,0,0,0,64,59.76a3.52,3.52,0,0,0-.68.06Z"/><path class="cls-1" d="M71.52,61.72H69.78v1.62h1.94v.49H69.19v-4.5h2.43v.49H69.78v1.42h1.74Z"/><path class="cls-1" d="M74.47,59.4a6.13,6.13,0,0,1,1.12-.1,1.8,1.8,0,0,1,1.3.38,1.1,1.1,0,0,1,.36.85,1.19,1.19,0,0,1-.85,1.14v0a1.14,1.14,0,0,1,.66.9,8.41,8.41,0,0,0,.34,1.24h-.6a6.06,6.06,0,0,1-.29-1.08c-.14-.62-.38-.85-.91-.87h-.55v1.95h-.58Zm.58,2h.6c.62,0,1-.34,1-.85s-.42-.83-1-.83a2.37,2.37,0,0,0-.58.05Z"/><path class="cls-1" d="M80.06,63.83v-4.5h.64l1.43,2.28a11.37,11.37,0,0,1,.8,1.46h0c0-.6-.07-1.15-.07-1.84V59.33h.55v4.5h-.59l-1.42-2.28a12.59,12.59,0,0,1-.83-1.5h0c0,.56,0,1.1,0,1.85v1.92Z"/><path class="cls-1" d="M88.76,61.72H87v1.62h2v.49H86.44v-4.5h2.43v.49H87v1.42h1.74Z"/><path class="cls-1" d="M91.65,63.12a1.92,1.92,0,0,0,1,.29c.59,0,.94-.3.94-.76s-.24-.66-.85-.89-1.18-.65-1.18-1.28A1.29,1.29,0,0,1,93,59.26a2.1,2.1,0,0,1,1,.22l-.16.47a1.75,1.75,0,0,0-.85-.21c-.61,0-.85.37-.85.67s.28.63.9.87,1.14.66,1.14,1.32-.51,1.3-1.57,1.3a2.34,2.34,0,0,1-1.15-.29Z"/><rect class="cls-1" x="0.12" y="53.23" width="100.34" height="1.59"/><path class="cls-1" d="M44.88,1.29l2.64,0,2.61,0V18.87l.73.35L61,24.05l-4.08,1.81H38.12L34,24.05l10.11-4.83.73-.35V1.29M51.41,0,47.5,0,43.6,0V18.06L32.92,23.17,31,24.09l.43.19.8.35,5.63,2.51H57.16l5.63-2.51.8-.35.43-.19-1.93-.92L51.41,18.06V0Z"/></g></g></svg>