<svg xmlns="http://www.w3.org/2000/svg" xmlns:xlink="http://www.w3.org/1999/xlink" viewBox="0 0 90.5 79.9"><defs><style>.cls-1{fill:url(#radial-gradient);}.cls-2{fill:url(#radial-gradient-2);}.cls-3{fill:url(#radial-gradient-3);}.cls-4{fill:url(#radial-gradient-4);}.cls-5{fill:url(#radial-gradient-5);}</style><radialGradient id="radial-gradient" cx="6.55" cy="66.89" r="10.2" gradientUnits="userSpaceOnUse"><stop offset="0" stop-color="#fff"/><stop offset="1" stop-color="#c6c6c6"/></radialGradient><radialGradient id="radial-gradient-2" cx="18.54" cy="66.72" r="0.99" xlink:href="#radial-gradient"/><radialGradient id="radial-gradient-3" cx="22.28" cy="71.51" r="10.14" xlink:href="#radial-gradient"/><radialGradient id="radial-gradient-4" cx="56.3" cy="70.44" r="25.58" xlink:href="#radial-gradient"/><radialGradient id="radial-gradient-5" cx="43.24" cy="32.59" r="37.02" xlink:href="#radial-gradient"/></defs><g id="Layer_2" data-name="Layer 2"><g id="Layer_2_copy" data-name="Layer 2 copy"><path class="cls-1" d="M13.46,62.32a14.84,14.84,0,0,1,1.91-.22,4.78,4.78,0,0,1,1.46.18,4.81,4.81,0,0,1,.64.28,5.31,5.31,0,0,1,.71.44l.08-.15a3.82,3.82,0,0,0-2.89-1,6.56,6.56,0,0,0-2.08.3A7.17,7.17,0,0,0,7.5,59.62a6.73,6.73,0,0,0-4.43,1.43A5.06,5.06,0,0,0,1.2,65.19v.3a1.49,1.49,0,0,0,0,.21c-.31.46-.53.8-.66,1A4.7,4.7,0,0,0,0,69a5.45,5.45,0,0,0,.6,2.21l.17-.11A7.29,7.29,0,0,1,.22,69,4.65,4.65,0,0,1,1.27,66,6.05,6.05,0,0,0,2,67.68a3.44,3.44,0,0,0,3,1.67,2.79,2.79,0,0,0,1.89-.73,2.26,2.26,0,0,0,.85-1.78,2.44,2.44,0,0,0-1.09-2.08,3.85,3.85,0,0,0-2.32-.71,4.49,4.49,0,0,0-2.95,1.4v-.19a1.09,1.09,0,0,1,0-.18A4.89,4.89,0,0,1,2.68,61.8,6,6,0,0,1,7.5,59.85a7,7,0,0,1,4.72,1.67c.41.35.62.58.64.69l-.79.45c-1.59.9-3.05,2.7-4.4,5.42-.29.58-.72,1.63-1.3,3.14A4,4,0,0,1,5.4,73l-.66-.45-.47-.27a3.7,3.7,0,0,0-1.83-.52,2,2,0,0,0-1.2.34,1.12,1.12,0,0,0-.58,1,1.37,1.37,0,0,0,.8,1.31,3.25,3.25,0,0,0,1.61.35,4.85,4.85,0,0,0,2.76-.88,4.92,4.92,0,0,0,2.75.9c1.69,0,3.17-.9,4.45-2.73a8.89,8.89,0,0,0,1.74-5.16A8.22,8.22,0,0,0,13.46,62.32ZM4.4,64.27a3.57,3.57,0,0,1,2.16.64,2.18,2.18,0,0,1,1,1.93,2.06,2.06,0,0,1-.79,1.63,2.56,2.56,0,0,1-1.72.66,3.21,3.21,0,0,1-2.4-1A4.75,4.75,0,0,1,1.5,65.77,4.11,4.11,0,0,1,4.4,64.27ZM2.66,74.49a1.88,1.88,0,0,1-1.12-.34,1.21,1.21,0,0,1-.53-1,1.05,1.05,0,0,1,.34-.82A1.18,1.18,0,0,1,2.19,72a4.62,4.62,0,0,1,2.16.64,3.66,3.66,0,0,1,.79.6A4.22,4.22,0,0,1,2.66,74.49Zm9.54-3.43Q10.31,74.3,7.7,74.3a4.43,4.43,0,0,1-1.51-.66,11.35,11.35,0,0,0,1.33-1.2A9.19,9.19,0,0,0,9,69.65c.18-.57.34-1.06.47-1.46s.23-.71.29-.94c.78-2.44,1.88-4,3.32-4.68.19.1.37.54.54,1.33a7.05,7.05,0,0,1,.19,1.51A11.16,11.16,0,0,1,12.2,71.06Z"/><path class="cls-2" d="M18.24,66.19a1,1,0,0,0-.28.69.69.69,0,0,0,.2.51.67.67,0,0,0,.51.22.81.81,0,0,0,.64-.34,1.1,1.1,0,0,0,.28-.73.6.6,0,0,0-.2-.46.68.68,0,0,0-.48-.18A.9.9,0,0,0,18.24,66.19Z"/><path class="cls-3" d="M34.8,71.26c-.37.4-.78.82-1.21,1.26-1.22,1.21-2,1.82-2.46,1.82-.27,0-.41-.13-.41-.38A2.13,2.13,0,0,1,31,73.1l2.45-4.61a1.2,1.2,0,0,0-.32.26q-.22.24-.3.24a1.84,1.84,0,0,1-.39,0,2,2,0,0,0-.39-.06c-.12,0-.25.1-.4.28a1.09,1.09,0,0,0-1-.45A4.11,4.11,0,0,0,27.85,70a4.79,4.79,0,0,0-.77,1l-2,2.25c-.68.75-1.19,1.13-1.56,1.13s-.39-.11-.39-.34a2.43,2.43,0,0,1,.34-.63l1.74-2.72a1.86,1.86,0,0,0,.36-1,.77.77,0,0,0-.87-.87,5.15,5.15,0,0,0-2.81,1.58l1-1.8a.5.5,0,0,0-.13.09l-.25.21-.31.24a1.18,1.18,0,0,1-.31-.07,1.44,1.44,0,0,0-.35-.08c-.21,0-.4.15-.56.45l-.53,1c-.47.55-1.1,1.23-1.89,2-1.22,1.23-2,1.85-2.27,1.85s-.41-.16-.41-.48A1.79,1.79,0,0,1,16,73l2.38-4.53a1.15,1.15,0,0,0-.37.3c-.18.17-.29.26-.34.26L17.37,69a1.08,1.08,0,0,0-.39-.09c-.19,0-.36.13-.51.4-.27.5-.5.92-.7,1.26s-.34.62-.44.82a4.63,4.63,0,0,0-.69,2.13c0,.73.39,1.09,1.16,1.09s2.13-1.17,4.19-3.5L18.05,74.8c.35-.35.58-.52.69-.52a1.32,1.32,0,0,1,.34.07,1.64,1.64,0,0,0,.36.06c.18,0,.39-.21.61-.62s.36-.67.47-.89.19-.36.23-.42a7.91,7.91,0,0,1,.63-1c.23-.32.48-.65.75-1,.77-.87,1.39-1.31,1.88-1.31.19,0,.28.05.28.17A1.51,1.51,0,0,1,24,70l-1.56,2.38a2,2,0,0,0-.39,1.14c0,.74.4,1.11,1.09,1.11a2.77,2.77,0,0,0,1.89-1.11l1.71-1.91a3.6,3.6,0,0,0-.19,1.18c0,1.21.41,1.82,1.23,1.82a2.3,2.3,0,0,0,1.78-1.07A1.58,1.58,0,0,0,31,74.58q1.35,0,4.93-4.33l-.15-.13C35.5,70.48,35.16,70.86,34.8,71.26ZM29.5,73.1c-.49.82-1,1.24-1.48,1.24-.25,0-.38-.21-.38-.62A5.79,5.79,0,0,1,28.71,71c.8-1.29,1.57-1.93,2.31-1.93q.39,0,.39.45A21.83,21.83,0,0,1,29.5,73.1Z"/><path class="cls-4" d="M90.35,70.12l-2.48,2.32-1.29,1.24a7.41,7.41,0,0,1-1.44,1.07c.47-.68.91-1.33,1.33-2a20.77,20.77,0,0,0,1.1-1.91l1.24-2.38a1.18,1.18,0,0,0-.36.28c-.17.17-.28.26-.33.26A1.09,1.09,0,0,1,87.8,69a1.25,1.25,0,0,0-.36-.08c-.19,0-.36.15-.52.45l-2,3.53a2.56,2.56,0,0,1-1.07,1,2.2,2.2,0,0,1-.84.33c-.17,0-.25-.17-.25-.52a2.32,2.32,0,0,1,.28-.92l2.29-4.27a1.18,1.18,0,0,0-.35.28,1.28,1.28,0,0,1-.32.26,1.29,1.29,0,0,1-.36-.07,1.45,1.45,0,0,0-.37-.08c-.19,0-.37.15-.53.45l-.75,1.43c-.18.23-.35.45-.5.66l-.81,1a7.41,7.41,0,0,1-1.13,1.11,2.59,2.59,0,0,1-1.38.65.38.38,0,0,1-.33-.25,1,1,0,0,1-.14-.46,2.57,2.57,0,0,1,.39-1l2-3.41h1.41l.11-.28H80.84l1.9-3.32h-.21c-.27.42-.52.79-.73,1.09a7.36,7.36,0,0,1-.56.74,7.74,7.74,0,0,1-1.67,1.49H78.09l-.3.28h1.35l-.68,1.41a19.05,19.05,0,0,1-1.7,2c-1.08,1.11-1.89,1.67-2.44,1.67-.32,0-.49-.13-.49-.38a1.83,1.83,0,0,1,.31-.82l2.38-4.48c-.07,0-.19.1-.36.28s-.27.24-.32.24a1.65,1.65,0,0,1-.33-.06,1.19,1.19,0,0,0-.34-.07.46.46,0,0,0-.44.25l-1.46,2.6a12.22,12.22,0,0,1-1,1.41q-.87,1.08-1.2,1.08t-.45-.48a2.28,2.28,0,0,1,.3-1l2.23-4.2a1.56,1.56,0,0,0-.34.28q-.24.24-.33.24a1.29,1.29,0,0,1-.33-.06,1.1,1.1,0,0,0-.29-.07.55.55,0,0,0-.51.26l-.74,1.39c-.21.24-.42.48-.66.73s-.77.82-1.2,1.26c-1.22,1.21-2,1.82-2.46,1.82-.27,0-.41-.13-.41-.38a2.13,2.13,0,0,1,.32-.86l2.45-4.61a1.2,1.2,0,0,0-.32.26q-.23.24-.3.24a1.77,1.77,0,0,1-.39,0,2,2,0,0,0-.39-.06c-.12,0-.25.1-.4.28a1.09,1.09,0,0,0-1-.45A4.11,4.11,0,0,0,63,70a4.44,4.44,0,0,0-1,1.42,14.17,14.17,0,0,1-1.29,1.26,5.43,5.43,0,0,1-3.14,1.69c-.34,0-.51-.23-.51-.7a3.14,3.14,0,0,1,.34-1.31,5.49,5.49,0,0,0,2.17-.6c1.14-.52,1.71-1.18,1.71-2A1,1,0,0,0,61,69a1.05,1.05,0,0,0-.75-.3,4.25,4.25,0,0,0-2.68,1.13,3.11,3.11,0,0,0-.33.29l0,0a6.19,6.19,0,0,1-2,1.26,4.44,4.44,0,0,0-.9-2.89,7,7,0,0,0,1.61-1.2,2.6,2.6,0,0,0,.69-1.82,2.49,2.49,0,0,0-.5-1.44l-.32-.38-.6-.67a7.23,7.23,0,0,1,2.62-.66,5.67,5.67,0,0,1,2,.43c.88.38,1.33.85,1.33,1.41q0,.4-.57.75a2.28,2.28,0,0,1-.91.37l.18.19a2.51,2.51,0,0,0,1-.41,1.1,1.1,0,0,0,.55-.9c0-.62-.48-1.14-1.43-1.56a5.76,5.76,0,0,0-2.23-.5,5.63,5.63,0,0,0-1.83.24c-.28.1-.51.19-.71.25l-.44.18L54,62.4l-.6-.25A7.3,7.3,0,0,0,51,61.78a8.62,8.62,0,0,0-3,.49c-.21.08-.82.42-1.84,1a6.46,6.46,0,0,0-2.32-.55,6.23,6.23,0,0,0-4.69,2.05,6.69,6.69,0,0,0-1.95,4.78,4.93,4.93,0,0,0,1.6,3.86,5.67,5.67,0,0,0,4,1.37,9,9,0,0,0,4.82-1.2,11.36,11.36,0,0,0,3.15-3.41,11.2,11.2,0,0,0,.92-2.4,7.71,7.71,0,0,1,.95-2.33,8.27,8.27,0,0,1,2.1-2.25q.75.42.75,2.25a3.87,3.87,0,0,1-1.5,2.63,1.37,1.37,0,0,0-.9-.42q-.6,0-.6.42a.46.46,0,0,0,.26.38.94.94,0,0,0,.49.16h.24l.25,0a6.67,6.67,0,0,1,.11,1.15,2.78,2.78,0,0,1-.62,2.08,8.32,8.32,0,0,0-2.53.37q-1.68.54-1.68,1.74c0,.55.42.84,1.27.87a6.18,6.18,0,0,0,1.56-.2,4.68,4.68,0,0,0,1.39-.6,5.22,5.22,0,0,0,1.12-1,4.78,4.78,0,0,0,.77-1.34,7.85,7.85,0,0,0,1.6-.89A3.63,3.63,0,0,0,56,72.93a1.65,1.65,0,0,0,.46,1.18,1.57,1.57,0,0,0,1.16.47q1.36,0,3.33-1.8c.35-.32.66-.63.94-.93a3.84,3.84,0,0,0-.11.91c0,1.21.41,1.82,1.23,1.82a2.3,2.3,0,0,0,1.78-1.07,1.58,1.58,0,0,0,1.43,1.07q1.16,0,4-3.22l-.18.33a4.48,4.48,0,0,0-.62,2q0,.9,1,.9a1.93,1.93,0,0,0,1.13-.34l.44-.42c.19-.19.42-.45.7-.78.09,1,.45,1.54,1.1,1.54a5,5,0,0,0,3.08-1.72c.36-.37.72-.76,1.07-1.19l.12-.15-.27.57a3.2,3.2,0,0,0-.4,1.29,1.35,1.35,0,0,0,.27.83.87.87,0,0,0,.73.37A4.17,4.17,0,0,0,81.2,73c.22-.24.46-.52.73-.85a2.47,2.47,0,0,0-.32,1.15c0,.83.33,1.24,1,1.24a3.7,3.7,0,0,0,1.81-.9l-.78,1.56a13.91,13.91,0,0,0-3,1.23,2.45,2.45,0,0,0-1.44,2,1.33,1.33,0,0,0,.44,1,1.51,1.51,0,0,0,1.07.4,2.65,2.65,0,0,0,1.9-.88,5.58,5.58,0,0,0,.61-.79c.22-.31.44-.68.68-1.1l.34-.67L85,75a9.57,9.57,0,0,0,1.68-1.13l.84-.78c.23-.21.41-.38.53-.51,1.24-1.16,2.06-2,2.48-2.36ZM60,69c.26,0,.39.14.39.43s-.34,1-1,1.57a3,3,0,0,1-1.73.9C58.58,69.93,59.37,69,60,69ZM48.78,67.74a2.8,2.8,0,0,1-.28,1,2.24,2.24,0,0,1-1.58.62,2.32,2.32,0,0,1-1.84-.75,2.85,2.85,0,0,1-.65-1.93A3,3,0,0,1,45,64.87a11.78,11.78,0,0,1,1.18-1.31A4.56,4.56,0,0,1,48.78,67.74ZM51.59,65a9.07,9.07,0,0,0-1.86,3l-.48,1.23c-.11.29-.19.48-.21.55a8.76,8.76,0,0,1-1.61,2.45,8.49,8.49,0,0,1-2.14,1.6,5.44,5.44,0,0,1-2.55.69,5.56,5.56,0,0,1-3.82-1.29,4.67,4.67,0,0,1-1.54-3.69A6.49,6.49,0,0,1,39.29,65a6.07,6.07,0,0,1,4.52-2,4.27,4.27,0,0,1,2.12.55,9.43,9.43,0,0,0-1,1,3.61,3.61,0,0,0-.71,2.13,3,3,0,0,0,.7,2.08,2.49,2.49,0,0,0,2,.87,5.15,5.15,0,0,0,1.33-.28A2.9,2.9,0,0,1,46.73,71a3.33,3.33,0,0,1-1.51.37v.27a3.33,3.33,0,0,0,1.14-.2,3.75,3.75,0,0,0,1-.55,3.85,3.85,0,0,0,.81-.85A4.44,4.44,0,0,0,48.72,69a2.88,2.88,0,0,0,1-1.92,2.31,2.31,0,0,0-.15-.8l-.08-.13-.2-.36-.2.06a2.71,2.71,0,0,1,.39,1.25,1.35,1.35,0,0,1-.2.65l-.38.66c0-.17,0-.31.05-.43s0-.18,0-.22a4.94,4.94,0,0,0-2.68-4.31,8.39,8.39,0,0,1,2-1.07A8.28,8.28,0,0,1,51,62a6.27,6.27,0,0,1,3.43,1A7.64,7.64,0,0,0,51.59,65Zm1.59,3.32c-.25,0-.37-.09-.37-.26s.07-.17.22-.17a.82.82,0,0,1,.58.35A1.26,1.26,0,0,1,53.18,68.34Zm-.64,4.5-.41.52A3.08,3.08,0,0,1,50,74.45c-.53,0-.79-.19-.79-.53,0-.7.51-1.2,1.54-1.51a8,8,0,0,1,2.4-.32Zm12.13.26c-.49.82-1,1.24-1.48,1.24-.25,0-.38-.21-.38-.62A5.79,5.79,0,0,1,63.88,71c.8-1.29,1.57-1.93,2.31-1.93q.39,0,.39.45A21.83,21.83,0,0,1,64.67,73.1Zm18.08,3.7c-.23.37-.43.66-.59.87-.78,1-1.45,1.56-2,1.56a.7.7,0,0,1-.79-.79c0-.67.46-1.28,1.37-1.82.25-.14.62-.31,1.09-.51s1.07-.44,1.78-.69C83.26,76,83,76.43,82.75,76.8Z"/><path class="cls-5" d="M59.38,10.87a20.33,20.33,0,0,0-2.3-1.42,12,12,0,0,0-2-.88A14.94,14.94,0,0,0,50.32,8a49.39,49.39,0,0,0-6.15.72,26.4,26.4,0,0,1,4.22,14.85,28.65,28.65,0,0,1-5.61,16.61Q36.62,49,28.47,49a16,16,0,0,1-8.87-2.9,15.71,15.71,0,0,1-8.88,2.84,10.49,10.49,0,0,1-5.19-1.15,4.43,4.43,0,0,1-2.6-4.22,3.67,3.67,0,0,1,1.88-3.32,6.73,6.73,0,0,1,3.86-1.09,12.07,12.07,0,0,1,5.92,1.69,15.88,15.88,0,0,1,1.5.88c.61.38,1.31.85,2.12,1.41q1.32-.78,3.14-5.73,2.77-7.3,4.16-10.14Q32,14.12,39.7,9.78l2.53-1.45c0-.36-.72-1.1-2-2.23A22.61,22.61,0,0,0,25,.72Q14.89.72,9.45,7a15.85,15.85,0,0,0-4.1,10.57,3.05,3.05,0,0,0,.06.6v.61q5-4.53,9.48-4.53a12.49,12.49,0,0,1,7.48,2.29,7.88,7.88,0,0,1,3.5,6.7A7.31,7.31,0,0,1,23.16,29a9.08,9.08,0,0,1-6.1,2.35A11.14,11.14,0,0,1,7.28,26a19.55,19.55,0,0,1-2.35-5.37,14.89,14.89,0,0,0-3.39,9.47A22.78,22.78,0,0,0,3.3,36.83l-.55.36A17.53,17.53,0,0,1,.82,30.06a15,15,0,0,1,1.81-7.18c.4-.72,1.11-1.83,2.11-3.32a3.37,3.37,0,0,1-.06-.66v-1a16.37,16.37,0,0,1,6-13.34Q16.27,0,25,0,36.75,0,43.62,8.21a21.31,21.31,0,0,1,6.7-1q6.34,0,9.3,3.14ZM14.83,42A14.73,14.73,0,0,0,7.88,39.9a3.88,3.88,0,0,0-2.71,1,3.39,3.39,0,0,0-1.09,2.63,3.91,3.91,0,0,0,1.69,3.26,6.06,6.06,0,0,0,3.62,1.08c2.22,0,4.87-1.33,8-4A12.07,12.07,0,0,0,14.83,42ZM22,17A11.59,11.59,0,0,0,15,15Q10.3,15,5.65,19.8a15.43,15.43,0,0,0,3.8,7.61,10.3,10.3,0,0,0,7.73,3.2,8.37,8.37,0,0,0,5.55-2.11,6.68,6.68,0,0,0,2.54-5.26A7.11,7.11,0,0,0,22,17Zm22.82-3.26c-.56-2.53-1.15-4-1.75-4.28q-6.94,3.31-10.69,15.09c-.2.72-.51,1.73-.93,3s-.94,2.86-1.54,4.71a28.77,28.77,0,0,1-4.83,9,39.63,39.63,0,0,1-4.29,3.87q3.75,2.12,4.89,2.11,8.4,0,14.49-10.44a36,36,0,0,0,5.25-18.18A24.29,24.29,0,0,0,44.77,13.76Z"/><path class="cls-5" d="M85.09,15.15a18.39,18.39,0,0,0-7.19-1.62,18,18,0,0,0-5.91.78l-2.27.81c-.62.23-1.09.42-1.41.58-.89-.44-1.69-.83-2.42-1.15S64.52,14,64,13.77a23.53,23.53,0,0,0-7.85-1.21,31.26,31.26,0,0,0-6.23.58,3,3,0,0,1,0,.6,30.62,30.62,0,0,1,6.18-.58,20.16,20.16,0,0,1,11,3.2A24.68,24.68,0,0,0,58,23a29.56,29.56,0,0,0-6,9.66c-.65,1.69-1.16,3-1.54,4s-.62,1.54-.7,1.78a27.25,27.25,0,0,1-5.19,7.88,27.2,27.2,0,0,1-6.88,5.16,17.54,17.54,0,0,1-8.21,2.23c-4.84,0-8.78-1.28-11.86-3.8a3.72,3.72,0,0,1-.38.64c3.15,2.62,7.22,4,12.24,4q9.29,0,15.51-3.87,5.13-3.26,10.14-11a33.85,33.85,0,0,0,3-7.72c1-3.58,2-6.08,3.08-7.49q4.47-6.09,6.76-7.24c1.61.88,2.42,3.3,2.42,7.24q0,3.93-4.83,8.45a4.51,4.51,0,0,0-2.9-1.32c-1.29,0-1.93.44-1.93,1.32a1.46,1.46,0,0,0,.84,1.24,3.11,3.11,0,0,0,1.57.51l.76,0,.81-.09A20.19,20.19,0,0,1,65,38.16q0,4.89-2,6.7a27,27,0,0,0-8.15,1.2q-5.43,1.75-5.43,5.62c0,1.77,1.37,2.69,4.11,2.78a20.18,20.18,0,0,0,5-.64,15.11,15.11,0,0,0,4.46-1.93,15.46,15.46,0,0,0,3.59-3.17,14.47,14.47,0,0,0,2.48-4.29,26.84,26.84,0,0,0,7.37-4.58L76,39.36a19.52,19.52,0,0,1-6.52,4,14.28,14.28,0,0,0-2.89-9.3,22,22,0,0,0,5.19-3.86A8.37,8.37,0,0,0,74,24.39a8,8,0,0,0-1.63-4.65c-.2-.24-.54-.64-1-1.2s-1.12-1.29-1.93-2.18a23.33,23.33,0,0,1,8.45-2.11,17.45,17.45,0,0,1,6.58,1.39c2.86,1.21,4.29,2.71,4.29,4.53,0,.88-.6,1.69-1.81,2.41a7.5,7.5,0,0,1-3,1.21l.6.6a8.1,8.1,0,0,0,3.32-1.33,3.58,3.58,0,0,0,1.76-2.89Q89.68,17.14,85.09,15.15Zm-22,18.54c-.8,0-1.2-.28-1.2-.85q0-.54.72-.54a2.6,2.6,0,0,1,1.87,1.15A4,4,0,0,1,63.11,33.69Zm-2,14.49c-.52.68-1,1.24-1.33,1.69-2.37,2.37-4.71,3.54-7,3.5-1.69,0-2.54-.6-2.54-1.69q0-3.39,5-4.89a26.45,26.45,0,0,1,7.73-1C62.19,46.69,61.58,47.49,61.06,48.18Z"/></g></g></svg>