<svg xmlns="http://www.w3.org/2000/svg" viewBox="0 0 103.95 47.49"><defs><style>.cls-1{fill:#fff;}.cls-2{fill:#999;}</style></defs><g id="Layer_2" data-name="Layer 2"><g id="Layer_2_copy" data-name="Layer 2 copy"><path class="cls-1" d="M16.45,19.59H31.22c.15,0,.29,0,.43,0a1.7,1.7,0,0,0,1.63-1.71c0-.25,0-.5,0-.75A1.57,1.57,0,0,0,32.82,16a1.73,1.73,0,0,0-1.32-.53h-15a5.54,5.54,0,0,0-1.07.1A6.2,6.2,0,0,0,10.57,20a6.94,6.94,0,0,0-.23,1.87V32.07c0,.24,0,.48,0,.71a6.18,6.18,0,0,0,6.21,5.68H31.67a1.69,1.69,0,0,0,1.61-1.69c0-.24,0-.48,0-.71a1.68,1.68,0,0,0-1.66-1.67H16.82a3.82,3.82,0,0,1-.68,0,2.13,2.13,0,0,1-1.67-1.67,3,3,0,0,1,0-.6V28.38c0-.52,0-.47.49-.47H31.23a2.09,2.09,0,0,0,.56-.06A1.7,1.7,0,0,0,33,26.27c0-.26,0-.53,0-.79a1.69,1.69,0,0,0-1.51-1.63,4.87,4.87,0,0,0-.54,0H14.61c-.14,0-.16,0-.18-.18v0c0-.69,0-1.38,0-2.07A2.06,2.06,0,0,1,16.45,19.59Z"/><path class="cls-1" d="M100.63,38.48H101a4.86,4.86,0,0,0,.54,0,1.6,1.6,0,0,0,1.15-.57,1.66,1.66,0,0,0,.26-1.84l-.7-1.53L98.3,26q-2-4.25-3.91-8.5c-.17-.38-.34-.76-.53-1.13a1.69,1.69,0,0,0-2.39-.68,1.73,1.73,0,0,0-.7.83q-1.39,3-2.78,6c-1.06,2.29-2.11,4.59-3.17,6.88l-2.76,6a7.83,7.83,0,0,0-.34.79,1.68,1.68,0,0,0,1.52,2.26c.32,0,.65,0,1,0a1.63,1.63,0,0,0,.9-.31,1.75,1.75,0,0,0,.61-.78c.24-.55.49-1.1.74-1.66l4.66-10.44,1-2.35a2.26,2.26,0,0,1,.11-.22.12.12,0,0,1,.07-.07s.06,0,.07.05a2.4,2.4,0,0,1,.11.23c.42.93.83,1.87,1.25,2.8l4.44,10c.27.59.52,1.18.79,1.76A1.68,1.68,0,0,0,100.63,38.48Z"/><path class="cls-1" d="M78.17,15.44h-.86a1.67,1.67,0,0,0-1.5,1,2,2,0,0,0-.11.26c-1.18,2.68-2.35,5.37-3.52,8l-2.82,6.45c0,.1-.06.21-.16.27a.32.32,0,0,1-.12-.18c-.13-.3-.26-.61-.4-.91Q66,24.24,63.32,18.09c-.24-.55-.47-1.1-.72-1.64a1.64,1.64,0,0,0-1.55-1h-.86a1.69,1.69,0,0,0-1.5,2.28c.05.13.11.26.17.39l2.55,5.63,6,13.25c.1.2.18.42.29.61a1.69,1.69,0,0,0,3,0l.17-.36,1.22-2.7C73.24,32,74.39,29.49,75.54,27L79,19.41c.24-.54.5-1.08.73-1.63A1.68,1.68,0,0,0,78.17,15.44Z"/><path class="cls-2" d="M56.87,34.39H46.57a3.26,3.26,0,0,1-2.88-3.17c0-2.29,0-4.57,0-6.86V17.16A1.7,1.7,0,0,0,42,15.51h-.75a1.65,1.65,0,0,0-1.43.93,2,2,0,0,0-.18.9V31.11a6.85,6.85,0,0,0,.12,1.35,7.42,7.42,0,0,0,2.09,3.91,7.13,7.13,0,0,0,5.06,2.08c3.23,0,6.46,0,9.69,0h.28a1.69,1.69,0,0,0,1.67-1.51,5.15,5.15,0,0,0,0-1.11A1.66,1.66,0,0,0,56.87,34.39Z"/><path class="cls-1" d="M57.53,46.5H1.28c-.46,0-.43,0-.43-.43V1.41c0-.13,0-.26,0-.39S.9.87,1,.86h91c.08,0,.14.05.14.14s0,.23,0,.35c0,3.23,0,6.46,0,9.69,0,.73-.11.61.66.62.15,0,.18,0,.19-.2V.37a2.18,2.18,0,0,0,0-.25A.12.12,0,0,0,92.92,0H.56C-.07,0,0-.08,0,.55v46.3c0,.12,0,.24,0,.36a.12.12,0,0,0,.13.13H57.57a.11.11,0,0,0,.09-.1,2.41,2.41,0,0,0,0-.6A.15.15,0,0,0,57.53,46.5Z"/><path class="cls-1" d="M103.94,44a.13.13,0,0,0-.14-.13H99.33a.12.12,0,0,0-.11.12,1.48,1.48,0,0,0,0,.21c0,1,0,2,0,3v.22a.12.12,0,0,0,.12.11h.5c.31,0,.31,0,.31-.33V45a2.62,2.62,0,0,1,0-.28c0-.11,0-.15.15-.16H101c.1,0,.14,0,.15.16a2.81,2.81,0,0,1,0,.29v2c0,.11,0,.22,0,.32a.12.12,0,0,0,.1.1h.71a.11.11,0,0,0,.11-.11,2.81,2.81,0,0,0,0-.29V45a2.81,2.81,0,0,1,0-.29c0-.13,0-.17.17-.18h.46c.31,0,.31,0,.32.32,0,.66,0,1.31,0,2s-.1.61.62.62c.32,0,.32,0,.32-.32v-3A1.09,1.09,0,0,0,103.94,44Z"/><path class="cls-1" d="M85.17,43.85H81c-.18,0-.21,0-.22.2V47.3c0,.14,0,.17.17.18h.58c.16,0,.19,0,.19-.19s0-.47,0-.71c0-.62-.08-.55.55-.55s.34,0,.73.28a.12.12,0,0,1,.05,0l1.17,1a.37.37,0,0,0,.25.12h.85a.07.07,0,0,0,.06,0,.08.08,0,0,0,0-.09l-.92-.8L84,46.17s0-.05,0-.09A.12.12,0,0,1,84,46h1.18c.26,0,.27,0,.28-.29V44.17C85.48,43.85,85.48,43.85,85.17,43.85ZM84,45.32H82l-.24,0a.11.11,0,0,1-.12-.11,4.17,4.17,0,0,1,0-.5.13.13,0,0,1,.11-.12h2.63a.13.13,0,0,1,.12.12v0C84.55,45.39,84.63,45.31,84,45.32Z"/><path class="cls-1" d="M75.91,46.77H72.69c-.23,0-.24,0-.25-.24v0c0-.48,0-.46.43-.46H75c.28,0,.29,0,.29-.28v-.11c0-.31,0-.32-.31-.32h-2.4c-.08,0-.14,0-.14-.13a4.17,4.17,0,0,1,0-.5.11.11,0,0,1,.12-.11H76.1a.12.12,0,0,0,.14-.13,3.53,3.53,0,0,0,0-.46.12.12,0,0,0-.11-.12H71.81c-.31,0-.32,0-.32.33v3a1.49,1.49,0,0,0,0,.21.09.09,0,0,0,.09.09h4.47c.14,0,.17,0,.18-.17V47.1C76.25,46.77,76.25,46.77,75.91,46.77Z"/><path class="cls-1" d="M63.61,44.57H66.5c.16,0,.37.08.48-.06s0-.35,0-.52a.12.12,0,0,0-.14-.13H62.65l-.28,0a.11.11,0,0,0-.1.09.88.88,0,0,0,0,.17v3.07c0,.27,0,.28.28.29h4.36a.11.11,0,0,0,.12-.11,1.09,1.09,0,0,0,0-.18c0-.42,0-.41-.4-.41H63.4c-.15,0-.18,0-.19-.2V45C63.21,44.57,63.21,44.57,63.61,44.57Z"/><path class="cls-1" d="M93.12,44.44,92.88,44a.22.22,0,0,0-.21-.12h-.6a.29.29,0,0,0-.29.17l-.43.83-1.21,2.31c0,.09-.12.18-.09.31a2.27,2.27,0,0,0,.52,0c.56,0,.43.08.69-.43s.64-1.25,1-1.88c0-.06,0-.14.16-.14a2.6,2.6,0,0,1,.13.24c.19.36.37.72.55,1.08s.2.42-.26.42-.45,0-.45.47v.07c0,.12,0,.15.14.17h2l.19,0a1.45,1.45,0,0,0-.1-.24Z"/></g></g></svg>