<svg xmlns="http://www.w3.org/2000/svg" viewBox="0 0 58.26 86.16"><defs><style>.cls-1,.cls-2{fill:#fff;}.cls-2{font-size:7.83px;font-family:BrockScript;}</style></defs><g id="Layer_2" data-name="Layer 2"><g id="Layer_2_copy" data-name="Layer 2 copy"><path class="cls-1" d="M44.65,57.69l-.81.55c-.29.19-.59.33-.86.54a2.79,2.79,0,0,1-1.29.56,4.25,4.25,0,0,1-1.18-.05,1.54,1.54,0,0,1-.84-.36,3,3,0,0,1-1.08-1.1,3.65,3.65,0,0,1-.4-1.35c0-.7-.07-1.4-.07-2.1s.06-1.24.06-1.85a2.72,2.72,0,0,1,.3-1.23,3.15,3.15,0,0,1,1-1.31,8.17,8.17,0,0,1,.68-.52,1.58,1.58,0,0,1,.58-.22,8.47,8.47,0,0,1,1.12-.1,2,2,0,0,1,1.11.4,1.92,1.92,0,0,1,.28.18l.44.38A5.87,5.87,0,0,1,45,51.83a.56.56,0,0,0,.16.23.19.19,0,0,0,.19,0c.2-.25.42-.49.6-.76a8.57,8.57,0,0,0,.92-1.93,7,7,0,0,0,.31-1.08,4.26,4.26,0,0,0,0-1.67,5,5,0,0,0-.82-1.87.56.56,0,0,0-.34-.21c-.28-.06-.32,0-.47.39a4.77,4.77,0,0,1-.41.85,8.27,8.27,0,0,1-.55.63,2.68,2.68,0,0,1-1.36.87,1.89,1.89,0,0,1-1.87-.39,2.6,2.6,0,0,1-.86-1.36,3,3,0,0,1-.09-.73c0-.62,0-1.24,0-1.86,0-.46,0-.93.08-1.39a7.91,7.91,0,0,1,.3-1.75,3.15,3.15,0,0,1,.6-.83A2.74,2.74,0,0,1,43,38a2.27,2.27,0,0,1,1.39,0c.35.11.72.17,1.07.29a4.21,4.21,0,0,1,1.41.91,5.37,5.37,0,0,1,1.11,1.58,7.1,7.1,0,0,1,.58,1.64,10.92,10.92,0,0,1,.31,1.9c0,.36,0,.71.09,1.06,0,.2.08.4.07.6s-.06.52-.08.79c0,.42,0,.85-.1,1.27s-.19,1-.29,1.56l-.24,1.27c-.08.37-.14.76-.24,1.12-.17.56-.38,1.1-.57,1.65a7.29,7.29,0,0,1-.79,1.58,4.33,4.33,0,0,0-.39.62,1.72,1.72,0,0,0-.16.6c0,.24,0,.49,0,.73s-.07.53-.1.79,0,.55-.07.82c0,0,0,.1,0,.15,0,.46-.05.92-.09,1.37s-.09.93-.16,1.38-.19,1.06-.29,1.58-.15.81-.25,1.2-.19.58-.28.87c-.15.49-.29,1-.45,1.48-.09.29-.23.56-.34.85-.18.47-.34,1-.54,1.42s-.49,1.06-.75,1.58c-.16.31-.34.62-.52.92-.09.15-.2.28-.3.42-.2.29-.38.59-.6.86a12.11,12.11,0,0,1-1,1.15c-.54.53-1.12,1-1.65,1.52a6.86,6.86,0,0,1-1.26.86,4.76,4.76,0,0,1-.7.3c-.3.13-.6.26-.9.37a2.91,2.91,0,0,1-.51.12,7.46,7.46,0,0,1-.81.1c-.66,0-1.32.08-2,.07a4,4,0,0,1-.94-.23,4.93,4.93,0,0,1-.72-.29c-.39-.22-.77-.48-1.15-.72-.18-.12-.37-.25-.54-.39s-.26-.27-.4-.39a4.72,4.72,0,0,1-1-1.05c-.18-.25-.4-.47-.59-.71s-.17-.28-.26-.41a12.59,12.59,0,0,1-1-1.87c-.17-.35-.3-.72-.44-1.09a4.14,4.14,0,0,1-.09-.42,2.76,2.76,0,0,1-.35.42c-.34.31-.69.62-1.05.91s-.67.5-1,.74-.43.24-.64.38l-1.28.8-.55.31-1.44.8-.65.32c-.41.22-.81.45-1.23.65s-.72.31-1.08.48-.56.3-.85.43-.8.33-1.19.5c-.24.1-.46.24-.7.34-.4.18-.82.34-1.23.51l-.72.31-.3.12c-.55.22-1.11.46-1.67.67s-.9.3-1.36.47c-.18.06-.35.16-.53.24l-.86.33-1.12.42-1.36.52c-.44.17-.87.36-1.31.52-.23.08-.48.13-.73.19A.22.22,0,0,1,2.05,81a.18.18,0,0,1,.06-.17c.19-.13.39-.25.59-.36.41-.22.83-.43,1.25-.64s1-.49,1.56-.76c.27-.14.52-.33.79-.48.46-.25.92-.47,1.37-.72s1-.58,1.55-.87l2.22-1.28c.24-.14.46-.32.69-.47.42-.25.85-.47,1.26-.72.57-.35,1.13-.72,1.69-1.09.33-.21.65-.43,1-.65s.46-.29.69-.45c.39-.28.78-.55,1.16-.84.58-.45,1.17-.89,1.73-1.36s.83-.75,1.24-1.13.64-.62.95-.93.85-.86,1.27-1.3c.24-.26.45-.55.67-.83l.1-.09a.39.39,0,0,0,.13-.5c0-.14-.06-.3-.1-.44s-.08-.25-.12-.37c-.12-.41-.25-.81-.36-1.22s-.21-.88-.33-1.32-.28-.86-.42-1.29c0-.14-.1-.09-.17,0-.39.4-.78.8-1.18,1.19s-.8.77-1.21,1.14-.67.54-1,.79-.53.35-.8.52-.71.45-1.08.66-.62.32-.93.46c-.64.29-1.28.58-1.92.85-.27.11-.55.18-.82.28l-.76.33c-.28.11-.56.23-.85.33l-1.27.46c-.43.18-.85.39-1.28.56s-1.05.36-1.57.56c-.35.13-.69.3-1,.44s-.59.2-.87.31-.72.32-1.08.47L4,70.36l-1,.38-.85.33c-.36.15-.72.33-1.09.46a5.86,5.86,0,0,1-.85.21c-.05,0-.11,0-.17-.06a.88.88,0,0,1,.12-.19c.14-.1.29-.18.43-.27l.77-.44,1.26-.7c.23-.13.45-.29.67-.42.41-.24.83-.46,1.23-.7s.58-.38.87-.56.62-.36.93-.54l1.88-1.12L9.29,66l.66-.4c.43-.27.86-.56,1.3-.83l.93-.56,1.36-.85c.45-.28.88-.59,1.32-.89s.9-.59,1.34-.91c.21-.15.4-.37.6-.54s.37-.25.55-.39.53-.4.78-.63.49-.47.73-.71c.46-.42.92-.84,1.37-1.28.21-.21.38-.46.58-.68s.26-.27.39-.4a.33.33,0,0,0,.05-.43c-.33-.68-.63-1.38-1-2.06a9.59,9.59,0,0,0-.47-.9c-.22-.39-.43-.77-.68-1.13a18.42,18.42,0,0,0-1.94-2.27c-.36-.37-.68-.79-1-1.2a3.59,3.59,0,0,1-.58-1.27c-.09-.39-.11-.8-.18-1.21a19.38,19.38,0,0,1-.07-3c0-.55,0-1.1.09-1.64a6.22,6.22,0,0,1,.51-2,10,10,0,0,1,1-1.72c.32-.43.64-.87,1-1.28s.66-.74,1-1.09.65-.66,1-1,.52-.5.79-.72.82-.6,1.23-.9c.18-.14.35-.29.54-.41.37-.24.75-.48,1.13-.69a7.22,7.22,0,0,1,1.11-.56,7.47,7.47,0,0,1,1.15-.3,3.49,3.49,0,0,1,.85-.07,2.23,2.23,0,0,1,1.59.71c.31.33.6.68.88,1a3.91,3.91,0,0,1,.32.61c.19.42.4.84.56,1.27a8.14,8.14,0,0,1,.26,1c.08.35.14.71.22,1.07V37c0,.46.09.92.13,1.39s.05.78.05,1.17,0,.88,0,1.32c0,.19,0,.39,0,.58,0,.5-.11,1-.17,1.51,0,.24-.06.47-.08.7s0,.56-.1.83-.14.78-.21,1.18-.11.66-.17,1-.11.55-.18.82-.21.78-.32,1.17-.2.69-.32,1-.23.67-.36,1c-.2.49-.41,1-.61,1.45-.12.28-.24.56-.37.83-.21.46-.43.91-.65,1.36-.07.15-.11.31-.19.45-.35.59-.7,1.18-1.06,1.76-.25.4-.51.8-.78,1.19s-.56.71-.84,1.06l-.42.56a.17.17,0,0,0,0,.14c.1.31.22.61.31.92.16.58.31,1.17.46,1.76.06.27.1.55.17.83s.16.64.23,1c0,.07,0,.16,0,.23a.25.25,0,0,0,.09.13s.07,0,.1-.06.27-.33.4-.51c.32-.44.62-.89.94-1.33s.5-.69.75-1,.59-.84.88-1.27.47-.63.68-1,.42-.77.64-1.15l.52-.86.51-.95c.11-.19.23-.36.33-.56.22-.46.43-.93.64-1.4.13-.28.26-.54.37-.83.16-.44.3-.89.46-1.33.08-.23.19-.45.27-.69s.25-.79.37-1.18.25-.88.37-1.31c0-.15.06-.3.1-.45s.16-.56.23-.85.13-.59.2-.88.13-.62.19-.93.07-.37.1-.56l.09-.72c0-.5.11-1,.14-1.51s0-.7,0-1c0-.78,0-1.56-.09-2.33,0-.51-.13-1-.21-1.52s-.09-.74-.17-1.1-.18-.83-.28-1.24c0-.13,0-.26-.07-.38-.12-.45-.24-.9-.38-1.34s-.33-1.07-.51-1.59-.35-.88-.52-1.32-.35-1-.55-1.45c-.1-.25-.24-.48-.36-.72-.21-.42-.4-.86-.62-1.28-.13-.26-.28-.51-.42-.77s-.3-.58-.45-.86l-.91-1.58L28,22.88c-.15-.25-.33-.46-.47-.71-.25-.43-.48-.87-.72-1.3s-.42-.67-.62-1-.44-.75-.65-1.13-.45-.86-.67-1.29l-.52-.95c-.15-.3-.29-.61-.43-.92s-.4-.82-.56-1.25-.28-.87-.42-1.31-.21-.61-.3-.92a1.74,1.74,0,0,1-.11-.45A13.12,13.12,0,0,1,22.38,10a16.18,16.18,0,0,1,.19-1.69l.09-.74a5.68,5.68,0,0,1,.18-1c.12-.35.15-.72.25-1.07s.21-.76.33-1.13a6.93,6.93,0,0,1,.37-.93c.26-.48.54-.94.83-1.38A3.65,3.65,0,0,1,25.78.94c.15-.09.27-.23.42-.3S26.74.4,27,.28A4.45,4.45,0,0,1,29.2,0a2.46,2.46,0,0,1,1.37.43s.1.11.09.15a1.42,1.42,0,0,1-.09.67,1.36,1.36,0,0,0-.1.48c0,.23,0,.46-.09.69-.06.42-.14.83-.21,1.24,0,.17-.06.34-.08.52C30,4.6,30,5,29.92,5.37c0,.14-.09.16-.18.12s-.42-.23-.63-.33a.88.88,0,0,0-.29-.09A3.14,3.14,0,0,0,27.6,5a1.75,1.75,0,0,1-.24,0,2.83,2.83,0,0,0-.87.2,3.45,3.45,0,0,0-1.34,1c-.08.13-.16.26-.23.39a8.94,8.94,0,0,0-.44.8,3.21,3.21,0,0,0-.26,1.68,7.86,7.86,0,0,0,.32,1.15,4.52,4.52,0,0,0,.18.47c.15.34.31.69.47,1s.28.61.44.9c.26.47.53.93.8,1.4s.56,1,.85,1.48c.15.26.32.51.49.77.06.1.12.09.16,0a1.21,1.21,0,0,0,.05-.18c.09-.39.16-.79.26-1.18a5.46,5.46,0,0,1,.28-.77,9.1,9.1,0,0,1,.45-.88c.19-.32.38-.63.59-.92a5.72,5.72,0,0,1,1.34-1.43,4.74,4.74,0,0,1,.6-.43,2.48,2.48,0,0,1,.68-.23,4.15,4.15,0,0,1,.78-.09,3.39,3.39,0,0,1,1.31.37c.14.07.18.4.12.65s-.1.5-.15.75-.14.69-.2,1c0,.2-.06.4-.1.6-.07.4-.15.8-.22,1.19,0,.06,0,.12,0,.18s-.1.3-.27.3h-.1a3.38,3.38,0,0,0-1.61.53,5.22,5.22,0,0,0-.95.87,5.93,5.93,0,0,0-1,1.56,3.16,3.16,0,0,0-.24.63.44.44,0,0,0,0,.32c.28.49.58,1,.86,1.46s.49.84.72,1.26c.08.15.12.32.2.47.3.59.63,1.16.91,1.76.37.77.72,1.54,1,2.32s.61,1.51.9,2.27c.14.36.29.72.41,1.09s.23.8.34,1.2.18.56.26.84l.12.43c.08.26.17.51.24.77s.14.6.19.91c.08.48.15,1,.22,1.45,0,.26.06.52.08.79,0,.49,0,1,.1,1.48.14,1.63.07,3.27.06,4.9,0,.51-.09,1-.14,1.52,0,.3,0,.61-.09.92-.06.48-.14.95-.21,1.42l-.09.54c-.08.49-.15,1-.24,1.47-.06.29-.15.57-.22.86s-.13.59-.2.88-.12.6-.19.9-.18.83-.28,1.24c-.06.24-.14.48-.21.72l-.21.77L33.81,55c-.08.28-.16.56-.25.84-.21.59-.43,1.18-.65,1.77-.1.28-.2.57-.32.84-.19.45-.4.89-.6,1.33q-.16.38-.36.75c-.27.53-.55,1.06-.84,1.57s-.64,1.12-1,1.68c-.07.12-.17.21-.25.33l-.8,1.27c-.33.51-.66,1-1,1.5-.14.21-.29.41-.45.61l-.52.69s0,0,0,.05-.29.17-.23.37a1.73,1.73,0,0,0,.24.38c.24.34.46.7.71,1s.6.67.89,1a5.25,5.25,0,0,0,1.17,1,4.33,4.33,0,0,0,1.17.51,7.85,7.85,0,0,0,2.51.15,6.64,6.64,0,0,0,1.16-.24c.23-.06.47-.12.69-.2a5.33,5.33,0,0,0,.74-.32c.45-.25.91-.5,1.35-.79a12.93,12.93,0,0,0,1-.8c.31-.26.6-.56.92-.8a9.18,9.18,0,0,0,1-1.06,14.57,14.57,0,0,0,1-1.34A10.92,10.92,0,0,0,42,65.69c.39-.74.74-1.53,1.07-2.31s.5-1.3.73-2c.11-.3.17-.62.25-.93s.16-.49.22-.74.14-.57.2-.86.15-.66.21-1A.71.71,0,0,0,44.65,57.69ZM29.16,40.88c0-.38-.07-.71-.12-1a4.74,4.74,0,0,0-.43-1.49c-.15-.25-.25-.55-.42-.78a3.13,3.13,0,0,0-1.59-1.23,2,2,0,0,0-1.22.09,3.7,3.7,0,0,0-.54.24c-.38.17-.76.32-1.13.51s-.55.35-.83.52-.75.43-1.11.67-.45.35-.67.53c-.42.36-.85.7-1.27,1.08a6.35,6.35,0,0,0-1.06,1.23c-.23.36-.54.65-.77,1-.38.59-.72,1.21-1.07,1.83a.52.52,0,0,0,.09.68c.36.37.74.72,1.08,1.12a14.19,14.19,0,0,1,1.08,1.35,17.88,17.88,0,0,1,.95,1.66c.31.58.59,1.17.87,1.77.1.22.16.48.24.71.27.74.56,1.46.81,2.2.17.5.31,1,.46,1.53,0,.12.08.18.17.05.26-.34.52-.67.77-1s.45-.62.65-.94c.47-.76.94-1.53,1.4-2.3.2-.33.4-.68.59-1s.53-.93.76-1.42c.32-.7.62-1.41.91-2.14.18-.46.32-.94.47-1.42s.34-1,.49-1.48a9.61,9.61,0,0,0,.23-1C29,41.91,29.09,41.37,29.16,40.88Z"/><path class="cls-1" d="M42.82,29.2l-.51.36-.72.49c-.44.28-.89.55-1.32.84s-.56.39-.84.59a.18.18,0,0,0,0,.28s0,.1.07.14c.15.26.14.24.36.07s.49-.32.74-.48l1.35-.91,1-.67a1.08,1.08,0,0,1,.29-.18.21.21,0,0,1,.22,0A3,3,0,0,1,44,31a8.63,8.63,0,0,1,.1,1,3.41,3.41,0,0,1-.7,2.18,2.68,2.68,0,0,1-1.26.93,2.78,2.78,0,0,1-1.17.17,3.14,3.14,0,0,1-1.27-.46s0-.08-.06-.12l1.52-1,1-.67a5.7,5.7,0,0,1,.61-.39.25.25,0,0,0,.13-.34,1.53,1.53,0,0,0-.11-.27c-.08-.14-.16-.07-.25,0l-.78.52L41,33l-1.61,1.09a2.15,2.15,0,0,1-.26.14,3.59,3.59,0,0,1-.82-2.06A3.08,3.08,0,0,1,38.83,30C39.92,28.35,41.65,28.17,42.82,29.2Z"/><text class="cls-2" transform="translate(16.38 84.21) scale(0.86 1)">Fouad Couture</text></g></g></svg>