<svg xmlns="http://www.w3.org/2000/svg" viewBox="0 0 51.14 95.7"><defs><style>.cls-1{fill:#fff;}</style></defs><g id="Layer_2" data-name="Layer 2"><g id="Layer_2_copy" data-name="Layer 2 copy"><path class="cls-1" d="M26.27,0c.08,1.17.15,2.33.22,3.5.07,1,.13,2,.2,3-.66.2-.74.18-1.14-.31L22.37,2.29A1.07,1.07,0,0,0,22,2l.31,4.86-.87,0L21,.39a1,1,0,0,1,1.16.35c1.06,1.35,2.17,2.67,3.26,4a.61.61,0,0,0,.26.19L25.4.12,25.88,0Z"/><path class="cls-1" d="M6.23,47.85V29A19.34,19.34,0,0,1,19.4,10.52a18.62,18.62,0,0,1,8-.93,19,19,0,0,1,11.91,5.64,18.74,18.74,0,0,1,5.44,11.13,31,31,0,0,1,.18,3.73q0,14.11,0,28.23c0,2.93,0,5.85,0,8.77a18.94,18.94,0,0,1-5.43,13.19,18.61,18.61,0,0,1-10.13,5.54,18.83,18.83,0,0,1-15.56-3.66A18.77,18.77,0,0,1,6.49,69.87a19,19,0,0,1-.25-3C6.22,60.51,6.23,54.18,6.23,47.85ZM20.88,10.76a18.76,18.76,0,0,0-14,18.73A18.44,18.44,0,0,1,19,34a19.63,19.63,0,0,1,6.53,11.34l.11-.4a19.14,19.14,0,0,1,5.81-10.27,18.76,18.76,0,0,1,12.42-5.15c.31,0,.37-.12.37-.39a21,21,0,0,0-.38-3.95A18.74,18.74,0,0,0,30.57,10.83l-.22,0a9.1,9.1,0,0,1,4.14,6.57,8.6,8.6,0,0,1-2.41,7.34A9,9,0,0,1,19,24.58,9.07,9.07,0,0,1,20.88,10.76Zm5,56.75h8.37c.46,0,.46,0,.46-.44,0-3.12,0-6.24,0-9.36s0-6.29,0-9.43,0-6.4,0-9.6V33.39c0-.11,0-.21,0-.38l-.34.21a17.91,17.91,0,0,0-3.15,2.61,18.49,18.49,0,0,0-5.31,13c0,6.09,0,12.18,0,18.27Zm-19-.05.27,0c1.22,0,2.45,0,3.67,0a9.92,9.92,0,0,0,2-.25,9.79,9.79,0,0,0,7.47-9.56c0-2.7,0-5.4,0-8.11,0-.43,0-.43-.44-.43H7.37c-.43,0-.43,0-.43.44v17.9Zm18.65-57.3a8.34,8.34,0,1,0,8.34,8.32A8.34,8.34,0,0,0,25.59,10.16Zm-.38,58a2.26,2.26,0,0,0-.25,0c-.94.08-1.89.11-2.82.28A18,18,0,0,0,10,76.6a.41.41,0,0,0,0,.53,19,19,0,0,0,2.9,3.42,18.55,18.55,0,0,0,10.2,4.83c.7.1,1.42.13,2.15.19ZM41.68,39.65v9.17H41v-.45q0-4.17,0-8.33c0-.33-.1-.42-.41-.4-.58,0-1.17,0-1.75,0-.32,0-.39.1-.38.39,0,2.8,0,5.6,0,8.4v.38h-.66V39.67H35.4V58h8.84v-.41q0-8.76,0-17.53c0-.07,0-.15,0-.2s-.13-.19-.19-.19ZM25.18,51.32A20.25,20.25,0,0,0,23.1,40.15a19,19,0,0,0-5.42-6.41c0,.2,0,.33,0,.46a31.23,31.23,0,0,1-.12,6.34c-.27,2.06-.66,4.1-1,6.15-.1.59-.2,1.17-.31,1.77l.24,0h3.83a5.56,5.56,0,0,1,2.85.71A5.26,5.26,0,0,1,25.18,51.32ZM6.87,48.48c1.15,0,2.24,0,3.33,0,.28,0,.36-.1.4-.35.08-.58.2-1.15.29-1.72.35-2.26.77-4.5,1-6.76a32.71,32.71,0,0,0-.28-8.5.52.52,0,0,0-.47-.52,20.83,20.83,0,0,0-3.86-.51c-.43,0-.44,0-.44.41V48.48ZM29.52,85.1c.05,0,.08,0,.1,0a17.46,17.46,0,0,0,4.92-1.86.51.51,0,0,0,.19-.4q0-7.16,0-14.33c0-.26-.05-.37-.34-.36H29.8l-.28,0ZM37.72,81l.17-.1a18.61,18.61,0,0,0,3.84-4.68.83.83,0,0,0,.1-.41c0-5.61,0-11.23,0-16.84,0-.29-.1-.35-.36-.34H38.17c-.45,0-.45,0-.45.44V81ZM11.19,48.45l.22,0h3.94c.2,0,.26-.08.29-.27.48-3,1.2-6,1.4-9.06A35.52,35.52,0,0,0,17,33.51a.6.6,0,0,0-.28-.43,20,20,0,0,0-2.07-1.17c-.74-.37-1.53-.65-2.33-1,0,.18,0,.28,0,.38.09.81.2,1.61.27,2.43a31,31,0,0,1,0,6.46c-.24,2-.62,4-.94,5.94C11.47,46.9,11.33,47.66,11.19,48.45Zm33-18.28h-.18a18,18,0,0,0-8.48,2.34.54.54,0,0,0-.18.4c0,1.91,0,3.82,0,5.72,0,.31.1.37.38.37q4.05,0,8.11,0c.32,0,.37-.11.37-.4,0-2.69,0-5.38,0-8.07Zm-19,25.61a5.18,5.18,0,0,1-4.11,2.85c-.08,0-.18.17-.2.27a10.36,10.36,0,0,1-6.28,8.41l-.36.18h11Zm.73,29.82,2.75-.31c.26,0,.17-.25.17-.4V68.17H25.94ZM20,68.18H7c-.16,1.75,1.39,6.78,2.48,8A19.37,19.37,0,0,1,20,68.18ZM21,58A4.42,4.42,0,0,0,25,53.09c-.18-2-2.27-4.06-4.05-3.89ZM35.4,82.77l1.4-1a.56.56,0,0,0,.28-.54c0-4.24,0-8.49,0-12.73v-.35H35.4Zm7.1-24.13v8.87h1.3c.47,0,.47,0,.47-.46v-8a.75.75,0,0,0,0-.26c0-.07-.12-.17-.18-.17Zm-5.45,8.87V58.67H35.38v8.45a.67.67,0,0,0,0,.2c0,.07.11.18.17.18C36,67.52,36.54,67.51,37.05,67.51Zm5.46.66v6.48a17.55,17.55,0,0,0,1.71-6.48Z"/><path class="cls-1" d="M21.82,95.39,21,95.31l.48-6.51c.45,0,.81,0,1.08.48.83,1.46,1.74,2.89,2.61,4.33a1.07,1.07,0,0,0,.32.36l.37-4.85.87.07-.48,6.47c-.57.11-.79,0-1.06-.42Q23.8,93,22.44,90.77a.59.59,0,0,0-.25-.25Z"/><path class="cls-1" d="M10.26,82.69c.69.61,1.37,1.15,2,1.77a1.77,1.77,0,0,1-2,2.88l-.47-.24c-.06.59-.09,1.17-.17,1.75s.07,1.18.76,1.38c0,0,0,0,0,.06-.24.69-.43.75-1,.3a1.61,1.61,0,0,1-.66-1.5c.06-.7.15-1.4.23-2.1a.81.81,0,0,0-.36-.85L6.73,88.32,6,87.75Zm.22,1.16L9,85.61c.51.35,1,.71,1.47,1a.91.91,0,0,0,1.26-.36A.93.93,0,0,0,11.67,85C11.32,84.6,10.9,84.25,10.48,83.85Z"/><path class="cls-1" d="M8.57,10.31l1.81,2.19-.69.57L5.48,8A24.56,24.56,0,0,1,7.8,6.29a1.73,1.73,0,0,1,2.61,1.24A1.83,1.83,0,0,1,10,9c-.09.13-.2.26-.29.37l1.94.54c.58.15.83,0,1.28-.57l.14.07c.52.33.53.49.07.93a1.71,1.71,0,0,1-1.81.39l-2-.58A.71.71,0,0,0,8.57,10.31Zm-.44-.53C8.57,9.34,9,9,9.36,8.53a.89.89,0,0,0,0-1.24A1,1,0,0,0,8.08,7c-.49.28-.93.64-1.42,1Z"/><path class="cls-1" d="M40.29,3.94l.75.53L39.4,6.78l2.8,2,1.64-2.3L44.6,7l-3.8,5.34L40,11.81l1.69-2.38-2.8-2L37.24,9.81l-.75-.53Z"/><path class="cls-1" d="M38.25,88.36l2.8-2-1.62-2.31.75-.54L44,88.88l-.75.54L41.52,87l-2.8,2,1.67,2.38-.75.54-3.77-5.36.74-.53Z"/><path class="cls-1" d="M15.37,89.62l2.74,1.14-.3.73-2.74-1.14-.82,2,2.95,1.24-.37.7L13.11,92.7l2.53-6,3.67,1.53-.3.73-2.85-1.18Z"/><path class="cls-1" d="M16.57,1.45l.29.73L14,3.34l.77,1.9,2.76-1.11.28.73L15.08,6l.8,2,2.93-1.18a.46.46,0,0,1,.07.1c.23.62.23.62-.39.87L15.68,8.88,15.34,9,12.88,3Z"/><path class="cls-1" d="M36.09,3.14l-.76.3s-.07,0-.08-.08a2.08,2.08,0,0,0-3.5-.67,3.12,3.12,0,0,0-.84,2.71,2.15,2.15,0,0,0,3.2,1.3l.36-.27.5.68a2.37,2.37,0,0,1-1.92.75A3.11,3.11,0,0,1,30.2,6.19a3.65,3.65,0,0,1,2.86-5A2.87,2.87,0,0,1,36,2.75,2.93,2.93,0,0,1,36.09,3.14Z"/><path class="cls-1" d="M34.61,88.53l-.5.64s-.09,0-.11,0a2.08,2.08,0,0,0-3.36,1.32,3.23,3.23,0,0,0,.54,2.45,1.82,1.82,0,0,0,1.86.83,2.1,2.1,0,0,0,1.77-1.22l.13-.34.81.32a7.08,7.08,0,0,1-.29.67,3.3,3.3,0,0,1-4.32,1c-1.35-.87-2.28-3.88-.48-5.51a3,3,0,0,1,3.86-.24S34.56,88.48,34.61,88.53Z"/><path class="cls-1" d="M2.67,11.19l.66.42L1.79,14.05l1.8,1.14,1.49-2.33.67.42L4.26,15.62l2.38,1.52-.47.76L.63,14.38Z"/><path class="cls-1" d="M6.83,79.26,5,80.35,6.4,82.73l-.67.41L4.31,80.76,1.87,82.2l-.45-.78,5.63-3.34L9,81.34l-.67.4Z"/><path class="cls-1" d="M48.58,83.4l-.51.76c-.75-.5-1.47-1-2.2-1.45a1,1,0,0,0-.55-.17c-1.15,0-2.31,0-3.47,0l-.53,0a7.48,7.48,0,0,1,.5-.72.54.54,0,0,1,.37-.11c.89,0,1.78,0,2.68,0l.34,0a3.64,3.64,0,0,0-.16-.38c-.33-.77-.66-1.54-1-2.29a.55.55,0,0,1,.06-.68,4.37,4.37,0,0,0,.33-.48c.25.57.48,1.09.7,1.61.3.69.58,1.38.89,2.06a1.16,1.16,0,0,0,.35.41C47.09,82.41,47.82,82.89,48.58,83.4Z"/><path class="cls-1" d="M50.67,14.56l-3,.08a2.57,2.57,0,0,1-.39,0,2.29,2.29,0,0,0-1.74.64c-.5.36-1,.7-1.54,1.06l-.53-.75,2.17-1.5a1.13,1.13,0,0,0,.36-.45c.51-1.22,1-2.44,1.53-3.72.19.28.38.52.52.78,0,.07,0,.21,0,.31l-1,2.5-.11.3h1.92a3.81,3.81,0,0,0,.59,0A1,1,0,0,1,50.67,14.56Z"/><path class="cls-1" d="M49.26,49.91,48,51.07l.92.3c.29-.15-.09-.63.43-.58v1.38c-.25,0-.25,0-.32-.44l-1.24-.41c-.27.21-.33.38-.22.83-.22.19-.31.07-.35-.14a1.08,1.08,0,0,1,.34-1,1.72,1.72,0,0,1-.35-1.39,1,1,0,0,1,.7-.92,1.08,1.08,0,0,1,1.18.31c.09.09.17.2.26.3.87-.46,1.25-.47,1.54,0a.94.94,0,0,1-.12,1.18.71.71,0,0,1-.84.07A4.11,4.11,0,0,1,49.26,49.91Zm-1.47.89,1.33-1.24a.89.89,0,0,0-1.28-.4A1.19,1.19,0,0,0,47.79,50.8Zm1.75-1.23,0,.15c.17.17.3.39.5.49a.67.67,0,0,0,.57-.05.57.57,0,0,0,.11-.52.62.62,0,0,0-.46-.33A2.49,2.49,0,0,0,49.54,49.57Z"/><path class="cls-1" d="M3.28,44.35,2.21,44a3.47,3.47,0,0,1,0,.46c0,.06-.1.11-.15.17s-.13-.12-.13-.18c0-.4,0-.79,0-1.19.26-.05.26-.05.32.45a6.42,6.42,0,0,1,.63.15c.2.07.38.17.58.25.31-.23.37-.41.27-.85.15-.15.3-.14.31.08a1.55,1.55,0,0,1-.12.78.48.48,0,0,0,0,.58A1.59,1.59,0,0,1,4,46a1,1,0,0,1-.76.75,1.1,1.1,0,0,1-1.08-.33l-.27-.33a1.12,1.12,0,0,1-1.12.35.86.86,0,0,1-.41-.3,1,1,0,0,1,.17-1.2c.39-.28.81-.12,1.44.6ZM2.15,45.87a.93.93,0,0,0,.91.53.73.73,0,0,0,.67-.59,1.27,1.27,0,0,0-.24-1.19Zm-.36-.09a3.86,3.86,0,0,0-.48-.54.48.48,0,0,0-.64,0,.49.49,0,0,0-.08.64.47.47,0,0,0,.59.23A5.05,5.05,0,0,0,1.79,45.78Z"/><path class="cls-1" d="M1.69,26.6H.49c-.14,0-.33.05-.33-.2s.19-.17.31-.17c1.07,0,2.14,0,3.21,0,.13,0,.39-.09.38.19s-.24.13-.38.16l-.22,0a2.74,2.74,0,0,1,.35.25,1,1,0,0,1-.41,1.62,1.61,1.61,0,0,1-1.69-.36A1.13,1.13,0,0,1,1.69,26.6Zm1.15,1.61c.45,0,.77-.16.87-.46a.71.71,0,0,0-.24-.83,1.28,1.28,0,0,0-1.24-.26.67.67,0,0,0-.49.84A1,1,0,0,0,2.84,28.21Z"/><path class="cls-1" d="M51.11,27.93v.39h-.82l-2.78.05c-.29,0-.3,0-.25-.35l.5,0a1.21,1.21,0,0,1-.58-.95.91.91,0,0,1,.67-.95,1.78,1.78,0,0,1,1.32.07c.69.31.87,1,.47,1.77Zm-2.69-1.55-.2,0a.71.71,0,0,0-.69.51.72.72,0,0,0,.32.81A1.31,1.31,0,0,0,49,28a.72.72,0,0,0,.46-1.15A1.12,1.12,0,0,0,48.42,26.38Z"/><path class="cls-1" d="M3.36,67.37c.49.23.8.51.8,1a.89.89,0,0,1-.43.81,1.73,1.73,0,0,1-1.48.21,1.14,1.14,0,0,1-.67-1.64L.1,68.1,0,67.75l3.78-.87.1.34Zm-.71,1.79A6.66,6.66,0,0,0,3.34,69a.65.65,0,0,0,.47-.58.72.72,0,0,0-.39-.71,1.27,1.27,0,0,0-1.35,0,.71.71,0,0,0,0,1.18A2.79,2.79,0,0,0,2.65,69.16Z"/><path class="cls-1" d="M49.7,68.84h1.37v.33H47.22v-.36l.45,0a5.6,5.6,0,0,1-.4-.52,1,1,0,0,1,.63-1.37,1.43,1.43,0,0,1,1.94,1A3.91,3.91,0,0,1,49.7,68.84Zm-.16-.74a.77.77,0,0,0-.4-.71,1.37,1.37,0,0,0-1.15-.1.67.67,0,0,0-.29,1.11,1.32,1.32,0,0,0,1.42.35A.65.65,0,0,0,49.54,68.1Z"/><path class="cls-1" d="M48.79,40c.27.61,1.06.79,1,1.51l-1.22-1.13a10.41,10.41,0,0,0-.92.68c-.11.1-.12.31-.18.47a1.2,1.2,0,0,1-.13.21c-.06-.06-.16-.12-.17-.19a.82.82,0,0,1,.35-.86l.81-.59,0-.1c-.28,0-.56,0-.83,0s-.34-.1-.25-.37h3.79c.1.27,0,.37-.23.37Z"/><path class="cls-1" d="M1.52,53.94l1.16,1.21c.34-.5,1.18-.51,1.07-1.37l.1,0,.11,0a.77.77,0,0,1-.26,1.08l-.81.59,0,.09H4c.1.27.05.37-.22.37H.42c-.26,0-.3-.11-.22-.36H2.49C2.23,54.89,1.45,54.69,1.52,53.94Z"/><path class="cls-1" d="M48.49,58.72a1.25,1.25,0,0,1,1.34,1.59,1.12,1.12,0,0,1-1.11.81,1.29,1.29,0,0,1-1.53-1.21C47.18,59.14,47.64,58.72,48.49,58.72Zm0,.38c-.65,0-1,.33-1,.88a.87.87,0,0,0,.77.74c.58.09,1-.07,1.18-.43a.79.79,0,0,0,.06-.22C49.59,59.49,49.17,59.1,48.48,59.1Z"/><path class="cls-1" d="M4.09,31.49c0,.7-.43,1.11-1.23,1.17A1.28,1.28,0,0,1,1.46,31a.7.7,0,0,1,.11-.23,1.41,1.41,0,0,1,1.6-.45A1.17,1.17,0,0,1,4.09,31.49ZM2.7,30.63c-.58,0-.92.24-1,.68a.87.87,0,0,0,.69.92,1.08,1.08,0,0,0,1.28-.41C4,31.21,3.49,30.64,2.7,30.63Z"/><path class="cls-1" d="M48.57,65.19a1.23,1.23,0,0,1-1.36-1.46,1.18,1.18,0,0,1,.22-.53,1.51,1.51,0,0,1,1.77-.26,1.19,1.19,0,0,1,.64,1.38A1.14,1.14,0,0,1,48.57,65.19Zm0-.38c.59,0,.94-.27,1-.73a.85.85,0,0,0-.69-.88,1.05,1.05,0,0,0-1.25.4.82.82,0,0,0-.07.28C47.47,64.43,47.92,64.81,48.58,64.81Z"/><path class="cls-1" d="M4.09,35.54a1.07,1.07,0,0,1-.95,1.13,1.39,1.39,0,0,1-1.67-.78,1.18,1.18,0,0,1,.19-1.21A1.41,1.41,0,0,1,3,34.33,1.19,1.19,0,0,1,4.09,35.54Zm-1.4-.87c-.56,0-.91.25-1,.69a.87.87,0,0,0,.79.94,1,1,0,0,0,1.21-.52C3.9,35.18,3.44,34.68,2.69,34.67Z"/><path class="cls-1" d="M47.27,37.73c-.1-.27,0-.37.22-.37h1.45c.26,0,.51-.09.57-.39a.59.59,0,0,0-.33-.72,13,13,0,0,0-1.52-.38,2.8,2.8,0,0,0-.41,0v-.36H49.8v.35h-.61l0,.06.22.14a1,1,0,0,1,.45,1.11c-.1.35-.39.54-.88.56S47.84,37.73,47.27,37.73Z"/><path class="cls-1" d="M4,59.89H1.5c-.06-.25-.06-.25.65-.36l-.3-.19a1,1,0,0,1-.44-1,.76.76,0,0,1,.77-.61c.6,0,1.21,0,1.83,0l0,.35H2.83a3.69,3.69,0,0,0-.47,0c-.27,0-.53.09-.6.41a.57.57,0,0,0,.3.7,6.74,6.74,0,0,0,1.16.35,3,3,0,0,0,.52,0C4,59.55,4,59.56,4,59.89Z"/><path class="cls-1" d="M50.46,58c0-.13.06-.27.12-.31a.46.46,0,0,0,.24-.59.94.94,0,0,0-.42-.44,1.44,1.44,0,0,0-.58-.06c0,.25,0,.48,0,.7s-.09.15-.13.22c-.06-.08-.15-.14-.16-.22s0-.42,0-.67H47.28c-.11-.26-.06-.38.22-.38h1.92c.23-.16-.08-.51.27-.51.07,0,.13.28.22.49.35,0,.82,0,1.08.42a1.43,1.43,0,0,1,.15.69C51.15,57.77,50.93,58,50.46,58Z"/><path class="cls-1" d="M.81,37.42c-.05.1-.08.24-.16.29a.46.46,0,0,0-.2.58,1.23,1.23,0,0,0,.39.43.83.83,0,0,0,.36.06c.16,0,.25,0,.24-.22v-.64c.33-.12.31.08.31.26v.56H4v.38H1.8c-.1.51-.1.51-.34.48a1.15,1.15,0,0,1,0-.19c0-.23-.07-.3-.31-.3A.92.92,0,0,1,.12,38C.14,37.65.31,37.48.81,37.42Z"/><path class="cls-1" d="M3.34,52.61l-.08-.27c.48-.27.63-.52.5-1A.68.68,0,0,0,3.39,51c-.22-.07-.33.13-.38.32s-.12.52-.22.76a.67.67,0,0,1-1,.27,1,1,0,0,1-.34-1,.74.74,0,0,1,.6-.71c.11.14.15.25,0,.36a.54.54,0,0,0-.23.7.67.67,0,0,0,.4.36c.12,0,.33-.16.4-.3s.14-.5.23-.75a.61.61,0,0,1,1.08-.21A1.12,1.12,0,0,1,3.34,52.61Z"/><path class="cls-1" d="M49.16,44.69a.92.92,0,0,1,.15-.28.61.61,0,0,0,.25-.64.45.45,0,0,0-.42-.43c-.26,0-.37.15-.43.36s-.13.49-.21.73a.63.63,0,0,1-.93.31,1.2,1.2,0,0,1,0-1.81c.1-.06.3-.08.34,0s0,.23-.15.31a.83.83,0,0,0-.19,1.11.34.34,0,0,0,.61-.07,6.55,6.55,0,0,0,.19-.67c.12-.44.32-.62.69-.61a.77.77,0,0,1,.75.67C50,44.22,49.74,44.65,49.16,44.69Z"/><path class="cls-1" d="M1.42,63.68l.31,0c.11.69.25.85.94,1,.43.09.87.11,1.34.16l0,.33H1.47v-.37h.61C1.64,64.56,1.31,64.27,1.42,63.68Z"/><path class="cls-1" d="M49.81,30.26v.31h-.66c.45.26.81.56.7,1.17l-.3,0s0-.05,0-.07c0-.5-.18-.74-.67-.85s-.93-.13-1.4-.2c-.08,0-.15-.1-.23-.15s.14-.17.21-.18l2.28,0A.26.26,0,0,1,49.81,30.26Z"/><path class="cls-1" d="M4,62.13H1.46v-.32H4Z"/><path class="cls-1" d="M49.81,33.29v.34H47.38c-.05,0-.1-.1-.16-.15s.12-.17.18-.17Z"/><path class="cls-1" d="M50.71,33.1c.12.19.24.29.22.37a.31.31,0,0,1-.24.23c-.08,0-.21-.14-.22-.24S50.58,33.28,50.71,33.1Z"/><path class="cls-1" d="M.94,62c-.19.11-.3.22-.38.21A.36.36,0,0,1,.34,62a.35.35,0,0,1,.24-.22C.67,61.72.77,61.85.94,62Z"/></g></g></svg>