<svg xmlns="http://www.w3.org/2000/svg" viewBox="0 0 52.31 90.44"><defs><style>.cls-1{isolation:isolate;}.cls-2{mix-blend-mode:luminosity;}.cls-3{fill:#fff;}</style></defs><g class="cls-1"><g id="Layer_2" data-name="Layer 2"><g id="Layer_2_copy" data-name="Layer 2 copy"><g class="cls-2"><path class="cls-3" d="M.15,45.17C.81,34.07-2.25,21.7,4.33,11.9,12.61-1.62,32.72-4.13,44,7A25.66,25.66,0,0,1,52.3,25.79c0,12.93,0,25.87,0,38.8A26,26,0,0,1,30.84,90C16.9,92.78,2.64,82.71.52,68.67-.3,60.89.35,53,.15,45.17Zm1.66,0c.54,12.82-3,28.16,8.25,37.4,14.92,14,41,2.34,40.57-18.1,0-12.88,0-25.76,0-38.64A24.13,24.13,0,0,0,43.05,8.36c-11.4-11.5-32.57-7.51-39,7.41C0,24.94,2.44,35.44,1.81,45.19Z"/><path class="cls-3" d="M32.54,6.85c1.69,1.89,1.75,4.45,1.48,6.81a.62.62,0,0,0,.12.41c2,2.48,2.27,2.51,2,5.77a1.13,1.13,0,0,0,.2.59,6.93,6.93,0,0,1,1.35,2.18,3.23,3.23,0,0,1-.26,2.78c-2.39,4.6-3.15,9.86-4.83,14.74A2.25,2.25,0,0,1,30.07,42q-3.9,0-7.8,0a2.19,2.19,0,0,1-2.4-1.84Q18,33.85,16.1,27.58a4.93,4.93,0,0,0-.74-1.53,4.34,4.34,0,0,1,.74-5.84c.91-.62-1.1-2.43.65-4.65a6.84,6.84,0,0,1,1.17-1.11c.62-.39-.11-1.42.48-2.57,1-2.24,3.66-1.76,5.66-1.83,2.39-.2,5.18.66,7.23-.93C32,8.53,32.14,7.68,32.54,6.85ZM29.62,26.73v.05c1.22,0,2.45,0,3.66-.14a3,3,0,0,0,.51-5.84c-4.71-.51-9.52-.1-14.26-.23-2.64-.12-4.33,3-2.43,5a3.61,3.61,0,0,0,2.64,1.13C23,26.71,26.32,26.74,29.62,26.73Zm-3.41-7.61H34a.49.49,0,0,0,.37-.16,2.37,2.37,0,0,0-1.93-3.39c-4.06-.26-8.17-.2-12.24-.13A2.31,2.31,0,0,0,18,18.8a.46.46,0,0,0,.48.33C21.08,19.11,23.65,19.12,26.21,19.12Zm-2.5,9.16,1.53,12.16h2l1.5-12.16ZM18,28.08c1.14,3.91,2.32,7.79,3.5,11.69.1.31.21.64.59.67s.93,0,1.44,0L22,28.26Zm16.31.23H30.46L29,40.57c.52,0,1-.11,1.46-.14a.49.49,0,0,0,.5-.4C32,36.11,33.2,32.23,34.33,28.31ZM32.51,10.55c-.85.3-1.58.62-2.34.82a18.41,18.41,0,0,1-5.19.25c-1.64.16-5.46-.93-4.93,1.86.05.27.18.32.42.32H31.28C33,14,32.4,11.63,32.51,10.55Z"/><path class="cls-3" d="M8.79,45.57a188.15,188.15,0,0,1,35,0A172.34,172.34,0,0,1,8.79,45.57Z"/><path class="cls-3" d="M10,49.85c-3.17,0-5,3-3.6,5.37.4.71-.6,1.13-1,.58-1.53-3,1.33-6.62,4.52-6.58a57,57,0,0,0,6-.16l-.55,2.32h-.49c.05-.53.42-1.47-.39-1.51-.63,0-1.27,0-1.91,0-.38,0-.86-.11-1.12.07s-.25.68-.34,1c-.26,1-.5,1.91-.75,2.86.82,0,1.62,0,2.41,0,.39,0,.41-.42.53-.71h.49l-.49,2.35h-.49c0-.44.2-1-.45-1s-1.41,0-2.09,0l-1.4,5h1.95l-.14.57L6,60.08c.07-.52.06-.55.58-.65a1.41,1.41,0,0,0,1.18-1.14C8.52,55.47,9.31,52.7,10,49.85Z"/><path class="cls-3" d="M40.48,54.32l-.32-.5c.72-.47,1.42-1,2.14-1.4.35-.21.58-.12.82.21,1.42,1.9,1.71,4.18,1.94,6.49.91-2.13,1.87-3.69,1.09-6.07a.63.63,0,0,1,1.23-.24,3.78,3.78,0,0,1,0,1.21c-.34,3-1.93,5.7-3.63,8.18a5.44,5.44,0,0,1-4.48,2.62c-.7.06-1.33-.82-.54-1.21a4.14,4.14,0,0,1,1.57,0,2.13,2.13,0,0,0,1.93-.6c2.45-1.91,1.61-5.34.75-7.88C42.33,53.58,41.92,53.06,40.48,54.32Z"/><path class="cls-3" d="M27.64,55.05A5.7,5.7,0,0,1,24.36,60c-1.41.62-3.3,0-3.35-1.78C20.43,53.26,27.27,49.45,27.64,55.05ZM26,55.51c-.18-4.93-3.74-1.7-3.5,1.5-.12,1.11.51,3.19,2,2.33A4.54,4.54,0,0,0,26,55.51Z"/><path class="cls-3" d="M39.28,57.52l.33.44c-6.54,5.32-4.3.08-3.26-4.43H34.89l.16-.65h1.48c.69-2.21-.11-1.73,2-2.62l-.66,2.59h1.87l-.13.66H37.73c-.42,1.54-.8,3-1.16,4.59-.06.28-.17.62.13.83C37.13,59.36,38.74,57.81,39.28,57.52Z"/><path class="cls-3" d="M30.21,60.26c-.95-.13-2.16-.43-2.08-1.63,0-.89,1.44-.93,1.32.07-.16,1.33,1.8,1.17,2.32.33a1.14,1.14,0,0,0,0-1.39c-.47-.65-1.05-1.23-1.46-1.91-1.28-2.35,1.34-4,3.29-3.19.57.1,1,1.06.32,1.37a.57.57,0,0,1-.75-.11c-.39-.41-.77-1.08-1.44-.8-.83.29-.68,1.28-.27,1.87.63.9,1.71,1.62,1.76,2.83C33.33,59.26,31.72,60.23,30.21,60.26Z"/><path class="cls-3" d="M17.06,60H15.7c.55-2,1-4.07,1.49-6.13a1.27,1.27,0,0,0-.05-.43c-.66.06-1,.69-1.57,1.06l-.29-.33c.3-.27.59-.56.9-.81s2.88-1.89,2.52-.42a14.23,14.23,0,0,0-.31,1.63c.62-.82,1.33-1.58,2-2.34.37-.37,1.26-.71,1.46,0a.58.58,0,0,1-.31.72C18.12,53.93,17.75,57,17.06,60Z"/><path class="cls-3" d="M29.49,80.31l.4-2.72h.89l-.62,4.21c-.33,0-.76.14-.94-.22A22.53,22.53,0,0,0,27.91,79l-.42,2.75H26.6l.62-4.22c.41,0,.93-.18,1.09.34C28.7,78.74,29,79.51,29.49,80.31Z"/><path class="cls-3" d="M25.39,73.49c-1.21-2.92,4-1.93,1.21.36l.37.53.44-.59.56.67-.52.56.74,1c-.52-.06-1.06.23-1.35-.45-.71.5-2.05.85-2.44-.15C24,74.54,24.68,73.88,25.39,73.49Zm.37.6a7.28,7.28,0,0,0-.56.76c.16.53.8.28,1.12,0Zm.39-1c.39-.21.53-.4.4-.55C26.16,72.28,25.73,72.61,26.15,73.13Z"/><path class="cls-3" d="M16.17,66c4.26-.65,3.73,4.2.83,4.22H15.55Zm.41,3.36c.6,0,1.18,0,1.5-.58.59-.94.07-2.13-1.14-1.92Z"/><path class="cls-3" d="M18.48,77.58c4.26-.65,3.74,4.19.84,4.22H17.86Zm.78.86-.37,2.5c.56,0,1.12,0,1.46-.51C21,79.5,20.51,78.23,19.26,78.44Z"/><path class="cls-3" d="M31.41,66c1,0,2.44-.07,2.47,1.21a1.38,1.38,0,0,1-1,1.49l.8,1.56c-.36,0-.76.14-1-.18s-.38-1-.8-1.33l-.24,1.49h-.89Zm.78.79L32,68C33.07,68.17,33.33,66.58,32.19,66.75Z"/><path class="cls-3" d="M23.9,80.23l.81,1.57a6.82,6.82,0,0,1-.79,0c-.38-.19-.63-1.13-.92-1.52l-.09,0-.24,1.49h-.89l.63-4.25a12.5,12.5,0,0,1,1.63.15C25.3,77.94,25.06,80,23.9,80.23Zm-.71-1.9L23,79.54C24.07,79.76,24.34,78.15,23.19,78.33Z"/><path class="cls-3" d="M32.05,79.19c.49-.49.93-.91,1.34-1.35s.88-.22,1.36-.27l-2.08,2.07,1.41,2.16c-.41,0-.84.16-1.1-.2s-.67-1-1-1.6l-.28,1.79h-.9l.63-4.21h.89Z"/><path class="cls-3" d="M30.36,68.36H29l-.18,1.13h1.39l-.12.72H27.85l.64-4.2h2.3l-.09.69H29.28l-.14.94h1.33Z"/><path class="cls-3" d="M20.56,68.36l-.17,1.13h1.38l-.11.71H19.38L20,66h2.31l-.1.7H20.82l-.15.93H22l-.1.73Z"/><path class="cls-3" d="M22.05,69.72l.5-.63c1.08,1.06,1.82,0,1.06-.54-.65-.29-1.36-.73-1.2-1.47a1.53,1.53,0,0,1,2.65-.65l-.46.62c-1-.9-1.72,0-1,.56.69.32,1.46.87,1.18,1.68C24.45,70.52,22.84,70.54,22.05,69.72Z"/><path class="cls-3" d="M24.83,69.72l.5-.63c1.08,1.06,1.84-.06,1-.56-.6-.26-1.28-.64-1.2-1.35.07-1.32,1.82-1.66,2.67-.75l-.46.62c-.34-.29-.93-.62-1.2-.15s.42.83.81,1a1.27,1.27,0,0,1-.67,2.34A2,2,0,0,1,24.83,69.72Z"/><path class="cls-3" d="M34.44,66.71l.1-.7h2.61l-.1.69h-.87l-.51,3.5h-.88l.5-3.49Z"/><path class="cls-3" d="M26,81.79h-.89c.2-1.43.4-2.78.62-4.2h.89Z"/></g></g></g></g></svg>