<svg xmlns="http://www.w3.org/2000/svg" viewBox="0 0 60.68 75.46"><defs><style>.cls-1{fill:#fff;}.cls-2{fill:#868686;}.cls-3{fill:#a2a2a2;}</style></defs><g id="Layer_2" data-name="Layer 2"><g id="Layer_2_copy" data-name="Layer 2 copy"><path class="cls-1" d="M16.66,58.14a16.56,16.56,0,0,1-7.29-1.31A16.93,16.93,0,0,0,6.7,56c-1,1.68-2.31,2.83-4.05,2.94,0,0-2.36.16-2.43-1.56s1.85-2.64,4.86-2.72c.08-.23.21-.51.31-.78C.81,53.86-.2,51.28,0,49.24A3.81,3.81,0,0,1,2.63,46a.13.13,0,0,1,.17.16c-.42,1-1.9,5.19,1.46,6.23a6.62,6.62,0,0,0,1.58.29,50.78,50.78,0,0,1,4.28-8.84S12,41,14.22,40.79s2.8,2.77,2.1,5a11.26,11.26,0,0,1-8.4,7.8,9.89,9.89,0,0,1-.56,1.18,25.64,25.64,0,0,1,2.89.66c3.3.83,7.05,1.27,8.65-1.07a.12.12,0,0,1,.2,0C19.56,55,21.18,57.82,16.66,58.14Zm-12-2.48a4.77,4.77,0,0,0-2.14.3s-1.32.51-1.22,1.48c.08.76,1.5.37,2.53-.65A5.56,5.56,0,0,0,4.62,55.66Zm5.1-6.77c-.45,1.22-.89,2.45-1.34,3.61a9.07,9.07,0,0,0,6.43-7.64s.47-3.11-1.11-3C13.7,41.91,12.23,42,9.72,48.89Z"/><path class="cls-1" d="M21.11,38a25.18,25.18,0,0,1-1.51,5.33l-1.19.27a31.4,31.4,0,0,0,.75-5.21Z"/><path class="cls-1" d="M27.26,47.8a13.56,13.56,0,0,1-1.41,2.7,5.39,5.39,0,0,1-2.05,1.94,3.65,3.65,0,0,1-1.89.34c-2.77-.41-1.09-4.52-1.09-4.52,1.2-3,3.47-4.33,4.44-4,.81.22.79,1.38.79,1.38s.17,2.54-3.37,3.14A6.15,6.15,0,0,0,22.24,50c-.15.67-.11,1.28.35,1.45a1.64,1.64,0,0,0,1.4-.19A5.26,5.26,0,0,0,25.34,50a19.75,19.75,0,0,0,1.36-2.15.21.21,0,0,1,.16-.13l.34,0C27.25,47.7,27.3,47.76,27.26,47.8Zm-4.08-.13a2.26,2.26,0,0,0,1.14-.38c1.39-1,1-1.59,1-1.59C25.15,45.31,24.35,45.61,23.18,47.67Zm3.15-5.17c.18.27-.69,1.43-2.1,1.27,0,0-.45-.07-.28-.31s.4,0,.72-.26a10,10,0,0,1,.8-.74S26.08,42.07,26.33,42.5Z"/><path class="cls-1" d="M33.27,45.92a1.92,1.92,0,0,1-2.46,1.15.07.07,0,0,1,0-.13,2.8,2.8,0,0,0,.4-.32.89.89,0,0,0,.17-.9.2.2,0,0,0-.23-.1c-.58.1-1.52,1.75-2.21,3.19-.46,1-.82,2-1,2.64a.77.77,0,0,1-.75.54.81.81,0,0,1-.45-.11c-.51-.32-1-1-.57-2.63a8.51,8.51,0,0,1,.71-1.8,19.46,19.46,0,0,0,1.52-3.54c0-.07.06-.09.12-.1a1.2,1.2,0,0,1,.89.61,2,2,0,0,1-.06,1.93s-.54,1-.91,1.84a11.82,11.82,0,0,0-.6,1.63,31.72,31.72,0,0,1,1.64-3.22s2-3.66,3.59-2.53C33.6,44.47,33.53,45.24,33.27,45.92Z"/><path class="cls-1" d="M41.55,46.35c-1.09,2.84-2.79,4.59-3.87,4.7s-1.1-1.55-1.1-1.86c-.5.93-1.31,2-2.44,1.84C32,50.75,33.51,47,33.51,47c1.2-3,3.51-4.35,4.44-4a1.1,1.1,0,0,1,.77,1l.41-.52a.56.56,0,0,1,.35-.21L41.1,43c.09,0,.14.09.08.14a15.88,15.88,0,0,0-2.65,4.62c-.56,1.78,0,1.73,0,1.73.78-.06,2.14-2.54,2.44-3.09a.21.21,0,0,1,.18-.13l.33,0S41.57,46.3,41.55,46.35Zm-3.68-.78a6.41,6.41,0,0,0,.25-.77c.13-.85-.83-1-2.28,1.69-1.69,3.1-1,3.23-1,3.23.52,0,1-.63,1.44-1.26a5.93,5.93,0,0,1,.34-.56C37.16,47,37.63,46.07,37.87,45.57Z"/><path class="cls-1" d="M47.21,47c-1.1,2.45-2.62,3.19-3.59,3.09a1.42,1.42,0,0,1-1.09-.63,2,2,0,0,1,.24-2.1,2.56,2.56,0,0,1,.55-.6,1,1,0,0,1,1.71.44c0,.06,0,.11-.08.12a2.09,2.09,0,0,0-1.36.55c-.52.49-.63.94-.47,1.16a.3.3,0,0,0,.26.06c1.59-.33,4.13-5.77,2.8-5.77S43,46.2,42.87,46.41A6.05,6.05,0,0,0,42,50.56a.09.09,0,0,1-.09.12c-.49,0-2.15-.26-1.48-2.88.7-2.85,4.84-7,4.67-9.7a.17.17,0,0,1,.18-.19c.57.05,2.12.24,1.76,1.44a18.21,18.21,0,0,1-2.19,3.8,2.64,2.64,0,0,1,1.9-.87S49.34,42.21,47.21,47Z"/><path class="cls-1" d="M50.15,48.62c.78-.1,2.59-2.89,2.88-3.44a.25.25,0,0,1,.16-.13l.35,0s.07.06.05.1c-1.06,2.84-3.07,4.77-4.31,5.05A1.71,1.71,0,0,1,48,50.06a1.36,1.36,0,0,1-.57-1.12,5.94,5.94,0,0,1,.73-2.72c.7-1.49,1.81-3.48,1.81-3.48A17,17,0,0,0,52.1,37.3a.21.21,0,0,1,.26-.2c2.68,1,1.07,3.82.53,4.71,0,0-1,1.54-1.75,2.78a15.55,15.55,0,0,0-1.72,3.1C49,48.91,50.15,48.62,50.15,48.62Z"/><path class="cls-1" d="M59.45,44.53a13.32,13.32,0,0,1-1.4,2.7A5.38,5.38,0,0,1,56,49.16a3.57,3.57,0,0,1-1.88.35C51.33,49.09,53,45,53,45c1.2-3,3.47-4.32,4.44-4,.81.22.8,1.38.8,1.38s.17,2.54-3.37,3.14a6.37,6.37,0,0,0-.44,1.27c-.15.67-.11,1.28.34,1.45a1.56,1.56,0,0,0,1.4-.19,5,5,0,0,0,1.36-1.27,17.89,17.89,0,0,0,1.35-2.15.21.21,0,0,1,.16-.12l.35,0A.07.07,0,0,1,59.45,44.53Zm-4.07-.13A2.56,2.56,0,0,0,56.52,44c1.39-1,1-1.59,1-1.59C57.34,42,56.54,42.33,55.38,44.4Z"/><path class="cls-1" d="M44.58,53.35A26.87,26.87,0,0,1,43,59.09l-1.29.29a33.61,33.61,0,0,0,.82-5.61Z"/><path class="cls-1" d="M52.76,63.45a1.47,1.47,0,0,1-.54.2c.49,1.17-.35,3.26-.35,3.26A4,4,0,0,1,50.13,69a3.47,3.47,0,0,1-1.86.37c-3.16-.47-1.75-4.64-1.75-4.64,1-3.14,3-4.52,4.39-4.23,1.06.22.93,1.46.93,1.46a3.44,3.44,0,0,1-.13.78,1,1,0,0,0,.59-.6.12.12,0,0,1,.12,0,1.15,1.15,0,0,1,.53.56A.6.6,0,0,1,52.76,63.45Zm-2.22.16c-.37,0-.68,0-.78.15s-.07,0-.07,0a.67.67,0,0,1-.06-.53c.08-.22.31-.41.83-.39a3.5,3.5,0,0,1,.41,0c.09,0,.16,0,.23,0,.45-1.15-.65-1.77-2.16,1.4a9.84,9.84,0,0,0-.8,2.33c-.11.72-.21,1.81.42,2,0,0,1.49.39,2.35-2.24C51.41,64.77,51,64,50.54,63.61Z"/><path class="cls-1" d="M60.47,62.2a2.06,2.06,0,0,1-2.65,1.23.08.08,0,0,1,0-.14,2.33,2.33,0,0,0,.44-.35.94.94,0,0,0,.18-1,.21.21,0,0,0-.24-.11c-.63.11-1.65,1.88-2.38,3.44a28.2,28.2,0,0,0-1.1,2.84.82.82,0,0,1-.81.57.73.73,0,0,1-.48-.11c-.56-.34-1-1.12-.62-2.83a8.52,8.52,0,0,1,.77-1.94A21.36,21.36,0,0,0,55.19,60a.14.14,0,0,1,.13-.11,1.3,1.3,0,0,1,1,.66,2.12,2.12,0,0,1-.07,2.08s-.58,1-1,2a12.44,12.44,0,0,0-.65,1.76,31.85,31.85,0,0,1,1.77-3.48S58.54,59,60.22,60.2C60.83,60.63,60.75,61.47,60.47,62.2Z"/><path class="cls-1" d="M32.56,35c-.29,0-.47-.3-.58-.57-1-2.32-1-5.25-1.35-7.74a.8.8,0,0,0,0-.15.78.78,0,0,1,.22,0,1.1,1.1,0,0,1,.26,0,1.92,1.92,0,0,1,.24,0s0,.08,0,.12c.35,1.63.7,3.26,1,4.89C32.49,32,33.62,35.07,32.56,35Z"/><path class="cls-1" d="M42.3,16.25a6.94,6.94,0,0,1-2.76-.08l-1.86-.27a4.13,4.13,0,0,0-1-.18c-.39,0-.58.39-.81.67-.64.75-1.27,1.52-1.88,2.3Q32.18,21,30.55,23.44c.94,0,1.89,0,2.83.12a8.32,8.32,0,0,1,1.41.14,6.8,6.8,0,0,0,1.1.27c-.85-.07-1.7-.07-2.55-.14-.48,0-1-.07-1.43-.09-.23,0-1.19.11-1.35,0a.12.12,0,0,1,0,.16l.5,2.64a1.1,1.1,0,0,0-.26,0,21.14,21.14,0,0,0-.54-2.83,8.84,8.84,0,0,0-2.73,1.14,7.05,7.05,0,0,1-1,.56,11.38,11.38,0,0,0-1.37.64,8.52,8.52,0,0,1,2-1.31,24.64,24.64,0,0,1,2.55-1.2l-6.23-3.7-.33-.19-.23-.14c-.11-.07-.62.09-.76.12l-.9.15-1.72.31a29,29,0,0,1-3.22.47c.22,0,.47-.23.68-.29a2.24,2.24,0,0,1,.51-.07c.55-.07,1.1-.22,1.64-.32,1.13-.22,2.26-.41,3.39-.6-2.2-1.3-4.52-2.51-6.61-4a3.47,3.47,0,0,1-.74-.69,4.53,4.53,0,0,0,.66.41c.28.17.59.32.87.49l2.06,1.22,4.11,2.44c-.14-.08-.28-.5-.37-.65l-.45-.77c-.3-.49-.6-1-.92-1.45a10.36,10.36,0,0,1-1.52-2.58,4.67,4.67,0,0,1,.81,1c.35.47.67,1,1,1.46s.63,1,.94,1.49a14.26,14.26,0,0,0,.84,1.46l.14.26h0l6.76,4h.09L29.38,19c-1.48-1-3-1.94-4.4-3a6.89,6.89,0,0,0,1,.44,10.69,10.69,0,0,1,1.09.71l2.24,1.48-1.12-6a.15.15,0,0,1-.19-.07c-.06-.13-.5-.28-.62-.35s-.44-.27-.65-.42a12.49,12.49,0,0,1-1.23-.94,8.86,8.86,0,0,1-2-2.34,19.8,19.8,0,0,0,4.65,3.8c-.44-2.33-.87-4.65-1.31-7-.1-.58-.22-1.17-.33-1.76a20.75,20.75,0,0,1-.2-2.23c0,.26.22.52.27.79s0,.34.05.52.1.57.15.85l.4,2.12c.28,1.48.55,3,.83,4.46.13.67.25,1.35.38,2a10.12,10.12,0,0,1,1-1.06,10,10,0,0,0,.88-1.25,12.44,12.44,0,0,0,1.3-2.79c-.07.24,0,.52-.1.77s-.13.41-.19.62a8,8,0,0,1-.72,1.47,10.31,10.31,0,0,1-2.14,2.56l1.13,6a25.18,25.18,0,0,0,2.67-3.68c-.15.31-.18.65-.3,1a3.94,3.94,0,0,1-.68.95c-.54.71-1.08,1.43-1.63,2.14l0,.1a0,0,0,0,1,0,0l.79,4.24a78.87,78.87,0,0,1,5.87-7.63c.13-.15,0-1,0-1.19,0-.42.06-.84.1-1.26.07-.84.18-1.64.33-2.47a6.75,6.75,0,0,0,0,1.1,7,7,0,0,1-.07,1.12c0,.39-.07.79-.1,1.19,0,.21.07,1-.06,1.18,1.66-1.88,3.5-3.6,5.15-5.49-.31.37-.54.89-.81,1.28a12.77,12.77,0,0,1-1.4,1.45c-1,1-1.94,2-2.87,3.1l3,.44c.5.07,1,.13,1.51.21A3.69,3.69,0,0,0,42.3,16.25Z"/><path class="cls-1" d="M45.56,14.26A26.47,26.47,0,0,0,41,19.34c-.62.74-1.24,1.48-1.87,2.21a6.11,6.11,0,0,1-1.66,1.18c1,.51,1.3,1.35,1.79,2.31a3.39,3.39,0,0,1,.15.32l-3.44.16c-1.29.06-2.59.11-3.88.18-.53,0-.79.32-.73.81a1.92,1.92,0,0,0-.24,0l-.5-2.64a.12.12,0,0,0,0-.16c.16.14,1.12,0,1.35,0,.48,0,.95.05,1.43.09.85.07,1.7.07,2.55.14a6.8,6.8,0,0,1-1.1-.27,8.32,8.32,0,0,0-1.41-.14c-.94-.08-1.89-.12-2.83-.12Q32.19,21,34,18.69c.61-.78,1.24-1.55,1.88-2.3.23-.28.42-.64.81-.67a4.13,4.13,0,0,1,1,.18l1.86.27a6.94,6.94,0,0,0,2.76.08,3.69,3.69,0,0,1-1.08-.12c-.5-.08-1-.14-1.51-.21l-3-.44c.93-1.06,1.89-2.09,2.87-3.1a12.77,12.77,0,0,0,1.4-1.45c.27-.39.5-.91.81-1.28-1.65,1.89-3.49,3.61-5.15,5.49.13-.15,0-1,.06-1.18,0-.4.06-.8.1-1.19a7,7,0,0,0,.07-1.12,6.75,6.75,0,0,1,0-1.1c-.15.83-.26,1.63-.33,2.47,0,.42-.07.84-.1,1.26,0,.22.08,1,0,1.19a78.87,78.87,0,0,0-5.87,7.63l-.79-4.24a0,0,0,0,0,0,0l0-.1c.55-.71,1.09-1.43,1.63-2.14a3.94,3.94,0,0,0,.68-.95c.12-.31.15-.65.3-1a25.18,25.18,0,0,1-2.67,3.68l-1.13-6a10.31,10.31,0,0,0,2.14-2.56,8,8,0,0,0,.72-1.47c.06-.21.12-.41.19-.62s0-.53.1-.77a12.44,12.44,0,0,1-1.3,2.79A10,10,0,0,1,29.4,11a10.12,10.12,0,0,0-1,1.06c-.13-.68-.25-1.36-.38-2-.28-1.49-.55-3-.83-4.46l-.4-2.12c-.05-.28-.11-.57-.15-.85s0-.35-.05-.52-.25-.53-.27-.79a20.75,20.75,0,0,0,.2,2.23c.11.59.23,1.18.33,1.76.44,2.33.87,4.65,1.31,7a19.8,19.8,0,0,1-4.65-3.8,8.86,8.86,0,0,0,2,2.34,12.49,12.49,0,0,0,1.23.94c.21.15.43.29.65.42s.56.22.62.35a.15.15,0,0,0,.19.07l1.12,6L27.07,17.1A10.69,10.69,0,0,0,26,16.39,6.89,6.89,0,0,1,25,16c1.43,1.07,2.92,2,4.4,3l.84,4.47h-.09l-6.76-4h0l-.14-.26a14.26,14.26,0,0,1-.84-1.46c-.31-.51-.62-1-.94-1.49s-.64-1-1-1.46a4.67,4.67,0,0,0-.81-1,10.36,10.36,0,0,0,1.52,2.58c.32.48.62,1,.92,1.45l.45.77c.09.15.23.57.37.65l-4.11-2.44L16.73,15.5c-.28-.17-.59-.32-.87-.49a4.53,4.53,0,0,1-.66-.41,3.47,3.47,0,0,0,.74.69c2.09,1.47,4.41,2.68,6.61,4-1.13.19-2.26.38-3.39.6-.54.1-1.09.25-1.64.32a2.24,2.24,0,0,0-.51.07c-.21.06-.46.28-.68.29a29,29,0,0,0,3.22-.47l1.72-.31.9-.15c.14,0,.65-.19.76-.12l.23.14.33.19,6.23,3.7a24.64,24.64,0,0,0-2.55,1.2,8.52,8.52,0,0,0-2,1.31,11.38,11.38,0,0,1,1.37-.64,7.05,7.05,0,0,0,1-.56,8.84,8.84,0,0,1,2.73-1.14,21.14,21.14,0,0,1,.54,2.83.78.78,0,0,0-.22,0,.68.68,0,0,0-.86-.44l-3.81,1.26-3.28,1.1c0-.4.21-3.44.92-3.44A16.11,16.11,0,0,1,13,20.61a9.79,9.79,0,0,0,2.14-.94,1.6,1.6,0,0,1,1.81,0c-1.73-1.4-2.56-3.27-3.51-5.22l-.18-.39,1.44,0a25.87,25.87,0,0,1,4.2.49c-.43-.93-.85-1.86-1.27-2.78a16,16,0,0,0,1.9.47A9.95,9.95,0,0,1,24.33,16,21.91,21.91,0,0,0,23,13.23a13.23,13.23,0,0,1-1.78-3.59,9.5,9.5,0,0,1-.42-3.92c.77.62,1.66.38,2.53.67a3.11,3.11,0,0,1,1.41,1,3.69,3.69,0,0,1,.18-2.47c.38-1.21.77-2.42,1.15-3.64,0-.11.07-.22.13-.38l.23.28c.8,1,1.62,2,2.4,3,.61.78,1.5,1.42,1.52,2.5,0-.44.72-1.1,1-1.38A13.17,13.17,0,0,0,33,3.64,15.67,15.67,0,0,1,33.39,14c.16-.52.44-1,.59-1.51a8.44,8.44,0,0,1,.89-1.9,20.67,20.67,0,0,1,2.51-3.09,5.33,5.33,0,0,1,.8,3.46c.09-.8,1-1.07,1.61-1.22a23.93,23.93,0,0,0,3-1.18l.17,0c0,.15,0,.28,0,.41a18.86,18.86,0,0,1-1,5.59,1.73,1.73,0,0,1,1.38-.41,2.34,2.34,0,0,1,.39,0A4.44,4.44,0,0,0,45.56,14.26Z"/><path class="cls-2" d="M42.3,16.25a6.94,6.94,0,0,1-2.76-.08l-1.86-.27a4.13,4.13,0,0,0-1-.18c-.39,0-.58.39-.81.67-.64.75-1.27,1.52-1.88,2.3Q32.18,21,30.55,23.44c.94,0,1.89,0,2.83.12a8.32,8.32,0,0,1,1.41.14,6.8,6.8,0,0,0,1.1.27c-.85-.07-1.7-.07-2.55-.14-.48,0-1-.07-1.43-.09-.23,0-1.19.11-1.35,0a.12.12,0,0,1,0,.16l.5,2.64.16.9a.14.14,0,0,1-.27.05q-.09-.47-.15-.93a21.14,21.14,0,0,0-.54-2.83,8.84,8.84,0,0,0-2.73,1.14,7.05,7.05,0,0,1-1,.56,11.38,11.38,0,0,0-1.37.64,8.52,8.52,0,0,1,2-1.31,24.64,24.64,0,0,1,2.55-1.2l-6.23-3.7-.33-.19-.23-.14c-.11-.07-.62.09-.76.12l-.9.15-1.72.31a29,29,0,0,1-3.22.47c.22,0,.47-.23.68-.29a2.24,2.24,0,0,1,.51-.07c.55-.07,1.1-.22,1.64-.32,1.13-.22,2.26-.41,3.39-.6-2.2-1.3-4.52-2.51-6.61-4a3.47,3.47,0,0,1-.74-.69,4.53,4.53,0,0,0,.66.41c.28.17.59.32.87.49l2.06,1.22,4.11,2.44c-.14-.08-.28-.5-.37-.65l-.45-.77c-.3-.49-.6-1-.92-1.45a10.36,10.36,0,0,1-1.52-2.58,4.67,4.67,0,0,1,.81,1c.35.47.67,1,1,1.46s.63,1,.94,1.49a14.26,14.26,0,0,0,.84,1.46l.14.26h0l6.76,4h.09L29.38,19c-1.48-1-3-1.94-4.4-3a6.89,6.89,0,0,0,1,.44,10.69,10.69,0,0,1,1.09.71l2.24,1.48-1.12-6a.15.15,0,0,1-.19-.07c-.06-.13-.5-.28-.62-.35s-.44-.27-.65-.42a12.49,12.49,0,0,1-1.23-.94,8.86,8.86,0,0,1-2-2.34,19.8,19.8,0,0,0,4.65,3.8c-.44-2.33-.87-4.65-1.31-7-.1-.58-.22-1.17-.33-1.76a20.75,20.75,0,0,1-.2-2.23c0,.26.22.52.27.79s0,.34.05.52.1.57.15.85l.4,2.12c.28,1.48.55,3,.83,4.46.13.67.25,1.35.38,2a10.12,10.12,0,0,1,1-1.06,10,10,0,0,0,.88-1.25,12.44,12.44,0,0,0,1.3-2.79c-.07.24,0,.52-.1.77s-.13.41-.19.62a8,8,0,0,1-.72,1.47,10.31,10.31,0,0,1-2.14,2.56l1.13,6a25.18,25.18,0,0,0,2.67-3.68c-.15.31-.18.65-.3,1a3.94,3.94,0,0,1-.68.95c-.54.71-1.08,1.43-1.63,2.14l0,.1a0,0,0,0,1,0,0l.79,4.24a78.87,78.87,0,0,1,5.87-7.63c.13-.15,0-1,0-1.19,0-.42.06-.84.1-1.26.07-.84.18-1.64.33-2.47a6.75,6.75,0,0,0,0,1.1,7,7,0,0,1-.07,1.12c0,.39-.07.79-.1,1.19,0,.21.07,1-.06,1.18,1.66-1.88,3.5-3.6,5.15-5.49-.31.37-.54.89-.81,1.28a12.77,12.77,0,0,1-1.4,1.45c-1,1-1.94,2-2.87,3.1l3,.44c.5.07,1,.13,1.51.21A3.69,3.69,0,0,0,42.3,16.25Z"/><path class="cls-3" d="M22,12.86c-.32-.49-.69-.93-1-1.44a8.31,8.31,0,0,1-.71-1.72,9.6,9.6,0,0,1-.19-3.58,0,0,0,0,0-.07,0,7,7,0,0,0,.08,3.64A6.56,6.56,0,0,0,21.84,13C21.91,13,22,12.94,22,12.86Z"/><path class="cls-3" d="M41.8,26.51a21,21,0,0,0-1.72-2.64c-.06-.07-.15,0-.12.09a16.27,16.27,0,0,0,1.49,2.46,27.39,27.39,0,0,0-8.43.13s0,.06,0,.06a44.74,44.74,0,0,1,8.66.09A.12.12,0,0,0,41.8,26.51Z"/><path class="cls-3" d="M46.22,14.48a32.77,32.77,0,0,0-2.59,2.8c-.81.9-1.65,1.78-2.39,2.75,0,0,0,.09.07,0,.91-.88,1.73-1.86,2.58-2.8s1.73-1.75,2.44-2.72C46.37,14.5,46.28,14.43,46.22,14.48Z"/><path class="cls-3" d="M43.52,8.28a0,0,0,0,0-.09,0,17.21,17.21,0,0,1,0,2.59,12,12,0,0,1-.68,2.36c0,.06.07.1.1,0A6.91,6.91,0,0,0,43.52,8.28Z"/><path class="cls-3" d="M21.44,25.18c-.6-.1-1.21-.1-1.81-.19a13.69,13.69,0,0,1-1.78-.36,16.39,16.39,0,0,1-3.53-1.35,0,0,0,0,0,0,.07,14.83,14.83,0,0,0,3.44,1.44,10.82,10.82,0,0,0,3.7.5C21.48,25.28,21.5,25.19,21.44,25.18Z"/><path class="cls-3" d="M27.07,27.63a9.45,9.45,0,0,0-4.25,1.79c-.06,0,0,.14.05.1a15.35,15.35,0,0,1,4.21-1.79C27.13,27.71,27.13,27.62,27.07,27.63Z"/><path class="cls-3" d="M32.56,35.58c-.85-.18-1.09-1.46-1.33-2.18A20.14,20.14,0,0,1,30.65,31a0,0,0,0,0-.07,0,8.37,8.37,0,0,0,.7,3.23c.2.57.47,1.66,1.28,1.5A.06.06,0,0,0,32.56,35.58Z"/><path class="cls-3" d="M30.16,4a6.37,6.37,0,0,0-.79-.93c-.28-.32-.56-.64-.83-1C28,1.43,27.46.71,26.92,0c-.05-.06-.15,0-.11.08a22.35,22.35,0,0,0,1.54,2.08,9.84,9.84,0,0,0,1.73,1.91A.06.06,0,0,0,30.16,4Z"/><path class="cls-1" d="M40.6,61.07a5.84,5.84,0,0,0-2.36-3.89L38,57,37.91,57a8.39,8.39,0,0,0-3.79-1.19,7.84,7.84,0,0,0-7.63,4.52s-1,2.37-.19,3.85a2.26,2.26,0,0,0,1.54,1.07A.15.15,0,0,0,28,65a4.69,4.69,0,0,1-.13-1.82,6.66,6.66,0,0,1,.85-2.44,7.55,7.55,0,0,1,4.52-3.45s2.25-.63,3.71.4l.13.08c1.53,1.18,2.18,3.87.71,8.16A18.54,18.54,0,0,1,36.94,68l-.18.35c-.13.25-.33.6-.59,1s-.4.59-.63.91a7.79,7.79,0,0,1-.52.65A.27.27,0,0,1,35,71a6.5,6.5,0,0,1-2.81,2.11,2.53,2.53,0,0,1-1.87-.88c.13-.25.84-2.37.9-2.59a10.24,10.24,0,0,1,.63-1.79h0c1.2-2.77,3.29-5.6,3.67-7.36.18-.81-.4-1.16-1-1.3a4.46,4.46,0,0,0-1-.1.17.17,0,0,0-.17.18,2.56,2.56,0,0,1,0,.62c-.15,2.67-2,4.43-3.84,8.83-.29.77-.86,2-1.23,2.79a8.67,8.67,0,0,0-4.56.52C20.51,73.3,22,75.4,24,75.45s4.63-.34,5.63-2h0a7.25,7.25,0,0,0,2.57.82c1.07,0,3.73-1.56,5.24-3.38a3.82,3.82,0,0,0,.77-1,13.81,13.81,0,0,0,1.91-4.06A10.65,10.65,0,0,0,40.6,61.07ZM24,74.29A.7.7,0,0,1,24.18,73a3.8,3.8,0,0,1,2.23-.48,6,6,0,0,1,1.38.36C26.83,74.31,24.65,74.77,24,74.29Z"/></g></g></svg>