<svg xmlns="http://www.w3.org/2000/svg" viewBox="0 0 81.02 80.15"><defs><style>.cls-1{fill:#fff;}</style></defs><g id="Layer_2" data-name="Layer 2"><g id="Layer_2_copy" data-name="Layer 2 copy"><path class="cls-1" d="M47.27,32.59c2.77.69,19.85,5.29,14.06,12.48A9.45,9.45,0,0,1,54,47.73,6.54,6.54,0,0,1,50.26,52s-9.78,4-10-15.53l0,.07c-.39,1-4.42,10.68,0,19.06,0,0,.58,1.55-2.41.43-2-3-2.8-9.1-.47-15.71L33.86,44.6l-.22.29c-.18.22-.32.43-.5.61C31.7,47,22.68,54,23.14,39.25,9.08,31.41,17.21,24,34.22,29.46l7.12,1.73s2.84-15.32,8.31-19.49,9.7,1.83,7.69,7.44c-.43,1.73,1.62,1.51,3.24,2.34,0,0,9,4.86.82,9.85C61.4,31.33,57.92,33.89,47.27,32.59Z"/><path class="cls-1" d="M38.37,5.42a11.65,11.65,0,0,0-16.2-3.53,11.87,11.87,0,0,0-3.51,16.33c3.51,5.49,11.7,6.75,22.46,12C40.28,16.3,41.88,10.9,38.37,5.42ZM28.87,16.3a4.72,4.72,0,1,1,4.69-4.72A4.7,4.7,0,0,1,28.87,16.3Z"/><path class="cls-1" d="M1.06,63.36h2v7H7.36V72H1.06Z"/><path class="cls-1" d="M15,65.35V72H13.14v-.79a2.7,2.7,0,0,1-2.06.89,2.64,2.64,0,0,1-2.82-3V65.35h1.91V68.8c0,1.11.5,1.6,1.34,1.6S13,69.83,13,68.62V65.35Z"/><path class="cls-1" d="M16.24,68.66a3.43,3.43,0,0,1,3.69-3.41,3,3,0,0,1,3,1.69l-1.49.79a1.65,1.65,0,0,0-1.48-.91,1.84,1.84,0,0,0,0,3.67,1.61,1.61,0,0,0,1.48-.91l1.49.81a3.07,3.07,0,0,1-3,1.67A3.42,3.42,0,0,1,16.24,68.66Z"/><path class="cls-1" d="M26.78,69.37l-.92.91V72H23.94V62.84h1.92V68l2.8-2.65H31l-2.76,2.8,3,3.81H28.87Z"/><path class="cls-1" d="M38.23,65.35l-3,7a2.71,2.71,0,0,1-2.73,2.08,3,3,0,0,1-1.85-.6l.7-1.36a1.75,1.75,0,0,0,1.08.41c.53,0,.83-.23,1.08-.82l0-.06-2.86-6.66h2l1.86,4.48,1.87-4.48Z"/><path class="cls-1" d="M44.41,65H41.66V63.36h7.49V65H46.4v7h-2Z"/><path class="cls-1" d="M54,65.25V67l-.43,0a1.62,1.62,0,0,0-1.76,1.84V72H49.93V65.35h1.84v.87A2.65,2.65,0,0,1,54,65.25Z"/><path class="cls-1" d="M61,68.19V72H59.2v-.82a2.19,2.19,0,0,1-2,.92c-1.55,0-2.47-.86-2.47-2s.83-2,2.84-2h1.52c0-.83-.49-1.3-1.52-1.3a3.17,3.17,0,0,0-1.9.61L55,66.05a5.11,5.11,0,0,1,2.85-.8C59.82,65.25,61,66.19,61,68.19Zm-1.92,1.68V69.2H57.76c-.9,0-1.18.33-1.18.77s.41.8,1.08.8A1.41,1.41,0,0,0,59.07,69.87Z"/><path class="cls-1" d="M69.16,65.35,66.37,72h-2l-2.77-6.61h2l1.83,4.5,1.9-4.5Z"/><path class="cls-1" d="M76.2,69.2h-5a1.75,1.75,0,0,0,1.89,1.32,2.25,2.25,0,0,0,1.66-.64l1,1.11A3.48,3.48,0,0,1,73,72.06c-2.28,0-3.77-1.44-3.77-3.4a3.37,3.37,0,0,1,3.52-3.41,3.27,3.27,0,0,1,3.44,3.43C76.23,68.83,76.21,69,76.2,69.2Zm-5-1.12h3.26a1.65,1.65,0,0,0-3.26,0Z"/><path class="cls-1" d="M77.51,62.84h1.92V72H77.51Z"/><path class="cls-1" d="M2.51,78.55H1l-.29.68H0l1.42-3.18h.73l1.42,3.18H2.8ZM2.28,78l-.5-1.22L1.27,78Z"/><path class="cls-1" d="M6.35,76.79v2A1.2,1.2,0,0,1,5,80.15a1.94,1.94,0,0,1-1.2-.34l.28-.5a1.52,1.52,0,0,0,.86.27c.5,0,.72-.22.72-.67v-.1a1,1,0,0,1-.77.3,1.18,1.18,0,1,1,0-2.36,1,1,0,0,1,.81.35v-.31Zm-.7,1.14a.59.59,0,0,0-.64-.6.6.6,0,1,0,0,1.2A.59.59,0,0,0,5.65,77.93Z"/><path class="cls-1" d="M9.39,78.21H7.54a.66.66,0,0,0,.7.49.81.81,0,0,0,.61-.24l.38.41a1.29,1.29,0,0,1-1,.4A1.27,1.27,0,0,1,6.83,78a1.25,1.25,0,0,1,1.3-1.26A1.21,1.21,0,0,1,9.4,78,1.28,1.28,0,0,1,9.39,78.21ZM7.53,77.8H8.74a.59.59,0,0,0-.6-.51A.58.58,0,0,0,7.53,77.8Z"/><path class="cls-1" d="M12.38,77.83v1.4h-.71V77.94c0-.39-.18-.58-.5-.58s-.58.21-.58.66v1.21H9.88V76.79h.67v.28a1.08,1.08,0,0,1,.81-.32A1,1,0,0,1,12.38,77.83Z"/><path class="cls-1" d="M12.86,78a1.27,1.27,0,0,1,1.37-1.26,1.11,1.11,0,0,1,1.09.62l-.55.3a.61.61,0,0,0-.55-.34.68.68,0,0,0,0,1.36.59.59,0,0,0,.55-.34l.55.3a1.13,1.13,0,0,1-1.09.62A1.27,1.27,0,0,1,12.86,78Z"/><path class="cls-1" d="M18.08,78.21H16.23a.66.66,0,0,0,.7.49.84.84,0,0,0,.62-.24l.37.41a1.26,1.26,0,0,1-1,.4A1.27,1.27,0,0,1,15.52,78a1.25,1.25,0,0,1,1.3-1.26A1.21,1.21,0,0,1,18.1,78,1.37,1.37,0,0,1,18.08,78.21Zm-1.86-.41h1.21a.61.61,0,0,0-1.21,0Z"/><path class="cls-1" d="M22.35,75.86v3.37h-.68V79a1,1,0,0,1-.76.32,1.26,1.26,0,0,1,0-2.52.94.94,0,0,1,.73.3V75.86ZM21.65,78a.63.63,0,1,0-.62.68A.62.62,0,0,0,21.65,78Z"/><path class="cls-1" d="M25.38,78.21H23.53a.66.66,0,0,0,.7.49.84.84,0,0,0,.62-.24l.37.41a1.42,1.42,0,0,1-2.4-.86,1.25,1.25,0,0,1,1.3-1.26A1.21,1.21,0,0,1,25.4,78,1.37,1.37,0,0,1,25.38,78.21Zm-1.86-.41h1.21a.61.61,0,0,0-1.21,0Z"/><path class="cls-1" d="M30.26,76.05l-1.37,3.18h-.73l-1.37-3.18h.79l1,2.27,1-2.27Z"/><path class="cls-1" d="M30.11,78a1.35,1.35,0,1,1,1.35,1.26A1.26,1.26,0,0,1,30.11,78Zm2,0a.62.62,0,0,0-.62-.68.68.68,0,0,0,0,1.36A.62.62,0,0,0,32.08,78Z"/><path class="cls-1" d="M35.63,76.79l-1.1,2.59a1,1,0,0,1-1,.77,1.09,1.09,0,0,1-.68-.22l.26-.51a.61.61,0,0,0,.4.16c.2,0,.31-.09.4-.31v0l-1.06-2.46h.73l.69,1.66L35,76.79Z"/><path class="cls-1" d="M38,77.84v1.39h-.67v-.3a.8.8,0,0,1-.74.34c-.58,0-.92-.32-.92-.74s.31-.73,1-.73h.57c0-.31-.19-.49-.57-.49a1.17,1.17,0,0,0-.7.23l-.26-.49a1.91,1.91,0,0,1,1.06-.3C37.57,76.75,38,77.1,38,77.84Zm-.71.62v-.25h-.49c-.33,0-.44.12-.44.29s.15.29.4.29A.54.54,0,0,0,37.3,78.46Z"/><path class="cls-1" d="M41.2,76.79v2a1.2,1.2,0,0,1-1.38,1.33,2,2,0,0,1-1.2-.34l.29-.5a1.49,1.49,0,0,0,.86.27c.5,0,.72-.22.72-.67v-.1a1,1,0,0,1-.78.3,1.18,1.18,0,1,1,0-2.36,1,1,0,0,1,.81.35v-.31Zm-.7,1.14a.65.65,0,1,0-.64.6A.59.59,0,0,0,40.5,77.93Z"/><path class="cls-1" d="M44.24,78.21H42.39a.65.65,0,0,0,.7.49.82.82,0,0,0,.61-.24l.38.41a1.29,1.29,0,0,1-1,.4A1.27,1.27,0,0,1,41.67,78,1.25,1.25,0,0,1,43,76.75,1.21,1.21,0,0,1,44.25,78S44.24,78.15,44.24,78.21Zm-1.86-.41h1.2a.58.58,0,0,0-.6-.51A.57.57,0,0,0,42.38,77.8Z"/><path class="cls-1" d="M48.39,78.21H46.54a.66.66,0,0,0,.7.49.84.84,0,0,0,.62-.24l.37.41a1.42,1.42,0,0,1-2.4-.86,1.25,1.25,0,0,1,1.3-1.26A1.21,1.21,0,0,1,48.41,78,1.37,1.37,0,0,1,48.39,78.21Zm-1.86-.41h1.21a.61.61,0,0,0-1.21,0Z"/><path class="cls-1" d="M50.46,79.11a1,1,0,0,1-.58.16.81.81,0,0,1-.91-.88v-1h-.38v-.55H49v-.59h.7v.59h.61v.55h-.61v1a.29.29,0,0,0,.31.33.51.51,0,0,0,.29-.1Z"/><path class="cls-1" d="M54.63,75.86v3.37H54V79a1,1,0,0,1-.77.32,1.26,1.26,0,0,1,0-2.52.93.93,0,0,1,.73.3V75.86ZM53.94,78a.63.63,0,1,0-.62.68A.62.62,0,0,0,53.94,78Z"/><path class="cls-1" d="M57.67,78.21H55.82a.66.66,0,0,0,.7.49.81.81,0,0,0,.61-.24l.38.41a1.29,1.29,0,0,1-1,.4A1.27,1.27,0,0,1,55.11,78a1.25,1.25,0,0,1,1.3-1.26A1.21,1.21,0,0,1,57.68,78S57.67,78.15,57.67,78.21Zm-1.86-.41H57a.59.59,0,0,0-.6-.51A.58.58,0,0,0,55.81,77.8Z"/><path class="cls-1" d="M60.15,76.65h-1v-.6h2.78v.6h-1v2.58h-.74Z"/><path class="cls-1" d="M61.82,78a1.35,1.35,0,1,1,1.35,1.26A1.26,1.26,0,0,1,61.82,78Zm2,0a.63.63,0,1,0-.62.68A.62.62,0,0,0,63.79,78Z"/><path class="cls-1" d="M67.44,76.79v2.44h-.67v-.29a1,1,0,0,1-1.8-.77V76.79h.7v1.27c0,.41.19.6.5.6s.56-.21.56-.66V76.79Z"/><path class="cls-1" d="M69.62,76.75v.66h-.16a.6.6,0,0,0-.65.68v1.15H68.1V76.79h.68v.32A1,1,0,0,1,69.62,76.75Z"/><path class="cls-1" d="M70,76.05a.44.44,0,0,1,.88,0,.41.41,0,0,1-.44.41A.41.41,0,0,1,70,76.05Zm.08.74h.71v2.44H70Z"/><path class="cls-1" d="M71.17,79l.24-.51a1.68,1.68,0,0,0,.85.23c.33,0,.45-.08.45-.22,0-.4-1.48,0-1.48-1,0-.46.42-.79,1.14-.79a2.13,2.13,0,0,1,.94.21l-.24.51a1.35,1.35,0,0,0-.7-.18c-.32,0-.46.1-.46.22,0,.42,1.48,0,1.48,1,0,.46-.42.78-1.16.78A2.12,2.12,0,0,1,71.17,79Z"/><path class="cls-1" d="M78,77.83v1.4h-.71V77.94c0-.39-.18-.58-.47-.58s-.54.21-.54.65v1.22h-.71V77.94c0-.39-.16-.58-.46-.58s-.54.21-.54.65v1.22h-.7V76.79h.67v.28a1,1,0,0,1,.77-.32.9.9,0,0,1,.8.4,1.12,1.12,0,0,1,.89-.4A1,1,0,0,1,78,77.83Z"/><path class="cls-1" d="M81,78.21H79.15a.66.66,0,0,0,.7.49.84.84,0,0,0,.62-.24l.37.41a1.42,1.42,0,0,1-2.4-.86,1.25,1.25,0,0,1,1.3-1.26A1.21,1.21,0,0,1,81,78,1.37,1.37,0,0,1,81,78.21Zm-1.86-.41h1.21a.61.61,0,0,0-1.21,0Z"/></g></g></svg>