<svg xmlns="http://www.w3.org/2000/svg" viewBox="0 0 154.96 66.96"><defs><style>.cls-1{fill:#fff;fill-rule:evenodd;}</style></defs><g id="Layer_2" data-name="Layer 2"><g id="Layer_2_copy" data-name="Layer 2 copy"><path class="cls-1" d="M55.33,24c1.52.05,2.81.31,3.93-2.4.84-8.77.14-13.7,2.52-15C54.2,5.4,59.44,21.89,55.33,24Z"/><path class="cls-1" d="M52.44,9.61c-7-1.26-1.46,10.71-3.23,14.14a4.4,4.4,0,0,1-1.13-.15,11.63,11.63,0,0,0-.91,1.56c1.7.05,6.37.18,7.61-2.63.94-9.08.16-14.18,2.8-15.51-6.14-.88-4.51,14.07-5.39,15.13l-.19.23C51.61,14.89,50.27,10.61,52.44,9.61Z"/><path class="cls-1" d="M37.1,19.24l-3,0c-.91,9.38-1.27,13.1-5.29,13.77C37.32,36.88,36.64,23.24,37.1,19.24Z"/><path class="cls-1" d="M42.84,27.1V27l0-.1c.18-.85.29-1.73.47-2.56,0-.05,0-.09,0-.14-1,.65-2.45,1.61-3.36-.23.13-4.88,4.81-7,3.55-.46-.08.27-.15.54-.21.83-.14.93-.3,1.6-.49,2.66-.35,2-.85,5.12-4.71,5.87,8.34,3.79,8.43-10.51,8.52-12.19.81-6-9.66-4.83-9.41,3.81C37.44,26,38.69,28.5,42.84,27.1Z"/><path class="cls-1" d="M31.15,27c.85-8.77.15-13.7,2.52-15-7.57-1.17-2.34,15.32-6.44,17.39C28.75,29.49,30,29.75,31.15,27Z"/><path class="cls-1" d="M22.53,21.37c.73,8.85-4.76,12.42-2.9.9L17,22.55c.42,10-4.57,11.33-3.11.93l-2.44.18c-1.2,18.64-12.6,19.73-6.91.57L2,27c-7,14.81,6,22,10.79,4.6,1,1.38,3.32,2.79,5.64-1,5.38,4,7-5.21,6.87-9.48Z"/><path class="cls-1" d="M48.83,8.76c.61-.17,1.54-.38,2.91-.68,0-.4,0-.79.07-1.18-.87,0-1.69.6-2.62,0-.27-.18.19-1.76,2-.87l.69-1.22a3.1,3.1,0,0,0-3.06,0c-1.36,1-1.32,2.64-.19,2.94C45.8,9.09,45,9.81,48.83,8.76Z"/><path class="cls-1" d="M133.16,16.42C128,21.58,129.08,30.93,126.5,34a3.48,3.48,0,0,1-6.12.67L121.61,16c-9.42.42-6.4.26-9.24.68-3,26-2.49,35.52-15,37.15C110.68,61.61,119,47,118.15,41.44c2.91,1.46,5.33,2.08,7.54,1.72a10.7,10.7,0,0,0,6.43-4.07L138,32.65s-4.09-5.14,1-13.31c4.59-6.2,9.79-1.41,7.73,6.31-1.22,4.6-3.71,8.56-8.73,7l-5.85,6.45c-.33.37,3.53,1.1,3.73,1.1,9.33-.14,14.66-3,18.07-12.4C159.35,6.28,142.41,7.09,133.16,16.42Z"/><path class="cls-1" d="M103.29,43.12c3.1-25.13.54-39.26,9.26-42.95C84.72-3.17,104,44.06,88.87,50,94.47,50.16,99.19,50.89,103.29,43.12Z"/><path class="cls-1" d="M69.72,38.68c3.55-1.64,9.56-2.35,18.08-4.23.14-2.44.29-4.89.43-7.33-5.38-.07-10.52,3.72-16.27-.21C70.3,25.77,73.13,16,84.64,21.51L88.89,14c-5.9-3-10.7-3.67-19,0-8.39,6.36-8.16,16.36-1.17,18.23-6.21,2.55-11.85,4.69-13.53,10.6-2.1,7.63,4.66,7.6,8.84,8.93s-5.62,11.19-19.47,8.6c-4.59-.86-6.71-13.41,2.25-25.56l-8.43-1c-4.82,8.72-12.88,23.31-.58,31.61,8.52,4.75,30-2.15,34.33-12.42C78,39.13,51.91,46.91,69.72,38.68Z"/><path class="cls-1" d="M76.61,55.83a4.1,4.1,0,1,0,4.17,4.1A4.14,4.14,0,0,0,76.61,55.83Z"/><path class="cls-1" d="M86.61,53.36a4.1,4.1,0,1,0,4.17,4.1A4.14,4.14,0,0,0,86.61,53.36Z"/></g></g></svg>