<svg xmlns="http://www.w3.org/2000/svg" viewBox="0 0 97.44 70.45"><defs><style>.cls-1{fill:#fff;}</style></defs><g id="Layer_2" data-name="Layer 2"><g id="Layer_2_copy" data-name="Layer 2 copy"><polygon class="cls-1" points="37.84 16.44 37.84 16.44 49.73 9.57 64.63 18.18 72.88 13.36 49.73 0 29.53 11.66 37.84 16.44"/><polygon class="cls-1" points="49.73 47.64 33.52 38.28 25.26 43.09 49.73 57.21 67.01 47.24 58.83 42.38 49.73 47.64"/><path class="cls-1" d="M29.07,13.2l8.08,4.63L65.66,34.29l1.65,1V21.62l6.09-3.46V42.27L70.4,44,63.28,39.9l-29.48-17-1.66-.95V37.24L26.06,40.8V14.94l3-1.74m0-1.27L25,14.3V42.73l8.3-4.86v-14l29.48,17,7.67,4.42,4.1-2.37V16.27L66.21,21V33.33L37.7,16.88l-8.63-4.95Z"/><path class="cls-1" d="M0,70.27v-6.9H2.17l3.11,3.55a5.26,5.26,0,0,1,.3.44q.23.38.45.78c-.06-.36-.09-.62-.1-.76s0-.43,0-.6V63.37H8.05v6.9H5.9L2.79,66.71a3.53,3.53,0,0,1-.3-.44A6.89,6.89,0,0,1,2,65.5c0,.25.07.5.1.77s0,.49,0,.6v3.4Z"/><path class="cls-1" d="M9.08,70.27v-6.9h5.05v1.52H11.27v1.19H14v1.49h-2.7v1.16h2.86v1.54Z"/><path class="cls-1" d="M21.41,63.37l1,3.28c0,.14.09.29.14.47s0,.15.06.27a2.42,2.42,0,0,1,.06.28c.06-.21.1-.41.14-.61l.12-.41,1-3.28h2.27l-2.33,6.9H21.8l-1-2.94c-.07-.22-.13-.42-.18-.61l0-.11q0-.09-.06-.21s0,.12-.08.28-.13.47-.19.65l-1,2.94H17.14l-2.33-6.9h2.27l.94,3.3c0,.11.08.28.14.52s.1.41.12.51c0-.19.08-.33.11-.41.07-.26.13-.46.18-.62l1-3.3Z"/><path class="cls-1" d="M28.72,70.27V65H26.88V63.37h5.93V65H31v5.27Z"/><path class="cls-1" d="M33.73,70.27v-6.9h5v1.52H35.92v1.19h2.69v1.49H35.92v1.16h2.85v1.54Z"/><path class="cls-1" d="M45.5,63.64V65.7a3.58,3.58,0,0,0-.92-.64,2.53,2.53,0,0,0-1-.19,2.25,2.25,0,0,0-1.57.55,2,2,0,0,0-.33.41,1.8,1.8,0,0,0-.2.49,2.51,2.51,0,0,0-.06.55A1.78,1.78,0,0,0,42,68.25a2.23,2.23,0,0,0,1.55.54,2.61,2.61,0,0,0,1-.2A3.58,3.58,0,0,0,45.5,68V70a5.23,5.23,0,0,1-1.07.33,5.63,5.63,0,0,1-1.07.11,5.57,5.57,0,0,1-1.25-.14,3.69,3.69,0,0,1-1-.4,3.92,3.92,0,0,1-1.4-1.3,3.44,3.44,0,0,1-.17-3.22,3,3,0,0,1,.35-.6,5,5,0,0,1,.56-.58,3.9,3.9,0,0,1,1.33-.75,4.94,4.94,0,0,1,1.63-.25,5.66,5.66,0,0,1,1.06.1A6.33,6.33,0,0,1,45.5,63.64Z"/><path class="cls-1" d="M46.4,70.27v-6.9h2.24v2.69h3V63.37h2.25v6.9H51.64V67.46h-3v2.81Z"/><path class="cls-1" d="M64.85,63.64V65.7a3.58,3.58,0,0,0-.92-.64,2.57,2.57,0,0,0-1-.19,2.25,2.25,0,0,0-1.57.55,1.75,1.75,0,0,0-.33.41,1.53,1.53,0,0,0-.2.49,2.51,2.51,0,0,0-.06.55,1.8,1.8,0,0,0,.6,1.38,2.28,2.28,0,0,0,1.56.54,2.61,2.61,0,0,0,1-.2,3.58,3.58,0,0,0,.92-.64V70a5.43,5.43,0,0,1-1.07.33,5.63,5.63,0,0,1-1.07.11,5.57,5.57,0,0,1-1.25-.14,3.69,3.69,0,0,1-1-.4A4,4,0,0,1,59,68.61a3.42,3.42,0,0,1-.48-1.78,3.3,3.3,0,0,1,.32-1.44,3,3,0,0,1,.35-.6,5,5,0,0,1,.56-.58,3.9,3.9,0,0,1,1.33-.75,4.92,4.92,0,0,1,1.62-.25,5.69,5.69,0,0,1,1.07.1A6.62,6.62,0,0,1,64.85,63.64Z"/><path class="cls-1" d="M65.74,70.27v-6.9h5.05v1.52H67.93v1.19h2.7v1.49h-2.7v1.16h2.86v1.54Z"/><path class="cls-1" d="M71.72,70.27v-6.9h2.35c.46,0,.84,0,1.15,0a5,5,0,0,1,.78.08,2.73,2.73,0,0,1,.93.36,1.81,1.81,0,0,1,.68.72,1.9,1.9,0,0,1,.24,1,1.83,1.83,0,0,1-.47,1.31,2.28,2.28,0,0,1-1.37.66l2.25,2.78H75.72l-1.89-2.7v2.7Zm2.11-3.64h.42a2,2,0,0,0,1.06-.2.74.74,0,0,0,.33-.65.84.84,0,0,0-.31-.74,1.86,1.86,0,0,0-1-.22h-.45Z"/><path class="cls-1" d="M78.51,70.27l2.85-6.9h2.81L87,70.27H84.78L84.37,69H81.18l-.43,1.23Zm3.15-2.57h2.23l-.83-2.28a2.67,2.67,0,0,1-.11-.34c-.06-.22-.12-.41-.18-.59,0,.16-.09.32-.13.49a4.59,4.59,0,0,0-.15.44Z"/><path class="cls-1" d="M97.44,70.27h-2.1l-.49-3c0-.27-.07-.5-.09-.7s-.05-.48-.07-.85a9.16,9.16,0,0,1-.32,1.1l-.07.2-1.12,3.23H91.69L90.57,67a1.65,1.65,0,0,0-.07-.2,5.9,5.9,0,0,1-.31-1.1c0,.35-.06.61-.08.78s0,.21-.06.38,0,.3,0,.39l-.48,3H87.43l1.27-6.9h2.23l1.24,3.56a.7.7,0,0,0,0,.13,5,5,0,0,1,.22.81,2.05,2.05,0,0,1,.08-.42l.17-.53,1.25-3.55h2.23Z"/></g></g></svg>