<svg xmlns="http://www.w3.org/2000/svg" viewBox="0 0 134.68 32.02"><defs><style>.cls-1{fill:#fff;}</style></defs><g id="Layer_2" data-name="Layer 2"><g id="Layer_2_copy" data-name="Layer 2 copy"><path class="cls-1" d="M16.19,0h-.41C6.49.15,0,5.17,0,12.2S6.49,24.25,15.78,24.4h.41C25.47,24.25,32,19.23,32,12.2S25.47.15,16.19,0M16,20.42h0c-6.79-.07-11.17-3.3-11.17-8.22S9.19,4.05,16,4s11.17,3.3,11.17,8.22S22.77,20.35,16,20.42"/><path class="cls-1" d="M118.91,0h-.41c-9.29.15-15.78,5.17-15.78,12.2s6.49,12.05,15.78,12.2h.41c9.29-.15,15.77-5.17,15.77-12.2S128.2.15,118.91,0m-.21,20.42h0c-6.79-.07-11.17-3.3-11.17-8.22S111.91,4.05,118.7,4s11.18,3.3,11.18,8.22-4.39,8.15-11.18,8.22"/><path class="cls-1" d="M84.74,0h-.41a19.39,19.39,0,0,0-11,3.22V1.14H68.55V32h4.81V21.18a19.3,19.3,0,0,0,11,3.22h.42c9.28-.15,15.77-5.17,15.77-12.2S94,.15,84.74,0m-.21,20.42h0c-6.79-.07-11.17-3.3-11.17-8.22S77.74,4.05,84.53,4,95.7,7.28,95.7,12.2s-4.38,8.15-11.17,8.22"/><path class="cls-1" d="M50.46,0h-.41a19.44,19.44,0,0,0-11,3.22V1.14H34.27V32h4.81V21.18a19.34,19.34,0,0,0,11,3.22h.41c9.29-.15,15.78-5.17,15.78-12.2S59.75.15,50.46,0m-.2,20.42h0c-6.78-.07-11.17-3.3-11.17-8.22S43.47,4.05,50.25,4s11.18,3.3,11.18,8.22S57,20.35,50.26,20.42"/></g></g></svg>