<svg xmlns="http://www.w3.org/2000/svg" viewBox="0 0 118.89 57.62"><defs><style>.cls-1{fill:#fff;}</style></defs><g id="Layer_2" data-name="Layer 2"><g id="Layer_2_copy" data-name="Layer 2 copy"><path class="cls-1" d="M72.21,27.15,72.06,27a3.67,3.67,0,0,1-1.6-4.16,4.35,4.35,0,0,1,3.36-3.49,1,1,0,0,1,1.1.2c.29.35.06.72-.11,1.06-.31.66-.66,1.3-.92,2a3.5,3.5,0,0,0,.1,2.66,2.49,2.49,0,0,0,1.42,1.39c.34.15.68.26,1,.39a1.63,1.63,0,0,1,1.14,2.31,19.54,19.54,0,0,1-1.45,3.48c-.52,1-1.09,2-1.63,3.07-.08.13-.15.27-.26.49,1.37-.39,2.67-.78,3.82.38.11-.14.21-.24.3-.36,1.58-2.07,3.08-4.19,4.46-6.4a4.56,4.56,0,0,0,.39-.8,16.41,16.41,0,0,1,3.92-6.33,8.83,8.83,0,0,1,4.64-2.53l.29-.05a2.57,2.57,0,0,1,3.08,2,4.38,4.38,0,0,1,.15,2.41,4.45,4.45,0,0,1,1.8.66l-.31.69c-.78,1.58-1.58,3.14-2.32,4.73a9.71,9.71,0,0,0-.89,2.68,2,2,0,0,0,0,.54.5.5,0,0,0,.72.45,1.67,1.67,0,0,0,.63-.37,10.05,10.05,0,0,0,.94-1,29.15,29.15,0,0,0,2.66-4c1.21-2.15,2.38-4.33,3.57-6.49.07-.13.13-.27.21-.39a.48.48,0,0,1,.61-.19c.17.1.2.28.06.57-.33.67-.67,1.33-1,2a83.12,83.12,0,0,1-5.12,8.81,18.86,18.86,0,0,1-2.2,2.69,7,7,0,0,1-.72.61,2.23,2.23,0,0,1-1.29.44,1.77,1.77,0,0,1-1.77-1.12,12.06,12.06,0,0,1-.36-1.22c-.1.16-.17.29-.24.42a8.11,8.11,0,0,1-1.57,2,3.59,3.59,0,0,1-5-.3,4.91,4.91,0,0,1-1.19-3,10.4,10.4,0,0,0-.09-1.34c-.07.09-.14.16-.2.25-1.1,1.52-2.19,3-3.29,4.55a.65.65,0,0,0-.12.68,8.24,8.24,0,0,1,.29,3.49A22.64,22.64,0,0,1,75.5,51.76,13.18,13.18,0,0,1,72.61,55a6.27,6.27,0,0,1-3.43,1.45,5.57,5.57,0,0,1-1.29,0,2.09,2.09,0,0,1-1.5-1,3.38,3.38,0,0,1-.5-3.16A9.16,9.16,0,0,1,66.53,51,21.53,21.53,0,0,1,69,47.62c1.89-2.22,3.81-4.42,5.71-6.63.65-.76,1.28-1.53,1.91-2.3a1.17,1.17,0,0,0-.15-1.52,1,1,0,0,0-.6-.15,3.08,3.08,0,0,0-1.73.68,11.54,11.54,0,0,0-2,2.09l-.37.47a1,1,0,0,1-1.12.29,2.57,2.57,0,0,1-1.31-1,.42.42,0,0,1,0-.54l.53-.85a60.93,60.93,0,0,0,3.5-6,23.54,23.54,0,0,0,1-2.4,2.89,2.89,0,0,0,.11-1,.94.94,0,0,0-.6-.85l-.8-.36-.33.62a93.58,93.58,0,0,1-4.79,8.59C67.07,37.86,66.24,39,65.4,40A10.37,10.37,0,0,1,64,41.43a2,2,0,0,1-1.28.47,1.74,1.74,0,0,1-1.83-1.16,10.37,10.37,0,0,1-.35-1.18l-.26.45a7.88,7.88,0,0,1-1.57,2,3.58,3.58,0,0,1-4.8-.12,4.84,4.84,0,0,1-1.38-3.16c0-.34,0-.68,0-1l-.11,0-.29.43a23.66,23.66,0,0,1-3.75,4.81c-.2.2-.42.38-.63.57a4.84,4.84,0,0,1-3.91,1.21,3.21,3.21,0,0,1-2.39-1.43,6.91,6.91,0,0,1-1-2.55,10.06,10.06,0,0,1-.07-3.46A45.8,45.8,0,0,1,44.56,23a21.67,21.67,0,0,1,2.68-4.35,11.65,11.65,0,0,1,2.12-2.09,5.57,5.57,0,0,1,2.71-1.15,2.18,2.18,0,0,1,2.63,2,6.7,6.7,0,0,1-.25,2.85,23.54,23.54,0,0,1-2.28,5.28,58.27,58.27,0,0,1-6.36,9c-.61.74-1.25,1.46-1.89,2.17a1,1,0,0,0-.28.67,9.81,9.81,0,0,0,.11,2.42,6.32,6.32,0,0,0,.18.62,2.28,2.28,0,0,0,3,1.53,3,3,0,0,0,1.45-.83A26.87,26.87,0,0,0,50.31,39a26.78,26.78,0,0,0,2.47-3.73A3,3,0,0,0,53,34.7a17.48,17.48,0,0,1,3.18-6,12.29,12.29,0,0,1,2.65-2.39A8.17,8.17,0,0,1,62.21,25,2.48,2.48,0,0,1,65,26.55a4.46,4.46,0,0,1,.39,2.62,3,3,0,0,0,0,.31,4.47,4.47,0,0,1,1.76.64c-.12.27-.24.54-.37.8-.68,1.38-1.4,2.74-2,4.14-.39.84-.68,1.72-1,2.6a3.18,3.18,0,0,0-.15.93c0,.58.36.82.89.57a2.3,2.3,0,0,0,.67-.5c.43-.47.85-1,1.24-1.48a49.3,49.3,0,0,0,3.34-5.35C70.5,30.42,71.24,29,72,27.58,72.07,27.45,72.13,27.31,72.21,27.15ZM61.66,33.4l.39-.62a9.38,9.38,0,0,0,1.35-3.07,3.45,3.45,0,0,0-.08-1.91A1.06,1.06,0,0,0,61.93,27,4.36,4.36,0,0,0,60,28a9.31,9.31,0,0,0-1.81,2.1,16.52,16.52,0,0,0-2.09,4.7,13.42,13.42,0,0,0-.61,4.4,3.7,3.7,0,0,0,.36,1.54,1.06,1.06,0,0,0,1.31.61,2.54,2.54,0,0,0,1.37-.86A21.05,21.05,0,0,0,60,38.65a36.77,36.77,0,0,0,2.31-4.28c0-.1.09-.21.17-.4Zm30-4.73.35-.58a10.82,10.82,0,0,0,1.25-2.64,3.91,3.91,0,0,0,.17-1.76,3.11,3.11,0,0,0-.29-.94.89.89,0,0,0-1-.49,4.09,4.09,0,0,0-1.61.6A6.85,6.85,0,0,0,89,24.26a15,15,0,0,0-2.8,5.44,14.23,14.23,0,0,0-.73,4.53,4.21,4.21,0,0,0,.31,1.65,1.12,1.12,0,0,0,1.53.69,2.57,2.57,0,0,0,1.22-.82,22.69,22.69,0,0,0,1.43-1.84,34,34,0,0,0,2.31-4.28c0-.1.08-.21.16-.4Zm-47.57,6c.07,0,.11,0,.13,0s.19-.18.28-.28A43.93,43.93,0,0,0,52.12,23a18.86,18.86,0,0,0,1.42-3.91,5.87,5.87,0,0,0,.15-1.32c0-.56-.3-.74-.83-.53a3.24,3.24,0,0,0-.76.45,8.72,8.72,0,0,0-.82.79,17.37,17.37,0,0,0-2.05,2.86,46.37,46.37,0,0,0-5.12,13C44.08,34.45,44.08,34.57,44.06,34.71Zm32.36,6-.09,0-.2.21c-1.56,1.83-3.14,3.63-4.68,5.48-1.26,1.53-2.48,3.1-3.7,4.67a8.58,8.58,0,0,0-.88,1.49,2.3,2.3,0,0,0-.21,1,.94.94,0,0,0,1.14.94,2.18,2.18,0,0,0,.74-.26,4.6,4.6,0,0,0,.83-.62,13,13,0,0,0,1.9-2.23,40.16,40.16,0,0,0,4.82-9.54C76.21,41.42,76.31,41.06,76.42,40.69Z"/><path class="cls-1" d="M13.35,38.06c-.49-.12-.94-.22-1.38-.34a8.5,8.5,0,0,1-2.48-1,4.62,4.62,0,0,1-2-2.43,4.37,4.37,0,0,1,.33-3.6,10.63,10.63,0,0,1,2-2.63A16.79,16.79,0,0,1,16.66,24a6.59,6.59,0,0,1,3-.29,3,3,0,0,1,2.62,2.82,6.32,6.32,0,0,1-.67,3.71c-.68,1.33-1.44,2.61-2.16,3.91l-.31.53c.47,0,.86-.06,1.25-.11a27.5,27.5,0,0,0,14.43-6.26,19.11,19.11,0,0,0,4.12-4.75,10.52,10.52,0,0,0,1.49-4,5.19,5.19,0,0,0-2.34-5.42,9.86,9.86,0,0,0-4.25-1.56,28.24,28.24,0,0,0-7.29,0,29.28,29.28,0,0,0-14.39,5.68,27,27,0,0,0-7,7.57,13.41,13.41,0,0,0-1.87,4.52c0,.23,0,.46-.07.69,0,.48-.27.7-.75.61a2.18,2.18,0,0,1-.78-.3A3.1,3.1,0,0,1,.35,27.65a15.78,15.78,0,0,1,1.9-3.81,32.28,32.28,0,0,1,16-12.57A30.77,30.77,0,0,1,25.86,9.5a30.32,30.32,0,0,1,7.25.07,12.05,12.05,0,0,1,6.64,3A8.23,8.23,0,0,1,42.37,18a13.19,13.19,0,0,1-1.65,7.56A21.48,21.48,0,0,1,34,33.16a27.42,27.42,0,0,1-11.66,4.77,28.57,28.57,0,0,1-5.05.39h-.57c-.06,0-.09,0-.11.08-1.62,2.42-3.28,4.82-4.67,7.39A22.94,22.94,0,0,0,9.7,51.3a14.84,14.84,0,0,0-.34,2.3,5.11,5.11,0,0,0,.16,1.22c.05.29.17.58.21.87.07.55-.08.69-.64.63a2.18,2.18,0,0,1-.57-.15A5.39,5.39,0,0,1,5.2,52.06a4.45,4.45,0,0,1,.32-2.34,22.22,22.22,0,0,1,1.2-2.57,40.64,40.64,0,0,1,3.81-5.51l2.54-3.19Zm.89-3.33h1.34a.5.5,0,0,0,.46-.22,34.14,34.14,0,0,0,3.08-5,7.45,7.45,0,0,0,.77-3c0-.49-.09-.67-.57-.71a5.52,5.52,0,0,0-1.52.05A16.05,16.05,0,0,0,11,29a8.27,8.27,0,0,0-1.75,1.89,3.87,3.87,0,0,0-.66,1.9,1.09,1.09,0,0,0,.71,1.18,8.07,8.07,0,0,0,1.17.4A20,20,0,0,0,14.24,34.73Z"/><path class="cls-1" d="M87.73,5.64a8.72,8.72,0,0,1,2.69,4.78,11.71,11.71,0,0,1,.17,4.3c0-.09-.07-.18-.09-.27s0-.2-.08-.29A17.42,17.42,0,0,0,88.94,10a7.84,7.84,0,0,0-2.16-2.69,5.49,5.49,0,0,0-4.21-1.11,15.63,15.63,0,0,0-5.82,2.18,25.73,25.73,0,0,0-3.89,2.93,18.36,18.36,0,0,1-1.51,1.23,3.18,3.18,0,0,1,.16-.32A23.52,23.52,0,0,1,77.25,6a10.22,10.22,0,0,1,4.37-1.94,7.28,7.28,0,0,1,5.42,1l.13.08h.09A1.67,1.67,0,0,0,87.38,5,6.92,6.92,0,0,1,90.3,1.49a10.67,10.67,0,0,1,12.07.83A7.37,7.37,0,0,1,103.84,4l.26.38.28-.21a7.76,7.76,0,0,1,10.29,0,11.09,11.09,0,0,1,3.69,6,17.38,17.38,0,0,1,.37,6.66A28,28,0,0,1,115,27.14c-.83,1.47-1.74,2.9-2.59,4.36a31.54,31.54,0,0,0-3.17,7,16.91,16.91,0,0,0-.75,5.24,14.52,14.52,0,0,0,2.33,7.4c.26.42.55.83.85,1.28l-.5.29A30.18,30.18,0,0,1,100.89,56a33.56,33.56,0,0,1-18.13-2.89,2.23,2.23,0,0,1-.58-.36l2.2.57A43.51,43.51,0,0,0,91,54.35a38.27,38.27,0,0,0,5.46.15,31.49,31.49,0,0,0,13.21-3.44l.49-.27-1.09-1.52a31.1,31.1,0,0,1-10.74,1.62,36,36,0,0,1-10.74-1.8,39.61,39.61,0,0,0,9.3.19,32.64,32.64,0,0,1-.34-12.68,33.29,33.29,0,0,0,.38,6.31,38,38,0,0,0,1.56,6.17,28.74,28.74,0,0,0,4.62-1A35.28,35.28,0,0,1,102.17,38a32.73,32.73,0,0,1,1.64-10A36.92,36.92,0,0,0,103,37.8a34.85,34.85,0,0,0,1.63,9.72,18,18,0,0,0,2.94-1.31c-.13-.52-.26-1-.37-1.54a16.62,16.62,0,0,1,.25-7.19,30.82,30.82,0,0,1,3.09-7.68c1-1.82,2-3.61,3-5.45a26.41,26.41,0,0,0,2.59-7.44,15.67,15.67,0,0,0,0-6.61,9.16,9.16,0,0,0-3-5,6.35,6.35,0,0,0-8.27-.09.46.46,0,0,0-.16.6,7.93,7.93,0,0,1-.25,5.35,4.11,4.11,0,0,1-.81,1.35c.1-.51.2-.92.25-1.33a8.68,8.68,0,0,0-.55-4.59,6.46,6.46,0,0,0-3-3.32A10.62,10.62,0,0,0,91,2.83a7,7,0,0,0-3,2.34,3.71,3.71,0,0,0-.23.32S87.75,5.55,87.73,5.64Z"/><path class="cls-1" d="M0,18.52l.2-.37a36,36,0,0,1,6.07-7.91A27.12,27.12,0,0,1,20.76,2.69a33.21,33.21,0,0,1,9.07-.31A57.55,57.55,0,0,1,42.32,5.16c3.64,1.18,7.19,2.59,10.76,4a72.73,72.73,0,0,0,8.13,2.77,18.34,18.34,0,0,0,4.66.67A7.24,7.24,0,0,0,71.67,10a.86.86,0,0,0,.13-.2l.1.07c-.07.12-.13.25-.2.36a7.34,7.34,0,0,1-5.32,3.31,17.72,17.72,0,0,1-6-.24,75.94,75.94,0,0,1-9.94-2.79c-3.6-1.19-7.18-2.44-10.84-3.47a66.83,66.83,0,0,0-8.19-1.82,37,37,0,0,0-8.92-.31A28.13,28.13,0,0,0,7.14,11.31a45.9,45.9,0,0,0-6.4,6.45l-.66.81Z"/><path class="cls-1" d="M33.92,56.16a4.15,4.15,0,0,0,.34-.24c.48-.48,1-1,1.43-1.46l0,0c.11-.21.16-.49.33-.63s.39-.2.58-.35c.93-.79,1.88-1.57,2.84-2.33a3.87,3.87,0,0,1,.85-.52.94.94,0,0,1,1.29.63.35.35,0,0,1-.2.45,1.39,1.39,0,0,0-.43.44,1.89,1.89,0,0,0-.18.41l-.25.78A1.27,1.27,0,0,0,41.87,53c.77-.7,1.61-1.33,2.43-2a3.3,3.3,0,0,1,.77-.45.9.9,0,0,1,1.26,1c-.48.1-.63.51-.77.91-.21.61-.41,1.23-.62,1.84a5.34,5.34,0,0,1-1.18,2,1.83,1.83,0,0,1-1.29.56,1.32,1.32,0,0,1-1-.4,3.1,3.1,0,0,1-.83-1.72c-.07-.36-.07-.35-.52-.33-.11.26-.23.54-.36.8a3.49,3.49,0,0,1-.92,1.23,1.54,1.54,0,0,1-2.43-.37,8.77,8.77,0,0,1-.49-1l-.42.41c-.36.32-.7.66-1.08,1a1.39,1.39,0,0,1-2.26-.43c-.22.17-.45.32-.66.5a1.37,1.37,0,0,1-2.15-.51c-.31.22-.61.46-.93.65a1.22,1.22,0,0,1-1.41,0,3.2,3.2,0,0,1-.58-.71c-.26.19-.56.42-.88.63a1.79,1.79,0,0,1-1.13.3.78.78,0,0,1-.81-.66,1.78,1.78,0,0,1,0-.69,5,5,0,0,1,.28-1,8.25,8.25,0,0,1,2.18-3.1,4.92,4.92,0,0,1,1.11-.75,1.6,1.6,0,0,1,2.06.37,1.12,1.12,0,0,1,.13.21c.19-.24.32-.43.47-.6s.41-.23.64,0a1,1,0,0,1,.1,1.34c-.72,1.07-1.42,2.15-2.12,3.24a5.58,5.58,0,0,0-.35.79l.1.08a1.11,1.11,0,0,0,.3-.17A17.21,17.21,0,0,0,31,53.16c.61-1,1.26-1.91,1.9-2.88a3.22,3.22,0,0,1-.43-.39,3.08,3.08,0,0,1-.23-.53c.37,0,.65,0,.93,0A.6.6,0,0,0,33.8,49c.32-.46.67-.91,1-1.35.14-.17.29-.41.56-.33s.36.33.44.57a.8.8,0,0,1-.18.83c-.17.18-.32.36-.56.64l.67,0c.45,0,.64.3.61.84-.45,0-.91,0-1.37,0a.8.8,0,0,0-.84.44c-.87,1.41-1.76,2.81-2.62,4.22A3.4,3.4,0,0,0,31,56.19a2.54,2.54,0,0,0,.39-.24A15.7,15.7,0,0,0,33.93,53c.46-.75,1-1.46,1.47-2.18.33-.47.66-.44.94,0a.88.88,0,0,1-.08,1.1,24.67,24.67,0,0,0-2.2,3.43c-.1.2-.17.41-.26.62Zm-5-4.25a2.7,2.7,0,0,0-.17-.31.58.58,0,0,0-.93-.17,2.33,2.33,0,0,0-.46.37A11.55,11.55,0,0,0,25,55.3a2.24,2.24,0,0,0-.16.52c0,.29.13.41.39.28a2,2,0,0,0,.44-.32A30,30,0,0,0,28.94,51.91Zm12.41,2.61-.09.1a2.38,2.38,0,0,0,.59,1.31.47.47,0,0,0,.85-.07,8.31,8.31,0,0,0,.57-1.16c.31-.81.6-1.64.9-2.46,0-.13.09-.26.13-.4l-.08-.05-1.89,1.65c.79.6.91,1.26.37,1.62Zm-4.8.21A2.26,2.26,0,0,0,37.14,56a.44.44,0,0,0,.66.08,3.19,3.19,0,0,0,.74-1.69A5,5,0,0,0,36.55,54.73Zm3-2.85-.08-.06-1.95,1.72,0,.07L39,53.4c.17-.45.34-.9.5-1.34C39.53,52,39.53,51.94,39.55,51.88Z"/><path class="cls-1" d="M52.68,51.19c-.45-.46-.47-.75-.09-1.16.24-.25.39-.25.68,0a8.11,8.11,0,0,0,1,.66,1,1,0,0,0,1.09,0,.53.53,0,0,1,.78.12.83.83,0,0,1,.2.95c-.06.1-.15.18-.21.28-.74,1.14-1.49,2.27-2.21,3.42a1,1,0,0,0-.21.8c.16-.12.3-.21.41-.31a15.94,15.94,0,0,0,2.63-3.1,22.58,22.58,0,0,1,1.31-1.93c.33-.46.66-.42.94.08A.94.94,0,0,1,58.9,52a22,22,0,0,0-2.21,3.42,6.62,6.62,0,0,0-.24.62l.09.07a1.33,1.33,0,0,0,.31-.18,12.5,12.5,0,0,0,2.24-2.57,7.08,7.08,0,0,1,2.1-2.29,3,3,0,0,1,1.41-.59,1.12,1.12,0,0,1,1.13,1.6,4.08,4.08,0,0,1-.54.83A6.87,6.87,0,0,1,60,55.11a.54.54,0,0,0-.35.66.39.39,0,0,0,.49.38,2,2,0,0,0,.85-.24,13.66,13.66,0,0,0,1.52-1.1c.42-.35.78-.76,1.17-1.15l.21-.22c.14-.14.31-.21.47,0s.12.32,0,.49A10.51,10.51,0,0,1,62,56.15a4.27,4.27,0,0,1-2.37.78c-.84,0-1.39-.46-1.35-1.23,0,0,0-.05-.06-.11l-.37.31a9.89,9.89,0,0,1-.88.72,1.32,1.32,0,0,1-2.1-.53c-.31.22-.61.46-.93.66a1.32,1.32,0,0,1-1.46-.07.68.68,0,0,1-.28-1,9,9,0,0,1,.51-1c.58-.94,1.17-1.88,1.75-2.83.08-.12.16-.24.27-.43a8,8,0,0,0-1,0,.62.62,0,0,0-.34.25c-.74.84-1.48,1.7-2.21,2.55a9.53,9.53,0,0,1-2.11,2,4.13,4.13,0,0,1-2.39.72c-.86,0-1.29-.45-1.25-1.31a2.89,2.89,0,0,1,.18-.91,7.78,7.78,0,0,1,2.68-3.57,3.07,3.07,0,0,1,1.25-.59,1.15,1.15,0,0,1,1.24.42,1.16,1.16,0,0,1,0,1.31,2.8,2.8,0,0,1-.3.46,6.88,6.88,0,0,1-3.45,2.4l-.15,0c-.1.28-.23.59,0,.84s.56.16.84.06a3.27,3.27,0,0,0,.83-.43,15.38,15.38,0,0,0,3.91-4.13C52.57,51.43,52.61,51.32,52.68,51.19ZM47.5,54.1a5.75,5.75,0,0,0,2.66-2.44,1.43,1.43,0,0,0,.07-.38A6.36,6.36,0,0,0,47.5,54.1Zm12.9,0A5.72,5.72,0,0,0,63,51.65a1.38,1.38,0,0,0,.06-.38A6.23,6.23,0,0,0,60.4,54.08Z"/><path class="cls-1" d="M18.54,52.9a22.93,22.93,0,0,0-2.9,4.67.73.73,0,0,1-.7-.1.52.52,0,0,1-.25-.71,7.49,7.49,0,0,1,.38-.81c1.34-2.44,2.85-4.78,4.38-7.11.43-.66.89-1.31,1.33-2l.26-.42c-.27.07-.46.11-.64.17L13.76,48.5a5.63,5.63,0,0,1-1.07.21,1.2,1.2,0,0,1-1.38-1.21.82.82,0,0,1,.06-.19,4.43,4.43,0,0,0,2.6-.1c2.29-.5,4.58-1,6.87-1.57.31-.07.61-.13.92-.18a.64.64,0,0,1,.77.31.86.86,0,0,1,0,1,6,6,0,0,0-.54.89c.15-.13.29-.27.45-.39.47-.41.95-.83,1.44-1.22a3.47,3.47,0,0,1,.59-.37,1.41,1.41,0,0,1,1.55,0,1.46,1.46,0,0,1,.64,1.47,6.13,6.13,0,0,1-.29,1.35,11,11,0,0,1-3,4.55,5.53,5.53,0,0,1-2.58,1.42,4.64,4.64,0,0,1-.64.07,1.29,1.29,0,0,1-1.45-1.13c0-.16-.06-.31-.09-.47Zm.74-.45c0,.12,0,.22,0,.32,0,.75.45,1,1.17.77a2.44,2.44,0,0,0,.7-.36,12,12,0,0,0,1.21-1,16.08,16.08,0,0,0,2.71-3.84,12,12,0,0,0,.51-1.24,1,1,0,0,0,.06-.34c0-.41-.14-.57-.54-.44a2.65,2.65,0,0,0-.78.41,14.78,14.78,0,0,0-1.58,1.37c-1.08,1.14-2.1,2.34-3.16,3.5A1,1,0,0,0,19.28,52.45Z"/><path class="cls-1" d="M38.25,48.65a1.1,1.1,0,0,1-1,1.11.78.78,0,0,1-.77-.8,1.15,1.15,0,0,1,1-1.09A.78.78,0,0,1,38.25,48.65Z"/><path class="cls-1" d="M60.88,48.68a1.08,1.08,0,0,1-1,1.08.77.77,0,0,1-.73-.83,1.1,1.1,0,0,1,1-1.06A.76.76,0,0,1,60.88,48.68Z"/></g></g></svg>