<svg xmlns="http://www.w3.org/2000/svg" viewBox="0 0 211.95 48.29"><defs><style>.cls-1{fill:#fff;}</style></defs><g id="Layer_2" data-name="Layer 2"><g id="Layer_2_copy" data-name="Layer 2 copy"><g id="logo"><path class="cls-1" d="M95.13,48.24h-.78V42.71h4.39v.82H95.13v1.82H97.8v.82H95.13Z"/><path class="cls-1" d="M104.75,48.24h-.86a3.74,3.74,0,0,1-.08-.94,1,1,0,0,0-1-1H101v2h-.78V42.71h2.62a1.67,1.67,0,0,1,1.81,1.7,1.93,1.93,0,0,1-.66,1.45,1.49,1.49,0,0,1,.64,1.44C104.6,47.92,104.63,48.09,104.75,48.24ZM101,45.44h1.86a1,1,0,0,0,1-1c0-.64-.54-.86-1-.86H101Z"/><path class="cls-1" d="M106.12,45.47a2.77,2.77,0,1,1,2.77,2.82A2.83,2.83,0,0,1,106.12,45.47Zm.79,0a2,2,0,1,0,2-2A2,2,0,0,0,106.91,45.47Z"/><path class="cls-1" d="M113.78,48.24H113l.68-5.53h.79L116,47.12l1.56-4.41h.78l.68,5.53h-.78l-.48-3.88-1.37,3.88h-.78l-1.37-3.88Z"/><path class="cls-1" d="M126.59,48.24h-.78V45.88h-2.94v2.36h-.79V42.71h.79v2.35h2.94V42.71h.78Z"/><path class="cls-1" d="M132.54,48.24,132,46.91h-2.72l-.55,1.33H128l2.26-5.53h.85l2.27,5.53Zm-2.92-2.15h2l-1-2.51Z"/><path class="cls-1" d="M135,42.71l1.35,4.2,1.11-4.2h.78l1.1,4.19,1.36-4.19h.78l-1.78,5.53h-.79l-1.06-4-1.07,4H136l-1.79-5.53Z"/><path class="cls-1" d="M146.31,48.24l-.55-1.33H143l-.54,1.33h-.79L144,42.71h.85l2.27,5.53Zm-2.93-2.15h2.05l-1-2.51Z"/><path class="cls-1" d="M147.93,42.25a.39.39,0,0,1-.39-.4.4.4,0,0,1,.39-.41.41.41,0,0,1,.39.41A.4.4,0,0,1,147.93,42.25Zm.93,6h-.79V42.71h.79Zm.15-6a.39.39,0,0,1-.39-.4.39.39,0,1,1,.77,0A.39.39,0,0,1,149,42.25Z"/><path class="cls-1" d="M152,43.53v-.82H157v.82h-2.06v4.71h-.78V43.53Z"/><path class="cls-1" d="M157.84,45.47a2.77,2.77,0,1,1,2.77,2.82A2.83,2.83,0,0,1,157.84,45.47Zm.79,0a2,2,0,1,0,2-2A2,2,0,0,0,158.63,45.47Z"/><path class="cls-1" d="M166.31,43.53v-.82h4.91v.82h-2.06v4.71h-.79V43.53Z"/><path class="cls-1" d="M172.11,45.47a2.77,2.77,0,1,1,2.77,2.82A2.83,2.83,0,0,1,172.11,45.47Zm.79,0a2,2,0,1,0,2-2A2,2,0,0,0,172.9,45.47Z"/><path class="cls-1" d="M178.89,48.24V42.71h.79v3l2.78-3h1l-2.2,2.43,2.35,3.1h-1l-1.87-2.48-1.05,1.16h0v1.33Z"/><path class="cls-1" d="M187.45,48.24v-2l-2.31-3.56h1l1.75,2.73,1.72-2.73h1l-2.31,3.59v1.94Z"/><path class="cls-1" d="M191.59,45.47a2.77,2.77,0,1,1,2.77,2.82A2.83,2.83,0,0,1,191.59,45.47Zm.79,0a2,2,0,1,0,2-2A2,2,0,0,0,192.38,45.47Z"/><path class="cls-1" d="M59.77,12c-4.37,0-7.19,3-7.2,7.52,0,5.71.11,11.44,0,17.15-.09,3.21,1.13,5.2,3.95,6.35,1.61.65,2.6.47,3.21-.84s.13-2.32-1.42-3-1.9-1.55-1.41-3.34c1.17,0,2.31,0,3.46,0,4-.06,6.92-3,7-7.27,0-3,0-6.06,0-9.09C67.26,14.79,64.46,12,59.77,12Zm3.39,17.2a2.6,2.6,0,0,1-2.5,2.69,37.19,37.19,0,0,1-4,0c0-4.56-.06-8.84,0-13.12,0-1.73,1.3-2.6,3.27-2.58s3.13.89,3.17,2.68C63.23,22.35,63.22,25.78,63.16,29.22Z"/><path class="cls-1" d="M137.36,12.38c-1.2,0-2.4,0-3.55,0-.57-2.39-.58-2.42,1.48-3.56,1.07-.59,1.75-1.5,1.22-2.61a2.77,2.77,0,0,0-2.07-1.42,5.5,5.5,0,0,0-5,5.58c0,6.23,0,12.47,0,18.7a7,7,0,0,0,7.29,7.13,7,7,0,0,0,7.37-7.08q.09-4.89,0-9.78A6.85,6.85,0,0,0,137.36,12.38ZM140,29c-.07,1.92-1.3,3-3.32,3s-3.13-1-3.15-2.91c0-3.83,0-7.67,0-11.5,0-1,.36-1.35,1.26-1.31s1.54,0,2.31,0c1.95.1,2.89,1.11,2.93,3.13,0,1.55,0,3.09,0,4.64S140.06,27.34,140,29Z"/><path class="cls-1" d="M112.64,12.05a6.82,6.82,0,0,0-6,6.49c-.08,3.71-.08,7.43,0,11.14a6.86,6.86,0,0,0,5.09,6.22,6.68,6.68,0,0,0,7.76-3c.9-1.59.78-2.91-.35-3.62s-2.06-.34-3,1.26A2.64,2.64,0,0,1,113,31.86a2.7,2.7,0,0,1-2.24-2.61c0-.79,0-1.58,0-2.61,2.13,0,4,0,5.85,0a4.26,4.26,0,0,0,4.47-4.07,19.41,19.41,0,0,0-.12-5.11C120.32,13.73,117,11.63,112.64,12.05Zm4.41,9.8c0,.24-.48.7-.75.71-1.79.06-3.59,0-5.53,0,0-1.42-.07-2.62,0-3.8a2.49,2.49,0,0,1,2.28-2.49c1.49-.2,3.07-.16,3.66,1.51A13.46,13.46,0,0,1,117.05,21.85Z"/><path class="cls-1" d="M155,12a6.72,6.72,0,0,0-6.81,6.64c-.06,1.77,0,3.55,0,5.32s-.06,3.66,0,5.49a7.22,7.22,0,0,0,14.41.06c.11-3.65.12-7.32,0-11C162.48,14.57,159.37,12,155,12Zm3.53,16.85a3.14,3.14,0,0,1-6.28.07c-.08-3.25-.08-6.52,0-9.77,0-2.07,1.17-3,3.26-2.93a2.73,2.73,0,0,1,3,3c0,1.6,0,3.2,0,4.8S158.59,27.27,158.55,28.87Z"/><path class="cls-1" d="M78.28,12.21a7,7,0,0,0-6.93,7c0,1.61,0,3.21,0,4.81,0,1.77,0,3.55,0,5.32a7,7,0,0,0,6.92,6.84c3.94.16,7.21-2.38,7.44-6.16a97.7,97.7,0,0,0,0-11.48C85.51,14.56,82.32,12,78.28,12.21Zm3.59,16.33c-.09,2.23-1.28,3.42-3.29,3.4s-3.12-1.22-3.14-3.49c0-3,0-6,0-9.06,0-2.07,1-3.07,2.88-3.15,2.15-.1,3.26.81,3.52,2.9a1.88,1.88,0,0,1,0,.34v4.61C81.88,25.57,81.93,27.06,81.87,28.54Z"/><path class="cls-1" d="M196,32c-1.63-.58-1.87-1.69-1.86-3.29.07-6.79,0-13.59,0-20.39,0-2-.74-2.87-2.12-2.84s-1.93.86-1.94,2.79c0,3.66,0,7.31,0,11,0,3.37,0,6.74,0,10.11,0,3.75.88,5.08,4.2,6.47,1.2.5,2.25.32,2.82-.88A2,2,0,0,0,196,32Z"/><path class="cls-1" d="M102.77,14a2,2,0,0,0-2.87.36L94,22.27V6.52A1.19,1.19,0,0,0,92.8,5.33H91.09A1.19,1.19,0,0,0,89.9,6.52V35a1.19,1.19,0,0,0,1.19,1.19H92.8A1.19,1.19,0,0,0,94,35V29.26l.86-1.15,4.23,7a2,2,0,0,0,2.82.67h0a2.23,2.23,0,0,0,.63-3l-5-8.33L103.11,17A2.25,2.25,0,0,0,102.77,14Z"/><path class="cls-1" d="M203.14,22.05a2.37,2.37,0,0,0,1.41.14,2.29,2.29,0,0,0,1.22-.68.8.8,0,0,0,0-1.12.68.68,0,0,0-.53-.24.69.69,0,0,0-.52.24.82.82,0,0,1-.47.26.88.88,0,0,1-.53,0,1,1,0,0,1-.41-.36.94.94,0,0,1-.15-.53V16.23a1,1,0,0,1,.15-.53,1,1,0,0,1,.41-.35,1,1,0,0,1,.53-.06.9.9,0,0,1,.47.27.69.69,0,0,0,.52.24.68.68,0,0,0,.53-.24.77.77,0,0,0,0-1.1,2.28,2.28,0,0,0-1.22-.71,2.4,2.4,0,0,0-2.49,1.07,2.55,2.55,0,0,0-.4,1.41v3.48a2.5,2.5,0,0,0,.4,1.41A2.44,2.44,0,0,0,203.14,22.05Z"/><path class="cls-1" d="M211.76,15.25a2.57,2.57,0,0,0-.52-.8,2.33,2.33,0,0,0-.77-.54,2.26,2.26,0,0,0-.94-.2,2.33,2.33,0,0,0-.94.2,2.29,2.29,0,0,0-.76.54,2.57,2.57,0,0,0-.52.8,2.52,2.52,0,0,0-.19,1v3.48a2.53,2.53,0,0,0,.19,1,2.69,2.69,0,0,0,.52.8,2.62,2.62,0,0,0,.76.54,2.33,2.33,0,0,0,.94.2,2.26,2.26,0,0,0,.94-.2,2.49,2.49,0,0,0,1.29-1.34,2.72,2.72,0,0,0,.19-1V16.23A2.71,2.71,0,0,0,211.76,15.25Zm-1.31,4.46a.93.93,0,0,1-.27.68.85.85,0,0,1-.65.28.86.86,0,0,1-.65-.28,1,1,0,0,1-.26-.68V16.23a1,1,0,0,1,.26-.67.86.86,0,0,1,.65-.28.85.85,0,0,1,.65.28.92.92,0,0,1,.27.67Z"/><path class="cls-1" d="M185.34,13a1.65,1.65,0,0,0-1.46.23,2.12,2.12,0,0,0-.9,1.28c-.24,1-.5,2.1-.79,3.26-.24,1-.5,2.08-.79,3.32s-.6,2.5-.92,3.79c-.32-1.29-.62-2.55-.9-3.79s-.54-2.34-.77-3.32c-.29-1.16-.56-2.25-.79-3.26a2.09,2.09,0,0,0-.7-1.12,1.87,1.87,0,0,0-1.23-.44,1.8,1.8,0,0,0-1.18.44,2,2,0,0,0-.7,1.12c-.24,1-.5,2.1-.79,3.26-.24,1-.5,2.08-.79,3.32s-.6,2.5-.92,3.79c-.32-1.29-.62-2.55-.9-3.79s-.54-2.34-.77-3.32c-.29-1.16-.56-2.25-.79-3.26a2.15,2.15,0,0,0-.92-1.28,1.72,1.72,0,0,0-1.49-.23,2,2,0,0,0-1.21,1,2,2,0,0,0-.19,1.56l4.38,18.34a2.09,2.09,0,0,0,.7,1.12,1.83,1.83,0,0,0,1.19.44,1.87,1.87,0,0,0,1.22-.44,2.05,2.05,0,0,0,.71-1.12c.23-1,.49-2.09.79-3.26.23-1,.49-2.07.76-3.29s.58-2.48.9-3.77c.32,1.29.63,2.54.92,3.77s.56,2.32.79,3.29c.29,1.17.56,2.25.79,3.26a2.09,2.09,0,0,0,.7,1.12,1.83,1.83,0,0,0,1.19.44A1.87,1.87,0,0,0,181.7,35a2.05,2.05,0,0,0,.71-1.12l4.38-18.34a2,2,0,0,0-.22-1.56A2.07,2.07,0,0,0,185.34,13Z"/><rect class="cls-1" x="201.64" y="23.5" width="10.29" height="1.61" rx="0.45"/><rect class="cls-1" x="109.64" y="5.33" width="8.51" height="3.52" rx="0.98"/><path class="cls-1" d="M27.42,16.31l-.68,1.38q-3.24-6.46-8.39-8.51Q13,7.07,5.6,9.63a20.68,20.68,0,0,0,3.58,5.46,4,4,0,0,0,2.51,1.37,3.14,3.14,0,0,0,2.33-1,13.78,13.78,0,0,0,2.66-4c.33-.71,1.45-.18,1.1.57a14.92,14.92,0,0,1-2.94,4.42,4.29,4.29,0,0,1-3.23,1.35A5.23,5.23,0,0,1,8.34,16,23.22,23.22,0,0,1,4.18,9.55l-.3-.65.65-.25q8.29-3,14.26-.68Q24.06,10.06,27.42,16.31Z"/><path class="cls-1" d="M31.08,15.46l-2.17,2.73,1.3-2.31C30.5,15.73,30.79,15.58,31.08,15.46Z"/><polygon class="cls-1" points="34.25 14.67 32.93 16.17 32.93 16.17 34.25 14.67"/><path class="cls-1" d="M39.72,15.88l-1.3.65a14.24,14.24,0,0,0-4.48,3.24,6.64,6.64,0,0,0-1.7,3.77c-.2,1.1-1.15.93-1.22-.14a7.88,7.88,0,0,1,2-4.49,13.78,13.78,0,0,1,3.48-2.79A7.71,7.71,0,0,0,33.72,16l1.2-1.36a9.54,9.54,0,0,1,3.46.7Z"/><path class="cls-1" d="M27.07,13.88a13,13,0,0,1-4-3.84A16.68,16.68,0,0,1,20.9,5.11L15.66,6.62c-.75.28-1.48-.82-.33-1.24l6.45-1.86.15.64A15.54,15.54,0,0,0,24.1,9.29a11.57,11.57,0,0,0,3.59,3.48C28.57,13.56,27.72,14.46,27.07,13.88Z"/><path class="cls-1" d="M13.26,10.6h0a1.72,1.72,0,0,0-.83-1,1.58,1.58,0,0,0-1.24-.07h0a1.71,1.71,0,0,0-.93.87,1.78,1.78,0,0,0-.06,1.3h0a1.62,1.62,0,0,0,.83,1,1.54,1.54,0,0,0,1.24.07h0a1.66,1.66,0,0,0,.93-.86A1.83,1.83,0,0,0,13.26,10.6Zm-1.18.74a.43.43,0,0,1-.23.21.39.39,0,0,1-.5-.26.38.38,0,0,1,0-.31.38.38,0,0,1,.52-.19.43.43,0,0,1,.21.23A.51.51,0,0,1,12.08,11.34Z"/><path class="cls-1" d="M36.89,3,29.37,16.37l-1.6,2.86L27,20.6l-.85,1.53a.49.49,0,0,1-.3.23l-.12,0a.44.44,0,0,1-.24-.07.52.52,0,0,1-.19-.67l1.7-3.4.7-1.4L35.15,2Z"/><path class="cls-1" d="M26.44,22.1l1-1.21h0Zm0,0,1-1.21h0Z"/><path class="cls-1" d="M37.66,1.6v0l-.46.83-1.77-1,.43-.85a.57.57,0,0,1,.08-.13l0-.06L36,.33l0,0,0,0,0,0h0l0,0,0,0,0,0h0l0,0,.05,0h0l0,0,0,0,0,0,.05,0,0,0h.6l0,0h.06l.06,0A1.09,1.09,0,0,1,37.66,1.6Z"/><polygon class="cls-1" points="30.21 17.35 29.98 17.63 30.21 17.35 30.21 17.35"/><path class="cls-1" d="M41.5,6.38l-7.25,8.29-1.32,1.5-5.76,6.59,0,0,0,0h0l0,0,0,0,0,0-.05,0-.05,0h-.24l-.05,0h0l-.08-.05,0,0,0,0,0,0,0,0,0,0v-.05s0,0,0-.05v0h0a.09.09,0,0,0,0-.05h0v-.16h0v0s0,0,0,0,0,0,0,0,0,0,0,0a.08.08,0,0,0,0,0l0,0,1-1.21h0l2-2.53.39-.5.18-.23.23-.28L32,15.12,40,5Z"/><polygon class="cls-1" points="34.25 14.67 32.93 16.17 32.93 16.17 34.25 14.67"/><path class="cls-1" d="M30.21,17.35l-.23.28.23-.28Zm2.72-1.18h0l1.32-1.5Z"/><path class="cls-1" d="M42.53,5.2l0,0-.62.71L40.37,4.54,41,3.8l0,0,0,0,.05,0,0,0h.06l.09,0,.1,0h0l.06,0,0,0h0l.11,0h.47l0,0,0,0h.09l0,0h0l0,0,0,0,.08.07A1.11,1.11,0,0,1,42.53,5.2Z"/><path class="cls-1" d="M41.48,3.45l.11,0Z"/><path class="cls-1" d="M41.72,3.41h0Z"/><path class="cls-1" d="M41.92,3.43h0Z"/><path class="cls-1" d="M41.48,3.45l.11,0Zm.36,0h0Z"/><path class="cls-1" d="M34.11,26c-.49.17-1,.33-1.49.47A32.1,32.1,0,0,1,17.18,24,33.39,33.39,0,0,1,5.69,15.73a22.06,22.06,0,0,1-3.45-5c-.15-.3-.28-.48-.45-.53S-.13,11.33,0,12.45c.11.94,1.67,2.84,2.15,3.41a18.37,18.37,0,0,0-.87,4.78l0,0v.05c0,.51,0,1,0,1.56a17.16,17.16,0,0,0,.25,2.37c0,.16.05.32.08.48l.06.25a17.48,17.48,0,0,0,.81,2.76c.08.22.17.43.26.64l.07.16a17.78,17.78,0,0,0,4.1,5.8,12.73,12.73,0,0,0,1.11,1l.05,0a16.33,16.33,0,0,0,10,3.56h.13a16.32,16.32,0,0,0,5.66-1,16.74,16.74,0,0,0,4.77-2.75l.17-.13c.14-.12.28-.24.41-.37a15.6,15.6,0,0,0,1.61-1.64l0,0,0-.05c.2-.23.39-.46.57-.7a18.15,18.15,0,0,0,1.78-2.88l0-.05,0,0c.17-.36.33-.72.48-1.09a17.48,17.48,0,0,0,.72-2.11l.17-.63Zm-16,12.59a15.48,15.48,0,0,1-8.66-2.71H10l.12,0,.14,0h.07l.16,0h0l.11,0h0l.17,0h0l.21-.06h.06l.09,0h.07l.06,0h.06l.17,0h.12l.16,0,.15,0h.05l.19,0h.19l.14,0h.11a6.87,6.87,0,0,1,1.2,0l.21,0,.28,0h.07l.27.07.13,0,.19.06.07,0h0l.12,0h0l.12.06.06,0a2.26,2.26,0,0,1,.26.16l.13.1.14.11.06.07a1.81,1.81,0,0,1,.33.44,2.83,2.83,0,0,0,.2.28.69.69,0,0,0,.11.13l.06.06a1.38,1.38,0,0,0,.26.22,1.57,1.57,0,0,0,.38.22,3,3,0,0,0,.62.21l.21,0a4.9,4.9,0,0,0,1,.06l.39,0h.09l.21,0,.2,0,.21,0,.22,0a15.45,15.45,0,0,0,2.9-.91h0l0,0,.1-.07.06,0,.07,0,0,0,.17-.1.06,0,.21-.11.18-.1.1-.06.09,0,.14-.07.22-.11.54-.24.17-.07a5.48,5.48,0,0,1,1.87-.41h.37A15.8,15.8,0,0,1,18.12,38.58Zm10.45-3.86-.06,0h0l-.05,0h0l-.06,0h-.06l-.16,0H28l-.2,0h-.27a9.51,9.51,0,0,0-4.37,1.61c-1.42.63-5.25,1.85-6.23.14,0,0-.05-.09-.07-.13L16.74,36a.76.76,0,0,1-.08-.11h0l-.13-.15-.14-.14-.08-.07s0,0,0,0l-.08-.06-.06,0-.21-.15-.23-.12-.12-.06h0l-.12,0h0l-.17-.07h0l-.1,0-.08,0-.12,0-.22-.06-.08,0h-.09l-.09,0-.08,0-.15,0-.13,0h-.32l-.26,0H12.21l-.54.08h-.11l-.1,0h0l-.07,0-.19,0h-.11l-.05,0h-.16l-.07,0H10.7l-.06,0-.12,0,0,0h-.15l-.06,0a6.36,6.36,0,0,1-1.06.09H8.81l-.21,0-.11,0h0l-.09,0h0a17.08,17.08,0,0,1-4.69-5.92l.08,0,.12,0,.08,0,0,0,.08,0,.22.1.1.05.18.1,0,0,.09.05.08,0,.22.16s0,0,0,0l0,0,.13.12,0,0,0,0,0,.05,0,0,.1.11s0,0,0,0l0,.05,0,.05,0,.05,0,.06,0,0c.07.1.13.2.19.3l0,0L6,31a3.38,3.38,0,0,0,3.14,1.81,6.57,6.57,0,0,0,1.14-.08h.13l.06,0,.38-.08h0l.2-.06h0l.12,0h.08l.08,0,.16,0,.16,0,.09,0,.24,0h.16l.14,0h.21l.2,0h.55l.6,0h0l.35,0,.14,0h0l.19,0,.29.08.21.07.08,0,.09,0,.18.09.05,0h0l.07,0,.06,0h0l.17.12h0l.09.07h0l.06.05.06.06,0,0,.05,0,0,.06s0,0,.05.05l.09.12a.35.35,0,0,1,.05.08h0l.05.08a2.12,2.12,0,0,0,.63.7l.09.06.09.06h0l.1.05.1,0,.15.07h0l.07,0,.08,0h0l.08,0,.07,0,.11,0,.21,0,.09,0h0l.14,0h.76l.39,0h.09l.21,0,.2,0,.21,0,.22,0a15.45,15.45,0,0,0,2.9-.91h0l0,0a11.57,11.57,0,0,1,2.19-1.13c1-.38,2.44-.68,3.23.13a3.24,3.24,0,0,0,.42.35h0l.06,0,.11.06,0,0,.11.06.07,0,.2.07A16.09,16.09,0,0,1,28.57,34.72Zm3.7-4.53h0a16.5,16.5,0,0,1-1.75,2.53H30.1l-.06,0h0l-.05,0,0,0h-.05l0,0h0l-.06,0-.05,0-.06,0,0,0,0,0,0,0-.05,0-.06-.06-.06-.06c-1.89-1.92-5.84.64-6.24.9-1.42.63-5.25,1.85-6.23.13l-.07-.12-.07-.1L16.74,33l-.09-.11-.06-.08-.07-.07-.06-.06,0,0-.15-.13,0,0,0,0-.05,0a2.94,2.94,0,0,0-.5-.31L15.56,32h0L15.44,32h0l-.06,0h-.06l-.08,0-.09,0a3.07,3.07,0,0,0-.52-.14l-.07,0h-.32l-.13,0-.21,0H12.72l-.32,0h-.19l-.22,0h-.06c-.36.05-.64.11-.82.15h0l-.08,0h-.18l-.15,0H10.5a4.52,4.52,0,0,1-2.77-.18l-.1,0,0,0,0,0h0l-.11-.07h0l-.11-.08-.06-.05-.12-.1L7,31.35l0,0A3.88,3.88,0,0,1,6.75,31l0-.06h0l0-.06-.1-.17a2.59,2.59,0,0,0-.19-.33.21.21,0,0,0,0-.06,1.3,1.3,0,0,0-.1-.15l0,0a.1.1,0,0,0,0-.05l0-.06-.21-.25,0,0,0-.05-.1-.09a.94.94,0,0,0-.1-.1h0l-.1-.09h0a.39.39,0,0,0-.1-.08l-.1-.09-.06,0L5,29l0,0L4.91,29l-.06,0,0,0-.07,0-.1-.05-.13-.07L4.4,28.7l-.1-.05-.11,0-.06,0-.06,0-.1,0-.12,0-.08,0-.4-.12H3.31a16.77,16.77,0,0,1-.91-2.84h0l.2,0h.07l.12,0,.07,0,.06,0H3l.14,0,.12,0h0l.06,0,.14.05.06,0,.34.14.07,0h0l.13.07.14.07.07,0h0l.12.07a3.53,3.53,0,0,1,.34.24.27.27,0,0,1,.08.07,2,2,0,0,1,.27.23l.06.06h0l.06.06,0,.06.09.1,0,.05,0,0,0,.05c.07.09.14.2.21.31l0,0,.09.17a3.59,3.59,0,0,0,3.31,1.91H9.7l.14,0h0l.21,0h0l.16,0h0l.09,0h.15l.07,0,.15,0,.08,0h.05l.11,0h0l.17,0c.19-.05,3.7-.93,5.24.65l0,0a2.29,2.29,0,0,1,.32.43,2.56,2.56,0,0,0,1.94,1.23,6.17,6.17,0,0,0,1.72,0l.21,0,.33-.05.23,0a15.78,15.78,0,0,0,3.07-1h.05a12,12,0,0,1,2.34-1.2c1.1-.41,2.59-.73,3.44.14a4.09,4.09,0,0,0,.33.28l.09.07.15.09.09.06.2.09a2,2,0,0,0,.8.14h.14l.12,0h.22Zm.51-1h0l-.1.06-.12.06,0,0-.15.07-.06,0-.06,0h-.43A1.55,1.55,0,0,1,30.6,29c-2-2-6.18.68-6.59,1-1.52.67-5.59,2-6.63.13a2.74,2.74,0,0,0-.3-.43L17,29.57a3.16,3.16,0,0,0-.88-.67L16,28.84l-.11-.05a3.26,3.26,0,0,0-.62-.22l-.1,0h0l-.24-.05-.3-.05-.19,0-.35,0H12.81l-.22,0h-.21l-.65.09-.18,0H11.3l-.08,0h0l-.16,0h0S7.63,29.78,6.4,27.4a1,1,0,0,0-.1-.17l0-.09,0-.07L6.15,27l-.05-.07a.56.56,0,0,0,0-.08L6,26.76l0-.08-.06-.06-.06-.08-.06-.06-.06-.07a.23.23,0,0,0-.07-.07,2.81,2.81,0,0,0-.31-.29L5.26,26l-.07,0-.05,0L5,25.8l0,0,0,0-.07,0-.07,0-.29-.17-.15-.08-.08,0-.07,0-.08,0-.08,0-.23-.1-.07,0-.08,0L3.27,25,3.2,25,3,24.89l-.07,0-.07,0-.28-.06h0l-.12,0-.13,0h0A17.09,17.09,0,0,1,2,22.24c0-.24,0-.48,0-.71A25.67,25.67,0,0,0,10.9,27a32.4,32.4,0,0,0,14.35,1.61,40.19,40.19,0,0,0,8.45-1.76A17.62,17.62,0,0,1,32.78,29.21Z"/></g></g></g></svg>