<svg xmlns="http://www.w3.org/2000/svg" viewBox="0 0 145.81 46.76"><defs><style>.cls-1{fill:#fff;}</style></defs><g id="Layer_2" data-name="Layer 2"><g id="Layer_2_copy" data-name="Layer 2 copy"><polygon class="cls-1" points="88.07 30.23 82.95 29.86 82.86 17.49 71.67 11.64 71.67 5.62 86.85 13.51 86.83 29.08 88.07 30.23"/><polygon class="cls-1" points="54.58 30.23 59.64 29.94 59.78 17.49 70.98 11.64 70.98 5.62 55.79 13.51 55.82 29.08 54.58 30.23"/><polygon class="cls-1" points="65.31 16.36 65.31 22.7 61.38 23.13 61.38 18.4 65.31 16.36"/><polygon class="cls-1" points="61.38 29.65 65.31 29.65 65.31 23.85 61.38 24.31 61.38 29.65"/><polygon class="cls-1" points="66.91 22.52 70.81 21.95 70.81 13.22 66.91 15.47 66.91 22.52"/><polygon class="cls-1" points="66.91 29.54 70.81 29.54 70.81 23.13 66.91 23.62 66.91 29.54"/><polygon class="cls-1" points="63.34 8.78 58.72 11.34 58.72 5.12 63.34 0 63.34 8.78"/><path class="cls-1" d="M3.77,41.91c0,.84.07,1.11.38,1.32s.78.3,3.52.3c4.17,0,4.17,0,4.17-1.24,0-.84-.29-1-1.53-1.07l-3.06-.13L5.18,41l-1-.05c-3.16-.1-4-1-4-4.07C.11,34.2.8,33,2.56,32.59a33.84,33.84,0,0,1,5.57-.26c3.71,0,5,.19,5.95.86s1.07,1.45,1.07,3.11c0,.09,0,.38,0,.65H11.38c0-.77-.09-1-.38-1.15s-.81-.25-3.56-.25c-3.29,0-3.56.08-3.56,1.11,0,.52.17.8.58.9a26.25,26.25,0,0,0,4.09.25c4.21.15,5,.26,5.85.82s1.21,1.58,1.21,3.53c0,2.44-.54,3.63-1.86,4.18-.76.32-2.37.42-6.18.42s-5.5-.19-6.4-.82S0,44.51,0,42.58v-.67Z"/><path class="cls-1" d="M31.08,32.54v3.3H20.79v2h9.78V41H20.79v2.23H31.16v3.36H17v-14Z"/><path class="cls-1" d="M48.39,41.15c0,.8,0,1.12,0,1.33,0,2.26-.54,3.29-2,3.8a17.13,17.13,0,0,1-5.26.48c-5,0-6.6-.17-7.63-.82a3.19,3.19,0,0,1-1.38-2.73c-.06-.63-.1-1.78-.1-3.57,0-3.13.08-4.28.37-5.06.69-1.89,2.08-2.25,8.76-2.25,3.4,0,4.59.15,5.47.65,1.09.61,1.47,1.64,1.47,3.89v.69H44.3c0-.92-.08-1.11-.31-1.32s-1.41-.4-3.86-.4-3.14.08-3.52.42S36,37.5,36,39.62c0,3.59,0,3.63,4.15,3.63,4.26,0,4.32,0,4.34-2.1Z"/><path class="cls-1" d="M53.58,32.54V39a14.31,14.31,0,0,0,.13,2.79c.21,1.12,1,1.35,4.26,1.35,2.68,0,3.49-.13,3.91-.63s.4-.74.46-2.06c0-.48,0-1.16,0-1.45V32.54h3.89V39a38.51,38.51,0,0,1-.19,4.39,3.4,3.4,0,0,1-2.64,3,24.56,24.56,0,0,1-5.4.34c-4.88,0-6.41-.29-7.36-1.41-.63-.71-.84-1.57-.94-3.63,0-.46,0-.46,0-2.73V32.54Z"/><path class="cls-1" d="M68,32.54h9.39c4.4,0,4.4,0,5.22.55,1,.65,1.26,1.57,1.26,4,0,2.08-.19,2.88-.88,3.44a2.55,2.55,0,0,1-1.49.59c2,.25,2.32.88,2.24,4.12v1.3H79.91v-.73c0-1.58-.07-2.08-.38-2.44S79,43,77.37,43H71.88v3.55H68Zm9.35,7c2,0,2,0,2.22-.25s.42-.63.42-1.51-.15-1.34-.56-1.53-.32-.13-2.08-.15H71.88v3.44Z"/><path class="cls-1" d="M89.29,32.54v14H85.21v-14Z"/><path class="cls-1" d="M91.08,32.54h8.74a20.1,20.1,0,0,1,3.47.13c2.41.4,3.09,1.53,3.09,5.12,0,3.11-.51,4.33-2,4.94-.86.31-1.72.4-4.48.4H95v3.42H91.08Zm8.74,7.08c1.8,0,1.88,0,2.2-.23s.48-.63.48-1.6-.17-1.42-.67-1.61c-.27-.11-.3-.11-2-.13H95v3.57Z"/><path class="cls-1" d="M107.67,32.54h9.39c4.4,0,4.4,0,5.22.55s1.26,1.57,1.26,4c0,2.08-.19,2.88-.88,3.44a2.55,2.55,0,0,1-1.49.59c2,.25,2.31.88,2.24,4.12v1.3h-3.83v-.73c0-1.58-.07-2.08-.38-2.44S118.65,43,117,43h-5.49v3.55h-3.88Zm9.35,7c2,0,2,0,2.22-.25s.42-.63.42-1.51-.15-1.34-.56-1.53c-.26-.13-.32-.13-2.08-.15h-5.47v3.44Z"/><path class="cls-1" d="M138.31,31.65a1.62,1.62,0,0,0-.66-.45,2.3,2.3,0,0,0-.79-.14h-1.09v6.05h1.09a2.32,2.32,0,0,0,.8-.13,1.56,1.56,0,0,0,.66-.46,2.35,2.35,0,0,0,.45-.88,5,5,0,0,0,.16-1.39v-.48a4.25,4.25,0,0,0-.16-1.28A2.24,2.24,0,0,0,138.31,31.65Z"/><path class="cls-1" d="M145.12,30.4h-11c-.63,0-.69,0-.69.63v6c0,.6.06.62.69.62h11c.63,0,.69,0,.69-.62V31C145.81,30.43,145.75,30.4,145.12,30.4Zm-5.3,5a3.11,3.11,0,0,1-.64,1,2.73,2.73,0,0,1-1,.66,3.62,3.62,0,0,1-1.3.23h-3v-.15h.89V31.06h-.89v-.15h3a3.51,3.51,0,0,1,1.28.22,2.94,2.94,0,0,1,1,.63,2.89,2.89,0,0,1,.65,1A3.21,3.21,0,0,1,140,34,3.81,3.81,0,0,1,139.82,35.35Zm5.32,1.91h-4.53V37l3.48-6h-2a1.57,1.57,0,0,0-.49.07,1.1,1.1,0,0,0-.42.24,1.27,1.27,0,0,0-.3.46,2.06,2.06,0,0,0-.13.72h-.14V30.91h4.41v.23l-3.52,6h1.93a2,2,0,0,0,.61-.09,1.31,1.31,0,0,0,.46-.3,1.55,1.55,0,0,0,.3-.54,3.06,3.06,0,0,0,.13-.82h.16Z"/><path class="cls-1" d="M138.3,38.05c0,.41,0,1.29,0,1.89,0,1.7-.14,2.31-.58,2.68s-1.14.51-4.26.51-3.83-.07-4.34-.51-.58-1-.58-2.71a8,8,0,0,1,.31-3.06c.36-.77.7-.87,3.93-.88V32.33c-4.79,0-5.92.18-6.86,1s-1.26,2.25-1.26,6.15c0,4.12.27,5.5,1.26,6.34s2.16,1,7.54,1,6.48-.15,7.46-1,1.26-2.22,1.26-6.25c0-.39,0-1.15,0-1.49Z"/></g></g></svg>