<svg xmlns="http://www.w3.org/2000/svg" viewBox="0 0 110.38 105.13"><defs><style>.cls-1{fill:#fff;}</style></defs><g id="Layer_2" data-name="Layer 2"><g id="Layer_2_copy" data-name="Layer 2 copy"><path class="cls-1" d="M66.48,22.84c2.63.67,4.65-.59,6.68-2.15,1.07,3.29.58,6.47-.24,9.74,2.14.59,4.21,1,6.42.06a30.36,30.36,0,0,1-1.86,10.14,16.26,16.26,0,0,0,7.44.78,22.08,22.08,0,0,1-1.69,5.93,20.88,20.88,0,0,1-3.12,5.32c1.35,1.31,3.32,2.09,6.07,2.42A34.68,34.68,0,0,1,83,60.42,22.91,22.91,0,0,1,78.93,65c.81.53,1.59,1,2.31,1.54s1.64,1.31,2.41,2a3.13,3.13,0,0,1,.72,1,1.05,1.05,0,0,1-.72,1.59,5.85,5.85,0,0,1-1.51.21c-3,0-6,0-8.92,0H49.58c-5.3,0-10.6,0-15.9,0a9.85,9.85,0,0,1-2.1-.22,1.06,1.06,0,0,1-.77-1.68,3.66,3.66,0,0,1,.93-1.2c1.16-.94,2.38-1.82,3.58-2.72.27-.2.57-.36.9-.57a31.32,31.32,0,0,1-7.29-9.93,10.44,10.44,0,0,0,6.15-2.32,22.43,22.43,0,0,1-3.14-5.33,23.7,23.7,0,0,1-1.72-6,16.77,16.77,0,0,0,7.44-.78,30.17,30.17,0,0,1-1.84-10.15c2.17.92,4.23.53,6.39,0C41.44,27.21,40.93,24,42,20.7c2,1.51,4,2.83,6.72,2.13.06-.44.1-.83.18-1.21a8.85,8.85,0,0,1,1.66-3.68,68.62,68.62,0,0,0,5.26-7.72c.52-.91,1-1.86,1.44-2.79A3.44,3.44,0,0,1,57.53,7c.13.06.21.07.23.11a44.87,44.87,0,0,0,4.73,7.94c.68,1,1.38,1.94,2.11,2.88a8.27,8.27,0,0,1,1.76,4.35C66.38,22.45,66.43,22.62,66.48,22.84Zm-3.71,48c.73,0,1.35,0,1.95,0a1.46,1.46,0,0,0,1.47-.74A23.58,23.58,0,0,0,70,53.51a30.78,30.78,0,0,0-2.2-7.92,77.2,77.2,0,0,0-9.93-17.06,3,3,0,0,0-.31-.28c-.17.23-.32.4-.45.59-1.59,2.34-3.24,4.65-4.74,7.05a56.94,56.94,0,0,0-6.07,12.78,25.79,25.79,0,0,0-.51,14.41,20.27,20.27,0,0,0,3.35,7.2c.16.21.39.52.6.52a11.71,11.71,0,0,0,2.64,0l-.45-.71a33,33,0,0,1-3-6,19.87,19.87,0,0,1-.49-13.64,66.88,66.88,0,0,1,2.67-7A103.23,103.23,0,0,1,57,32.35c.17-.27.39-.5.66-.85.26.38.44.62.59.89,1.48,2.67,3,5.32,4.43,8a64.66,64.66,0,0,1,4.12,10,19.89,19.89,0,0,1-.42,13.48A32.7,32.7,0,0,1,63.27,70ZM52.51,26.74A9.39,9.39,0,0,1,54,21.52c.47-.77,1-1.5,1.54-2.24s1.1-1.51,1.64-2.27c.31-.45.54-.45.89,0s.91,1.16,1.34,1.76c.61.85,1.24,1.69,1.78,2.59a9.63,9.63,0,0,1,1.48,4.9c0,.16,0,.31.08.49a7.87,7.87,0,0,1,1.61-.7,1.65,1.65,0,0,0,1.36-1.59,7.59,7.59,0,0,0,.14-.92,7.49,7.49,0,0,0-1.54-5.1,66.61,66.61,0,0,1-6.5-9.94,1.65,1.65,0,0,0-.21-.27,2.22,2.22,0,0,0-.17.22A64.4,64.4,0,0,1,51,18.33,8.17,8.17,0,0,0,49.37,22a5.86,5.86,0,0,0,.33,3.18,1.05,1.05,0,0,0,.45.56C50.89,26.12,51.65,26.4,52.51,26.74ZM43.24,43a22.82,22.82,0,0,1-7.88,1.18A13.46,13.46,0,0,0,37.46,50a8.47,8.47,0,0,0,4.89,3.58,5.87,5.87,0,0,0,2.18.28l.56-3.12a5.89,5.89,0,0,1-4.76-3.32,5.46,5.46,0,0,1,5.63.37l1.11-3c-.71-.28-1.35-.5-2-.79S43.92,43.35,43.24,43ZM68.1,44.85l1.1,2.91c2.38-1.16,3.87-1.23,5.6-.31a5.85,5.85,0,0,1-4.75,3.29l.58,3.12a8.37,8.37,0,0,0,6.16-2.72,11.86,11.86,0,0,0,2.63-5.07c.15-.6.25-1.21.4-1.92A22.65,22.65,0,0,1,72,43ZM35.43,53.18a11.72,11.72,0,0,1-5.54,2.38c.09.22.14.41.23.58a34.24,34.24,0,0,0,4.08,6,15.35,15.35,0,0,0,3,2.76,7.44,7.44,0,0,0,2.53,1.15,1.2,1.2,0,0,0,1.1-.24c.61-.45,1.28-.83,1.92-1.24a4.34,4.34,0,0,0,.36-.31c-4.53-1.21-7-4.37-8.45-8.58a6.65,6.65,0,0,0,3-.55ZM72,64.29c.91.62,1.74,1.19,2.58,1.74a.83.83,0,0,0,.56.09,6.5,6.5,0,0,0,1.22-.34,10.11,10.11,0,0,0,3.34-2.29,31,31,0,0,0,5.42-7.57,1.67,1.67,0,0,0,.12-.36,12,12,0,0,1-5.55-2.37l-2.19,2a6.91,6.91,0,0,0,2.86.51,11.84,11.84,0,0,1-2.33,4.69A10.55,10.55,0,0,1,72,64.29ZM57.56,50.65c.16.27.28.45.37.63A14.9,14.9,0,0,0,61.6,56a2.37,2.37,0,0,0,1.43.7c-.59-5.18-2.69-9.69-5.49-14.14-.78,1.39-1.5,2.61-2.15,3.86a29.91,29.91,0,0,0-3.1,9c-.07.4-.07.8-.11,1.32a6.06,6.06,0,0,0,2.3-1.68,21.68,21.68,0,0,0,1.63-2.06C56.62,52.33,57,51.53,57.56,50.65Zm0-29.07a24.56,24.56,0,0,1,2.13,5.05,2.42,2.42,0,0,1-.59,2.67L60,30.46c1.5-1.44,2.41-3,2.07-5a12.88,12.88,0,0,0-.6-2.21,14.57,14.57,0,0,0-2.4-4l-1.43-1.79c-.93,1.25-1.84,2.42-2.68,3.62a10.28,10.28,0,0,0-1.79,4.36,5.13,5.13,0,0,0,2.16,4.94l.77-1.1a3.3,3.3,0,0,1-.43-3,10.07,10.07,0,0,1,.43-1.2C56.53,23.91,57,22.81,57.57,21.58Zm-16.47,13c-.61,5,1.68,8.68,6.26,9.57l.88-2c-2.23-1-3.43-2.84-3.05-4.64a5.15,5.15,0,0,1,4.41,1.94L51,37,47.4,34.49A9.83,9.83,0,0,1,41.1,34.57ZM64.16,37l1.41,2.5a5.16,5.16,0,0,1,4.52-2c-.12,2.27-1,3.87-3.18,4.63l.88,2c4.62-.89,6.86-4.66,6.26-9.57a9.83,9.83,0,0,1-6.3-.07Zm6.57,20.74a8.63,8.63,0,0,1,4.43.62,4.74,4.74,0,0,1-4.74,2.69l-.61,2.84a8.94,8.94,0,0,0,6.11-2.12c1.75-1.42,3.55-4.18,3.64-5.52l-1-.15a13,13,0,0,1-4.34-1.85,1.28,1.28,0,0,0-.77-.25c-.91.15-1.81.38-2.71.57ZM44.42,54.55c-.79-.15-1.57-.27-2.33-.48a1.36,1.36,0,0,0-1.19.18,11.22,11.22,0,0,1-5.34,2c.64,4,6,8.23,9.78,7.56L44.71,61a4.74,4.74,0,0,1-4.78-2.79,22.75,22.75,0,0,1,2.24-.48,20.88,20.88,0,0,1,2.25,0ZM31,42.07a2.53,2.53,0,0,0,0,.48A23.28,23.28,0,0,0,35.3,52a25.05,25.05,0,0,0,2.6,2.55.87.87,0,0,0,.74.23,6.82,6.82,0,0,0,2.1-1.19c-4-2.18-5.49-5.77-6-10,.62,0,1.12,0,1.63,0s1.08,0,1.61-.08,1-.15,1.47-.23l-1.56-2.13A18.36,18.36,0,0,1,31,42.07ZM74.28,53.66c.78.43,1.38.74,2,1.08a.76.76,0,0,0,1-.12,26.6,26.6,0,0,0,2.05-1.91,22.77,22.77,0,0,0,4.89-10.15,3,3,0,0,0,0-.5,18.23,18.23,0,0,1-6.94-.88l-1.56,2.11a16.39,16.39,0,0,0,4.69.3,14.71,14.71,0,0,1-1.63,5.68A9.87,9.87,0,0,1,74.28,53.66ZM54.77,31.09c-.66-1-1.3-1.82-1.79-2.73a2.92,2.92,0,0,0-1-1.18,9.51,9.51,0,0,0-4.53-1.25,6,6,0,0,0-1.74,0c-.55,4.65,2.28,9.7,5.77,10.29l.63-1.06c-2.25-1-3-2.76-3.2-5a5.24,5.24,0,0,1,4.85,2.47Zm8.32,4.09c.13.23.23.43.34.61s.26.36.41.56c.38-.18.71-.32,1-.5a8.65,8.65,0,0,0,4.5-7,11,11,0,0,0,.11-2.93c-.64,0-1.26,0-1.87,0a8.94,8.94,0,0,0-4.5,1.33c-.26.17-.58.35-.68.61a8.78,8.78,0,0,1-2.15,3.06l1.13,1.65c1.6-1.9,3.11-2.61,4.89-2.31C66,32.44,65.33,34.28,63.09,35.18ZM36.44,31.39c0,.33,0,.63,0,.93.09.82.17,1.64.29,2.45a20.79,20.79,0,0,0,1.61,5.88,6.18,6.18,0,0,0,1.51,2.13c.19.15.45.34.66.31a7.9,7.9,0,0,0,2.25-.6,10,10,0,0,1-2.07-8.72,5.49,5.49,0,0,0,3,.64L42.37,31A12.9,12.9,0,0,1,36.44,31.39Zm35.05,3a6.37,6.37,0,0,0,3.11-.68c.35,3.25,0,6.23-2.26,8.79.65.18,1.21.29,1.73.48a1.22,1.22,0,0,0,1.43-.41,8.65,8.65,0,0,0,1.86-3.3,25.6,25.6,0,0,0,1.22-5.8c.07-.69.12-1.39.18-2.13a12.84,12.84,0,0,1-6-.37ZM42.25,21.63c-.85,4.66.3,8.78,2.09,12.81A8.34,8.34,0,0,0,47.15,34c-1.92-2.62-2.12-5.53-2.08-8.64l4,.15-.44-2C46.26,23.94,44.26,23,42.25,21.63ZM70.8,34.53c.34-.84.64-1.52.89-2.21a20.4,20.4,0,0,0,1.44-9.14c0-.49-.16-1-.26-1.54-2,1.43-4,2.3-6.4,1.8L66,25.52a19.58,19.58,0,0,1,4-.1c.06,3.08-.18,6-2.11,8.61Zm7.34,36.31a3.8,3.8,0,0,0-.32-.54C76.89,69.24,76,68.15,75,67.15a10.09,10.09,0,0,0-3.35-2.27,3.21,3.21,0,0,0-2.07-.3l-1,2.67a1.06,1.06,0,0,0,.27.13,5.51,5.51,0,0,1,3.83,2.28,2.65,2.65,0,0,0,2.7,1.19C76.22,70.77,77.12,70.84,78.14,70.84ZM45.56,64.56a4.51,4.51,0,0,0-3,.8,17.28,17.28,0,0,0-5.19,4.92,3.74,3.74,0,0,0-.26.53h4.49a7.31,7.31,0,0,1,5.06-3.52Zm30,2.18s0,.1,0,.13a21.94,21.94,0,0,1,3.12,3.68.66.66,0,0,0,.47.27c1.32,0,2.65,0,4-.15.87-.08,1-.54.52-1.28a1.89,1.89,0,0,0-.2-.27,20.75,20.75,0,0,0-5-3.72ZM36.23,70.81c.57-.74,1.08-1.46,1.64-2.13s1.19-1.31,1.76-1.92l-3-1.37a24.15,24.15,0,0,0-4.53,3.28,4.44,4.44,0,0,0-.81,1.07c-.23.45-.06.76.43.89a4.44,4.44,0,0,0,1.08.18C34,70.83,35.08,70.81,36.23,70.81Zm26.46-29H52.45a15.72,15.72,0,0,0-1,2.31c1.27,0,2.43,0,3.58,0a1.35,1.35,0,0,0,1.48-.82,3.61,3.61,0,0,1,1.07-1.45,3.85,3.85,0,0,1,.39.44c.3.45.6.9.86,1.37a.82.82,0,0,0,.82.45c1.19,0,2.38,0,3.57,0,.12,0,.25-.06.48-.11ZM54,64.91c2.45-1.91,4.86-1.85,7.29,0,.2-.46.35-.85.53-1.23a.7.7,0,0,0-.11-.85C59.86,60.62,57,59.69,54.33,62,53,63.21,52.94,63.1,54,64.91ZM52.66,41.35a82.72,82.72,0,0,0,9.79-.08l-1.11-2.2H53.81Zm5.07,13.46c-.87.91-1.66,1.83-2.57,2.61s-1.95,1.42-3,2.14l.32,1.54a6,6,0,0,1,5.05-2.5,6.08,6.08,0,0,1,5.1,2.5L63,59.52A15.22,15.22,0,0,1,57.73,54.81Zm-.06-1.22a9.87,9.87,0,0,0,2.27,3A15.44,15.44,0,0,0,63,58.85V57.47c-2.61-1-4-3.34-5.46-5.58-1.47,2.26-2.84,4.5-5.4,5.56v1.38c.56-.35,1-.61,1.45-.91A11.7,11.7,0,0,0,57.67,53.59Zm2.52,13.48c-1.14-1.8-4.48-1.55-5.2,0l2.58,3.68Zm-5-30.5L54,38.72h7.15c-.37-.7-.67-1.3-1-1.87a.79.79,0,0,0-.56-.27C58.13,36.56,56.68,36.57,55.15,36.57Zm7,26a1,1,0,0,0-.09-1.42,7.93,7.93,0,0,0-1.45-1.28,6,6,0,0,0-4.67-.58A4.86,4.86,0,0,0,53,61.23a.91.91,0,0,0,0,1.32C55.76,59.53,59.16,59.31,62.14,62.57ZM47,68a5.08,5.08,0,0,0-4.53,2.79,40.24,40.24,0,0,0,6.22-.08Zm25.9,2.82a6.7,6.7,0,0,0-3.26-2.67,3.62,3.62,0,0,0-1.08-.2.6.6,0,0,0-.48.24c-.54.84-1,1.71-1.6,2.63ZM57.63,23c-.33.71-.62,1.23-.83,1.78A21.86,21.86,0,0,0,56,27a2,2,0,0,0,.38,1.77l1.16-1.48,1.15,1.48a1.22,1.22,0,0,0,.53-1.43A15.73,15.73,0,0,0,57.63,23ZM55.86,44.33c-1.5,0-2.8,0-4.1,0a.73.73,0,0,0-.56.24c-.28.54-.49,1.12-.76,1.75H54.8Zm3.46,0c.33.63.62,1.15.87,1.67a.58.58,0,0,0,.63.33h3.91l-.84-2ZM65.71,49H61.58l.78,2.1h4ZM52.79,51.1,53.56,49H49.44l-.66,2.13ZM61,65.55c-1.56-2.15-5.54-1.95-6.72,0,.06.13.12.28.2.43s.18.26.27.4a4.27,4.27,0,0,1,5.78,0Zm-7.23-16.9.88-1.94H50.31a6.15,6.15,0,0,0-.64,1.94Zm11.15-1.94H60.55l.87,1.9h4.16ZM52.45,34.59a9.62,9.62,0,0,1,.54-.82.86.86,0,0,0,0-1.15,4.28,4.28,0,0,0-3.43-1.85A3.88,3.88,0,0,0,52.45,34.59Zm13.11-3.75a4,4,0,0,0-3.18,1.45c-.6.75-.61.88-.07,1.7.13.21.28.41.41.59A3.83,3.83,0,0,0,65.56,30.84ZM45.74,48.49a4,4,0,0,0-4.43-.75,4.27,4.27,0,0,0,3.89,2.37.45.45,0,0,0,.11-.13Zm24.13,1.59a4,4,0,0,0,3.95-2.45,4.36,4.36,0,0,0-4.42.82ZM55.35,36.23h4.46l-1.52-2.64H56.86Zm-2.7,15.26h-4l-.41,1.89h3.87Zm9.84,0L63,53.38h3.87l-.45-1.92Zm1,4.22h3.74l-.25-2c-1.34,0-2.56,0-3.86,0Zm-11.81,0L52,53.75H48.16l-.23,1.93ZM69.46,38.16a4.2,4.2,0,0,0-2.86,1c-.7.63-.74.91-.31,1.76.11.22.25.42.36.62A3.58,3.58,0,0,0,69.46,38.16ZM48,56.07V58h3.47l.12-1.91Zm19.13,2v-2h-3.6l.11,2h3.49ZM45.72,38.15a3.43,3.43,0,0,0,2.82,3.39l.39-.72c.34-.7.32-.93-.24-1.5A4.2,4.2,0,0,0,45.72,38.15Zm17.72,22h3.39l.28-1.83H63.64ZM51.51,58.34H48.05l.27,1.82h3.39Zm14.64,4.37c-1.23,0-2.31-.05-3.38,0L62,64.67h3.41Zm-13.78,0c-1.13,0-2.18-.05-3.36,0l.7,1.91h3.4Zm-3.46-.26c1.17,0,2.22,0,3.36,0l-.48-1.91h-3.4Zm6.74,6.67c-.4-.63-.7-1.13-1-1.62-.09-.13-.25-.28-.38-.28-1.06,0-2.12,0-3.35,0,.39.7.68,1.24,1,1.75a.66.66,0,0,0,.48.26C53.42,69.2,54.46,69.16,55.65,69.12Zm3.84,0,3.34.09a.47.47,0,0,0,.36-.16,5.92,5.92,0,0,0,.94-1.86c-.8,0-1.54,0-2.26,0a1.47,1.47,0,0,0-1.75.94A5.76,5.76,0,0,1,59.49,69.12Zm3.87-8.61-.46,1.9h3.35l.49-1.9Zm-2.43,6.36h3.5l.84-1.82H61.84Zm-6.69,0-1-1.87c-1.11,0-2.2,0-3.42,0l.87,1.84Zm-9.61-6.45c0-.59-.08-1.09-.12-1.6,0-.28-.09-.51-.41-.54a6.74,6.74,0,0,0-3.3.36A4,4,0,0,0,44.63,60.44Zm25.88,0a4,4,0,0,0,3.85-1.82,6.87,6.87,0,0,0-3.67-.24ZM62.07,70.79l.86-1.35c-1.26,0-2.32,0-3.39,0a.62.62,0,0,0-.43.2c-.29.33-.53.7-.87,1.14Zm-5.24,0a1.87,1.87,0,0,0-2.3-1.35,1,1,0,0,1-.17,0l-2.14.05.87,1.3Zm.75-38.38-.45.78H58Z"/><path class="cls-1" d="M84.42,88.52a1.91,1.91,0,0,0,.29-.36c1.53-3.07,3.06-6.14,4.56-9.22a12,12,0,0,0,.53-1.6l1.87-.25a1.32,1.32,0,0,1-.14,1.31c-1.17,2.45-2.37,4.9-3.53,7.35-.88,1.87-1.74,3.75-2.6,5.63a1.32,1.32,0,0,0-.08,1.32c.22-.08.5-.11.64-.26a10.2,10.2,0,0,0,1.58-2c1.23-2.39,2.35-4.83,3.52-7.25.62-1.28,1.26-2.54,1.86-3.82.3-.63.52-1.3.83-2.06l1.75-.25a1.28,1.28,0,0,1-.11,1.34c-1.1,2.3-2.22,4.59-3.32,6.89-.92,2-1.81,3.9-2.72,5.86a3.24,3.24,0,0,0-.28.79,1.75,1.75,0,0,0,.09.63c.21,0,.47,0,.61-.12a4.93,4.93,0,0,0,1-1c.62-.94,1.15-1.94,1.76-2.89a11.51,11.51,0,0,1,3.7-3.9l.38-.2a1.62,1.62,0,0,1,2.3.45c.41-1.12,1.3-.63,2.15-.67a6.4,6.4,0,0,1-.23.67c-.9,1.92-1.82,3.83-2.72,5.76A8.06,8.06,0,0,0,97.63,92a4.45,4.45,0,0,0,0,1.07,4.59,4.59,0,0,0,.86-.59,17.62,17.62,0,0,0,1.17-1.56c.38-.59.71-1.23,1.08-1.83.14-.22.33-.41.59-.74,0,.27.06.37,0,.42-.65,1.09-1.29,2.2-2,3.27a4.9,4.9,0,0,1-1.79,1.77c-1,.54-1.57.23-1.66-.89,0-.3,0-.6,0-1.08-.31.33-.5.57-.71.77a15,15,0,0,1-1.65,1.45c-.77.51-1.42.23-1.74-.64a4.08,4.08,0,0,1-.23-1,9.66,9.66,0,0,1,0-1.11c-.26.31-.39.51-.56.67-.55.56-1.1,1.14-1.69,1.66a1.9,1.9,0,0,1-.85.35.86.86,0,0,1-1.15-.7,10.46,10.46,0,0,1-.16-1.19c-.19.19-.32.34-.48.47A10.66,10.66,0,0,1,85,93.88c-.92.48-1.54.07-1.64-1a6.08,6.08,0,0,1,.52-2.82c.2-.52.38-1,.57-1.58Zm14-3.06c-.09-.18-.16-.53-.34-.62a.89.89,0,0,0-.76.15,5.68,5.68,0,0,0-1,1,19.11,19.11,0,0,0-2.47,4.24,10.08,10.08,0,0,0-.5,1.43,1.59,1.59,0,0,0,0,.75c.1.52.48.73.94.46a3.2,3.2,0,0,0,.88-.76,21.23,21.23,0,0,0,3.08-5.72C98.25,86.13,98.29,85.84,98.38,85.46Z"/><path class="cls-1" d="M24.13,92.92a1.66,1.66,0,0,0,1.35-.64,10,10,0,0,0,1.27-1.69c.76-1.33,1.47-2.68,2.16-4a8.43,8.43,0,0,0,.63-1.74.68.68,0,0,1,.68-.62c.44,0,.89,0,1.44,0a4.46,4.46,0,0,1-.18,1c-.36.86-.73,1.72-1.15,2.56-.61,1.24-1.26,2.47-1.87,3.71a3.23,3.23,0,0,0-.35,1.13.81.81,0,0,0,.3.63c.11.08.43,0,.6-.11a3.46,3.46,0,0,0,.7-.62,10.5,10.5,0,0,0,1.76-2.69,10.68,10.68,0,0,1,3.42-4.57,7.55,7.55,0,0,1,1.31-.78c.89-.4,1.36-.27,2.06.52l.5-.69h1.33a2.52,2.52,0,0,1,.37.08c-.08.22-.13.4-.21.58-.92,1.94-1.85,3.88-2.77,5.83A9.06,9.06,0,0,0,37,92.05a5.05,5.05,0,0,0-.07,1c.33-.14.57-.18.69-.32a15.9,15.9,0,0,0,1.32-1.65c.43-.63.78-1.31,1.18-2,.14-.22.33-.41.53-.66.07.18.12.25.11.27-.67,1.12-1.31,2.25-2,3.35a5,5,0,0,1-1.87,1.82c-.92.46-1.39.23-1.56-.78-.06-.35-.08-.7-.13-1.18-.38.41-.66.76-1,1.06a8.28,8.28,0,0,1-1.29,1.09,1.06,1.06,0,0,1-1.75-.61,10,10,0,0,1-.33-1.55l-.59.76a4.14,4.14,0,0,1-2.08,1.53c-1.1.29-1.71-.12-1.79-1.25,0-.23,0-.45,0-.82l-.66.67a4.87,4.87,0,0,1-2,1.35,1,1,0,0,1-1.46-.83,2.12,2.12,0,0,1,0-1,10.77,10.77,0,0,1,.71-1.89c.68-1.34,1.41-2.65,2.11-4,.21-.39.48-.78.24-1.3a2.18,2.18,0,0,0-1.62,1,18.87,18.87,0,0,0-1.56,2.22c-1,1.69-1.89,3.42-2.79,5.15a.77.77,0,0,1-.86.5c-.36,0-.72,0-1.11,0a2.09,2.09,0,0,1,.43-1.4c.94-1.87,1.91-3.73,2.87-5.6a5.59,5.59,0,0,0,.92-2.83h1.92c.35.43-.07.84-.06,1.37l.79-.69A2.82,2.82,0,0,1,26,84a1.07,1.07,0,0,1,1.21,1.12,4.5,4.5,0,0,1-.73,2.57q-1.11,2.05-2.19,4.13A1.16,1.16,0,0,0,24.13,92.92Zm8.42-.8c.11.23.19.6.42.78s.65,0,.92-.21a4.18,4.18,0,0,0,.59-.6,22.16,22.16,0,0,0,3.05-5.64,2.42,2.42,0,0,0,.18-.91,1,1,0,0,0-.31-.71.75.75,0,0,0-.69.12,6.32,6.32,0,0,0-1.08,1,20.15,20.15,0,0,0-2.76,4.94A9.3,9.3,0,0,0,32.55,92.12Z"/><path class="cls-1" d="M58.51,94a5.11,5.11,0,0,1,.6-2.29c.8-1.69,1.63-3.36,2.45-5l.42-.87c-1.2,0-2.29,0-3.38,0a1.07,1.07,0,0,0-.64.47c-.41.55-.76,1.13-1.14,1.69A36.62,36.62,0,0,1,53,93a6.59,6.59,0,0,1-2.13,1.52,2.84,2.84,0,0,1-3.66-1.25,5.74,5.74,0,0,1-.68-2,10.7,10.7,0,0,1,.81-6,9.82,9.82,0,0,1,2.8-3.58,6.26,6.26,0,0,1,1.7-.93,2.25,2.25,0,0,1,3.11,1.64A5.16,5.16,0,0,1,54,87.2a7.78,7.78,0,0,1-.7.71c-.36-.4-.1-.66,0-.93.23-.57.47-1.14.67-1.73a2.73,2.73,0,0,0,.08-.76,2.19,2.19,0,0,0-3.28-2.08,4,4,0,0,0-1.34,1,7.28,7.28,0,0,0-1.62,6.35,4.24,4.24,0,0,0,.81,1.65,1.88,1.88,0,0,0,2.28.67,6.74,6.74,0,0,0,1.75-1,24.81,24.81,0,0,0,4.39-5.21c-.22-.09-.44-.12-.55-.25a.63.63,0,0,1-.16-.52c0-.15.23-.27.37-.38a.35.35,0,0,1,.25,0c.81.17,1.22-.3,1.63-.91.94-1.45,1.93-2.87,2.92-4.29A16.84,16.84,0,0,1,64.72,76a3.74,3.74,0,0,1,2.4-1,1.31,1.31,0,0,1,1.45,1.32,4.29,4.29,0,0,1-.46,2.23c-.49,1.05-1,2.07-1.57,3.1-1.46,2.85-3,5.69-4.37,8.55-.51,1-.88,2.14-1.29,3.22-.11.31-.26.49-.6.48Zm.62-9.27h2.44a1.63,1.63,0,0,0,1.61-1c1-2,2.06-4,3.08-6a3.41,3.41,0,0,0,.36-.86c.11-.45-.15-.76-.59-.66a2.83,2.83,0,0,0-1.14.52,10.17,10.17,0,0,0-1.72,1.75c-1.3,1.85-2.52,3.76-3.77,5.65A5.81,5.81,0,0,0,59.13,84.71Z"/><path class="cls-1" d="M84.42,88.52c-.6,1-1.16,2-1.8,3a13.27,13.27,0,0,1-1.36,1.73,3.77,3.77,0,0,1-1.12.74c-.68.31-1.08.11-1.26-.62-.11-.43-.12-.87-.2-1.42-.37.4-.66.77-1,1.09a9,9,0,0,1-1.31,1.08,1.06,1.06,0,0,1-1.7-.6,4.61,4.61,0,0,1-.23-1c0-.3,0-.6,0-1.07-.27.26-.43.44-.61.59-.7.62-1.38,1.25-2.11,1.83a1.32,1.32,0,0,1-1.59.09,1.45,1.45,0,0,1-.65-1.4A6,6,0,0,1,70.15,90c1-2.17,2.12-4.32,3.19-6.48.13-.27.25-.55.42-.89l-1.12-.09v-.7a1.43,1.43,0,0,1,.44,0c.9.2,1.36-.3,1.67-1,.43-1,.9-2,1.28-3,.27-.74.27-.8,1-.87.41,0,.83,0,1.38,0a19.91,19.91,0,0,1-2.14,4.87l1.09.13,0,.68-1.61.08c-.84,1.64-1.72,3.29-2.53,5-.57,1.2-1,2.45-1.54,3.68a4.84,4.84,0,0,0-.19.65c-.1.33-.18.67.14.93a.84.84,0,0,0,1.08-.22,11.43,11.43,0,0,0,2.28-3.15,10.09,10.09,0,0,1,4.33-5,1.63,1.63,0,0,1,2.41.36l.44-.69h1.08c.2,0,.39,0,.63.05a2.1,2.1,0,0,1-.12.42l-2.79,5.91a9.51,9.51,0,0,0-.52,1.34,6.07,6.07,0,0,0-.08,1.18,4.29,4.29,0,0,0,.9-.6,19.16,19.16,0,0,0,1.26-1.7c.39-.59.73-1.22,1.08-1.83a.75.75,0,0,1,.73-.46Zm-8.35,3.6c.1.21.17.59.4.77s.7,0,1-.24a4.57,4.57,0,0,0,.64-.68A22.46,22.46,0,0,0,81,86.46a3,3,0,0,0,.19-1.07c0-.59-.42-.83-.91-.5a5.47,5.47,0,0,0-1.11,1,19.84,19.84,0,0,0-2.81,5A9.81,9.81,0,0,0,76.07,92.12Z"/><path class="cls-1" d="M5.81,88.49c.15-.67.25-1.15.38-1.62A3.12,3.12,0,0,0,6.08,85a1.88,1.88,0,0,0-1.42-1.44,1.84,1.84,0,0,0-1.83.84,7,7,0,0,0-1.23,2.5A6.59,6.59,0,0,0,2,91.49a2.92,2.92,0,0,0,2.57,1.94,3.25,3.25,0,0,0,3-1.57,7.09,7.09,0,0,0,.49-7,11,11,0,0,1-.86-3.7,7,7,0,0,1,.62-3.39,4.88,4.88,0,0,1,2.64-2.53A2.45,2.45,0,0,1,14,77a4.45,4.45,0,0,1-.82,3.93,1.68,1.68,0,0,1-1.59.74l.38-.56a4.18,4.18,0,0,0,.74-3.85c-.22-.72-.56-1.41-1.42-1.51s-1.29.51-1.64,1.14a5.39,5.39,0,0,0-.35,4.36c.4,1.32.85,2.64,1.14,4a7.63,7.63,0,0,1-.57,5.47A6.7,6.7,0,0,1,4,94.26,3.78,3.78,0,0,1,.17,91.14,7.57,7.57,0,0,1,2.84,83.6a4.91,4.91,0,0,1,1.87-.93,1.77,1.77,0,0,1,2.42,1.46,4.52,4.52,0,0,1-.86,4A2.76,2.76,0,0,1,5.81,88.49Z"/><path class="cls-1" d="M110.38,88.08a1,1,0,0,1-.09.38c-.78,1.21-1.54,2.44-2.38,3.62a5.62,5.62,0,0,1-2,1.71,1.3,1.3,0,0,1-1.37.07,1.18,1.18,0,0,1-.45-1.29,5.41,5.41,0,0,1,.42-1.46c.6-1.28,1.27-2.53,1.88-3.8a11.63,11.63,0,0,0,.62-1.57.72.72,0,0,0-.18-.59c-.08-.07-.41,0-.53.1a8.71,8.71,0,0,0-1.56,1.53c-.75,1.14-1.37,2.35-2,3.55-.49.92-1,1.86-1.38,2.82a1.24,1.24,0,0,1-1.46.84,5.66,5.66,0,0,0-.57,0,1.36,1.36,0,0,1,.22-1.16c2-4.08,4-8.15,5.93-12.23.46-.94.82-1.92,1.25-2.87a.65.65,0,0,1,.33-.34,5.13,5.13,0,0,1,1.17-.21c.41,0,.6.17.52.56a5.41,5.41,0,0,1-.42,1.29c-.85,1.76-1.73,3.5-2.6,5.25a3.43,3.43,0,0,0-.32.92,4.68,4.68,0,0,1,.62-.48A5.49,5.49,0,0,1,107.4,84a1.14,1.14,0,0,1,1.49,1.17,4.49,4.49,0,0,1-.64,2.43c-.5.93-1,1.83-1.52,2.76A13.11,13.11,0,0,0,106,92a.62.62,0,0,0,.16.5c.07.06.34,0,.45-.07a4.12,4.12,0,0,0,.82-.73c.76-1,1.48-2,2.21-3l.5-.73Z"/><path class="cls-1" d="M71.05,87.41c-.06.16-.1.32-.17.46a17.29,17.29,0,0,1-3.39,4.85A8.35,8.35,0,0,1,66,93.91a1.34,1.34,0,0,1-2.14-1.21,5.92,5.92,0,0,1,.4-2c.39-1,.87-2,1.35-3,.68-1.37,1.38-2.73,2.07-4.09.14-.27.27-.55.45-.92l-1.14-.15,0-.67c.34,0,.64-.06.94,0a.84.84,0,0,0,1-.53c.52-1.21,1.11-2.41,1.59-3.64.19-.51.42-.78.94-.77l1.46,0a22.71,22.71,0,0,1-2.11,4.8l1,.14.06.65a1.65,1.65,0,0,1-.45.07c-.87-.18-1.32.25-1.67,1-1,2.23-2.15,4.43-3.19,6.65a10.85,10.85,0,0,0-.6,1.77c-.09.3-.13.64.2.84a.76.76,0,0,0,.94-.14,5.43,5.43,0,0,0,.86-.93c.88-1.25,1.73-2.52,2.59-3.79.16-.22.3-.46.46-.69Z"/><path class="cls-1" d="M19.24,86.09A8.76,8.76,0,0,1,17.51,91a11.46,11.46,0,0,1-2.08,2.21,4.58,4.58,0,0,1-1.81.85,2.2,2.2,0,0,1-2.75-1.94A4.72,4.72,0,0,1,11,90.35a9.4,9.4,0,0,1,4.53-5.89,3.8,3.8,0,0,1,.78-.33C17.94,83.63,19.35,84.51,19.24,86.09Zm-1.35-.58c-.08-.16-.14-.52-.35-.68s-.64,0-.92.22a5.37,5.37,0,0,0-.58.49,12.69,12.69,0,0,0-3.2,5.33,5.8,5.8,0,0,0-.25,1.42.75.75,0,0,0,1.19.75A4.8,4.8,0,0,0,15,92a14.62,14.62,0,0,0,2.79-5.77C17.83,86.06,17.84,85.86,17.89,85.51Z"/><path class="cls-1" d="M45.89,100.93c-.18,2.27-.09,3.43.32,4.07H45A9.54,9.54,0,0,0,45,99.94c1-.16,1-.16,1.54.69s1.14,1.88,1.8,2.79c-.07-1.16.31-2.33-.25-3.5h1a8.23,8.23,0,0,0-.21,1.17c0,1,0,2,0,3.06v.79c-.5.28-.63-.06-.79-.32-.58-1-1.16-1.94-1.75-2.91Z"/><path class="cls-1" d="M52.24,105a10.6,10.6,0,0,0,0-5.07,19.83,19.83,0,0,1,2.44,0,1.81,1.81,0,0,1,1.58,1.46,3.65,3.65,0,0,1-.07,2.17A1.93,1.93,0,0,1,54.5,105C53.77,105.07,53,105,52.24,105Zm1.13-4.71v4.33c1.43.16,2.1-.37,2.22-1.7a5.78,5.78,0,0,0,0-.93C55.48,100.68,54.78,100.13,53.37,100.3Z"/><path class="cls-1" d="M36,105H34.55a3.89,3.89,0,0,0,.26-2.47h-2c.07.85-.25,1.67.34,2.45H31.67a9.66,9.66,0,0,0,0-5.09H33.1c-.52.68-.31,1.41-.3,2.17h2a2.93,2.93,0,0,0-.27-2.17H35.9a4.07,4.07,0,0,0-.3,2.5C35.62,103.27,35.33,104.17,36,105Z"/><path class="cls-1" d="M74.46,101.18c0,.65,0,1.3,0,1.95s-.18,1.3.39,1.89H73.59a8.79,8.79,0,0,0,0-5c.93-.26,1-.23,1.48.52l1.78,2.94a6.38,6.38,0,0,0-.21-3.55h1.17a3.69,3.69,0,0,0-.28.67,3,3,0,0,0,0,.67c0,1.19,0,2.38,0,3.58a1.24,1.24,0,0,1,0,.16c-.4.24-.56-.06-.72-.33l-1.8-3c-.11-.19-.23-.36-.35-.55Z"/><path class="cls-1" d="M83.65,99.91c.81,0,1.59,0,2.37,0a1.14,1.14,0,0,1,1.15.84,1.38,1.38,0,0,1-.44,1.53c-.14.13-.31.24-.46.36l1.51,2.29c-.83.24-.88.23-1.3-.53-.18-.33-.34-.66-.52-1-.35-.6-.39-.62-1.2-.56,0,.71-.25,1.43.33,2.13H83.65A9.3,9.3,0,0,0,83.65,99.91Zm1.09,2.51c.69.1,1.27.08,1.57-.53a1.19,1.19,0,0,0-.08-1.29c-.4-.49-.93-.41-1.49-.31Z"/><path class="cls-1" d="M43.92,102.58a9.3,9.3,0,0,1-.19,1,2,2,0,0,1-2.09,1.52,1.8,1.8,0,0,1-1.87-1.73,5.9,5.9,0,0,1,0-2,2,2,0,0,1,4,.21C43.89,101.87,43.88,102.16,43.92,102.58Zm-.76-.09a16.68,16.68,0,0,0-.42-1.69,1,1,0,0,0-1-.65,1.06,1.06,0,0,0-1,.69,4.15,4.15,0,0,0,.05,3.28,1,1,0,0,0,1,.64,1,1,0,0,0,1-.68A15.63,15.63,0,0,0,43.16,102.49Z"/><path class="cls-1" d="M61,105a5.29,5.29,0,0,1-.57.06H57.52a10.06,10.06,0,0,0,0-5.14H61v1.16c-.4-.34-.66-.7-1-.81a4.61,4.61,0,0,0-1.3,0v1.82c.63.28,1.11.06,1.56-.55a2.8,2.8,0,0,1,0,1.67c-.46-.48-.88-.85-1.56-.54a6.85,6.85,0,0,0-.05,2,3.72,3.72,0,0,0,1.34,0c.36-.15.59-.59.91-.94C61.18,104.09,61,104.51,61,105Z"/><path class="cls-1" d="M72.24,105c-.43,0-.81.06-1.18.13a1.82,1.82,0,0,1-2.36-1.67,5.43,5.43,0,0,1,0-1.61,2.15,2.15,0,0,1,2.55-2c.31,0,.61.1,1,.16v1.14a2.39,2.39,0,0,1-.45-.37,1.1,1.1,0,0,0-2,.15,3.76,3.76,0,0,0,0,3.21,1.3,1.3,0,0,0,.58.58.94.94,0,0,0,1-.1,1.43,1.43,0,0,0,.16-1.37,3.74,3.74,0,0,0-.35-.46l.72-.06c.22,0,.45,0,.6,0Z"/><path class="cls-1" d="M26.83,105H25.28c.57-.52.37-1.05.09-1.62H23.68c-.25.52-.59,1,.11,1.62H22.37c.36-.86.73-1.73,1.08-2.6s.58-1.48.85-2.23c.13-.37.34-.49.79-.32.38,1.24.77,2.53,1.19,3.82C26.43,104.12,26.64,104.55,26.83,105Zm-2.15-4.14h-.17l-.73,2.06H25.3Z"/><path class="cls-1" d="M79,99.9h3.45V101c-1.18-.83-1.18-.83-2.27-.7v1.79c.63.25,1.1.06,1.53-.61a3.31,3.31,0,0,1,0,1.74c-.44-.58-.89-.85-1.55-.56v2c.93.16,1.78.24,2.1-1,.47.48.17.92.22,1.38H79.06a3.71,3.71,0,0,0,.31-2.51C79.36,101.64,79.67,100.74,79,99.9Z"/><path class="cls-1" d="M18.41,99.9h3.35v1.21c-.39-.36-.62-.71-.94-.83a4.19,4.19,0,0,0-1.24,0v1.9c.69.38,1.06-.14,1.56-.66v1.84c-.48-.51-.89-.94-1.59-.61,0,.75-.32,1.57.42,2.31H18.43a4.15,4.15,0,0,0,.3-2.54C18.72,101.64,19,100.74,18.41,99.9Z"/><path class="cls-1" d="M57.6,5.7a7.19,7.19,0,0,1-1.69-4.45A1.28,1.28,0,0,1,57.11,0a2.51,2.51,0,0,1,.67,0,1.41,1.41,0,0,1,1.48,1.73,13.78,13.78,0,0,1-.77,2.49A3.08,3.08,0,0,1,57.6,5.7Zm0-.92a8.08,8.08,0,0,0,1-2.46,3.35,3.35,0,0,0,.07-1,.73.73,0,0,0-.53-.7c-1-.4-1.84.18-1.69,1.3A8.11,8.11,0,0,0,57.56,4.78Z"/><path class="cls-1" d="M30.53,100.08v1a2.42,2.42,0,0,1-.44-.28c-.08-.07-.11-.19-.18-.28a1,1,0,0,0-1.37-.07.87.87,0,0,0,.12,1.27,11.52,11.52,0,0,0,1.16.7,1.48,1.48,0,0,1,.83,1.38,1.28,1.28,0,0,1-1.09,1.31,4,4,0,0,1-2-.14v-1.15c.2.18.38.26.44.39a.94.94,0,0,0,.85.6.89.89,0,0,0,.94-.43,1,1,0,0,0-.19-1.17,5.82,5.82,0,0,0-.71-.47,6.72,6.72,0,0,1-.85-.53,1.28,1.28,0,0,1,.44-2.24A2.55,2.55,0,0,1,30.53,100.08Z"/><path class="cls-1" d="M62.07,105a1.59,1.59,0,0,1,.06-1.32c.19.27.31.41.4.56a1,1,0,0,0,1.09.47.74.74,0,0,0,.7-.63,1,1,0,0,0-.44-1.11c-.34-.21-.7-.38-1-.59a1.37,1.37,0,0,1-.79-1.55,1.42,1.42,0,0,1,1.37-1.07,2.92,2.92,0,0,1,.51,0l1,.15v1.16c-.23-.22-.34-.35-.47-.45a2.27,2.27,0,0,0-.67-.47.78.78,0,0,0-.94.39.82.82,0,0,0,.15,1,4.33,4.33,0,0,0,.7.48,8.51,8.51,0,0,1,.92.59,1.3,1.3,0,0,1,.41,1.46,1.15,1.15,0,0,1-1.08.93C63.33,105.09,62.71,105.05,62.07,105Z"/><path class="cls-1" d="M77.5,30.16a6.92,6.92,0,0,1,.42-4.08,1.47,1.47,0,1,1,2.63,1.32,4.16,4.16,0,0,1-.56.85A7.87,7.87,0,0,1,77.5,30.16ZM78,29.05l.21.13c.47-.43,1-.85,1.4-1.31a2.79,2.79,0,0,0,.52-.86.86.86,0,0,0-.4-1.09.87.87,0,0,0-1.14.24,1.64,1.64,0,0,0-.26.42A6.29,6.29,0,0,0,78,29.05Z"/><path class="cls-1" d="M84.06,54.54a8.26,8.26,0,0,1,.3-3.15A3.52,3.52,0,0,1,85,50.21a1.44,1.44,0,0,1,2.41,1.54,2.13,2.13,0,0,1-.33.59A8.79,8.79,0,0,1,84.06,54.54Zm.62-1a5.58,5.58,0,0,0,2.13-1.88.88.88,0,0,0-.08-1.1.74.74,0,0,0-.9-.27,1.62,1.62,0,0,0-.67.6A4.46,4.46,0,0,0,84.68,53.56Z"/><path class="cls-1" d="M32.23,41.35a8.48,8.48,0,0,1-3-2.28,1.68,1.68,0,0,1-.42-1.42,1.45,1.45,0,0,1,2.4-.79,2.69,2.69,0,0,1,.64,1A8.5,8.5,0,0,1,32.23,41.35Zm-.62-1a4.39,4.39,0,0,0-.49-2.68.92.92,0,1,0-1.58.91A4.92,4.92,0,0,0,31.61,40.31Z"/><path class="cls-1" d="M32.75,66.35A7.94,7.94,0,0,1,29.68,64a2.18,2.18,0,0,1-.33-1.27,1.28,1.28,0,0,1,.92-1.11,1.31,1.31,0,0,1,1.49.33,3.42,3.42,0,0,1,.7,1.23A7.73,7.73,0,0,1,32.75,66.35Zm-.56-1a5,5,0,0,0-.57-2.79.94.94,0,0,0-1.3-.41.93.93,0,0,0-.23,1.4A6,6,0,0,0,32.19,65.39Z"/><path class="cls-1" d="M31.06,54.54A7.55,7.55,0,0,1,27.88,52a1.47,1.47,0,0,1,.44-2.09,1.5,1.5,0,0,1,2.07.56,3.89,3.89,0,0,1,.46,1.09A8.08,8.08,0,0,1,31.06,54.54Zm-.65-1,.18-.09c-.1-.62-.19-1.25-.33-1.87a2.34,2.34,0,0,0-.39-.83.87.87,0,0,0-1.24-.32.9.9,0,0,0-.26,1.33A5.3,5.3,0,0,0,30.41,53.51Z"/><path class="cls-1" d="M82.35,66.2a8.54,8.54,0,0,1,.51-3.55,1.81,1.81,0,0,1,1-1,1.32,1.32,0,0,1,1.49.22,1.28,1.28,0,0,1,.46,1.51,3.17,3.17,0,0,1-.6,1,8.19,8.19,0,0,1-2.51,1.84C82.6,66.23,82.51,66.2,82.35,66.2Zm.63-.82a6.92,6.92,0,0,0,1.88-1.51,2.14,2.14,0,0,0,.35-.58.86.86,0,0,0-.3-1,.85.85,0,0,0-1.1,0,2.49,2.49,0,0,0-.5.77A5,5,0,0,0,83,65.38Z"/><path class="cls-1" d="M44.58,20.8a8.85,8.85,0,0,1-2.36-2.51,3.26,3.26,0,0,1-.36-.94,1.43,1.43,0,0,1,.85-1.6,1.5,1.5,0,0,1,1.75.48,2.73,2.73,0,0,1,.4.93A9,9,0,0,1,44.58,20.8Zm-.34-1.06a5.17,5.17,0,0,0-.07-2.9.91.91,0,0,0-1.23-.57.92.92,0,0,0-.45,1.28A5.37,5.37,0,0,0,44.24,19.74Z"/><path class="cls-1" d="M37.61,30.21a8.23,8.23,0,0,1-2.87-2.54,2.3,2.3,0,0,1-.29-.87,1.36,1.36,0,0,1,.77-1.39,1.3,1.3,0,0,1,1.57.18,3.76,3.76,0,0,1,.75,1.28A7.68,7.68,0,0,1,37.61,30.21Zm-.46-1a8.87,8.87,0,0,0,0-1.38,5.72,5.72,0,0,0-.44-1.53.86.86,0,0,0-1.22-.41.88.88,0,0,0-.37,1.24A5.49,5.49,0,0,0,37.15,29.23Z"/><path class="cls-1" d="M82.93,41.35a7.5,7.5,0,0,1,.61-4,1.47,1.47,0,0,1,2.58-.21,1.28,1.28,0,0,1,.18,1.21A2.88,2.88,0,0,1,86,39,8.62,8.62,0,0,1,82.93,41.35Zm.6-.88c.68-.57,1.23-1,1.73-1.48a2,2,0,0,0,.46-.69.87.87,0,0,0-.34-1.11.81.81,0,0,0-1.08.11,2.61,2.61,0,0,0-.48.78A5.08,5.08,0,0,0,83.53,40.47Z"/><path class="cls-1" d="M70.59,20.79a8.08,8.08,0,0,1-.31-3.55,1.65,1.65,0,0,1,1.25-1.55,1.38,1.38,0,0,1,1.5.54,1.67,1.67,0,0,1,0,1.92A8.62,8.62,0,0,1,70.59,20.79ZM71,19.7a5.34,5.34,0,0,0,1.69-2.15A.92.92,0,1,0,71,16.91,4.37,4.37,0,0,0,71,19.7Z"/><path class="cls-1" d="M37.12,105a8.5,8.5,0,0,0,0-5.09h1.42a10.09,10.09,0,0,0,0,5.09Z"/><path class="cls-1" d="M66.09,99.9H67.5a4,4,0,0,0-.31,2.52c0,.84-.28,1.75.35,2.59H66.12A9.25,9.25,0,0,0,66.09,99.9Z"/><path class="cls-1" d="M33.26,80.32a1.71,1.71,0,0,1-.92,1.39c-.46.25-.82.07-1-.45a1.74,1.74,0,0,1,.83-1.72C32.8,79.27,33.28,79.6,33.26,80.32Z"/><path class="cls-1" d="M57.56,44c.1.11.21.17.24.26.44,1.2.86,2.4,1.28,3.6a1,1,0,0,1,.05.16c.3,1.58-.57,2.42-2.13,2a1.18,1.18,0,0,1-1-1.18,4.56,4.56,0,0,1,.2-1.42c.35-1.07.76-2.13,1.16-3.18C57.37,44.2,57.47,44.13,57.56,44Zm-.09.89c-.3.82-.61,1.64-.88,2.47a6.27,6.27,0,0,0-.27,1.23.91.91,0,0,0,.46,1,1.71,1.71,0,0,0,1.63,0c.51-.29.48-.81.39-1.28A10.3,10.3,0,0,0,57.47,44.9Z"/><path class="cls-1" d="M58.32,48.43a.78.78,0,0,1-.75.77.77.77,0,0,1-.77-.83.7.7,0,0,1,.79-.7A.73.73,0,0,1,58.32,48.43Zm-.19.1c0-.44-.35-.71-.65-.66a.55.55,0,0,0-.49.58c0,.3.36.61.63.5A1.85,1.85,0,0,0,58.13,48.53Z"/></g></g></svg>