<svg xmlns="http://www.w3.org/2000/svg" viewBox="0 0 98.49 53.87"><defs><style>.cls-1{fill:#fff;}</style></defs><g id="Layer_2" data-name="Layer 2"><g id="Layer_2_copy" data-name="Layer 2 copy"><path class="cls-1" d="M97.46,17V32.07H13.74V17H97.46m1-1H12.71V33.09H98.49V16Z"/><path class="cls-1" d="M18.41,29.46a1,1,0,0,1-.43-.29,3,3,0,0,1-.36-.44,4.23,4.23,0,0,1-.25-.46,1.59,1.59,0,0,1-.11-.34,3.42,3.42,0,0,1,0-.58c.05-.31.11-.69.2-1.14s.18-1,.3-1.52L18.17,23c.13-.58.25-1.13.38-1.68s.25-1,.36-1.45.21-.78.3-1.06a1.17,1.17,0,0,1,.2-.45s.13,0,.25,0a1.68,1.68,0,0,1,.37.2,2.34,2.34,0,0,1,.34.26c.09.1.14.18.13.23a3.48,3.48,0,0,1-.1.49c-.06.24-.13.53-.22.87l-.3,1.14q-.16.63-.33,1.32c-.11.46-.22.93-.32,1.41s-.2,1-.28,1.41c.09-.22.23-.52.43-.92s.43-.85.69-1.34.54-1,.84-1.54.59-1,.87-1.5.54-.89.78-1.26a7.34,7.34,0,0,1,.57-.79l.38.34c.12.11.23.21.32.31a1.18,1.18,0,0,1,.24.31.93.93,0,0,1,.1.39,2.29,2.29,0,0,1-.08.55c-.07.28-.15.61-.25,1l-.33,1.26c-.12.46-.24.91-.35,1.35s-.21.86-.3,1.25-.16.71-.19.95c.2-.41.45-.89.75-1.43s.61-1.11.95-1.68.68-1.14,1-1.69.66-1.05.94-1.49.53-.8.72-1.07.31-.41.36-.41.15,0,.24.11a2,2,0,0,1,.27.34,3.55,3.55,0,0,1,.21.44,1.08,1.08,0,0,1,.09.39A1.93,1.93,0,0,1,28,20c-.14.25-.32.57-.55,1s-.49.83-.78,1.33-.61,1-.94,1.57l-1,1.67c-.33.56-.65,1.1-.94,1.62s-.55,1-.78,1.44a10.77,10.77,0,0,0-.54,1.11,2.67,2.67,0,0,1-.43-.34,4.71,4.71,0,0,1-.36-.42,4.29,4.29,0,0,1-.28-.41,2.08,2.08,0,0,1-.17-.32,1,1,0,0,1,0-.44c0-.22.05-.48.09-.8s.11-.66.18-1l.24-1.16c.09-.4.17-.79.26-1.17s.18-.74.26-1.07a6.22,6.22,0,0,0-.37.53c-.15.23-.31.51-.49.82s-.38.64-.58,1L20.22,26c-.2.38-.4.74-.59,1.11s-.38.7-.54,1l-.42.81C18.55,29.17,18.46,29.34,18.41,29.46Z"/><path class="cls-1" d="M26.9,27.93a4.73,4.73,0,0,1-.22-1.47,9.41,9.41,0,0,1,.16-1.72,12.5,12.5,0,0,1,.47-1.82,12.75,12.75,0,0,1,.7-1.73,10.42,10.42,0,0,1,.89-1.47,5.28,5.28,0,0,1,1-1A2.16,2.16,0,0,1,31,18.24a1.47,1.47,0,0,1,1,.34,2.63,2.63,0,0,1,.87,1.18,4.87,4.87,0,0,1,.28,1.57A7.53,7.53,0,0,1,33,23.12,13.56,13.56,0,0,1,32.43,25a15.3,15.3,0,0,1-.78,1.74,11.5,11.5,0,0,1-.9,1.46,5.68,5.68,0,0,1-.91,1,1.42,1.42,0,0,1-.82.39,1.21,1.21,0,0,1-.34-.05,1,1,0,0,1-.29-.13l-.26-.2L27.88,29l-.27-.19-.27-.2a1.25,1.25,0,0,1-.24-.27A1.19,1.19,0,0,1,26.9,27.93Zm1.43-.5a.21.21,0,0,0,.27.05,1.31,1.31,0,0,0,.41-.26,5.9,5.9,0,0,0,.49-.5,6.18,6.18,0,0,0,.51-.67,7.54,7.54,0,0,0,.47-.77,7,7,0,0,0,.38-.78c.14-.35.29-.74.44-1.15a9.57,9.57,0,0,0,.34-1.21,4.11,4.11,0,0,0,.08-1.08,1.11,1.11,0,0,0-.34-.77.43.43,0,0,0-.54,0,2.36,2.36,0,0,0-.63.58,6.52,6.52,0,0,0-.61,1c-.19.38-.36.75-.51,1.13s-.28.83-.42,1.31-.24.92-.32,1.35a7.77,7.77,0,0,0-.14,1.15A1.13,1.13,0,0,0,28.33,27.43Z"/><path class="cls-1" d="M36,18.66s.12,0,.22,0a1.89,1.89,0,0,1,.34.18,3.27,3.27,0,0,1,.39.29,3.73,3.73,0,0,1,.36.32,2.83,2.83,0,0,1,.25.31.37.37,0,0,1,.08.23c-.25,1.07-.44,2-.57,2.69s-.23,1.33-.28,1.82a7.34,7.34,0,0,0,0,1.19,4.71,4.71,0,0,0,.1.82c.16-.46.34-1,.57-1.57s.45-1.17.7-1.78.49-1.19.74-1.77.48-1.11.7-1.57.4-.85.55-1.16a2.22,2.22,0,0,1,.32-.53.26.26,0,0,1,.27,0,1.18,1.18,0,0,1,.31.25,1.9,1.9,0,0,1,.26.37.76.76,0,0,1,.12.36,1.78,1.78,0,0,1-.13.49c-.09.26-.22.59-.38,1L40.32,22l-.66,1.59c-.23.55-.46,1.11-.7,1.67s-.46,1.12-.67,1.64-.41,1-.58,1.45-.31.82-.41,1.13a2.26,2.26,0,0,1-.93-.46,2.47,2.47,0,0,1-.66-1.06,4.65,4.65,0,0,1-.23-1,7.45,7.45,0,0,1-.08-1.06c0-.36,0-.71,0-1.06s.06-.69.11-1l-2.16,5.77a3,3,0,0,1-.56-.69,2.28,2.28,0,0,1-.31-.93,1.78,1.78,0,0,1,.11-.55c.08-.29.19-.65.33-1.09s.3-.91.49-1.45.38-1.08.58-1.63.41-1.09.62-1.61.39-1,.57-1.43.33-.76.47-1A1.67,1.67,0,0,1,36,18.66Z"/><path class="cls-1" d="M41.21,28.79a.53.53,0,0,1-.08.17l-.09.16-.12.17c-.05,0-.11-.07-.19-.18a1.71,1.71,0,0,1-.23-.41,3.39,3.39,0,0,1-.2-.54,1.81,1.81,0,0,1-.07-.55,2.14,2.14,0,0,1,.09-.49c.06-.22.14-.49.24-.8s.22-.64.35-1,.27-.75.42-1.14.29-.78.44-1.17.3-.76.44-1.11.26-.67.38-1,.21-.53.28-.71v-1c.26-.16.51-.3.77-.43a5.39,5.39,0,0,1,.72-.31,2,2,0,0,1,.65-.11.93.93,0,0,1,.53.14,2.65,2.65,0,0,1,.69.65,3.72,3.72,0,0,1,.47.91,4.47,4.47,0,0,1,.24,1.09,5.36,5.36,0,0,1,0,1.2,11.6,11.6,0,0,1-.26,1.31,13.12,13.12,0,0,1-1.22,3A8.62,8.62,0,0,1,44.54,28,6,6,0,0,1,43.44,29a3.28,3.28,0,0,1-1.26.58.34.34,0,0,1-.26,0,.88.88,0,0,1-.24-.2,1.64,1.64,0,0,1-.23-.28Zm.57-1.17a5.5,5.5,0,0,0,1.35-1,7.33,7.33,0,0,0,1-1.22,8.06,8.06,0,0,0,.73-1.31,9.11,9.11,0,0,0,.47-1.27,6.7,6.7,0,0,0,.24-1.08,3.72,3.72,0,0,0,.06-.74.62.62,0,0,0-.15-.39.67.67,0,0,0-.33-.18,1,1,0,0,0-.38,0,.62.62,0,0,0-.3.17,1.24,1.24,0,0,0-.19.36c-.09.2-.2.47-.32.79s-.27.68-.42,1.08-.31.81-.47,1.23-.32.82-.46,1.22-.29.76-.41,1.09-.22.59-.31.81S41.79,27.57,41.78,27.62Z"/><path class="cls-1" d="M50.56,18.53a2.63,2.63,0,0,0,.48-.06l.46-.1.41-.05a.6.6,0,0,1,.31.05,1.53,1.53,0,0,1,.72.85,4.09,4.09,0,0,1,.21,1.36L53,20.52l-.19-.05a2.32,2.32,0,0,0-.64,0,3.39,3.39,0,0,0-.57.14,4.6,4.6,0,0,0-.52.19c-.16.06-.31.12-.46.16l-1,2.14.44-.19a2.29,2.29,0,0,1,.44-.15,1.33,1.33,0,0,1,.38,0,.55.55,0,0,1,.31.1,1.65,1.65,0,0,1,.46.67,2.26,2.26,0,0,1,.16,1,.16.16,0,0,0-.16-.08h-.17c-.17,0-.37.08-.62.15s-.49.16-.74.26a7.32,7.32,0,0,0-.68.29l-.44.23a1.11,1.11,0,0,0-.33.35,3.59,3.59,0,0,0-.23.48c-.06.18-.13.37-.19.59s-.13.43-.21.65l.5-.29.49-.26a2.56,2.56,0,0,1,.44-.18.76.76,0,0,1,.36,0,.5.5,0,0,1,.25.19,2,2,0,0,1,.26.42,2.73,2.73,0,0,1,.2.55,2.59,2.59,0,0,1,.1.62.48.48,0,0,0-.15-.1.7.7,0,0,0-.21,0,.62.62,0,0,0-.24.1c-.13.06-.27.14-.44.24l-.54.3-.56.3a2.67,2.67,0,0,1-.49.2.67.67,0,0,1-.35,0,1.17,1.17,0,0,1-.59-.37,2.21,2.21,0,0,1-.39-.74,3.43,3.43,0,0,1-.16-.73,2.58,2.58,0,0,1,0-.73A12.37,12.37,0,0,1,47,25.54q.27-.81.6-1.71T48.3,22L49,20.34c.22-.52.42-1,.6-1.36s.3-.66.37-.83a.16.16,0,0,1,.13,0,1,1,0,0,1,.15.14l.14.15A.27.27,0,0,0,50.56,18.53Z"/><path class="cls-1" d="M52.75,29.7l-.33-.41c-.11-.14-.2-.28-.29-.42a2.28,2.28,0,0,1-.2-.45,1.93,1.93,0,0,1-.06-.49A5.44,5.44,0,0,1,52,27.2q.12-.51.33-1.2c.13-.46.29-1,.47-1.5s.36-1.08.54-1.63.38-1.07.57-1.58.35-1,.51-1.37.3-.73.42-1a1.11,1.11,0,0,1,.24-.42.27.27,0,0,1,.18,0,1,1,0,0,1,.19.08,1.3,1.3,0,0,1,.2.15l.19.16a7.71,7.71,0,0,0,.77-.3,1.52,1.52,0,0,1,.66-.13.88.88,0,0,1,.59.31,3,3,0,0,1,.54,1,2.88,2.88,0,0,1,.16,1.05A4.52,4.52,0,0,1,58.38,22,5.36,5.36,0,0,1,57.93,23a6.56,6.56,0,0,1-.65,1,7.56,7.56,0,0,1-.76.83,5.25,5.25,0,0,1-.8.62,6.41,6.41,0,0,1,.46.63c.15.23.28.46.4.69a4.33,4.33,0,0,1,.29.63,1.94,1.94,0,0,1,.13.48,2.26,2.26,0,0,1,0,.53,2.07,2.07,0,0,1-.12.49,2.88,2.88,0,0,1-.19.45c-.07.15-.15.31-.24.47-.08-.19-.19-.41-.32-.65l-.42-.75c-.15-.26-.31-.52-.47-.78l-.48-.73c-.16-.23-.3-.43-.44-.61a3,3,0,0,0-.35-.43c-.09.21-.2.49-.32.84s-.25.71-.37,1.08-.22.74-.31,1.09S52.78,29.49,52.75,29.7Zm1.74-5.59a3.5,3.5,0,0,0,.5-.28,5.81,5.81,0,0,0,.62-.46,6.71,6.71,0,0,0,.64-.57,4.11,4.11,0,0,0,.54-.66,2.25,2.25,0,0,0,.33-.68,1.17,1.17,0,0,0,0-.67.29.29,0,0,0-.23-.21.76.76,0,0,0-.36,0,1.37,1.37,0,0,0-.41.22,1.71,1.71,0,0,0-.35.36,6.3,6.3,0,0,0-.33.57c-.12.22-.23.46-.34.72s-.22.53-.32.81S54.57,23.84,54.49,24.11Z"/><path class="cls-1" d="M65.33,18.27l.5.32a1.77,1.77,0,0,0,.35.19.46.46,0,0,0,.25,0l.41-.12.44-.14a1.08,1.08,0,0,1,.37-.05.44.44,0,0,1,.32.19,1.9,1.9,0,0,1,.26.45,4.38,4.38,0,0,1,.19.58c.06.21.11.41.16.61a.33.33,0,0,1-.12-.05l-.15,0a1.23,1.23,0,0,0-.37,0,5.55,5.55,0,0,0-.66.18,7.71,7.71,0,0,0-.75.29,3.77,3.77,0,0,0-.64.34l-1.07,2.45.39-.12.43-.12a3.39,3.39,0,0,1,.39-.08.52.52,0,0,1,.29,0,1,1,0,0,1,.53.6,5.27,5.27,0,0,1,.26,1.13.23.23,0,0,0-.16-.05.62.62,0,0,1-.18,0,1.15,1.15,0,0,0-.34,0L65.9,25c-.19.06-.39.14-.6.23a5.09,5.09,0,0,0-.57.26,3.82,3.82,0,0,0-.46.25c-.13.08-.21.14-.23.19q-.2.36-.39.81c-.13.29-.25.6-.37.92s-.24.64-.35,1-.22.64-.32.95a3.65,3.65,0,0,1-.61-.9,3.35,3.35,0,0,1-.32-1,1.25,1.25,0,0,1,.09-.39c.06-.23.15-.52.26-.88s.25-.76.41-1.22.33-.95.52-1.45.38-1,.59-1.54.41-1,.62-1.51.4-.94.6-1.36S65.16,18.57,65.33,18.27Z"/><path class="cls-1" d="M67.57,27.93a4.45,4.45,0,0,1-.22-1.47,9.41,9.41,0,0,1,.16-1.72A13.86,13.86,0,0,1,68,22.92a12.78,12.78,0,0,1,.71-1.73,10.42,10.42,0,0,1,.89-1.47,5.26,5.26,0,0,1,1-1,2.15,2.15,0,0,1,1.06-.44,1.48,1.48,0,0,1,1,.34,2.61,2.61,0,0,1,.86,1.18,4.61,4.61,0,0,1,.28,1.57,8.05,8.05,0,0,1-.18,1.79A12.32,12.32,0,0,1,73.09,25a13.68,13.68,0,0,1-.77,1.74,11.5,11.5,0,0,1-.9,1.46,5.7,5.7,0,0,1-.92,1,1.43,1.43,0,0,1-.81.39,1.29,1.29,0,0,1-.35-.05.9.9,0,0,1-.28-.13l-.26-.2L68.54,29a2.48,2.48,0,0,0-.26-.19,1.89,1.89,0,0,1-.27-.2,1.63,1.63,0,0,1-.25-.27A1.18,1.18,0,0,1,67.57,27.93Zm1.43-.5a.21.21,0,0,0,.27.05,1.31,1.31,0,0,0,.41-.26,5.9,5.9,0,0,0,.49-.5,7.8,7.8,0,0,0,.51-.67c.16-.25.32-.5.47-.77a6.88,6.88,0,0,0,.37-.78c.15-.35.29-.74.44-1.15a8.15,8.15,0,0,0,.34-1.21,4.14,4.14,0,0,0,.09-1.08,1.15,1.15,0,0,0-.34-.77.45.45,0,0,0-.55,0,2.34,2.34,0,0,0-.62.58,5.8,5.8,0,0,0-.61,1,9.38,9.38,0,0,0-.51,1.13c-.15.4-.29.83-.42,1.31s-.24.92-.32,1.35a7.91,7.91,0,0,0-.15,1.15A1.12,1.12,0,0,0,69,27.43Z"/><path class="cls-1" d="M73.85,27.93a5,5,0,0,1-.22-1.47,9.41,9.41,0,0,1,.16-1.72,13.93,13.93,0,0,1,.47-1.82A11.61,11.61,0,0,1,75,21.19a9.56,9.56,0,0,1,.89-1.47,5,5,0,0,1,1-1,2.16,2.16,0,0,1,1-.44,1.45,1.45,0,0,1,1,.34,2.63,2.63,0,0,1,.87,1.18,4.87,4.87,0,0,1,.28,1.57,8.05,8.05,0,0,1-.18,1.79A13.61,13.61,0,0,1,79.38,25a15.26,15.26,0,0,1-.77,1.74,12.76,12.76,0,0,1-.91,1.46,5.68,5.68,0,0,1-.91,1,1.42,1.42,0,0,1-.82.39,1.21,1.21,0,0,1-.34-.05,1.08,1.08,0,0,1-.29-.13l-.26-.2L74.83,29a1.85,1.85,0,0,0-.27-.19l-.27-.2a1.59,1.59,0,0,1-.24-.27A1.42,1.42,0,0,1,73.85,27.93Zm1.43-.5a.21.21,0,0,0,.27.05,1.2,1.2,0,0,0,.41-.26,4.69,4.69,0,0,0,.49-.5,5.12,5.12,0,0,0,.51-.67,7.54,7.54,0,0,0,.47-.77,7,7,0,0,0,.38-.78c.14-.35.29-.74.44-1.15a8.15,8.15,0,0,0,.34-1.21,3.73,3.73,0,0,0,.08-1.08,1.07,1.07,0,0,0-.34-.77.43.43,0,0,0-.54,0,2.34,2.34,0,0,0-.62.58,5.8,5.8,0,0,0-.62,1,11.14,11.14,0,0,0-.5,1.13c-.15.4-.29.83-.43,1.31s-.23.92-.32,1.35a7.77,7.77,0,0,0-.14,1.15A1.21,1.21,0,0,0,75.28,27.43Z"/><path class="cls-1" d="M80.53,28.79a.87.87,0,0,1-.07.17l-.1.16-.12.17s-.11-.07-.19-.18a1.71,1.71,0,0,1-.23-.41,3.4,3.4,0,0,1-.19-.54,1.83,1.83,0,0,1-.08-.55,2.14,2.14,0,0,1,.09-.49c.06-.22.14-.49.24-.8l.35-1q.21-.55.42-1.14L81.1,23c.15-.39.29-.76.43-1.11s.26-.67.38-1,.21-.53.29-.71v-1c.25-.16.51-.3.76-.43a5.49,5.49,0,0,1,.73-.31,1.91,1.91,0,0,1,.64-.11,1,1,0,0,1,.54.14,2.61,2.61,0,0,1,.68.65,3.41,3.41,0,0,1,.47.91,4.47,4.47,0,0,1,.24,1.09,5.36,5.36,0,0,1,0,1.2A9.73,9.73,0,0,1,86,23.67a11.6,11.6,0,0,1-.5,1.47,13.47,13.47,0,0,1-.71,1.49A9.42,9.42,0,0,1,83.86,28,6,6,0,0,1,82.77,29a3.42,3.42,0,0,1-1.26.58.36.36,0,0,1-.27,0,1.06,1.06,0,0,1-.24-.2,2.3,2.3,0,0,1-.23-.28Q80.65,28.93,80.53,28.79Zm.57-1.17a5.75,5.75,0,0,0,1.36-1,7.77,7.77,0,0,0,1-1.22,8.06,8.06,0,0,0,.73-1.31,9.11,9.11,0,0,0,.47-1.27,8.14,8.14,0,0,0,.25-1.08A6.31,6.31,0,0,0,85,21a.63.63,0,0,0-.16-.39.68.68,0,0,0-.32-.18,1,1,0,0,0-.39,0,.62.62,0,0,0-.3.17,1.77,1.77,0,0,0-.18.36c-.09.2-.2.47-.33.79s-.27.68-.42,1.08-.31.81-.47,1.23-.31.82-.46,1.22-.28.76-.41,1.09l-.3.81Z"/><path class="cls-1" d="M86.62,20.65a.71.71,0,0,0,.26,0,1.47,1.47,0,0,0,.24-.13,1.77,1.77,0,0,0,.18-.22l.26-.37.28-.44c.09-.16.18-.3.26-.43l.21-.31a.67.67,0,0,1,.12-.14.35.35,0,0,1,.17.1,2.94,2.94,0,0,1,.25.25,2.75,2.75,0,0,1,.23.33.85.85,0,0,1,.11.3,1.1,1.1,0,0,1-.09.41,4.22,4.22,0,0,1-.28.63,3.19,3.19,0,0,1-.43.59.92.92,0,0,1-.5.3,1.11,1.11,0,0,1-.37,0,.8.8,0,0,1-.3-.16,1.52,1.52,0,0,1-.29-.28A4.84,4.84,0,0,1,86.62,20.65Z"/><path class="cls-1" d="M91.71,22.76l.4-.71a4.61,4.61,0,0,0,.3-.65,1.8,1.8,0,0,0,.1-.57.77.77,0,0,0-.16-.48.25.25,0,0,0-.31-.07,1.33,1.33,0,0,0-.42.28,2.49,2.49,0,0,0-.42.48,2.44,2.44,0,0,0-.32.56,3.09,3.09,0,0,0-.18.59,2.18,2.18,0,0,0-.06.63,2.56,2.56,0,0,0,.12.65,2.49,2.49,0,0,0,.34.67,2.24,2.24,0,0,0,.32.37c.12.12.25.23.37.36a2.86,2.86,0,0,1,.36.41,2.09,2.09,0,0,1,.28.56,2.69,2.69,0,0,1,.12.76,5,5,0,0,1-.09,1A2.78,2.78,0,0,1,92,28.71a2.07,2.07,0,0,1-.75.67,2.12,2.12,0,0,1-1,.24,2.57,2.57,0,0,1-1-.18,2.33,2.33,0,0,1-.88-.56,3.46,3.46,0,0,1-.57-.75,2.65,2.65,0,0,1-.29-.72,2.08,2.08,0,0,1-.09-.48.71.71,0,0,1,.11-.33,2.49,2.49,0,0,1,.24-.4q.14-.21.3-.42l.28-.4a3.1,3.1,0,0,0,.27.92,2.68,2.68,0,0,0,.46.69,2.13,2.13,0,0,0,.56.45,1.59,1.59,0,0,0,.56.18.78.78,0,0,0,.46-.08.61.61,0,0,0,.29-.37,1,1,0,0,0,0-.52,1,1,0,0,0-.21-.4,3.11,3.11,0,0,0-.37-.35L90,25.52a3.07,3.07,0,0,1-.41-.47,2.1,2.1,0,0,1-.3-.64,5.58,5.58,0,0,1-.18-1.81,6.5,6.5,0,0,1,.34-1.69,5.78,5.78,0,0,1,.74-1.42,4,4,0,0,1,1-1,2,2,0,0,1,1-.38,1.24,1.24,0,0,1,.95.38,2.29,2.29,0,0,1,.63,1A3.8,3.8,0,0,1,94,20.59a4.7,4.7,0,0,1-.13,1.12,8.75,8.75,0,0,1-.31,1,4.22,4.22,0,0,1-.36.71c-.12.18-.21.28-.26.28a.51.51,0,0,1-.35,0,.9.9,0,0,1-.27-.21,2.24,2.24,0,0,1-.26-.32A3.1,3.1,0,0,0,91.71,22.76Z"/><path class="cls-1" d="M27.27,15H20.82C21,11.42,21,7.69,21,3.85h6C27.05,7.69,27.13,11.42,27.27,15Z"/><path class="cls-1" d="M45,34.11c-2.48,12.07-6.25,19.76-10.47,19.76s-8-7.24-10.52-18.58c-2.48,11.34-6.27,18.58-10.52,18.58C6.06,53.87,0,29.75,0,0H6c0,27.63,3.37,50,7.52,50,2.26,0,4.29-6.17,5.67-15.92h9.69C30.27,43.86,32.3,50,34.57,50s4.12-6.13,5.49-15.92Z"/><path class="cls-1" d="M48.09,0c0,5.2-.18,10.23-.53,15H41.74c.22-4.73.34-9.77.34-15Z"/></g></g></svg>