<svg xmlns="http://www.w3.org/2000/svg" viewBox="0 0 73.31 115.01"><defs><style>.cls-1{fill:#fff;}</style></defs><g id="Layer_2" data-name="Layer 2"><g id="Layer_1-2" data-name="Layer 1"><path class="cls-1" d="M19.89,31.32c-.82,6.33-1.63,12.61-2.45,19h3v5.15h7.67V50.3h3.12c-.82-6.43-1.64-12.76-2.47-19.19,1.64-.33,3.22-.65,4.8-.94a1,1,0,0,1,.49.12,26,26,0,0,1,6.68,3.85,7.27,7.27,0,0,1,2.83,5.49q.95,15.52,2.2,31c.62,7.48,1.47,14.93,2.23,22.4.11,1.12.34,2.22.53,3.45L34.39,99.58c0,.31,0,.65,0,1,0,3.68,0,7.37-.05,11a2.93,2.93,0,0,1-2.69,3.25,5.34,5.34,0,0,1-3.48-.37,4.15,4.15,0,0,1-2.51-3.94c0-2.81,0-5.62,0-8.44v-1H22.93v8.91a4.64,4.64,0,0,1-5.77,4.85,3.06,3.06,0,0,1-2.92-3.43c0-3.71,0-7.42,0-11.13,0-.23,0-.46,0-.75L0,96.51C.26,94.62.55,92.83.75,91c.58-5.38,1.17-10.77,1.67-16.16q.84-9,1.52-17.93T5.1,39.24A6.23,6.23,0,0,1,7,34.93a23.49,23.49,0,0,1,7.65-4.7.88.88,0,0,1,.5-.07C16.73,30.53,18.27,30.91,19.89,31.32Z"/><path class="cls-1" d="M24.44,13.05a8.24,8.24,0,1,1-8.23,8.24A8.22,8.22,0,0,1,24.44,13.05Z"/><path class="cls-1" d="M73.12,6.08h-.26L71.19,2.29a.81.81,0,0,0-.5-1.44.8.8,0,0,0-.8.72H68V1.06A1.05,1.05,0,0,0,66.89,0a1.1,1.1,0,0,0-1,1.06v.51h-2A.8.8,0,0,0,63,.85a.8.8,0,0,0-.81.8.78.78,0,0,0,.34.66L60.91,6.08h-.25a.19.19,0,0,0-.19.2.18.18,0,0,0,.19.19h.19a2.2,2.2,0,0,0,4.37,0h.28a.19.19,0,0,0,.19-.19.2.2,0,0,0-.19-.2h-.26L63.56,2.27A.79.79,0,0,0,63.79,2h2.05v.52a.19.19,0,0,0,.19.2h.38v7.4H64.92a1.08,1.08,0,0,0-1.08,1.08H70a1.08,1.08,0,0,0-1.08-1.08H67.38V2.68h.38a.19.19,0,0,0,.19-.2V2h2a.85.85,0,0,0,.26.33L68.52,6.08h-.24a.2.2,0,0,0-.2.2.19.19,0,0,0,.2.19h.19a2.2,2.2,0,0,0,4.37,0h.28a.19.19,0,0,0,.19-.19A.2.2,0,0,0,73.12,6.08Zm-8.3,0H61.33l1.6-3.63.11,0,.17,0Zm4.13,0,1.6-3.63.14,0,.14,0,1.61,3.63Z"/><path class="cls-1" d="M70.28,11.55H63.51a.63.63,0,0,0-.63.63v.72h8v-.72a.63.63,0,0,0-.63-.63Z"/></g></g></svg>