<svg xmlns="http://www.w3.org/2000/svg" viewBox="0 0 84.36 110.52"><defs><style>.cls-1{fill:#fff;}</style></defs><g id="Layer_2" data-name="Layer 2"><g id="Layer_1-2" data-name="Layer 1"><path class="cls-1" d="M72.2,61s-.76-11-5-14.38c0,0,4.26,3.31,5,5.86A36.49,36.49,0,0,0,66,39.57c-4.63-5.87-5.77-16-5.77-16S60.47,34,59.52,39c0,0,.57-6-1.51-8.8,0,0,2.27,11.45-1.42,15.33s-9.08-1.33-8.8-3.5,4.64-.19,4.64-.19S47.67,37.51,39.93,40a10,10,0,0,1-3.07.48A9.81,9.81,0,0,1,33.68,40,24.66,24.66,0,0,0,21,39.38s8.23-.28,5.11,3.22S16.48,48.08,15,44.2s.56-10.87.56-10.87-3.21,4-2.55,6.9c0,0-2.74-3.12-2-14,0,0-2.55,9.74-5.58,15.32S-1.21,52.15.4,60a25.93,25.93,0,0,1,2.65-8.7A41.48,41.48,0,0,0,1.72,63.6s.57-4.45,2.56-7.19c0,0-.48,1.32-.57,7.75A18.57,18.57,0,0,0,6.45,74.57a13.3,13.3,0,0,1,0-7.66s2.27,3.4.29,11.25c0,0,2.93-3.69,2.45-5.77a31.91,31.91,0,0,1,.19,14,17.8,17.8,0,0,0,2.77-5.75c-.21,1.88-.37,5.7,1.21,8.78,0,0,.28-5.58,1.89-7.19,0,0-2.74,6.53,1.8,10.12a25.5,25.5,0,0,1,6.71,8.33s-1.61-6.34-3.69-8.42c0,0,4.45,2.46,4.92,5.11,0,0-.19-3.41-1.42-4.73,0,0,5.11,3.78,5.49,9.93a11.59,11.59,0,0,0,0-5.58s3.13,3.59.34,9.84c0,0,4-4.26,3.73-9.65,0,0,3.69,7.13-1.14,13.34,0,0,4.26-2.46,6.25-9.84a6.76,6.76,0,0,0,2.83,4.63,10.22,10.22,0,0,1,.67-8.51s-.76,3,.75,5.11c0,0,.48-6,4.73-8.14,0,0-1.32,5.49-3.59,8,0,0,5.77-3.69,6-10.22,0,0,1.32,4.16-.19,6.53,0,0,6.53-7.76,6.24-14.29a13.91,13.91,0,0,1-.57,7.38A18,18,0,0,0,58,80.81s1.42,5.87.47,9.37c0,0,2.55-7.76,2-13.06a6.87,6.87,0,0,0,6.81-.94s-6.91-.48-7.38-4.54c0,0,2.84,1.89,4.82,1.89a5.7,5.7,0,0,1,.38-6.43,17.91,17.91,0,0,1,1.23,7.66S69.26,66.91,67.94,61a8.13,8.13,0,0,1,1.61,5.29S70.78,58,68,53.19C68,53.19,71.53,54.89,72.2,61ZM26.49,48.46a7.39,7.39,0,0,0,2.2-1.65,3.27,3.27,0,0,1,3-1.12,35.23,35.23,0,0,0,9.83,0A3.24,3.24,0,0,1,44.62,47a6,6,0,0,0,1.3,1.35.71.71,0,0,1-.25,1.25,37.33,37.33,0,0,1-19.06.14A.71.71,0,0,1,26.49,48.46Z"/><path class="cls-1" d="M84,.14A.25.25,0,0,0,83.66,0a.29.29,0,0,0-.14.17c-.27,1-.66,1.54-1.18,1.68-.75.21-1.58-.52-1.7-.63a2.18,2.18,0,0,0-1.56-1,2.66,2.66,0,0,0-1.73.6A2.24,2.24,0,0,0,75.57.25,2.48,2.48,0,0,0,74,1.33a1.72,1.72,0,0,1-1.56.5C71.51,1.55,71.1.19,71.09.18A.26.26,0,0,0,70.86,0a.25.25,0,0,0-.24.16,3.86,3.86,0,0,0,.92,4.33,4,4,0,0,0,2.83,1.2,3.69,3.69,0,0,0,2.94-1.54A4,4,0,0,0,79,5.4a4.11,4.11,0,0,0,4.16-.81A3.85,3.85,0,0,0,84,.14Z"/></g></g></svg>