<svg xmlns="http://www.w3.org/2000/svg" viewBox="0 0 83.57 108.61"><defs><style>.cls-1{fill:#fff;}</style></defs><g id="Layer_2" data-name="Layer 2"><g id="Layer_1-2" data-name="Layer 1"><path class="cls-1" d="M53,86.28,62.72,94a34.63,34.63,0,0,1-15.21,12.06L41.4,93l-.18.06c.25,1.16.49,2.32.75,3.48.75,3.3,1.49,6.6,2.29,9.89.14.61,0,.82-.57,1a35.09,35.09,0,0,1-18.28,0c-.68-.18-.78-.45-.63-1.11,1-4.23,2-8.47,2.93-12.71a.89.89,0,0,0-.06-.63l-6.12,13.11c-.73-.31-1.46-.59-2.15-.93A34.67,34.67,0,0,1,6.82,94.7c-.57-.76-.49-.89.29-1.4s1.64-1.21,2.43-1.84C11.71,89.74,13.87,88,16,86.13c-.37.17-.76.31-1.12.5L5.71,91.26c-.53.27-1,.35-1.29-.31-.65-1.35-1.38-2.67-2-4a31.27,31.27,0,0,1-2.39-10c-.12-1.45,0-2.91,0-4.5.4,0,.77,0,1.14,0,2.88-.16,5.79-.13,8.64-.54,3.69-.52,7.16-1.74,9.85-4.52a10.89,10.89,0,0,0,3.14-7.59c.07-3.1,0-6.2.09-9.29A51,51,0,0,1,27.68,30a25.48,25.48,0,0,1,5.94-8.17,8.19,8.19,0,0,1,8.87-1,3.65,3.65,0,0,1,1,5.79,2.06,2.06,0,0,1-2.66.63,3.73,3.73,0,0,0-.81-.33,14.34,14.34,0,0,0-1.47-.05,4.78,4.78,0,0,0,.09,1.48c.43,1,1,2,1.5,3.07,2.41,5,4.56,10.2,5.46,15.75a68,68,0,0,1,.5,7.15c.11,2.33-.07,4.7.27,7,.66,4.59,3.57,7.47,7.73,9.2a30,30,0,0,0,11.6,1.92c.85,0,1.7,0,2.54,0,.62,0,.8.21.83.8a32.2,32.2,0,0,1-.95,8.86,34.07,34.07,0,0,1-3.42,8.78c-.36.65-.64.79-1.34.43-3.21-1.66-6.46-3.26-9.7-4.89-.19-.09-.4-.17-.6-.25ZM36.61,56.76a3.08,3.08,0,0,0,4.3.83c1.36-.88,1.92-2.59,1.28-3.59ZM26.81,54a3,3,0,0,0,1.66,3.8,2.94,2.94,0,0,0,3.91-1Z"/><path class="cls-1" d="M83.51,1.55a.2.2,0,0,0-.16,0A7.43,7.43,0,0,1,82,1.66a2.1,2.1,0,0,1-.81-.13L81,1.39l.12-.14a.24.24,0,0,0,0-.15A.2.2,0,0,0,81.05,1L79.73,0a.22.22,0,0,0-.14,0,.2.2,0,0,0-.12.08l-.16.24-.14-.1a.19.19,0,0,0-.26,0L77.78,1.77a.23.23,0,0,0,0,.14.2.2,0,0,0,.08.12l2.07,1.51c.46.34.64,1.51.67,1.93a.18.18,0,0,0,.11.15.15.15,0,0,0,.09,0c.1,0,.36,0,1.64-1.57A4.38,4.38,0,0,0,83.57,1.7.17.17,0,0,0,83.51,1.55Z"/><path class="cls-1" d="M79,3.36l-1-.73a.17.17,0,0,0-.14,0,.2.2,0,0,0-.12.08l-.53.79a7.64,7.64,0,0,0-.88,1.7,5.29,5.29,0,0,1-.72,1.4,3.42,3.42,0,0,1-1,1,.19.19,0,0,0,0,.31L76.13,9a.15.15,0,0,0,.11,0h0A1.68,1.68,0,0,0,77.5,7.88l0-.09a6.5,6.5,0,0,0,.24-1,6.32,6.32,0,0,1,.85-2.66L79,3.64a.16.16,0,0,0,0-.14A.17.17,0,0,0,79,3.36Z"/></g></g></svg>