<svg xmlns="http://www.w3.org/2000/svg" viewBox="0 0 97.03 112.16"><defs><style>.cls-1{fill:#fff;}</style></defs><g id="Layer_2" data-name="Layer 2"><g id="Layer_1-2" data-name="Layer 1"><path class="cls-1" d="M80.17,68.33,79,69.39l.69.53c-.46.42-.54.75.09.83l-.72,1.47.56.27c-.38.81-.12,1.59.5,1.68l.17,3.13h-.2l-.25-2.16-.21,0-.32,1.22-.21-1.19H79v1.61c-.69-1.21-.61-2.08.16-2.7-.36-.32-1-.53-.43-1.22.11-.14-.1-.52-.1-.78a9.74,9.74,0,0,1,.16-1c-.52-.43-.71-3.71,0-4.06-.76-.63-.74-2.28.08-2.68l-.86-.48c0,.94,0,1.78,0,2.61s.18,1.5-.19,2.12l-.43-.09V65.35c-.29.46-.08,1.24-1,1.26l.69.24c-.16.71.28,1.51-.31,2.24l.77.43-.84,1,.81-.07-.27,1.43.39-.07.35,1.16-.77.26.74.26-.79,3.36-.23,0,.26-1.44L77,75.24l-.31.34v-1l-.64.93.08-1.34.8-.26-.46-1.23-.47.33.72-.39a12.63,12.63,0,0,1-.7-1.18s.29-.25.47-.39l-.6-1,.63-.33-.63-.7a1.29,1.29,0,0,0,0-1.55,1.94,1.94,0,0,1,.26-2L75.33,65c.08,1.14.15,2.13.25,3.13,0,.43.09.79-.57.66V62.22c-.26,1.28-.07,2.65-.61,3.91l.37,1.06-.91.25.8.41a6.11,6.11,0,0,0-.25,1,5.62,5.62,0,0,0,.12,1l-.64.27.9,1.16-.67.41.26,1.46.43.35c-.91.67-.41,1.78-.92,2.56V74.19l-.31.91c-.38-.6.52-1.66-.67-1.93l.64-.79-.85-.65.88-.67-1-.74-.3.18V63.87L71.71,65c.44.56.35,1-.52,1.33.93.19.69.83.57,1.34,0,.2-.4.34-.59.49.92.66,1,.93.24,1.63.13.19.27.37.38.57s.19.38.3.61h-.83l0,.14.67.27c-.16,1.19-.32,2.43-.48,3.66h-.14V73.18h-.15l-.22.54-.24-1.38-.34,1.36c-.31-1.31-.2-1.71.75-2.11H70a5.16,5.16,0,0,0,.68-1.16c0-.14-.38-.42-.63-.68L71,69l-1.3-.56.12-1.05-.18,0A16.91,16.91,0,0,0,69.4,69c-.05.62,0,1.24-.08,1.86-.74-2.36-.24-4.66.41-7-.33.41-.1,1.22-1.16,1l.68.62-.89,0c.94.74.68,1-.3.87l.56.8-1.15.21c.12.48,1.26,0,1,1.1L67,68.22l0,.07,1.86,1-.14.31-1.45-.35,1,1.24a4.63,4.63,0,0,1-3.07-.35l3.7,3-.14.18-1.24-.94-.25.15.46.91-2-.8-.11.26a5,5,0,0,1,3,2.18c-2-2-4.35-1.12-6.52-1.33,2,0,3.53,1.22,5.11,2.27l-1.23-.4,1.38,1.12c-.06,0-.11.1-.11.09a3.23,3.23,0,0,0-3-.65,13.81,13.81,0,0,1-3,.05l0,.29,4.95.34,0,.11L65,77l1.38.55a5.39,5.39,0,0,0-2.74.5,18.93,18.93,0,0,1-3.63.55,4,4,0,0,0-.93.13,5.43,5.43,0,0,0,.68.13,15.6,15.6,0,0,0,2.05.06,15.15,15.15,0,0,0,2-.33,9.44,9.44,0,0,1,2.14-.3l-1.43.46.07.23,1.53-.21a23.5,23.5,0,0,1-2.8,1.36,28.45,28.45,0,0,1-3.34.78,1.14,1.14,0,0,0-.5.21c1.44-.2,3,.31,4.33-.63A3.76,3.76,0,0,1,65.68,80l-1.06.45,0,.11,1.64-.36,0,.11L59.86,82.8a14.74,14.74,0,0,0,6-1.75l.07.18a4,4,0,0,1-.39.23,4.11,4.11,0,0,0-.61.25c-.1.07-.15.23-.21.32l2.6-.63c-2.49.75-4.41,2.59-6.82,3.42l.12.26c1.36-.61,2.71-1.25,4.09-1.83.81-.35,1.66-.6,2.57-.93a2,2,0,0,1-.05.21c-2.1.53-3.32,2.5-5.28,3.28,1-.49,2.28-.43,3.09-1.45a2.37,2.37,0,0,1,2.23-1,8.4,8.4,0,0,0,1,0c-.77.16-1.4.27-2,.45-.17,0-.29.3-.44.46a3,3,0,0,0,.6,0c.6-.14,1.19-.32,1.56-.42l-4.46,2.8.1.19L67.51,85l.07.14-.85.52.08.23L68,85.59l-3.09,2.73.1.14,3.78-2.53.05.08-2.13,2.65.17.16,2.63-2.3-1.57,3.11.21.14L70.33,87l.06,0L69,90l.15.09L71,87.62l.16,0L70.28,91l.17.12,1.83-2.76-.71,2.77.26.12,1.25-2.48h.11l-.36,1.39.12,0,.62-1,.1,0-.8,2.45.18.12,1.36-2.09-.22,2,.24.07.89-2.56.13,0-.34,1.64.51-.55-.47,1.88c.62-.24.62-.24,1.31-2.16l-.15,2.86c1.09-.41.32-1.54,1-2.17l.12,2.23.21,0,.62-1.7v2.57l.21,0,.44-2.51.45,2.35.24,0V90.82l.16,0,.77,3.54.25,0v-1.8l.24,0,.47,2.8-.14.23c-.68-.34-1.36-.69-2-1-.06,0-.14,0-.22,0a4.68,4.68,0,0,1-.75,0c-.58-.09-1-.65-1.66-.55-.38,0-.63-.64-1.17-.37,0,0-.23-.28-.38-.47-.51.84-.91-.42-1.49-.16l.09-.79-.49.65a1.79,1.79,0,0,1-.23,0c-.54-.12-.95-.54-1.56-.54-.19,0-.37-.37-.57-.57a1.42,1.42,0,0,1-.66.16c-.21,0-.37-.31-.58-.51-.08,0-.41.22-.52.14-.53-.43-1.43-.13-1.77-.91,0,0-.21.07-.32.08-.47,0-.84,0-.68-.58-.28,0-.61.17-.85.07s-.09-.49-.14-.78l-.62.77v-1l-.56.63-.79-.33.11-.93-.1,0-.42.82-.77-.31.15-1-.1,0-.51.81c-.41-.33-1.22-.15-1.22-.82l-1.63-.43.24-1-.68.81c-.83-.43.05-1-.13-1.53l-.64,1.06c-.88-.24-.72-.84-.53-1.49l-.55.82c-1.09-.47-1.08-.6,0-2.12l-1.23,1.3-.73-.67,1-1.23-.09-.13-1.27,1.07-.66-.8,1-1.46-.25-.25-1,1.5-1-1.23,2.57-1.86,0-.11L51.9,81.71l-.69-.93,2.11-1.44-.07-.14L51,80.36l-.58-.74-.09,0c.12.23.22.46.35.69a20.28,20.28,0,0,0,6.54,7.23,12.1,12.1,0,0,0,1.57.66c3.88,1.79,7.73,3.64,11.64,5.36,1.63.72,3.38,1.16,5.07,1.74.27.09.52.31.78.32,1,0,1.92,0,3,0l-1.14.38,3.11.73,0,.09-3.22-.16,0,.13.8.42-1.24-.13,2,1.31-.08.14L76.8,97.13l.12-.15H75.77l.55-.65-1.65.33.42-.74c-.41-.07-1.24.94-1.16-.47-.41.46-.78.46-1.26,0-.25-.23-.72-.19-1.06-.34-.17-.07-.28-.3-.44-.5-.59.29-1.22.06-1.21-.46l-1.46-.1.42-.57-1.6.14-.07-.26.39-.58-.06-.07-.76.56-.92-.4.17-.61c-.53.77-1.12.32-1.67.1-.08,0-.06-.32-.07-.42l-1.41.09.45-.71-1.53.46.22-.66-1.41.15-.08-.23.48-.65c-.61,0-.87,1.12-1.64.37l.3-.66-.76.54-.68-.41.44-.7-.07-.07-.71.52-.57-.46.42-.71-.08-.08-.71.61c-.34-.25-1.07-.23-.49-1.15l-.73.46-.84-.6.71-.84-.07-.1-1,.71-1-.68.59-.76-.07-.1-.86.64-.83-.6.23-.34c-.36-.13-.85-.17-1.07-.44s0-.7,0-1l-.7.45c-.25-.4-1.1-.6-.48-1.45l-.63.37-.65-.75.72-1.07-1.06.66-.55-.86,1-.87-1.24.45c-.36-.39-.67-.8-.14-1.39l-.62.3-.47-.61.63-.6-1.08.24a44,44,0,0,0,2.43,3.76,21.2,21.2,0,0,0,5.6,5.37c1.22.73,2.3,1.68,3.49,2.46a10.23,10.23,0,0,0,1.92.91c3.38,1.35,6.78,2.63,10.14,4,2.37,1,4.68,2.14,7,3.19a2.63,2.63,0,0,0,.8.14,5.68,5.68,0,0,1,1.65.36H78.14l0,.09,2.37.65,0,.14-3-.51.72,1.15-.06.07L76.77,100l-.27,1.16h-.14l-.19-1.82-1.12,1.84h-.11l.43-1.71-.67.59-.11-.08.37-.6-1,.38-.11-.19.29-.48-1.1.16L73,98.91l.77-.48-2.1.09-.07-.28.56-.48-1.63.14-.07-.3.64-.38-1.77.11-.06-.25.33-.37H67.91l0-.26.76-.62L67,96.32l-.09-.21.3-.53L66.07,96,66,95.75l.42-.71L66.32,95l-.81.69-.94-.35.27-.74c-.53.39-1,.93-1.58.25L61.89,95l.57-.81c-.67.34-1.26,1.2-2.19.34l.72-.94c-.82.4-1.35,1.45-2.3.5l.5-.85a1.51,1.51,0,0,1-2.23.3l.42-.82-.11-.08-.77.88-1.43-.62.75-1-.08-.09-1,.9L53.51,92l.39-1-.11-.07-.66.83c-1.1-.26-.66-.92-.47-1.6L52,91c-.83-.54-.83-.54,0-1.94L50.8,90c-.32-.26-.78-.61-.39-1.35-.14.13-.29.25-.44.37-.52-.51-.52-.51,0-1.78-.23.2-.37.31-.48.43s-.2.25-.3.38c-.63-.49-.63-.49-.08-1.7l-.81.94-.27-.07L48.23,86l-.74.64c-.72-.57-.11-1,.12-1.46l-.93.75-.74-.83,1-.93v-.07l-1.21.71L45.21,84l1.11-1-1.19.66c-.71-.78-.67-.91.48-1.67l-1.17.33-.34-.58L45.39,81l0-.14L44,81.24c-.69-.8.3-.81.72-1.28l-1.15.24c-.63-.56,0-.85.26-1.32l-1,.3c.85,1.93,1.66,3.79,2.51,5.73l-.71.65,1.07-.31.85,1.07-.66.72,0,.1.94-.45.61.55-.54.7c1.16-.29,1.16-.29,1.9.8l-1,.76,0,.1L49,89l.81.92-.56,1,.91-.62.87.79-.49.77.06.1.75-.56.66.48-.37.62.09.08.63-.46,1,.66-.29.57,1.46-.17-.39,1,.21.16.45-.65c.57.24.57.24,0,1.17.61-.17.89-1.25,1.71-.48l-.27.85c.22-.19.31-.3.43-.38l.61-.37.11.71a.9.9,0,0,1,1.47-.16c.17.16,0,.75-.09,1.19L59.66,95v1.49l.12,0,.49-1c.63,0,.65.29.5.79l.63-.71.25,1,.66-.79.15,1.26.47-.65c1.49.28,1.49.28,1.31,3l.67-2.52c.83.93.88,1.42.33,3.27.52-.74.52-.74.59-3.35a3.48,3.48,0,0,0,.54.92c.2.16.54.15,1,.28l-.88,2.44.15.06L67.86,98c.09.55.25,1,.86.16l.16.22-.63,2.45a6.57,6.57,0,0,0,.56-.7,8.8,8.8,0,0,0,.44-1c.53.61.53.61,0,1.92l1.13-1.58.13,0-.33,2,1.12-1.2.22.13L70.94,102l1.38-.83.11.08-.81,1.37,1.71-.67-.43,1.14,1.34-.67-.86,1.72.25.24,1-1.49.16.12-.34,1.5.78-.73.42.56-.37.58-.5.5L73,106.79l-.1-.12,1.16-1.38-.13-.15-1.14.62-.11-.09.69-1-1.18.38.33-1-1.42.85.57-.81c-.65-.72-.88.3-1.24.31l.16-1.18-.24-.12-1.33,1a4,4,0,0,0,.35-.66,5.72,5.72,0,0,0,0-.72l-.56.44v-1.07c-.85.77,0,1.68-.4,2.61-.07-1-.38-1.72-1.38-1.92L66.81,104h-.14l-.41-1.87c-.73.56-.2,1.35-.2,2.11l-.53-.93-1.23.47a11.65,11.65,0,0,1-.56-1.53,13.8,13.8,0,0,0-1.43-4.16l-.38.72c.58,0,1,.1.35.74.71.28.78.56.31,1.14.7.23.7.24.25.78.16.14.43.26.44.41s-.15.45-.27.73c.37.22.68.54-.11,1,.67,0,1.22.12.91,1,.74-.15.85.09.32.73l1.31-.4-.61,1,.08.08,1.45-.92.06.07-.85,1,.09.15,1.36-.44L66.47,107l1.62-1-.78,1.33.1.1,1.75-1.05-.78,1.06,2.22.52,0,.28-1.12-.12.31.4-.67-.08,0,.15,1.85.87c-1.68,0-3-1.4-4.78-.92l.38-.48,0-.18-2.11.42,0-.15,1.28-.42v-.29l-1.82-.34.73-.4H62.92l.67-.53-1.63.07,1.28-.64-1-.21c.1-.18.34-.43.29-.56-.87-2.08.09-4.68-1.87-6.45,1.62,1.76.59,4,1.21,6.08l-.55-.46-.19,1.61a14.37,14.37,0,0,1-.5-1.48c-.2-1-.3-2-.51-3a7.79,7.79,0,0,0-3-4.4l-.8.6c.66,0,1.36-.36,1.57.6l-.7.48c.81-.16,1.58-.22,1.82.9l-.82.57,0,.09,1.07-.25.38,1-1.23.64,1.24-.07.21.87-1,.37v.11l1,.05c.46.76-.23.86-.88,1.19h1c.42.74.06,1.12-.6,1.3l1.51.53-1.23.82h1.51l0,.23-1.09.8,0,.1,2.34-.72.05.1-1.94,1.11.08.17,1.72-.8.08.15L61,108.81l2.62-.67.06.07-1.44.79.11.26,1.62-.64-.79.92,1.18-.3-.47.45,0,.21,1-.13c0,1,1.13.53,1.53,1.21-1.06-.27-2.11-.58-3.17-.78a9.45,9.45,0,0,0-1.68,0l.36-.42c-.22-.14-.45-.1-2.14.45l1.2-.91c-1-.6-1.72.47-2.72.29l1.41-.71-.68-.79-2.77,1.2.93,1.23-.1.1-1.46-1.28-.11.08.33.83-.12.08-.69-.78-1,.47-.06-.11.59-.54c-.38-.72-.84-.06-1.33-.12l.8-.63-.51-.76-.77.16-.1-.13.62-.4-.47-.86-1,.21,0-.09.93-.62-1.05-.68.48-.2.06-.21-1-.35.81-.33-1.74-9.53-.28,0c.21,1,.46,2.06.62,3.1s.3,2.17.37,3.25,0,2.16,0,3.47l-.63-2.51v3.59l-.84-3.63-.83,1.78A27.87,27.87,0,0,0,46.63,90l-1.34.93,1.38-.28.36.83-1.18.66L47,92l.36,1.09-.72.33c.65.11,1.35.19,1.22.9-.09.43-.55.79-.83,1.17l.86-.2.13,1.16-.77.37.93.08c.32,1.1.27,1.19-.9,1.83h.86c.29.84-.11,1.31-.79,1.73l.94-.2.11,1.12-1.22.17v.15l1.09.13c.08,1.08,0,1.16-1.26,1.33l1,.33c.05.84-.66.5-1.28.78l1.18.16.22,1.12-1.3-.15,1.64.89-1.2.32.92.62-1.24.58,1,.31-1.27.67.94.19v.13l-1.27.34L48,110c-1.54,0-1.42,1.21-1.91,2l.26-1.8-.31.37-.83.09.21-.55-.54-.18.83-1-.95-.26.87-.53-.33-.47.7-.56L44.83,107l1.11-.49L45,106.1l.77-.26-.4-.3s0-.09,0-.11c.15-.17.42-.32.43-.49a32.4,32.4,0,0,0-.66-8.73,24.1,24.1,0,0,1-.27,8.9l-.29-1.53-.19,0-.07,1.25-.41-1.13-.12,0,.26,2.56c-.56-.81-.15-1.85-1.1-2.25l.27,2.23-.11,0-.54-2h-.26c-.22,1.21-.43,2.42-.65,3.63h-.1c0-.53.09-1.06.07-1.59s.49-1.14-.26-1.55c0,0,0-.32,0-.47.53-1.69.94-3.43,1.63-5.06a10.38,10.38,0,0,0,.62-6.17c-.24-1.29-.41-2.59-.62-3.88a1,1,0,0,0-.12-.3l-.52.42c.22.21.59.4.64.65s-.19.6-.32,1l.66.07-.61,1,.72.86-1,.53,1.09.07-.43,1,.56.91-1.17.18,0,.13.93.18,0,.76L42,96.26l0,.1,1.42.68c-.23,1.22-1,.17-1.58.42l1.11.61c-.2,1-.27,1-1.56.57l.94.68c-.27.61-.27.61-1.49.17l1,.84-.35.94-1.62-.8-.07,0a6.89,6.89,0,0,0,1.11.86c.47.24.5.49.21,1l-1.55-.83-.08.07c.39.32.81.62,1.16,1a2.68,2.68,0,0,1,.39.68l-.22.15-.8-.31-.08.13.88.66-.1.86-.8-.12,1.1,1.19H40l1,.83-1.31.39,1.63.57-.86.11-.52.69.5,1.15-.92.3,1.82.73c-.49.24-1.32-.21-1.2,1l-.49-.81-.31.77-.33-.76-.17,1-.39-.66H36.9l0-.18,2.13-.36-2-.82,2.25-.49,0-.12L37.45,109l0-.09,1-.26-1.11-.38,2-.42,0-.09-2.78-.41v-.12l.46,0a10.21,10.21,0,0,0,2.24-.52l-1.37-.31L39,105.8v-.18l-.76-.09.35-1.47-.14-.06-.72,1.35c-.17-.47.52-1.11-.42-1.23l.9-1.78-.27-.12-1.25,3,.06-1H35.4a1.32,1.32,0,0,1,.77-1.11c.63-.32,1-1.25,1.38-2,.68-1.31,1.27-2.66,1.91-4a8.65,8.65,0,0,0,.51-4c0-.61.21-1.22.22-1.83a9.42,9.42,0,0,0-.2-1.84c-.13-.62-.06-1,.62-1.28A11.57,11.57,0,0,0,42.84,87l-2.8,1c-.1-1.06-.78-1,2.37-2.28l-2.21.52c.13-1.07.3-1.21,1.7-1.47l-1.07-.23c-.27-.83.33-.93.91-1.18l-.82-.1a14.26,14.26,0,0,0-1,2.63A16.39,16.39,0,0,0,39.73,90c.18,1.8,0,1.67-1.35,1.88.26.58,1.42-.29,1.41.88l-1.85.14c1.84.39,1.84.39,1.78,1.17H38l0,.13c.31.06.61.14.92.18,1,.12,1,.13.7,1.15l-1.4-.28c.31.61,1.77.27,1.11,1.49l-1.63-.19,0,.15,1.48.47-.34.76-1.5-.38,0,.07,1.22.69c-.16,1.1-1,.34-1.58.68l1,.35c-.15,1.3-1.11.53-1.71.7l1,.51,0,.22-1,.22.61.39-1.38,1.36c0,.08,0,.49-.14.51-.68.16-.43,1-.89,1.25,0,0,.1.35.14.47l-1.17.37.66.53-.75,0,0,.19.94.64-2.09-.27,1.28,1.1-.69.09,0,.15,1.12.5H31.77c1.1.11,1.1.94,1.18,1.76l-.61.16,0,.12,2.4.31v.13l-1.59.1.06.82-.91-1.06-.07,1.32-.51-1.15-.19.06.09,1.3-.09,0-.61-1.59-.26,1h-.12l-.16-.7-1.2-.21,2.24-.84-2.26-.56v-.11l1.94-.14,0-.15-1.82-.43,2.36-.94-2-.32V107l1.1-.22,0-.17-.88-.37,2.14-.58-1-.81,2.11-.43-.74-.52,1.38-.36-.43-.34,1.15-1.08c-.4-.39-.31-.64.29-1l.42-1.69c-.6,1.07-1.06,2-1.59,2.84a4.48,4.48,0,0,1-1,1.06c-.18.13-.52,0-.7.06.39-1.18.72-2.24,1.09-3.28.3-.81.67-1.6,1-2.42a11.66,11.66,0,0,0,.74-2.4c.25-1.93.39-3.88.56-5.65l-.76,1.06.48.15c.2.86-.6.7-1,1.06l1.14.14-1,1,.46.22c.23.64,0,1.1-1,1.39l1,.18-.12,1-.94-.1c0,.46,1.2.24.59,1.09l-.84-.19c.19.41.95.71.22,1.16l-1-.3.73.9-.95.14.51.8-.72.4.65.69-1.49-.14,1,.63-.32.85-1.18-.33-.05.12,1,.61-.29.65-1.23-.37.87.69c-.38,1-.93,0-1.39.19l.86.72-1,.36.5.72-1.45-.31.85,1.07-.05.1-.62-.38-.14.1.45,1L27.09,105l-.08.08,1.2,1.85-.11.1-1.55-1.47-.1.07.95,1.5-.07.09-1.78-1.37.75,1.76-.09.06-1.06-1,.12.62-3.21.84L22,108l2.35-1-.1-.27-4,1.32,0-.1,2.84-1.32-.09-.18-2.17.28,0-.11,2.5-.69-.69-.94.09-.13a8.29,8.29,0,0,0,.89.56.91.91,0,0,0,.6.08c.08,0,.08-.33.11-.48l.76.24.05-.5.63.37.16-.71c.35.47.52.07.86-.06a5.88,5.88,0,0,0,3.38-3.7c.68-1.82,1.35-3.64,2-5.47a8.15,8.15,0,0,0,.26-1.92,28.28,28.28,0,0,1-3.93,9.19c-.59,1-1.53,1.21-2.71,1.52l2.12-1.18-.09-.19-1.55.68-.05-.1,1.38-.94-.15-.25-1.22.59.6-.79-2,.7c.6-.42,1.21-.81,1.79-1.25.79-.59,1.55-1.22,2.36-1.87l-1-.33c.26.85.2.94-.6.89.14,1.06-.57.33-.92.42l.34.63c-.92-.09-1.39,1.12-2.33.51a2.3,2.3,0,0,0,0,.64c.05.13.25.22.38.33-.43.63-.74,0-1.07-.13s-.49-.39-.82-.49l.67.88c-.79.81-1-.21-1.55-.51l.55,1.47-1.46-.56.22,1.08-1.65-1,.89,1.4-2-1.09.7,1.12L18,104.39l.12.55-1.59-.72.45,1.36c-.37-.64-.86-.54-1.4-.34a8.29,8.29,0,0,1-2.05.49L16,104.66l0-.2c-1.71,0-3.23,1-5.11,1.23l3.81-1.52,0-.16-.58-.17.81-.27-.56-.74c.61,0,1,1,1.56.3.1-.11,0-.42,0-.67l1,.62-.1-.71,1.07.89.1-1.14,1.11.84.12-1.22.9,1.14.27-.23-.35-.86c.5.19.93.33,1.35-.13.16-.17.61-.07,1-.09l-.4-.87,1.45.62-.29-1.21,1.72.78-.72-1.42,1.47.82a1,1,0,0,1,1.08-1.1,4.33,4.33,0,0,0,.7-.86,6.06,6.06,0,0,0,.22-1.18l.81.44-.47-.85L29,96.43,28.74,96l.71-.83a10,10,0,0,0-3,3.36c-.14.31-.59.46-1.09.82l1-1.83A2.41,2.41,0,0,0,27.16,95l1.22.26-.68-.56c.18-.85.83-.17,1.27-.45l-1.48-.59L29,93.05l-.78-.36a18.13,18.13,0,0,0,2.66-1.41,20.4,20.4,0,0,0,2.25-2.35l-.67.32-.65-.59C32,90,32,90.11,31.1,89.83l.07.88-.35.15L30.1,89.7c-.16.78,1.09,1.24-.05,1.83l-.92-1.09-.09,0,.58,1.16c-.69.47-1.11.21-1.48-.41l.1.71a9.46,9.46,0,0,1-1.18.23,2.29,2.29,0,0,0-1.84.86c-.08.12-.78-.22-1.14-.33l.39.78c-.51.1-1,.23-1.52.28a8.28,8.28,0,0,1-1.12,0l.58,1.14c-.92-1.37-1.95-.09-3-.15l.74-.6,0-.18-.57.06-.69-1.26.85.52-.27-1c.59.61,1.11,1.23,1.85.32L21,92l1.18,1.06.44-1.29.56.7,1-1,.8.58.29-.95.7.17-.26-.85,1.41,1-.38-1.72,1.6.94.08-.09L27.86,90l.88-.94h1.6l-1.06-.89c1,0,1.47-1.35,2.5-.64-.2-.65.85-1.41,1.54-1.18a2.9,2.9,0,0,0,.85.25l-.77-.65c.83-.73,1-.74,2.28-.15l-1.28-1,1.52-.2L35.25,84c.19-.92.9-.61,1.55-.66l-1-.42c.19-.91.46-1,1.86-.94l-1.42-.37c.16-.63.2-.65,1.62-.92H36.57c.1-1.29.5-1.53,1.93-1.4L36.91,79c-.28-.84.12-1.09,1.68-1L36,77.27l-.06.13.74.46c.13.83-.59.7-1.19.87.51.29,1.45.08,1,1.08L35,80v.12l1.35.24c-.24.44-.35,1-.68,1.19s-.94.09-1.43.25l1.39.24c-.16.41-.11,1-.81.86a3,3,0,0,1-.62-.31l.07-.25-.63.38,1.29.67c-.38,1-.51,1-1.85.77l.73.55c-.47.48-.89,1-1.71.52l.44.63-1.76.48c.2.48-1.27,1.33-2.36,1.2-.13.35-.25.69-.36,1l-.77-.3-.41,1-.88-.6.44.85h-.87l.05.53-.89-.49.13,1L24,90.21c-1,1.41-2.45,1.07-3.68,1.31l2.85-.82c-.72-.81-1.47.18-2.18-.19l.83-.41,0-.13-1.54.14,0-.21,2.23-.5-.25-1.17L24,89.51l.12-.15L23.63,89l.38-.82,1.07.57.09-1.24,1.16.75c0-.25,0-.52,0-.55a10.08,10.08,0,0,1,1.07-.32l.24-.67.66.29c0-.13,0-.27.09-.32a1.42,1.42,0,0,1,.58-.39c.74-.14.88-.42.45-1.08l1.6.33-.42-1.22c.48-.12,1.26.85,1.68-.41l-.7.4c0-.2,0-.46.11-.61a8.76,8.76,0,0,1,.81-.89c0-.14-.23-.44-.15-.6s.43-.4.66-.61l-.4-.22c-.1-.92.54-.88,1.2-1l-.9-.26.12-.85,1-.17-.93-.28c-.23-.8.37-.84.9-1l-1-.26.41-1.14-.29-.06a24.25,24.25,0,0,1-.44,2.55,28.4,28.4,0,0,1-1.41,4l-.29-1.12.57-.33-.78-.35,1.05-.5-1.14-.27,1.18-.55-1.26-.46L32,79.14l0-.1-1.3-.28,1.35-.63,0-.14c-.18,0-.37,0-.55,0l-.77.1,1-.82-1.4-.61,1.46-.24v-.13l-1.24-.1,0-.16L32,75.62l0-.11H29.83l.68-.49L30,74.69l3.05-.86L33,73.64l-2.71.56c.7-1.29,2.07-.78,3-1.62l-5.75,1c1.19-1.23,2.95-1.24,4.38-2l-4.24,1c1.22-1.23,2.91-1.5,4.51-2.26l-5.53.8-.08-.27,3-1.29,0-.13-1.91.51-.24-.78,2.78-.84,0-.13-2.06.4L28,68.42l2-1.28L30,67l-1.31.46.15-1.19L27.91,66l1-.81-1.11.29c-.48-.85.56-.78.79-1.34l-1.28.5-.88-3.18c-.25.93.73,1.89-.19,2.62a4.48,4.48,0,0,1,.78.65c.1.11,0,.4,0,.67.57.36.62.73,0,1.35.75-.18,1,.09.91.75a1.18,1.18,0,0,1-1.4.74,2.3,2.3,0,0,1,.31-.36,3.5,3.5,0,0,1,.42-.24l-.14-.17-.72.34c-.17-.75-.35-1.47-.47-2.19,0-.21.14-.45.23-.68-.59-.24-.74-.76-.35-1.42l-.63-.42.34,2-1.38.18v.1l1.43.22.2,1.47H24.3c.21.7,1.48,0,1.34,1.1,0,.28-.1.55-.16.86l.68.41a2.54,2.54,0,0,0-.4,0,.52.52,0,0,0-.32.13.48.48,0,0,0-.09.38c0,.11.16.21.21.27l-.68.56-.57-.24-.07.08L25.74,72l-.11.15-1.19-.81L25.5,73l-.08.08-.73-.63-1.23,2.63-.12,0,.58-2.23-.27-.08-.53.83V72.21l-.21,0-.44,1.24h-.11c0-.33-.07-.73.09-1a6.87,6.87,0,0,0,.63-2.26,3.71,3.71,0,0,1,.48-.88L22.81,69c.73-.37.62-1,.47-1.54-.24-.83.22-1,.83-1.24h-1l-.19-1.54c-.77.24-.56-.76-1.1-1.31l.41,1.41-.82.21c1,.06,1.4.6,1.14,1.51-.07.26-.57.39-.93.6l.91.21v1.18l-1.27.07,1.09.42-.33,1-1.08-.16,1.34.85c-.86.4-.39.77.16,1.28l-.92-.28a5.94,5.94,0,0,1-1.59,3.47l.74-1.94-.32-.16-.85,1.42.21-1.76-.24,0L18.54,74l-.1-.06,1-2.47,1.15.75.09-.11L19.2,70.64H21l-1.45-.76,1.36-.63c-.48-.32-.71-.73.1-1.09-.79-.92-.64-1.44.74-2H20.45l-.28-.75c-.09-.23-.18-.46-.28-.74l.82-.45h-1l-.84-2-.06,0L19.11,64a2.23,2.23,0,0,1,.35.61c.05.19-.09.42-.16.71.59.43.63.89,0,1.18.88.29.88,1.82-.15,3.31.08-.32.17-.63.24-1a1.87,1.87,0,0,0,0-1l-.24.68-.26-.68-.47,1.69-.11,0,.29-3.81c-.49-.19-.62-.63-.17-1.14-.72-.29-.76-.53-.26-1L17.29,63l-.79.39c.34.08.7.07.89.24s.21.52.32.82l-.92.35,1,.18v1.63l-.79.17c1,.26.9.94.78,1.67h-.91l.72.42v1.25l-.95-.2.94,1.21-.93.71.76.54c-.21.25-.43.41-.5.62-.37,1.16-.69,2.33-1.17,3.45l.59-3.18-.14,0-.4,1-.08-1.36L15,74.28c.23-.67-.1-1.57.73-2.07l-.55-.42,1.11-1-1.12-.28c.91,0,.64-.75.81-1.23l.9-.16-1.27-.39.84-1.36-.54,0c.06-.62-.13-1.37.91-1.48L16,65.78c0-.48-.65-1.12.38-1.43h-.81L15,61.75c0,1.93.86,3.83.13,5.74h-.32v-3c-.66.49.42,1.4-.53,1.48l.15,1.25-.87-.12-.06.12,1.12.68-.82.17.82.53L13,68.67l.89.55-.5.78-.56,0,0,.11.93.48-.61,1.11h-.86l1.5.59-1.55,1,1.08.14a9.46,9.46,0,0,0-.44,1.3c-.18,1-.29,2-.53,3-.12-1,.35-2-.25-2.94l-.36,1.25-.18-1.19-.15,0-1,2.52c.18-1.17.3-2.13.5-3.08,0-.2.36-.34.53-.49l-.37-1.47h.59l-.07-1.35.69-.1-.68-1.36h.86l-.55-1.33.92,0c-.77-.7-.66-1.21.27-1.52l-.8-.62.73-.62c-.1-.24-.32-.51-.3-.77.08-1.23.24-2.44.35-3.66,0-.18-.14-.38-.25-.68-.08.86-.1,1.57-.23,2.26-.06.29-.37.54-.6.85.7.34,0,.92,0,1.53l-1-.17,1.16.8-1.62.77,1.14.58-1.48,1,.69.47-.77,1.29-.64,0,1.36.83h-.75L9.75,71.5,9,71.37l-.07.11,1.44.87H9.59l-.27,1H8.26l1.84.82H9.18c-.14.57-.15,1.27-1,1.11l1.43.3c-1.18.3-1.05,1.22-1,2a5.15,5.15,0,0,1-.8,2.94c.6-3.13.6-3.14-.22-3.3l-.32,1.48-.11,0L7,77l-.24,0-.88,2.18-.09,0,.73-3.26,1.1.1-1-.51.19-1.27H7.91l0-.14-1-.34.22-1.32,1-.07-.78-.39c.18-1.49.18-1.49,1.56-1.51L7.79,70c.6-.42.29-1.51,1.19-1.53a3.35,3.35,0,0,1-.08-1c.06-.24.35-.44.44-.54l-.5-1.49L10,65.26l-.93-.36c.19-.49.06-1.21,1.06-1.12-.89-.55-.24-1.09-.07-1.56.1-.27.52-.42.81-.64l-.75-.43,1.35-.47-.84-.38.28-1.49,2.19.2,0-.14L11,58.34V56.89l1.54.23.05-.07a4.65,4.65,0,0,0-1-.43c-.65-.12-.84-.48-.8-1.14l.87.1c-.58-.43-1.43-.55-1.36-1.67l1.56.58.08-.13c-.49-.25-1-.48-1.46-.75s-1-.12-.64-.9c.05-.09-.23-.35-.41-.6l1.25.59.1-.16-.45-.7,1.4.88.13-.15-.25-.64a4.24,4.24,0,0,1,1.66,4.31A4.87,4.87,0,0,0,13.44,52l1.07,1.75.21-.08.12-.92a3.9,3.9,0,0,1-.52,3.72c1.08,0,1.12-.76,1.7-3.17l.14,1.33.21,0,.15-.93c.2,1.19.47,2.3-.41,3.46-.47.62-.33,1.7-.35,2.59a4.8,4.8,0,0,1,1.11-3.15,10.14,10.14,0,0,0,.89-1.93,16.33,16.33,0,0,1,0,2.62c-.13.83-.52,1.61-.69,2.45.46-1.62,2.06-2.93,1.26-4.9l.23,0,.34,1.1h.2l.24-.93c.93,1.77-.75,3.41-.18,5.07a14.15,14.15,0,0,1,.34-1.67,17.91,17.91,0,0,0,.73-1.71,11,11,0,0,0,0-2.11l.47.92.39-.53.25.53.15,0,.1-1.06a10.81,10.81,0,0,1-.46,5.85l.26.05,1.43-4.92,1,6.42V55.59l.17,0,.39,1,.32-.8L25,60.1l.32,0c.15-1.3-.53-2.72.35-3.7l1.26.75L27,57l-.86-.55.48-.55-.46-.64,1,.53.13-.17-.37-.67,1.77,1.17c-.24-.56-1-1.26.34-1.23-1.05-.43-.14-1-.21-1.46l.77.1-.48-.8.62-.32c-.08-.23-.27-.53-.21-.75s.41-.34.6-.48c-.06-.12-.29-.38-.23-.53s.38-.32.57-.45c-.72-.58.13-1.09.14-1.71l1.07.24-1-.72a9.69,9.69,0,0,0,.84-1.51A12.68,12.68,0,0,0,32,44.55c-.32-.21-1-.31-1.28-1.07H29.63a2.17,2.17,0,0,1-.11.75c-.07.13-.4.11-.58.16v.53l-.37-.09c-.16.27-.24.56-.42.68s-.44,0-.61,0l-1.06.88-.3-.79c-.92.17-.93.17-.93.12l-.84.46-.31-.92-.41.85-.92-.9c-.39.43-.67-.15-1-.47a11.76,11.76,0,0,1-.8-1l.67-.45h-.92c-.13-.6-.31-1.2-.38-1.8,0-.2.23-.42.36-.63a.64.64,0,0,1,0-1.11c.23-.16.27-.06.09-.36s.57-1.23,1-1.15c0-.21-.08-.49,0-.62s.43-.21.71-.33l.53-.74.7.88-.19-1,.78-.26.53.81,0-.85h1.09l-.07.79.53-.72c.41.11,1,.05.7.89l.31-.59.89.54-.46.6.05.08.7-.42.54.48-.7.61,0,.09.92-.36.49.68-.75.52,1-.05.28,1-.95.39,1.08.08-.42,1.89c.31.31,1,.36,1.58.72.14.1.2.33.31.5a8.88,8.88,0,0,1,1.2.35.78.78,0,0,1,.36.55c0,.61-.18,1-.94.93l.81.47-1,.39.53.28a.94.94,0,0,1-.95,1.11c.84.45.43,1,.2,1.47-.13.25-.61.31-.94.45l.77.36c-.42.55,0,1.61-1.05,1.67.1.21.34.49.28.68s-.38.39-.57.56c.05.09.3.33.25.51a3.07,3.07,0,0,1-.49.83l.14,1.19-.73.1v.19a6.54,6.54,0,0,0,1,0c.52-.08.77.06.8.62a5.58,5.58,0,0,0,.41,1.95l.28-3c.87,2.92,2,5.69,4.43,7.76A16,16,0,0,1,33,55l1.59,3.15.18-.09-1-2.82c1.62,2.17,2.78,4.68,4.84,6.53-.74-1.06-1.52-2.1-2.21-3.19s-1.27-2.21-1.9-3.32l.24-.15,2,2.9.11,0-1.5-3.52,4.58,5.14.16-.13c-.47-.56-.94-1.12-1.42-1.67S37.56,56.58,37.09,56A7.24,7.24,0,0,1,36,54l2.72,2.49.07-.09-2.53-3.75.12-.08L39,54.94l.13-.13-2-2.23.13-.14,2.6,1.49.09-.14L37.81,52l.07-.14,2.65,1.41.08-.12-1.85-1.35.13-.29c.37.17.76.32,1.12.51a5.84,5.84,0,0,0,1.28.62c-.45-.47-.91-.92-1.33-1.41a2.9,2.9,0,0,1-.32-.74l2,1.07A8.41,8.41,0,0,0,40,50.2c-.06,0-.27.15-.41.24l-1.18.88-.15-1.19-.09,0a3.47,3.47,0,0,1-.19.72.53.53,0,0,1-.4.28.51.51,0,0,1-.36-.32c-.07-.36-.06-.74-.17-1.12l-.23,1.42-.71.16-.19-.73L35.3,51.7l-.22-.09L35,50.92h-.17v3.56c-1.17-.23-1.24-.37-1.3-2.3l-.21,1.51c-.66-.47-.79-1.09-.35-2.35l-.63.77c-.34-1.34.32-2.51,1.36-2.5,0-.17-.06-.46,0-.5a4.93,4.93,0,0,1,.91-.28s.19-.33.28-.31a6.76,6.76,0,0,1,1,.42l-.36-.8,1.16.28c.08-.08.23-.37.37-.37a3.43,3.43,0,0,1,.89.29l.24-.35.89.91,0-.88,1.43.18-.4-.56.06-.09,3,2,.11-.15-2.68-2.3A15.1,15.1,0,0,0,48.7,49.4V47a12.33,12.33,0,0,1-7.77-2.24l3.34.79,0-.17c-.46-.13-.93-.22-1.38-.39a2.82,2.82,0,0,1-1.1-.74l1,.34.08-.16-1.4-.9.07-.15a13.05,13.05,0,0,1,2,.92,9.77,9.77,0,0,0,10.12.82A4.52,4.52,0,0,1,55.66,45l-1.9.93,1.93-.12c-1.28,1.15-3.51,1.6-6.41,1.21l-.13,2.41c2.71.35,5.08-.52,7.46-1.35l0,.22a10.76,10.76,0,0,0-1.1.48,4.23,4.23,0,0,0-1,.81l2.17-.84v1.12h.14L57,48.78c1-.27,1-.27,1.21.32.52-.77.73-.76,1.14,0l.42-.55.66.61.12-.54c.6.11,1.42-.2,1.23,1.15l.51-.94.45.53,1.47.51-1.06.84,0,.09,1.05-.35c.53.73.53.73-.4,1.34l.9-.12v.83h-.84l.68.46c0,.08-.05.23-.12.25-.56.24-.52,1.52-1.73.73l.34.66L62,55.12l.56-3.52-.15,0L62,52.86,61.16,51c0-.06,0,0-.06.11l-.16.41H60l-.17-1.18h-.12l-.14,1.2-.88.1-.1-1h-.15l-.16,1c-.91.31-1.88-.54-2.45-2.18l-1.5.93.05.12L55.57,50c.47.68-.24.86-.52,1.24l1.41-.2.17.38a4.64,4.64,0,0,0-.79.59,8.24,8.24,0,0,0-.72,1,17.33,17.33,0,0,1,1.62-.77,14.49,14.49,0,0,1,1.66-.4l-1.84,2,.11.11,2.2-1.79.15.14L57.54,54l.1.11,2-1.14c-.15.32-.29.62-.44.92L57.47,56.4l.27.16,1.46-2.62,1-.91-1.12,2.82L60.43,55l.32.27-2.5,6c1.51-2.07,2.19-4.57,3.24-6.87l.22.09-1.15,3.19.12.07,1.6-2.29-.08.63.54-.48.21.11a71.09,71.09,0,0,1-4.1,9.08l.19.11c.43-.77.88-1.52,1.28-2.3s.81-1.68,1.2-2.52.8-1.68,1.14-2.54A16.92,16.92,0,0,1,63.73,55l-.41,3.38.23.06c.45-1.61.9-3.22,1.3-4.62.24,3.11-1.34,5.91-2.67,8.79a16.48,16.48,0,0,0,3.05-7.91l.27.05c-.11,1.48-.23,2.95-.35,4.46l1.14-2.45.29.76.27-.51.8.36a2.28,2.28,0,0,1-1.12-2.21L67.2,55c-1.1-.2-1-1-1.14-1.79l.84-.4-1-.08c.1-.71-.74-1.45.08-2.17-.87-.1-.6-.9-.76-1.43,0-.16.18-.41.31-.66-.74-.16-.78-.76-.59-1.46,0,0-.07-.14-.12-.21-.49-.65-.36-1.18.4-1.49.55-.22,1.14-.38,1.81-.61.12-.92,1.27-.34,1.76-.75a3.3,3.3,0,0,1-.44-.73c0-.1.19-.28.25-.36l-.21-1.32.85.19-.55-.6.43-.82.72.31L69.42,40a1,1,0,0,1,1.24-.66c.12-.26.19-.58.39-.72s.46,0,.67,0c.22-.16.46-.45.75-.52s.48.23.75.38L73.3,38l1,.07.1.85.42-.74.89.34-.5,1.08.89-.82.71.45-.8.72L76,40l1-.51.67.78-.62.45H78l.35.76-.73.16c.31.14.67.19.82.39s0,.5-.08.72l.24,1.49-1-.22c.9.54.66,1,.25,1.55L77,45l.7,1.13-1.24,1.1L76,46.58v.89l-.85.42-.34-.75-.14.88c-.58,0-1.26.59-1.69-.21a1.76,1.76,0,0,1-.69.23,3.32,3.32,0,0,1-.86-.44c-.49.22-1.62-.62-1.61-1.35l-.93-.51.71-.75-.84.24c-.12-.85-.52-.62-.92-.22A2.69,2.69,0,0,1,66,46l.83,1.48-.85.13c.88.18,1.1.83,1.1,1.67h-.69c1.31.28,1,1.4,1.33,2.28l-1,.13c1.42-.07,1.33,1,1.58,2L67,53.89c.36.55,1.28-.27,1.46.65.11.58.28,1.15.45,1.82l-1.32-.27c1.85.24,1.64,1.71,1.78,2.87l-.89.4c-.6-.9-1.59-.34-2.6-.55l.66.62-.85.27.1.24,1.14-.48-.06.55.83-.42,1.69.85-.35-1,.26-.12.54.83V55.56a13,13,0,0,0,.22,1.49,2.45,2.45,0,0,0,.44.66c.13-.21.26-.41.38-.62a.56.56,0,0,0,0-.22l.52.84L72,56.65l.19,2.12.16.08.91-2.31c.18,1.54.37,3.14.56,4.73H74V56.55l-.14,0,.47,1,.13,0-.2-1.06.08,0,.84,1.84h.14V56.36l.14,0c.18.68.39,1.35.52,2s.19,1.34.28,2.06c.69-1.4-.21-2.73-.08-4.28l.36,1.33h.24l.09-.95c.28.65.56,1.25.78,1.86s.39,1.23.58,1.85l.22,0c-.24-1.29-.47-2.59-.7-3.83.36.31.27,1.39,1.36,1.09L79,56.29l.23,0c.3,1.55.61,3.1.93,4.72a16.26,16.26,0,0,0,.09-2.4c-.09-.82-.37-1.61-.47-2.45l.53,1.15.73-.43-.69-1.67a11,11,0,0,1,2.51,5.28c.23-2-.6-3.7-1.18-5.5L82.22,56,83,55.5l-.4-1.43.13-.06A27.53,27.53,0,0,1,84,57a27.58,27.58,0,0,1,.67,3.18l.2,0-.66-6,.44,1.1h.12l.09-1.41c.35.63-.11,1.64,1.08,1.56l.29-.79c-.12.56.76,1.28-.2,1.64.14.2.44.46.4.61a2.63,2.63,0,0,1-.57.73c.09.07.45.26.43.38s-.29.42-.46.63c.32.18.68.45.07.87a.15.15,0,0,0,0,.15c.85.84-.11.9-.62,1.24l.86.09c0,.69-.8,1.2-2.56,1.74.65-.16,1.31-.3,2-.49s.61-.21.76.54l-1.34.22,1.91.4c-1,.75-.13.82.2,1.2l-1.71-.08,1.84.86-1.35.35,1.46.64-.92.23,1,.56L86,67.51l1.28.75-.62.22,1,.7L87,69.06l-.4.61-.19-.07.43,1.29-1.28.19v.21L87,71.4c-.26.32-1.17.09-.83.93l1.21.2v.09l-1.14.16v1l-.73.33,1.09.13-.61.47,1.17.22-1.81.69,1.61.63-.68.9h1.2c-.78.36-.4,1-.14,1.22s.84.35,1.26.6H87.49l-.12,2.26c-.37-.69.27-1.79-1.13-2L86,80.31l-.45-1.21-.67.79v-1l-.75-.2a2.9,2.9,0,0,0,.61-.6c0-.07-.27-.34-.42-.52l.61-.57-.52-.25-.07-1.26-.24,0,.58-.72-.64-1-.23.23.53-.3-.75-.55,1-.16-.67-1.35h.83l-.87-1,.88-1.11-.9-.54,1.09-.7c-.61-.58-.52-1.21.44-2.11l-.62,0,.15-1.8c-.63.72,0,1.87-1,2.34.31,1-.52,1.37-.85,2l-.36-.21.46-.79c-.5-.37-.49-.91,0-1.39L82.79,65l-.6.2c.78.59.62,1.1,0,1.63A1.64,1.64,0,0,1,82,68.87l.73.47-1.07.89,1,.7-1.14,1.26,1.21.41c-.45.4-.64.8.16,1-.15.24-.29.48-.45.75l.74.84c-.52.42-.46.67.2,1.07l-1.36,2.36-.16-.05.64-1.55-.25-.12-.62,1-.09,0,.23-1-.1-.11-1,1,1.16-2.3-.33-.21-.27-1.49.48-.16L80.62,73V71.65l.95-.24-.78-.34-.23-1.39.82-.32c-.17-.18-.6-.51-.56-.6a6.06,6.06,0,0,1,.8-1,1.17,1.17,0,0,1,0-1.82l-.37-1.3c-.12,1-.21,2-.37,3,0,.36,0,1-.72.74A7.53,7.53,0,0,1,80,67.19c0-1.21,0-2.43,0-3.65H79.8l-.09,1.71-.77.27.85.37-.34,2.38Zm-16.82.06a3.38,3.38,0,0,1-.36.54c-.43.44-.27.73.2,1l.49-.57.42.45.21-.9.63.43.08-.1-.74-.91-.07.17-.77-.09L64,68l-1.37-1.75a1.88,1.88,0,0,1-.92,2.1l.6.67Zm-28.1,1.85,1.25.84,1.62-2-.06,0-1.28,1.06-.23-.1.22-.91-.83.54-.13-1.68-1.07,2-1.66,1.61.2.18.94-.82.11,1c.45-.44.76,0,.88.33a2.94,2.94,0,0,1-.07,1.15c.45-.66,1-1.22.15-1.85l1.13.14Zm19.14,34.33L53,105.64l2,.15L53.38,107l2.19-.13-1.4,1.08h2.46l-1.83.74a7.66,7.66,0,0,0,2.27.12,6.61,6.61,0,0,0,1.75-1.11l-.59-1.08-1.13.32,1-1-.17-.15-1,.43a2.7,2.7,0,0,1,.57-.63.93.93,0,0,0,.27-.6c-.28-1.34-.55-2.68-.92-4a8.36,8.36,0,0,0-2-3.61c2.4,3.76,2.06,5.65,2.37,7.6l-1.1-2v1.82l-1-2.74-.19,0v1.56l-.44-1.41-.31,0c.07.76.15,1.53.22,2.29a4.87,4.87,0,0,1-.41-.94c-.41-2.14-.77-4.29-1.2-6.42a23.1,23.1,0,0,0-.68-2.29l-.17,0,.45,1.39-.89.41.91.11c.48.74,0,1-.76,1.26l1.27.09-.54,1.24.51.4-.64.73.68.1v.8l-.69.3,0,.12.79.08c0,.38,0,.72,0,1.06,0,.12-.09.3,0,.34.65.53.27.86-.31,1.17Zm-1-35.16,0-.21,1.19-.45-.19-.6-1.39.3,0-.18.82-.56-1.31-.52.6-.15.06-1-.88-.19c.42-.43,1.29-.17,1.2-1.07l-.7.49.09-.89-.62-.44-.59.62-.29-1.66-.69,2-.27-2.83-.25,0-.53,1.28c-.36-1.82-.36-1.82-.68-2L48.6,63l-.15,0-.28-1.43-.22,0-.55,1.8-.31-1.16-.18,0-.47,1.59-.39-1h-.16l-.33,2.08-.5-1.42c-1-.2-.51.91-.93,1.15l1.29.82-1,.2.06.79.42.2,0,.12h-1l.41,1-.72,0-.19.74h.74c-1,.29-1,1.14-1.25,1.82l.63.66.29-1.27L45,73l.28-.1c-.24-.92-.49-1.84-.7-2.77a1.57,1.57,0,0,1,0-.8c.3-.84.67-1.66,1-2.49a5.75,5.75,0,0,1-.26,1.5,2.72,2.72,0,0,0-.15,1.27c.35,1.11.82,2.18,1.24,3.24.59-.69.33-1.45,0-2.19-.55-1.47.11-2.88.11-4.34a15.68,15.68,0,0,0,1.3,6.48,1.44,1.44,0,0,0,.2-1.52,6.92,6.92,0,0,1-.39-2.7,41.14,41.14,0,0,1,.66-4.1l.2,0c-.12,1-.31,1.94-.34,2.92a13.16,13.16,0,0,0,.23,3,18.33,18.33,0,0,0,1,2.69,2.7,2.7,0,0,0,.1-2.27c-.78-1.64-.22-3.29,0-4.94a.18.18,0,0,1,.09.16c-.09,1.82-.18,3.63.89,5.25.08.11,0,.32,0,.48.06.41.14.82.25,1.42a2.25,2.25,0,0,0-.13-2.6,1.17,1.17,0,0,1-.19-.77c0-.8.13-1.6.19-2.4a10.32,10.32,0,0,0,1.61,4.88c.68-.74.41-1.47.05-2.25a6.58,6.58,0,0,1-.68-3.42c.37.94.77,2,1.22,3.07.25.61.57,1.2.87,1.82l.67-.93-.84-.2,0-.16,1-.33.15-.67Zm-.36-6.28.21-.06L53,61l-.8.24.35-1.27-.22-.11-1,.75c0-.72.89-1.53-.26-1.93l-.45,1.24-.4-1.63-.18,0-.69,1.44-.16-1.65c-1.74-.29-1,1.21-1.6,1.9l-.24-1.7c-.94.09-.35.94-.73,1.41l-.43-.9-.44.28.12,1.66-.71-.93v1c-.74.3-.65,1-.92,1.51l.25.13.41-.91.44.38L47,60.53l.86.09.37-1,.15,0,.12.65,1,.12.19-.27.75,1,.24-.38.53.86.87-.29-.21.68ZM28.93,41.2a3.5,3.5,0,1,0-3.48,3.51A3.48,3.48,0,0,0,28.93,41.2Zm44.51-1.61a3.49,3.49,0,1,0,3.5,3.49A3.5,3.5,0,0,0,73.44,39.59ZM38.64,73l-1-.39-.14.22.88,1L38.3,74l-.94-.72-1,1.44L37.5,74l-.09.86.83-.38.19.8.47-.39L39,76c.1-.77,1.24-1.48.16-2.28l.66.25,2-3.12.2.1-.26-.58-1.5,2.31c-1.06-.94.29-1.62.14-2.51L39.26,72l-.71-.54.84-1.53C37.89,71.33,37.72,72.05,38.64,73Zm1.83,3.77.08.08.6-1.08.66.37-.17.73.55-.58.74.47-1,1.21c1-.6,1.95-1.23.71-2.65l.94.46L44.46,73l-.2-.06-.45,1.24-.27,0-.43-1.07-.34.5L42,73.16,42.37,72l-.17,0-.71,1.55.81.89L41.44,74c-.52.63-.22,1,.23,1.48l-.77-.28Zm15-4.25-.16.08c.32.79.68,1.57.95,2.38s.43,1.57.64,2.36l.13,0-.25-1.63.89-.46.55.64.09-.06-.28-.78.57-.28.64,1,.12-.06L58.6,74l-1.21.77,1-1.4-.2-.15-1.06.34c.31-.35.85-.71.81-1a13.07,13.07,0,0,0-.79-2.19l-.15.06.53,1.81-.66.36-.56-.86-.1.06.31,1-.59.33Zm-3.2,3.56.07.17.89-.19,0,.1-.82.51.12,1.2c0-.86.64-1.08,1.36-1.22l.54.74.08,0-.31-.84.11-.22a2.31,2.31,0,0,1,.68.28,2.27,2.27,0,0,1,.36.65c.18-.72-.21-1-.65-1.38s-.29-.5-.85-.59l.76-.56-.14-.22-.71,0c1-.47.52-1.07.18-1.68.19.6.09,1-.61,1-.09-.16-.16-.31-.25-.44s-.17-.21-.38-.48c.1.39.15.54.18.7s0,.31.06.47l-.9.44-.35-.8c-.1,1.31,0,1.43,1,1.36l-.66.53.73,0ZM49,77.2l1,.7.16-.6,1.34.32-.68-1.39c.65-.45.21-1.24.13-2.08.1,1-.52.52-1,.69l.34-.81c-.6.26-.7,1.26-1.54.7l-.08-.82h-.09l-.14,1.66.77.27-.84.64,1.43.44-1.2.08v1.44h.09Zm9.81-6.79-.12.09.9,1.35.76-.31c-.11.32-.41.73-.32,1a9.85,9.85,0,0,0,.9,1.77c0-.6-.32-1.23.42-1.59A11.86,11.86,0,0,0,62.47,72L62,71.24l-1,.52.66-1-.17-.13-.69.26c.79-.65.33-1.11-.05-1.5l-.44,1-.83-.71-.07.06.58.81-.61.5ZM46.13,75.8l-1-.13-.07.14,1.29.72-.06.1L45,76.42l-.25,1.91.08,0,.52-1.26c.55.58,1.63-.42,1.92.85,0-.65-.12-1.25-.09-1.83a16.17,16.17,0,0,1,.37-1.94l-.73.63-.32-.48-1,.48-.12-1.22C45,75,45,75.05,46.13,75.8ZM33.84,66.26l-.12-.13,1-1.21-.13-.12-2.16,2,.45.82-.07,0-.63-.6-.79.7c.28,0,.63,0,.74.1s.1.52.14.8l.63.12-.88,1,.16.12.93-1.11L34.94,67l-.73-.13.27-.89ZM55,56.17l.22,1.75-.64-.48.29,1.29-.76-.64.32,1.56-.59-.77-.55,1,.56,1.92.17,0,.36-1.29.31.57.09-1,.43.4-.16-1,.53.26-.4-.9C56,58.5,55.9,56.89,55,56.17ZM43.21,60.55l.19,1.53.9-2.71-.8.22.06-.75-.67.46.22-.79-.49.12.2-1.25-.62.42-.09-.09.47-.63-.64-.43-.26,1.8.58,2.1.47-.54-.09,1.24h.18ZM28,61.84a4.05,4.05,0,0,1,.73.49s-.22.37-.27.45l.86.58-.95.48,0,.12,1.1-.23-.25-1.13.6.69v-.57l.72.42v-1l.54.74,1.59-.58c-.46,0-.49,0-1-.53l-.66,0,.4-.43Zm-.6-1.14,0,.23c1.47-.63,3.07-.17,4.55-.7l-1-.08.56-.46-.1-.26-1.48.3h-.2l-2.45-.25s-.1.06-.19.14l.75.1-.72.46.83,0v.17Zm37.24,2.94,2.29,1.1.65-.77c.24.41-.72.91.32,1.17-.36-.71,0-.76.5-.72L68,63.83l.75.27a1.84,1.84,0,0,0-1.07-.82c-.38-.05-.8.25-1.15.38l.26-.65L65,62.51l.85.74Zm1.51,3.1.85.15-.42-.65.5,0a2.62,2.62,0,0,0-1-.7c-.11,0-.34.08-.41,0-.42-.38-.81-.8-1.22-1.19,0,0-.14,0-.24,0l.36.62-.53.59-1-.31c.64.38,1.15,1.21,2,.68,0,.18,0,.52.1.59s.44,0,.65,0c-.15.66-.15.66.71,1Zm-1-5c1,.16,2,.61,3,0-.14.81.45.73,1,.72l-.2-.52h.78l-.7-.51h.84a2.28,2.28,0,0,0-2.34,0c-.32-.43-1.2-.59-2.3-.39l.9.35v.2ZM29.8,58.27l1.53.13,0-.14-.57,0,.23-.33-1.22-.78-.46,1.07c-.09-1.54-.58-1.19-2.44-.32l1.16-.12.09.23-.95.38,0,.12,1.69-.12s.2.29.32.27A1.86,1.86,0,0,0,29.8,58.27Zm1.14,6.2.09,0,.61,1,.18,0,.07-.78.08.21,2.29-1,0-.16-1.85.66.27-.64h-.45l.67-.71-.1-.07-2.39,1.4.6,1.07.1,0ZM70.6,64l-.46,2.21c.79.46-.55,1.53.2,2.25L71,67.24c-.12-.14-.33-.28-.34-.43a17.37,17.37,0,0,1,0-2c0-.18.27-.34.42-.51ZM51.22,57.12l.2-.08c-.11-.24-.17-.65-.33-.7a1.54,1.54,0,0,0-1.12,0c-1.22.75-1.18.75-2.3-.06a1.68,1.68,0,0,0-1.14-.12c-.12,0-.17.48-.26.74.25-.18.35-.51.49-.52a.94.94,0,0,1,.71.25,1.68,1.68,0,0,0,2.63.08C50.65,56.22,51,56.37,51.22,57.12Zm.54-5.8c-2.06.23-4,.7-6.11,0C46.82,52.45,50.22,52.09,51.76,51.32ZM72.91,65.76c-.08,1.42-.16,2.83-.24,4.3l1-.5c-.85-.38-.87-.81-.3-1.31-.11-.38-.33-.73-.24-.91C73.43,66.76,73.09,66.29,72.91,65.76ZM40.77,48.93,40.5,49c0,.24-.2.6-.1.7.54.53,1.15,1,1.73,1.48l.12-.13ZM46.45,51a5.91,5.91,0,0,0,4.57-.2Zm6.4,1.9a1,1,0,0,1-1.68-.12c-.1-.11-.32-.1-.49-.15,0,.16-.07.34,0,.47a1.83,1.83,0,0,0,2.23.38C53,53.39,52.88,53.16,52.85,52.89Zm-6.24-.13c-.88.49-1,.47-1.74-.25-.1-.08-.3,0-.45-.07a.81.81,0,0,0,0,.38,1.67,1.67,0,0,0,2.2.46C46.7,53.2,46.62,53,46.61,52.76ZM30.41,65.4v.21l-.72.53.05.09,1-.37-.57-1.57-.84.22,1,.46-.88.33Zm24-11.86-2.71,1.17A3.18,3.18,0,0,0,54.36,53.54Zm-4.52-3.1,0-.28-2.89.31,0,.28Zm3.42,6.42a2.05,2.05,0,0,0-2-1.2Z"/><path class="cls-1" d="M57.41,38.88c0-.3-.09-.59,0-.77.25-.44.66-.81.87-1.26a11.52,11.52,0,0,0,.28-1.35c.06-.21.28-.38.38-.51l.24-1.73,1.05.08-.79-.46c.25-1.71.37-1.9,1.27-1.88l-.65-.49c.27-.41,0-1.17.6-1.24A9,9,0,0,1,61,27.89c.06-.16.37-.23.56-.33A1,1,0,0,1,62.27,26c.06-.26,0-.59.16-.71.54-.45.92-1.32,1.88-.83.28-.53.79-.43,1.23-.36a1.69,1.69,0,0,1,.73.49c.25-.23.56-.68,1,.06,0,0,.11.11.12.1,1-.7.43.33.6.57l.53-.62a10.62,10.62,0,0,0,1.4.82c.48.2,1,.24,1.53.41a3.55,3.55,0,0,1,1.39.68c.18.19.06.8-.07,1.17-.39,1-.8,1.16-1.48.38-.38-.44-1.23-.05-1.33-.92,0-.14-.9-.14-1.36-.28a2.46,2.46,0,0,1-.66-.48c-.31.32-.52.1-.83-.34-.11-.14-.75.1-1.19.17l-.19-.93c-.57.94-1.33,1-2.31.11l.24.6-1.39,2.86-.66-.26a1.25,1.25,0,0,1,.32,1.72c-.08.13-.37.12-.37.12l-.1,2-.73-.27c.8.72.2,1.37-.06,2.09l-.89-.17.78.64L60,36.32,59,36l.89.7-.71,1.58L58.47,38c.85.84,0,1.4-.31,2.1l-.83-.31.58.64c-.66,1.17-.68,1.19-1.07,1.12L56.07,43l-.75-.65.36,1c-.86.52-1.7,1.12-2.62,1.57a12.76,12.76,0,0,1-1.36.48c-.33.11-.7.34-1.05-.11-.06-.07-.65.33-1,.41-.2,0-.45-.13-.79-.24-.49.48-2.47,0-2.71-.79l-.47.27c-.37-.58-1.13-.44-1.58-.87s-.85-.72-1.27-1.08c-.08-.07-.23-.14-.24-.21,0-.6-.65-.67-.91-1.06s-.83-.89-.84-1.34c0-.62-1-.81-.54-1.54,0-.05-.41-.31-.48-.52-.53-1.66-1-3.33-1.55-5-.18-.54-.66-1-.12-1.58a1.91,1.91,0,0,1-.26-2.63l-.61.1-.85-3.48-1.55-1a7.93,7.93,0,0,0-1.19,0A8.34,8.34,0,0,0,32.6,25l-2.1.56-2.44.73H28l-1,.45c-.19-.51-.4-1-.55-1.53a.51.51,0,0,1,.22-.48c.74-.28,1.51-.49,2.27-.74.55-.17,1.09-.39,1.64-.55a7.06,7.06,0,0,1,1.34-.32c.19,0,.41.18.62.29l-.26.17.83-.92.16.91c.32-1.07,1.06-.71,1.81-.68l-.37.83c.58-.46,1.13-1,1.65,0l1.07.61-.78.66,1-.19.06,1.05.76.82-1,.57,1-.06.23.68-.78.48,0,.11.82-.12.26.86-.82.5,1.08.08-.47.93h.63l-.09,1.49c.06.08.35.28.38.52s-.17.57-.27.86h.45l.22.79-.36.26.9,1-.87.34.95.39-.31.45c.63.07.89.34.38.94.76.09.84.3.4,1,.21,0,.6.06.62.16a2.87,2.87,0,0,1,0,.88c.61-.2,1,.14.85.84l1,.7-.28.41a3.92,3.92,0,0,1,1.07.51c.19.17.18.56.26.87l.46-.34.76.5-.31.77c.66-.5,1.24-.89,1.44.18.6-.44,1.08-.3,1.25.27a6.3,6.3,0,0,1,1.15-.26c.11,0,.25.28.4.46A1.11,1.11,0,0,1,51.32,44c.06,0,.17-.05.23-.11.58-.61,1.11-.62,1.62.13l-.31-.93,1.27-.52c0-.47.74-1.15,1.44-1.11C55.39,40.8,56.92,38.82,57.41,38.88Z"/><path class="cls-1" d="M88.82,56.92l1.06.3c.25-.43.58-.72,1,0,.31-.77,1.52-1.29,2-1a11.45,11.45,0,0,1,2.28-1.91l.25.2c-.31.38-.62.77-.91,1.16-.06.08,0,.22-.06.31-.17.39-.38.68-.74.37-.1.22-.15.56-.33.66s-.49,0-.73-.06c.2.45.16.73-.58.74-.34,0-.65.48-1,.67a2.92,2.92,0,0,1-.84.07l-.34.47-.63-.55-.06.79-.86-.46-.12.11.66.57-.31.76,1-.87.07.66.13.12.36-1,.34.26.27,1.15c.41-1.45.41-1.45,1-.88.13-.52,2.77-1.49,3.37-1.28.43-.72,1.26-.7,1.88-1.11-.19,1.05-1.17,2-1.87,1.84a1,1,0,0,1-1.4.69l0,.66L93.21,60c-.23.84-.78,1-1.57.79-.21.73-.54.78-1.31.05l.15.84-.67-.29c-.08.57-.38.5-.79,0l-.08.24.47.66h1.23l.17-.27.35.31c.35-.1.62-.17.89-.27s.41-.27.57-.23a3.13,3.13,0,0,0,1.78-.44c.7-.27,1.39-.58,2.08-.86.09,0,.19-.06.4.08l-1.06.91c0,.41-.29.58-1,.3.11.64-.15.77-.72.45,0,.18,0,.43,0,.46-.39.15-.81.22-1.19.39s-.59.45-.92.56a3.28,3.28,0,0,1-1,0l-.15.45-.52-.26-.19.65-.75-.91L89.86,65l-.89.3-.2-.52-.78,1c-1-3.49-2.4-7.09.67-10.39l.2.47,2.36-2.46A3.69,3.69,0,0,1,88.82,56.92Z"/><path class="cls-1" d="M4.66,60.24l.63-.5.29.95L6,59.88l1.88.48c-.35-.51-1.43-.5-1-1.48l-.33.48-1.69-.55,1-1.89.49.55.69-.14.12.88.58-1,.41,1,.45-1.61-.17-.06L8,57.05l-.14-.39c-.34,0-.71.15-1,0s-.16-.52-.23-.8l-.5.57-.43-.71-.09.17c-.27-.18-.52-.47-.81-.51-.57-.09-.78-.33-.65-.89-.73.33-2-1.23-2.13-2.82.56.79,1.56.9,1.63,1.92.24-.1.63-.49.71.24,0,0,.14.13.19.11.64-.24.64.22.69.67l.43-.33.14.61c.43-.41.8-.47.91,0l2.27.42c-2.14-1-2.9-2.11-2.77-4.26l1,1.92.26-.12.18.72c.54-.49.76-.22.86.47l.45-.58,1.22,3.88-1.08.23.92.36-.07.74L8.64,58.6l0,.09,1.36.5c-.08,1.54-1,.4-1.72.55l1.36.75-.19.77-1-.22.81.66-.59,1.93c-1.54-.05-.7-1.14-.86-1.93-.13.31-.21.51-.28.72s-.14.46-.21.69c-.79-.22-.79-.23-.33-1.84l-.3.48-.37.62-.63-.64a.21.21,0,0,0-.16-.07c-.68.08-.68.08-.53-.56a2.78,2.78,0,0,1-.86.11c-.08,0-.11-.41-.18-.66-.38.39-.77.53-.92-.23-.23,0-.67,0-.72-.15C2,59.5.74,59.75.9,58.87L0,58l.17-.22c.78.65,2,.66,2.69,1.63.28-.24.71-.37,1,.38C4.3,59.52,4.69,59.46,4.66,60.24Z"/><path class="cls-1" d="M50,36.5c.06.87-.14,1.4-.53,1.61l.49,1-.89.14.62.36c-.09.49-.13.87-.23,1.24a7.53,7.53,0,0,0-.37,1.54l1.24-2.32h.12L50,42.3l1.58-1.82.1,0-.92,2.3L52.16,41l.1,1.17.61-.47.12.06c-.24.38-.38.94-.72,1.1a5.54,5.54,0,0,1-4.66.51A14.88,14.88,0,0,1,45.09,42c-.24-.16-.24-.66-.37-1l1.68,1.11.09-.08-.9-1.14,1,.43-.2-.82L47,41l.11-.09-.5-.87.13-.12,1.82,2.32-.86-1.91.5,0a11.94,11.94,0,0,1-.34-1.34c0-.09.29-.24.37-.29-.12-.26-.38-.7-.33-.74a6.57,6.57,0,0,1,1.1-.58s0-.14,0-.08A8.67,8.67,0,0,1,47.6,37c-.22-.07-.35-.39-.64-.74a.58.58,0,0,1-.4-.16c-.62-.81-.33-2,0-2.93a2.3,2.3,0,0,1,2-1.43c.62-.14,1.38-.3,1.75.55.69-.19.8.41,1.07.79.07.1,0,.27,0,.41a.65.65,0,0,0,.06.24c.12.23.38.47.36.68a2.82,2.82,0,0,1-1.4,2.55L50,36.51c-.29-.76.36-.86.68-1,.09-1.18.09-2.27-1.2-2.71s-1.74.77-2.39,1.19l.18,1.39,1.2,1.08C48.88,36,49.43,36.16,50,36.5Z"/><path class="cls-1" d="M49.7,47.81A15.66,15.66,0,0,0,52,47.64a8.66,8.66,0,0,0,2.39-.47,13.41,13.41,0,0,1,2.36-.68c.15-.46,1.16-1,1.51-.78l1.9-1.62.26.09c-.15.55-.13,1.35-.49,1.59a7.29,7.29,0,0,1-1.54.94,2.23,2.23,0,0,1-.69,0,.79.79,0,0,1-1.31.48c-.35.77-.92,1-1.4.53-.44.75-1.4,1-1.78.69a9.44,9.44,0,0,1-1.28.42c-.12,0-.3-.23-.48-.37-.2,1.13-1.17.16-1.78.64Z"/><path class="cls-1" d="M45.06,47.38l3.22.23v1.27c-.38-.67-1.49.73-1.57-.58-.63.56-.7.55-.93-.23-.41.68-.87.32-1.32.09a7.41,7.41,0,0,1-1.23-.61c-.32-.24-1.11.33-1-.35l-.93-.59a.44.44,0,0,0-.25-.06c-.5.05-.81-.1-.83-.44-.32-.24-.54-.4-.76-.58,0,0-.06-.14-.11-.15-1.32-.44-1.5-.74-1.28-2l3.8,2.81c.06,0,.39-.08.53,0C43.15,46.9,44.39,46.64,45.06,47.38Z"/><path class="cls-1" d="M74.76,105.43l.5-.5,1.91-.92,0,.13-.93,1.17.1.12,1.13-.79,0,.91,1.16-.86-.08.58,5.76,1.08,0,.11L79,105.93l0,.18,2.57,1.08,0,.07-4.24-1.14-.08.27,1.09.4c-1.37.2-2.78-1-4.09.56Z"/><path class="cls-1" d="M3.36,56.5l2.2.46-.92,1.73-.7-.36.26-.88-.7.75-.57-.75-.47.11.16-.78-.47.4A4.91,4.91,0,0,1,0,54.58l1.43.72c.46.23.94.42,1.39.68A2.69,2.69,0,0,1,3.36,56.5Z"/><path class="cls-1" d="M28.12,39.94H27.3l0,.1,1.16.48-.07.25L27,40.49l1.54,1-.16.28-1-.33c-.12.63,1.33.36.49,1.56l-1.14-1.44-.1.05,1.15,1.65-.58.53-1-2.05-.1.05c.16.51.31,1,.51,1.53s.09.79-.56.83l-.36-1.93h-.16c0,.45.06.9.07,1.36s-.07.79-.71.55v-2h-.06L24.35,44,24,43.91l.25-1.71-.1,0-.53,1.36a2.66,2.66,0,0,1-1.18-2.88,3,3,0,0,1,2.57-2.43A2.94,2.94,0,0,1,28.12,39.94Z"/><path class="cls-1" d="M76.4,42.44H75.16c.18.66,1.37-.1,1.28,1L75.26,43c.44.66,1.74.93.49,1.89l-1-1-.13.1.91,1.26-.77.58L74,44.38l-.11,0,.44,1.51c-.4.14-.79.4-.91-.29a3,3,0,0,0-.31-1.07V46c-.64,0-.64,0-.83-1.33L72,45.68c-1.13-.54,0-1.26-.18-2-.25.41-.47.77-.68,1.13a2.82,2.82,0,0,1,0-3.67,3,3,0,0,1,4-.65l-.93.78,1.58-.39.09.31-1.2.56,0,.12,1.46-.27Z"/><path class="cls-1" d="M50.35,34.52A1.39,1.39,0,0,1,49,35.87a1.36,1.36,0,0,1-1.37-1.43,1.37,1.37,0,0,1,2.73.08Z"/><g id="Page-1"><g id="_025---Energy" data-name="025---Energy"><path id="Shape" class="cls-1" d="M94.41,3.68a.2.2,0,0,1-.1-.2,2.33,2.33,0,0,0,0-.53.09.09,0,0,0-.09-.09.08.08,0,0,0-.08,0,.16.16,0,0,0,0,.07V3a2.07,2.07,0,0,1-.1.43.19.19,0,0,1-.2.12,2,2,0,0,0-.55,0,.2.2,0,0,1-.21-.14,2.11,2.11,0,0,0-.19-.47.17.17,0,0,0-.1-.06.11.11,0,0,0-.1.06.11.11,0,0,0,0,.08,2,2,0,0,1,0,.64.19.19,0,0,1-.09.14,2.54,2.54,0,0,0-.73.73l-.75,1.12a1.71,1.71,0,0,1-1.31.83,1.41,1.41,0,0,1-1.47-1.66c0-.8.41-1.29,1.11-1.29a.67.67,0,0,1,.73.56.49.49,0,0,1-.14.41.52.52,0,0,1-.41.14.18.18,0,0,0-.18.18.19.19,0,0,0,.18.19.86.86,0,0,0,.92-.92,1,1,0,0,0-1.1-.92A1.49,1.49,0,0,0,88,4.78a1.86,1.86,0,0,0,.9,1.83.2.2,0,0,1,.11.18,2.44,2.44,0,0,0,0,.54s0,.06.06.06a.08.08,0,0,0,.07,0,.1.1,0,0,0,0,0,2.64,2.64,0,0,1,.17-.47.18.18,0,0,1,.18-.08,2.09,2.09,0,0,0,.56,0h0a.18.18,0,0,1,.17.14,2.07,2.07,0,0,0,.18.47.11.11,0,0,0,.12.05.09.09,0,0,0,.06-.12v0a1.85,1.85,0,0,1-.06-.57.19.19,0,0,1,.09-.16,2.51,2.51,0,0,0,.77-.75l.75-1.13a1.84,1.84,0,0,1,1.31-.82,2.59,2.59,0,0,1,.62.1h0c.55.2.81.71.81,1.55A1.25,1.25,0,0,1,93.68,6.8a.49.49,0,0,1-.41-.14.51.51,0,0,1-.14-.41.52.52,0,0,1,.14-.41.49.49,0,0,1,.41-.14.18.18,0,0,0,.19-.18.19.19,0,0,0-.19-.19.86.86,0,0,0-.67.25.87.87,0,0,0-.24.67.85.85,0,0,0,.91.92,1.61,1.61,0,0,0,1.18-.48,1.65,1.65,0,0,0,.48-1.17,1.82,1.82,0,0,0-.93-1.84Z"/><path id="Shape-2" data-name="Shape" class="cls-1" d="M91.66.74a4.41,4.41,0,1,0,4.42,4.41A4.4,4.4,0,0,0,91.66.74Zm2,6.8A1.22,1.22,0,0,1,92.4,6.25a1.25,1.25,0,0,1,.35-.93A1.18,1.18,0,0,1,93.68,5a.55.55,0,0,1,.56.55.56.56,0,0,1-.56.55c-.17,0-.18,0-.18.18s0,.19.18.19a.9.9,0,0,0,.66-.27.88.88,0,0,0,.26-.65c0-.88-.3-1.11-.57-1.21h0a1.82,1.82,0,0,0-.52-.08,1.49,1.49,0,0,0-1,.65L91.75,6a2.94,2.94,0,0,1-.8.81,1.47,1.47,0,0,0,0,.36.09.09,0,0,1,0,.05.46.46,0,0,1-.33.56l-.12,0a.45.45,0,0,1-.4-.24,2,2,0,0,1-.18-.4h-.36l-.09.27a.43.43,0,0,1-.2.27.43.43,0,0,1-.35,0,.47.47,0,0,1-.33-.36,4.36,4.36,0,0,1,0-.51,2.22,2.22,0,0,1-1-2.1,1.84,1.84,0,0,1,1.84-2,1.39,1.39,0,0,1,1.47,1.29,1.22,1.22,0,0,1-1.29,1.28.54.54,0,0,1-.55-.55.55.55,0,0,1,.55-.55c.18,0,.18,0,.18-.18s-.1-.19-.36-.19c-.61,0-.74.5-.74.92,0,.92.32,1.29,1.1,1.29a1.37,1.37,0,0,0,1-.65l.75-1.13a2.82,2.82,0,0,1,.76-.78,1.75,1.75,0,0,0,0-.46.47.47,0,0,1,.08-.36.48.48,0,0,1,.81,0,1.75,1.75,0,0,1,.19.42h.34c0-.09,0-.18,0-.21v0a.47.47,0,0,1,.94,0,3.85,3.85,0,0,1,0,.48,2.19,2.19,0,0,1,1,2.11,2,2,0,0,1-2,2Z"/><path id="Shape-3" data-name="Shape" class="cls-1" d="M91.66,0a5.15,5.15,0,1,0,5.15,5.15A5.16,5.16,0,0,0,91.66,0Zm0,9.93a4.78,4.78,0,1,1,4.78-4.78A4.78,4.78,0,0,1,91.66,9.93Z"/></g></g></g></g></svg>