<svg xmlns="http://www.w3.org/2000/svg" viewBox="0 0 91.17 107.26"><defs><style>.cls-1,.cls-2{fill:#fff;}.cls-2{fill-rule:evenodd;}</style></defs><g id="Layer_2" data-name="Layer 2"><g id="Layer_1-2" data-name="Layer 1"><path class="cls-1" d="M88.38,61.67h0L81.19,59l0,2.45-14.41-.35a.43.43,0,0,0,0-.25.56.56,0,0,0,0-.08v-.46c0-.09,0-.19,0-.29v-.13l0-.08a.4.4,0,0,0,0-.38c0-4.51-.19-9.28-2-13.61a33.75,33.75,0,0,0-9.55-12.19l-1.17-1c-1-1-2.21-1.93-3.35-2.88-2.8-2.5-5.26-5.15-6.36-8.22a10,10,0,0,1,.16-7.67c-.87-1.29-3,1.22-3.26,1.71a7.07,7.07,0,0,0-.89,4.68,14.48,14.48,0,0,0,.31,1.62L9.44,59,6.3,56.35H.06l5.57,3,3.48.08-.25.3h0l-3.31-.08,0,1.06,4.16.1.23.3L5.71,61,0,63.66,6.23,64,10,61.14,39.31,99.83c-.08.37-.15.74-.2,1.12a4,4,0,0,0,0,.49,7.51,7.51,0,0,0,1.12,3.63c.51.7,2.15,2.8,3.5,2a10,10,0,0,1-.39-8.51c1.18-3,3.71-5.63,6.56-8.06,1.17-.92,2.35-1.84,3.42-2.8l1.19-1a33.68,33.68,0,0,0,9.85-12c1.82-4,2.23-8.39,2.35-12.62l14.5.35,0,2.5,7-2.32h.12v0l1.45-.48ZM10.22,59.73,41.08,23c.38.78.8,1.56,1.24,2.32l0,.09.15.21a.19.19,0,0,1,0,.1,30.22,30.22,0,0,0,4.87,5.57c4.22,3.83,8.76,7.53,10.37,12.26,1.23,3.61,1.36,7.31,1.57,11-.09,1.14-.19,2.29-.22,3.43a6.35,6.35,0,0,0,0,2.3,2.26,2.26,0,0,0-.11.64l-48.82-1.2ZM57.41,76.92c-1.73,4.69-6.36,8.27-10.67,12a27.89,27.89,0,0,0-6,7,13.63,13.63,0,0,0-1.13,2.65L11,60.82l48,1.18c0,.18,0,.36,0,.53,0,1.15.08,2.29.14,3.44C58.94,69.64,58.72,73.34,57.41,76.92Z"/><g id="Layer_1-3" data-name="Layer_1"><g id="_436171096" data-name=" 436171096"><path id="_436170784" data-name=" 436170784" class="cls-1" d="M81.79,2.71,86.08,7a.21.21,0,0,0,.3-.3L82.09,2.41l0,.25Z"/><path id="_436170616" data-name=" 436170616" class="cls-2" d="M81.86,2.48l.25-1.28L80.92,0l-.25,1.28-1.28.25,1.19,1.2Z"/><path id="_436170952" data-name=" 436170952" class="cls-2" d="M83.83,3.85A3.79,3.79,0,0,1,86.24,3a3.85,3.85,0,1,1-3,1.46l-.78-.78a4.91,4.91,0,1,0,.59-.6Z"/><path id="_436171168" data-name=" 436171168" class="cls-2" d="M85.61,5.62a1.34,1.34,0,0,1,.63-.16,1.38,1.38,0,1,1-1.37,1.38A1.45,1.45,0,0,1,85,6.22l-.89-.88a2.58,2.58,0,1,0,2.11-1.1,2.52,2.52,0,0,0-1.52.5Z"/><path id="_436171000" data-name=" 436171000" class="cls-2" d="M86.24,7.32a.48.48,0,0,0,.48-.48.47.47,0,0,0-.48-.48.46.46,0,0,0-.34.14.48.48,0,0,0-.14.34A.49.49,0,0,0,86.24,7.32Z"/></g></g></g></g></svg>