<svg xmlns="http://www.w3.org/2000/svg" viewBox="0 0 91.94 110.16"><defs><style>.cls-1{fill:#fff;}</style></defs><g id="Layer_2" data-name="Layer 2"><g id="Layer_1-2" data-name="Layer 1"><path class="cls-1" d="M86.07,68.26c-.73-.49-1.22-.07-1.78.4a7.42,7.42,0,0,1-2,1.42c-2.39,1-4.82,1.79-7.26,2.6a1.3,1.3,0,0,1-1.18-.37,9.77,9.77,0,0,1-1.25-3.42c-.09-1.51-.91-2-2.1-2.45-.53,1.18-.82,2.12.27,3.24a11.58,11.58,0,0,1,1.59,3.12l-4.33,2a34.4,34.4,0,0,0-5.4-14.4c-.31,2.08-.6,3.95-.86,5.82a2.08,2.08,0,0,0,.19,1,33.78,33.78,0,0,1,2.43,13.62,1.92,1.92,0,0,1-2.46,1.79c-2.81-.63-4.91-2-5.5-5a3,3,0,0,1,.21-1.71,40.45,40.45,0,0,0,2-3.93c1-3.06,2.06-6.14,2-9.46-.06-2.51-.12-5-1.21-7.32-2.25-4.82-6.35-7.45-11.11-9.27l-.92-.41,6.45-1.72-1.34,2.08c2.25-.12,3.65-1.62,4-4.16.06-.4.26-1,.55-1.11a1.83,1.83,0,0,1,2.38,2c-.36,2,.47,3.55,1.5,5.09A4.39,4.39,0,0,1,62.22,43c.25,2.07.55,3.88.65,5.7s0,3.69,0,5.53l.2.12,1.79-5c1,.34.53,1.05.39,1.73-.43,2-.92,4.1-1.16,6.18A7,7,0,0,0,64.73,60c.21.68.52,1.32.79,2,.48,1.15.81,2.39,1.91,3.13l.64-4.72.24,0,.39,1.3a18.07,18.07,0,0,1,1.62-3.79,14.77,14.77,0,0,1,2.87-2.42l.13.16c-.51,1.1-1,2.19-1.55,3.28l.33.2c1-1.35,2.42-2.58,2.81-4.08.67-2.6,2.63-5.11,1.16-8-.07-.13,0-.33,0-.5a13.74,13.74,0,0,0-2.45-10.2A7.94,7.94,0,0,1,73,34.46l.37-.16,2.18,2.58c-.36-3.09-1-5.73-4.18-7-1.46-.58-2.74-1.45-2.67-3.4l1.78.74a4.83,4.83,0,0,0-2.41-3.37,7.36,7.36,0,0,1-2-2c-.17-.22.26-.82.22-1.22a7.86,7.86,0,0,0-.52-1.5l-.35-.07c0,1.12-.33,1.55-1.33,1.07-1.43-.67-2.88-1.3-4.32-2L60,17.6c-1.91.17-3.67.3-5.42.49a7.93,7.93,0,0,0-4.45,2.23,12.12,12.12,0,0,1-2.23,1.26l-.2-.31,1.15-1.49c-1.63.63-3.07,1-3.86,2.45S43.36,25,42.44,26.46L41.9,25.3l-.23,0c-.29,2.54-.59,5.08-.92,7.9L40.33,31c-1.32,2.46-.15,4.9.22,7.62L39.77,38l-.32.11a12.73,12.73,0,0,0,.92,2.58c.73,1.15,1.7,2.16,2.51,3.26a4.24,4.24,0,0,1,.42,1.19c-.51.07-.84.11-1.16.17-3.11.61-6.1,1.45-8.33,3.92a9.25,9.25,0,0,1-1.38,1.1A9,9,0,0,0,30.27,52a24,24,0,0,0-3,5.09A63.08,63.08,0,0,0,25,65a3.91,3.91,0,0,1-1.67,2.42c-1.22.84-2.42,1.71-3.63,2.55-.59.41-.81.82-.23,1.44,3.86,4.13,7.71,8.28,11.58,12.39a3.92,3.92,0,0,0,1.29.74A15,15,0,0,1,35,85.56a3.49,3.49,0,0,0,3.34.56c.92-.34,1.42.09,1.74.93a5.6,5.6,0,0,1-1.13,5.79A31.28,31.28,0,0,1,36.64,95a1.72,1.72,0,0,0-.5,1.06c0,.16.58.5.88.48,1.84-.09,3.68-.18,5.5-.42a25.32,25.32,0,0,0,3.37-.93,7.62,7.62,0,0,1-1,.83,93.77,93.77,0,0,1-8.29,4.89c-3.89,1.82-8,2.66-12.29,1.06a4.9,4.9,0,0,0-.94-.19l-.29.29a16.91,16.91,0,0,0,1.94,2.47,5.84,5.84,0,0,1,2.35,4.18,1.39,1.39,0,0,0,1.39,1.38,4.82,4.82,0,0,0,1.65,0c2.95-.7,5.88-1.46,8.83-2.17a2.15,2.15,0,0,1,1.17-.08c8,2.89,14.5.5,20-5.45,1.36-1.47,2.45-3.2,3.7-4.86,3.45,1.48,7,2.89,10.87,2.79-2.64-2.82-6-4.43-9.52-5.86l1.57-4.75c-2.55,1.14-4.82,1.93-5.91,4.58a19,19,0,0,1-6.56,8.16A12.79,12.79,0,0,1,44.82,105c1.23-.82,2.33-1.43,3.3-2.21q5.4-4.32,10.72-8.73c3.29-2.72,6.74-5.13,11.07-5.84.9-.15,1.82-.18,2.87-.28a6.62,6.62,0,0,1-.26-1.3,19.28,19.28,0,0,1,.08-3.88c.19-1-.08-1.46-1-1.55s-2.08-.14-3.4-.23c.2-.57.25-1.41.6-1.57,1.74-.79,3.56-1.41,5.44-2.12a15.67,15.67,0,0,1,1.17,3.56c.1,1.51,1,1.87,2.47,2.24a9.61,9.61,0,0,0-.23-2.64A31.05,31.05,0,0,0,75.73,77c-.51-.9-.24-1.42.72-1.84,2.1-.9,4.11-2,6.21-2.89a10.94,10.94,0,0,1,2.89-.72c.74-.09,1.33-.19,1.49-1A2.1,2.1,0,0,0,86.07,68.26ZM73.94,38.67c1.24,1.93,1.32,4,.62,6.62l-.15-2.83H74.1l-.49,1C73.72,41.85,73.83,40.27,73.94,38.67Zm-1.8-.8c-.23-2-.47-4-.69-5.78C73,33.75,72.69,35.79,72.14,37.87ZM65.53,23.42a4.88,4.88,0,0,1,2,4.34l-1-2-.37.06c-.12,1-.23,2.08-.35,3.11h-.23ZM41.64,36.59c.09,1.41.17,2.65.26,4.14A4,4,0,0,1,41.64,36.59Zm18,46.8.16.52-5.72,1.58-.16-.34Zm-2.79-3.16c-1.51-1.5-3-.25-4.33-.39C53.88,78.67,56.24,78.72,56.82,80.23Zm-2.69-28.1L55.6,53l.27-.18c-.34-.89-.67-1.77-1-2.66L55,50l3.48,4.24c-.79.57-1.69-.88-2,.16l-2.64-2Zm1.58,6.81-5-5.43C53,54.68,54.92,56.22,55.71,58.94ZM50.33,82.5a6.35,6.35,0,0,0,1.94-.25c1.31-.58,2.56-1.28,4.13-.86-2.51,1-5.44,1.06-7.14,3.44Zm-2.79-9.29c.34,1.54.67,3.08,1,4.62l-.35.09-1.07-4.57Zm3-47.56.43.1-.66,4.66-.47,0-.11-1.11-.23-.09L48.2,31.81C47.79,29.14,50.13,27.79,50.58,25.65ZM49,35.94l-.3-.21q1-2.05,2.08-4.11l.3.15Zm3.74-7.11c-.79-1.66-.1-3.59,1.88-4.61Zm2.9-3.25c.51-2.35,2.81-1.59,4.22-2.43l-.68.92,1.26.94C58.5,24.57,56.89,24,55.61,25.58Zm8.51,1.2,1,3.46-.31.09L63.6,26.94Zm-1-2.76-.33,3-.12,0c-.25-1.46-.49-2.92-.75-4.45,1.14,0,1.43,1,1.74,1.95ZM53.88,21a4.34,4.34,0,0,1,5.55-.84,18.59,18.59,0,0,0,1.92.52,13.71,13.71,0,0,1,1.72.94L58.23,21l.45-.37-.06-.37a5.92,5.92,0,0,0-1.93.42c-1.31.8-2.52,1.77-3.77,2.67l-.2-.24,2.67-2.38ZM42.94,31.48c.87,1.67-.9,3-.09,4.5l-.42,0c-.08-.94-.22-1.87-.22-2.81,0-3.17.13-6.3,2.68-8.68a5.81,5.81,0,0,1,3.71-1.83L47.47,24c2.39-.53,3.34-2.85,5.24-3.74L48.37,27c-.06-.66-.12-1.38-.19-2.1-1.12.38-1.12.38-2,4.74L45.6,28a4.16,4.16,0,0,0,.47,4.27L46.79,31l.2.06c-.18,1.45-.35,2.9-.55,4.65l-2.09-6.57L44,29C43.59,29.87,42.67,31,42.94,31.48Zm1.56,8.05c-.14-1.89-.29-3.89-.44-5.88C44.29,35.65,46.11,37.6,44.5,39.53Zm2.29,6.91c-.86.23-1.76.54-2.7.71s-1.9.21-3.11.33l.9-.61-.06-.29-4.07,1.05C40,45.77,44.68,45.21,46.79,46.44Zm0,5.37-5.72-.58-.07.44L43,52.3c-1.44.43-2.75.85-4.08,1.21a1.35,1.35,0,0,1-.86-.09c-1.22-.54-2.42-1.1-3.62-1.67a1.8,1.8,0,0,1-.36-.32C36.31,49.59,43.41,49.33,46.82,51.81ZM42.16,64.18c-.27.18-.17.93-.23,1.42l-.23.21c-.23-.46-.72-1-.62-1.37a1.8,1.8,0,0,1,1.15-1.1,1.89,1.89,0,0,1,1.5.78C43.19,64.12,42.53,63.93,42.16,64.18Zm1,25.47-.23-.36,3.17-1.86.22.38Zm3.13,1.91L42.36,93l-.09-.37,3.85-1.58Zm-5.23-2.87c-.2-1.07.54-1.79,3-2.64Zm3.39-20.21.39-4.65.36,0c-.19,1.55-.37,3.09-.56,4.64Zm.9-.66V62.64C46.86,64.34,45.51,66.09,45.36,67.82ZM31.74,55.1c.33,1.83,1.93,1.58,3.06,2a10.26,10.26,0,0,1,2.33,1c-1.41-.31-2.81-.66-4.23-.93C31.73,57,31.37,56.28,31.74,55.1Zm-4.52,5.39c.86-3.77,2.09-6.37,4.27-8.43-1.06,2.93-1.75,5.56,2.2,6.29-1.78-.2-2.59.85-3.21,2.19a6.82,6.82,0,0,0-.31.9,3.59,3.59,0,0,0,1.15.31c.88-.09,1.74-.31,2.62-.46.3,0,.62-.08,1.07-.14l-.25,2-.21,0-.42-1.37c-2.68,1-5.67,1.3-7.5,3.77l.16.38,1.31-.2.11.28-2.72,1.32C26.06,65.08,26.7,62.8,27.22,60.49Zm-5.79,8.95c.92-.45,1.25-1.7,2.38-.79,0,0,.17,0,.24,0a71,71,0,0,0,7.15-2.89l-1-.28c.48-.21.58-.27.69-.3,2-.5,4.11-1,6.14-1.52a4.55,4.55,0,0,0,3.34-3.16l-1.5.34a28.23,28.23,0,0,1,2.44-2.46c.27-.22,1,.07,1.46.12l-.11.49-.83-.5c-.53,1-1.06,2-1.52,2.95a5,5,0,0,1-3,2.91L22,69.58C21.94,69.61,21.85,69.55,21.43,69.44Zm8.73,12.64q-1.77-1.8-3.52-3.62l.23-.24,3.74,3.4ZM28.77,77.3l1.7,2.36-.27.23-5.43-6.06.32-.29,2,2.28h.38c0-.38.25-.9.07-1.12a50.34,50.34,0,0,0-3.42-3.89c-.32-.33-1-.3-1.7-.48l2.39-.67L33,79.91C31.47,79.41,31.24,77,28.77,77.3Zm6.8,2c1-1.19.27-2-.46-2.81s-1.5-1.85-2.34-2.68a5.72,5.72,0,0,0-1.62-.74c0-1.35-1.92-3.14-4.75-3.93l2.5-.9a10.2,10.2,0,0,1,2.43-.62l-2,1.06,7.34,9.35Zm2.85-3.15c1.34-2-1.06-2.23-1.28-3.66.62.62,1.1,1.15,1.65,1.6C39.7,74.88,39.58,75.5,38.42,76.19Zm1.65,8.21,3.36-4.3C42.56,81.75,42.3,83.9,40.07,84.4ZM37,95.12l3.11.66A2.38,2.38,0,0,1,37,95.12Zm1.65-.49c3.59-.51,6.77-2.14,10.12-3.93C47.2,93,40.41,95.5,38.69,94.63Z"/><path class="cls-1" d="M31.37,100.43c.2.32.66.77.91.72,1.25-.23,2.47-.62,3.88-1A29.38,29.38,0,0,1,29.27,84a2.26,2.26,0,0,0-.69-1.26C24.65,79,21,74.93,15.66,73.21c-.08,0-.19,0-.22-.11-.15-.25-.44-.59-.36-.76a16,16,0,0,1,1.5-2.91,2,2,0,0,0,0-2.94,2.8,2.8,0,0,0-2,2.66A17.4,17.4,0,0,1,13.1,73c-1.28-.49-2.32-.85-3.32-1.29-2.51-1.08-5.4-1.34-7.45-3.46-.22-.23-1.06-.09-1.46.14a1.72,1.72,0,0,0-.73,2.21,1.93,1.93,0,0,0,1.17.9,21.57,21.57,0,0,1,2.34.36C6.13,73,8.57,74.17,11,75.39a1.31,1.31,0,0,1,.58,1.13A10.05,10.05,0,0,1,10,79.79,2.5,2.5,0,0,0,9.7,83c.92-.41,1.83-.58,2-1.83a38.31,38.31,0,0,1,1.14-4.07c4.1,1.63,8,3.15,11.82,4.71a1.09,1.09,0,0,1,.52.72c.53,3.12,1,6.24,1.56,9.51-2.32,1.06-4.9,2.12-7.37,3.39-2.21,1.13-4.32,2.46-6.44,3.75a6.38,6.38,0,0,0-1.06,1.08c6.06.07,11-3.11,16.44-4.71C29.35,97.22,30.33,98.84,31.37,100.43Z"/><path class="cls-1" d="M27.37,98.77A17.65,17.65,0,0,0,24.76,100c-.56.32-.48.72.13,1a9,9,0,0,0,5.51.57c-.74-1-1.34-1.8-2-2.56A1.12,1.12,0,0,0,27.37,98.77Z"/><path class="cls-1" d="M69,89.14c-.61,1.16-1.09,2.38-1.63,3.58l.22.24c1.22-.65,2.46-1.25,3.63-2,.57-.35,1.1-.92.48-1.67C71.2,88.73,69.28,88.58,69,89.14Z"/><path class="cls-1" d="M43.26,29.24l2-2.47C43.71,26.79,43.35,27.23,43.26,29.24Z"/><path class="cls-1" d="M91.86,8.8a.63.63,0,0,0-.74-.28L89.27,7.46V6.63a2.74,2.74,0,0,0,1-1.26l0,0a.49.49,0,0,0,.35-.46V3.29a.56.56,0,0,0-.21-.46V2.72a2.72,2.72,0,1,0-5.43,0v.11a.56.56,0,0,0-.21.46v1.6a.49.49,0,0,0,.35.46l0,0a2.79,2.79,0,0,0,1,1.26v.83L84.37,8.52a.63.63,0,0,0-.74.28.62.62,0,0,0,.23.85,7.78,7.78,0,0,0,3.88,1,7.82,7.82,0,0,0,3.89-1,.62.62,0,0,0,.23-.85Zm-1.18-.06a6.5,6.5,0,0,1-2.73.7V8.14a2.85,2.85,0,0,0,1.11-.32ZM88.85,7.46a2.53,2.53,0,0,1-.9.26V7.09a2.49,2.49,0,0,0,.9-.23ZM85.31,5c-.07,0-.07-.06-.07-.07V4.07l2.2-1.18a.52.52,0,0,1,.61,0l2.2,1.18v.82s0,0-.07.07l-2.1.76a.82.82,0,0,1-.34.06.8.8,0,0,1-.33-.06ZM87.74.42A2.3,2.3,0,0,1,90,2.59l-1.79-1a1,1,0,0,0-.51-.15,1,1,0,0,0-.5.15L87,1.75a.21.21,0,0,0-.09.28.23.23,0,0,0,.29.09L87.44,2a.51.51,0,0,1,.3-.1.52.52,0,0,1,.31.1l2.1,1.12a.16.16,0,0,1,.1.17V3.6l-2-1.08a1,1,0,0,0-.51-.15,1,1,0,0,0-.5.15l-2,1.08V3.29a.16.16,0,0,1,.1-.17L85.56,3a.21.21,0,0,0,.09-.28.23.23,0,0,0-.2-.11A2.29,2.29,0,0,1,87.74.42Zm-2,5.15,1.48.54a1.14,1.14,0,0,0,.48.09,1.16,1.16,0,0,0,.49-.09l1.48-.54a2.29,2.29,0,0,1-3.93,0Zm1.76,1.52v.63a2.53,2.53,0,0,1-.9-.26v-.6A2.49,2.49,0,0,0,87.54,7.09Zm-1.11.73a2.85,2.85,0,0,0,1.11.32v1.3a6.5,6.5,0,0,1-2.73-.7Zm5,1.47a7.32,7.32,0,0,1-7.35,0,.21.21,0,0,1,.1-.39.2.2,0,0,1,.11,0h0a6.92,6.92,0,0,0,6.93,0h0a.21.21,0,0,1,.21.36Z"/><path class="cls-1" d="M85.77,4.27h0a.21.21,0,0,0-.21.21.21.21,0,0,0,.21.21A.22.22,0,0,0,86,4.48.21.21,0,0,0,85.77,4.27Z"/><path class="cls-1" d="M87,4.82h0a.2.2,0,0,0-.21.2.21.21,0,0,0,.21.21.21.21,0,1,0,0-.41Z"/><path class="cls-1" d="M86.94,4a.22.22,0,0,0-.21-.21h0a.21.21,0,0,0-.21.21.21.21,0,0,0,.21.21A.21.21,0,0,0,86.94,4Z"/><path class="cls-1" d="M89.72,4.69h0a.21.21,0,1,0,0-.42.21.21,0,0,0-.21.21A.21.21,0,0,0,89.72,4.69Z"/><path class="cls-1" d="M88.49,5.23h0A.21.21,0,0,0,88.7,5a.2.2,0,0,0-.21-.2.21.21,0,1,0,0,.41Z"/><path class="cls-1" d="M87.74,4.65A.21.21,0,0,0,88,4.44a.2.2,0,0,0-.21-.2h0a.2.2,0,0,0-.2.2A.2.2,0,0,0,87.74,4.65Z"/><path class="cls-1" d="M87.74,3.69A.21.21,0,0,0,88,3.48a.21.21,0,0,0-.21-.21h0a.2.2,0,0,0-.2.21A.21.21,0,0,0,87.74,3.69Z"/><path class="cls-1" d="M88.76,4.19h0A.21.21,0,0,0,89,4a.21.21,0,0,0-.21-.21.22.22,0,0,0-.21.21A.21.21,0,0,0,88.76,4.19Z"/><path class="cls-1" d="M86.29,2.58a.2.2,0,0,0,.21-.2.21.21,0,0,0-.21-.21h0a.21.21,0,0,0-.21.21A.2.2,0,0,0,86.29,2.58Z"/></g></g></svg>