<svg xmlns="http://www.w3.org/2000/svg" viewBox="0 0 93.11 103.54"><defs><style>.cls-1,.cls-2{fill:#fff;}.cls-1{opacity:0.74;}</style></defs><g id="Layer_2" data-name="Layer 2"><g id="Layer_1-2" data-name="Layer 1"><path class="cls-1" d="M62.6,55.78c-3.26-.31-4-.65-4-.91s.26-.23.9-.7c.21-.16.31-.25.41-.34a6.46,6.46,0,0,0,.78-.73,1.19,1.19,0,0,1,.29-.27,3,3,0,0,0,.34-.16,6.25,6.25,0,0,0,.62-.55l.43-.36c.27-.22.42-.29.66-.46a6.73,6.73,0,0,0,.8-.65s.45-.39,3.08-2.32c0,0,2.61-2.56,2.8-2.39s-.27.6-.28.6a1.93,1.93,0,0,1,.65-1.22c.28-.23.4-.17.71-.4a2.21,2.21,0,0,0,.69-1,3.3,3.3,0,0,0,.31-2.29c-.36-1-1.42-1.43-2.69-1.91a8.49,8.49,0,0,0-4.06-.59c-.56.07-.91.18-2,.31-.84.09-1.09.08-1.69.19a13.12,13.12,0,0,0-1.75.5c-1.59.53-2,.63-2.53.81a38.33,38.33,0,0,0-6.89,3.7c-1.16.71-3.54,2.2-5,3.11l-.8.5c-.83.51-1.25.76-1.39.83a7.3,7.3,0,0,1-1.81.5l-.35-2.92,4.82-3c6.47-4,7.74-4.67,9.67-5.42,2.46-1,2.52-.63,5.56-1.72a7.19,7.19,0,0,1,3-.61c.53,0,.85.11,1.89.17s1.42,0,1.86,0a7.86,7.86,0,0,1,3.44.95,6.35,6.35,0,0,1,2.17,1.36,5.42,5.42,0,0,1,1.69,2.81A5.33,5.33,0,0,1,74.32,45a13.87,13.87,0,0,1-1.17,1.62s-.27.33-.58.65C71.85,48.05,68,51.36,62.6,55.78Z"/><path class="cls-2" d="M20.87,80h0Z"/><path class="cls-2" d="M19.24,77l.4-.13a6.25,6.25,0,0,0-1-1.57l-1.31.22a34,34,0,0,1-6.84.5,13.18,13.18,0,0,1-5.9-1.48A8.57,8.57,0,0,1,.31,69.31,6.43,6.43,0,0,1,2.05,62.6,9.72,9.72,0,0,1,5.5,60.46a26.74,26.74,0,0,1,4.22-1.2l1-.23c0-.42-.05-.82-.08-1.22a84.87,84.87,0,0,0-1.22-8.69c-.19-1-.33-2-.46-3a3.43,3.43,0,0,1,.15-1.49,1.87,1.87,0,0,1,1.81-1.39,3.77,3.77,0,0,1,1.67.28,6.35,6.35,0,0,0,2.5.44c1.95,0,3.91,0,5.86-.06,1.23,0,2.46-.09,3.69-.19a12.36,12.36,0,0,0,1.67-.34c2.38-.55,4.76-1.15,7.09-1.88q.6-.19,1.2-.42a4.68,4.68,0,0,0,1.31-.73,4.13,4.13,0,0,1,1.86-.89,1.78,1.78,0,0,1,1.79.74,3,3,0,0,1,.55,1.21c.14.67.25,1.34.34,2,.13,1,.23,2.05.35,3.07,0,.05,0,.1.05.19l.47-.3C43.53,44.91,45.74,43.44,48,42a51.17,51.17,0,0,1,6.45-3.55,31.23,31.23,0,0,1,6.66-2.23,21.07,21.07,0,0,1,5.43-.51,12.2,12.2,0,0,1,5.15,1.34,7.21,7.21,0,0,1,2.06,1.58,5.49,5.49,0,0,1,1,5.94,7.76,7.76,0,0,1-2.14,3.13c-1.54,1.37-3.12,2.71-4.72,4s-3.06,2.4-4.59,3.6l-.32.25a.5.5,0,0,0,.15,0c1.32.16,2.64.28,4,.31A18,18,0,0,0,72,55.4a7,7,0,0,1,1.94-.31l.34,0a1.56,1.56,0,0,1,1.41,1.54,8.38,8.38,0,0,1,0,.87v2.71c0,.05,0,.09,0,.18l.31-.12a18.52,18.52,0,0,1,3.66-1.07,12.81,12.81,0,0,1,7.11.73A6,6,0,0,1,89,61.5a5,5,0,0,1,1.26,4.25,8.79,8.79,0,0,1-.48,1.81,21.92,21.92,0,0,1-5,7.87,32.53,32.53,0,0,1-8,5.84,59.77,59.77,0,0,1-7.4,3.3,2.3,2.3,0,0,0-.86.55c-.94.93-1.86,1.87-2.71,2.88a20.23,20.23,0,0,0-1.6,2.2,13.42,13.42,0,0,1-2.13,2.62A9,9,0,0,1,58.33,95a7,7,0,0,1-2.42.28l-.37,0a1.67,1.67,0,0,0,0,.77,5,5,0,0,0,1.23,2.7,4,4,0,0,0,2.52,1.28A7.34,7.34,0,0,0,66.17,97c.44-.67.83-1.36,1.24-2s.77-1.29,1.2-1.9a8.79,8.79,0,0,1,5.69-3.67,17.23,17.23,0,0,1,5.07-.21,18.31,18.31,0,0,1,5.78,1.48c.4.17.79.38,1.18.57a2.61,2.61,0,0,1,.27.19c-.1,0-.21-.07-.31-.12a18.1,18.1,0,0,0-11.77-1.63A8.45,8.45,0,0,0,69,93.12c-.47.65-.88,1.34-1.31,2s-.78,1.35-1.23,2a7.55,7.55,0,0,1-7.23,3.11,4.18,4.18,0,0,1-2.92-1.79,4.93,4.93,0,0,1-.77-1.66c-.1-.47-.16-.94-.25-1.45a27,27,0,0,0-2.95-.56c0,.11,0,.2,0,.3a8,8,0,0,0,.7,3.59A7.24,7.24,0,0,0,57.83,103a8.94,8.94,0,0,0,4,.17,10.28,10.28,0,0,0,6.88-4.22c.56-.79,1-1.65,1.53-2.47.38-.61.75-1.23,1.17-1.8a5.3,5.3,0,0,1,3-2.06,10.37,10.37,0,0,1,1.55-.31,15.87,15.87,0,0,1,6.53.59,11.63,11.63,0,0,1,4.34,2.32,7.24,7.24,0,0,1,1.38,1.59,6.14,6.14,0,0,1,.94,3.64.47.47,0,0,0,0,.36l1.59-1.73L92,101.46c0-.13.06-.18.07-.23a9.66,9.66,0,0,0-.1-2.84c-.09-.43-.2-.86-.3-1.3a1.92,1.92,0,0,1,.14.29,6.58,6.58,0,0,1,.34,1.81.72.72,0,0,0,.07.25v1.68l-.11.74-.06,0-1.33-2.46-.52.59-.46.53-.48.56-.47.52a.75.75,0,0,1,0-.33c0-.11,0-.22,0-.33a6,6,0,0,0-1.72-5,9.19,9.19,0,0,0-2.28-1.69,15,15,0,0,0-9.57-1.46,5.53,5.53,0,0,0-3.89,2.55q-.35.54-.69,1.11c-.47.76-.9,1.54-1.4,2.28a10.49,10.49,0,0,1-6.93,4.59l-1.05.19H59.38l-.92-.17a7.5,7.5,0,0,1-5.66-4.78A8.28,8.28,0,0,1,52.19,95v-.26a.51.51,0,0,0,0-.09l-.34-.1a7.91,7.91,0,0,1-4.2-3,12.41,12.41,0,0,1-2-4.67,23.91,23.91,0,0,0-1.91-5.42C42.84,79.74,42,78,41.1,76.32a14.06,14.06,0,0,1-1-2.58s0-.08-.06-.17a3.71,3.71,0,0,0-.28.26A3.42,3.42,0,0,0,39.1,75a14.61,14.61,0,0,0-.46,2.26A7.57,7.57,0,0,1,36,82.08a8.24,8.24,0,0,1-3.75,1.77,12.31,12.31,0,0,1-6.48-.37,8,8,0,0,1-4.27-3.29s-.05-.06-.05-.09-.22-.06-.19-.24-.1-.22-.16-.32c-.4-.75-.8-1.5-1.21-2.24-.21-.4-.22-.39-.68-.3Zm-3.51-4.58.32-.11a7.88,7.88,0,0,0-1.05-.8,7.54,7.54,0,0,1-.8-.55,8.71,8.71,0,0,1-2.45-3.31,12,12,0,0,1-1-4.76c0-.14,0-.28,0-.43l-.27,0c-.81.22-1.62.42-2.43.66a10.69,10.69,0,0,0-2.57,1.13A4.48,4.48,0,0,0,4.17,65.5a3,3,0,0,0-.5,2.61,5.21,5.21,0,0,0,2.58,3.28,8.42,8.42,0,0,0,2.81,1,22.09,22.09,0,0,0,5,.17l1.67-.09-.16,0-1.36.16a21.85,21.85,0,0,1-4.85.05,9.48,9.48,0,0,1-2.77-.75,5.8,5.8,0,0,1-3.08-3.08,3.56,3.56,0,0,1-.15-2.55,3.71,3.71,0,0,1,1.6-2,10.31,10.31,0,0,1,1.5-.81,19.85,19.85,0,0,1,3.4-1l.82-.19c.06-1,0-2.05,0-3.09l-.91.2a25.19,25.19,0,0,0-4.08,1.22,10.56,10.56,0,0,0-2.92,1.74,6.36,6.36,0,0,0-1.87,7.4,8.69,8.69,0,0,0,5,4.94,15.72,15.72,0,0,0,5.38,1,40.54,40.54,0,0,0,6.22-.41l.92-.15-.2-.31a19.12,19.12,0,0,0-1.84-2.18A.61.61,0,0,0,15.73,72.42Zm59.43-8.2a1.43,1.43,0,0,0-.2.3c-.18.43-.33.88-.5,1.31a9.29,9.29,0,0,0-.67,3.33c0,1.3-.07,2.6-.12,3.89a.74.74,0,0,0,.2.57,4.36,4.36,0,0,1,1.07,2,4.43,4.43,0,0,1-.23,2.57,3.6,3.6,0,0,0-.13.34l.25-.11A30.52,30.52,0,0,0,82,73.12a19.25,19.25,0,0,0,4.4-6.74,8.26,8.26,0,0,0,.35-1.32,1.39,1.39,0,0,0-.35-1.18,2.62,2.62,0,0,0-1-.71,9.6,9.6,0,0,0-3.21-.76,11.23,11.23,0,0,0-4.34.64l-1.23.44a1,1,0,0,1,.22-.13,15.73,15.73,0,0,1,2.31-.79,10.22,10.22,0,0,1,6.14.28,3.31,3.31,0,0,1,1.19.72A1.76,1.76,0,0,1,87.11,65a4.63,4.63,0,0,1-.26,1.28,17.42,17.42,0,0,1-1.91,3.87,22.24,22.24,0,0,1-5.4,5.59,37,37,0,0,1-4.75,3,.66.66,0,0,0-.34.3,10.54,10.54,0,0,1-2.16,2.72c-.87.82-1.74,1.64-2.62,2.45l-.21.24.3-.11c1.86-.74,3.68-1.55,5.46-2.47A38,38,0,0,0,83,76.54,23.15,23.15,0,0,0,88.72,69a12.73,12.73,0,0,0,1.08-3,4.75,4.75,0,0,0-.58-3.64,5.44,5.44,0,0,0-2.42-2.06,12.43,12.43,0,0,0-5.31-1.1A15.88,15.88,0,0,0,76,60.38a.45.45,0,0,0-.34.48,11.32,11.32,0,0,1-.49,3.07A.93.93,0,0,0,75.16,64.22Zm-64-3.66v2.72a10.62,10.62,0,0,0,1,4.67A7.73,7.73,0,0,0,15,71.2a11.2,11.2,0,0,1,1.63,1.28,20.62,20.62,0,0,1,2.69,3.21,34,34,0,0,1,2.09,3.47,7.66,7.66,0,0,0,5.55,4,12.57,12.57,0,0,0,3.24.21,10.53,10.53,0,0,0,3-.55,7,7,0,0,0,4.07-3.44,9.15,9.15,0,0,0,.85-2.81,23,23,0,0,1,2-6.54,10.9,10.9,0,0,1,1.79-2.66,4.82,4.82,0,0,0,1.27-2.29c.14-.71.34-1.41.49-2.12a6,6,0,0,0,.2-1.52,13.41,13.41,0,0,0-.74-3.81,57.08,57.08,0,0,1-2.18-8.46c-.36-2-.66-4.1-1-6.15a12.62,12.62,0,0,0-.4-1.72,3.13,3.13,0,0,0-.49-.87,1.1,1.1,0,0,0-1.18-.37,2.63,2.63,0,0,0-.72.28,5.54,5.54,0,0,0-.85.58,3.92,3.92,0,0,1-1.09.66c-.71.28-1.43.56-2.16.8-2.29.74-4.62,1.31-7,1.87a7.75,7.75,0,0,1-1.51.29c-.95,0-1.9.1-2.84.14a68.65,68.65,0,0,1-6.88,0,6.89,6.89,0,0,1-2.45-.48A2.92,2.92,0,0,0,11,44,1.13,1.13,0,0,0,9.8,45a4.13,4.13,0,0,0-.09,1.16c0,.66.14,1.31.24,2,.37,2.33.78,4.65,1,7A48,48,0,0,1,11.18,60.56ZM47.71,67v.08l-.34,0c-.76.08-1.53.13-2.29.25a7.65,7.65,0,0,0-2.82,1,3.86,3.86,0,0,0-1.4,1.41,4.13,4.13,0,0,0-.37,2.74,10.22,10.22,0,0,0,1.12,3.18c.91,1.74,1.81,3.49,2.57,5.31a25.89,25.89,0,0,1,1.74,5.72,10.78,10.78,0,0,0,1.91,4.64,7.11,7.11,0,0,0,4.56,2.89c.63.11,1.26.18,1.88.3a7.39,7.39,0,0,0,6-1.23,12,12,0,0,0,3.22-3.52c.25-.39.49-.79.76-1.18a24.47,24.47,0,0,1,3.35-3.83c1.28-1.22,2.61-2.38,3.91-3.58.45-.42.89-.85,1.3-1.3a7,7,0,0,0,1.37-2.18,3.67,3.67,0,0,0-.34-3.43A5.92,5.92,0,0,0,72.67,73a12,12,0,0,0-3.27-2l-.35-.17a.5.5,0,0,1,.3,0,11.29,11.29,0,0,1,4.18,2.38c0-.17,0-.28,0-.38,0-1.06-.12-2.12-.17-3.19a10.51,10.51,0,0,1,.26-3.16c.18-.67.4-1.32.62-2a10.37,10.37,0,0,0,.58-3.12c0-1.26,0-2.52,0-3.79,0-.28,0-.56,0-.83,0-.55-.27-.78-.82-.82a2.26,2.26,0,0,0-.37,0,11.19,11.19,0,0,0-1.16.18,19.83,19.83,0,0,1-3.07.49,23.13,23.13,0,0,1-4.92-.21c-2.6-.39-5.18-.89-7.72-1.53a26.27,26.27,0,0,1-6-2.24c-.55-.29-1.08-.64-1.63-.94a9.75,9.75,0,0,0-1.26-.61c-.68-.24-1.08,0-1.34.66a.14.14,0,0,1,0,.06c-.34,1-.68,2-1,3A14.11,14.11,0,0,0,44.54,60a10.39,10.39,0,0,1-.43,3.18c-.39,1.37-.85,2.73-1.35,4.06,0,.12-.08.25-.14.41A11.71,11.71,0,0,1,47.71,67ZM43.05,49.14l0-.06.29-.2,3.36-2.22c2.11-1.4,4.24-2.79,6.47-4a32.08,32.08,0,0,1,8-3.16,17.6,17.6,0,0,1,6-.51,8.51,8.51,0,0,1,3,.88A4.08,4.08,0,0,1,71.49,41a2.19,2.19,0,0,1,.45,1.67,3.61,3.61,0,0,1-.43,1.23,6,6,0,0,1-1.35,1.65c-1.18,1-2.35,2.07-3.57,3-2.54,2-5.1,4-7.65,6l-.31.24.29.07c1.19.17,2.39.33,3.58.51a.62.62,0,0,0,.49-.14l2.58-2c2.25-1.79,4.46-3.62,6.57-5.57a8.78,8.78,0,0,0,2.15-3,5.22,5.22,0,0,0-1.49-6.41A9.34,9.34,0,0,0,69,36.51a15.71,15.71,0,0,0-6.26-.17A29.51,29.51,0,0,0,56.39,38a45.66,45.66,0,0,0-6.56,3.19C46.84,43,44,44.87,41,46.71c0,0-.08.07-.11.09a44.84,44.84,0,0,0,2.45,11.37.79.79,0,0,0,.1-.16,10.28,10.28,0,0,0,.9-2.2,39.36,39.36,0,0,1,1.56-4.34,2.18,2.18,0,0,1,.29-.49,1.29,1.29,0,0,1,1.08-.52,2,2,0,0,1,1,.26,16.83,16.83,0,0,1,1.46.9A17.42,17.42,0,0,0,53,53.41a26.28,26.28,0,0,0,5.07,1.47.51.51,0,0,0,.46-.14c2.19-1.7,4.39-3.39,6.56-5.11,1.73-1.37,3.4-2.8,5-4.31a4.94,4.94,0,0,0,1.48-2.27A2,2,0,0,0,71.07,41a4.56,4.56,0,0,0-1.47-1,9.36,9.36,0,0,0-3.42-.73,18.22,18.22,0,0,0-4,.36,29.31,29.31,0,0,0-7.34,2.49,69.43,69.43,0,0,0-6.67,3.79L43.35,49Z"/><path class="cls-2" d="M91.64,97.09c.1.44.21.87.3,1.3a9.66,9.66,0,0,1,.1,2.84s0,.1-.07.23l-1.23-2.41-1.59,1.73a.47.47,0,0,1,0-.36,6.14,6.14,0,0,0-.94-3.64,7.24,7.24,0,0,0-1.38-1.59,11.63,11.63,0,0,0-4.34-2.32,15.87,15.87,0,0,0-6.53-.59,10.37,10.37,0,0,0-1.55.31,5.3,5.3,0,0,0-3,2.06c-.42.57-.79,1.19-1.17,1.8-.51.82-1,1.68-1.53,2.47a10.28,10.28,0,0,1-6.88,4.22,8.94,8.94,0,0,1-4-.17A7.24,7.24,0,0,1,53,98.68a8,8,0,0,1-.7-3.59c0-.1,0-.19,0-.3a27,27,0,0,1,2.95.56c.09.51.15,1,.25,1.45a4.93,4.93,0,0,0,.77,1.66,4.18,4.18,0,0,0,2.92,1.79,7.55,7.55,0,0,0,7.23-3.11c.45-.64.82-1.33,1.23-2s.84-1.38,1.31-2a8.45,8.45,0,0,1,5.51-3.46,18.1,18.1,0,0,1,11.77,1.63c.1,0,.21.08.31.12l.07,0,.36.21h0a.43.43,0,0,0,.38.2l1,.77.28.25.31.32.63.63a9.45,9.45,0,0,1,1.25,1.62,1.34,1.34,0,0,1,.12.3l.38.68h0l.27.68Z"/><path class="cls-2" d="M16.58,77.26c0,.11-.09.1-.16.11-1.09.25-2.19.46-3.27.74a16.54,16.54,0,0,0-3.52,1.36A9.21,9.21,0,0,0,6,82.85a5.6,5.6,0,0,0-.88,2.81,3.71,3.71,0,0,0,1.27,2.92A5.89,5.89,0,0,0,9,89.92a15.63,15.63,0,0,0,4.09.42,42.08,42.08,0,0,0,7.67-.93c1.8-.35,3.6-.71,5.41-1a26.71,26.71,0,0,1,6.38-.22,7,7,0,0,1,2.59.66,6.41,6.41,0,0,1,1.18.76,3.35,3.35,0,0,1,1.13,3.76A5.79,5.79,0,0,1,36.67,95a9.69,9.69,0,0,1-2,2.21,5.85,5.85,0,0,1-2.56,1.12,21.48,21.48,0,0,1-5,.41,52.11,52.11,0,0,1-6.71-.6,82.39,82.39,0,0,1-12.69-2.9A40.77,40.77,0,0,1,3,93.51l-.26-.1,1,1.9L1.32,96l.45.22a48.5,48.5,0,0,0,5.48,2,85.42,85.42,0,0,0,11.51,2.68,55,55,0,0,0,8,.78,25.69,25.69,0,0,0,5.87-.49,15.39,15.39,0,0,0,1.51-.44,7.68,7.68,0,0,0,3.09-2,11.6,11.6,0,0,0,2.73-4,6.35,6.35,0,0,0-.05-5.09,6.49,6.49,0,0,0-2.17-2.59,9.26,9.26,0,0,0-4.13-1.65,24.5,24.5,0,0,0-4.28-.18,44.38,44.38,0,0,0-7.27,1c-1.65.32-3.29.63-4.95.87a26.45,26.45,0,0,1-4.95.3A9.83,9.83,0,0,1,9.58,87a3.82,3.82,0,0,1-1.07-.53.89.89,0,0,1-.39-1,4.31,4.31,0,0,1,.32-.87,5.39,5.39,0,0,1,1.91-2A10.47,10.47,0,0,1,13,81.41a23.54,23.54,0,0,1,4-1l1-.16h0a.66.66,0,0,1-.19.09,25.88,25.88,0,0,0-5.6,1.43,7.45,7.45,0,0,0-2.79,1.8,4.22,4.22,0,0,0-1.06,1.8.81.81,0,0,0,.35,1,4.13,4.13,0,0,0,1.72.64,14.07,14.07,0,0,0,3,.17,45.12,45.12,0,0,0,7.3-1c1.66-.34,3.32-.68,5-.94a29.72,29.72,0,0,1,7-.29,10.48,10.48,0,0,1,4.56,1.34,7.86,7.86,0,0,1,2.07,1.74,6.49,6.49,0,0,1,1.27,6.17,11.06,11.06,0,0,1-2.7,4.53,9.54,9.54,0,0,1-5.5,2.91,27.17,27.17,0,0,1-5.91.4,49.66,49.66,0,0,1-5.44-.45A83.11,83.11,0,0,1,6.6,98.31a41.61,41.61,0,0,1-5.4-2.1A4.23,4.23,0,0,1,.78,96s0,0,0-.08l2.67-.73L2.21,93a1.08,1.08,0,0,1,.17,0,43.38,43.38,0,0,0,7.06,2.62,80.56,80.56,0,0,0,9.46,2.19,59,59,0,0,0,5.92.71,33.41,33.41,0,0,0,4.36,0,15.64,15.64,0,0,0,3.4-.53,5.44,5.44,0,0,0,2.5-1.44,8.58,8.58,0,0,0,2-2.91A3.69,3.69,0,0,0,37.33,92a3.12,3.12,0,0,0-1.06-2,5.88,5.88,0,0,0-2.89-1.31,19,19,0,0,0-3.85-.17,38.63,38.63,0,0,0-6.93.94c-1.78.37-3.56.73-5.37,1a32.14,32.14,0,0,1-5.19.28,11.88,11.88,0,0,1-4.12-.8,5.23,5.23,0,0,1-1.57-.95A4.06,4.06,0,0,1,5,84.76a7.24,7.24,0,0,1,2-3.48,10.26,10.26,0,0,1,3.56-2.36,24.87,24.87,0,0,1,5.17-1.48l.88-.18Z"/><path class="cls-2" d="M16.59,77.26l1.4-.2h0s0,.08-.06.08l-1.15.16a.65.65,0,0,1-.19,0Z"/><path class="cls-2" d="M18,80.3,19,80.15h0s0,.07-.06.07l-1,.07Z"/><path class="cls-2" d="M89.64,93.83,89,93.2A1.81,1.81,0,0,1,89.64,93.83Z"/><path class="cls-2" d="M20.87,80h0Z"/><path class="cls-2" d="M19.24,77l-.6.07h0a1.06,1.06,0,0,1,.25-.09,2.06,2.06,0,0,1,.35,0Z"/><path class="cls-2" d="M19.71,80.16c.12-.17.28-.06.43-.07l-.43.07Z"/><path class="cls-2" d="M19.71,80.16h0Z"/><path class="cls-2" d="M18.64,77.07h0Z"/><path class="cls-2" d="M87,91.67l-.36-.21Z"/><path class="cls-2" d="M87.39,91.86a.43.43,0,0,1-.38-.2Z"/><path class="cls-2" d="M88.7,92.88l-.28-.25Z"/><path class="cls-2" d="M11.18,60.56A48,48,0,0,0,11,55.07c-.23-2.35-.64-4.67-1-7-.1-.65-.2-1.3-.24-2A4.13,4.13,0,0,1,9.8,45,1.13,1.13,0,0,1,11,44a2.92,2.92,0,0,1,1.4.27,6.89,6.89,0,0,0,2.45.48,68.65,68.65,0,0,0,6.88,0c.94,0,1.89-.11,2.84-.14a7.75,7.75,0,0,0,1.51-.29c2.34-.56,4.67-1.13,7-1.87.73-.24,1.45-.52,2.16-.8A3.92,3.92,0,0,0,36.27,41a5.54,5.54,0,0,1,.85-.58,2.63,2.63,0,0,1,.72-.28,1.1,1.1,0,0,1,1.18.37,3.13,3.13,0,0,1,.49.87,12.62,12.62,0,0,1,.4,1.72c.35,2,.65,4.11,1,6.15a57.08,57.08,0,0,0,2.18,8.46,13.41,13.41,0,0,1,.74,3.81,6,6,0,0,1-.2,1.52c-.15.71-.35,1.41-.49,2.12a4.82,4.82,0,0,1-1.27,2.29,10.9,10.9,0,0,0-1.79,2.66,23,23,0,0,0-2,6.54,9.15,9.15,0,0,1-.85,2.81,7,7,0,0,1-4.07,3.44,10.53,10.53,0,0,1-3,.55A12.57,12.57,0,0,1,27,83.2a7.66,7.66,0,0,1-5.55-4,34,34,0,0,0-2.09-3.47,20.62,20.62,0,0,0-2.69-3.21A11.2,11.2,0,0,0,15,71.2,7.73,7.73,0,0,1,12.22,68a10.62,10.62,0,0,1-1-4.67Zm18.27,5.51a8.6,8.6,0,0,0-2.73.44,9.94,9.94,0,0,0-3.64,1.94,4.48,4.48,0,0,0-1.63,4c.08.68.18,1.35.3,2s.41.85,1.07.73a1.43,1.43,0,0,0,.39-.11c.4-.16.8-.33,1.19-.52s.89-.48,1.33-.71a11.15,11.15,0,0,1,5-1.21,13.22,13.22,0,0,1,2.66.3,9.46,9.46,0,0,0,2.12.26,1,1,0,0,0,1-.85,3.28,3.28,0,0,0,0-.83,5.47,5.47,0,0,0-.19-1,5.58,5.58,0,0,0-4-4.12A10,10,0,0,0,29.45,66.07Zm-13.7-6a11,11,0,0,1,2.57-.16,7,7,0,0,0,3.85-.83,4.25,4.25,0,0,0,2.15-2.66,4.93,4.93,0,0,0-.15-2.87,1,1,0,0,0-.1-.16A7,7,0,0,1,22.6,55a7.51,7.51,0,0,1-2.91,1.67c-.34.1-.66.22-1,.34a3.55,3.55,0,0,0-1.17.69A9.9,9.9,0,0,0,15.75,60Zm22.5-3.37a12.8,12.8,0,0,0-1.82-1.31,4.1,4.1,0,0,0-2.14-.56l-.67,0a8.64,8.64,0,0,1-1.83-.09,9.66,9.66,0,0,1-3.66-1.52.69.69,0,0,0,0,.13c0,.28,0,.56.07.83a4.2,4.2,0,0,0,2.48,3.38,5,5,0,0,0,1.85.43,7.62,7.62,0,0,0,3.36-.63A8.89,8.89,0,0,1,38.25,56.67ZM24.39,50.16l-.24.2a24.32,24.32,0,0,1-4.38,3c-.55.29-1.09.61-1.62.94a9.6,9.6,0,0,0-3.48,3.91,7.59,7.59,0,0,0-.41,1.16,1.18,1.18,0,0,0,.12.85l0,0c0-.09.09-.18.13-.27a8.77,8.77,0,0,1,2-2.78A10.93,10.93,0,0,1,19.89,55a10.58,10.58,0,0,0,2.16-1.19,5.77,5.77,0,0,0,2.27-3.3C24.34,50.44,24.35,50.34,24.39,50.16ZM27,49.62a5.58,5.58,0,0,0,1.84,2.14A7.67,7.67,0,0,0,31.9,53c.67.12,1.35.19,2,.33A9.16,9.16,0,0,1,39.3,56.5a.59.59,0,0,0,.11.09A1.78,1.78,0,0,0,39,55.34a5.84,5.84,0,0,0-.42-.56,9.82,9.82,0,0,0-3-2.28,10.88,10.88,0,0,0-2.85-1,25.6,25.6,0,0,1-5.65-1.85ZM37.09,74.36c-.06.12-.08.17-.1.22a1.41,1.41,0,0,1-1.72.86,4.41,4.41,0,0,1-.89-.29,3.56,3.56,0,0,0-1.5-.33c-.83,0-1.67,0-2.51,0-.3,0-.6,0-.9.08a20.58,20.58,0,0,0-3.64.89A6,6,0,0,0,24,76.7a3.67,3.67,0,0,1-.92.48,1.29,1.29,0,0,1-1.5-.45l-.24-.32A1.47,1.47,0,0,0,23,77.54,2.88,2.88,0,0,0,24.31,77a6.47,6.47,0,0,1,1.44-.72c1-.34,2.05-.7,3.09-1a8.21,8.21,0,0,1,5.57.27,3.39,3.39,0,0,0,.51.17,2.24,2.24,0,0,0,1,0A1.45,1.45,0,0,0,37.09,74.36Zm-8.9-25.54,0,.06.42.17a12,12,0,0,0,3.24.68,10.19,10.19,0,0,1,4.87,1.62,15.46,15.46,0,0,1,2.51,2.06l.2.17a.17.17,0,0,0,0-.11,7.47,7.47,0,0,0-4.68-3.4c-.41-.1-.83-.16-1.25-.24l-3.61-.74C29.31,49,28.75,48.91,28.19,48.82ZM13.86,57l0,0a1.71,1.71,0,0,0,.13-.23c.27-.45.51-.91.8-1.35A11.31,11.31,0,0,1,16.9,53,10.11,10.11,0,0,1,20,51.14a12.32,12.32,0,0,0,2.76-1.5l.49-.39a.71.71,0,0,0-.36.09c-1.82.83-3.51,1.9-5.29,2.82a7.39,7.39,0,0,0-3.68,4.57C13.9,56.83,13.88,56.93,13.86,57ZM36.38,68.1a2.79,2.79,0,0,0,.09-1.26,5.58,5.58,0,0,0-.83-2.11,10.51,10.51,0,0,0-3.57-3.32l-.25-.13a1.55,1.55,0,0,0,.32.35c.45.39.9.78,1.33,1.18a12.63,12.63,0,0,1,2,2.3A5.48,5.48,0,0,1,36.38,68.1ZM22.89,62.47l0,0-.1,0c-.13.09-.26.18-.38.28a5.49,5.49,0,0,0-1.52,2.13,9.32,9.32,0,0,0-.58,4.21c0,.2,0,.4.07.6a.29.29,0,0,0,.09-.22c0-.39,0-.78.09-1.16a12.81,12.81,0,0,1,.68-3.24,6.83,6.83,0,0,1,1.39-2.31Zm.93,1.87c.25-.08.44-.15.63-.19a3,3,0,0,1,1.87.24,2.19,2.19,0,0,0,1.23.23l.73-.12A1.09,1.09,0,0,0,29,64a2,2,0,0,1,1.4-.77l.88-.08v0l-.06,0a1.57,1.57,0,0,0-1.7.19c-.22.18-.4.4-.62.57a1.66,1.66,0,0,1-.6.4,2.71,2.71,0,0,1-2-.07,5.65,5.65,0,0,0-.67-.29A1.75,1.75,0,0,0,23.82,64.34Zm14,7.76a3.82,3.82,0,0,0-.32-3.2A8.25,8.25,0,0,1,37.8,72.1Zm-9-11.44a2.33,2.33,0,0,0-2.83.39A3.61,3.61,0,0,1,28.8,60.66ZM20.13,74l.06,0-.56-2.55A5.07,5.07,0,0,0,20.13,74Zm10.78,6.66a1.12,1.12,0,0,0-.4-.7.5.5,0,0,0-.72,0,1,1,0,0,0-.28.62,3.5,3.5,0,0,0,.24-.3c.29-.37.49-.39.82-.06Z"/><path class="cls-2" d="M47.71,67a11.71,11.71,0,0,0-5.09.63c.06-.16.1-.29.14-.41.5-1.33,1-2.69,1.35-4.06A10.39,10.39,0,0,0,44.54,60a14.11,14.11,0,0,1,.91-5.22c.36-1,.7-2,1-3a.14.14,0,0,0,0-.06c.26-.68.66-.9,1.34-.66a9.75,9.75,0,0,1,1.26.61c.55.3,1.08.65,1.63.94a26.27,26.27,0,0,0,6,2.24c2.54.64,5.12,1.14,7.72,1.53a23.13,23.13,0,0,0,4.92.21,19.83,19.83,0,0,0,3.07-.49A11.19,11.19,0,0,1,73.63,56,2.26,2.26,0,0,1,74,56c.55,0,.79.27.82.82,0,.27,0,.55,0,.83,0,1.27,0,2.53,0,3.79a10.37,10.37,0,0,1-.58,3.12c-.22.66-.44,1.31-.62,2a10.51,10.51,0,0,0-.26,3.16c0,1.07.12,2.13.17,3.19,0,.1,0,.21,0,.38a11.29,11.29,0,0,0-4.18-2.38.5.5,0,0,0-.3,0l.35.17a12,12,0,0,1,3.27,2,5.92,5.92,0,0,1,1.16,1.34,3.67,3.67,0,0,1,.34,3.43A7,7,0,0,1,72.8,80c-.41.45-.85.88-1.3,1.3-1.3,1.2-2.63,2.36-3.91,3.58a24.47,24.47,0,0,0-3.35,3.83c-.27.39-.51.79-.76,1.18a12,12,0,0,1-3.22,3.52,7.39,7.39,0,0,1-6,1.23c-.62-.12-1.25-.19-1.88-.3a7.11,7.11,0,0,1-4.56-2.89,10.78,10.78,0,0,1-1.91-4.64A25.89,25.89,0,0,0,44.18,81c-.76-1.82-1.66-3.57-2.57-5.31a10.22,10.22,0,0,1-1.12-3.18,4.13,4.13,0,0,1,.37-2.74,3.86,3.86,0,0,1,1.4-1.41,7.65,7.65,0,0,1,2.82-1c.76-.12,1.53-.17,2.29-.25l.34,0Zm.39,9.34c.09.86.16,1.68.28,2.5A15.84,15.84,0,0,0,49.51,83,8.38,8.38,0,0,0,52,86.41a7.75,7.75,0,0,0,6.49,1.46,7.29,7.29,0,0,0,4.2-2.52,14.85,14.85,0,0,0,3-6.46.28.28,0,0,0-.13-.34.31.31,0,0,0-.37.07,4.41,4.41,0,0,1-1.62.77,13.9,13.9,0,0,1-4.5.29c-.9-.06-1.8-.17-2.7-.29a12.13,12.13,0,0,1-1.7-.32,13,13,0,0,1-4.47-2.31c-.57-.43-1.1-.91-1.65-1.37-.1-.09-.2-.18-.35-.11s-.13.2-.13.32Zm21.83-6.31c0-.26,0-.46,0-.65a6.16,6.16,0,0,0-3.42-4.57,3.27,3.27,0,0,0-.66-.24,2.88,2.88,0,0,0-1.81.08,3.9,3.9,0,0,0-1.3.81,8.16,8.16,0,0,0-1.87,2.67.33.33,0,0,0,0,.1C64.15,67.31,67.1,68.23,69.93,70.06Zm-23.1-4,.25,0a12.2,12.2,0,0,1,4.58-.38,8.85,8.85,0,0,1,4.06,1.46l.32.2c0-.18,0-.31,0-.44a8.88,8.88,0,0,0-.54-2.1,5.14,5.14,0,0,0-.87-1.46,3,3,0,0,0-2.39-1.09,5.38,5.38,0,0,0-1.73.35,6,6,0,0,0-3.09,2.36A4.56,4.56,0,0,0,46.83,66.05ZM47,61.32h0a2.44,2.44,0,0,0,.1-.24,5.38,5.38,0,0,1,.74-1.35,8.23,8.23,0,0,1,2-1.87,1,1,0,0,1,.6-.18,6.56,6.56,0,0,1,2.46.58,14.5,14.5,0,0,1,3.92,2.61l.24.21a.72.72,0,0,0,0-.33,4.87,4.87,0,0,0-1-1.54,9,9,0,0,0-2.26-1.71,18.75,18.75,0,0,0-4.39-1.7.46.46,0,0,0-.55.16A5.36,5.36,0,0,0,48,57.5a13.78,13.78,0,0,0-.74,2.6C47.15,60.51,47.09,60.91,47,61.32ZM62,62l.33-.15a14.54,14.54,0,0,1,4.36-1.26,6.72,6.72,0,0,1,2.6.16,1,1,0,0,1,.59.4,7,7,0,0,1,1.61,4.25,2.84,2.84,0,0,0,.08-.3,15.44,15.44,0,0,0,.22-3.84,4.75,4.75,0,0,0-.4-1.69.41.41,0,0,0-.4-.28,18.75,18.75,0,0,0-5.23.41,7.88,7.88,0,0,0-2.67,1.13A3.22,3.22,0,0,0,62,62Zm2.08,23.37L64,85.29c-.06.07-.12.16-.19.23a26.35,26.35,0,0,1-3,2.67,10.55,10.55,0,0,1-2.92,1.61A5.47,5.47,0,0,1,52,88.55a10.92,10.92,0,0,1-1.14-1.31,23.31,23.31,0,0,1-2.63-4.43c0-.11-.11-.22-.17-.34l0,0a.36.36,0,0,0,0,.1,13.38,13.38,0,0,0,2.26,4.49,9.67,9.67,0,0,0,3.13,2.63,5.7,5.7,0,0,0,4.67.39,9.07,9.07,0,0,0,2.54-1.33A16.68,16.68,0,0,0,64,85.46S64,85.38,64.06,85.35ZM46.18,79.61c0-.63,0-1.25,0-1.86a4,4,0,0,1,2.4-3.59,7.84,7.84,0,0,1,1.94-.62,16.1,16.1,0,0,1,2.77-.23,1.89,1.89,0,0,0-.41-.1,9.92,9.92,0,0,0-2.31,0,6.75,6.75,0,0,0-2.72.88,4,4,0,0,0-1.76,2.32,5,5,0,0,0-.16,1.89A5.25,5.25,0,0,0,46.18,79.61Zm19.38,3.27,0,0a.52.52,0,0,0,.1-.11,6.14,6.14,0,0,0,1-2,4,4,0,0,0-.3-3.14,4.83,4.83,0,0,0-.89-1.17,8.8,8.8,0,0,0-3.49-2,4.84,4.84,0,0,0-.51-.14,1,1,0,0,0,.3.2c.67.35,1.36.68,2,1.07a6.33,6.33,0,0,1,2.14,2,3.86,3.86,0,0,1,.53,2.67,7.09,7.09,0,0,1-.8,2.23C65.66,82.67,65.61,82.77,65.56,82.88Zm-12.2-8.43a2.79,2.79,0,0,1,.77,0A4.83,4.83,0,0,1,56,75.51a2.87,2.87,0,0,0,2.78.65,2.89,2.89,0,0,1,.81-.19,5.49,5.49,0,0,1,1.83.24.7.7,0,0,0-.12-.18,1.37,1.37,0,0,0-1.22-.49,7.55,7.55,0,0,0-1.15.23,3.23,3.23,0,0,1-1.69,0A2.7,2.7,0,0,1,56,75a2.39,2.39,0,0,0-1.07-.66A2.18,2.18,0,0,0,53.36,74.45Zm.46-18.09,0,0-.21-.16a14.93,14.93,0,0,0-4-1.67,5.22,5.22,0,0,0-.69-.11.65.65,0,0,0-.65.25,6.13,6.13,0,0,0-1.2,2.27A4.56,4.56,0,0,0,47,58.38a.36.36,0,0,0,.07-.17,6.64,6.64,0,0,1,1.31-2.94c.48-.59.3-.55,1.12-.4a17.92,17.92,0,0,1,2.78.87Zm12.47,2.28,0,0c1.09-.15,2.18-.32,3.27-.45a7.39,7.39,0,0,1,1.88,0,.38.38,0,0,1,.31.21A6.88,6.88,0,0,1,72.6,61c0,.2,0,.4,0,.6s0,.37,0,.63a1.88,1.88,0,0,0,.08-.2,5.89,5.89,0,0,0-.65-3.92.53.53,0,0,0-.44-.3,8.37,8.37,0,0,0-1,0,14.79,14.79,0,0,0-3.17.53C67.07,58.37,66.68,58.51,66.29,58.64Zm-3.86,5,0,.07.22,0,2.16-.48a2.52,2.52,0,0,1,1.6.17,5.28,5.28,0,0,1,1.37.91,9.76,9.76,0,0,1,1.31,1.56,1.8,1.8,0,0,0,.19.24c0-.06,0-.09,0-.11a3.72,3.72,0,0,0-2.68-2.78,7.35,7.35,0,0,0-2.29-.24A3.64,3.64,0,0,0,62.43,63.64ZM54.51,62a2.36,2.36,0,0,0-.18-.2,3.48,3.48,0,0,0-1.77-.82,16.86,16.86,0,0,0-1.74-.06,3.76,3.76,0,0,0-3.48,2.5.25.25,0,0,0,0,.09l.06,0a1.31,1.31,0,0,1,.17-.24c.23-.25.46-.51.71-.76a5.6,5.6,0,0,1,2-1.3,2.79,2.79,0,0,1,2-.06l2,.69ZM45.56,75.09c.63-1.44.91-1.91,2.51-2.32A2.37,2.37,0,0,0,45.56,75.09ZM68,79.78c.68-1.13.13-3-1-3.19l.06.08a2.31,2.31,0,0,1,1,2.12C68.08,79.12,68,79.45,68,79.78ZM53.27,92.57a2.23,2.23,0,0,1,2.06.28A1.35,1.35,0,0,0,53.27,92.57Z"/><path class="cls-2" d="M76.21,63.69l-1,.53a.93.93,0,0,1,0-.29,11.32,11.32,0,0,0,.49-3.07.45.45,0,0,1,.34-.48,15.88,15.88,0,0,1,5.48-1.14,12.43,12.43,0,0,1,5.31,1.1,5.44,5.44,0,0,1,2.42,2.06A4.75,4.75,0,0,1,89.8,66a12.73,12.73,0,0,1-1.08,3A23.15,23.15,0,0,1,83,76.54a38,38,0,0,1-7.81,5.24c-1.78.92-3.6,1.73-5.46,2.47l-.3.11.21-.24c.88-.81,1.75-1.63,2.62-2.45A10.54,10.54,0,0,0,74.45,79a.66.66,0,0,1,.34-.3,37,37,0,0,0,4.75-3,22.24,22.24,0,0,0,5.4-5.59,17.42,17.42,0,0,0,1.91-3.87A4.63,4.63,0,0,0,87.11,65a1.76,1.76,0,0,0-.57-1.38,3.31,3.31,0,0,0-1.19-.72,10.22,10.22,0,0,0-6.14-.28,15.73,15.73,0,0,0-2.31.79,1,1,0,0,0-.22.13h0Z"/><path class="cls-2" d="M15.73,72.42a.61.61,0,0,1,.65.21,19.12,19.12,0,0,1,1.84,2.18l.2.31-.92.15a40.54,40.54,0,0,1-6.22.41,15.72,15.72,0,0,1-5.38-1,8.69,8.69,0,0,1-5-4.94,6.36,6.36,0,0,1,1.87-7.4,10.56,10.56,0,0,1,2.92-1.74,25.19,25.19,0,0,1,4.08-1.22l.91-.2c0,1,.09,2.05,0,3.09l-.82.19a19.85,19.85,0,0,0-3.4,1,10.31,10.31,0,0,0-1.5.81,3.71,3.71,0,0,0-1.6,2,3.56,3.56,0,0,0,.15,2.55A5.8,5.8,0,0,0,6.6,71.93a9.48,9.48,0,0,0,2.77.75,21.85,21.85,0,0,0,4.85-.05l1.36-.16.16,0Z"/><path class="cls-2" d="M76.21,63.69l.48-.21Z"/><path class="cls-2" d="M33.7,101.34a60.32,60.32,0,0,1-10.89.25,64.25,64.25,0,0,1-6.58-.83c-.36-.07-1.81-.33-3.72-.79-3.59-.85-3.21-1-5.78-1.62,0,0-5.4-1.22-5.71-2.15L.94,96h0c2.29-.32,2.48-.78,2.48-.78.29-.69-1.2-1.71-1-2s2.62,1,4.92,1.9c2.61,1.07,5.6,1.63,11.58,2.74A40.56,40.56,0,0,0,23,98.4c.86.09,1.58.13,2.09.15,5,.44,8.7-.76,9.58-1.5a9.23,9.23,0,0,0,1.77-2l.13-.23a4.38,4.38,0,0,0,.85-3.15A4.54,4.54,0,0,0,34.9,89a5,5,0,0,0-1.43-.51,12.45,12.45,0,0,0-1.91-.1l-1.28-.07a18,18,0,0,0-3.9.35c-1.91.37-10.77,2.11-15.62,1.75a7.28,7.28,0,0,1-3.34-1,6.75,6.75,0,0,1-1.8-1.57,4.71,4.71,0,0,1-.59-2c-.15-3.23,3.43-5.58,4.31-6.16a13.48,13.48,0,0,1,4.58-1.85c.26-.06,1-.18,2.5-.42l3.22-.5a5.39,5.39,0,0,1,1.49,2c.18.49.29.76.16,1-.51.87-4.09-.26-4.08-.3s2,.29,2,.55S16,80.46,13,81.41a13.55,13.55,0,0,0-2.61,1.2,4.59,4.59,0,0,0-1.08.77A3,3,0,0,0,8.37,86c.85,2.19,8.36,1.16,8.74,1.1l2.43-.45c4.63-.85,5.18-1,5.87-1.1,3.43-.58,7.26-1.24,10.69.5a11,11,0,0,1,4.42,4.27,11.15,11.15,0,0,1-2.12,7.4A10.92,10.92,0,0,1,33.7,101.34Z"/><path class="cls-2" d="M86.27.86v.27a3.69,3.69,0,0,1,.6,0,.4.4,0,0,1,.29.21l.53,1.15a.32.32,0,0,1,.18.1.53.53,0,0,0,.23.13.5.5,0,0,0,.47-.13A.39.39,0,0,1,89,2.54a.37.37,0,0,1,.07.59,1.22,1.22,0,0,1-.88.37h-.07L88.88,5a1.21,1.21,0,0,1,.09.2,2.38,2.38,0,0,1,2.39.57.39.39,0,0,1,0,.53.38.38,0,0,1-.28.12.35.35,0,0,1-.27-.11A1.62,1.62,0,0,0,89.21,6a5,5,0,0,1,0,2.52l.31.09a.77.77,0,0,0,.37,0,4.27,4.27,0,0,0,3.24-4.14V.86a.43.43,0,0,0-.27-.4,11,11,0,0,0-6.3,0A.43.43,0,0,0,86.27.86ZM90.44,2.6a.38.38,0,0,1,.54,0,.48.48,0,0,0,.7,0,.38.38,0,0,1,.54,0,.37.37,0,0,1,0,.53,1.24,1.24,0,0,1-.89.37,1.26,1.26,0,0,1-.89-.37A.39.39,0,0,1,90.44,2.6Z"/><path class="cls-2" d="M88.69,5,87.17,1.74a.4.4,0,0,0-.39-.23,9.31,9.31,0,0,0-3.06.92,9.06,9.06,0,0,0-2.66,1.76.41.41,0,0,0-.07.47L82.5,7.89a4.26,4.26,0,0,0,4.68,2.37.71.71,0,0,0,.34-.16A4.26,4.26,0,0,0,88.69,5Zm-3-.24A1.24,1.24,0,0,1,87.24,4a.38.38,0,0,1,.23.48A.38.38,0,0,1,87,4.7a.49.49,0,0,0-.63.3.39.39,0,0,1-.36.25l-.13,0A.38.38,0,0,1,85.64,4.74ZM84.17,6a.46.46,0,0,0-.38,0,.44.44,0,0,0-.25.28.39.39,0,0,1-.36.25l-.13,0a.37.37,0,0,1-.22-.48,1.24,1.24,0,0,1,1.6-.75.37.37,0,0,1,.23.48A.38.38,0,0,1,84.17,6Zm1.27,2.47a2.54,2.54,0,0,1-.8-.14.38.38,0,1,1,.26-.71,1.63,1.63,0,0,0,2.07-1,.37.37,0,0,1,.48-.23.38.38,0,0,1,.23.48A2.38,2.38,0,0,1,85.44,8.49Z"/></g></g></svg>