<svg xmlns="http://www.w3.org/2000/svg" viewBox="0 0 86.61 103.9"><defs><style>.cls-1{fill:#fff;}</style></defs><g id="Layer_2" data-name="Layer 2"><g id="Layer_1-2" data-name="Layer 1"><path class="cls-1" d="M80,51.73c1-.64,5.66-4.56,3.74-7.52-.91-1.1-5.66,2.6-5.66,2.6s6.94-6.12,6.39-11c-.14-3.19-8.8,7.53-8.53,7s5.06-8,3.6-8.9S68.28,48.63,68.23,48.45s2.65-7.21,1-7.62S67,44.3,67,44.3s-.09-.85-.82.09c-.32.41-5.19,13.74-7.76,15.87a49.1,49.1,0,0,1-8.07,4.61c-.23,0,1-.32.5-.87s-1.25-.16-2.14-1.46c-.42-.59-2.61-8-6.46-9.85s-7-1.6-8.42-2.51S26.22,47.76,25.39,49c-.35.51,4.25,1.23,5.57,2.19s5.79,5,5.7,5.38-9.49-5.2-10.31-4.92S34,57.66,34,59.4s-1.19,3.69-2.19,3.65-3.47-1.24-3.79-.69.5,1.33.5,1.33a.56.56,0,0,0-.23.31h0a23.45,23.45,0,0,1-11.54-9.21c-1.5-2.46.55-18.16,1.28-20.39s-2.69-.23-3.47,3.47c0-.14.92-10.18-2.05-10.31S9.47,39.74,9.47,39.74s-.41-6.23-1.91-6c-.82.14-5.07,7.39-4,14.83,0-.05-1.07-3.3-2.82-2.06-1.1.78-1.6,6.57,3.55,14.87,0,.05-3.28-3-4-2.23S.49,64.43,4.82,67c-.18.17-1.05-.44-1,.81,0,1.1,1.82,3.1,1.82,3.1S7.79,74,11,74.64c-.53,0-1.89.18-1.57,1.18.41,1.28,7.34,1.82,7.34,1.82s-1.41.14-1.41.69,3,.55,3,.55S15.82,80,17.32,80.52,21.56,80,21.56,80s-2,.91-.73,1.46,2.74.32,3.15.55a2.1,2.1,0,0,0,1.23,0s2.35-2.06,1.64-10.59c.23-.09,2.85,7-.73,11.14a18.37,18.37,0,0,1-5,3.87c-2.77,1.42-6,1.87-6.42,2.65s-1,2.28-.13,2.87a3,3,0,0,0,2.19-.08c-.89.39-2,1-2,1.91-.05,1.46,1.6,2.78,1.6,2.78s.18,1.41,1.32,1.64,5.15-3.65,5.15-3.24-4.24,3.33-3.05,4.79a6.72,6.72,0,0,0,3.42,1.92s.91,1.32,1.78,1,3.37-5.47,3.37-5.47-1.82,4.47-1.46,5.06,3.47.09,3.47.09,1.87.69,2.6,0,1.64-6,1.64-6-.82,5.15,0,5.2S37,100.32,37,100.32s.64,1.59,1.28-.14-1-12.73-1-12.73a5.69,5.69,0,0,1,3,1.74c.73,1,.73,1.91,1.23,1.91a1.06,1.06,0,0,0,.73-.3,10.39,10.39,0,0,1,1.16,2c.39,1.18.07,1.37.46,1.76s4.89,1.18,5,1.57-2.45,3.34-2.71,4,.91,3,1.09,2.78a3,3,0,0,0,.13-1.13s.43-.09.52-1-.31-.69-.18-1.39,1.44-2.78,1.91-2.78a10.54,10.54,0,0,1,3.39.87,4.74,4.74,0,0,1,.65,2.65c-.13.26-.86.57-.78,1.26s.52.78.48,1.26-.52,1.13-.22,1.22,1.07-.89,1.37-2l.11.22c.17.35-.21,1.22,0,1.3s1.17-1.17,1.26-2-.74-2.83-.83-3.35,0-1.26-.43-1.65S50.92,95.25,50.18,95s-4.74-.79-5.08-1a21.17,21.17,0,0,1-1.34-3.91c.07,0,.3.17.52-.21s-1.73-5.24-1.6-6.48A28.71,28.71,0,0,0,47.06,76c.23-.73,0,4.93-2.69,7.07-.18.78,2.24.23,2.24.23s.32,1,1.41.14a4.11,4.11,0,0,0,.86-1c-.3.81-.36,1.5.42,1.33,1.73-.36,3.19-3.56,3.19-3.56s1.55,2.33,2.19,2,0-1.24,0-1.24,2.69,1.46,3.29.73-.67-1.75-.91-2c.38.32,3.06,2.53,4.42,1.55a3.5,3.5,0,0,0,1.37-2.82s1.46.13,1.32-.32-2.69-2.1-2.69-2.1,4.7,1.18,5.88.36,1.14-1.14,1.14-1.14.78.5.73-.59A2.92,2.92,0,0,0,68,72.76s3.33.32,4.15-.73.37-1.32.55-1.37,1.69.28,1.78-.86a1.13,1.13,0,0,0-.89-1.18c.68.14,1.92.28,1.76-.56-.23-1.14-3.56-1.18-3.56-1.18s5.47-.32,7.25-4.52c.27-.41-.38-.21-1,.06.46-.27.85-.61.68-.92-.37-.69-2.19-.6-2.19-.6s5.7-3.6,6.2-7.21-3-1-7.48,2.29-4,2.5-4,2.5S77.15,53.63,80,51.73ZM54.22,96.86a8.07,8.07,0,0,1,.05,2,5.53,5.53,0,0,0-.57-1.6c-.31-.35-2.7-1-2.61-1.15S54.09,96.51,54.22,96.86ZM38.6,54.23A2.24,2.24,0,0,1,41,53.92c.62.39.66,2.22.66,2.22S39.15,56.37,38.6,54.23Z"/><path class="cls-1" d="M77.14,7.08a4.32,4.32,0,0,1,.67,1.73,1.37,1.37,0,0,0-1.55-.51,1,1,0,0,1,.92.84,16.72,16.72,0,0,0,2-1.15,19.1,19.1,0,0,0,3.23-2.66c.39-.41.72-.76.94-1l.34-.41s-.09.17-.27.46a13.88,13.88,0,0,1-.81,1.15,13.3,13.3,0,0,1-3.18,2.87,14.07,14.07,0,0,1-2.12,1.14.94.94,0,0,1,0,1.27c1.13-.69.72-1.57.72-1.56.3.31,1.07,1.13,1.07,1.52a1.05,1.05,0,0,0-.22-1.56,3,3,0,0,0,1.16.2A3.13,3.13,0,0,0,81.4,9l.19-.11a1,1,0,0,1-1-.48h0A2.29,2.29,0,0,0,82.82,8,10.08,10.08,0,0,0,83.94,7,12.21,12.21,0,0,0,86.12,3.7,1.66,1.66,0,0,1,84.58,4a2.33,2.33,0,0,0,1.26-.41,1.45,1.45,0,0,0,.64-.89c.32-1.32.06-2.28-.84-2.56s-1.52.15-2.2.9a1.51,1.51,0,0,0-.37,1.15,3.15,3.15,0,0,0,.28,1,2,2,0,0,1-.58-1.35c-.54.71-1.16,1.55-1.91,2.37l-.63.7A2.71,2.71,0,0,0,79.53,7a1.13,1.13,0,0,1-.26-1,4,4,0,0,0-1,1.88q0,.15-.06.33S78.07,7,77.14,7.08Z"/></g></g></svg>