<svg xmlns="http://www.w3.org/2000/svg" viewBox="0 0 97.27 104.66"><defs><style>.cls-1{fill:#fff;}</style></defs><g id="Layer_2" data-name="Layer 2"><g id="Layer_1-2" data-name="Layer 1"><path class="cls-1" d="M0,59c1-.31,1.72.29,2.43.8a10.3,10.3,0,0,0,3.88,1.63,26.09,26.09,0,0,0,6.24.49c.17,0,.42,0,.51-.09A3.94,3.94,0,0,1,15.17,61a2.77,2.77,0,0,0,2-1.37c-2-.41-4.14-.39-5.14-2.77a4.88,4.88,0,0,1,.89-.23c.84,0,1.67,0,2.5,0a6.64,6.64,0,0,0,1.26-.29c-1.15-.39-2.12-.68-3.05-1.05a3.35,3.35,0,0,1-2.15-2,1,1,0,0,1-.09-.28,3.66,3.66,0,0,1,0-.47c1.54-.11,2.74,1.19,4.19.94-1.12-.59-2.32-1.14-3.45-1.83a3.36,3.36,0,0,1-1.61-2.64c1.73,0,3,1.46,4.8,1.22-2.64-2-5.12-4.08-5.48-7.69.62-.12,1,.28,1.29.68a26.89,26.89,0,0,0,1.7,2.24,14.55,14.55,0,0,0,6.12,3.5A18.8,18.8,0,0,0,24.57,50a8.64,8.64,0,0,1,1.59.26A1.84,1.84,0,0,1,27.66,52c.1,1.85,0,3.71.05,5.56a9.55,9.55,0,0,0,1.52,5.51,8.84,8.84,0,0,0,6.55,3.51c1.83.22,3.65.44,5.47.69a2.34,2.34,0,0,1,2,2.24c.07.41.22.52.58.49,1.74-.17,3.32-.63,4.07-2.44a2,2,0,0,0-.17-2.19,1.13,1.13,0,0,0-1.22-.48c-.24.06-.64.33-.62.46,0,.39.38.47.74.3a1,1,0,0,1-.91,1.16,1.51,1.51,0,0,1-1.92-1c-.58.4-1.13.9-1.92.59.86-.75.89-.91.27-1.49A7.66,7.66,0,0,1,41,66.25,1.55,1.55,0,0,1,38.72,66a1.23,1.23,0,0,1-.15-1.22c.07-.19.35-.3.46-.39l.41.63a3.49,3.49,0,0,0,.38-.25c-.12-.25-.23-.61-.43-.68a2.68,2.68,0,0,0-1,.08c-.07-.36.3-1-.51-1.26a1.86,1.86,0,0,1-1.22,1.88l-.14-.38a2.58,2.58,0,0,1-2.88.07c1.11-.43,2.31-.79,1.69-2.35a7.4,7.4,0,0,1-1.27,1.29,2,2,0,0,1-3-.94,1.51,1.51,0,0,1,.6-1.72c.18.55.53.92,1.07.69.33-.14.54-.57.81-.87l-.15-.19c-.32,0-.65.1-1,.12a1.67,1.67,0,0,1-1.58-.91,1.71,1.71,0,0,1,.05-1.82,1.3,1.3,0,0,1,1.27-.64c.65,0,.84.4.71,1.14L32.05,58c-.18.43-.24.74.23.93a1.07,1.07,0,0,0,1.28-.44,3.09,3.09,0,0,0,.14-2.54,2.9,2.9,0,0,0-.28-.78c-.2-.34-.37-.67-1-.58a1.54,1.54,0,0,1-1.11-.5.9.9,0,0,1-.08-1.25,2.58,2.58,0,0,0,.82.54c.15,0,.37-.3.65-.54-1.24-.39-1.42-.62-1.38-1.58a1,1,0,0,0,.35.19,2.08,2.08,0,0,0,.48-.11c0-.18,0-.41-.14-.51a7.58,7.58,0,0,0-.88-.6c-1-.66-1.12-1.73-.3-2.36a4.28,4.28,0,0,1,1.17-.43,4,4,0,0,0-.44,1c-.07.49.32.74.78.59A1,1,0,0,0,33,47.66a15.7,15.7,0,0,1-.42-2,1.88,1.88,0,0,1,.65-1.6,4.16,4.16,0,0,0,.51-.52c.53-.75.37-1.17-.53-1.39.58-.56,1.06-.23,1.52.16a1.49,1.49,0,0,0-.47-1.87c.85-.1,1.23.16,1.44,1.06A4,4,0,0,1,38,40.07a1,1,0,0,0,.74-1.47c.8.13.83.47.79,1.12.72-.52.84-1,.41-2,.74,0,1.07.53,1.37,1.07a10.91,10.91,0,0,1,1.35-1,4.3,4.3,0,0,1,2.87-.34c1.26.17,2.52.42,3.79.52a2.67,2.67,0,0,0,2.42-.78,1.12,1.12,0,0,0-.51-1.83c-.38-.1-1,.34-.93.7,0,.17.23.44.34.43a2.94,2.94,0,0,0,.82-.31c-.15.28-.22.65-.44.8a1.14,1.14,0,0,1-1.34-.41,1.84,1.84,0,0,1,.19-2.13,2,2,0,0,1,2-.66c1.63.48,2,1.78,1.8,3.16a4.45,4.45,0,0,1-.21.75c.9-.35,1.14-.9,1-2.11,1,.45,1.31,1.22.8,2.52.5-.15.93-.33,1-.87a1.88,1.88,0,0,0-.75-2,1.67,1.67,0,0,1,1.86,1.44,2.83,2.83,0,0,1-2,3s-.07.09-.11.14a2.52,2.52,0,0,0,2.46-.89l.16,1c.63,0,1.39-.08,1.7.7a4.14,4.14,0,0,1,.19,1.57c0,.18-.34.46-.57.51a2.66,2.66,0,0,1-.92-.17c.13-.17.15-.22.17-.23.2,0,.4-.05.6-.1,0,0,0-.27,0-.31-.21-.15-.45-.36-.66-.35a2.73,2.73,0,0,0-.67.23,16.46,16.46,0,0,0,1.14,1.47,4.47,4.47,0,0,1,1.12,2.51c.27,1.77-.31,3.42-.47,5.2l.66-.71a1.17,1.17,0,0,1-.43,1.32c-.31.26-.26.52.1.6a11.43,11.43,0,0,0,1.93.32c1,0,1.26.32,1,1.33-.11.37-.27.74-.42,1.15,1.56,1.74,1.24,3.7.54,5.71a5.86,5.86,0,0,0-.3,1.44,1.4,1.4,0,0,1-1.12,1.27,3.14,3.14,0,0,0-1.53.89,3.23,3.23,0,0,1-2.93,1l-.44,1.89c.94.24,1.84.44,2.73.71a4,4,0,0,1,1.23.59,1.35,1.35,0,0,0,1.32.25,10.29,10.29,0,0,1,5.34-.08.57.57,0,0,0,.46-.08,6,6,0,0,1,4-2.39c1.06-.19,2.12-.35,3.18-.47a1.1,1.1,0,0,0,1-1,3,3,0,0,1,1.12-2,4,4,0,0,0,.73-.93,1.59,1.59,0,0,1,1.53-.7,12.47,12.47,0,0,0,.78-4.83,6.65,6.65,0,0,0-2.37-4.71,27.59,27.59,0,0,0-6.37-3.74l-2.48-1.24c-2.36,6.79-4.2,13.76-7.33,20.28.3-.85.62-1.7.91-2.55,1.18-3.44,2.36-6.88,3.51-10.33.79-2.39,1.52-4.8,2.32-7.19a1.28,1.28,0,0,0-.3-1.24,6.06,6.06,0,0,1-1.27-2.53,2.61,2.61,0,0,1,1.7-3,1.84,1.84,0,0,1,1.74.57,1.49,1.49,0,0,1,0,1.59,2,2,0,0,1-1,.46.91.91,0,0,1-.69-.4.67.67,0,0,1,.16-.66c.2-.13.53-.06.83-.08.07-.45-.17-.76-.75-.78a1.36,1.36,0,0,0-1.39,1.15,2.92,2.92,0,0,0,1.06,2.86,4,4,0,0,1,1.34,1.2c.34.56,1.24.82,1.93,1.12,2.11.92,4.28,1.72,6.35,2.71A7.21,7.21,0,0,1,82,55.14a13.61,13.61,0,0,1-.51,5.45,6.15,6.15,0,0,0,0,1.42c.7.19,1.31.37,1.92.5a1.19,1.19,0,0,0,.56-.14l5.87-2.14c.26-.1.35-.21.16-.5a1.21,1.21,0,0,1,.62-1.8,3.24,3.24,0,0,1,1.1-.24c1.89,0,3.77,0,5.6,0-1.08,1-2.14,2.06-3.29,3a7.21,7.21,0,0,1-2,1.16c-1,.41-1.65,0-1.78-1.29l-2.61.95L84,62.81c-.26.09-.49.17-.51.54a3.11,3.11,0,0,1-.29.84,3.23,3.23,0,0,0-.2,2.3,3.2,3.2,0,0,1-.71,2.89,7.88,7.88,0,0,1,2,3.85,9.32,9.32,0,0,1-.56,5.62A23.83,23.83,0,0,1,80.33,84a12.92,12.92,0,0,0-2.86,5.9,8.57,8.57,0,0,0,0,1.14c.66,0,.88.37.87,1,0,.86,1.33,1.59,2.3,1.3a1.36,1.36,0,0,0,.93-1.8,1.65,1.65,0,0,1-.39.4.66.66,0,0,1-1-.18,1,1,0,0,1,.37-1.18c.79-.42,1.59.14,1.67,1.16a2.22,2.22,0,0,1-2.58,2.53,4.4,4.4,0,0,1-2.25-1.14c-1.56-1.08-2.31-2.75-3.46-4.11s-2.17-2.85-3.24-4.29C68.77,82.2,66.86,79.65,65,77c4.16,4.47,7.4,9.69,11.47,14.35-.06-.71-.11-1.35-.15-2a9.74,9.74,0,0,1,2-6.62c.83-1.12,1.65-2.25,2.43-3.41a6.38,6.38,0,0,0-.06-7.47s0,0,0,0c-.32-.5-.54-1.18-1-1.45A4.28,4.28,0,0,0,78,70.24a4,4,0,0,0-1.47,0,5.61,5.61,0,0,0-1.48,1c-.81.66-1.57,1.38-2.39,2a4.22,4.22,0,0,1-3.09.93,4.27,4.27,0,0,0-3.2,1.07,5,5,0,0,1-4.15,1,2.66,2.66,0,0,0-.4,0,7,7,0,0,1-1.47,2.9A1.82,1.82,0,0,0,60,80.41a12.7,12.7,0,0,1-.86,6,11.27,11.27,0,0,1-3.25,4.7,9.25,9.25,0,0,1-5.2,2.33c-.48,0-1,.07-1.08.7a.32.32,0,0,1-.12.2c-1,.62-.93,1.69-1.11,2.67A10.35,10.35,0,0,1,46,102.31a3.16,3.16,0,0,1-3.09,1.06.78.78,0,0,0-.41.14,7.1,7.1,0,0,1-4.37.7c-2.23-.27-4.11-1.42-6.06-2.42a10.74,10.74,0,0,0-1.19-.56c-.8-.29-1.31,0-1.39.92-.05.54-.08,1.08-.12,1.62s-.38,1-.88.85c-.28-.09-.49-.38-.76-.62a2,2,0,0,1-1.82-.55c-.44.29-.82.14-.9-.35a9.48,9.48,0,0,1-.13-4A1.78,1.78,0,0,1,25.7,98a2.35,2.35,0,0,0,1.49-2,2.21,2.21,0,0,1,2.55-1.87,2.13,2.13,0,0,1,2,2A6.19,6.19,0,0,1,36.51,96c-.09-1-.47-1.31-1.37-1.32a9.23,9.23,0,0,1-4.83-1.72,3.32,3.32,0,0,0-1.57-.51,1.63,1.63,0,0,1-1.21-.62c-.82-1.57-2.37-2.07-3.79-2.75a5.14,5.14,0,0,0-2.9-.62c-2.23.3-4.35-.36-6.49-.78-.5-.1-.72,0-.94.4-.3.61-.83.84-1.25.65s-.68-.66-.46-1.36.43-1.34.64-2a2.68,2.68,0,0,1,3.59-1.75,2.55,2.55,0,0,0,2.7-.55c.35-.26.69-.55,1.05-.8a2,2,0,0,1,3.25,1.33.51.51,0,0,0,.65.47c1-.17,2.07-.39,3.12-.52a10.62,10.62,0,0,1,2.63-.17,2.93,2.93,0,0,1,2.38,2c.23.53.52.69,1,.42a1.13,1.13,0,0,1,.61-.2c.71.11.87-.26,1.06-.86a4.78,4.78,0,0,1,2.2-3,1.56,1.56,0,0,0,.25-.22l-1.59-1.81c-.57.13-.7.76-.94,1.29-.4.91-.39.92-1.11.26L33,81.07a16.56,16.56,0,0,1-.56,1.64c-.08.2-.37.44-.54.42s-.42-.31-.45-.51c-.1-.7-.11-1.4-.16-2.17-.31.37-.61.76-.94,1.11a5.05,5.05,0,0,1-.95.9c-.49.29-.9,0-.86-.53.05-.76.18-1.51.27-2.16l-2.38,1.32c-.08,0-.2,0-.32,0-.06-2.27,1.35-3.47,3.08-4.47a3.4,3.4,0,0,0-2.12,1c-.62.54-1.23,1.1-1.87,1.62a2.72,2.72,0,0,1-2.06.5l.13-1.51a13.91,13.91,0,0,1-1.5,1.12,1.33,1.33,0,0,1-1.66-.18L21,77.7l-.13-.1c-.79.55-1.43,1.49-2.68,1.1l1.41-2.38-.11-.12c-.45.3-.89.6-1.35.89a10,10,0,0,1-3.55,1.63,3,3,0,0,1-2.66-.92,9.06,9.06,0,0,0,3.62-3.31,26.81,26.81,0,0,1-2.77.12c-1.06-.06-2.2,0-2.94-1.17.81-.74,2-.08,2.86-.66-.89-.12-1.72-.21-2.55-.34A2.71,2.71,0,0,1,8,70.9l3-.44c-1.94-.2-4,0-5.06-2.32,1.23-.6,2.48.23,3.79-.29-2.36-.39-4.61-.7-5.88-3l4.94.53.05-.21c-.77-.29-1.54-.57-2.29-.88A14.84,14.84,0,0,1,1.2,60.87,16,16,0,0,1,0,59.26Z"/><path class="cls-1" d="M57.13,101.31c.55-1.06.18-2,0-3a3.85,3.85,0,0,1,.24-2.46,1.86,1.86,0,0,1,2-1.08c.88.18,1.28.7,1.39,1.82h.83a1.52,1.52,0,0,1,1.54.91,1.89,1.89,0,0,1-.71,2A10.48,10.48,0,0,1,59,100.86C58.4,101,57.83,101.14,57.13,101.31Z"/><path class="cls-1" d="M70.27,94.8a5,5,0,0,1,1.54-.14,1.24,1.24,0,0,1,.57,2.16,8.65,8.65,0,0,1-1.69,1.11,9.65,9.65,0,0,1-1.13.52c-.5-.73-1-1.44-1.46-2.15a1.46,1.46,0,0,1,0-1.69,1,1,0,0,1,1.22-.43A3.82,3.82,0,0,1,70.27,94.8Z"/><path class="cls-1" d="M95,.1a2.05,2.05,0,0,0,.75.8l-1.82.94a2.61,2.61,0,0,0-.26-.56,2.38,2.38,0,0,0-.37-.51,2.65,2.65,0,0,0-.7-.52,2.08,2.08,0,0,0-.9-.21,2.22,2.22,0,0,0-1.58.7,2.55,2.55,0,0,0-.26.3A2.35,2.35,0,0,0,89,.26a2,2,0,0,0-1-.26,2.25,2.25,0,0,0-1,.26,2.87,2.87,0,0,0-.72.55,3.19,3.19,0,0,0-.39.5,3.08,3.08,0,0,0-.37.95,2.22,2.22,0,0,0-.06.51,3,3,0,0,0,.42,1.51,5.86,5.86,0,0,0,.78,1.09l.09.11-1.36.7-1.06-.69-.26.14,1.06.68-.26.14-1.06-.69-.27.14,1.06.68-.26.14L83.3,6,83,6.17l1.06.68L83.83,7l.12.23.27-.14-.07,1.27.27-.14L84.48,7l.26-.14-.06,1.27.26-.14L85,6.68l.26-.14-.06,1.27.26-.14.06-1.26L87,5.68l.31.32c.16.16.34.32.52.48a13.74,13.74,0,0,0,1.08.88l.36.27a1,1,0,0,0,.54.16h.08a.84.84,0,0,0,.45-.16l.18-.12c.31-.23.78-.59,1.28-1L92.26,6l.59-.63a6.88,6.88,0,0,0,.78-1.11A3,3,0,0,0,94,2.73a4,4,0,0,0-.06-.5l0-.14,1.87-1A2.34,2.34,0,0,0,96,2.21,3.76,3.76,0,0,1,96.77.5,3.49,3.49,0,0,1,95,.1Zm-1.7,4a6.33,6.33,0,0,1-.73,1c-.18.2-.37.41-.57.6l-.49.46c-.47.42-.93.77-1.25,1L90,7.28a.57.57,0,0,1-.24.08.5.5,0,0,1-.32-.08c-.1-.07-.23-.16-.36-.27-.3-.22-.67-.51-1.05-.85l-.51-.47c-.19-.19-.38-.39-.56-.6a6.12,6.12,0,0,1-.72-1,2.57,2.57,0,0,1-.37-1.29,3,3,0,0,1,0-.43,2.41,2.41,0,0,1,.32-.81,2.88,2.88,0,0,1,.33-.43,2.39,2.39,0,0,1,.61-.46,1.57,1.57,0,0,1,1.58,0,2.23,2.23,0,0,1,.93,1.21v0s0,0,.05,0a3.33,3.33,0,0,1,.59-.81,1.65,1.65,0,0,1,2-.41,2,2,0,0,1,.57.43,2.29,2.29,0,0,1,.32.43,2.62,2.62,0,0,1,.31.81,3.13,3.13,0,0,1,0,.44A2.49,2.49,0,0,1,93.25,4.05Z"/><path class="cls-1" d="M93.56,2.31a2.62,2.62,0,0,0-.31-.81,2.29,2.29,0,0,0-.32-.43,2,2,0,0,0-.57-.43,1.65,1.65,0,0,0-2,.41,3.33,3.33,0,0,0-.59.81s0,0-.05,0v0A2.23,2.23,0,0,0,88.8.64a1.57,1.57,0,0,0-1.58,0,2.39,2.39,0,0,0-.61.46,2.88,2.88,0,0,0-.33.43,2.41,2.41,0,0,0-.32.81,3,3,0,0,0,0,.43,2.57,2.57,0,0,0,.37,1.29,6.12,6.12,0,0,0,.72,1c.18.21.37.41.56.6l.51.47c.38.34.75.63,1.05.85.13.11.26.2.36.27a.5.5,0,0,0,.32.08A.57.57,0,0,0,90,7.28l.17-.12c.32-.24.78-.59,1.25-1L92,5.69c.2-.19.39-.4.57-.6a6.33,6.33,0,0,0,.73-1,2.49,2.49,0,0,0,.35-1.3A3.13,3.13,0,0,0,93.56,2.31Z"/></g></g></svg>