<svg xmlns="http://www.w3.org/2000/svg" viewBox="0 0 90.21 105.96"><defs><style>.cls-1{fill:#fff;}</style></defs><g id="Layer_2" data-name="Layer 2"><g id="Layer_1-2" data-name="Layer 1"><path class="cls-1" d="M82.16,55.19c-.53,1-.52,1-1.49.8q-7.08-1.27-14.17-2.51c-1.29-.22-2.59-.41-4-.63.27,1.08.48,2.08.78,3.06a1.67,1.67,0,0,1-.26,1.57c-.81,1.25-.76,1.23.35,2.22a11,11,0,0,1,1.73,1.95c1.25,1.84,2.37,3.76,3.64,5.58,1.06,1.53.14,2.26-1.19,2.45-1.16.18-2.33.29-3.5.38-.46,0-.69.18-.66.67a12.19,12.19,0,0,0,.1,1.82,2.92,2.92,0,0,0,2.19,2.58c.77.18,1.49.56,2.25.81a2.27,2.27,0,0,1,1.38,1.28,24,24,0,0,1,1.76,6.72c.24,1.59.45,3.19.76,4.77A9.86,9.86,0,0,0,74,93.27a4,4,0,0,1,.26.4c.41-1.38.78-2.64,1.13-3.9a.52.52,0,0,0-.11-.39,1.53,1.53,0,0,1-.18-1.54c.22-.61.41-1.24.62-1.85a1.34,1.34,0,0,1,1.7-1,25.67,25.67,0,0,1,7.19,2.39,1.35,1.35,0,0,1,.75,1.85c-.19.55-.39,1.11-.55,1.67a1.79,1.79,0,0,1-1,1.24c-.18.08-.3.37-.37.6a14.73,14.73,0,0,1-2.78,5.37A9.58,9.58,0,0,1,79,99.64a3.25,3.25,0,0,1-2.5.53c-4.91-.66-7.34-3.87-8-8.28a24.27,24.27,0,0,1,.16-8.5,6.14,6.14,0,0,0-.57-4.45,3.59,3.59,0,0,0-1-1.12c-.87-.61-1.8-1.13-2.84-1.77-.44.93-.88,1.76-1.22,2.64a1.71,1.71,0,0,0,0,1c.21.75.49,1.48.72,2.22a3,3,0,0,1,.15.79,4.67,4.67,0,0,1-3.59,4.12,20.52,20.52,0,0,1-10-1.46c-.65-.25-1.08-.22-1.47.38s-.71,1-1.07,1.48l.13.18,2.81.22c-.15.31-.25.55-.37.78-.86,1.66-1.73,3.31-2.57,5-.08.17-.08.55,0,.63,1.76,1.3,2.68,3.25,3.87,5s2.34,3.53,3.5,5.3a3.38,3.38,0,0,1,.19.33c-1.2.12-2.33.24-3.47.34-3.58.32-7.17.7-10.76.94a25.48,25.48,0,0,1-10.35-1.7A100.92,100.92,0,0,0,16.11,100a21.87,21.87,0,0,0-6.94-.48A6.91,6.91,0,0,0,5,101.64,18,18,0,0,1,2.27,104a9.48,9.48,0,0,1-2.15.78L0,104.59A6,6,0,0,1,.28,104C3.14,99.31,6,94.57,8.9,89.91a46.43,46.43,0,0,1,3.65-4.56c2.57-3.09,5.18-6.15,7.76-9.24.72-.87,1.38-1.78,2.1-2.72l.61.3c.09-.37.2-.7.25-1s.06-.76.13-1.13a5.29,5.29,0,0,0-.92-4.31,10.31,10.31,0,0,1-.87-2l-.7.33A31.12,31.12,0,0,0,13.6,71c-.93.91-1.92,1.75-2.83,2.68a2.08,2.08,0,0,1-2,.63c0-.06,0-.13,0-.16C10.76,72.11,12.63,70,14.67,68c1.46-1.4,3.13-2.57,4.72-3.83.24-.19.46-.31.38-.69-.68-3-.56-6.12-.76-9.19-.13-2-.39-4-.57-5.94a1.68,1.68,0,0,1,.15-.89,14.93,14.93,0,0,1,4.32-5.4.92.92,0,0,0,.28-.51,4,4,0,0,1,2.22-3,.78.78,0,0,0,.34-.33,5.34,5.34,0,0,1,4.39-3.5,11.75,11.75,0,0,0,3-.92,5.13,5.13,0,0,1,4.83-.28,1.28,1.28,0,0,0,.79-.05,4.84,4.84,0,0,1,3.84.07,1.54,1.54,0,0,0,.74,0l4.82-.32a1.67,1.67,0,0,1,.49.08c1.71.4,3.43.8,5.14,1.22a1,1,0,0,1,.56.32c2.35,3.79,5,7.41,6.91,11.46.65,1.38,1.19,2.82,1.7,4.25a1,1,0,0,0,.87.73q7.86,1.56,15.71,3.14C80.39,54.68,81.26,55,82.16,55.19ZM30.6,35.13a4.94,4.94,0,0,0-4.25,3.1l3.19-1.59a.4.4,0,0,0,.16-.18Zm6.73-1.34a6,6,0,0,0-4.48.58A7.56,7.56,0,0,0,37.33,33.79Z"/><path class="cls-1" d="M86,3.69a.56.56,0,0,0,.31.21A.71.71,0,0,0,87,3.71a.51.51,0,0,0,.14-.65A1.64,1.64,0,0,0,87,2.84.94.94,0,0,1,86.85,2a1.25,1.25,0,0,1,.85-.89.94.94,0,0,1,1,.3,1.74,1.74,0,0,1,.42,1.15,1.68,1.68,0,0,1-.4,1.11,5.36,5.36,0,0,1-.72.71,2.24,2.24,0,0,0-.86,1.1,8.1,8.1,0,0,0-.23.88,1.48,1.48,0,0,0,.2,1.12l.1.18A.6.6,0,0,0,88,8a.54.54,0,0,0,.46-.66,1,1,0,0,0-.08-.29,1.79,1.79,0,0,1-.12-.72,1.13,1.13,0,0,1,.33-.83c.22-.22.45-.44.69-.64a2.22,2.22,0,0,0,.74-1,4.4,4.4,0,0,0,.24-1.23,3.39,3.39,0,0,0-.44-1.6,1.53,1.53,0,0,0-.48-.53,4,4,0,0,0-.52-.31,2.22,2.22,0,0,0-1.66-.1,2.64,2.64,0,0,0-.88.56,1.84,1.84,0,0,0-.58,1,3,3,0,0,0,0,1.24A1.7,1.7,0,0,0,86,3.69Z"/><path class="cls-1" d="M87,9.45a.55.55,0,0,0,.54.55.63.63,0,0,0,.61-.59.54.54,0,0,0-.55-.56A.61.61,0,0,0,87,9.45Z"/></g></g></svg>