<svg xmlns="http://www.w3.org/2000/svg" viewBox="0 0 84.86 108.76"><defs><style>.cls-1{fill:#fff;}</style></defs><g id="Layer_2" data-name="Layer 2"><g id="Layer_1-2" data-name="Layer 1"><path class="cls-1" d="M50.06,94.87c.79-.39,1.29-.93,1-1.85a2.58,2.58,0,0,0-2.52-1.16,2.27,2.27,0,0,0-2,1.48,2.33,2.33,0,0,0,.67,2.51c.29.28.73.43,1,.74a2.06,2.06,0,0,1,.28,1c-.83.37-1,1.31-1.59,1.82-.93.78-.86,1.74.31,2.45.06-.31,0-.68.2-.85a5.68,5.68,0,0,1,1.1-.73c.22.36.69.8.61,1.07a2.57,2.57,0,0,1-1,1.49,2.39,2.39,0,0,1-1.67-.28,3.06,3.06,0,0,1-.86-.79l-3.8,1a4.35,4.35,0,0,1,1.23.31,10.08,10.08,0,0,1,1.38,1.1,5.29,5.29,0,0,1-1.67.29,23.47,23.47,0,0,1-2.89-.88l2,1.68c-1.08.49-1.92-.15-4.18-3.16a8.24,8.24,0,0,1,.13,1.36c-.09,1.52-.19,3-.36,4.53,0,.27-.4.5-.61.75-.24-.25-.67-.49-.7-.76-.15-1.67-.21-3.35-.3-5a4.71,4.71,0,0,1,.08-.5s-.06-.1-.14-.23c-.94,1.5-1.91,2.94-3.68,3.38l-.28-.32,1.78-1.54,0-.1c-.59.21-1.17.44-1.76.62a4.62,4.62,0,0,1-1.39.3,3.79,3.79,0,0,1-1.15-.41c.27-.3.49-.73.83-.88a12.31,12.31,0,0,1,1.9-.54l-3.74-.82a7.07,7.07,0,0,1-.69.64,1.62,1.62,0,0,1-2.73-.95c-.08-.39.29-.85.46-1.29a4.91,4.91,0,0,1,1.17.58c.22.18.23.59.34.9a1.32,1.32,0,0,0,.39-2.31,5.62,5.62,0,0,1-.69-1,1.41,1.41,0,0,0-.39-.38c-1-.57-1.06-1-.07-1.73a2.8,2.8,0,0,0,1.41-2.12A2.12,2.12,0,0,0,25.93,92a3.14,3.14,0,0,0-3,.63c-.55.74-.28,1.55.69,2.5-.44-.08-1.06,0-1.29-.27a5.5,5.5,0,0,1-.64-1.64,2.06,2.06,0,0,1-2.47-.16,5.41,5.41,0,0,1-1.4-2,1.9,1.9,0,0,1,.57-1.56,1.42,1.42,0,0,1,1.35.06c.41.28.59.88.87,1.34l-.32.17c-.11-.22-.18-.53-.36-.64A5.71,5.71,0,0,0,18.8,90c-.07.4-.32.95-.15,1.16a2,2,0,0,0,1.31.69,13.53,13.53,0,0,0,2.56-.64c-1.78-.55-1.44-1.6-1.16-2.64.35-1.26.68-2.53.95-3.83-1,2-2.82,2.19-4.72,2.06a1.36,1.36,0,0,1-.93-.35,6,6,0,0,1-.61-1.34c.27-.12.71-.4.79-.32a3.08,3.08,0,0,1,.7,1.25c1,.36,1.2.17,1-.87-.09-.51-.13-1-.2-1.68l.82,0a7.46,7.46,0,0,0,1.41.08c.92-.12,1.36-1,.73-1.61a6.3,6.3,0,0,0-2.44-1.45c-.76-.26-.94.41-.79,1.09-1-.45-1-.65-.57-1.23a17.79,17.79,0,0,1-1.76-2.14,1.27,1.27,0,0,1,.38-1.19,1.64,1.64,0,0,1,1.37.2c.3.19.38.73.56,1.12l-.27.1a.34.34,0,0,1-.16-.08,7.7,7.7,0,0,0-.62-1s-.41.2-.62.31c.21.35.35.82.66,1a23.91,23.91,0,0,0,2.32,1.11c-.91-4.63-5.76-8.13-10.58-8.4,1.25-1.18,3.32-1.34,7.26-.46l-3.15-4.3,2.44.77a18.39,18.39,0,0,0-1-1.85c-.68-1-1.41-2-2.15-3a7.44,7.44,0,0,1-1-7.78l.18-.47a1.05,1.05,0,0,0,0-.19,1.89,1.89,0,0,1-2.33-.86,8.29,8.29,0,0,1-2-5.34,2.2,2.2,0,0,0-1.27-2.24c-1.55-.73-3.17-1.32-4.77-1.95A8.2,8.2,0,0,0,0,43.59c.3-.94.87-1.18,2.09-.79a15.36,15.36,0,0,0,2.56.81A11.66,11.66,0,0,1,3.1,42.19a3.78,3.78,0,0,1-.31-1.36c.46.08,1,0,1.34.26.92.83,1.73,1.79,2.69,2.81l-.93-2.7c1.49.31,1.45,1.66,2.06,2.85,1-2.61,2.81-3.44,5.31-2.79-.11-1.36-.25-2.6-.28-3.84a5.27,5.27,0,0,1,5.1-5.29c.58,0,1.16,0,1.73-.06A2.39,2.39,0,0,0,22,29.46a2.18,2.18,0,0,0-2.46-1.91c-1.53.11-2,1.28-1.09,2.68-1.25.17-1.51-.4-1-2.13a2.6,2.6,0,0,1-2.69-3.58c.25-.64.69-1.2,1.46-.91s1,1.11.7,2.05l-.2-.25c-.25-.38-.49-.76-.74-1.13-.22.26-.6.49-.65.79a1,1,0,0,0,.82,1.3,13.57,13.57,0,0,0,1.43.05,13.63,13.63,0,0,1,2.72.23,8.09,8.09,0,0,1,1.93,1.09c.06-.63.15-1.37.19-2.11a.59.59,0,0,0-.21-.4c-.72-.65-.39-1.23.15-1.72.2-.19.58-.19.87-.27a5.65,5.65,0,0,1-.07,1c0,.13-.22.22-.52.49.85.11,1.42.05,1.74-.65a11.56,11.56,0,0,1,.71-1.69,1.07,1.07,0,0,1,1-.29,1.89,1.89,0,0,0,2.09-.34A2.57,2.57,0,0,0,28.7,20a1.55,1.55,0,0,0-1.18-1c-.48,0-1,.55-1.57.95-.46-.66.36-1,.8-1.37A1.92,1.92,0,0,1,27,15.5c.32-.22.85-.13,1.28-.18l.06,1.29h-.3V15.43c-.49.33-1,.48-1.07.76a1.4,1.4,0,0,0,.26,1.06,11.11,11.11,0,0,0,1.12,1c.33.32.62.69,1,1.1.34-1,.62-1.93,1-2.83.8-2,1.62-2.2,3.2-.77.14.13.3.24.45.36l.26-.2c-.22-.28-.38-.7-.66-.82-1.55-.65-3.14-1.24-4.72-1.85-.3-.11-.62-.18-.95-.28.66-1.27.92-1.25,4.46.24l.28-.28a5.55,5.55,0,0,1-.88-.53,2.34,2.34,0,0,1-.75-.82,6.13,6.13,0,0,1-.26-1.38c.43.08,1,0,1.27.27.94.85,1.78,1.82,2.72,2.81l-.9-2.65.36-.24,1.34,1.64c.08-.72.13-1.44.26-2.14a10,10,0,0,1,.5-1.86c.09-.24.41-.56.63-.55a.89.89,0,0,1,.61.57c.26,1.14.44,2.31.64,3.47a4.25,4.25,0,0,1,0,.74l1.39-1.88.46.24-1,2.61.15.07c.51-.65,1-1.33,1.56-1.95a6.05,6.05,0,0,1,1.34-1.08c.24-.15.61-.06.93-.09,0,.35.16.79,0,1-.53.74-1.17,1.39-1.82,2.14.87-.38,1.65-.8,2.48-1.07s1.74-.51,2.27.71c-2.34.74-4.82,1.06-6.58,2.86l.17.31.88-.73c1.13-.92,2-.78,2.57.57.48,1.11.82,2.29,1.09,3l2.46-1.9c.1-.08.23-.25.21-.33a3.51,3.51,0,0,0-.42-1.06c-.07-.11-.42,0-.64,0l.06,1.07c-.46-.37-1-.89-.34-1.42.23-.21,1.11,0,1.46.3A1.77,1.77,0,0,1,47,18.52c1,.89,1,.89.55,1.67-.25-.86-.7-1.51-1.65-1.16A1.47,1.47,0,0,0,45,20.85a2,2,0,0,0,2.12,1.4c.27,0,.53-.24.78-.21s.74.16.87.39c.31.53.38,1.21.73,1.69A4.62,4.62,0,0,0,50.8,25c.11-.32.16-.39.14-.43-.15-.43-.31-.85-.47-1.27.3,0,.67,0,.89.11a1.16,1.16,0,0,1,.43,1.6,1.12,1.12,0,0,1-.42.35V28c1.45-1.9,3.46-1.57,5.38-1.64a2.42,2.42,0,0,0,1.46-.6c.2-.19.06-.82-.06-1.21,0-.14-.6-.3-.65-.25a6,6,0,0,0-.52,1,2.72,2.72,0,0,0,0,.3l-.3,0a5.6,5.6,0,0,1,.27-1.56c.13-.27.77-.57,1-.46A2.16,2.16,0,0,1,59,24.67a2.6,2.6,0,0,1-2.69,3.47c.48,1.72.23,2.24-1.05,2.08.6-.72.82-1.61.07-2.15a3.13,3.13,0,0,0-2.15-.35,1.78,1.78,0,0,0-1.45,1.85A2.35,2.35,0,0,0,54,32.08c.2,0,.41,0,.61,0,4.73-.21,6.73,3.38,6,7.47-.08.5-.18,1-.32,1.68,2.34-.55,4,.17,5,2.34.65-.86.52-2.16,2.05-2.62l-1,2.84.12.08c.44-.55.85-1.14,1.33-1.66a7.63,7.63,0,0,1,1.44-1.28c.28-.18.73-.1,1.1-.14,0,.41,0,.91-.16,1.2a19.27,19.27,0,0,1-1.69,1.87c1-.4,1.71-.79,2.51-1s1.66-.45,2.28.69a26.67,26.67,0,0,0-2.58.76A25.5,25.5,0,0,0,67,46a2,2,0,0,0-.7,1.51,8.64,8.64,0,0,1-1.87,5.68,10.78,10.78,0,0,1-1.9,1.49l-.24-.19c.15.47.3.94.44,1.41a7,7,0,0,1-1.1,6.47c-.85,1.19-1.71,2.37-2.53,3.57-.29.44-.49.94-.82,1.58l2.16-.74.12.15-2.81,3.85.1.24a8.19,8.19,0,0,1,7.22.42c-5.84.61-9.54,3.66-11.29,9.19.83-.33,1.7-.62,2.51-1,.28-.15.41-.61.56-1,0,0-.45-.37-.5-.33a4.74,4.74,0,0,0-.76.79c-.06.06,0,.19,0,.28l-.29,0c.06-.32,0-.8.22-.92A3.1,3.1,0,0,1,57,78c.2,0,.59.67.55,1a2.35,2.35,0,0,1-2.14,2c.53.93.53,1-.37,1.53,0-1.16-.44-1.48-1.55-1.07a4.79,4.79,0,0,0-1.77,1.11c-.71.75-.34,1.62.69,1.74a16.32,16.32,0,0,0,2.1,0c-.1.6-.15,1.12-.27,1.62-.27,1.07-.15,1.21,1.08,1.11,0-.19-.15-.43-.08-.56a2,2,0,0,1,.69-.76c.16-.09.66.06.69.18.09.33.13.87,0,1a4.13,4.13,0,0,1-1.61.73,4.31,4.31,0,0,1-1.5-.13c-.46-.09-.91-.25-1.42-.39-.28,1.33,1.61,2.92-.75,4.14a27.3,27.3,0,0,0,2.8.63A1,1,0,0,0,55,91.4,3.7,3.7,0,0,0,54.92,90a8.27,8.27,0,0,0-1.15.49c-.14.07-.19.32-.28.49l-.31-.18a4.71,4.71,0,0,1,.91-1.35,1.33,1.33,0,0,1,1.27,0,2.09,2.09,0,0,1,.6,1.47c-.11,1.86-2,2.9-4,2.31C51.69,95.14,51.32,95.46,50.06,94.87ZM17.47,58.24a48.93,48.93,0,0,0,2.23,15c1.7,5.21,4.16,10,8.44,13.56a12.69,12.69,0,0,0,16.23.64,23.48,23.48,0,0,0,7.79-10.26A47.7,47.7,0,0,0,53.64,43.9a28.34,28.34,0,0,0-7.45-12.67c-5-4.76-11.31-5.46-16.74-1.81a22,22,0,0,0-7,8A44.44,44.44,0,0,0,17.47,58.24ZM12.3,52.87c2.58-3.15,3.18-7.07,1.4-9.65.07,2.07-.32,2.59-1.53,2,1.06-.92,1.1-2.2.09-2.78a2.26,2.26,0,0,0-3.41,1.87,2.92,2.92,0,0,0,1.49,2.81c1,.66,1.06,1.14.15,1.94a1.36,1.36,0,0,0-.27.43,5.71,5.71,0,0,1-.47,1.13,1.55,1.55,0,0,0,.3,2.37l1.37-1.7Zm47.27-8.61c-1.19,2.85-.39,6.57,1.53,8.08L62,51.29l1.4,1.86c.16-.44.6-1,.53-1.55a5.64,5.64,0,0,0-.89-2.41c-.93-1.32-1-1.27.31-2.29a2.73,2.73,0,0,0,.24-4.32,2,2,0,0,0-2.48-.08,2.36,2.36,0,0,0-.66,1.64c0,.39.45.8.72,1.24C60.26,45.7,59.82,45.22,59.57,44.26ZM39,20.23c-.34-1.39-.58-2.68-1-3.92a1.5,1.5,0,0,0-1.07-.9,1.54,1.54,0,0,0-1.07.89,9.58,9.58,0,0,0,0,7.88c.5,1.13,1.55,1.15,2,0A33.89,33.89,0,0,0,39,20.23Zm4.93,77.9a7.28,7.28,0,0,1-2.09,1,6.41,6.41,0,0,1-2.09-.48l-.86,3.08a11.8,11.8,0,0,0,5.9-.89ZM29.84,98l-.94,2.91c1.94.53,3.82,1.25,5.81.67l-.86-3.16C32.41,99.67,31.08,99.32,29.84,98Z"/><path class="cls-1" d="M51.64,41.18c-1-1.58-1.86-3.23-2.91-4.79a17.6,17.6,0,0,0-6.67-6.15c-4.76-2.37-9.21-1.44-13.4,1.52a4,4,0,0,1-.83.52,11.82,11.82,0,0,1,6.55-3.85c4.1-.77,7.54.8,10.65,3.25a22.06,22.06,0,0,1,6.63,9.37C51.68,41.1,51.64,41.17,51.64,41.18Z"/><path class="cls-1" d="M45.52,85c-2.87,2.67-6.14,4.11-10.06,3.61-4.8-.62-8.13-3.49-10.77-7.32a12.65,12.65,0,0,1-1-1.68c1,1.24,2,2.52,3,3.7a13.81,13.81,0,0,0,7.39,4.62,12.87,12.87,0,0,0,10.48-2.45l.74-.53S45.4,85,45.52,85Z"/><path class="cls-1" d="M72.72,7a.47.47,0,0,0,.46.46H74V9.31h3.93A15.24,15.24,0,0,1,78.15,7a1.85,1.85,0,0,1,.11-.42,5.84,5.84,0,0,0-.68-1.22A3.43,3.43,0,0,1,77,3.18,3.43,3.43,0,0,1,78.26.76,3.36,3.36,0,0,0,76.37,0a3.41,3.41,0,0,0-3.65,3.32c0,1.93-1.06,1.82-1.06,1.82h1.06Z"/><path class="cls-1" d="M79.53,3.18A3.45,3.45,0,0,1,79,5.34a5.4,5.4,0,0,0-.69,1.21,2.17,2.17,0,0,1,.11.42,15.41,15.41,0,0,1,.23,2.35h3.93V7.43h.82A.45.45,0,0,0,83.8,7V5.16h1.06L83.8,3.34A3.42,3.42,0,0,0,80.16,0a3.47,3.47,0,0,0-1.9.75,3.38,3.38,0,0,1,1.27,2.43Z"/></g></g></svg>