<svg xmlns="http://www.w3.org/2000/svg" viewBox="0 0 86.73 113.96"><defs><style>.cls-1{fill:#fff;}</style></defs><g id="Layer_2" data-name="Layer 2"><g id="Layer_1-2" data-name="Layer 1"><path class="cls-1" d="M58.42,77.39c-.21.46-.34.81-.51,1.13-.26.48-.53,1-1.18.94s-.83-.55-1-1a14.7,14.7,0,0,1-.88-4.34c0-2.54,0-5.08,0-7.62l0-2.73c0-.21,0-.43,0-.7-.08.06-.14.08-.16.12a25.6,25.6,0,0,0-2.46,7.69c-.18,1.5,0,3-.19,4.54a22.22,22.22,0,0,0,.42,6.36c.28,1.53.85,3,1.11,4.53a63.65,63.65,0,0,0,2.14,7.67c.2.65.54,1.27.76,1.92.55,1.68,1.06,3.38,1.63,5.06.22.68.59,1.31.84,2,.7,1.81,1.34,3.65,2.07,5.45.37.89.9,1.71,1.35,2.56s.11,1.53-.8,1.88a20.8,20.8,0,0,1-6.3,1,31.59,31.59,0,0,1-3.36.15c-2.29-.12-4.57-.36-6.85-.55l-1.17-.09a1.16,1.16,0,0,1-1-.69,6.26,6.26,0,0,1-.64-2.3c-.11-1.21-.41-2.39-.55-3.6-.24-2-.4-4-.62-6a25.17,25.17,0,0,1-.39-3.2,34.17,34.17,0,0,0-.46-4.86,9.24,9.24,0,0,0-.34-1.74,5.42,5.42,0,0,0-.64-1.3c-.22-.34-.66-.28-.86.15a6.89,6.89,0,0,0-.68,1.76c-.3,1.86-.52,3.75-.74,5.63-.07.65,0,1.31-.06,2-.17,1.7-.38,3.4-.6,5.1-.26,2-.59,4-.8,6a6.5,6.5,0,0,1-.58,2.23,1.45,1.45,0,0,1-1.21.93c-1.55.12-3.1.26-4.65.35a60.26,60.26,0,0,1-9.87-.16,9.22,9.22,0,0,1-2.9-.62,3,3,0,0,1-.66-.41,1.09,1.09,0,0,1-.33-1.46c.93-2.1,1.87-4.2,2.77-6.31q1-2.31,1.86-4.65c.34-.9.45-1.89.85-2.76a60.85,60.85,0,0,0,2.26-6.67c.22-.67.25-1.4.49-2a35.53,35.53,0,0,0,1.66-6.39c.26-1.46.41-3,.55-4.43.06-.58-.09-1.18-.05-1.76a21,21,0,0,0-.19-5.26,30.3,30.3,0,0,0-.88-3.62c-.26-.84-.68-1.64-1-2.47-.16-.41-.28-.84-.43-1.25a1.78,1.78,0,0,0-.19-.36l-.12,0a4.13,4.13,0,0,0,0,.93,8,8,0,0,1,0,3,2.51,2.51,0,0,0,0,.39c0,2.18-.13,4.36-.1,6.54a9.62,9.62,0,0,1-.22,2.74,5.58,5.58,0,0,1-1.06,2.52c-.4.42-.74.47-1.17.07a5.82,5.82,0,0,1-.71-1,4.68,4.68,0,0,1-.24-.53c-.07.14-.12.2-.15.27a7.68,7.68,0,0,1-4.74,4.5,9.38,9.38,0,0,1-1.72.42,6.12,6.12,0,0,1-1.4-.12,7,7,0,0,1-.79-.2,7.11,7.11,0,0,1-5.28-5.82c0-.35-.15-.69-.24-1.14-.58.48-1.07.91-1.6,1.3s-1,.7-1.49,1a.43.43,0,0,1-.7-.29,4,4,0,0,1-.05-1.15,18.68,18.68,0,0,1,1.1-3.9c.21-.75.37-1.51.63-2.24.54-1.52,1.13-3,1.7-4.53a.91.91,0,0,0,0-.53l-.31.27c-.77.68-1.51,1.39-2.31,2a4.11,4.11,0,0,1-1.25.64.63.63,0,0,1-.87-.7A3.69,3.69,0,0,1,.27,66.5a27.53,27.53,0,0,1,1.46-3C2.82,61.71,4,60,5.15,58.2c.2-.32.34-.68.55-1.11L4.17,58.22a15.09,15.09,0,0,1-1.43,1c-.49.28-.78.09-.89-.46a3.18,3.18,0,0,1,.69-2.35c.47-.76,1-1.48,1.52-2.2a28.36,28.36,0,0,1,4.5-5,11.21,11.21,0,0,0,.93-.81c-.23,0-.46.11-.7.15-.83.16-1.67.34-2.51.46-.36,0-.86.13-1-.28-.08-.23.16-.65.37-.89A21,21,0,0,1,9.77,44.1a13.5,13.5,0,0,1,1.82-1.31,9.23,9.23,0,0,1,3.25-1.12.45.45,0,0,0,.33-.21q1.19-2.53,2.34-5.07A2.08,2.08,0,0,0,17.6,36l-.46.27c-1,.51-2,1-3,1.52a2.86,2.86,0,0,1-1,.22.49.49,0,0,1-.6-.56,2.19,2.19,0,0,1,.23-1,26.19,26.19,0,0,1,2.24-3.33c2.18-2.51,4.47-4.92,6.72-7.36a1.79,1.79,0,0,1,.49-.28l-.16-.22-.55.13c-1.58.41-3.15.85-4.73,1.24a4.65,4.65,0,0,1-1.29.09.56.56,0,0,1-.55-.82,4.14,4.14,0,0,1,.44-.83,8.47,8.47,0,0,1,2.63-2.39,34,34,0,0,1,5.85-3c.62-.28,1.28-.48,2.07-.77-.42-.2-.73-.36-1.05-.5-.71-.32-1.43-.59-2.12-1s-1.39-.81-2.08-1.24q-.78-.5-1.53-1.05c-.12-.09-.16-.29-.24-.43a3.55,3.55,0,0,1,.43-.23.8.8,0,0,1,.31,0,31.06,31.06,0,0,1,3.74.27c2.48.47,4.93,1.08,7.39,1.63a1.48,1.48,0,0,0,.69,0l-.79-1c-.3-.41-.63-.8-.89-1.23s-.11-.55.31-.64a4.8,4.8,0,0,1,2.88.5l.48.19,5.27,2a3.08,3.08,0,0,0,.8.17c.75.07,1.5.12,2.25.16a8.71,8.71,0,0,1,1.45.06c2.25.56,4.49,1.15,6.74,1.75a10.26,10.26,0,0,1,1.92.62c2.79,1.43,5.82,2.44,8.33,4.39a24.12,24.12,0,0,1,2,1.79,2.53,2.53,0,0,1,.46.72.58.58,0,0,1-.48.94A4,4,0,0,1,61,26.67c-1.54-.37-3.07-.8-4.61-1.2a1.76,1.76,0,0,0-.71-.08c.09.11.18.23.28.34.84.86,1.67,1.72,2.52,2.57a25.93,25.93,0,0,1,1.9,1.88c1.4,1.75,2.77,3.53,4.09,5.35a6.83,6.83,0,0,1,.77,1.77.6.6,0,0,1-.7.85,4.44,4.44,0,0,1-1.12-.31A11,11,0,0,1,60.23,36c.33.79.6,1.46.89,2.13.41,1,.86,1.89,1.24,2.85a1.11,1.11,0,0,0,1.11.75,5.37,5.37,0,0,1,1.56.41,20.32,20.32,0,0,1,3.9,2.62A17.63,17.63,0,0,1,71,46.43a10.87,10.87,0,0,1,1.38,1.71c.34.48.2.74-.38.82a5.51,5.51,0,0,1-3.15-.47l-.21-.07a.65.65,0,0,0-.38,0c.16.1.31.23.47.32a9,9,0,0,1,2.79,2.59c.56.74,1.19,1.41,1.78,2.12.33.4.62.83.93,1.25a10.87,10.87,0,0,1,1.59,3.33c.13.4.25.87-.16,1.17s-.76,0-1.05-.27c-.91-.73-1.79-1.5-2.68-2.26a4,4,0,0,0-.63-.49c.06.1.11.21.17.3,1.24,1.92,2.5,3.82,3.73,5.75A27,27,0,0,1,76.84,65a13,13,0,0,1,.78,2.38,1.09,1.09,0,0,1-.19.82c-.25.3-.63.21-1,0a6.81,6.81,0,0,1-2.1-1.56A6.67,6.67,0,0,0,73,65.49a5.73,5.73,0,0,0,.14.56c.7,2,1.33,4,2.12,6a21.47,21.47,0,0,1,1.23,4.22,4.8,4.8,0,0,1-.06,1.41.39.39,0,0,1-.58.33,2.81,2.81,0,0,1-.47-.21A9.29,9.29,0,0,1,73,76a.8.8,0,0,0-.18-.14c-.64,3.09-1.81,5.82-5.14,6.8a7.14,7.14,0,0,1-5.7-.62A7.32,7.32,0,0,1,58.42,77.39ZM38.91,42.06A8,8,0,0,0,46,37.57a1,1,0,0,0-.26-1.18c-.47-.41-1-.34-1.55.23a6.76,6.76,0,0,1-5.94,2.08,6.37,6.37,0,0,1-4.09-2.16,1,1,0,0,0-1.39-.21,1,1,0,0,0-.22,1.46,12.4,12.4,0,0,0,1.09,1.56A7.19,7.19,0,0,0,38.91,42.06ZM36.2,30.52a1.69,1.69,0,1,0-1.68,1.67A1.68,1.68,0,0,0,36.2,30.52Zm9.32,0a1.69,1.69,0,1,0-1.68,1.67A1.69,1.69,0,0,0,45.52,30.52Z"/><path class="cls-1" d="M79.55,0A5.29,5.29,0,0,0,81,5.64,5.28,5.28,0,0,0,86.73,6.7a4.83,4.83,0,0,1-1.42,2.08A5.31,5.31,0,1,1,79.55,0Z"/></g></g></svg>