<svg xmlns="http://www.w3.org/2000/svg" viewBox="0 0 94 102.61"><defs><style>.cls-1{isolation:isolate;}.cls-2{mix-blend-mode:exclusion;}.cls-3,.cls-4{fill:#fff;}.cls-4{fill-rule:evenodd;}</style></defs><g class="cls-1"><g id="Layer_2" data-name="Layer 2"><g id="Layer_1-2" data-name="Layer 1"><g class="cls-2"><path class="cls-3" d="M20.29,60.38c-.36-.59-.68-1.17-1-1.71a12.74,12.74,0,0,0-8.12-5.37,20.63,20.63,0,0,0-4.63-.48H6.08c.71-5.41-1.3-9.41-6.08-12l.05-.11H1l13.8-.05,5.91,0A3.54,3.54,0,0,1,24.43,44a10.05,10.05,0,0,0,2.2,5.19s.05,0,.13,0c0-1.11,0-2.2,0-3.3A24.12,24.12,0,0,1,29.06,36,16,16,0,0,1,38,27.93a20.52,20.52,0,0,1,10.47-1.06,19.89,19.89,0,0,1,7.76,2.68,14.17,14.17,0,0,1,5.46,6.11,28.11,28.11,0,0,1,2.16,6.67c.41,2.07.73,4.16,1.09,6.24,0,0,0,.09,0,.19A9.8,9.8,0,0,0,67.08,47a10.72,10.72,0,0,0,2.34-3.85,3.53,3.53,0,0,1,4.41-2.32c2.9.68,5.82,1.33,8.74,2l9.12,2c.73.16,1.45.34,2.31.55-5.34,1.52-8.14,5-8.62,10.44l-1.66-.3A16.49,16.49,0,0,0,76,56a12.66,12.66,0,0,0-6,4.11l-.13.15-.07,0a9.72,9.72,0,0,0-4.4-3.93v2.18c0,3,0,6,0,8.94a38.71,38.71,0,0,0,1.68,10.95,22.69,22.69,0,0,0,4.22,8,14.41,14.41,0,0,0,3.75,3.12A15.91,15.91,0,0,1,81,95.77a43.1,43.1,0,0,1,2.91,6.51,1.83,1.83,0,0,1,.06.25l-.1.08c-.62-.65-1.21-1.32-1.85-1.93A42.62,42.62,0,0,0,73,93.87,12.35,12.35,0,0,0,68,92.38c-1.69-.13-3.39-.22-5.09-.23a31.64,31.64,0,0,1-11.65-2.33A35.83,35.83,0,0,1,36.08,78.6a37.23,37.23,0,0,1-5.75-10.44,57.92,57.92,0,0,1-2.65-10.28.44.44,0,0,0-.43-.43,6.42,6.42,0,0,0-4.22.86c-.83.51-1.59,1.15-2.38,1.74A3.7,3.7,0,0,0,20.29,60.38Zm32.13-5.06c-1.15.16-2.25.35-3.36.45a31.77,31.77,0,0,1-7.67-.23c-.54-.08-.53-.08-.7.45s-.39,1.17-.59,1.78l-2.7-1.05.5-1.95A24.68,24.68,0,0,1,31,51.58c0,.11,0,.15,0,.18A31.59,31.59,0,0,0,32.8,55a16,16,0,0,0,11.26,6.74c.4,0,.51-.09.57-.45.12-.77.29-1.54.45-2.35l2.08.63-.3,2.29,1.84-.17V59h2.23v2.2A16.06,16.06,0,0,0,58,56.92a14.84,14.84,0,0,0,3.35-5.29,26,26,0,0,1-6,2.88l.6,1.87-3,.85Zm6.32-12.86-10,3.92a11.56,11.56,0,0,0,4.38,2.39,5.07,5.07,0,0,0,2.65,0C58.85,48,59.48,44.88,58.74,42.46ZM43.58,46.38l-10-3.93A7.29,7.29,0,0,0,33.36,45,4.33,4.33,0,0,0,38,49,10.28,10.28,0,0,0,43.58,46.38Z"/></g><path class="cls-4" d="M90.84,6.08l-.09,0A1.9,1.9,0,0,1,90,6.4a1.49,1.49,0,0,1-.57-.14.87.87,0,0,0-1.06,0,1.49,1.49,0,0,1-.57.14A1.9,1.9,0,0,1,87,6.12l-.09,0a2.06,2.06,0,0,0,0,.26,1.87,1.87,0,0,0,.09.87c0,.08.15.1.25.12a2.74,2.74,0,0,0,.56,0,1.48,1.48,0,0,0,.53-.19,1.23,1.23,0,0,1,1.14,0,1.42,1.42,0,0,0,.53.19,2.74,2.74,0,0,0,.56,0c.1,0,.21,0,.25-.12a2,2,0,0,0,.09-.87A2.06,2.06,0,0,0,90.84,6.08Z"/><circle class="cls-3" cx="87.37" cy="3.85" r="0.5"/><polygon class="cls-4" points="88.87 0 88.87 0 88.87 0 88.87 0"/><path class="cls-4" d="M88.87,0a4,4,0,0,0-4,4V9a.73.73,0,0,0,.38.65.77.77,0,0,0,.76,0l.19-.13h.06l1,.48a.76.76,0,0,0,.66,0l1-.49h.06l1,.49a.76.76,0,0,0,.66,0l.95-.48h.07l.19.13A.73.73,0,0,0,92.89,9V4A4,4,0,0,0,88.87,0Zm-1.5,2.68a1.17,1.17,0,1,1-1.18,1.17A1.17,1.17,0,0,1,87.37,2.68Zm4,4.86h0a1,1,0,0,1-.56.41A3,3,0,0,1,90,8a1.51,1.51,0,0,1-.57-.15.87.87,0,0,0-1.06,0,1.51,1.51,0,0,1-.57.15A3,3,0,0,1,86.93,8a.92.92,0,0,1-.56-.41A2.75,2.75,0,0,1,86.2,6.3a1.48,1.48,0,0,1,.21-.77A.51.51,0,0,1,87,5.4a4,4,0,0,1,.47.23.68.68,0,0,0,.28.1,1.45,1.45,0,0,0,.53-.18,1.23,1.23,0,0,1,1.14,0,1.39,1.39,0,0,0,.53.18.68.68,0,0,0,.28-.1,3.36,3.36,0,0,1,.47-.23.51.51,0,0,1,.61.13,1.48,1.48,0,0,1,.21.77A2.75,2.75,0,0,1,91.37,7.54ZM90.38,5a1.17,1.17,0,1,1,1.17-1.17A1.17,1.17,0,0,1,90.38,5Z"/><circle class="cls-3" cx="90.38" cy="3.85" r="0.5"/></g></g></g></svg>