<svg xmlns="http://www.w3.org/2000/svg" viewBox="0 0 95.43 108.2"><defs><style>.cls-1{fill:#fff;}</style></defs><g id="Layer_2" data-name="Layer 2"><g id="Layer_1-2" data-name="Layer 1"><path class="cls-1" d="M34.35,45.76a3.59,3.59,0,0,0,2.56,1.71c1.21.32,1.53-.09,3.11-.42s3,.53,4.95.11a6.63,6.63,0,0,0,3.65-1.85,8.56,8.56,0,0,1,2.26-1.63,10.38,10.38,0,0,1,3.1-.83,12.4,12.4,0,0,0-2.28-.08c-1.79,0-2.59-.88-3.52-1.37s-2.14-1.46-3.1-1.9a12.4,12.4,0,0,0-4.19-1,6.2,6.2,0,0,1-2.54,0c-.75-.21-1.16-1.31-1.29-1.92a3.05,3.05,0,0,0-.72-1.44,9.37,9.37,0,0,0-2-2,10,10,0,0,0-2-.77c-.3-.12-.71-.16-.74-.48s.6-.46,1.63-.42a9.6,9.6,0,0,1,3.27.94,24.89,24.89,0,0,1,3,2.27c.71.47,4.52,1,6.25,1.16a47.2,47.2,0,0,1,7.32,2c1.42.53,2.62.69,4.48,1.53s4,2.24,4,2.92-.71,1.26-1.48,1.68a28,28,0,0,0-2.78,1.88c-.6.47-1.76,1.64-3.25,2.85a17.9,17.9,0,0,1-3.51,2.08A59.83,59.83,0,0,1,44,53.27a9,9,0,0,1-3.21.42c-.37,0-.6-.69-.73-1.18a1.91,1.91,0,0,0-.58-1.11,7.51,7.51,0,0,1,.26,1.13,7.22,7.22,0,0,0,.64,1.82c.2.46.88.88,1.48,1.71a4,4,0,0,1,.46,3.43c-.42,1.19-1.29,2.16-1.59,3.5a34.06,34.06,0,0,0-.23,5,10.47,10.47,0,0,1-.7,3.15A27.83,27.83,0,0,1,38,74.28,14,14,0,0,0,36.83,77a2.94,2.94,0,0,1-1.19,1.54,16.87,16.87,0,0,0-2.43,2.33A18.66,18.66,0,0,0,30,85c-.6,1.25-2.87,3.9-3.77,5.78s-1.55,1.48-2.46,1-1.91-2.5-2.07-4.25a10.94,10.94,0,0,1,1.72-6.25c1.34-2.27,2.83-4.64,3.66-5.8a17.74,17.74,0,0,0,2.07-4.32c.26-1-.16-2.9-.54-4.59a37.09,37.09,0,0,1-.19-7.06c.09-1.68.13-2.47-.21-3,.07.46-.8,4.36-.93,5.82s-.33,2.15-.45,3.59a11.09,11.09,0,0,0,0,2.34,3.72,3.72,0,0,1-.53,1.86c-.45.89-1.85,2.81-3.33,5.42A60,60,0,0,0,19.09,84a47.1,47.1,0,0,1-3.1,6.7A5.7,5.7,0,0,1,13.76,92a4.81,4.81,0,0,1-3.14.54c-1.17-.28-2.28-.64-2.56-.65S6.71,92,6,92.11s-1.11.34-1.3.18.36-.59.6-.82a4.71,4.71,0,0,1,1.94-.65c.77-.1,2-.21,2-.21a15.24,15.24,0,0,0-1.64-.29,5.71,5.71,0,0,0-2.65.55,7.76,7.76,0,0,1-3,.38c-.83,0-1.9-.17-1.88-.44s1.68-.9,2.09-1.09a14.84,14.84,0,0,0,2.35-1.36,5.21,5.21,0,0,1,2.23-1.12,11.53,11.53,0,0,1,4.79,1.21c2.34,1,2.44-1.25,3.17-3.36s3.35-11,3.83-12.76,1.28-4.54,1.86-5.18A3.64,3.64,0,0,0,21.63,64a82.11,82.11,0,0,1,.95-11.65c.56-2.73,5-5.11,6.09-5.76s1-1,2.14-4.12c-1.24-.06-1.49,1.62-3.3,3.21s-2.86,1.5-5.26,3.79S19.83,55,19.46,57.08a18.12,18.12,0,0,1-1.39,4.74,7.68,7.68,0,0,1-4.56,4.52c-2.32.79-3.69-1.22-3.36-3.83s-.79-4.79-2.65-7.4-1.6-4.06-1-6.57,4.61-5,6-5.43,5.73-1.67,7.78-2.54,3.67-3,5.1-4.85a6.68,6.68,0,0,1,5.76-3,5.58,5.58,0,0,1,4.87,2.8,16,16,0,0,1,1.57,4.81c.11,1,.15,2.77-.45,3.35s-2.42,0-3.25-.25A5.82,5.82,0,0,0,34.35,45.76Z"/><path class="cls-1" d="M26.62,91.66a27.2,27.2,0,0,1,3.21-5.31c.59-.8,2.06-2.94,3.24-4.57a14.2,14.2,0,0,1,7-5.1c3.75-1.31,7.25-2.34,8.06-2.59S50,73.38,50.2,74a9.56,9.56,0,0,0,2,3c.73.6,2.12,1,3.28,1.91s3.27,2.61,2.92,3.35-1.68,1.83-3.61,3.13-4.39,1.78-6.19,2.36-3.82,2.41-4.83,3-6.18,3.15-10.32,3.19S25.84,93.63,26.62,91.66Z"/><path class="cls-1" d="M64.22,68.15c1.49-.37,2.22-.21,2.79.26s2.69,2.67,3.41,3.4a25.25,25.25,0,0,1,3.22,4.41A26.88,26.88,0,0,0,77.18,81c1.06,1.12,3.59,4,4.17,4.5a8.93,8.93,0,0,0,2.52,2.24c1.28.6,2.61,1,3.61,2.15a25.8,25.8,0,0,1,2.19,3.73,1.9,1.9,0,0,0,1.76,1c.95,0,1.81.23,1.8.8S92,97,90.49,97.11A3.86,3.86,0,0,1,87,95.55c-.66-1-.8-1.58-1.38-1.82a2.19,2.19,0,0,0-2.26.35,3.71,3.71,0,0,1-3.16.8c-1.44-.26-2.08-2.22-1.79-3.36a2.71,2.71,0,0,0-.56-2.5,11.74,11.74,0,0,0-4.76-4c-2.39-.9-4.9-1.4-5.85-4.12a32.12,32.12,0,0,1-1.16-4.71,20.28,20.28,0,0,0-2.35-4.87,12.85,12.85,0,0,1-1.48-2.22C62.26,68.8,62.72,68.51,64.22,68.15Z"/><path class="cls-1" d="M49.4,69.35a25.68,25.68,0,0,0-.78,2.78c-.28.76-.13,1.11-1.09,1.56A36.54,36.54,0,0,1,43,75.24a36.87,36.87,0,0,0-4.22,1.47c-.67.31-1.28.6-1.49.27s1.46-3.14,1.73-3.66a16.54,16.54,0,0,0,1.4-3.07A7.08,7.08,0,0,1,41,68c.43-.85.87-1.14,1.45-2.06a46.63,46.63,0,0,1,2.9-4c.78-.89,2.77-2.88,4-3.07s2.1,0,2.52.67,1.6,2.17,2,2.69a28.36,28.36,0,0,0,2.9,2.35A38.86,38.86,0,0,1,60.9,68.1a37.11,37.11,0,0,1,2.91,4,26.11,26.11,0,0,1,2,4.75c.28,1.1.74,3.47,1,5.18a33,33,0,0,1,.33,7.65,19.32,19.32,0,0,0-.48,3.49c0,1.13.8,2.45.88,4.38a9.28,9.28,0,0,1-.92,4.64c-.57,1.17-1.2,2.93-.65,3.47a8,8,0,0,0,1.05.86c.36.31.65.48.54,1-.25,1-2.25.83-3.43.48a3,3,0,0,1-2-3.11c.21-1.33.6-1.42.75-2.35s-.42-2.36-1.35-2.46a2.14,2.14,0,0,1-2.09-2c0-1.36.37-1.64,1.35-2.61s1.76-1.19,1.81-2.14a21.7,21.7,0,0,0-.55-4.6,26.68,26.68,0,0,0-2-5.41,17,17,0,0,0-2.59-3.13,27,27,0,0,0-3.29-2.39,6.23,6.23,0,0,1-2.71-2.16,11.3,11.3,0,0,1-1.5-3.44C49.65,70.86,49.53,69.91,49.4,69.35Z"/><path class="cls-1" d="M94.37,6.17a3.62,3.62,0,1,0-3,1V8.41h-.85a.43.43,0,0,0,0,.85h.85v1.2a.43.43,0,0,0,.85,0V9.26h.85a.43.43,0,1,0,0-.85h-.85V7.2A3.6,3.6,0,0,0,94.37,6.17Zm-4.51-.6a2.76,2.76,0,1,1,3.91,0A2.78,2.78,0,0,1,89.86,5.57Z"/></g></g></svg>