<svg xmlns="http://www.w3.org/2000/svg" viewBox="0 0 97.37 103.13"><defs><style>.cls-1{fill:#fff;}</style></defs><g id="Layer_2" data-name="Layer 2"><g id="Layer_1-2" data-name="Layer 1"><path class="cls-1" d="M72,34h1.59l.3,0a18.08,18.08,0,0,1,2.26.46,26.31,26.31,0,0,1,8.62,4.86A5.75,5.75,0,0,1,86.6,42a19.7,19.7,0,0,1,1,3.67.65.65,0,0,0,0,.2A28.36,28.36,0,0,0,88.75,49c.07.13.12.28.18.42.36.91.28,1.1-.74,1.56a1.07,1.07,0,0,0-.73,1,4,4,0,0,0,0,.49,2.7,2.7,0,0,1-.23,1.63,2.61,2.61,0,0,0-.21,1.09,18.57,18.57,0,0,0,.17,2.1,1.34,1.34,0,0,1-.62,1.29,3.3,3.3,0,0,0-.79.84c-.44.68,0,1.41.87,1.57A4.21,4.21,0,0,0,87.86,61c.71-.08,1.41-.21,2.12-.26a2.11,2.11,0,0,1,1.79.86.49.49,0,0,1,.12.32c0,.51,0,1,0,1.53a1.16,1.16,0,0,1-.62.9,4.73,4.73,0,0,1-1.68.64l-1,.17a1.52,1.52,0,0,0,.25.13A16.91,16.91,0,0,1,92.35,67a8.8,8.8,0,0,1,2.27,1.64,1.67,1.67,0,0,1,.36.73A2.72,2.72,0,0,1,94.31,72a1.58,1.58,0,0,0-.4,1.27c.12,1.29.24,2.58.28,3.87A14.88,14.88,0,0,1,94,80c-.33,2-.76,4-1.15,6-.21,1-.35,2.11-.6,3.16-.77,3.21-1.59,6.41-2.36,9.62a4.37,4.37,0,0,1-1.24,2.44c-.66.58-1.36,1.13-2.06,1.68a1.48,1.48,0,0,1-1,.3H32c0-.1,0-.18.06-.25a38.13,38.13,0,0,0,1.26-5.22,18.25,18.25,0,0,0,.21-5.11c-.32-2.69-.58-5.39-.89-8.08-.08-.74-.23-1.48-.32-2.22a.91.91,0,0,0-1.39-.51l-.4.22-3.63,2.16a9.49,9.49,0,0,0-3.39,3,5.52,5.52,0,0,1-1.95,1.92,40.85,40.85,0,0,1-5.07,2.44,9.05,9.05,0,0,1-2.72.78,24,24,0,0,1-3.06,0A7,7,0,0,1,6.89,91c-.64-.48-1.27-1-1.87-1.51a4.73,4.73,0,0,1-.95-1.06,6.64,6.64,0,0,1-.49-5.82,7.42,7.42,0,0,0,.46-2c0-.73-.29-1-1.09-1a10.29,10.29,0,0,1-2-.29,1.43,1.43,0,0,1-1-.61v-.47c.06-.17.12-.33.19-.49a1.71,1.71,0,0,1,.9-1.06,21.88,21.88,0,0,1,4-1.15,12.9,12.9,0,0,0,4.19-1.31c.4-.23.81-.44,1.22-.65,2.43-1.28,4.77-2.67,7.29-3.84,1.83-.84,3.59-1.8,5.38-2.71a19,19,0,0,0,3.48-2.27c1.62-1.35,3.26-2.67,4.92-4a3.71,3.71,0,0,0,1.28-1.76,7.46,7.46,0,0,0,.26-.8A3,3,0,0,1,35,56a14.76,14.76,0,0,1,5.17-1.16c2.17-.1,4.34-.14,6.51-.23,1.12,0,2.25-.11,3.36-.22s2.16-.33,3.24-.42a5.66,5.66,0,0,0,3.08-1.08c1-.73,1.86-1.51,2.77-2.29a1.65,1.65,0,0,0,.35-.48c.25-.49,0-.8-.66-.74a8.85,8.85,0,0,0-.87.16c-1.5.3-3,.48-4.29-.49a1.35,1.35,0,0,0-1.45,0c-.31.17-.57.38-.88.55a5.54,5.54,0,0,1-.91.46.42.42,0,0,1-.61-.28.76.76,0,0,1,.12-.59,5.68,5.68,0,0,1,1.11-1A5.75,5.75,0,0,1,54.71,47a11.77,11.77,0,0,1,1.95.37,3.54,3.54,0,0,0,4.35-2,7.12,7.12,0,0,0,.33-1.64A8.55,8.55,0,0,1,63.41,39a24.8,24.8,0,0,1,3.37-3.17,8.39,8.39,0,0,1,3.64-1.58C70.93,34.13,71.45,34.08,72,34ZM58.42,88.07c.2,0,.45,0,.71,0a1.43,1.43,0,0,0,1.2-.59A11.42,11.42,0,0,0,62,84a1,1,0,0,0-.53-1.25c-.16-.1-.32-.22-.5-.31l-1.42-.68a2.81,2.81,0,0,1-1-.87,6.92,6.92,0,0,1-1.17-3.21c-.3-1.67-.61-3.34-1-5a4.16,4.16,0,0,1-.18-1.82c.29-1.2.78-1.65,2.14-1.88l7.82-1.37,17.68-3c1.43-.24,2.87-.45,4.31-.67a5.76,5.76,0,0,0,2-.54c.62-.34.56-1-.11-1.22a1.52,1.52,0,0,0-.67-.1,15,15,0,0,0-1.63.16q-5.85,1-11.69,1.95L63.65,66.27c-1.77.3-3.52.62-5.29.91a5.86,5.86,0,0,1-3.83-.62c-.24-.13-.48-.25-.73-.36a3.63,3.63,0,0,0-2.69-.26,7.46,7.46,0,0,1-2.82.36,3,3,0,0,0-1.85.38,4.17,4.17,0,0,1-1.65.54,2.35,2.35,0,0,0-1.27.42,1.45,1.45,0,0,1-1.16.35H42.2a2.05,2.05,0,0,0-1.82,1,5.83,5.83,0,0,1-.9,1.19,1.93,1.93,0,0,1-1.35.59,5.1,5.1,0,0,0-.76.15c-.7.18-1.39.38-2.09.57a1.14,1.14,0,0,1-1.08-.19A11.41,11.41,0,0,1,33,70.16a25,25,0,0,0-3.15-3.11,2.9,2.9,0,0,0-3.42-.26c-.72.39-1.4.83-2.08,1.27a5.11,5.11,0,0,1-1.6.8A6,6,0,0,0,20.44,70c-.31.25-.63.49-1,.73a3,3,0,0,1-1.37.61.56.56,0,0,0-.55.46c-.13.57-.28,1.13-.43,1.7a1.48,1.48,0,0,1-1.18,1c-1.1.26-2.19.52-3.29.74-3.23.65-6.49,1.12-9.76,1.55a1.86,1.86,0,0,0-1.21.64c-.44.51-.27,1,.46,1.08a4.54,4.54,0,0,0,1.56,0c3.78-.64,7.55-1.32,11.33-2a19.43,19.43,0,0,1,2.15-.27,1.43,1.43,0,0,1,1.51,1,1.78,1.78,0,0,1-.73,1.8c-.38.29-.74.61-1.11.92a1,1,0,0,0-.33,1.13c.13.4.31.79.47,1.19a9,9,0,0,0,2.14,3,1.09,1.09,0,0,0,1.45.16,6,6,0,0,0,1-.7,58.93,58.93,0,0,0,5.5-5.57,8.78,8.78,0,0,0,1.49-2.28,8.12,8.12,0,0,1,.71-1.19,2.35,2.35,0,0,1,1.46-1,4.82,4.82,0,0,0,2-1.06,2.58,2.58,0,0,1,1-.45c.75-.18,1.51-.31,2.27-.45a35.51,35.51,0,0,0,4.13-.83.84.84,0,0,1,.52,0c.77.27,1.52.58,2.29.86,1.69.64,3.37,1.3,5.09,1.88a2.74,2.74,0,0,1,2.08,1.86A14.79,14.79,0,0,1,50.52,79a5.48,5.48,0,0,0,.88,2.84c.69,1,1.37,2,2.08,2.91.48.65,1,1.29,1.53,1.91A4.26,4.26,0,0,0,58.42,88.07ZM84.68,45.63a16.79,16.79,0,0,0-4.65.64c-1.86.55-3.69,1.17-5.51,1.81a20.67,20.67,0,0,0-2.69,1.14c-1.15.59-1.38,1.26-.89,2.31a10,10,0,0,0,3.23,3.8c.75.55,1.54,1.05,2.29,1.6a1.3,1.3,0,0,1,.33,1.79.85.85,0,0,1-1,.33,3.48,3.48,0,0,1-.52-.24c-.25-.13-.48-.28-.74-.39a1.11,1.11,0,0,0-1.1-.05c-.34.23-.26.57-.17.87a5.64,5.64,0,0,0,1,1.84c.64.86,1.25.94,2.23.34a4.11,4.11,0,0,1,1-.41c.55-.16,1.14-.25,1.69-.42A9.72,9.72,0,0,0,80.54,60a.52.52,0,0,0,.29-.72c-.14-.37-.23-.74-.37-1.11a1.56,1.56,0,0,1,.12-1.36,10,10,0,0,0,.71-1.52,2.1,2.1,0,0,0-.22-2.09c-.68-.94-1.41-1.13-2.59-.3-.45.32-.85.67-1.29,1a1.24,1.24,0,0,1-1.64,0c-.5-.36-1-.76-1.41-1.15a1.76,1.76,0,0,1-.57-1.8c.14-.8.54-1,1.53-1h.09l2.58.39c1.08.16,2.18.28,3.26.47a2.36,2.36,0,0,1,2.2,1.94c.13.66.3,1.31.48,2,.13.49.32,1,.44,1.46s.08.83.15,1.24,1,.68,1.35.43a.25.25,0,0,0,.12-.15,3.26,3.26,0,0,0,.16-2.13,2.31,2.31,0,0,1,.15-1.87,7.27,7.27,0,0,0,.42-1.27c0-.13,0-.28-.19-.31s-.76-.1-1.15-.12-.4-.13-.35-.33a1.52,1.52,0,0,1,.3-.56,2.61,2.61,0,0,1,1.37-.7c.78-.21,1-.44,1-1.11-.13-1-.34-2-.56-3a.92.92,0,0,0-1-.69Z"/><g id="_77_sound" data-name=" 77 sound"><path class="cls-1" d="M94.93.49V5.83a.51.51,0,0,1-.28.45.52.52,0,0,1-.21,0,.5.5,0,0,1-.31-.1l-2-1.59H90.77a.25.25,0,0,1-.25-.24V1.94a.25.25,0,0,1,.25-.25h1.38l2-1.58a.49.49,0,0,1,.69.07A.51.51,0,0,1,94.93.49ZM96.3,1a.25.25,0,0,0-.35.05.25.25,0,0,0,0,.34,2.19,2.19,0,0,1,.44,3.08,1.84,1.84,0,0,1-.44.44.26.26,0,0,0,0,.35.25.25,0,0,0,.2.09.26.26,0,0,0,.15,0,2.7,2.7,0,0,0,.54-3.77A2.76,2.76,0,0,0,96.3,1Zm.1,2.15a1.71,1.71,0,0,0-.83-1.47.25.25,0,0,0-.34,0,.24.24,0,0,0,0,.35l.07,0a1.22,1.22,0,0,1,.41,1.68,1.24,1.24,0,0,1-.41.41.24.24,0,0,0,.25.42,1.7,1.7,0,0,0,.82-1.46Z"/></g></g></g></svg>