<svg xmlns="http://www.w3.org/2000/svg" viewBox="0 0 89.27 111.26"><defs><style>.cls-1{fill:#fff;}</style></defs><g id="Layer_2" data-name="Layer 2"><g id="Layer_1-2" data-name="Layer 1"><path class="cls-1" d="M30.47,51.21c.32-2.47.67-4.72.9-7,.3-2.94.39-5.91.8-8.84,1-7.35,6.18-12,13.61-12.39,4.95-.26,9.58.43,13.19,4.34a2.16,2.16,0,0,0,1.4.37c2.8.06,4.52,1.25,5.19,3.64a4.84,4.84,0,0,1-2.13,5.3,4.94,4.94,0,0,1-5.7-.42c-1.82-1.58-2.15-3.69-1-6.26.06-.12.09-.24.23-.6-2.2-.61-4.32-1-6.32.45-3.23,2.31-4.46,7.68-2.8,11.35,1.17,2.61,2.22,5.29,3.14,8a19.11,19.11,0,0,1,.41,4,5.26,5.26,0,0,0,.66-.63,10.21,10.21,0,0,1,7.19-4.75c7.9-1.22,15,.47,20.22,6.88A10.16,10.16,0,0,1,81.24,65.4a3,3,0,0,0,.14,2.13c1.32,2.72.49,5.65-2.07,6.89a4.85,4.85,0,1,1-3.89-8.87l1.2-.52a9.09,9.09,0,0,0-6.83-4.85c-2.81-.48-4.63,1-6.07,3.16A21.42,21.42,0,0,0,59.8,74.52c-.31,6.15-.08,12.32-1.56,18.43-1.88,7.76-6,13.6-13,17.42a5.8,5.8,0,0,1-6,.12A23.55,23.55,0,0,1,27.36,96.21a45,45,0,0,1-2.22-15.54,25.2,25.2,0,0,0-3.2-13,64,64,0,0,0-3.68-6.51C16.6,58.6,13.57,57.77,11.39,59s-2.67,3.81-1.56,6.66c.19.48.42,1,.62,1.41,4.26.54,6.28,2.68,5.64,5.94a4.78,4.78,0,0,1-5.91,3.76C7.1,76,6,73.28,6.87,70.14,5.45,68.42,4.3,67,3.11,65.57-3,58.34.35,48.27,9.64,46.38a26.37,26.37,0,0,1,16.89,2.27A35.73,35.73,0,0,1,30.47,51.21ZM42.22,73.09l-1.53-1.17C35,67.51,31.05,67.75,28.6,76.11a30.55,30.55,0,0,0,0,16.59c1.84,6.68,5.59,12.75,12.18,16.31a3.13,3.13,0,0,0,3.28-.07c5.58-2.86,8.37-8,11-13.26a18.89,18.89,0,0,0,1.55-6,66.72,66.72,0,0,0,.32-7.49,18.09,18.09,0,0,0-2.73-10.51c-1.82-2.71-3.86-3.31-6.78-1.83C45.59,70.75,44,72,42.22,73.09Z"/><path class="cls-1" d="M54.07,93.73a8.18,8.18,0,0,1-.28,2.17,56.88,56.88,0,0,1-3.63,6.3c-1.9,2.66-3.45,2.8-6.4,1.49a4,4,0,0,0-2.93.1c-2.44,1.14-3.93,1.23-5.55-.87a59.52,59.52,0,0,1-4.34-7.22c-.2-.36-.09-1.3.11-1.38a2.49,2.49,0,0,1,1.66,0c1.66.61,3.23,1.48,4.92,2a17.86,17.86,0,0,0,13.19-1.36C51.71,94.51,52.68,94.24,54.07,93.73ZM32.6,96.19c1.12,1.91,2.12,3.89,3.39,5.69,1,1.4,2.32,2,4,.77a3.86,3.86,0,0,1,4.78,0,2.42,2.42,0,0,0,3.75-.61c1.31-1.81,2.36-3.81,3.51-5.73A23.41,23.41,0,0,1,32.6,96.19Z"/><path class="cls-1" d="M40.76,85.47c-3.55-2.74-7-2.2-10.08.75a6.1,6.1,0,0,1,.93-6.73,5.58,5.58,0,0,1,6.55-.91C40.21,79.6,41.12,81.91,40.76,85.47Zm-9.23-1.58A7.76,7.76,0,0,1,39.39,83c-.46-2.76-2-4-4.47-3.76C32.85,79.46,31.43,81.32,31.53,83.89Z"/><path class="cls-1" d="M44.59,85.52c-.51-4.51,1.27-7.21,4.9-7.55,4.4-.42,6.37,3.64,5.87,7,0,.28-1.19.76-1.37.61C50.91,83,47.78,83.12,44.59,85.52Zm1.34-2.38a7.74,7.74,0,0,1,8,.77c-.23-2.94-1.55-4.52-3.63-4.64C47.9,79.12,46.54,80.23,45.93,83.14Z"/><path class="cls-1" d="M88,8.77v.44a.47.47,0,0,1-.48.48h-6.1a.48.48,0,0,1-.49-.48V8.77a.49.49,0,0,1,.49-.49h6.1A.48.48,0,0,1,88,8.77Z"/><path class="cls-1" d="M87.4,7.57V7.8a.16.16,0,0,1-.16.16H81.6a.16.16,0,0,1-.16-.16V7.57a.49.49,0,0,1,.68-.45l.13.06a.59.59,0,0,0,.56,0L82.94,7a.89.89,0,0,1,1,0l.19.12a.58.58,0,0,0,.62,0L84.91,7a.91.91,0,0,1,1,0l.13.09a.58.58,0,0,0,.56,0l.13-.06a.49.49,0,0,1,.68.45Z"/><circle class="cls-1" cx="80.44" cy="4.44" r="0.87"/><path class="cls-1" d="M85.06,6.48a.17.17,0,0,1-.1.17,2,2,0,0,0-.4.22.26.26,0,0,1-.28,0l-.18-.11a1.21,1.21,0,0,0-1.34,0l-.13.08a.25.25,0,0,1-.25,0,1,1,0,0,0-.53-.12.15.15,0,0,1-.17-.15,2.84,2.84,0,0,0-.36-1.2.19.19,0,0,1,0-.19,1.18,1.18,0,0,0-.19-1.73.16.16,0,0,1,0-.28A2.33,2.33,0,0,1,82.31,3a3.51,3.51,0,0,1,2.75,3.47Z"/><circle class="cls-1" cx="88.4" cy="4.44" r="0.87"/><path class="cls-1" d="M87.52,5.41a2.84,2.84,0,0,0-.36,1.2.16.16,0,0,1-.17.15,1,1,0,0,0-.53.12.25.25,0,0,1-.25,0,1.5,1.5,0,0,0-.68-.29.16.16,0,0,1-.15-.14,4.75,4.75,0,0,0-.7-2.16.17.17,0,0,1,0-.19A2.71,2.71,0,0,1,86.53,3a2.29,2.29,0,0,1,1.12.2.17.17,0,0,1,0,.28,1.18,1.18,0,0,0-.19,1.73.19.19,0,0,1,0,.19Z"/><circle class="cls-1" cx="86.58" cy="0.87" r="0.87"/><path class="cls-1" d="M85.84,2a2.16,2.16,0,0,0-.39,1,.21.21,0,0,1-.08.11,3.43,3.43,0,0,0-.83.69.15.15,0,0,1-.24,0A3.33,3.33,0,0,0,83,2.83a.17.17,0,0,1-.1-.22A3.58,3.58,0,0,1,85.19.55a.17.17,0,0,1,.21.18,1.18,1.18,0,0,0,.41,1.05A.16.16,0,0,1,85.84,2Z"/></g></g></svg>