<svg xmlns="http://www.w3.org/2000/svg" viewBox="0 0 75.53 114.97"><defs><style>.cls-1{fill:#fff;}</style></defs><g id="Layer_2" data-name="Layer 2"><g id="Layer_1-2" data-name="Layer 1"><path class="cls-1" d="M30.25,4,40.5,17.27a2.27,2.27,0,0,1,.23.55l-.26.45L31.2,14a9.65,9.65,0,0,0-.53,6.67,41,41,0,0,0,2.07,6.23c.41,1.08.84,2.31,2.43,2.28.27,0,.58.46.8.75.34.44.6.93.91,1.38,4,6,5.16,6.6,12.38,6.69,3,0,5.38,2,6.29,5.21-6,1.37-11.3,3.57-10.49,11.25-1.63-1.45-3.15-2.91-4.79-4.22a2.34,2.34,0,0,0-1.93-.34,54.3,54.3,0,0,1-17.75,3.34c-6.36.21-12.74,0-19.11,0A13.46,13.46,0,0,1,0,53c.69-2,1.3-4,2-5.89.13-.35.77-.56,1.22-.72,2.11-.78,4.22-1.57,6.36-2.26a2.16,2.16,0,0,0,1.61-1.81C13.09,34.47,15,26.63,16.91,18.8a3.42,3.42,0,0,1,.6-1.49C21.67,12.93,25.87,8.59,30.25,4Z"/><path class="cls-1" d="M32.2,115A21.31,21.31,0,0,1,24,97l-.4-.1L21.78,99C16.94,93.21,18,82.9,24,77.87a15.59,15.59,0,0,1,2.55-1.79A2.12,2.12,0,0,1,28.2,76c5,2.35,10.23,2.8,15.61,2.46,1.31-.08,1.8.19,2.27,1.55a51.17,51.17,0,0,0,3.15,6.28,9,9,0,0,1-5.08-3.81c-.26.83-.43,1.38-.59,1.93-1,3.48-2.5,6.69-5.63,8.84a2.66,2.66,0,0,0-.66.72,37.51,37.51,0,0,0-5.4,11.78A17.29,17.29,0,0,0,32.2,115Z"/><path class="cls-1" d="M36.54,63.21c-.86,2.73-1.54,3.09-8,4.29.1.47.39,1,.26,1.39-.19.58-.7,1.53-1,1.51-1.13-.05-1.59.7-2.31,1.25a9.26,9.26,0,0,1-3.11,1.69c-1.51.4-2.39-.45-2.43-2s-.05-3.41,0-5.11c.09-2.79,0-5.53-2.76-7.47L19.33,58l-3.6-1c1.82-1.3,7.44-1.41,9.83-.25C24.72,58,24.11,59.59,23,60.6s-.75,1.69-.25,2.82l.83-1.13C30.26,65.52,31.51,65.58,36.54,63.21Z"/><path class="cls-1" d="M25,112a25.51,25.51,0,0,1-9.6-12.64l-1.84,3.41c-3.7-8.56-1.83-19.26,6.73-25.1C13.94,90.44,18.2,101.4,25,112Z"/><path class="cls-1" d="M29.71,73.78c6.76-5.21,17.32-3.07,21.08,4.34-4.84-1.64-9.68-1-14.48-1.19A8.87,8.87,0,0,1,29.71,73.78Z"/><path class="cls-1" d="M5.55,86.28A12.27,12.27,0,0,1,15.3,74.54c.76-.15,1.66.44,2.5.68-.43.75-.67,1.76-1.3,2.2C12.71,80,8.78,82.44,5.55,86.28Z"/><path class="cls-1" d="M31,53.43l-.27,2.8a12.78,12.78,0,0,1,11-.92c-.65.35-1.3,1-1.94,1A25.85,25.85,0,0,0,26,59.45,10.58,10.58,0,0,1,31,53.43Z"/><path class="cls-1" d="M35.37,60.07c-1.72,3.19-5.92,4.22-8.46,1.58C28.51,59.53,32.43,58.77,35.37,60.07Z"/><path class="cls-1" d="M17.61,61.5a11.9,11.9,0,0,0-7.1-2c-.67,0-1.39-.83-2.08-1.28l.21-.64c1.55.26,3.09.56,4.64.76a7.21,7.21,0,0,0,1.36-.2,1,1,0,0,1,.71.18c.91.9,1.77,1.84,2.65,2.76Z"/><path class="cls-1" d="M17.28,63c-1.25.08-2.21.18-3.16.16a1.13,1.13,0,0,1-.89-.55c-.08-.24.19-.7.43-.94C14.69,60.72,15.81,61.05,17.28,63Z"/><path class="cls-1" d="M70.49,3.89a1.2,1.2,0,1,0,1.19,1.2h0A1.2,1.2,0,0,0,70.49,3.89Z"/><path class="cls-1" d="M75.53,5a5,5,0,1,0-5,5,5,5,0,0,0,5-5ZM69.66,2.44l.68-1.16a.25.25,0,0,1,.34-.09.28.28,0,0,1,.1.09l.67,1.16A.26.26,0,0,1,71,2.7l-.45-.79-.46.79a.26.26,0,1,1-.44-.26ZM68.1,5.35a.25.25,0,0,1,.1.35.26.26,0,0,1-.35.09l-1.16-.68a.26.26,0,0,1-.09-.35l.09-.09L67.85,4a.26.26,0,0,1,.35.09.24.24,0,0,1-.1.34h0l-.78.46Zm3.35,2.38-.67,1.16a.25.25,0,0,1-.35.09.2.2,0,0,1-.09-.09l-.68-1.16a.25.25,0,0,1,.09-.34.26.26,0,0,1,.35.09l.46.78L71,7.48a.26.26,0,0,1,.35-.09A.25.25,0,0,1,71.45,7.73Zm-1-.94a1.7,1.7,0,1,1,1.7-1.7h0a1.7,1.7,0,0,1-1.7,1.7Zm2.52-1a.26.26,0,0,1-.26-.25.26.26,0,0,1,.13-.22l.78-.46-.78-.46A.25.25,0,0,1,73.13,4l1.16.67a.26.26,0,0,1,.09.35.2.2,0,0,1-.09.09l-1.16.68a.27.27,0,0,1-.12,0Z"/></g></g></svg>