<svg xmlns="http://www.w3.org/2000/svg" viewBox="0 0 82.76 111.99"><defs><style>.cls-1{fill:#fff;}</style></defs><g id="Layer_2" data-name="Layer 2"><g id="Layer_1-2" data-name="Layer 1"><g id="surface1"><path class="cls-1" d="M40.76,44.91c-.21.13-.31.29-.23.36s.28,0,.49-.1.32-.29.24-.37S41,44.78,40.76,44.91Z"/><path class="cls-1" d="M31.44,44.78a.61.61,0,0,0,.55.91.59.59,0,0,0,.31-1C31.91,44.28,31.59,44.31,31.44,44.78Z"/><path class="cls-1" d="M67.69,44.83a.53.53,0,0,0,.5,0c.1-.08-.06-.15-.34-.13S67.48,44.75,67.69,44.83Z"/><path class="cls-1" d="M5.14,44.93c0,.14.13.19.26.11s.26-.21.26-.29-.1-.1-.26-.1A.28.28,0,0,0,5.14,44.93Z"/><path class="cls-1" d="M22.61,49.52a.5.5,0,0,0,.37.89c.36,0,.49-.13.44-.45S22.9,49.26,22.61,49.52Z"/><path class="cls-1" d="M17.19,50.67c0,.58.18.66.76.29.41-.26.15-.81-.4-.81C17.34,50.15,17.19,50.38,17.19,50.67Z"/><path class="cls-1" d="M28.61,52.48c-.19.29.08,1.07.36,1.07s.84-.76.66-1A.67.67,0,0,0,28.61,52.48Z"/><path class="cls-1" d="M12.47,53.68c-.18.24-.26.47-.18.55.26.29,1-.13,1-.55S12.89,53.19,12.47,53.68Z"/><path class="cls-1" d="M11.34,55.28c-.26.29.08.63.63.63s.66-.39.08-.63S11.55,55.1,11.34,55.28Z"/><path class="cls-1" d="M29.81,56.33a.74.74,0,0,0,.58.58c.34.07.44,0,.36-.37a.71.71,0,0,0-.57-.58C29.84,55.88,29.73,56,29.81,56.33Z"/><path class="cls-1" d="M9.77,59.76a.48.48,0,0,0,.34.86.47.47,0,0,0,.53-.52A.49.49,0,0,0,9.77,59.76Z"/><path class="cls-1" d="M30.73,60.36a.73.73,0,0,0,.63.53c.57,0,.63-.29.18-.74S30.57,59.79,30.73,60.36Z"/><path class="cls-1" d="M30.18,62.62a.67.67,0,0,0,0,.6c.21.18,1-.32,1.13-.71S30.36,62.14,30.18,62.62Z"/><path class="cls-1" d="M27.4,66.94a4.32,4.32,0,0,0,.94,1.75c.14.19,1.16-.5,1.16-.73s-.21-.26-.45-.26A2.11,2.11,0,0,1,28,67.12C27.56,66.7,27.4,66.65,27.4,66.94Z"/><path class="cls-1" d="M12.65,67.28a.42.42,0,0,0,.11.55c.37.23,1.34-.13,1.2-.47S12.81,66.83,12.65,67.28Z"/><path class="cls-1" d="M16,69.19c-.28.29-.15.6.24.6.21,0,.39-.1.39-.23C16.66,69.22,16.24,69,16,69.19Z"/><path class="cls-1" d="M24.65,69.53a.49.49,0,0,0,.08.58c.37.36,1.23.15,1.23-.32S24.91,69.11,24.65,69.53Z"/><path class="cls-1" d="M20.64,70.24a.48.48,0,0,0,.95,0c.05-.32-.08-.45-.47-.45S20.59,69.92,20.64,70.24Z"/><path class="cls-1" d="M49.2,49.81a.55.55,0,0,0,.47.47c.57,0,.47-.76-.08-.87C49.22,49.34,49.12,49.44,49.2,49.81Z"/><path class="cls-1" d="M54.72,50.07a.56.56,0,0,0-.34.52c0,.55,1.15.34,1.26-.26C55.72,49.89,55.38,49.78,54.72,50.07Z"/><path class="cls-1" d="M42.65,53a.47.47,0,0,0,.94,0c0-.31-.08-.45-.47-.45S42.59,52.64,42.65,53Z"/><path class="cls-1" d="M59.41,53.74a.47.47,0,1,0,.94,0c.06-.32-.07-.45-.47-.45S59.36,53.42,59.41,53.74Z"/><path class="cls-1" d="M35,34.48c.07-.47,0-.57-.53-.55-1.33.08-1.81.29-1.73.71s.37.45,1.13.45S34.87,35,35,34.48Z"/><path class="cls-1" d="M22.14,86a2.39,2.39,0,0,0-1.05-.24c-.58,0-.73.16-.87.81-.28,1.44-.18,1.78.63,2.2a1.66,1.66,0,0,0,1,.27,3.31,3.31,0,0,0,.42-1.47C22.42,86.56,22.4,86.16,22.14,86Z"/><path class="cls-1" d="M24,86.56c-.63,0-.73.15-1.18,1.67l-.36,1.16,1.15.28a12.79,12.79,0,0,0,1.26.29c.26,0,.18-2-.11-2.72A.88.88,0,0,0,24,86.56Z"/><path class="cls-1" d="M30.57,97.74c1.31-.34,1.55-.71,1.6-2.8L32.25,93l-1.15-.21c-.61-.1-1.37-.26-1.63-.34s-.5,0-.5.31-.08,1.11-.15,1.84C28.63,96,28.66,96,29.31,96s.71-.16,1-1.31c.45-1.89.89-1.71.68.29a8.8,8.8,0,0,1-.31,1.86,2.68,2.68,0,0,1-1.39.18c-.68-.05-1.18,0-1.15.16C28.16,97.53,29.84,97.93,30.57,97.74Z"/><path class="cls-1" d="M30.41,64.58c2-1.28,2.75-2.25,2.75-3.48,0-1-.52-1.63-1.78-2.07l-.81-.29.76-.66a1.73,1.73,0,0,0,.11-2.83,2.42,2.42,0,0,0-1.26-.65c-.5,0-.47-.05.21-.6,1.83-1.5-.11-3.93-2.25-2.78-.5.26-.5.24-.35-.52.42-1.89-.89-2.57-2-1.05l-.55.79-.49-.82a3,3,0,0,0-1.18-1,5.79,5.79,0,0,0-.71-.27,5,5,0,0,0-1.75,1,2.84,2.84,0,0,1-.5.84l-.47.63-.79-.84a1.93,1.93,0,0,0-1.75-.86c-1.52,0-2.13.73-2,2.54A4.26,4.26,0,0,1,15.51,53a6.73,6.73,0,0,1-.84-.39c-1.54-.82-2.41-.53-3.64,1.23-1.44,2-1.57,2.46-.79,3.24s.84,1.42-.13,1.42c-1.78,0-2.28,1.7-.89,3.17a2.29,2.29,0,0,1,.63,1.07c0,.84.34,1.29,1.36,1.81l1,.52-.55.68c-1,1.34-.48,2.78,1.28,3.12.68.16,1,0,1.6-.55l.76-.73-.29.76A2,2,0,0,0,16.24,71c.66.24.82.16,1.5-.6a4.72,4.72,0,0,1,.89-.84,3.35,3.35,0,0,1,.49.92,1.93,1.93,0,0,0,2.44,1.2c.68-.18,1.07-.68,1.55-2,.18-.5.21-.5.28,0a2.79,2.79,0,0,0,1.81,1.65A2,2,0,0,0,27.06,70c.11-.53.24-.66.42-.48.52.53,1.94.32,2.78-.39a1.79,1.79,0,0,0,.81-1.7,2.13,2.13,0,0,0-.52-1.55c-.66-.65-1.05-.49-.84.32.1.44.05.52-.32.39a3.41,3.41,0,0,0-.57-.18c-.06,0-.11-.16-.11-.37A5.19,5.19,0,0,1,30.41,64.58ZM24.36,68c-1.38.78-1.54.81-3.85.7A8.44,8.44,0,0,1,14,65.78c-2.35-2.35-3.06-3.35-2.82-3.82a8.59,8.59,0,0,0,.36-1.78,7.57,7.57,0,0,1,2.12-5A10.12,10.12,0,0,1,18.42,52a11.55,11.55,0,0,1,3.77-.55,6.32,6.32,0,0,1,3.59.68,5,5,0,0,1,2.77,3c.11.5.08.48-.21-.15a6.54,6.54,0,0,0-3.4-2.86c-1.89-.73-5.34-.44-7.6.6a8.85,8.85,0,0,0-5.55,7.5c-.24,2,.21,3.09,2.1,5a9.35,9.35,0,0,0,6.2,3.22q5.31.36,8-5.13a6.79,6.79,0,0,0,1-4.19c0-1.73.06-2,.21-1.31C30.23,61.23,27.93,65.94,24.36,68Zm-1-1.34a6.68,6.68,0,0,1-5.71-.11,10.28,10.28,0,0,1-4.19-3.87,6.63,6.63,0,0,1,.05-4.82,10.36,10.36,0,0,1,5.87-4.69c2.7-.87,5.63-.24,7.13,1.49C29.31,58,27.56,64.61,23.34,66.65Z"/><path class="cls-1" d="M25.94,91.61c-1-.36-.82,3.75.15,4.77s1.65.79,2-1.18c.16-.94.39-2,.47-2.38.18-.66.11-.71-1-.89A8.45,8.45,0,0,1,25.94,91.61Z"/><path class="cls-1" d="M31,99.34l.6-.55.61.55a2.7,2.7,0,0,0,4.08,0c.55-.68.11-.84-.57-.21a2.14,2.14,0,0,1-3.12-.21,4.46,4.46,0,0,0-.81-.76,11.86,11.86,0,0,0-.87.92C30,100,30.05,100.23,31,99.34Z"/><path class="cls-1" d="M33.27,93.42a10.43,10.43,0,0,0,.13,4.11,1.14,1.14,0,0,0,1,.55c1.21,0,1.36-.29,1.42-2.51l.07-2.07-1.25-.16A2.55,2.55,0,0,0,33.27,93.42Z"/><path class="cls-1" d="M28.55,89.46a14.78,14.78,0,0,0-.39-1.8,1.18,1.18,0,0,0-1.75-.37c-.45.29-.87,2.93-.47,3,.15,0,.86.11,1.54.21l1.26.21Z"/><path class="cls-1" d="M26.51,85.46a3.65,3.65,0,0,1,2.54.18c1.84.58,2.18.39.63-.37A4.71,4.71,0,0,0,26,85c-.53.18-.89.1-1.78-.4a30.1,30.1,0,0,0-2.91-1.31,17.59,17.59,0,0,0-2-.65,26.38,26.38,0,0,0,3,1.54C25.28,85.64,25.49,85.72,26.51,85.46Z"/><path class="cls-1" d="M17.53,87.6a4.35,4.35,0,0,0,.15-2.06c-.1-1.89-.18-2.18-.86-2.89-1-1-2.12-1.12-1.86-.23A25.19,25.19,0,0,0,17.53,87.6Z"/><path class="cls-1" d="M35.86,90.3a7,7,0,0,0-.5-2.12,1.29,1.29,0,0,0-1.12-.58c-.84,0-1.18.61-1.44,2.57-.19,1.26-.21,1.23,1.86,1.47l1.36.18Z"/><path class="cls-1" d="M29.37,89.62c-.19,1.21-.29,1.13,1.93,1.49l.9.16L32,89.94a5.87,5.87,0,0,0-.58-2C30.68,86.74,29.71,87.53,29.37,89.62Z"/><path class="cls-1" d="M21.27,75.32a1.67,1.67,0,0,1,.37,1.15c0,1,1.31,3.07,2.44,3.91a3.23,3.23,0,0,0,3.71-.11c1.68-1.57.71-4.71-1.46-4.71-.92,0-2.33,1.17-2.31,1.91,0,.39.06.44.16.18a3.21,3.21,0,0,1,.55-.86c.92-1.05,2.67,0,2.67,1.62S26,80.77,24.26,79.88a6,6,0,0,1-2.1-3.49,2.38,2.38,0,0,0-.55-1.2c-.76-1-1.83-.92-2.72.16-1.26,1.46-.37,2.82,2.78,4.21,2.06.89,1.67.47-.58-.68-2.07-1-2.67-1.91-2.07-3A1.6,1.6,0,0,1,21.27,75.32Z"/><path class="cls-1" d="M36,86.5a1.64,1.64,0,0,0-.76-.65,3,3,0,0,0-2.59,0c-.92.39-.89.39-.52.81s.36.37.7,0a3,3,0,0,1,2.75-.11C36,86.82,36.07,86.79,36,86.5Z"/><path class="cls-1" d="M31.51,35.16a.75.75,0,0,0,.4-1.2C31.67,33.62,30,33,30,33.3c0,.08.32.37.68.66s.6.71.53.92S31.23,35.22,31.51,35.16Z"/><path class="cls-1" d="M13.89,99.71c1.25,1.65,4.34.94,5.39-1.23A3.74,3.74,0,0,0,19.7,96a20.05,20.05,0,0,0-3-7.39,53.43,53.43,0,0,1-2.54-4.92C13.18,81.37,13,81,13,81.53a29.82,29.82,0,0,0,2.51,5.87,27.71,27.71,0,0,1,3.27,7.54,3.7,3.7,0,0,1-.23,3A2.62,2.62,0,0,1,17,99.55a2.85,2.85,0,0,1-3-.34C13.44,98.71,13.36,99.05,13.89,99.71Z"/><path class="cls-1" d="M30.34,23.69c.94-.71,1-.68.68.37-.53,1.65.47,4.08,1.62,4.08.5,0,2.15-1.72,2.78-2.93.31-.6.31-.92,0-2.33a9.11,9.11,0,0,0-.53-1.73c-.28-.29-.83.45-1.31,1.73-.73,2.07-1,2-.86-.18.18-1.79.16-1.89-.34-1.89a.75.75,0,0,0-.68.37,1.78,1.78,0,0,1-.92.65c-.63.21-.76.18-.76-.16a2.11,2.11,0,0,1,.55-1,1.23,1.23,0,0,0,.42-1c-.21-.55-.31-.53-2.1.44-1.59.89-2,1.63-2,3.56v.9l1.39-.19A6.2,6.2,0,0,0,30.34,23.69Z"/><path class="cls-1" d="M27.72,42.5c.52-.08.44-.16-.58-.74A4.08,4.08,0,0,1,25,36.55c.42-1.44.11-1.23-.39.24A4.69,4.69,0,0,0,25,41,3.72,3.72,0,0,0,27.72,42.5Z"/><path class="cls-1" d="M22.29,42.55a8,8,0,0,1-1.2-2c-.32-.81-.47-1-.37-.5a6.09,6.09,0,0,0,2.54,3.88,3.55,3.55,0,0,0,1.71.65c.34-.07.13-.26-.76-.7A9.41,9.41,0,0,1,22.29,42.55Z"/><path class="cls-1" d="M28.76,34.09a.91.91,0,0,0,.76.89c1.21.31,1.39-.13.4-.89S28.66,33.2,28.76,34.09Z"/><path class="cls-1" d="M32.35,37.05c.4,0,.87-.76.71-1.18s-.63-.5-1.18-.16c-.26.19-.29.34-.05.79C32,36.79,32.22,37.05,32.35,37.05Z"/><path class="cls-1" d="M30.41,32.91c.71-.21.79-.34.79-1.26s-.05-1-.84-1.1S29,31,29,32.2C29,33,29.37,33.2,30.41,32.91Z"/><path class="cls-1" d="M23.13,76.21a5.45,5.45,0,0,1,3.75-3l.91-.18-.91,0a3.94,3.94,0,0,0-1.76.5c-1,.58-2.43,2.49-2.43,3.12C22.71,76.81,22.9,76.66,23.13,76.21Z"/><path class="cls-1" d="M15.61,74.77c-.21.13-.26.26-.13.26a1.64,1.64,0,0,0,.66-.26c.21-.13.29-.26.13-.26A1.82,1.82,0,0,0,15.61,74.77Z"/><path class="cls-1" d="M25.46,78.7c.06,0,.11-.18.11-.39s-.11-.4-.26-.4-.19.19-.11.4S25.41,78.7,25.46,78.7Z"/><path class="cls-1" d="M25,79a.49.49,0,0,0-.26-.42c-.13-.08-.26,0-.26.23s.13.42.26.42A.23.23,0,0,0,25,79Z"/><path class="cls-1" d="M12.94,48.86c.58.32.84.4.79.19a3.26,3.26,0,0,0-1.15-.92A4.31,4.31,0,0,0,7.23,49a2.27,2.27,0,0,0-.52,2.7c.18.29.21.16.1-.42s0-1,.68-1.76A4.12,4.12,0,0,1,12.94,48.86Z"/><path class="cls-1" d="M7.91,66.65c.32.31,1-.13.79-.5a.63.63,0,0,0-.42-.29A.51.51,0,0,0,7.91,66.65Z"/><path class="cls-1" d="M9.07,51.61a1.5,1.5,0,0,0,.23-.78A10.71,10.71,0,0,0,7.23,53C7.23,53.29,8.75,52.16,9.07,51.61Z"/><path class="cls-1" d="M8.8,74.64a4.11,4.11,0,0,0,2.1-3c0-.71-.11-.84-.6-.84-1,0-2.54,2.1-2.54,3.54C7.76,75.14,7.81,75.16,8.8,74.64Z"/><path class="cls-1" d="M23.11,95.75c.65.32,1.25.5,1.33.39a7.64,7.64,0,0,0,.34-2c.11-1,.24-2.07.29-2.28s-.39-.5-1.6-.84c-.94-.23-2.12-.57-2.62-.73-1.33-.42-1.33-.42-.6,1.21C21.85,95.1,21.9,95.15,23.11,95.75Z"/><path class="cls-1" d="M58.57,92.29c0-.39-.39-.26-1.49.55a3.69,3.69,0,0,0-1.2,1.34c-.11.37-.06.47.15.29C57.76,93.21,58.57,92.5,58.57,92.29Z"/><path class="cls-1" d="M50.66,103.71l.6-.6a2.53,2.53,0,0,0,.14-3.17c-.55-.63-.84-.68-1.08-.26-.1.16,0,.45.37.66,1,.73,1.18,1.33.55,2.4Z"/><path class="cls-1" d="M55.3,87.84c.05-.08.71-1.44,1.41-3.06L58,81.84h-.89c-.78,0-1,.13-1.44,1a7.49,7.49,0,0,0-.57,2C55,86.24,55.14,88,55.3,87.84Z"/><path class="cls-1" d="M56.24,97.72a1,1,0,0,0-.63-.42c-.13,0,0,.23.21.52.61.66.76.66,1.44,0a1.15,1.15,0,0,0,.37-1.08,8.22,8.22,0,0,1-.34-1.7c0-.37-.71-.42-.94,0a.32.32,0,0,1-.42.13c-.26-.18-.79,1-.74,1.65,0,.24.13,0,.27-.42s.36-.78.55-.68.23.24,0,.31c-.42.14-.4.61.1,1.24s.39.52.79,0c.18-.29.42-.44.49-.36s-.07.39-.34.73C56.63,98.08,56.56,98.11,56.24,97.72Z"/><path class="cls-1" d="M47.07,101.09a2.76,2.76,0,0,1,2.57.61c.21.36.32.36.58.13.42-.42-.24-1-1.6-1.39a3.54,3.54,0,0,0-2.78.1c-1.46.66-1.83,3.41-.6,4.64a3.92,3.92,0,0,0,3.35.26c.26-.18,0-.23-.86-.21-1,.06-1.34,0-1.76-.57A2.29,2.29,0,0,1,47.07,101.09Z"/><path class="cls-1" d="M45.74,99.08A16.25,16.25,0,0,1,48.23,98a9.77,9.77,0,0,0,1.7-.68c.76-.47.08-.45-1.44.1-1.91.68-3.07,1.28-3.56,1.89C44.66,99.63,44.9,99.55,45.74,99.08Z"/><path class="cls-1" d="M39.79,85.8c-1.39-.4-1.91-.32-2.75.44s-.55.92.18.42,1.58-.42,3,0c.42.16.58.08.58-.21S40.37,86,39.79,85.8Z"/><path class="cls-1" d="M53.33,90.07c0-.16-.26-.11-3.4.78-1.65.5-4.35,1.16-6,1.5s-3.09.7-3.25.78-.24.79-.05,2.25l.23,2.05,1,.21a5.68,5.68,0,0,0,4-.84c.92-.58,1.39-1.78,1.39-3.64,0-.79.1-1.1.31-1,.45.16.76,2.07.42,2.49a1.37,1.37,0,0,0-.15.92c.07.52.21.6,1,.52,1.47-.11,2-.71,3.28-3.38C52.81,91.27,53.33,90.09,53.33,90.07Z"/><path class="cls-1" d="M70.52,34.17c.52,0,.65-.11.52-.42a2.8,2.8,0,0,1-.16-.66c0-.34-.36-.28-.73.08C69.63,33.7,69.78,34.17,70.52,34.17Z"/><path class="cls-1" d="M15.56,92.35a2.69,2.69,0,0,0-.84-.55c-.36,0-.07.41,1.16,1.72.73.76,1.31,1.24,1.31,1.08A4.57,4.57,0,0,0,15.56,92.35Z"/><path class="cls-1" d="M56.22,100.47a2.25,2.25,0,0,0,2-.06,1.58,1.58,0,0,0,.86-.86c.11-.45.08-.47-.49,0-1.13.78-2.6.39-3.91-1-.57-.63-.65-.92-.65-2.7,0-2.39.47-3.57,3.12-8.15a33,33,0,0,0,2.12-4.24c.71-2.12.31-2-.6.21a43,43,0,0,1-2.55,4.92c-2.09,3.51-2.8,5.27-3,7.36C52.94,98.34,54,99.86,56.22,100.47Z"/><path class="cls-1" d="M40.45,91.35l1.38-.18a13.53,13.53,0,0,0,1.45-.24,15.75,15.75,0,0,0-.24-1.7c-.29-1.6-.29-1.63-1.15-1.63s-1,0-1.26,2.47Z"/><path class="cls-1" d="M62,64.55a2.84,2.84,0,0,0,1.57-2.17,2.11,2.11,0,0,1,.65-1,1.91,1.91,0,0,0,.66-1.47c0-1-.34-1.23-1.89-1.52-1.15-.21-1.28-.73-.34-1.15s.84-1.41-.31-2.88a17.63,17.63,0,0,0-1.47-1.7c-.55-.47-2.41-.63-2.67-.19a1,1,0,0,1-.71.27c-.49,0-.52-.11-.39-1.16a2,2,0,0,0-.34-1.8c-1-1.23-2.38-1.13-3.56.26-.61.71-.58.73-1.71-.79a1.94,1.94,0,0,0-3-.05,2.1,2.1,0,0,0-.66.92c0,.6-.47.21-.6-.53s-.29-.78-1.1-.78h-.92v3.38l-.65-.63a2.06,2.06,0,0,0-1.36-.66c-2.12,0-2.65,2.33-.74,3.36.53.28.53.28-.05.31a2.38,2.38,0,0,0-1.78,2.33c.21.81.86,1.6,1.36,1.6.19,0,.34.1.34.26s-.23.26-.52.26a2,2,0,0,0-1.18.66c-1.26,1.26-.52,3.64,1.36,4.5.55.27,1,.47,1.1.53a2.52,2.52,0,0,1-.6.86c-1.1,1.34-.92,3.14.39,3.8.95.5,1.42.5,1.91,0,.4-.36.42-.36.42.16a2.38,2.38,0,0,0,2,1.83,2.52,2.52,0,0,0,1.55-.86l.86-.86.84,1c.76.89.95,1,1.91.91s1.16-.18,1.71-1.2c.7-1.26,1-1.36,1.36-.47.79,2.07,3.75,1,3.3-1.18-.29-1.47.84-2.41,1.68-1.42.28.34.21.4-.47.4-1,0-1.34.47-.69,1a1.93,1.93,0,0,0,2.28-.37A1.88,1.88,0,0,0,61.59,66C61,65.23,61.11,64.92,62,64.55Zm-1.39-9.14c.6-.34,1-.23,1.07.32.08.31-.1.44-.57.44C60.25,56.17,60,55.75,60.59,55.41ZM56.5,67.88a11.5,11.5,0,0,1-7.23.5,12.25,12.25,0,0,1-4.82-4.69,11.39,11.39,0,0,1-.86-6.23l.29-1.16-.16,1.47c-.37,3.93,1.94,8.38,5.21,10.08a9,9,0,0,0,2.6.58,9.48,9.48,0,0,0,9-5c1.86-3.74-.29-8.22-5.21-10.76-1.47-.76-1.76-.84-4.32-.84s-2.88.08-4.3.76a3.48,3.48,0,0,0-2.15,2.09c-.65,1.42-.89,1.26-.26-.18a4.81,4.81,0,0,1,3.09-2.59,9.44,9.44,0,0,1,3.88-.39c3.09.07,4.61.73,7.18,3.09,2.17,2,3,3.72,3,6C61.45,63.69,59.65,66.33,56.5,67.88ZM47.83,53.47a4.87,4.87,0,0,1,3.43-.63,9.92,9.92,0,0,1,6.45,3c1.6,1.68,2.17,2.88,2.17,4.69a5.59,5.59,0,0,1-2.22,4.64C55,67.38,52,67.88,49.33,66.57c-1.6-.81-2.52-1.83-3.54-4.06a7.4,7.4,0,0,1-.68-3.72C45.08,55.83,45.74,54.55,47.83,53.47Z"/><path class="cls-1" d="M51.29,79.22a5.91,5.91,0,0,0-1.52,1,6.55,6.55,0,0,0,2-.86c2.81-1.47,3.49-2.67,2.33-4.14a1.84,1.84,0,0,0-3.24,1c-.66,3-3,4.84-4.85,3.85a2.25,2.25,0,0,1-.42-2.75,1.69,1.69,0,0,1,2.52-.21c.23.42.26.39.2-.18a1.83,1.83,0,0,0-2.22-1.18,3.32,3.32,0,0,0-1.31.81c-.58.57-.66.84-.53,1.83A3.61,3.61,0,0,0,44.82,80a3.41,3.41,0,0,0,3.35.71,6.38,6.38,0,0,0,3.07-3.88c.39-1.47.68-1.81,1.54-1.81s1.34.45,1.34,1.44S53.52,78.07,51.29,79.22Z"/><path class="cls-1" d="M48.1,78.44c-.21.13-.29.31-.19.42s.34,0,.5-.11C48.8,78.36,48.59,78.12,48.1,78.44Z"/><path class="cls-1" d="M49.93,76.47a4.64,4.64,0,0,0-2.1-3.06A4.37,4.37,0,0,0,46,73c-1,0-.86.11.55.34A4.28,4.28,0,0,1,49.43,76C49.75,76.63,49.93,76.81,49.93,76.47Z"/><path class="cls-1" d="M68.63,53.81a9.08,9.08,0,0,1,1.15-2.41,5.48,5.48,0,0,0,.84-1.49c0-.16-.29-.29-.65-.29-.92,0-1.71,1.84-1.68,3.88V55Z"/><path class="cls-1" d="M29,99.5c.21-.21-.53-.61-3.12-1.71s-3.54-1.44-3.3-1.07a7.73,7.73,0,0,0,2.07,1,30.86,30.86,0,0,1,3,1.31A2.81,2.81,0,0,0,29,99.5Z"/><path class="cls-1" d="M25.73,103.32c.05,0,.1-.13.1-.26a.27.27,0,0,0-.29-.26c-.13,0-.18.1-.1.26S25.65,103.32,25.73,103.32Z"/><path class="cls-1" d="M39.79,90.12a6.49,6.49,0,0,0-.5-1.94A1.25,1.25,0,0,0,37.36,88c-.34.39-.82,3.51-.55,3.64a9.31,9.31,0,0,0,1.65,0L40,91.48Z"/><path class="cls-1" d="M16.85,95.75c.68.63.6.26-.14-.63-.55-.63-.81-.55-1,.24a.94.94,0,0,0,.44,1.18c1,.73,1.16.57.37-.32S15.9,94.89,16.85,95.75Z"/><path class="cls-1" d="M26.51,105.68a2,2,0,0,0,1.49-.47,3.41,3.41,0,0,0-.52-4.51,3.07,3.07,0,0,0-3.48,0c-.92.63-1.31,1.26-.79,1.26a2.36,2.36,0,0,0,1-.52,1.92,1.92,0,0,1,3.09.55c.89,1.7.18,3.14-1.54,3.19C24.44,105.26,25.15,105.68,26.51,105.68Z"/><path class="cls-1" d="M15.3,96.64c-.16.29.26,1.6.45,1.39a2,2,0,0,0-.08-.86C15.54,96.75,15.38,96.51,15.3,96.64Z"/><path class="cls-1" d="M16,96.77c-.05,0,0,.19.05.4s.29.39.42.39.13-.16-.05-.39A1.64,1.64,0,0,0,16,96.77Z"/><path class="cls-1" d="M22.69,100.18a.25.25,0,0,0,.26-.24c0-.52-.79-.5-1.18,0a2.62,2.62,0,0,0,0,2.7c.34.45.37.42.13-.39a1.67,1.67,0,0,1,.13-1.52C22.27,100.44,22.56,100.18,22.69,100.18Z"/><path class="cls-1" d="M37.09,100a2.62,2.62,0,0,0,3.46-.55c.68-.76.71-.76,1.15-.26a1.8,1.8,0,0,0,1.13.49c.66,0,.66,0-.24-.55a5.67,5.67,0,0,1-1.17-.86c-.19-.24-.45-.11-1,.52a2.14,2.14,0,0,1-2.85.76C36.52,99,36.23,99.29,37.09,100Z"/><path class="cls-1" d="M38.22,93.31c-1,.08-1.1.16-1.26.87a5.88,5.88,0,0,0,.58,3.69c1.2,1.34,2.3-.05,2.25-2.77a4.67,4.67,0,0,0-.26-1.71A3.34,3.34,0,0,0,38.22,93.31Z"/><path class="cls-1" d="M46.89,89.23a5.9,5.9,0,0,0-.52-1.57,1.15,1.15,0,0,0-.71-.55c-.63,0-1.23.29-1.23.44s-.19.87-.39,1.73l-.37,1.52,1.23-.18C47.05,90.33,47.07,90.3,46.89,89.23Z"/><path class="cls-1" d="M51.42,89.05a2.9,2.9,0,0,0,1-.45,2.38,2.38,0,0,0,.08-2.33c-.26-.5-.68-.58-1.68-.32-.39.11-.44.29-.31,1.08a14.2,14.2,0,0,1,.15,1.6C50.71,89.15,50.79,89.2,51.42,89.05Z"/><path class="cls-1" d="M49.17,89.65c1.1-.32,1.18-.53.73-2.12-.26-1-.76-1.21-1.52-.74-.44.29-.86,3.17-.47,3.17A7,7,0,0,0,49.17,89.65Z"/><path class="cls-1" d="M51,83.52a18.72,18.72,0,0,0-2.88,1.41,1.15,1.15,0,0,1-1.47.16,4.7,4.7,0,0,0-1.57-.34,5.68,5.68,0,0,0-3.27,1.39c-.34.44-.32.44.65,0,2-.83,2.81-1,3.85-.68s1.13.24,4-1.15c1.65-.81,3-1.52,3-1.57S53.41,82.55,51,83.52Z"/><path class="cls-1" d="M38.72,82.1a2.88,2.88,0,0,0-1.63.71c-.47.39-.91.58-1,.45a3.45,3.45,0,0,0-.84-.71,3.07,3.07,0,0,0-4,.94c-.76,1-.58,1.47.21.63,1.2-1.31,2.72-1.6,3.85-.71a2.43,2.43,0,0,0,1,.53,2.36,2.36,0,0,0,1-.53,2.86,2.86,0,0,1,3.67.29c1,.84,1.26.76.58-.18A4.25,4.25,0,0,0,38.72,82.1Z"/><path class="cls-1" d="M68,36.92c-.08-.42-.1-.42-.52,0a4.56,4.56,0,0,0-1,3c0,1,0,1.05.71.87A7.13,7.13,0,0,0,68.92,40c.92-.61,1-.84,1.13-1.81l.07-1.1-1,.16C68.24,37.34,68,37.29,68,36.92Z"/><path class="cls-1" d="M2.15,35.32c-.5-.47-.58-.47-.79,0s-.2.5.58.74S2.73,35.9,2.15,35.32Z"/><path class="cls-1" d="M4.74,45.35a2.35,2.35,0,0,0,.66.34c.42,0,1.1-.73.94-1a1.22,1.22,0,0,0-.94-.32C4.46,44.38,4.12,44.88,4.74,45.35Z"/><path class="cls-1" d="M4.53,61a10.85,10.85,0,0,0-.94-2.49c-.57-1.2-1.07-2-1.07-1.7C2.52,57.43,4.4,61.38,4.53,61Z"/><path class="cls-1" d="M3,33.78A2.6,2.6,0,0,1,4.56,35c.63,1,.86,1.1,1.83,1.18s1.1,0,1.1-.73a10,10,0,0,0-.86-3.62,4.08,4.08,0,0,0-.94-.68c-1.13-.57-2.05-.7-2.31-.34-.65.84-.57,1.15.42,1.44A5.16,5.16,0,0,1,5.27,33c.44.34.47.42.13.65a1.73,1.73,0,0,1-2.1-.26c-.78-.6-1-.65-1-.15C2.26,33.44,2.6,33.67,3,33.78Z"/><path class="cls-1" d="M5.14,29.9l1.07.16L5.77,28.9c-.27-.63-.48-1.18-.5-1.23a4.68,4.68,0,0,0-.79.87c-.39.52-.65,1-.57,1.07A3.91,3.91,0,0,0,5.14,29.9Z"/><path class="cls-1" d="M2.1,34.69a1,1,0,0,1,.68.5c.34.65,1,1.34,1.34,1.34s.26-.5-.24-1c-.81-.81-1.86-1.36-2-1.1S1.89,34.69,2.1,34.69Z"/><path class="cls-1" d="M1.36,37.05c-.44,0-.68.58-.68,1.6,0,.57.13.76.53.76s.52-.19.52-1.18C1.73,37.39,1.63,37.05,1.36,37.05Z"/><path class="cls-1" d="M25.44,29.4A4.86,4.86,0,0,0,26.88,27c0-.21-.6-.14-1.7.26l-1.1.39c-.24,0-.87,1.7-.76,2C23.53,30.16,24.63,30.06,25.44,29.4Z"/><path class="cls-1" d="M5.11,54.73l0-1.31a5.66,5.66,0,0,0-.58-2.49c-.42-.78-.79-1.2-1.18-1.25-.81-.11-.76.36.11,1.65a15.48,15.48,0,0,1,1.15,2.22Z"/><path class="cls-1" d="M9.12,32.65c.94.26,1.1.26,1.41-.16s.55-.44,1.34-.31a13.54,13.54,0,0,0,5.84-.89,11.35,11.35,0,0,0,2-1.34c.53-.47,1-.78,1-.73a11.17,11.17,0,0,1,.68,2.12,9.75,9.75,0,0,1-1.65,2c-2.2,2.33-2.7,3.06-3.22,4.92l-.42,1.55L15.2,39a4.13,4.13,0,0,0-5.61-.42,4.52,4.52,0,0,0-1.7,3.36C7.49,45,6.11,47,4.64,46.45a1.85,1.85,0,0,1-1.07-1c-.32-.74-.29-1.1.15-2.2.19-.48.16-.48-.23-.16-.76.6-.58,2.28.31,3.19s1.57,1,2.57-.1a6.81,6.81,0,0,0,1.88-3.9c.5-2.81,1.73-4.14,3.8-4.14A5.38,5.38,0,0,1,15.69,40a3.86,3.86,0,0,1-.21,4.24c-.52.55-.89.66-2.09.66a3.92,3.92,0,0,1-3.22-1.15c-.37-.32-.55-.4-.45-.16.29.78,2.07,1.67,3.56,1.78,1.34.1,1.55,0,2.36-.68s.89-.81,1-3.51c.19-3.46.81-4.87,3.38-7.52l1.86-1.94,1.08.74c1.33.94,1.41,1.1.65,1.28-1.05.26-3,2.57-3.41,4.11-1.1,3.7.16,6.73,3.33,8.1,1.18.52,1.63.55,3.62.39s2.3-.13,3.24.5c1.16.78,1.76.86,2.26.23.34-.39.31-.39-.21-.1s-1.29.13-2.23-.71-.34-2.7,1-3.2a2.91,2.91,0,0,1,3,1.08,11.87,11.87,0,0,1,1.54,4.92,9.16,9.16,0,0,1-1.59,4.8c-.84,1.07-.68,1.36.23.39a7.67,7.67,0,0,0,1.73-5.16,6.09,6.09,0,0,0-.84-3.72c-1.2-2.49-2.64-3.48-4.21-2.93A3.74,3.74,0,0,0,29.24,45c0,.44-.19.63-.82.76-3.45.68-6.57-.66-7.7-3.3s.5-7.15,3.07-8.49a2.38,2.38,0,0,1,2.09-.1c1.71.42,1.89.18.29-.4-2.46-.83-3.46-1.49-4.27-2.69-.94-1.45-1-1.68-.16-2.75,1.79-2.39,1.44-5.79-.65-6.89a4.24,4.24,0,0,0-3.93.23,3.17,3.17,0,0,0-1.55,3,3.68,3.68,0,0,0,2.13,3.09c.86.47,1,.47,1,.13,0-.16-.19-.26-.42-.26A3,3,0,0,1,17,26.47a2.31,2.31,0,0,1-.89-2.1,2.66,2.66,0,0,1,.89-2.2,2.26,2.26,0,0,1,2.23-1A2.27,2.27,0,0,1,21.4,22a2.84,2.84,0,0,1,1,2.15,5.53,5.53,0,0,1-1.23,4.06c-.44.42-.47.34-.63-1.49a14.54,14.54,0,0,0-.34-2.39c-.23-.65-.7-.5-.52.16A18.33,18.33,0,0,1,20,27.1l.16,2-1,.73a9.27,9.27,0,0,1-7.73,1.44A7.88,7.88,0,0,1,7.1,27.49c-.57-1.13-.81-1.39-.86-1A21.18,21.18,0,0,0,7.78,32,3.73,3.73,0,0,0,9.12,32.65Z"/><path class="cls-1" d="M3.8,37.05c-1.28,0-1.28,0-1.28.86a1.94,1.94,0,0,0,.73,1.55c.84.84,2.15,1.55,2.46,1.36S6,38.23,5.5,37.63,4.85,37.05,3.8,37.05Z"/><path class="cls-1" d="M14.41,19.21c1.41-.76,3.77-1.88,5.24-2.49s2.41-1.15,2.12-1.12c-1.28,0-7.65,3-9.22,4.35C12.1,20.34,12.84,20,14.41,19.21Z"/><path class="cls-1" d="M14,30.21l1.52,0L14.17,30a7.68,7.68,0,0,1-5.71-3.56,5.54,5.54,0,0,0-.83-1.16c-.29,0-.11.47.62,1.6C9.83,29.3,11.48,30.27,14,30.21Z"/><path class="cls-1" d="M30.81,45c0,.44.89,1.18,1.39,1.18s.86-1.18.44-1.7A1,1,0,0,0,30.81,45Z"/><path class="cls-1" d="M12.21,41.63a.4.4,0,0,0-.39-.39c-.21,0-.4.11-.4.24s.19.28.4.39S12.21,41.87,12.21,41.63Z"/><path class="cls-1" d="M10.74,42.16c-.91-1-1.25-.74-.42.29,1.39,1.72,4,1.17,4-.84a1.65,1.65,0,0,0-.52-1c-.63-.58-.65-.45-.13.55s0,1.78-1.15,1.88C11.82,43.1,11.48,42.94,10.74,42.16Z"/><path class="cls-1" d="M.47,44.91.26,40.85l-.2,2.36a30.75,30.75,0,0,0,.65,8.35c.39,1.44.47,1.08.21-.89C.79,49.73.58,47.13.47,44.91Z"/><path class="cls-1" d="M68.26,63.64c-.44-1,0,1.44.74,3.8.86,2.85.89,5,.08,6.54-1.29,2.6-1.84,2.75-1.21.37.42-1.65.53-3.51.19-3.51a1,1,0,0,0-.53.31c-.21.21-.31.21-.31,0a1,1,0,0,1,.39-.6c.39-.34.31-1.21-.21-2.2-.24-.47-.31-.37-.76.78s-.5,1.65-.34,4.22c.18,3,.08,3.43-.65,2.57a10.79,10.79,0,0,0-3.75-1.73,6.82,6.82,0,0,0-3.09,0c-2.12.34-2.65.79-.68.58.91-.11,1.67.08,3.74.89L65,77c.27.08.45.24.37.29a20.81,20.81,0,0,1-3.61-1.05,26.91,26.91,0,0,0-3.59-1.07,67.86,67.86,0,0,0,7.38,3.64,12.64,12.64,0,0,1-3.06.15c-4.9,0-7.15.53-13.12,2.75-3,1.16-5.4.76-6.55-1a2.61,2.61,0,0,0-.76-.89c-.76,0,.76,2.12,1.88,2.67a7.18,7.18,0,0,0,5.58-.21,27.49,27.49,0,0,1,13-2.67c3.83,0,4.69-.21,6-1.84a9.28,9.28,0,0,0,2.28-6.2,8.94,8.94,0,0,0-1.12-4.72C69,65.34,68.4,63.93,68.26,63.64Z"/><path class="cls-1" d="M69.73,58.5a7.37,7.37,0,0,0-.84,2.31A5.52,5.52,0,0,0,70,59a7.85,7.85,0,0,0,.84-2.3C70.78,56.51,70.28,57.32,69.73,58.5Z"/><path class="cls-1" d="M45,107.22c0-.13-.52-.52-1.12-.89-1.65-.94-2.83-.89-3.93.24a3.82,3.82,0,0,0-1,1.6l-.13.68.76-.74c.74-.7.89-.73,3.12-.7A7.17,7.17,0,0,0,45,107.22Z"/><path class="cls-1" d="M62,81.37c-1.1,1.36-1.89,8-1.41,12.21.18,1.54.31,3.35.31,4,0,2.36-1.57,4.45-4.19,5.66-4.58,2.12-5.79,2.83-7.34,4.16a18.87,18.87,0,0,1-5.89,3.85c-1.36.53-1.47.6-.84.68,1.71.21,3.78-.89,7.65-4.08A26,26,0,0,1,54.85,105c3.43-1.62,4.77-2.64,5.71-4.32l.76-1.39.06-5.76c0-6.21.15-8,.76-10.58C62.53,81.21,62.5,80.79,62,81.37Z"/><path class="cls-1" d="M73,41a30.58,30.58,0,0,0-.37,5c-.11,2.77-.24,5.47-.34,6s-.11.84,0,.76c.44-.42.94-4.53.94-8A15.55,15.55,0,0,0,73,41Z"/><path class="cls-1" d="M71.51,35.4c-.29-.73-.89-.47-.89.39,0,.53.21.58.74.26A.54.54,0,0,0,71.51,35.4Z"/><path class="cls-1" d="M72.4,38.41c-.05-.78-.18-1-.65-1s-.6,0-.6.82c0,.6.15,1,.42,1.07C72.35,39.54,72.48,39.41,72.4,38.41Z"/><path class="cls-1" d="M34.13,108.46a2.34,2.34,0,0,0-1-2c-1.13-.94-2.33-1-3.83,0s-1.46,1.23.79,1a4.45,4.45,0,0,1,2.78.29c1,.52,1.41,1.15.57.94a1.61,1.61,0,0,0-1.86,1.47c0,.83.84,1.72,1.42,1.51C33.74,111.34,34.29,109.87,34.13,108.46Z"/><path class="cls-1" d="M22.9,82c2.41,1,4.61,1.18,6.2.52.92-.39,2.36-2.25,2.18-2.8-.05-.16-.39.13-.73.63-1.6,2.3-3.78,2.57-8,1a29.45,29.45,0,0,0-9.8-2.23c-1.52-.08-3.27-.21-3.93-.31l-1.17-.13,1.17-.37c1.26-.39,6.63-3.22,6.13-3.25-.18,0-1.73.47-3.48,1-3.8,1.26-4.69,1.36-1.6.16,1.23-.48,2.49-1,2.8-1.16a7.56,7.56,0,0,1,1.58-.55l1-.21L14,74.14a9.61,9.61,0,0,0-5.48,1.1L7.08,76l-.42-.87c-.32-.65-.34-.83-.08-.73.44.16.65-.65.63-2.59,0-1.57-.63-3.41-1.16-3.38s-.57,1.52-.18,2.28c.18.42.29.84.18.91s-.21-.1-.31-.42-.24-.49-.37-.41c-.36.21-.29,2.17.13,3.77.58,2.17.06,2.15-1-.08s-1.1-3.75-.11-7.05c1.39-4.71.73-4.16-1.36,1.1a5.68,5.68,0,0,0-.63,3.43,10.16,10.16,0,0,0,2.31,5.61c1.62,1.86,2.22,2,7.67,2.25C17.42,80,18.47,80.19,22.9,82Z"/><path class="cls-1" d="M23.68,107.36c-1.57-1.37-3-2.18-7.23-4.06a7.35,7.35,0,0,1-4.27-4.17,7.29,7.29,0,0,1,0-3.38,37,37,0,0,0,.31-4.24,44.81,44.81,0,0,0-1.18-8.83c-.39-1.31-1-2-.81-.79s.63,3.44.84,4.8c.08.71.16,3.53.13,6.28,0,5.9.21,7,1.86,8.88.86,1,1.78,1.6,4.3,2.83a29.52,29.52,0,0,1,5.78,3.64c3,2.41,4.67,3.3,6.5,3.54l1.31.13-1.73-.76A20.63,20.63,0,0,1,23.68,107.36Z"/><path class="cls-1" d="M36.36,105.42c0,.49,0,.7.13.44a2.78,2.78,0,0,0,0-.91C36.41,104.71,36.36,104.92,36.36,105.42Z"/><path class="cls-1" d="M37.33,106.2c.47-1.31.34-2.3-.37-2.77-.34-.21-.76-.34-.91-.24a3,3,0,0,0-.92,2c.1.19-.05.06-.32-.23a10,10,0,0,0-1.62-1.39,4.68,4.68,0,0,0-1.52-.81c-.65,0-.34.52.68,1,2,1.05,2.75,2.49,2.75,5.63,0,1.28-.08,1.6-.6,2s-.58.5-.08.5a1.77,1.77,0,0,0,1.1-.74c.53-.63.58-.94.47-2.72a6,6,0,0,0-.49-2.46c-.32-.4-.32-.42,0-.24s.34.08.18-.47c-.18-.74.21-2,.6-2,.71,0,1.08.87.94,2.18C37.15,106.46,37.17,106.67,37.33,106.2Z"/><path class="cls-1" d="M38.8,111.39c-.71-.55-.71-.6-.61-2.83.13-2.88.63-3.8,2.52-4.71a4,4,0,0,0,1.36-.84c0-.53-1.54,0-2.8,1-1.08.81-1.52,1.65-1.91,3.67-.5,2.54.21,4.3,1.72,4.3C39.4,112,39.35,111.83,38.8,111.39Z"/><path class="cls-1" d="M40.89,108.72c-1.78-.68-2.51,1.1-1,2.46.74.68,1.34.55,1.71-.39A1.72,1.72,0,0,0,40.89,108.72Z"/><path class="cls-1" d="M36.62,107.38c0,.42.05.58.13.32a1.75,1.75,0,0,0,0-.79C36.67,106.75,36.62,106.94,36.62,107.38Z"/><path class="cls-1" d="M67.32,44.49c-.36.29-.42.47-.21.68a1,1,0,0,0,1.63-.47C68.84,44,68.13,43.91,67.32,44.49Z"/><path class="cls-1" d="M65.07,75c.78,0,.08-2.85-.89-3.69-.6-.53-1.52-.84-1.76-.58s-.21,1.39.21,2.18A5.4,5.4,0,0,0,65.07,75Z"/><path class="cls-1" d="M65.59,66.47a.7.7,0,0,0-.39-.53.4.4,0,0,0-.31.74C65.44,67,65.7,67,65.59,66.47Z"/><path class="cls-1" d="M32,78.78a4.21,4.21,0,0,0,1.36,1.52c.86.55,1,.55,1.78.15a2.35,2.35,0,0,0,1-.94c.15-.52.21-.5,1,.37,1,1,1.18,1.07,2.25.52S41,78.75,41,76.81c0-2.77-.89-5.31-3.32-9.45a8,8,0,0,0-1.42-2c-.34,0-3,4.61-3.77,6.68C31.54,74.4,31.33,77.39,32,78.78Z"/><path class="cls-1" d="M36.18,57.48c.23.39.65.32.65-.1a.76.76,0,0,0-.23-.55C36.28,56.64,36,57.14,36.18,57.48Z"/><path class="cls-1" d="M60.9,41.66c.27-.29.19-.45-.28-.79-.71-.49-1-.52-1.47-.1a1.81,1.81,0,0,0,.26,2.3c.89.82,1.94.69,3-.39.53-.52.87-1,.79-1.07s-.47.21-.89.65c-1.47,1.57-3.62.87-2.94-1,.29-.76.92-.6.84.19C60.14,42.11,60.46,42.18,60.9,41.66Z"/><path class="cls-1" d="M65.91,52.92a7.89,7.89,0,0,0-1.18-1.31c-1.15-1.15-1.6-1.12-.76.06C64.34,52.19,65.91,53.21,65.91,52.92Z"/><path class="cls-1" d="M66.46,52.11,66.33,51a3.92,3.92,0,0,0-2.44-3.07c-1.49-.62-3.77-.31-4.66.69-.6.65-.5.65,1.05,0A4.08,4.08,0,0,1,66,50.8Z"/><path class="cls-1" d="M45.89,42.05l-1.07.47h1.1c2,.06,3.43-2.22,2.93-4.82a7.09,7.09,0,0,0-.49-1.65c-.21-.36-.24-.34-.13.21C48.8,39.35,48.12,41,45.89,42.05Z"/><path class="cls-1" d="M39,24.21a7.57,7.57,0,0,1-1.36-2.85c0-.16-.21-.29-.5-.29s-.55.32-.79,1.57c-.39,1.92-.18,2.41,1.92,4.43,1.25,1.23,1.49,1.39,1.86,1.07.89-.76,1.25-1.86,1.1-3.58s-.08-1.81,1.07-.79a3.26,3.26,0,0,0,2.15.65c1.54.11,1.57.11,1.57-.57A10.29,10.29,0,0,0,45.71,22C45.45,21,45.24,20.7,44,20s-2.23-1-2.23-.65a7.74,7.74,0,0,0,.52,1.18c.63,1.23.63,1.31.16,1.31-.21,0-.63-.37-.94-.79s-.74-.78-.95-.78-.36.18-.23.78c.18.84-.13,1-.66.39-.65-.78-.84-.41-.65,1.18C39.16,23.61,39.14,24.21,39,24.21Z"/><path class="cls-1" d="M36.15,36.6c-.26-.76-.81-1-1.89-.65l-.62.18.55.68C35.21,38.12,36.65,38,36.15,36.6Z"/><path class="cls-1" d="M33.37,39.59c1-1.1.63-2.46-.62-2.2a1.42,1.42,0,0,1-1.21-.26c-.39-.34-.47-.34-.71.16a3,3,0,0,0,0,2.59A2,2,0,0,0,33.37,39.59Z"/><path class="cls-1" d="M44.69,36.26c-1.47,0-1.65-.26-1.31-1.62s.11-2.1-1.13-2.83c-1.8-1.13-3.85-.18-3.85,1.73a1.76,1.76,0,0,0,.82,1.52,1.77,1.77,0,0,0,2.48.26c.5-.39.5-.42,0-.23-1.15.41-1.63.41-2.18-.06-1.33-1.12-.78-2.83,1-3.14,2-.31,2.83,1,1.94,3.2-.34.75-.34.86,0,.73s.37,0,.37.16c0,.41,2.09.91,2.43.57S45.32,36.26,44.69,36.26Z"/><path class="cls-1" d="M51.19,42.45a6.15,6.15,0,0,1-3.28,1.93c-.31,0-.36.08-.16.29s.58.16,1.29-.15c1.81-.74,2.93-2.13,3.67-4.46L53.05,39v1.31c0,3.25-2.49,5.64-6,5.64-2.07,0-3.15-.24-3-.66a3.78,3.78,0,0,0-1.34-2.62,3.55,3.55,0,0,0-1.7-.39c-1,0-1.28.13-2.31,1.18a8.2,8.2,0,0,1-1.12,1.07c0-.16,3.32-6.91,3.61-7.36.11-.16,0,0-.31.26A27.21,27.21,0,0,0,39,40.8c-2,4.06-2.89,8.38-2.18,11A5.51,5.51,0,0,0,39,54.65c.37.21.24,0-.42-.78-1.23-1.37-1.62-2.81-1.44-5.22.32-4.13,2.67-6.75,5-5.52a2,2,0,0,1,.55,3.32c-.84.66-1.49.71-2,.13-.28-.34-.28-.44,0-.62,1.1-.63,1.44-1,1.15-1.31a1.3,1.3,0,0,0-1.78.31c-.18.34-.15.68.19,1.36.52,1.1,1.41,1.26,2.64.45.66-.45,1.08-.5,3.07-.37,2.59.18,4.06-.21,5.5-1.41,3.11-2.62,2.3-9-1.39-11-.81-.42-1.36-.47-1.13-.1a.69.69,0,0,0,.5.26c.55,0,2.2,1.91,2.78,3.22a2.69,2.69,0,0,1,.13,2.67A7.5,7.5,0,0,1,51.19,42.45Z"/><path class="cls-1" d="M42.2,33.93a.77.77,0,0,0-.6-.29c-.34,0-.34.06.1.37S42.49,34.38,42.2,33.93Z"/><path class="cls-1" d="M43.93,27.2c-.52.63-.6,2.8-.16,4.22l.4,1.31L44,31.29a7.93,7.93,0,0,1,.19-3.93C44.48,26.76,44.38,26.68,43.93,27.2Z"/><path class="cls-1" d="M29.16,37.84a5.59,5.59,0,0,0,1.65-2.23c0-.26-2-.13-2.31.18a1.37,1.37,0,0,0-.31.87A1.13,1.13,0,0,0,29.16,37.84Z"/><path class="cls-1" d="M46,27.25a6.36,6.36,0,0,0,1.65,2.33,3,3,0,0,0,1.41.4c.74,0,.87-.11.87-.63A2.28,2.28,0,0,0,49,27.91a2.57,2.57,0,0,0-2-.81C46.47,27.1,46,27.17,46,27.25Z"/><path class="cls-1" d="M26.12,19.76a2.69,2.69,0,0,0,2.54-.92l1-.91L29,17.4c-1.26-1.07-4.24-.34-4.64,1.16C24.13,19.55,24.42,19.76,26.12,19.76Z"/><path class="cls-1" d="M43.38,17.93a4.75,4.75,0,0,0,1.23,1.18C45.74,20,46,20,47,19.87a8.73,8.73,0,0,0,1.42-.29c.36-.21.18-1.1-.42-1.81A2.28,2.28,0,0,0,46.1,17C44.85,16.88,43.38,17.38,43.38,17.93Z"/><path class="cls-1" d="M36.2,17.14c2.44,0,4.48-1.31,4.95-3.19.13-.53.06-.68-.39-.82s-.6,0-.81.55a3.94,3.94,0,0,1-7.1.58c-.42-.73-.79-1-1.18-1-.71,0-.73.06-.18,1.13A4.79,4.79,0,0,0,36.2,17.14Z"/><path class="cls-1" d="M30.18,17.38a15.08,15.08,0,0,0,2.72,1.83c3.75,1.73,8.46.19,11.29-3.72,1.1-1.49,1-2-.26-2-.92,0-1,.07-1.2.75a6.63,6.63,0,0,1-3.17,3.44,8.29,8.29,0,0,1-6.26.13A7.94,7.94,0,0,1,30,14.37c-.29-.79-.42-.89-1.28-.89a1.89,1.89,0,0,0-1.13.23C27.32,14.08,28.82,16.17,30.18,17.38Z"/><path class="cls-1" d="M36.07,14.94a1.75,1.75,0,0,0,1.76-.55,2.3,2.3,0,0,0,.84-1.07c0-.29-.53-.37-2.49-.37a8.14,8.14,0,0,0-2.49.21C33.69,13.66,35.23,14.81,36.07,14.94Z"/><path class="cls-1" d="M52.57,16.3a70.72,70.72,0,0,1,9,4.59c.6.44.7.44.41.1-.68-.86-5.13-3.43-7.62-4.4A26.42,26.42,0,0,0,51,15.47C50.48,15.36,51.19,15.75,52.57,16.3Z"/><path class="cls-1" d="M51.26,28c1.08,1.47,1.05,2-.23,3.36a8.2,8.2,0,0,1-4.48,2.14c-2.17.5-2.49.92-.47.66a10.13,10.13,0,0,0,4.32-1.68l1.07-.68L53,33.41c2.91,3,3.62,4.74,3.36,7.83-.16,1.73-.11,2.2.28,2.83a2.76,2.76,0,0,0,2.75,1.36,5.79,5.79,0,0,0,3.23-1.26c.08-.13-.45.06-1.16.42a3.66,3.66,0,0,1-4-.21c-.84-.65-.86-3.27,0-4.34,1.31-1.76,3.2-2.36,4.92-1.55,1.31.63,2,1.65,2.31,3.59.34,2.09.84,3,.6,1.13C64.91,40.4,64,38.75,62.42,38a4.33,4.33,0,0,0-4.87.92c-.29.31-.55.47-.55.29,0-1.15-1.26-3.41-3.12-5.48l-2-2.3.36-.92c.5-1.23.48-1.23,1.31-.44a11,11,0,0,0,2.28,1.38,7.56,7.56,0,0,0,4.12.74c1.78,0,2.59.13,2.69.34.16.5.92.42,1.86-.16.74-.44.87-.73,1.13-2.2a16,16,0,0,1,.68-2.64,4.92,4.92,0,0,0,.39-1.34c0-.81-.44-.34-1,1.07A9.13,9.13,0,0,1,64,29.74c-1.55,1.47-2.89,1.91-5.35,1.76a7.28,7.28,0,0,1-4.71-1.71c-.82-.57-.87-.73-.87-2.12A13.16,13.16,0,0,1,53.36,25a4.07,4.07,0,0,0,.13-1.29c-.31-.28-.76,1.52-.78,3.15a4.87,4.87,0,0,1-.19,1.78A5.29,5.29,0,0,1,51,26.91a7,7,0,0,1,.08-4.21,3,3,0,0,1,5.61,1.59c.1,1.44-.24,2.05-1.78,3.12l-.66.45.84-.27a3.15,3.15,0,0,0,2.17-2.88A4.53,4.53,0,0,0,56,21.49a3.68,3.68,0,0,0-2.12-.63c-1.55-.1-1.6-.1-2.65,1l-1.07,1.08.08,1.91A4.49,4.49,0,0,0,51.26,28Z"/><path class="cls-1" d="M57.13,30.16l1.68.05a5.4,5.4,0,0,0,5-2.43c.55-.74,1.15-1.63,1.33-1.94.58-1.13.08-.89-.63.29A8,8,0,0,1,58.57,30Z"/><path class="cls-1" d="M34.47,31.34c-.91-1.47-2.35-1-2.35.76,0,1.41.49,1.7,1.8,1A2.74,2.74,0,0,0,35,32.39,4.4,4.4,0,0,0,34.47,31.34Z"/><path class="cls-1" d="M69.23,46.48a2.74,2.74,0,0,0,1-3c-.11-.37-.29-.66-.42-.66-.32,0-.32.06,0,.95A2.13,2.13,0,0,1,69,46.22,2.39,2.39,0,0,1,66.56,46c-.29-.24-.21-.13.19.26C67.64,47.13,68.11,47.19,69.23,46.48Z"/><path class="cls-1" d="M69.52,36.37a.73.73,0,0,0,.58-.79c0-.78-.63-.81-1.15,0S68.71,36.58,69.52,36.37Z"/><path class="cls-1" d="M67.71,30.11a4,4,0,0,1,1.18-.39c.47,0,.32-.55-.42-1.65-.55-.76-.94-.9-1.12-.4C66.33,30.5,66.38,30.82,67.71,30.11Z"/><path class="cls-1" d="M65.62,34c-.37,1.83-.21,2.27.81,2.27.6,0,1-.23,1.65-.94a6.65,6.65,0,0,0,1-1.44c.16-.44.08-.47-1-.31-.65.07-1.17,0-1.17-.08a3.65,3.65,0,0,1,1.46-.87c1.57-.68,1.91-1.12,1.42-1.73s-1-.47-2.1.11A3.47,3.47,0,0,0,65.62,34Z"/><path class="cls-1" d="M42.25,56.09a.78.78,0,0,0-.18.53c0,.44.68.44.86,0S42.65,55.67,42.25,56.09Z"/><path class="cls-1" d="M62.37,59.86c-.21.32.37.82.79.69a.52.52,0,0,0,.26-.48C63.42,59.63,62.61,59.45,62.37,59.86Z"/><path class="cls-1" d="M41.63,60.28c-.45.16-.42.87,0,.87s1-.63.76-.87S42.1,60.07,41.63,60.28Z"/><path class="cls-1" d="M61.72,62.48c0,.63.6.55.73-.1,0-.26-.08-.45-.31-.45S61.72,62.17,61.72,62.48Z"/><path class="cls-1" d="M42.25,62.38c-.57.16-.44.71.16.81.32.05.45-.08.45-.44a1.18,1.18,0,0,0-.06-.53S42.52,62.3,42.25,62.38Z"/><path class="cls-1" d="M43.25,65.86a.46.46,0,0,0,0,.55c.32.32,1.18,0,1.05-.39A.7.7,0,0,0,43.25,65.86Z"/><path class="cls-1" d="M45,67.3a1.4,1.4,0,0,1-.94.4c-.39,0-.63.15-.63.39s.26.39.79.39a1.12,1.12,0,0,0,1.17-.78C45.76,66.89,45.53,66.62,45,67.3Z"/><path class="cls-1" d="M57,69.4c-.18.24-.26.47-.18.55.26.29,1-.13,1-.55S57.42,68.9,57,69.4Z"/><path class="cls-1" d="M46.71,69.43c-.42.42-.16.89.49.89.5,0,.66-.13.58-.45A.68.68,0,0,0,46.71,69.43Z"/><path class="cls-1" d="M51.5,70.05c0,.37.68.61,1.07.4.21-.16.19-.26,0-.42C52,69.71,51.5,69.74,51.5,70.05Z"/><path class="cls-1" d="M34.79,69.06c-1.81,3.64-2.2,5.47-1.63,7.6a5.4,5.4,0,0,0,.76,1.54c.45.55.58.58,1.18.29a2.18,2.18,0,0,0,1-1.13l.26-.78.47.73a5.18,5.18,0,0,0,.89,1.1c.37.31.5.29,1-.1,1.46-1.34,1.2-4.9-.61-8.62S36.36,65.89,34.79,69.06Z"/><path class="cls-1" d="M21.9,92.32a1.93,1.93,0,0,0,.89,2.51c.94.61,1.47.32,1.44-.73,0-.47-.08-.65-.15-.42a.66.66,0,0,1-.61.47c-.76,0-1.12-.68-.94-1.7S22.35,91.25,21.9,92.32Z"/><path class="cls-1" d="M50.32,92.42A1.31,1.31,0,0,1,50,93.87a1.89,1.89,0,0,1-1.08.55c-.58,0-.65.18-.29.73.5.81,2.65-1,2.65-2.2,0-.87-.26-1.42-.71-1.42C50.27,91.53,50.22,91.74,50.32,92.42Z"/><path class="cls-1" d="M43.9,94.36c0,1.68,0,1.91-.44,1.84a1.22,1.22,0,0,1-.63-.87c-.1-.44-.26-1.12-.37-1.54-.26-1.23-.65-.32-.65,1.59V97h.86a2.21,2.21,0,0,0,1.08-.18,1,1,0,0,1,.6-.23c1.18-.19,1.6-.42,1.86-1,.39-.83.42-3.11,0-2.88A1.76,1.76,0,0,0,46,93.79c0,1.07-.94,2.25-1.34,1.65a3.16,3.16,0,0,1-.23-1.29,3.24,3.24,0,0,0-.26-1.31C44,92.58,43.9,93,43.9,94.36Z"/><path class="cls-1" d="M26.25,94c-.24,1.5,0,2.23.68,2.23.42,0,.47-.11.31-.47A6.51,6.51,0,0,1,27,94.15C26.93,92.61,26.46,92.53,26.25,94Z"/><path class="cls-1" d="M56.56,95.59c0,.21.1.4.23.4s.21-.19.21-.4-.1-.39-.21-.39S56.56,95.38,56.56,95.59Z"/><path class="cls-1" d="M56.35,96.51c-.42.18-.45.24-.08.24a.74.74,0,0,0,.6-.24C57.05,96.22,57.05,96.22,56.35,96.51Z"/></g><g id="Skull"><path class="cls-1" d="M82.24,5.09c0-.5.3-.68.36-1.1A3.7,3.7,0,0,0,81.24.71a4.92,4.92,0,0,0-5.09,0A3.73,3.73,0,0,0,74.78,4c.06.42.36.6.37,1.1s-.58.83-.52,1.39a1.06,1.06,0,0,0,.55.82c.44.21,1.09-.39,1.37,1.11a.63.63,0,0,0,.32.44,4.27,4.27,0,0,0,3.65,0,.63.63,0,0,0,.32-.44c.28-1.5.93-.9,1.37-1.11a1.06,1.06,0,0,0,.55-.82c.06-.56-.54-.75-.52-1.39ZM76,6A1.31,1.31,0,0,1,76,4.4a1.5,1.5,0,0,1,1.22-.16c.86.13,1.25.58.88,1.39a1.06,1.06,0,0,1-.83.64A1.55,1.55,0,0,1,76,6Zm3.29,2c-.14.09-.42,0-.63-.2-.2.21-.48.29-.62.2s-.16-.42-.1-.58a5.27,5.27,0,0,1,.48-.91c.07-.1.14-.09.24,0s.17-.08.25,0a6.07,6.07,0,0,1,.48.91C79.48,7.59,79.49,7.91,79.32,8Zm2-2a1.57,1.57,0,0,1-1.29.23,1.07,1.07,0,0,1-.83-.64c-.36-.81,0-1.26.89-1.39a1.48,1.48,0,0,1,1.21.16,1.29,1.29,0,0,1,0,1.64Z"/></g></g></g></svg>