<svg xmlns="http://www.w3.org/2000/svg" viewBox="0 0 78.28 108.71"><defs><style>.cls-1{isolation:isolate;}.cls-2,.cls-4{fill:#fff;}.cls-3{mix-blend-mode:color-dodge;}.cls-4{opacity:0.72;mix-blend-mode:multiply;}</style></defs><g class="cls-1"><g id="Layer_2" data-name="Layer 2"><g id="Layer_1-2" data-name="Layer 1"><path class="cls-2" d="M76.32,10.44a1.2,1.2,0,0,0-.89-.65,1,1,0,0,1-.54-.23,1.69,1.69,0,0,1-.62-1,2,2,0,0,0-.3-.66,1.48,1.48,0,0,0-1.45-.57,1,1,0,0,0-.73.4,4.1,4.1,0,0,0-.3.54c-.13.23-.24.48-.37.71a1.13,1.13,0,0,1-.61.51l-.4.13a1.72,1.72,0,0,0-.71.45A1.65,1.65,0,0,0,69,11.5a3.6,3.6,0,0,0,.12.44,1,1,0,0,0,.66.7l.76.28a2,2,0,0,1,1,.92A4.65,4.65,0,0,1,72,15c.09.41.19.83.29,1.24a1.58,1.58,0,0,0,.26.58l0-.05a1.83,1.83,0,0,0,.18-.3A5.37,5.37,0,0,0,73,16a12.88,12.88,0,0,1,.6-1.49,4.28,4.28,0,0,1,.69-1,2.78,2.78,0,0,1,1.46-.8,1.51,1.51,0,0,0,.3-.1,1.79,1.79,0,0,0,.27-.28,1.51,1.51,0,0,0,.27-.82,1.77,1.77,0,0,0,0-.46A2,2,0,0,0,76.32,10.44Z"/><path class="cls-2" d="M70,9.05a1.58,1.58,0,0,0,.16-.8V8.06a3.7,3.7,0,0,0-.18-.8A3.23,3.23,0,0,0,69.19,6a1.61,1.61,0,0,0-.79-.45.8.8,0,0,0-.84.38,1.65,1.65,0,0,0-.2.84,3.16,3.16,0,0,0,.19,1.06,3.56,3.56,0,0,0,.61,1.05,2,2,0,0,0,.79.57A.81.81,0,0,0,70,9.05Z"/><path class="cls-2" d="M70.28,5.85a2,2,0,0,0,.65.87.81.81,0,0,0,.86.11,1.06,1.06,0,0,0,.48-.5,2.71,2.71,0,0,0,.25-1.18c0-.05,0-.13,0-.2a3.38,3.38,0,0,0-.4-1.39,1.76,1.76,0,0,0-.62-.68.79.79,0,0,0-1,.14,1.59,1.59,0,0,0-.42.85,2.88,2.88,0,0,0,0,.88A3.23,3.23,0,0,0,70.28,5.85Z"/><path class="cls-2" d="M77.16,5.64a1.45,1.45,0,0,0-.74.37,3.21,3.21,0,0,0-.87,1.33,2.93,2.93,0,0,0-.17,1.14,1.69,1.69,0,0,0,.14.62.81.81,0,0,0,1.06.44,1.64,1.64,0,0,0,.65-.43,3.15,3.15,0,0,0,.64-.93A3.36,3.36,0,0,0,78.17,7a1.84,1.84,0,0,0-.18-.9A.79.79,0,0,0,77.16,5.64Z"/><path class="cls-2" d="M73.43,6.59a.78.78,0,0,0,.64.31.89.89,0,0,0,.6-.24,2.12,2.12,0,0,0,.56-.77,3.29,3.29,0,0,0,.29-1.44,2.34,2.34,0,0,0-.1-.76A1.5,1.5,0,0,0,75,3a.76.76,0,0,0-.8-.19,1.28,1.28,0,0,0-.56.41,2.82,2.82,0,0,0-.61,1.43,3.24,3.24,0,0,0,0,1A1.83,1.83,0,0,0,73.43,6.59Z"/><path class="cls-2" d="M70.49,2.76l.24-.2a.36.36,0,0,1,.46,0l.21.08c0-.05,0-.08,0-.11a2.61,2.61,0,0,1,0-.74,2.64,2.64,0,0,1,.17-.67A3.74,3.74,0,0,1,71.9.24S72,.15,72,.1h0A3,3,0,0,0,71,1a4.44,4.44,0,0,0-.6,1.19c-.08.24-.14.48-.21.74h.09Z"/><path class="cls-2" d="M74.32,1a4.21,4.21,0,0,1,.09.62,2.35,2.35,0,0,1-.12.87.17.17,0,0,0,0,.08l.16-.05a.41.41,0,0,1,.47.05l.23.25a.74.74,0,0,0,.31.23.33.33,0,0,0,0-.1c0-.25-.07-.5-.11-.74A4,4,0,0,0,75,1.13,3,3,0,0,0,74.08.05L74,0c0,.13.1.24.14.36S74.27.78,74.32,1Z"/><path class="cls-2" d="M67.5,5.83c.07-.09.12-.19.19-.28s.28-.29.54-.22h.18l-.09-.18a2.64,2.64,0,0,1-.2-.78,3.69,3.69,0,0,1,0-.47,3.24,3.24,0,0,1,.11-.82c0-.1.05-.2.08-.3h0a.08.08,0,0,0,0,0,2.45,2.45,0,0,0-.48.63,3.83,3.83,0,0,0-.39,1.07,5.15,5.15,0,0,0-.11,1.17c0,.1,0,.19,0,.3A.46.46,0,0,0,67.5,5.83Z"/><path class="cls-2" d="M78.27,5.34A4.3,4.3,0,0,0,78,4a2.89,2.89,0,0,0-.69-1.12l-.08-.07v.06a5.11,5.11,0,0,1,.13.53c0,.21.05.43.07.64a2.39,2.39,0,0,1-.18,1.09l-.11.26a1.43,1.43,0,0,0,.23,0,.36.36,0,0,1,.4.14c.07.08.13.18.2.27a1.65,1.65,0,0,0,.22.24s.06,0,.06,0C78.27,5.78,78.28,5.56,78.27,5.34Z"/><g id="OBJECT" class="cls-3"><path class="cls-2" d="M54.74,57.5l-3.42-26L38,47.5H22.83L9.55,31.5l-3.43,26L1.41,68a16.11,16.11,0,0,0-.46,12L5,91.28a8.67,8.67,0,0,1,11.14.93,6.37,6.37,0,0,1,2.35,4.94A7.76,7.76,0,0,0,24.3,105l.29.07L21.11,83.26a5.48,5.48,0,0,0-2.4-3.73,12,12,0,0,1-5.59-8.82l6.22,4.63a11.61,11.61,0,0,1,4.62,8l2.62,23.36,1.27,1.05a4.07,4.07,0,0,0,5.16,0l1.27-1.05L36.9,83.38a11.61,11.61,0,0,1,4.62-8l6.22-4.63a12,12,0,0,1-5.59,8.82,5.48,5.48,0,0,0-2.4,3.73l-3.48,21.83.29-.07a7.78,7.78,0,0,0,5.84-7.87,6.3,6.3,0,0,1,2.35-4.94,8.67,8.67,0,0,1,11.14-.93l4-11.23a16.06,16.06,0,0,0-.46-12Z"/><path class="cls-4" d="M59.91,80.05l-4,11.22a8.66,8.66,0,0,0-11.14.94,18.89,18.89,0,0,0-5.33,8.2,9.82,9.82,0,0,1-3.13,4.67h0l3.48-21.83a5.46,5.46,0,0,1,2.4-3.73,12.06,12.06,0,0,0,5.6-8.82l-6.23,4.63a11.61,11.61,0,0,0-4.62,8l-2.62,23.35-1.34,1.12a1.54,1.54,0,0,1-2.51-1.18V78.92A12.17,12.17,0,0,1,36.67,68.3l5.18-2.89a12.19,12.19,0,0,0,6.12-9l3.34-24.9,3.44,26L59.46,68A16.11,16.11,0,0,1,59.91,80.05Z"/><path class="cls-4" d="M22.83,47.5H18.69a3.91,3.91,0,0,1-3.63-2.44L9.55,31.5Z"/></g></g></g></g></svg>