<svg xmlns="http://www.w3.org/2000/svg" viewBox="0 0 90.09 104.64"><defs><style>.cls-1{fill:#fff;}</style></defs><g id="Layer_2" data-name="Layer 2"><g id="Layer_1-2" data-name="Layer 1"><path class="cls-1" d="M88.13,10.46a1.17,1.17,0,0,0-.9-.65,1.18,1.18,0,0,1-.54-.23,1.78,1.78,0,0,1-.62-1,1.94,1.94,0,0,0-.3-.67,1.49,1.49,0,0,0-1.46-.57,1,1,0,0,0-.73.4c-.11.17-.2.36-.3.54s-.23.49-.37.72a1.14,1.14,0,0,1-.61.51l-.4.13a1.69,1.69,0,0,0-.7.45,1.64,1.64,0,0,0-.45,1.4c0,.15.08.29.12.44a1.07,1.07,0,0,0,.66.7l.76.28a2,2,0,0,1,1,.92,4.76,4.76,0,0,1,.42,1.2c.1.41.19.83.29,1.25a1.65,1.65,0,0,0,.27.57s0,0,0,0a2,2,0,0,0,.19-.31,5.37,5.37,0,0,0,.21-.56,13.64,13.64,0,0,1,.6-1.49,4.28,4.28,0,0,1,.69-1,2.91,2.91,0,0,1,1.46-.81.88.88,0,0,0,.3-.09,1.43,1.43,0,0,0,.27-.28,1.61,1.61,0,0,0,.28-.82,2.46,2.46,0,0,0,0-.47A1.66,1.66,0,0,0,88.13,10.46Z"/><path class="cls-1" d="M81.79,9.07a1.75,1.75,0,0,0,.15-.81,1.08,1.08,0,0,0,0-.18,2.8,2.8,0,0,0-.18-.81A3.11,3.11,0,0,0,81,6a1.5,1.5,0,0,0-.79-.45.82.82,0,0,0-.84.38,1.65,1.65,0,0,0-.2.84,2.93,2.93,0,0,0,.2,1.06,3.22,3.22,0,0,0,.6,1,1.9,1.9,0,0,0,.8.57A.8.8,0,0,0,81.79,9.07Z"/><path class="cls-1" d="M82.07,5.86a2,2,0,0,0,.66.87.8.8,0,0,0,.85.11,1,1,0,0,0,.49-.5,2.75,2.75,0,0,0,.25-1.18s0-.13,0-.21a3.18,3.18,0,0,0-.39-1.38,1.72,1.72,0,0,0-.63-.68.78.78,0,0,0-1,.13,1.75,1.75,0,0,0-.42.85,3.33,3.33,0,0,0,0,.89A3.48,3.48,0,0,0,82.07,5.86Z"/><path class="cls-1" d="M89,5.65a1.49,1.49,0,0,0-.74.37,3.1,3.1,0,0,0-.86,1.33,2.79,2.79,0,0,0-.18,1.14,1.61,1.61,0,0,0,.14.62.81.81,0,0,0,1.06.45A1.8,1.8,0,0,0,89,9.13a3.14,3.14,0,0,0,.64-.94A3.19,3.19,0,0,0,90,7a1.72,1.72,0,0,0-.19-.9A.78.78,0,0,0,89,5.65Z"/><path class="cls-1" d="M85.23,6.6a.78.78,0,0,0,.64.31.89.89,0,0,0,.6-.24A2.1,2.1,0,0,0,87,5.89a3.53,3.53,0,0,0,.29-1.44,2.62,2.62,0,0,0-.11-.75,1.57,1.57,0,0,0-.39-.7A.77.77,0,0,0,86,2.81a1.21,1.21,0,0,0-.56.41,2.78,2.78,0,0,0-.61,1.43,3.24,3.24,0,0,0,0,1A1.87,1.87,0,0,0,85.23,6.6Z"/><path class="cls-1" d="M82.28,2.76c.09-.06.16-.14.24-.2a.39.39,0,0,1,.47,0l.21.09s0-.09,0-.12a2.24,2.24,0,0,1,0-.73,2.44,2.44,0,0,1,.17-.67A3.62,3.62,0,0,1,83.7.24s0-.09.08-.14h0a3,3,0,0,0-1,.89,4.5,4.5,0,0,0-.6,1.2c-.07.23-.13.48-.21.74H82A2.71,2.71,0,0,0,82.28,2.76Z"/><path class="cls-1" d="M86.12,1a4.22,4.22,0,0,1,.1.62,2.41,2.41,0,0,1-.13.88.15.15,0,0,0,0,.07l.16-.05a.41.41,0,0,1,.47.05l.23.25a.63.63,0,0,0,.32.23.31.31,0,0,0,0-.1c0-.24-.06-.49-.11-.74a4.55,4.55,0,0,0-.38-1.07A3.06,3.06,0,0,0,85.88.05L85.8,0c0,.13.1.24.14.36S86.07.78,86.12,1Z"/><path class="cls-1" d="M79.29,5.84c.07-.09.12-.19.19-.28s.28-.29.55-.23a.79.79,0,0,0,.17,0c0-.07-.06-.13-.09-.18a2.35,2.35,0,0,1-.19-.79,3.53,3.53,0,0,1,0-.46A3.85,3.85,0,0,1,80,3.09l.08-.29h0l0,0a2.75,2.75,0,0,0-.48.64,3.61,3.61,0,0,0-.39,1.07,5.15,5.15,0,0,0-.11,1.17c0,.1,0,.19,0,.3A.46.46,0,0,0,79.29,5.84Z"/><path class="cls-1" d="M90.08,5.35A4.48,4.48,0,0,0,89.82,4a3,3,0,0,0-.7-1.13L89,2.84l0,.05c0,.18.1.36.13.54s0,.42.06.64a2.38,2.38,0,0,1-.17,1.09c0,.08-.07.16-.11.26a1.6,1.6,0,0,0,.23,0,.38.38,0,0,1,.4.13c.07.09.12.19.19.28L90,6s.06,0,.06,0C90.08,5.79,90.09,5.57,90.08,5.35Z"/><path class="cls-1" d="M57.74,28.67l-2.31-1a11.53,11.53,0,0,1,3.35.41,4.44,4.44,0,0,0-1.3-.92c.39-.23,2.43.33,3.33.88a3.81,3.81,0,0,1,2,2.76l.1,0a7.53,7.53,0,0,0,.11-.83.39.39,0,0,1,.29-.41,19.94,19.94,0,0,1,6-1.3l.29,0-.91,2.29.1.05.17-.24,1.3-1.88a3,3,0,0,1,1.39-1.09,13,13,0,0,1,4-.95l.3,0-1,1.94.1.06a7.9,7.9,0,0,0,.49-.69A3.89,3.89,0,0,1,77.65,26,20.15,20.15,0,0,1,82,24.8a4.18,4.18,0,0,1,1,0c.51,0,.74.24.79.75a11.62,11.62,0,0,1,.07,1.86c0,.79-.15,1.56-.23,2.34a2.23,2.23,0,0,1-1.21,1.79,2.62,2.62,0,0,0-.67.49l.82-.22c.66-.17.82-.08.91.59a14,14,0,0,1-.18,3.71,6.11,6.11,0,0,1-1.78,3.41c-.52.55-1,1.13-1.53,1.69a1,1,0,0,0-.29.77,44.86,44.86,0,0,1-2.26,13.59,21.3,21.3,0,0,1-.89,2.1,3.69,3.69,0,0,1-.23.36c0-2.42.11-4.74.11-7.06A44.7,44.7,0,0,0,76,44c-.42,2.18-.68,4.39-1.8,6.36a39.86,39.86,0,0,0-1.25-5.29,21.62,21.62,0,0,1-1.3,5.57A27.53,27.53,0,0,0,70.12,46a16.87,16.87,0,0,1-1.21,3.72h-.1l-1-3.3h-.08L66.82,50h-.1L65,46.59h-.1l-.77,2.95H64a12.65,12.65,0,0,1-1.56-3.22l-1,3.18h-.13a24.47,24.47,0,0,1-1.22-3l-.85,2.9-.16,0-1.76-2.32-.88,2.91a10.68,10.68,0,0,1-1.62-1.87.73.73,0,0,0-.11.18c-.22.73-.44,1.45-.65,2.19-.07.25-.18.33-.41.2-.54-.3-1.1-.58-1.61-.92a.38.38,0,0,0-.54,0A19,19,0,0,0,48.38,53a27.35,27.35,0,0,0-3.57,5.73,4.06,4.06,0,0,0-.24.72,11.5,11.5,0,0,1,3.16-3.21l.59,1.06,2.58-2.75.11,0a37.29,37.29,0,0,1,.2,3.82,26.93,26.93,0,0,1,2.36-3.15l.12,0c0,.62.06,1.24.07,1.86s0,1.24,0,1.86l2.82-2.22a4.85,4.85,0,0,1-.16,1.86c-.14.56-.33,1.11-.52,1.75l.39-.16c.83-.37,1.66-.75,2.5-1.09.43-.17.47-.12.48.33a13.87,13.87,0,0,1-.34,3.4c0,.09,0,.18-.06.36a3.37,3.37,0,0,0,.57-.2c.73-.42,1.44-.86,2.17-1.29l.61-.37A7.6,7.6,0,0,1,61,65.15l.06.06,3.17-1.15A8,8,0,0,1,63,67.15l.07.09,3.19-1.35a18.1,18.1,0,0,1-1.27,2.94,26.65,26.65,0,0,0,4.46-3.2,27.06,27.06,0,0,0,3.9-4c0,.13,0,.25,0,.37a13.77,13.77,0,0,1-1.82,4.13,33.86,33.86,0,0,1-3.94,5.2c-.2.22-.26.36,0,.62a3.15,3.15,0,0,1,.76,2.34,1.88,1.88,0,0,1-.06.34c-.33-.33-.56-.73-1.11-.76a3.35,3.35,0,0,1,.5,2.34l-.77-1.08-.2,1.91h-.14c-.26-.48-.29-1.09-.82-1.45a10.18,10.18,0,0,1-6,5.29,7.63,7.63,0,0,0,2-3.74,5.78,5.78,0,0,0,0-1.18,6.65,6.65,0,0,1-2.1,2.75,6.94,6.94,0,0,1-3.07,1.64,7.66,7.66,0,0,0,2.32-6.55,5.41,5.41,0,0,1-3,2.75,3.66,3.66,0,0,1,.13-.37,3.09,3.09,0,0,0-2-4.56,8.64,8.64,0,0,0-5-.06,11.39,11.39,0,0,0-8.37,7.44c-2.57,7-1.37,13.39,3.54,19,.33.37.69.72,1,1.07a.53.53,0,0,0,.25.15,1.62,1.62,0,0,0-.1-.18,23.74,23.74,0,0,1-4.15-9.89,18.48,18.48,0,0,1,.23-8.4A11.87,11.87,0,0,1,48,72.9l.29-.12.08,0c-.27.25-.54.47-.78.73A6.07,6.07,0,0,0,46,79.87a5.68,5.68,0,0,0,4.44,3.88,10.71,10.71,0,0,0,5.33-.26c.43-.11.85-.25,1.3-.32a25.71,25.71,0,0,1-3.63,2.7l.38,0a18.78,18.78,0,0,0,7.89-1.65,24.15,24.15,0,0,0,9.27-7,3.3,3.3,0,0,1,.48-.51,28.43,28.43,0,0,1-1.21,4,20.41,20.41,0,0,0,6-4.93,28.68,28.68,0,0,0,4.17-6.57,41.22,41.22,0,0,1-3.53,15.92,12.52,12.52,0,0,0,2.81-2.31l.09.06c0,.18-.08.37-.13.55a14.42,14.42,0,0,1-3.21,5.47,31.59,31.59,0,0,1-7.17,5.65c-.65.4-1.3.79-1.93,1.24a22.67,22.67,0,0,0,5.18-.64,39.11,39.11,0,0,1-11.05,5.16,44.46,44.46,0,0,1-12,2.16c1.36.86,2.89,1.38,4.3,2.14A53.42,53.42,0,0,1,30,97.84,32.42,32.42,0,0,0,34.42,104c-9-3-16-8.63-21.86-15.85l-.13.06c.06,1,.09,2,.18,3.05s.24,2,.37,3.16l-.28-.36A56,56,0,0,1,9,87.29a64.92,64.92,0,0,1-3.6-9.35,29.11,29.11,0,0,1-1.31-6.8c0-.08,0-.15-.06-.29l-2.3,5.29H1.68c0-.29,0-.58-.05-.87A66,66,0,0,1,2,64.56a35.61,35.61,0,0,1,3.52-11.8c.22-.43.46-.86.7-1.3l-.08-.06-3.8,4.27-.07,0c0-.14,0-.27.06-.41a20.06,20.06,0,0,1,2.09-5A26.39,26.39,0,0,1,13,41c.89-.58,1.84-1.06,2.76-1.58a2.52,2.52,0,0,1,1.69-.09,27.19,27.19,0,0,0,7.75.07l.55-.12v-.13c-.25,0-.5,0-.75,0a35,35,0,0,1-6-.57,17.6,17.6,0,0,1-9-4.3,14.65,14.65,0,0,0-5.77-3.16c-1.28-.4-2.59-.66-3.89-1-.38-.09-.49-.27-.23-.55a3.54,3.54,0,0,1,.92-.71,14.36,14.36,0,0,1,4.14-1.3,47.11,47.11,0,0,1,14.32-.38,52.57,52.57,0,0,1,6.83,1.24,1,1,0,0,0,.47,0l-2.43-1.21,0-.09h.42a24.48,24.48,0,0,1,4.93,1.06A18.58,18.58,0,0,1,34,30c.43.26.8.61,1.21.9a.47.47,0,0,0,.38.1,31.71,31.71,0,0,1,13-1.83,49.45,49.45,0,0,0,8.6-.29l.37-.07S57.61,28.75,57.74,28.67Zm2.92,2.47,0-.11c-7.15,2.15-14.41,3.91-21.7,5.56a.69.69,0,0,0,.24,0c1.37-.12,2.73-.26,4.1-.35a9.6,9.6,0,0,1,3.73.2,7.79,7.79,0,0,0,5.86-.37,15.17,15.17,0,0,0,4.43-3.19,3.66,3.66,0,0,1,1.31-.85C59.29,31.79,60,31.45,60.66,31.14ZM52.23,47.71l0-.06a2.06,2.06,0,0,0-.32.07l-3.06,1a6.29,6.29,0,0,0-3.17,2.44A24.61,24.61,0,0,0,43,56.27c-.25.61-.48,1.23-.72,1.85l.08,0c.13-.24.25-.48.39-.72.83-1.43,1.62-2.88,2.5-4.29a10.6,10.6,0,0,1,4.3-4c.8-.39,1.57-.82,2.35-1.24Z"/></g></g></svg>