<svg xmlns="http://www.w3.org/2000/svg" viewBox="0 0 605.5 574.4"><g id="Layer_2" data-name="Layer 2"><g id="Layer_1-2" data-name="Layer 1"><path d="M485.28,146.36c6.83-15.88,8.38-18.43,12.62-21.07l-4,23.24,1.4.84c6.59-10,16-15.91,27.21-19.22-9.54,9.12-18.7,18.44-22.15,33,7-4.24,13.25-8.15,21.8-8.34-3,2.17-5.28,3.72-7.44,5.47-8.2,6.63-8.26,17.69-.14,24.52,6.39,5.38,14.29,6.37,22.14,7.56,6.91,1.06,13.84,2.09,20.67,3.54a21.35,21.35,0,0,1,14,9.77c3.85,6.19,9.67,9.09,16.48,10.72a57.45,57.45,0,0,1,10.74,3.35c6.73,3.12,8.55,8.48,5.25,15.09-4.17,8.36-10.95,14.24-18.58,19.48-5.72,3.94-10.72,8.93-16.2,13.24s-10.94,8.78-16.89,12.38c-4.19,2.55-7.77,5.15-10.51,9.38-7.75,12-17.54,22.17-28.44,31.32a12.94,12.94,0,0,1-3.44,2.12c7.7-15.23,16.11-30.13,20.33-47.86l-11.33,7.35c1.18-5.87,2.14-10.6,3.16-15.67l-20.13,13.25-.74-1,5.37-17.1-.93-.61c-3.12,2.15-6.12,4.49-9.37,6.39s-6.83,3.4-10.89,5.37c1.71-5.26,3.11-9.55,4.72-14.51l-20.12,10.83-1-1.16c1.14-2.5,2.39-5,3.4-7.52,1.4-3.52,3.08-7.5.4-10.72s-6.41-1.07-9.52-.18a101.67,101.67,0,0,0-39,21.21,47.32,47.32,0,0,0-4,4.21,8.17,8.17,0,0,0-.9,1.59c.22.35.31.7.48.75,10.49,2.78,14.6,8.07,15.59,18.93a104.4,104.4,0,0,0,3.05,17.95c1.79,6.57,5.13,7.66,11.14,4.48,6.26-3.3,10.68-8.56,14.73-14.19a4,4,0,0,1,2-1.62c-.5,3.32-.83,6.67-1.56,9.94a86.33,86.33,0,0,1-2.85,9.67c-1.15,3.29-2.57,6.47-4.32,10.8a50.8,50.8,0,0,0,14.14-11.19c3.79-4.19,7.22-8.7,10.81-13.07l1.09.26c-1.9,7.32-3.81,14.65-5.92,22.78,11.09-8.62,19.7-18.49,27.7-30.16.6,7.48-1.16,13.63-3,19.74-.72,2.35-2.07,4.53-2.62,6.9-.74,3.18-1.6,6.53-1.32,9.72,1.47,16.9-5.07,30.43-17.22,41.51-8.81,8-19.44,12.81-31,15.63a7.72,7.72,0,0,1-1.79-.2c11.78-7.73,20.16-17.57,24.63-30.66-13.76,12.85-29.68,20.57-48.7,21.61,9.71-7.89,20.71-14.56,24.42-27.81-10.69,11.19-23.12,19.33-39,23.34,4.31-3.95,8.17-7.18,11.66-10.78s6.64-7.58,7.9-13.44l-17,12-.63-.77q5.85-6.62,11.71-13.21l-.86-.94-11.7,7.9-.41-.6,7.61-13-1.1-.81c-8.37,8.32-17,16.28-28.28,20.79,8.51-9.65,15.16-20.15,16.5-33.41-11.86,16.38-26.51,29.15-45.63,36.45,13.86-14,26.83-28.44,31-48.63-15.28,19-32.76,35.11-56.1,44.26,4.11-4.35,8.06-8.32,11.78-12.51,8.6-9.65,15.13-20.41,17.13-33.46,1.88-12.23-3.34-25.84-21-25.14-19.32.76-32.22,12-36.31,32.19-5.18,25.48,3,46,23.72,61,12.68,9.2,26.37,17,39.63,25.42,12.79,8.12,24.84,17.08,33.8,29.55,12.3,17.12,15.77,36.55,13.84,57-1.05,11.05-3.77,21.94-5.77,32.89a9.91,9.91,0,0,1-1.41,3.45c-.94-27.93-10.05-51.88-33.13-69.41,22.06,37.87,14.76,72.71-10.25,105.82,7.33-28.09,7.66-55.15-10.88-79.76,1.93,14.17-1.36,27.17-8.29,39.56-.75-17.33-4.31-33.92-11.93-49.64A104.33,104.33,0,0,1,322,538.68c-3,5.39-6.75,10.32-10.15,15.47l-1.17-.53c.9-5.26,1.89-10.5,2.66-15.77,2.13-14.6,3.47-29.29-1.39-43.53-2.05-6-5.95-11.41-9-17.07-.72-1.34-1.5-2.65-2.25-4l-1.84,1c2.59,27.36-8.2,49.52-26.17,69q9.47-26.92-4.89-51.35c-7.89-13.36-19-23.4-33.08-31.53,4.26,9.58,8.59,18.22,12,27.21a74.87,74.87,0,0,1,4.63,28.91,10.07,10.07,0,0,1-1-1.61c-4.27-13.31-13.33-23-24-31.34-9.22-7.18-18.76-13.94-27.93-21.19-11-8.7-19.64-19.21-23.56-33.1-.53,22.26,4.38,42.92,17.33,61.41-29.46-21-44.9-50.88-53.78-85-1.76,6.54-1.09,28.94,2.07,40.66,3.52,13.08,7.91,25.92,11.7,38.16-8.52-5-24.91-28.85-32.78-49.23-7.41-19.16-10.91-39.07-12.55-59.45-9.31,32.67-7.37,64.86,3.8,96.78-32.81-40.19-42.66-86.79-38.34-137.44-3.72,1.91-10.5,13.77-14.54,28.53a153.12,153.12,0,0,0-5.35,32.48c-.53,10.71,1.2,21.53,2,33.13C26,387.15,27.88,344.82,50.1,301.55,25.91,315.34,11.52,337,.82,361.88a118.49,118.49,0,0,1,4.53-36.47C11.79,302.8,23.49,283,38.25,265c7.39-9,15.57-17.4,23.4-26.07a7.64,7.64,0,0,0,2-3.36c-24.78,10-45.28,25.82-62.69,45.91L0,281c2.61-6.14,4.87-12.47,7.89-18.41,12.76-25.13,31.86-45,54.11-61.66,14.49-10.86,30.28-20,45.48-29.92a9.9,9.9,0,0,0,2.61-2.17c-30,5.85-57.59,16.64-80.8,37.7.57-1.13,1.09-2.3,1.72-3.4C42.16,183.79,58,169,76.19,156.55c23.9-16.37,50.26-27.45,77.86-35.83a15.19,15.19,0,0,0,4.86-2.36c-30.21-2-58.83,3.34-85.93,17.88.9-1.13,1.74-2.3,2.7-3.37,10.59-11.79,23.6-20.25,37.7-27.14,20.84-10.19,43-15.86,65.84-19.31a7.8,7.8,0,0,0,3.6-1.41c-18.84-6.84-38.18-5-57.54-3.8C149,70.83,174.07,67.44,199.71,67.93s50.52,4.7,74.63,13.65l.91-1.31c-6.55-6.71-12.75-13.82-19.76-20s-14.93-11.54-22.28-17.13c12.47-1.93,50.7,16.21,66,31.83-1.16-7-5.43-11.71-9.43-17.81,17.56,7.79,27.32,22.36,38.59,35.43a171.35,171.35,0,0,0-22.1-50.24c16.92,8.33,28,22.52,37.82,38l1.44-.77c-3.78-10.08-7.57-20.15-11.38-30.32,11.76,9.21,18.11,22.17,24.07,35.42l1.23-.42c-1.09-5.61-2.17-11.22-3.38-17.44,12.09,10.68,12.5,27.11,20.49,39.4l1.19-.32c-.4-2.66-1-5.31-1.17-8-.56-7.62-.95-15.25-1.46-22.87-.15-2.25.86-3.21,3-3.65,3.13-.63,6.19-1.6,9.81-2.57-3.05-3.91-7-4.81-10.91-5.07-3.72-.25-4.61-1.83-5-5.27-1.82-15.93-2.46-31.83.22-47.71.59-3.44,1.84-6.77,3-10.8,40.1,27.19,59.2,66.2,69.75,110.65a93.69,93.69,0,0,0-6.15-37.81c-3.7-9.89-9.1-19.14-13.55-28.76a8.48,8.48,0,0,1-.53-5.45c3.51-12.11,9.74-22.83,17.76-33.8,3.32,4.94,6.64,9.32,9.37,14,7.73,13.37,11.45,28,13,43.26,2.12,20.91.85,41.74-1.53,62.55-.14,1.26.75,3.48,1.73,3.9,7.57,3.22,12.91,8.95,17.86,15.17C483.56,144.53,484.27,145.24,485.28,146.36ZM433.1,165.71c-.58,6.27,6.17,17.33,12.95,19.87C457.76,190,470,191,482.38,190.47a22.51,22.51,0,0,0,3.76-.79Z"/></g></g></svg>