<svg xmlns="http://www.w3.org/2000/svg" viewBox="0 0 115.83 145.82"><defs><style>.cls-1,.cls-2{fill:#fff;}.cls-2{font-size:22px;font-family:AdobeArabic-Regular, Adobe Arabic;}</style></defs><g id="Layer_2" data-name="Layer 2"><g id="Layer_1-2" data-name="Layer 1"><path class="cls-1" d="M94.5,49.3c1-2.28,1.2-2.64,1.81-3l-.57,3.33.2.12A6.75,6.75,0,0,1,99.84,47a9.52,9.52,0,0,0-3.17,4.74,6.16,6.16,0,0,1,3.12-1.2c-.42.31-.75.54-1.06.79a2.19,2.19,0,0,0,0,3.51,6,6,0,0,0,3.17,1.09c1,.15,2,.3,3,.51a3.07,3.07,0,0,1,2,1.4,3.53,3.53,0,0,0,2.36,1.53,9.16,9.16,0,0,1,1.54.48,1.44,1.44,0,0,1,.75,2.17,7.57,7.57,0,0,1-2.66,2.79c-.82.57-1.54,1.28-2.33,1.9a23.53,23.53,0,0,1-2.42,1.78,4.19,4.19,0,0,0-1.5,1.34,20.74,20.74,0,0,1-4.08,4.49,2,2,0,0,1-.5.31,31.22,31.22,0,0,0,2.92-6.87l-1.63,1.06.46-2.25-2.89,1.9-.1-.14.77-2.46-.14-.08c-.45.31-.88.64-1.34.91s-1,.49-1.56.77l.67-2.08L92.3,66.92l-.14-.17c.16-.36.34-.71.49-1.08s.44-1.07,0-1.54-.92-.15-1.36,0a14.58,14.58,0,0,0-5.6,3,8.21,8.21,0,0,0-.58.6A1.34,1.34,0,0,0,85,68s0,.1.07.11a2.64,2.64,0,0,1,2.24,2.71,15,15,0,0,0,.44,2.58c.25.94.73,1.1,1.59.64a6.33,6.33,0,0,0,2.12-2,.57.57,0,0,1,.28-.24c-.07.48-.11,1-.22,1.43a11.61,11.61,0,0,1-.41,1.39c-.16.47-.37.92-.62,1.54a7.24,7.24,0,0,0,2-1.6c.54-.6,1-1.25,1.55-1.88l.16,0-.85,3.27a18.62,18.62,0,0,0,4-4.33,7.19,7.19,0,0,1-.44,2.84c-.1.33-.29.64-.37,1a4.5,4.5,0,0,0-.19,1.4,6.93,6.93,0,0,1-2.47,6A9.91,9.91,0,0,1,89.47,85a1.19,1.19,0,0,1-.26,0,8.38,8.38,0,0,0,3.53-4.39,10.78,10.78,0,0,1-7,3.09c1.39-1.13,3-2.08,3.5-4a11.45,11.45,0,0,1-5.6,3.35c.62-.57,1.18-1,1.68-1.55a3.88,3.88,0,0,0,1.13-1.93L84,81.3l-.09-.11,1.67-1.89-.12-.14-1.68,1.13,0-.08,1.09-1.86-.16-.12a12.38,12.38,0,0,1-4.06,3A8.5,8.5,0,0,0,83,76.42a14.35,14.35,0,0,1-6.54,5.23c2-2,3.84-4.08,4.44-7a19.49,19.49,0,0,1-8,6.34c.59-.62,1.16-1.19,1.69-1.79A9.35,9.35,0,0,0,77,74.43c.26-1.75-.48-3.7-3-3.6a5.23,5.23,0,0,0-5.21,4.61,8.11,8.11,0,0,0,3.4,8.76C74,85.52,76,86.64,77.87,87.84a16.81,16.81,0,0,1,4.84,4.24,11.59,11.59,0,0,1,2,8.17c-.15,1.58-.54,3.14-.83,4.72a1.41,1.41,0,0,1-.2.49c-.14-4-1.44-7.44-4.75-9.95,3.16,5.43,2.11,10.42-1.47,15.17,1-4,1.1-7.91-1.56-11.44a8.9,8.9,0,0,1-1.19,5.68A17.9,17.9,0,0,0,73,97.8a15,15,0,0,1-1.91,7.76c-.42.77-1,1.48-1.45,2.22l-.17-.08c.13-.75.27-1.5.38-2.26a13,13,0,0,0-.2-6.24,15.93,15.93,0,0,0-1.29-2.45c-.11-.19-.22-.38-.32-.57l-.27.14c.37,3.92-1.17,7.1-3.75,9.9a8.43,8.43,0,0,0-.7-7.37,12.68,12.68,0,0,0-4.75-4.52c.61,1.38,1.23,2.61,1.72,3.9a10.93,10.93,0,0,1,.66,4.15,2,2,0,0,1-.15-.23,9.42,9.42,0,0,0-3.44-4.5c-1.33-1-2.69-2-4-3A9.23,9.23,0,0,1,50,89.87a14.33,14.33,0,0,0,2.49,8.81c-4.23-3-6.44-7.3-7.72-12.19a17.15,17.15,0,0,0,.3,5.83c.51,1.87,1.14,3.71,1.68,5.47-1.22-.72-3.57-4.14-4.7-7.06a30,30,0,0,1-1.8-8.53,22.41,22.41,0,0,0,.54,13.88c-4.7-5.76-6.11-12.44-5.49-19.71-.54.28-1.51,2-2.09,4.1a22.25,22.25,0,0,0-.77,4.65,43.81,43.81,0,0,0,.29,4.75c-4.06-6-3.78-12.11-.59-18.32-3.47,2-5.54,5.09-7.07,8.66A16.73,16.73,0,0,1,25.68,75a23.89,23.89,0,0,1,4.72-8.67c1.06-1.29,2.23-2.5,3.35-3.74a1.05,1.05,0,0,0,.29-.48,23.45,23.45,0,0,0-9,6.58l-.14-.07c.37-.88.7-1.79,1.13-2.64a25.68,25.68,0,0,1,7.76-8.84c2.08-1.56,4.34-2.87,6.52-4.29a1.4,1.4,0,0,0,.38-.31,23.29,23.29,0,0,0-11.59,5.4c.08-.16.16-.33.25-.48a20.78,20.78,0,0,1,6.48-6.68A39.85,39.85,0,0,1,47,45.62a2.06,2.06,0,0,0,.7-.34,22.25,22.25,0,0,0-12.32,2.57l.38-.49a17.37,17.37,0,0,1,5.41-3.89,32.45,32.45,0,0,1,9.44-2.77,1,1,0,0,0,.52-.2c-2.7-1-5.48-.71-8.25-.54a25,25,0,0,1,10.67-1.91,32.35,32.35,0,0,1,10.7,2l.13-.19c-.94-1-1.83-2-2.83-2.87s-2.14-1.65-3.2-2.45c1.79-.28,7.27,2.32,9.47,4.56a6.56,6.56,0,0,0-1.35-2.55c2.52,1.11,3.92,3.2,5.53,5.08a24.7,24.7,0,0,0-3.16-7.21,14,14,0,0,1,5.42,5.46l.21-.11-1.64-4.35a12.51,12.51,0,0,1,3.45,5.08l.18-.06L76,37.9c1.73,1.53,1.79,3.88,2.93,5.65l.18,0c-.06-.38-.14-.76-.17-1.14-.08-1.1-.14-2.19-.21-3.28,0-.33.12-.46.43-.53s.89-.23,1.41-.37A2,2,0,0,0,79,37.46c-.53,0-.66-.27-.71-.76a23.75,23.75,0,0,1,0-6.84,16,16,0,0,1,.42-1.55c5.75,3.9,8.49,9.49,10,15.87a13.24,13.24,0,0,0-.88-5.42c-.53-1.42-1.3-2.75-1.94-4.13a1.17,1.17,0,0,1-.08-.78A15.73,15.73,0,0,1,88.37,29c.48.71.95,1.34,1.34,2a15.16,15.16,0,0,1,1.87,6.2,42,42,0,0,1-.22,9,.65.65,0,0,0,.25.56,6.72,6.72,0,0,1,2.56,2.17C94.26,49,94.36,49.14,94.5,49.3ZM87,52.07a3.48,3.48,0,0,0,1.86,2.85,12.62,12.62,0,0,0,5.21.7,2.27,2.27,0,0,0,.53-.11Z"/><text class="cls-2" transform="translate(0 133.77)">LOUP GAROU</text><path class="cls-1" d="M113.91,10.26a1.17,1.17,0,0,0-.88-.64,1,1,0,0,1-.53-.23,1.68,1.68,0,0,1-.61-1,1.91,1.91,0,0,0-.29-.65,1.47,1.47,0,0,0-1.43-.56,1,1,0,0,0-.72.39,5.45,5.45,0,0,0-.29.53c-.13.23-.23.48-.37.71a1.12,1.12,0,0,1-.59.5l-.4.12a1.81,1.81,0,0,0-.69.44,1.62,1.62,0,0,0-.43,1.38,3.39,3.39,0,0,0,.11.43,1,1,0,0,0,.65.68l.74.28a2,2,0,0,1,1,.91,4.55,4.55,0,0,1,.42,1.17c.09.41.18.82.28,1.22a1.65,1.65,0,0,0,.27.57l0,0c.06-.1.13-.2.18-.3s.14-.37.21-.55a10.87,10.87,0,0,1,.59-1.46,4.15,4.15,0,0,1,.67-1,2.89,2.89,0,0,1,1.44-.79.89.89,0,0,0,.29-.09,1.16,1.16,0,0,0,.26-.28,1.42,1.42,0,0,0,.27-.8,1.77,1.77,0,0,0,0-.46A1.61,1.61,0,0,0,113.91,10.26Z"/><path class="cls-1" d="M107.69,8.89a1.64,1.64,0,0,0,.15-.79,1.08,1.08,0,0,0,0-.18,2.94,2.94,0,0,0-.17-.78,3.17,3.17,0,0,0-.77-1.23,1.55,1.55,0,0,0-.78-.43.76.76,0,0,0-.82.37,1.58,1.58,0,0,0-.2.82,3,3,0,0,0,.19,1,3.13,3.13,0,0,0,.6,1,1.76,1.76,0,0,0,.78.56A.79.79,0,0,0,107.69,8.89Z"/><path class="cls-1" d="M108,5.75a1.92,1.92,0,0,0,.64.85.78.78,0,0,0,.84.11,1,1,0,0,0,.47-.49,2.52,2.52,0,0,0,.25-1.16s0-.13,0-.2a3.1,3.1,0,0,0-.39-1.36,1.71,1.71,0,0,0-.61-.67.78.78,0,0,0-1,.13,1.55,1.55,0,0,0-.41.84,2.84,2.84,0,0,0-.06.87A3.43,3.43,0,0,0,108,5.75Z"/><path class="cls-1" d="M114.73,5.54a1.42,1.42,0,0,0-.73.37,3.07,3.07,0,0,0-.85,1.3A2.86,2.86,0,0,0,113,8.33a1.6,1.6,0,0,0,.14.61.79.79,0,0,0,1,.43A1.66,1.66,0,0,0,114.8,9a2.77,2.77,0,0,0,.62-.92,3,3,0,0,0,.3-1.18,1.82,1.82,0,0,0-.18-.89A.76.76,0,0,0,114.73,5.54Z"/><path class="cls-1" d="M111.06,6.47a.81.81,0,0,0,.63.31.91.91,0,0,0,.59-.23,2,2,0,0,0,.56-.77,3.26,3.26,0,0,0,.28-1.41,2.23,2.23,0,0,0-.1-.74,1.53,1.53,0,0,0-.39-.69.77.77,0,0,0-.79-.19,1.25,1.25,0,0,0-.55.41,2.84,2.84,0,0,0-.6,1.4,3.42,3.42,0,0,0,0,1A1.84,1.84,0,0,0,111.06,6.47Z"/><path class="cls-1" d="M108.18,2.71l.23-.2a.39.39,0,0,1,.46,0l.2.09a.49.49,0,0,1,0-.11,2.56,2.56,0,0,1,0-.73,3,3,0,0,1,.17-.65,3.45,3.45,0,0,1,.37-.83,1,1,0,0,0,.08-.14h0a2.83,2.83,0,0,0-1,.87,4,4,0,0,0-.59,1.17c-.08.24-.14.48-.21.73h.09Z"/><path class="cls-1" d="M111.94,1a4.08,4.08,0,0,1,.09.61,2.3,2.3,0,0,1-.12.86.15.15,0,0,0,0,.07l.16,0a.43.43,0,0,1,.46,0l.23.25a.62.62,0,0,0,.3.22s0-.07,0-.09c0-.25-.06-.49-.11-.73a4.25,4.25,0,0,0-.38-1,2.94,2.94,0,0,0-.85-1.06l-.08,0c0,.13.1.24.13.36A6.13,6.13,0,0,1,111.94,1Z"/><path class="cls-1" d="M105.24,5.73c.06-.09.12-.19.19-.28a.43.43,0,0,1,.53-.22l.17,0c0-.08-.06-.13-.08-.18a2.57,2.57,0,0,1-.2-.77c0-.15,0-.31,0-.46A4.5,4.5,0,0,1,106,3a2.45,2.45,0,0,0,.08-.29h0l0,0a2.6,2.6,0,0,0-.47.62,3.88,3.88,0,0,0-.38,1.05A5.6,5.6,0,0,0,105,5.59c0,.1,0,.19,0,.29A.38.38,0,0,0,105.24,5.73Z"/><path class="cls-1" d="M115.82,5.24A4.4,4.4,0,0,0,115.57,4a2.93,2.93,0,0,0-.69-1.1l-.07-.06v0c0,.17.1.34.13.52s0,.42.06.63a2.3,2.3,0,0,1-.17,1.07l-.11.26a1.43,1.43,0,0,0,.23,0,.35.35,0,0,1,.39.13c.07.08.12.18.19.27l.22.24s.06,0,.06,0C115.82,5.68,115.84,5.46,115.82,5.24Z"/></g></g></svg>