<svg xmlns="http://www.w3.org/2000/svg" viewBox="0 0 96.68 102.75"><defs><style>.cls-1{isolation:isolate;}.cls-2{mix-blend-mode:multiply;}.cls-3{fill:#fff;}</style></defs><g class="cls-1"><g id="Layer_2" data-name="Layer 2"><g id="Layer_1-2" data-name="Layer 1"><g class="cls-2"><path class="cls-3" d="M94.71,10.53a1.21,1.21,0,0,0-.91-.65,1.1,1.1,0,0,1-.54-.24,1.81,1.81,0,0,1-.63-1A1.75,1.75,0,0,0,92.34,8a1.52,1.52,0,0,0-1.47-.58,1,1,0,0,0-.74.41c-.11.17-.2.36-.3.54s-.23.49-.37.72a1.18,1.18,0,0,1-.62.52l-.4.13a1.72,1.72,0,0,0-.71.45,1.63,1.63,0,0,0-.44,1.41,3.54,3.54,0,0,0,.11.44,1.08,1.08,0,0,0,.67.71l.76.28a2.08,2.08,0,0,1,1,.93,4.69,4.69,0,0,1,.42,1.21l.3,1.25a1.62,1.62,0,0,0,.27.58l0,0a3.21,3.21,0,0,0,.19-.31,5.37,5.37,0,0,0,.21-.56,11.49,11.49,0,0,1,.61-1.5,4.11,4.11,0,0,1,.69-1,3,3,0,0,1,1.47-.81,1,1,0,0,0,.3-.09,1.19,1.19,0,0,0,.27-.28,1.48,1.48,0,0,0,.28-.83,1.84,1.84,0,0,0,0-.47A1.71,1.71,0,0,0,94.71,10.53Z"/><path class="cls-3" d="M88.33,9.13a1.75,1.75,0,0,0,.15-.81,1.21,1.21,0,0,0,0-.19,3.19,3.19,0,0,0-.18-.8,3.23,3.23,0,0,0-.78-1.26,1.56,1.56,0,0,0-.8-.45.81.81,0,0,0-.85.39,1.65,1.65,0,0,0-.2.84,3,3,0,0,0,.2,1.07A3.08,3.08,0,0,0,86.48,9a1.78,1.78,0,0,0,.8.58A.81.81,0,0,0,88.33,9.13Z"/><path class="cls-3" d="M88.61,5.9a2,2,0,0,0,.66.88.82.82,0,0,0,.86.11,1,1,0,0,0,.49-.51,2.58,2.58,0,0,0,.25-1.18,1.62,1.62,0,0,0,0-.21,3.32,3.32,0,0,0-.4-1.4,1.72,1.72,0,0,0-.63-.68.79.79,0,0,0-1,.13,1.74,1.74,0,0,0-.42.86,3.33,3.33,0,0,0,0,.89A3.47,3.47,0,0,0,88.61,5.9Z"/><path class="cls-3" d="M95.55,5.69a1.39,1.39,0,0,0-.74.38,3.14,3.14,0,0,0-.88,1.33,3,3,0,0,0-.18,1.15,1.71,1.71,0,0,0,.15.63A.81.81,0,0,0,95,9.62a1.61,1.61,0,0,0,.66-.43,3,3,0,0,0,.65-.94A3.25,3.25,0,0,0,96.57,7a1.88,1.88,0,0,0-.18-.91A.79.79,0,0,0,95.55,5.69Z"/><path class="cls-3" d="M91.79,6.64a.78.78,0,0,0,.64.32A.9.9,0,0,0,93,6.72a2,2,0,0,0,.57-.78,3.33,3.33,0,0,0,.29-1.45,2.31,2.31,0,0,0-.1-.76A1.48,1.48,0,0,0,93.4,3a.76.76,0,0,0-.81-.19,1.18,1.18,0,0,0-.57.41,2.85,2.85,0,0,0-.61,1.44,3.3,3.3,0,0,0,0,1A1.79,1.79,0,0,0,91.79,6.64Z"/><path class="cls-3" d="M88.83,2.78c.08-.06.15-.14.24-.2a.38.38,0,0,1,.47,0l.2.09c0-.06,0-.09,0-.12a2.3,2.3,0,0,1,0-.74,3.2,3.2,0,0,1,.16-.68,4.65,4.65,0,0,1,.39-.85s0-.09.08-.14h0a2.91,2.91,0,0,0-1,.9,4.25,4.25,0,0,0-.61,1.2q-.1.36-.21.75h.09Z"/><path class="cls-3" d="M92.69,1c0,.21.08.42.1.63a2.47,2.47,0,0,1-.13.89s0,0,0,.07l.16-.05a.41.41,0,0,1,.47.05c.09.08.16.17.24.25a.61.61,0,0,0,.31.23.33.33,0,0,0,0-.1c0-.25-.07-.5-.12-.74a4.08,4.08,0,0,0-.38-1.08A3.12,3.12,0,0,0,92.45.05l-.08,0c0,.13.1.24.14.37A6.32,6.32,0,0,1,92.69,1Z"/><path class="cls-3" d="M85.81,5.88c.07-.09.13-.19.19-.28s.29-.3.55-.23l.18,0a1.54,1.54,0,0,1-.09-.19,2.36,2.36,0,0,1-.2-.78,3.84,3.84,0,0,1,0-.48,4.85,4.85,0,0,1,.11-.83,2.45,2.45,0,0,0,.08-.29h0l-.05,0a3,3,0,0,0-.48.64,3.78,3.78,0,0,0-.39,1.08,5.24,5.24,0,0,0-.11,1.18c0,.1,0,.19,0,.3A.38.38,0,0,0,85.81,5.88Z"/><path class="cls-3" d="M96.68,5.38a4.25,4.25,0,0,0-.27-1.32,2.87,2.87,0,0,0-.7-1.14l-.08-.06,0,.05c0,.18.1.36.13.54a4.62,4.62,0,0,1,.06.65,2.43,2.43,0,0,1-.17,1.1l-.12.26a1.57,1.57,0,0,0,.24,0,.38.38,0,0,1,.4.13l.2.28a2.62,2.62,0,0,0,.22.25s.06,0,.06,0C96.68,5.83,96.69,5.61,96.68,5.38Z"/></g><path class="cls-3" d="M96.58,89.41a9.53,9.53,0,0,1-3.92,2.35,26.07,26.07,0,0,1-6.24,1.31,3.16,3.16,0,0,1-1-.06,4.66,4.66,0,0,0-3.42.83.88.88,0,0,0-.35.47,2.55,2.55,0,0,1-1.41,1.42,1.39,1.39,0,0,1-1.61-.36c-1.54-1.34-3.46-2-5.23-2.85-1.11-.56-2.3-1-3.45-1.44C67,89.84,64,88.55,61,87.37a7.85,7.85,0,0,0-5.78-.08A2.68,2.68,0,0,0,53.58,89a7.45,7.45,0,0,0,1.19,7.92,7.68,7.68,0,0,0,5.6,2.86,4.55,4.55,0,0,0,3.74-1.61.43.43,0,0,1,.31-.15,3,3,0,0,1-.25.51,10,10,0,0,1-4.41,3.63,8.52,8.52,0,0,1-7-.29,23.82,23.82,0,0,1-7.69-6.12,43.67,43.67,0,0,1-5.16-7.34c-.81-1.43-1.46-3-2.39-4.32-2.45-3.53-5.65-6-10-6.74a13.33,13.33,0,0,0-5.54.59,22,22,0,0,0-11.3,7C9.7,86,8.91,87.23,8.05,88.36a.42.42,0,0,1-.24.18A50.44,50.44,0,0,1,10,80.25,39,39,0,0,0,6.4,86.91a35.66,35.66,0,0,1,3.95-11,37.39,37.39,0,0,1,7.12-9.2,40.63,40.63,0,0,0-9.42,8.61A63.36,63.36,0,0,0,1,85.93l-.15-.05c.19-.72.37-1.44.58-2.15a63.69,63.69,0,0,1,6.39-14.8A40,40,0,0,1,19.67,56.15c.79-.54,1.61-1,2.41-1.59a58.53,58.53,0,0,0-11.9,5,32.52,32.52,0,0,0-10,8.16L0,67.68c.38-.59.74-1.2,1.16-1.76a58.87,58.87,0,0,1,7-8,47.18,47.18,0,0,1,12.75-8.61,52,52,0,0,1,6.63-2.52c1.33-.39,2.67-.62,4-.9A49.88,49.88,0,0,1,37,45.18a29.19,29.19,0,0,1,3.1,0c-1-.87-8.46-2-13.34-2A61.47,61.47,0,0,0,13.28,44.9a2.87,2.87,0,0,1,.4-.18,71.36,71.36,0,0,1,10.53-2.89c2.47-.41,5-.71,7.47-.93A46.06,46.06,0,0,1,43,41.37a39.37,39.37,0,0,1,8.46,2.36c.68.27,1.36.54,2.08.75a27.32,27.32,0,0,0-10-5.77c1.45-.12,7.41,1.66,10.64,3.38,3.78,2,3.85,2,9,6.74a11.74,11.74,0,0,1,3.24-8.15c0,.17.07.25,0,.28-1.22,1.61-1.09,3.44-.82,5.27.19,1.3.54,2.59.86,3.87a.72.72,0,0,0,.51.43,47,47,0,0,0,4.86.48c2.81.05,5.63,0,8.45-.11,1.56,0,3.12-.23,4.69-.33a5.88,5.88,0,0,1,1,.06c.41,0,.49.26.17.55s-.75.67-1.15,1l-8.32,6.1a2,2,0,0,1-.29.11l.12.14,6.53.77,0,.2-5.67,4.06c.8,1.13,1.63,2.17,2.31,3.29a18.83,18.83,0,0,1,1.36,2.87,1.32,1.32,0,0,1-.52,1.64,7.28,7.28,0,0,0-1.21,1.33A.89.89,0,0,0,79.49,74c1.71,1.65,3.34,3.39,5.1,5,3.33,3,6.73,5.93,10.11,8.89C95.3,88.34,95.92,88.85,96.58,89.41Zm-64-13.51A37.47,37.47,0,0,1,44,62a1.3,1.3,0,0,0-.4.09C41.37,63,39.16,64,36.93,64.9a1.65,1.65,0,0,0-.9.88,22.11,22.11,0,0,1-1.42,2.39,11.71,11.71,0,0,1-2.72,3,7.78,7.78,0,0,1,.17-5.64c-4,.57-12.3,6.15-14,9.43a38.48,38.48,0,0,1,11.29-6.8C28.52,71.48,30.25,73.75,32.56,75.9Zm19-12.63a14.65,14.65,0,0,0-5.18,2.49,7.05,7.05,0,0,1,5.68.55,11.53,11.53,0,0,0-6,6c3.7,1.8,4.23,2.18,4.42,3.13l-2.29-.58-.08.2A9.15,9.15,0,0,1,53,81.67a10.09,10.09,0,0,0,.16-1.88,7.66,7.66,0,0,0-1.49-4.18l.1-.12,2,.73a7.7,7.7,0,0,0-2.32-2.93c-1-.71-2-1.28-3.14-2A11,11,0,0,1,57.15,68a12.91,12.91,0,0,0-5.46-3.33,17.32,17.32,0,0,1,5.79-.79,6.11,6.11,0,0,0-3.58-1.34l4.55-2.21-.07-.18a15.3,15.3,0,0,1-9.56,1.31Zm-3.87-6.91,0,.06a4,4,0,0,0,.56.17c1.54.16,3.08.42,4.62.44s2.89-.33,4.32-.29c2.41.07,4.82.3,7.22.49,1,.08,2.09.22,3.32.36-.24-.14-.31-.2-.39-.23-1.73-.71-3.43-1.5-5.2-2.1A7.72,7.72,0,0,0,57,54.93s-.06,0-.1-.09a2.44,2.44,0,0,0,.19-2.64,5.6,5.6,0,0,0-3-3,24.1,24.1,0,0,0-9-1.78A18.81,18.81,0,0,0,38,48.75c-.72.29-1.43.62-2.14.94,1.09-.16,2.14-.46,3.21-.61a23.47,23.47,0,0,1,14,2.35A4.29,4.29,0,0,1,55.13,54a1.35,1.35,0,0,1-1.05,2,11.78,11.78,0,0,1-2.44.36C50.33,56.41,49,56.36,47.69,56.36ZM44.53,82.58c2.94,2,6.72,2.37,8.45,1.72a13.79,13.79,0,0,1-6.08-2.19,14.12,14.12,0,0,1-4.41-4.65A21.34,21.34,0,0,0,44.28,87.7c1.36,3.14,4.82,7.82,6.16,8.35C47.17,92.13,45.59,87.47,44.53,82.58ZM90.8,88.11c.26-.37.46-.68.68-1s.23-.56-.14-.83c-1.14-.8-2.24-1.63-3.34-2.47s-1.86-1.47-2.81-2.18a1.13,1.13,0,0,0-.76-.24,14.86,14.86,0,0,1-6.72-.64c-1-.29-1.91-.68-2.87-1a1.85,1.85,0,0,0,.41.34,23,23,0,0,0,8.12,3.08c1.77.39,3.45.81,4.66,2.39A22.88,22.88,0,0,0,90.8,88.11ZM65.27,64.59l-.07.07c.09.17.17.34.27.51.77,1.2,1.58,2.38,2.3,3.6a5.32,5.32,0,0,0,3.55,2.58c1,.23,1.9.51,2.86.75.56.14,1.13.25,1.7.37l0-.12ZM63.47,66c-1.84,1.69-2.39,5.63-1,7.35a7.61,7.61,0,0,1,2.66-4.95,3.1,3.1,0,0,0-2.28,1.34l-.21-.09Zm8.41,8c-.51.6-.95,1.2-1.48,1.71A19.58,19.58,0,0,1,68.7,77c1.67.56,4-.7,4.4-1.91l-1.22.13Zm-5.62.2c.55-1.15,1.58-1.34,2.66-1.46l0-.22-2.18-.12.87-1.71A3.06,3.06,0,0,0,66.26,74.22Zm10.32,1.64-.89-2.49-.24.94-1-.78A3,3,0,0,0,76.58,75.86Z"/></g></g></g></svg>