<svg xmlns="http://www.w3.org/2000/svg" viewBox="0 0 85.46 113.01"><defs><style>.cls-1{isolation:isolate;}.cls-2{mix-blend-mode:soft-light;}.cls-3{fill:#fff;}</style></defs><g class="cls-1"><g id="Layer_2" data-name="Layer 2"><g id="Layer_1-2" data-name="Layer 1"><g class="cls-2"><path class="cls-3" d="M0,63.17,4.34,64a42.54,42.54,0,0,0,9.81,1c1.16-.06,2.32-.3,3.49-.41.48,0,.65-.3.77-.74A47.05,47.05,0,0,0,20,53.37a88.23,88.23,0,0,0-1.4-18.71c-.93-5.48-2-10.94-3-16.41,0-.1,0-.2,0-.35H59.08c-.26,1.44-.51,2.85-.77,4.26a178.52,178.52,0,0,0-3.18,22.66,59.09,59.09,0,0,0,1.56,18.73,1.21,1.21,0,0,0,1.12,1,30.23,30.23,0,0,0,10.35-.18c2-.33,4-.72,6-1.08l.87-.12.16.21a13.52,13.52,0,0,1-1.54,1.4,15.84,15.84,0,0,1-5.6,2A87.08,87.08,0,0,1,54.72,68.4c-11.37.59-22.75.42-34.13.23A65.53,65.53,0,0,1,6,67.05a12.55,12.55,0,0,1-4.39-1.82A4.23,4.23,0,0,1,0,63.17Z"/><path class="cls-3" d="M54.46,97.13a9.81,9.81,0,0,0-.16,1.18c0,.75.05,1.51,0,2.27s-.14,1.42-.17,2.13A3,3,0,0,0,54.3,104a1.8,1.8,0,0,1,0,1.77,2.25,2.25,0,0,0,.06,2.75.83.83,0,0,1,.13.69,5.36,5.36,0,0,0-.15,3.51.82.82,0,0,1,0,.31l-13.55-6.56-.07,1H34.49l-.06-1L20.88,113a3.64,3.64,0,0,1,.05-.6,5.54,5.54,0,0,0-.13-3.07,2.16,2.16,0,0,1,.37-1.42,1.32,1.32,0,0,0,.06-1.39,3.42,3.42,0,0,1-.41-1,2.68,2.68,0,0,1,0-1.26,2.64,2.64,0,0,0,.13-1.81A4.76,4.76,0,0,1,21,100a6.88,6.88,0,0,0-.09-1.91c0-.29-.09-.58-.15-.94l13.62,6.21.19-.76h6.13l.13.79Z"/><path class="cls-3" d="M18,83.71c2.83,2.24,6,2,9.21,1.24q2.29-.53,4.62-.87a10.22,10.22,0,0,1,4.65.48,1.38,1.38,0,0,0,.79.1c2.77-1,5.53-.66,8.31,0a37.55,37.55,0,0,0,4.56.81,8.68,8.68,0,0,0,6-1.64c-.16.28-.31.56-.49.83a14.19,14.19,0,0,1-5,5.11,10.23,10.23,0,0,1-8.21.54,43.67,43.67,0,0,1-4.82-2,1.06,1.06,0,0,0-1.09,0,21.92,21.92,0,0,1-6.06,2.3,9.76,9.76,0,0,1-9.62-2.92c-1.09-1.17-2-2.51-3-3.77Z"/></g><path class="cls-3" d="M85.43,3.5A.51.51,0,0,0,85,3.13L82.3,2.9a.07.07,0,0,1-.06,0L81.13.33A.56.56,0,0,0,80.62,0h0a.53.53,0,0,0-.5.34l-1,2.46a.07.07,0,0,1-.06,0l-2.75.28a.55.55,0,0,0-.31,1l2,1.75s0,0,0,.06L77.42,8.6a.55.55,0,0,0,.42.65.51.51,0,0,0,.4-.07L80.53,7.8h.07L83,9.2a.53.53,0,0,0,.6,0,.54.54,0,0,0,.21-.56L83.19,6s0-.06,0-.07l2.07-1.84a.55.55,0,0,0,.15-.59Z"/></g></g></g></svg>