<svg xmlns="http://www.w3.org/2000/svg" viewBox="0 0 85.33 106.82"><defs><style>.cls-1{fill:#fff;}</style></defs><g id="Layer_2" data-name="Layer 2"><g id="Layer_1-2" data-name="Layer 1"><path class="cls-1" d="M20.78,64.05c-.93-.26-1.88-.38-2.82-.61a.8.8,0,0,1-.31-.09c-.08-.06-.09-.24-.11-.33l-.21-.84c-.14-.58-.29-1.16-.43-1.74a.24.24,0,0,0-.07-.17.29.29,0,0,0-.34-.09.29.29,0,0,0-.15.12h0a.05.05,0,0,0,0,0h0v0c-.16.49-.31,1-.46,1.47a7.71,7.71,0,0,1-.5,1.42.64.64,0,0,1-.42.35l-.66.24a10.25,10.25,0,0,0-1.44.51.31.31,0,0,0,.07.56,13.42,13.42,0,0,0,2.23.47c-.32,1.08-.32,2.22-.55,3.33-.06.27.29.54.5.29l2-2.31a9.31,9.31,0,0,0,1.86,1.45.31.31,0,0,0,.45-.34c-.27-.82-.56-1.63-.89-2.43a17.15,17.15,0,0,0,2.3-.75A.3.3,0,0,0,20.78,64.05Zm-2.73.76c-.17,0-.37.2-.29.39q.4,1,.75,2A8.78,8.78,0,0,1,17.26,66a.31.31,0,0,0-.43,0L15.32,67.8a10.39,10.39,0,0,1,.53-2.65.32.32,0,0,0-.3-.39A4.07,4.07,0,0,1,14,64.57l.7-.22a1.93,1.93,0,0,0,1.16-.71,6.6,6.6,0,0,0,.55-1.48l.18-.59c.08.3.15.6.23.9s.14.65.24,1a.72.72,0,0,0,.51.52,10.4,10.4,0,0,0,1.47.32l.67.13A4.61,4.61,0,0,1,18.05,64.81Z"/><path class="cls-1" d="M71.51,35.8c-.94-.25-1.89-.37-2.83-.6a.8.8,0,0,1-.31-.09c-.08-.07-.09-.24-.11-.34l-.21-.83c-.14-.59-.29-1.17-.43-1.75a.25.25,0,0,0-.06-.17.28.28,0,0,0-.34-.08.25.25,0,0,0-.16.11h0l0,0v0c-.16.48-.31,1-.46,1.46a7.35,7.35,0,0,1-.5,1.43.65.65,0,0,1-.41.35L65,35.6a13.2,13.2,0,0,0-1.25.44c0-.24,0-.48,0-.71,0-1.75,0-3.5-.09-5.24A.37.37,0,0,0,63.7,30a.46.46,0,0,0,0-.2.49.49,0,0,0,0-.2.39.39,0,0,0-.1-.16h0l0-.31h2.38a1.63,1.63,0,0,0,1.62-1.63V24.25a1.63,1.63,0,0,0-1.62-1.62H10.4a1.63,1.63,0,0,0-1.63,1.62v3.21a1.63,1.63,0,0,0,1.63,1.63h2.53c-.16,1.82-.14,3.65-.15,5.48s0,3.72,0,5.58a30,30,0,0,0,.76,8.29,12.27,12.27,0,0,0,5.08,6.88c2.58,1.73,5.56,2.69,8.27,4.17a12.63,12.63,0,0,1,1.12.66l.49.34c.2.16.1.08.05,0a2.43,2.43,0,0,1,.25.2,9.73,9.73,0,0,1,.86.84l.16.18.13.16L30,62c.05.08.11.16.16.25a6.9,6.9,0,0,1,.55.95v0a2.34,2.34,0,0,1,.09.24A5.52,5.52,0,0,1,31,64a1.7,1.7,0,0,1,0,.22l0,0h0c0,.17,0,.34,0,.51s0,.29,0,.43,0,.23-.07.34l-.12.42a1.67,1.67,0,0,0-.08.2v0c-.15.28-.29.55-.46.82l-.26.37v0l-.17.21a9.63,9.63,0,0,1-.71.72l-.36.32-.19.15-.1.07c-2.57,1.83-5.62,2.77-8.37,4.27a15.47,15.47,0,0,0-3.77,2.75A11.69,11.69,0,0,0,14,79.65a21.49,21.49,0,0,0-1.22,8.08c0,2.1,0,4.21,0,6.31s0,4.22.16,6.32H11.78a1.61,1.61,0,0,0-1.6,1.61v3.25a1.6,1.6,0,0,0,1.6,1.6H65.72a1.59,1.59,0,0,0,1.6-1.6V102a1.6,1.6,0,0,0-1.6-1.61H63.56c.16-1.85.14-3.7.15-5.56s0-3.78,0-5.67a28.57,28.57,0,0,0-.83-8.35A12.34,12.34,0,0,0,57.63,74C55,72.26,52,71.32,49.28,69.77a7.14,7.14,0,0,1-1.79-1.35c-.15-.15-.29-.3-.43-.46a1.71,1.71,0,0,0-.11-.14l-.1-.13a7.63,7.63,0,0,1-.61-1c-.08-.16-.16-.32-.23-.48h0c0-.09-.07-.18-.1-.28a5.15,5.15,0,0,1-.16-.56l-.06-.23a2,2,0,0,0,0-.2c0-.5,0-1,0-1.48l.06-.24c0-.06.05-.13.08-.2-.1.28,0,0,0-.08a6.45,6.45,0,0,1,.47-.76l.13-.18,0,0c.11-.14.23-.27.35-.4a8,8,0,0,1,1.51-1.28c2.62-1.76,5.69-2.68,8.42-4.23a12.91,12.91,0,0,0,5.9-6.49,22,22,0,0,0,1.14-8c0-1.63,0-3.27,0-4.9a10.52,10.52,0,0,0,2.12.44c-.33,1.08-.32,2.23-.56,3.33-.06.27.3.54.51.3l2-2.31a10,10,0,0,0,1.85,1.45.31.31,0,0,0,.45-.34c-.26-.83-.56-1.64-.88-2.44a17.58,17.58,0,0,0,2.3-.74A.31.31,0,0,0,71.51,35.8Zm-16.9-6.71h7.76s0,0,0,0a1.8,1.8,0,0,0-.08.21,1.08,1.08,0,0,0,0,.31Q58.44,29.3,54.61,29.09Zm-26,39.76Zm26.94,31.51,1.72,0,5.49-.23a.7.7,0,0,0,.25,0c0,.11,0,.22,0,.33ZM46.4,62Zm16-21.77a26.52,26.52,0,0,1-1.17,8.21,9.78,9.78,0,0,1-2.06,3.34,12.23,12.23,0,0,1-3.63,2.49c-2.81,1.36-6,2.22-8.65,4A8.71,8.71,0,0,0,43.41,62,5.45,5.45,0,0,0,43,64.31a4,4,0,0,0,.15,1,7.23,7.23,0,0,0,.32,1.45A8.66,8.66,0,0,0,46,70.46a15.58,15.58,0,0,0,4.08,2.38c1.47.64,3,1.22,4.45,1.85a15.23,15.23,0,0,1,3.87,2.23,10.2,10.2,0,0,1,2.5,3.29,20,20,0,0,1,1.44,7.7c.09,2.1.2,4.2.31,6.3.07,1.39.12,2.78.23,4.17h-.09q-4.82.3-9.64.52c-1.63.07-3.27.09-4.91.19s-3.22.28-4.82.41c-1.78.14-3.59.21-5.36.46-.08,0,0,.12,0,.13,1.52.18,3.07.21,4.6.27H13.43c.24-1.82.31-3.64.4-5.48s.22-3.89.3-5.83a25.58,25.58,0,0,1,1.22-8.21,9.67,9.67,0,0,1,2.19-3.37A12.85,12.85,0,0,1,21.23,75c2.81-1.32,6-2.18,8.61-4a8.89,8.89,0,0,0,3.23-3.6A7,7,0,0,0,33.66,65a3.11,3.11,0,0,0-.18-1.45A7.65,7.65,0,0,0,33,61.91,8.82,8.82,0,0,0,30,58.55,19.85,19.85,0,0,0,26,56.41c-1.48-.63-3-1.19-4.38-1.83a14.31,14.31,0,0,1-3.69-2.23A10,10,0,0,1,15.52,49a20.66,20.66,0,0,1-1.34-7.59q-.15-3.13-.32-6.27c-.1-2-.16-4.06-.42-6.07H32.28a.09.09,0,0,0,.09.11q6,.24,11.92.68c4,.29,7.93.5,11.9.77q3.33.23,6.66.51c-.08,1.11-.13,2.21-.19,3.32C62.56,36.4,62.45,38.32,62.37,40.24Zm6.41-3.67a.3.3,0,0,0-.29.38c.26.64.51,1.29.74,1.95A8.71,8.71,0,0,1,68,37.8a.31.31,0,0,0-.43,0l-1.5,1.75a10.37,10.37,0,0,1,.52-2.65.3.3,0,0,0-.29-.38,4.32,4.32,0,0,1-1.6-.19c.24-.08.48-.14.71-.23.46-.17.88-.26,1.15-.71a6.42,6.42,0,0,0,.55-1.48c.07-.19.13-.39.19-.59.07.3.15.61.22.91s.14.64.24,1a.76.76,0,0,0,.51.53,9.15,9.15,0,0,0,1.47.31l.67.14A4.78,4.78,0,0,1,68.78,36.57Z"/><path class="cls-1" d="M1.83,31a7.14,7.14,0,0,0,1.36.28c-.2.66-.2,1.35-.34,2,0,.16.18.33.3.18l1.21-1.4A6,6,0,0,0,5.48,33a.19.19,0,0,0,.27-.21c-.16-.5-.34-1-.53-1.47a11.84,11.84,0,0,0,1.39-.45.19.19,0,0,0,0-.36c-.56-.15-1.14-.22-1.71-.36-.05,0-.15,0-.19-.06s0-.14-.06-.2-.09-.34-.13-.51c-.09-.35-.17-.7-.26-1.05a.15.15,0,0,0,0-.1A.19.19,0,0,0,4,28.17a.2.2,0,0,0-.09.07h0v0h0c-.1.29-.19.59-.28.89a4.42,4.42,0,0,1-.31.86.38.38,0,0,1-.25.21l-.4.14a5.69,5.69,0,0,0-.87.32A.18.18,0,0,0,1.83,31Z"/><path class="cls-1" d="M66.46,70c-.55-.15-1.11-.23-1.66-.36a.53.53,0,0,1-.19,0,.43.43,0,0,1-.06-.2c0-.17-.08-.33-.13-.49-.08-.35-.17-.69-.25-1a.12.12,0,0,0,0-.1.16.16,0,0,0-.2,0,.18.18,0,0,0-.09.06h0v0h0c-.1.29-.19.57-.27.86a4.65,4.65,0,0,1-.3.84.39.39,0,0,1-.24.21l-.4.14a5.27,5.27,0,0,0-.84.3.18.18,0,0,0,0,.33,6.73,6.73,0,0,0,1.32.27,18.83,18.83,0,0,0-.33,2c0,.16.17.32.29.17.4-.45.79-.91,1.18-1.36a5.25,5.25,0,0,0,1.09.85.18.18,0,0,0,.26-.2c-.15-.48-.32-1-.51-1.43a9.66,9.66,0,0,0,1.35-.44A.18.18,0,0,0,66.46,70Z"/><path class="cls-1" d="M4.72,57.44c-.06,0,0,.06,0,.09s.07.2.1.29q.84,2.41,1.69,4.83a.4.4,0,0,0,.78-.1c.11-1.09.21-2.18.32-3.27a3,3,0,0,1,1-2.25,5,5,0,0,1,2-.8,20.46,20.46,0,0,0,2.55-.7.4.4,0,0,0,0-.77A15.42,15.42,0,0,0,9.92,54a14.69,14.69,0,0,0-1.62-.11,7.48,7.48,0,0,1-.82,0c-.18,0-.2-.11-.22-.28a42.79,42.79,0,0,0-.75-4.91.34.34,0,0,0-.4-.28.34.34,0,0,0-.37.28c-.38,1.52-.46,3.09-.81,4.61a1.66,1.66,0,0,1-.6,1.08c-.43.31-.88.59-1.32.89L.18,57.21c-.3.19-.23.79.2.74l2.56-.31,1.22-.15C4.27,57.48,4.62,57.38,4.72,57.44ZM2,57l1.53-1a15.55,15.55,0,0,0,1.42-1,2.1,2.1,0,0,0,.71-1.17A23.09,23.09,0,0,0,6.13,51l.09.57c.07.45.13.89.18,1.34a4.07,4.07,0,0,0,.17,1.21,1.07,1.07,0,0,0,1.15.57,14.45,14.45,0,0,1,1.74.05,13.34,13.34,0,0,1,2.26.38l-1.54.37a5.15,5.15,0,0,0-2.19,1A3.65,3.65,0,0,0,6.86,59c-.07.57-.12,1.15-.18,1.72-.1-.31-.21-.62-.32-.93-.3-.86-.55-1.78-.92-2.61a.8.8,0,0,0-.81-.51c-.48,0-1,.12-1.44.17Z"/><path class="cls-1" d="M55.23,65.12c0,.08.06.15.08.23.45,1.27.89,2.54,1.33,3.82a.32.32,0,0,0,.62-.09c.09-.86.17-1.72.26-2.58a2.34,2.34,0,0,1,.78-1.78,4,4,0,0,1,1.61-.63,15.78,15.78,0,0,0,2-.56.31.31,0,0,0,0-.6,12.15,12.15,0,0,0-2.59-.59,11.13,11.13,0,0,0-1.28-.08,4.73,4.73,0,0,1-.65,0c-.14,0-.16-.08-.17-.22a36.36,36.36,0,0,0-.6-3.88.28.28,0,0,0-.31-.23.3.3,0,0,0-.3.23c-.29,1.2-.36,2.44-.64,3.65a1.3,1.3,0,0,1-.47.85c-.34.24-.7.46-1,.7l-2.23,1.49c-.23.16-.18.63.16.59l2-.25,1-.11c.08,0,.36-.09.44,0S55.23,65.09,55.23,65.12Z"/><path class="cls-1" d="M10.52,73.46l.18-1.93a1.83,1.83,0,0,1,.59-1.32,3,3,0,0,1,1.19-.47,11.09,11.09,0,0,0,1.5-.41.24.24,0,0,0,0-.45,9.15,9.15,0,0,0-1.93-.44,7.46,7.46,0,0,0-1-.06,3.85,3.85,0,0,1-.48,0c-.11,0-.12-.06-.13-.16a28,28,0,0,0-.44-2.89.21.21,0,0,0-.24-.17.21.21,0,0,0-.21.17c-.23.89-.27,1.82-.48,2.71a1,1,0,0,1-.35.63c-.25.19-.52.35-.78.53L6.33,70.32c-.18.11-.14.46.12.43L8,70.57l.72-.08c.06,0,.27-.07.32,0s0,0,0,.06a1.15,1.15,0,0,0,.06.17l1,2.84A.24.24,0,0,0,10.52,73.46Z"/><path class="cls-1" d="M24.19,81.15a13.65,13.65,0,0,0-.39,3.22,13.42,13.42,0,0,0,26.84,0,13.65,13.65,0,0,0-.39-3.22,13.42,13.42,0,0,1-26.06,0Z"/><path class="cls-1" d="M34.23,75.1c1-.11,1.9-.19,2.84-.33a8.14,8.14,0,0,0-.8,1.62c-.06.15.19.25.25.11a8.53,8.53,0,0,1,.91-1.58l0,1.48a11.43,11.43,0,0,0,.12,1.94c0,.18.35.19.38,0a10.48,10.48,0,0,0,0-1.94c0-.35,0-.7-.05-1.05a2.91,2.91,0,0,0,.69.52.2.2,0,0,0,.24-.31,2.59,2.59,0,0,0-.35-.31L38.14,75l-.27-.24v-.09l2.52-.41c.29,0,.17-.49-.11-.44l-2.23.38.13-.13.36-.35c.14-.12.28-.21.29-.41a.19.19,0,0,0-.19-.2c-.2,0-.32.14-.45.27s-.24.25-.35.38l0,0c-.06-1.15-.14-2.31-.22-3.46,0-.16-.26-.16-.26,0,0,1.33,0,2.65.07,4v0h0A14,14,0,0,1,36.23,73c-.1-.13-.31,0-.22.17a13.8,13.8,0,0,0,.94,1.2c-.91.17-1.82.39-2.73.59C34.14,75,34.15,75.11,34.23,75.1Z"/><path class="cls-1" d="M27.41,83.09c.94-.11,1.89-.19,2.83-.33a8.71,8.71,0,0,0-.8,1.62c-.05.15.19.26.26.11a8,8,0,0,1,.91-1.58l.05,1.48a11.36,11.36,0,0,0,.11,1.94c0,.18.36.19.38,0a10.48,10.48,0,0,0,0-1.94c0-.35,0-.7-.05-1a3,3,0,0,0,.69.53.2.2,0,0,0,.24-.31,2.58,2.58,0,0,0-.34-.32c-.12-.09-.24-.18-.35-.28s-.18-.16-.27-.24v-.09l2.53-.41c.28,0,.16-.48-.12-.44l-2.23.39.13-.14.36-.34c.14-.13.29-.22.3-.42a.22.22,0,0,0-.2-.2c-.19,0-.32.15-.44.27s-.24.25-.36.38l0,0c-.06-1.15-.13-2.3-.22-3.46a.13.13,0,0,0-.25,0c0,1.33,0,2.65.06,4v0h0A11.86,11.86,0,0,1,29.4,81c-.1-.13-.31,0-.22.17a13.8,13.8,0,0,0,.94,1.2c-.91.17-1.82.4-2.73.6C27.31,83,27.33,83.1,27.41,83.09Z"/><path class="cls-1" d="M43.49,83.52a12.75,12.75,0,0,1-1.16-1.29c-.1-.13-.31,0-.22.17.29.42.61.81.94,1.2-.91.17-1.82.39-2.73.59-.08,0-.06.15,0,.14,1-.11,1.9-.2,2.84-.34a9.12,9.12,0,0,0-.8,1.63c-.06.15.19.25.26.11a8,8,0,0,1,.9-1.58l.06,1.48a10.32,10.32,0,0,0,.11,1.93c0,.18.35.2.38,0a10.39,10.39,0,0,0,0-1.93c0-.35,0-.7,0-1a2.91,2.91,0,0,0,.69.52.2.2,0,0,0,.24-.31,2.59,2.59,0,0,0-.35-.31l-.34-.28L44,84v-.09l2.53-.41c.28,0,.16-.49-.12-.44l-2.23.38a.86.86,0,0,0,.13-.14l.36-.34c.14-.12.28-.21.29-.41a.19.19,0,0,0-.19-.2c-.2,0-.32.14-.45.27s-.24.25-.35.38l0,0c-.06-1.15-.14-2.31-.22-3.46,0-.16-.26-.17-.26,0,0,1.33,0,2.65.07,4v0Z"/><path class="cls-1" d="M49.52,43.86a9.36,9.36,0,0,0-1.4.15,2.7,2.7,0,0,1-1,0l-.14,0h0l-.1-.06s-.07,0-.06,0c-.2-.15-.34-.33-.61-.34l0-.2.17-.07.09,0,.06,0c.17-.07.34-.1.5-.17l.06,0h0l.11,0,.22-.07.22-.08a1.06,1.06,0,0,1,.25,0c.1,0,.12-.15,0-.17l-.26-.07-.22-.07a4.85,4.85,0,0,0-.55-.09,2.68,2.68,0,0,0-.56.07,2.25,2.25,0,0,0-.35.09,7,7,0,0,0-.25-.69.37.37,0,0,0,0-.11,6.45,6.45,0,0,0,2.4-1c.64-.51,1.23-1.65,2.2-1.43a.1.1,0,0,0,.08-.18c-.84-.62-1.74.2-2.41.67a6.66,6.66,0,0,1-2.68.9l-.09,0L45,40.4l.06-.07.17-.18.35-.34a3.87,3.87,0,0,1,.76-.57.1.1,0,0,0-.08-.18,5,5,0,0,0-1,.31,2.38,2.38,0,0,0-.44.25l-.24.17a5.58,5.58,0,0,0-.49-.6l.15,0a1.3,1.3,0,0,0,.41-.31c.19-.14.45-.29.67-.44a2.27,2.27,0,0,0,1-1.44,5,5,0,0,1,.43-1.76,1.69,1.69,0,0,1,.63-.56,2.55,2.55,0,0,1,.91-.29.06.06,0,0,0,0-.12,1.62,1.62,0,0,0-.9,0,2.31,2.31,0,0,0-.79.42,2.91,2.91,0,0,0-.87,1.71,2,2,0,0,1-.36.88,1.87,1.87,0,0,1-.66.44,6.88,6.88,0,0,0-.77.38.84.84,0,0,0-.43.48s0,.06,0,.09a7.92,7.92,0,0,0-.91-.71h0l.12-.26c.08-.17.18-.34.28-.51s.39-.64.62-.93a.15.15,0,0,0,0-.19.14.14,0,0,0-.18,0,4.18,4.18,0,0,0-.91.82,5.88,5.88,0,0,0-.36.51l-.15.25a5.85,5.85,0,0,0-.56-.28l-.12,0c.08-.12.16-.25.25-.37s.33-.42.48-.63a2.92,2.92,0,0,0,.52-1.67,7.34,7.34,0,0,1,0-1.69,1.33,1.33,0,0,1,.91-1,.13.13,0,0,0,0-.25,1.18,1.18,0,0,0-1.18.55,2.86,2.86,0,0,0-.47,1.65,2.84,2.84,0,0,1-.44,1.79c-.32.4-.92.79-1.07,1.3l-.56-.14v-.11a1.55,1.55,0,0,1,.07-.53,1.81,1.81,0,0,1,.2-.5l.16-.23a1.1,1.1,0,0,0,.17-.25.1.1,0,0,0-.11-.14.73.73,0,0,0-.3.16,2.08,2.08,0,0,0-.21.21,2.15,2.15,0,0,0-.37.57,2.07,2.07,0,0,0-.2.64.13.13,0,0,0,0,.06l-.72-.07a4.55,4.55,0,0,0,0-3.11c-.18-.47-.63-1-.53-1.57s.61-.57.89-.87a.17.17,0,0,0-.12-.28,1.8,1.8,0,0,0-1.23.63,1.48,1.48,0,0,0-.08,1.48,4.85,4.85,0,0,1,.49,1.86,2.78,2.78,0,0,1-.61,1.7,1.4,1.4,0,0,0-.1.16,7.55,7.55,0,0,0-.94.12,2.47,2.47,0,0,1,0-.47A4.68,4.68,0,0,1,36.39,35a.1.1,0,0,0-.18-.07,2.88,2.88,0,0,0-.3.61,3,3,0,0,0-.15.66c0,.2,0,.4,0,.6l-.68.18a.46.46,0,0,0-.17.09l-.15,0a3.8,3.8,0,0,1-.29-.38,1.31,1.31,0,0,1-.21-.63c0-.56.2-1.09.06-1.65A6,6,0,0,0,33.56,33a1.09,1.09,0,0,1,.09-1.3c.07-.07,0-.16-.1-.13a1,1,0,0,0-.5,1.1,9.43,9.43,0,0,0,.62,1.63c.17.64-.27,1.26-.24,1.91a2.46,2.46,0,0,0,.39,1.22,8.13,8.13,0,0,0-.71.4L33,37.69a2.31,2.31,0,0,1-.22-.51,3.33,3.33,0,0,1-.12-1.13c0-.06-.1-.1-.13,0a2.38,2.38,0,0,0-.14,1.24,2.93,2.93,0,0,0,.15.6,2.88,2.88,0,0,0,.13.31,8.94,8.94,0,0,0-.76.62,1.13,1.13,0,0,1-.11-.22,5.45,5.45,0,0,1-.14-.79,3.45,3.45,0,0,0-.49-1.66A4.06,4.06,0,0,0,29.55,35a1.6,1.6,0,0,1-.79-.77.74.74,0,0,1,.26-.89.11.11,0,0,0-.11-.2,1,1,0,0,0-.37,1.43c.36.73,1.2,1,1.79,1.44s.52,1.23.51,1.93a3.08,3.08,0,0,0,.32,1.58,6.8,6.8,0,0,0-.46.6l-.05,0a2.11,2.11,0,0,1-.31-.21,3,3,0,0,1-.51-.56,3.48,3.48,0,0,1-.35-.66,4.31,4.31,0,0,1-.21-.76c0-.09-.13,0-.14,0a2.07,2.07,0,0,0,0,.82,3.26,3.26,0,0,0,.32.8,3.1,3.1,0,0,0,.51.68c.1.1.21.19.32.28l.09.07a7.32,7.32,0,0,0-.45.82l-.07-.05s-.13-.09-.07,0a2.31,2.31,0,0,1-.45-.54,4.76,4.76,0,0,0-1.05-1.34,4.71,4.71,0,0,0-2.05-.58,1.66,1.66,0,0,1-1-.48.83.83,0,0,1-.1-1c0-.06-.05-.12-.1-.07a1.12,1.12,0,0,0,.25,1.57c.62.51,1.46.48,2.16.82a2.54,2.54,0,0,1,1.05,1.43c.22.46.54,1.1,1.07,1.25a7.17,7.17,0,0,0-.24.91l-.15,0-.5-.12c-.18,0-.36-.12-.54-.18s-.35-.1-.53-.17a.09.09,0,0,0-.1.13c.1.13.21.26.32.38a2.34,2.34,0,0,0,.43.33,3.42,3.42,0,0,0,.95.43,6.81,6.81,0,0,0,0,.78,2.14,2.14,0,0,1-1-.3,3,3,0,0,0-1.31-.36,3.39,3.39,0,0,0-1.33.55.91.91,0,0,1-1.36-.54.05.05,0,0,0-.1,0,1.12,1.12,0,0,0,.81,1c.57.16,1.08-.19,1.61-.31a1.89,1.89,0,0,1,1.37.48,2.42,2.42,0,0,0,1.36.49,8.58,8.58,0,0,0,.18,1.13h-.06a1.07,1.07,0,0,0-.31,0l-.26,0-.46.11a1.8,1.8,0,0,0-.91.34.08.08,0,0,0,0,.13,1.84,1.84,0,0,0,1,.1l.48,0,.26,0a1.18,1.18,0,0,0,.31-.08.41.41,0,0,0,.11-.07,9.92,9.92,0,0,0,.55,1.4h0a4.69,4.69,0,0,1-1.4.2,3,3,0,0,0-1.46.5A4,4,0,0,1,26,50.3c-.4.09-.93,0-1-.51a.07.07,0,0,0-.14,0,.9.9,0,0,0,.61.81,1.62,1.62,0,0,0,1.36-.08A4.15,4.15,0,0,1,28.55,50a10.07,10.07,0,0,0,2,0,.47.47,0,0,0,.15-.06c.11.17.24.34.36.5a4.6,4.6,0,0,1-1.17.78l-.23.11a1.71,1.71,0,0,1-.23.13.15.15,0,0,0,.08.28,2,2,0,0,0,.54-.09l.54-.21a5.27,5.27,0,0,0,.88-.53,5.32,5.32,0,0,0,.47.48l-.2.13a6.2,6.2,0,0,0-.61.54,4.86,4.86,0,0,0-.84,1.26c-.21.48-.22,1-.45,1.5s-.72.76-1.16.46c0,0-.08,0-.05.07a1,1,0,0,0,1.16.1,2.51,2.51,0,0,0,1-1.25,4.87,4.87,0,0,1,.88-1.28,3.16,3.16,0,0,1,.54-.44,2.12,2.12,0,0,1,.36-.21.73.73,0,0,0,.23-.19l.09.07q.36.24.75.45h0l-.06.29a2.82,2.82,0,0,1-.19.51,2.6,2.6,0,0,1-.72.89c-.09.06,0,.2.08.14a2.75,2.75,0,0,0,1-.79A2.85,2.85,0,0,0,34,53a1.73,1.73,0,0,0,.1-.24,8.25,8.25,0,0,0,1.17.44,2.35,2.35,0,0,0-.3.72,5.83,5.83,0,0,0-.07,1.72,2.85,2.85,0,0,1-.16,1.64,1,1,0,0,1-1.18.49c-.13-.05-.18.14-.09.21a1.23,1.23,0,0,0,1.34,0,2.07,2.07,0,0,0,1-1.4A17.16,17.16,0,0,0,36,54.72a2.08,2.08,0,0,1,.2-.71,1.38,1.38,0,0,1,.19-.28.79.79,0,0,0,.19-.27,8.77,8.77,0,0,0,1.15.09s0,.09,0,.13,0,.22,0,.33,0,.35,0,.53c0,.39.06.77.1,1.15a.13.13,0,0,0,.26,0c0-.38.08-.76.1-1.15a4.53,4.53,0,0,1,.05-.53c0-.1,0-.21,0-.31v-.17a9,9,0,0,0,1.47-.23,3.74,3.74,0,0,0,.73,2,1.77,1.77,0,0,1,.41,1.06.94.94,0,0,1-.55.88.07.07,0,0,0,0,.13c.77-.11,1-1,.94-1.68a5.25,5.25,0,0,0-.13-.69,6.29,6.29,0,0,0-.26-.65,2.94,2.94,0,0,1-.19-.64,1.64,1.64,0,0,1,.07-.66V53A8.55,8.55,0,0,0,42,52.4a.29.29,0,0,1,0,.09l.1.41.18.82c0,.19.38.16.36,0s-.07-.55-.1-.83l-.05-.4,0-.33a6.55,6.55,0,0,0,.53-.39,6,6,0,0,0,.55-.47,2.55,2.55,0,0,0,.33.52,5,5,0,0,0,1.08.91,4.78,4.78,0,0,1,.5.39,1.89,1.89,0,0,1,.47.42.93.93,0,0,1-.08,1.15s0,.14.07.09a1.18,1.18,0,0,0,.45-.9,2.11,2.11,0,0,0-.33-1.27A9.55,9.55,0,0,0,45,51.51,2.65,2.65,0,0,1,44.6,51a1.86,1.86,0,0,1-.1-.25,1.12,1.12,0,0,1,0-.24,1.34,1.34,0,0,0,0-.2q.27-.34.51-.72l.12.15c.1.12.21.23.32.34l.71.68a.14.14,0,0,0,.21-.17l-.45-.86c-.08-.14-.16-.28-.25-.41s-.18-.26-.28-.38c.12-.24.24-.49.34-.74.09.14.19.27.28.39a3,3,0,0,0,1.06.84,2.52,2.52,0,0,0,.65.23,4.33,4.33,0,0,0,.8.07,1.06,1.06,0,0,1,.65.15.6.6,0,0,1,.27.6c0,.06.08.11.11,0a.93.93,0,0,0-.3-1.08,2.29,2.29,0,0,0-.67-.4l-.34-.14-.32-.1a2.16,2.16,0,0,1-.93-.73L46.9,48l-.09-.15a.54.54,0,0,1-.07-.13s-.07-.14,0,0a1.09,1.09,0,0,0-.62-.61,3.93,3.93,0,0,0,.1-.44h0a1.27,1.27,0,0,0,.28,0l.11,0,.06,0,.41,0a1.74,1.74,0,0,1,.78.14c.13.06.27-.09.16-.2a2.22,2.22,0,0,0-.85-.5,1.31,1.31,0,0,0-.52-.06l-.3,0-.05,0a8.51,8.51,0,0,0,0-1l.23.09a2.72,2.72,0,0,0,1.33,0c.44-.09.84-.28,1.27-.41a2.53,2.53,0,0,1,1.44-.12.07.07,0,0,0,.07-.12A1.71,1.71,0,0,0,49.52,43.86Zm-15,7.86a7.47,7.47,0,0,1-4.12-8,7.31,7.31,0,0,1,2.76-4.55A8.62,8.62,0,0,1,35.21,38l.12,0a7.44,7.44,0,0,1,8.73,3.1,7.61,7.61,0,0,1-.9,9A7.4,7.4,0,0,1,34.49,51.72Z"/><path class="cls-1" d="M34.65,49.44a6.13,6.13,0,0,1-2.78-5.58c0-.06-.11-.08-.12,0a6.3,6.3,0,0,0,2.66,6C34.66,50,34.92,49.61,34.65,49.44Z"/><path class="cls-1" d="M37.42,50.39a6.51,6.51,0,0,0,5.36-2.71,6.93,6.93,0,0,0,1.27-3.07A6.86,6.86,0,0,0,44.12,43a3.38,3.38,0,0,0-.35-1.57.17.17,0,0,0-.32.09c0,.5.16,1,.2,1.48a7,7,0,0,1-.08,1.58,6.63,6.63,0,0,1-1.14,2.77,7.56,7.56,0,0,1-5,2.9C37.35,50.29,37.37,50.38,37.42,50.39Z"/><path class="cls-1" d="M32.71,42.45a6.35,6.35,0,0,1,3.59-2.78,5.36,5.36,0,0,1,2.39-.1,5.44,5.44,0,0,1,1.21.35,1.81,1.81,0,0,0,1,.25.2.2,0,0,0,.13-.24c-.08-.41-.55-.65-.9-.8a5.56,5.56,0,0,0-1.37-.42,5.78,5.78,0,0,0-2.77.18,5.28,5.28,0,0,0-3.48,3.49C32.5,42.48,32.66,42.54,32.71,42.45Z"/><path class="cls-1" d="M44,46.27c-.23.42-.36.89-.6,1.31a9,9,0,0,1-.81,1.23,7.75,7.75,0,0,1-2.21,1.9.07.07,0,0,0,.07.12A7.65,7.65,0,0,0,42.89,49a6.81,6.81,0,0,0,.87-1.25,4.12,4.12,0,0,0,.55-1.38A.15.15,0,0,0,44,46.27Z"/><path class="cls-1" d="M33.6,49.88l-.35-.3c-.23-.19-.46-.39-.67-.6a8.22,8.22,0,0,1-1.16-1.4s-.1,0-.08.05a10.42,10.42,0,0,0,1.06,1.5,6.65,6.65,0,0,0,.64.66c.11.1.23.19.35.28a1.12,1.12,0,0,0,.4.25.11.11,0,0,0,.12-.16A1.38,1.38,0,0,0,33.6,49.88Z"/><path class="cls-1" d="M38,51.09a1.09,1.09,0,0,0-.36.06l-.32.07a3,3,0,0,1-.67.1,3.29,3.29,0,0,1-1.35-.23c-.07,0-.12.09-.05.13a3.6,3.6,0,0,0,1.4.41,3.14,3.14,0,0,0,.75,0,1.58,1.58,0,0,0,.36-.09.92.92,0,0,0,.34-.18A.15.15,0,0,0,38,51.09Z"/><path class="cls-1" d="M37,86.16a1.06,1.06,0,0,0,0,2.11A1.06,1.06,0,0,0,37,86.16Z"/><path class="cls-1" d="M26.41,80.32a.86.86,0,0,0,0-1.72A.86.86,0,0,0,26.41,80.32Z"/><path class="cls-1" d="M42.58,74.75a.87.87,0,0,0-.41-.11.68.68,0,0,0-.32.07.65.65,0,0,0-.26.17.62.62,0,0,0-.17.26.71.71,0,0,0-.07.32l0,.22a1,1,0,0,0,.21.36l.17.12a.73.73,0,0,0,.41.12.67.67,0,0,0,.31-.07.74.74,0,0,0,.43-.44.55.55,0,0,0,.07-.31l0-.22a.75.75,0,0,0-.22-.36Z"/><path class="cls-1" d="M51.34,93.51a.89.89,0,0,0,0-1.77A.89.89,0,0,0,51.34,93.51Z"/><path class="cls-1" d="M24.56,94a.39.39,0,0,0,0-.15h0a.35.35,0,0,0-.07-.15.44.44,0,0,0-.08-.11l-.07-.08-.14-.11L24,93.36a.53.53,0,0,0-.28,0,.41.41,0,0,0-.18,0,.38.38,0,0,0-.15.09.4.4,0,0,0-.13.13.38.38,0,0,0-.09.15.67.67,0,0,0-.06.28l0,.18.07.17.11.14.14.11.17.07a.54.54,0,0,0,.28,0,.41.41,0,0,0,.18,0,.54.54,0,0,0,.22-.15l.07-.08a.39.39,0,0,0,.08-.1v0l0-.06h0a.41.41,0,0,0,0-.08A.36.36,0,0,0,24.56,94Z"/><path class="cls-1" d="M18.78,39.36a9.39,9.39,0,0,1,.13-1.84,17.38,17.38,0,0,1,.55-1.73A3.41,3.41,0,0,0,19.54,33a1.33,1.33,0,0,0-2-.38c-1,.72-1.21,2.08-1.36,3.2a22.46,22.46,0,0,0-.23,3.57,14.86,14.86,0,0,0,0,2.11c.07.82.08,2.33,1,2.74s1.34-.54,1.47-1.21A20.94,20.94,0,0,0,18.78,39.36Zm-.65,2a10.72,10.72,0,0,1-.28,1.5c-.06.26-.21.9-.58.85s-.46-.74-.51-1a14.65,14.65,0,0,1-.17-1.61,35.73,35.73,0,0,1,.52-6.77l0-.08c.25-.67,1.29-2,1.91-.88a3.11,3.11,0,0,1-.17,2.46,9.63,9.63,0,0,0-.61,2.57C18.22,39.35,18.25,40.34,18.13,41.33Z"/><path class="cls-1" d="M57.31,32.18c-1.11,1-.94,2.67-.4,3.91.46,1.07,1.58,2.31,2.89,1.95.81-.22.82-1.13.89-1.82,0-.19,0-.38,0-.57s.05-.68.06-1a3.67,3.67,0,0,0-.39-2.11A2,2,0,0,0,57.31,32.18Zm1.28,5.08a3.38,3.38,0,0,1-1-1.2c-.49-.93-.81-2.34-.06-3.22a1.67,1.67,0,0,1,1.17-.63,1.25,1.25,0,0,1,1.15.7c.7,1.27,0,2.82.27,4.16a.73.73,0,0,1-.13.28C59.71,37.81,59,37.52,58.59,37.26Z"/><path class="cls-1" d="M54.68,83.26a5.66,5.66,0,0,0,2.23-.34,2.16,2.16,0,0,0,1.21-3.61A4.86,4.86,0,0,0,56.43,78a3.18,3.18,0,0,0-1.17-.48,2.27,2.27,0,0,0-2.85,2,4.37,4.37,0,0,0,.6,2.28A2.23,2.23,0,0,0,54.68,83.26Zm-1.16-4.92A2.15,2.15,0,0,1,55,78a2.69,2.69,0,0,1,1.19.38,6.18,6.18,0,0,1,.53.36,7.69,7.69,0,0,1,1.1,1.18A2.1,2.1,0,0,1,58.1,81a1.5,1.5,0,0,1-1,1.32,5.77,5.77,0,0,1-1.82.44,1.42,1.42,0,0,1-1.58-.84A5.06,5.06,0,0,1,53,80,1.73,1.73,0,0,1,53.52,78.34Z"/><path class="cls-1" d="M16.19,88.84l-.48,3.54c-.08.57-.1,1.15-.15,1.72,0,.29,0,.59-.07.88a3,3,0,0,0,0,.9.32.32,0,0,0,.6,0,2.71,2.71,0,0,0,.1-.9l.05-.81c0-.59.09-1.18.09-1.77,0-1.18,0-2.36,0-3.54C16.33,88.79,16.2,88.76,16.19,88.84Z"/><path class="cls-1" d="M21.42,97.39c0-.13,0-.27,0-.41a.16.16,0,0,0-.17-.17.16.16,0,0,0-.16.17l0,.41v.21a.32.32,0,0,0,0,.14.42.42,0,0,0,0,.1.14.14,0,0,0,.14.11.14.14,0,0,0,.15-.11.21.21,0,0,0,0-.1.33.33,0,0,0,0-.14Z"/><path class="cls-1" d="M59.84,94l0,.81c0,.22,0,.43.17.59a.19.19,0,0,0,.26,0c.16-.18.12-.36.11-.59l0-.81c0-.5-.06-1-.11-1.5L60,89.39c0-.12-.2-.13-.2,0l0,3.11C59.79,93,59.81,93.5,59.84,94Z"/><path class="cls-1" d="M21,50.67l-.43-.54c-.29-.39-.55-.78-.8-1.19a21.92,21.92,0,0,1-1.33-2.48c-.05-.1-.21,0-.18.08a9.93,9.93,0,0,0,1,2.74q.36.61.78,1.2c.14.2.29.39.45.58a.81.81,0,0,0,.25.27,1.64,1.64,0,0,0,.33.14.18.18,0,0,0,.21-.21,1.78,1.78,0,0,0-.09-.33A1.21,1.21,0,0,0,21,50.67Z"/><path class="cls-1" d="M41.14,61.73a10.24,10.24,0,0,0-.42,2.39c0,.41,0,.81,0,1.21s0,1,.32,1.18a.32.32,0,0,0,.39-.05.6.6,0,0,0,.11-.59l-.09-.58q-.06-.58-.09-1.17a23.22,23.22,0,0,1,0-2.36C41.37,61.63,41.17,61.61,41.14,61.73Z"/><path class="cls-1" d="M59.28,42.46a13.37,13.37,0,0,1-.66,4.74,12.55,12.55,0,0,1-.94,2.2c-.19.34-.38.69-.58,1a4.35,4.35,0,0,0-.56,1,.11.11,0,0,0,.16.13,2.66,2.66,0,0,0,.84-.76,9.18,9.18,0,0,0,.77-1,13,13,0,0,0,1.13-2.27,12,12,0,0,0,.74-5C60.15,41.88,59.25,41.88,59.28,42.46Z"/><path class="cls-1" d="M59.6,41.25a.21.21,0,0,0,.26-.15l.07-.31,0-.16a.31.31,0,0,1,0-.08.2.2,0,0,0,0-.17l0-.06a.27.27,0,0,0-.12-.06l-.12,0a.2.2,0,0,0-.13.15.28.28,0,0,0,0,.09l0,.15-.06.31a.22.22,0,0,0,0,.16A.17.17,0,0,0,59.6,41.25Z"/><path class="cls-1" d="M24.07,75.63a3.13,3.13,0,0,0-2.07.6,15,15,0,0,0-1.93,1.23,16.24,16.24,0,0,0-3.21,3.15.3.3,0,0,0-.05.17,4.94,4.94,0,0,0-1.24,3.37A2,2,0,0,0,18,86c1.11-.38,1.37-1.72,1.94-2.6a13.76,13.76,0,0,1,2.37-2.57,10.47,10.47,0,0,0,2.11-2.58C24.82,77.39,25.37,76,24.07,75.63ZM21.9,80.09a23.56,23.56,0,0,0-2.06,2.06,7.2,7.2,0,0,0-.73,1c-.26.44-.44.91-.69,1.35s-.56.82-1.08.74a1.28,1.28,0,0,1-1-1.07,4.4,4.4,0,0,1,1.25-3.34,15.19,15.19,0,0,1,2.94-2.66,23.51,23.51,0,0,1,3.36-2,.48.48,0,0,1,.44.36c.14.46-.35,1.18-.59,1.54A11.36,11.36,0,0,1,21.9,80.09Z"/><path class="cls-1" d="M13.14,60.18a1.06,1.06,0,0,0,0-.5v-.09a.89.89,0,0,0-.24-.42.68.68,0,0,0-.29-.18.62.62,0,0,0-.35-.08l-.24,0a.84.84,0,0,0-.4.23,1.25,1.25,0,0,0-.15.19l-.09.22v.1a.85.85,0,0,0,0,.5.82.82,0,0,0,.24.41l.19.15a1,1,0,0,0,.47.13.86.86,0,0,0,.36-.08.75.75,0,0,0,.3-.2A.82.82,0,0,0,13.14,60.18Z"/><path class="cls-1" d="M5.32,77.2A1.64,1.64,0,1,0,7,78.84,1.65,1.65,0,0,0,5.32,77.2Z"/><path class="cls-1" d="M10.59,86l.05-.11,0-.06,0-.1a.58.58,0,0,0,.06-.26l0-.18a.7.7,0,0,0-.19-.32l0,0-.07-.08a.4.4,0,0,0-.15-.1.58.58,0,0,0-.18,0,.52.52,0,0,0-.33.14L9.71,85l0,0a.7.7,0,0,0-.19.32l0,.18,0,.18s0,.12.07.18l0,.06.05.11a.55.55,0,0,0,.2.2.53.53,0,0,0,.56,0A.55.55,0,0,0,10.59,86Z"/><path class="cls-1" d="M67.09,57.7l-.32-.25a1.56,1.56,0,0,0-.79-.21,1.25,1.25,0,0,0-.6.13,1.22,1.22,0,0,0-.5.33,1.1,1.1,0,0,0-.33.5,1.15,1.15,0,0,0-.13.6c0,.14,0,.28,0,.42a1.52,1.52,0,0,0,.41.69l.31.25a1.58,1.58,0,0,0,.79.21,1.11,1.11,0,0,0,.6-.14,1.14,1.14,0,0,0,.51-.32,1.16,1.16,0,0,0,.32-.5,1.27,1.27,0,0,0,.14-.61l-.06-.41A1.5,1.5,0,0,0,67.09,57.7Z"/><path class="cls-1" d="M70.36,64.57a.49.49,0,0,0-.24,0l-.5.1-.09,0a.26.26,0,0,0-.09.09.29.29,0,0,0-.07.2.33.33,0,0,0,0,.17.28.28,0,0,0,.09.1.23.23,0,0,0,.12.06l.5.1a.49.49,0,0,0,.24,0,.45.45,0,0,0,.19-.11.48.48,0,0,0,.13-.32.46.46,0,0,0-.13-.31A.39.39,0,0,0,70.36,64.57Z"/><path class="cls-1" d="M69.17,91.82a.85.85,0,0,0,0,1.7A.85.85,0,0,0,69.17,91.82Z"/><path class="cls-1" d="M74.61,26.54a1.44,1.44,0,0,0-.49-.49,1.38,1.38,0,0,0-.69-.19,1.43,1.43,0,0,0-.69.19l-.13.06-.07,0a1.2,1.2,0,0,0-.28.21,1.05,1.05,0,0,0-.18.25v0l0,.08s0,0,0,.05a.2.2,0,0,0-.06.15h0l0,.19v.09a1.1,1.1,0,0,0,0,.36.14.14,0,0,1,0,.06v0a1.25,1.25,0,0,0,.29.47.82.82,0,0,0,.28.21l.07,0,.13.07a1.42,1.42,0,0,0,.69.18,1.37,1.37,0,0,0,.69-.18,1.53,1.53,0,0,0,.49-.49,1.39,1.39,0,0,0,0-1.37Z"/><path class="cls-1" d="M6.15,37.59a.91.91,0,0,0,0,.89h0a.7.7,0,0,0,.2.22h0A.63.63,0,0,0,6.6,39a.69.69,0,0,0,.32.08.61.61,0,0,0,.55-.31h0a.5.5,0,0,0,.14-.15l.07-.09a.89.89,0,0,0-.76-1.33A.91.91,0,0,0,6.15,37.59Z"/><path class="cls-1" d="M8.42,93.48a.39.39,0,0,0-.18-.18.52.52,0,0,0-.52,0,.52.52,0,0,0-.18.18l-.07.1a.61.61,0,0,0-.08.51,1.11,1.11,0,0,0,.07.16v0l.11.22a.46.46,0,0,0,.17.17.48.48,0,0,0,.23.07.51.51,0,0,0,.24-.07.55.55,0,0,0,.17-.17l.1-.22a1.63,1.63,0,0,0,.09-.19.66.66,0,0,0-.09-.51Z"/><path class="cls-1" d="M79.54,0a5.79,5.79,0,1,0,5.79,5.79A5.81,5.81,0,0,0,79.54,0Zm2.64,2.67a.34.34,0,1,1,0,.48A.34.34,0,0,1,82.18,2.67Zm-3-.95a.34.34,0,0,1,.68,0V2.4a.34.34,0,0,1-.68,0ZM75.47,6.13a.34.34,0,1,1,0-.68h.68a.34.34,0,0,1,0,.68ZM76.9,8.91a.34.34,0,1,1,0-.48A.34.34,0,0,1,76.9,8.91Zm0-5.76a.34.34,0,1,1,0-.48A.34.34,0,0,1,76.9,3.15Zm3,6.71a.34.34,0,0,1-.68,0V9.18a.34.34,0,0,1,.68,0Zm1.94-1.8a.33.33,0,0,1-.48,0l-2-2a.35.35,0,0,1-.1-.24v-2a.34.34,0,0,1,.68,0v1.9l1.94,1.94A.33.33,0,0,1,81.82,8.06Zm.84.85a.34.34,0,1,1,0-.48A.34.34,0,0,1,82.66,8.91ZM84,5.79a.34.34,0,0,1-.34.34h-.68a.34.34,0,1,1,0-.68h.68A.34.34,0,0,1,84,5.79Z"/></g></g></svg>