<svg xmlns="http://www.w3.org/2000/svg" viewBox="0 0 94.23 101.2"><defs><style>.cls-1{fill:#fff;}</style></defs><g id="Layer_2" data-name="Layer 2"><g id="Layer_1-2" data-name="Layer 1"><path class="cls-1" d="M84.72,96.52a4.57,4.57,0,0,1-.44-.85c-.11-.38-.44-.65-.58-1s-.52-.88-.72-1.34-.49-.91-.69-1.38a6.07,6.07,0,0,0-.66-1.13,22.26,22.26,0,0,0-1.25-2.37c-.76-1.58-1.67-3.1-2.42-4.69-.24-.61-.66-1.14-.94-1.73a2.92,2.92,0,0,0-.56-.71,5.44,5.44,0,0,1,.54-.15,2.3,2.3,0,0,1,.66-.34,1.6,1.6,0,0,0,.47-.75c.3-1.37.44-2.76.68-4.14.11-1,.36-1.9.52-2.86.08-.55.29-1.06.37-1.61a23.19,23.19,0,0,0,.47-2.85c-.48-.7-1.09-1.32-1.55-2a17,17,0,0,0-1.72-2.14c-1.11-1.56-2.33-3-3.48-4.56-.26-.41-.69-.69-.92-1.12-.38-.64-1-1.13-1.31-1.79-.61-.8-1.24-1.58-1.8-2.41a6.74,6.74,0,0,1-.87-1c-1.24-1.56-2.42-3.17-3.69-4.71.41-.77.57-1.64,1-2.39.44-1.07.9-2.14,1.36-3.21.63-1.37,1.25-2.76,1.74-4.18.13-.33.51-.66.32-1a10.05,10.05,0,0,1-.78-1.66c-.35-.63-.63-1.3-1-1.91a17.36,17.36,0,0,0-1.31-2.19,24.89,24.89,0,0,0-2.26-3c-.4-.41-.75-.87-1.18-1.25a20.78,20.78,0,0,0-2.43-2.26c-.4-.31-.73-.69-1.14-1a8,8,0,0,0-1.4-1.05c-.75-.57-1.63-.95-2.41-1.49a9,9,0,0,0-1.16-.46,7.71,7.71,0,0,0-2.79-.22,7.3,7.3,0,0,0-2.69,1,22.44,22.44,0,0,0-4.37,3.06c-.43.34-.81.75-1.26,1.07a4.36,4.36,0,0,0-.91.91c-.77.74-1.48,1.56-2.21,2.35-.56.75-1.29,1.35-1.78,2.15-.53.62-.94,1.32-1.44,1.95s-1,1.45-1.56,2.15c-.25.46-.7.78-.91,1.27a2.3,2.3,0,0,1-.47.64c.39.55.62,1.19,1,1.72.81,1.29,1.52,2.62,2.32,3.91.25.5.59.95.82,1.46.41.77.89,1.51,1.31,2.27A8.48,8.48,0,0,1,40.21,49c-.23.06-.47.08-.7.14a10.4,10.4,0,0,1-.72.76c-.34.55-.77,1-1.07,1.61-.5.64-.86,1.38-1.33,2.05s-1.06,1.51-1.54,2.31c-.17.3-.45.53-.61.84a7.63,7.63,0,0,1-.7,1.13c-.48.64-.77,1.4-1.3,2s-1,1.61-1.54,2.34c-.21-.33-.51-.59-.7-.94a17.18,17.18,0,0,0-1.41-1.89,22.45,22.45,0,0,0-1.35-1.85,11.73,11.73,0,0,1-1-1.26c-.38-.44-.65-1-1-1.41-.53-.93-1.36-1.64-1.93-2.53-.34-.45-.65-.92-1-1.39-.48-.73-1.11-1.34-1.53-2.08-.43-.56-.84-1.14-1.32-1.66-.85-1.22-1.77-2.39-2.65-3.59-.31-.33-.55-.72-.87-1,.88-1.09,1.87-2.08,2.78-3.14a18.58,18.58,0,0,1,1.47-1.6c1-1.33,2.26-2.47,3.29-3.79.27-.51.79-.78,1.14-1.22s.82-.87,1.17-1.37c.19-.25.45-.45.63-.72.34-.47.86-.78,1.22-1.24A7.44,7.44,0,0,1,29.07,28a8.49,8.49,0,0,0-1.14-.92c-.51-.49-1.16-.81-1.71-1.26A23.61,23.61,0,0,0,23.73,24a5.45,5.45,0,0,0-1.32-.91c-.5.62-1,1.27-1.53,1.85a14.26,14.26,0,0,1-1.06,1.27,16.37,16.37,0,0,0-1.27,1.49c-.55.58-1,1.23-1.59,1.8-1,1.23-2.07,2.34-3.07,3.54-.42.58-1,1.07-1.41,1.65a4.82,4.82,0,0,1-.9,1c-.37-.23-.62-.61-1-.8a2.59,2.59,0,0,0-1.09-.41A8,8,0,0,0,8.27,36c-.42.57-.92,1.06-1.33,1.63A8.07,8.07,0,0,0,8.38,39.1a1.23,1.23,0,0,0,.53.21,3.26,3.26,0,0,0-.44.15,2.72,2.72,0,0,1-.69.93,5.85,5.85,0,0,1-1.32.12A5.6,5.6,0,0,0,6,40.15c-.45.63-.79,1.32-1.22,2S4,43.68,3.53,44.42a32.08,32.08,0,0,0-2.15,6.3c-.18.67-.23,1.36-.42,2s-.23,1.6-.41,2.39a3.36,3.36,0,0,0-.06.63l-.07.1C.26,57.74.11,59.62,0,61.5a8.27,8.27,0,0,0,1.16-1.34c.8-.82,1.46-1.77,2.21-2.65a7,7,0,0,0,1-1.27c1-1,1.73-2.15,2.68-3.14.39-.54.91-1,1.28-1.52a21.69,21.69,0,0,1,1.64-1.95c.79-1,1.59-2,2.46-2.94.42-.62,1-1.11,1.42-1.73.23.33.49.63.72.95.68,1.19,1.7,2.14,2.41,3.3.67.86,1.31,1.74,1.95,2.63.34.59.9,1,1.23,1.63a16.47,16.47,0,0,1,1.26,1.63c.75.88,1.33,1.89,2.06,2.8a4.44,4.44,0,0,0,.81,1c.5.6.91,1.28,1.41,1.89a9.56,9.56,0,0,0,1.69,2.11,15.39,15.39,0,0,0,1.42,2c-.44.57-.7,1.26-1.14,1.83a15.75,15.75,0,0,0-1.06,1.51c-.37-.12-.7-.33-1.08-.42a4.94,4.94,0,0,0-.59.43l-.27,0c-.21.26-.44.5-.64.77s-.41.85-.68,1.24c.4.38.9.62,1.33,1-.1.49-.55.77-.8,1.17a40.82,40.82,0,0,0-2.45,3.79,15.34,15.34,0,0,0,2,1.51,12,12,0,0,0,1.48.94c.94.59,1.9,1.16,2.84,1.75a6,6,0,0,1,.86.64c-.49,2-1.11,4-1.75,6-.09.36-.19.72-.31,1.07a11,11,0,0,0-.37,1.24c-.28.73-.35,1.5-.62,2.23s-.44,1.5-.63,2.27c-.39,1-.64,2.1-1.05,3.13s-.63,2-.85,3a4.74,4.74,0,0,1-.39,1.28H85.05V99.5c.43,0,.85,0,1.28,0C85.81,98.49,85.26,97.51,84.72,96.52ZM60.44,43.16a1.5,1.5,0,0,1-.89,0c-.23.27-.21.65-.43.93a2.09,2.09,0,0,1-1.46,1.07.63.63,0,0,1-.52-.29,3.08,3.08,0,0,0-.61,0c0,1.09.06,2.17,0,3.26a3.69,3.69,0,0,0,0,.94c0,.13,0,.26,0,.4-3.21,0-6.42,0-9.63.06,0-1.1,0-2.21,0-3.31,0-.41.1-.81.06-1.21-.57,0-1.14,0-1.71,0a.58.58,0,0,0-.43-.13c0,.17.24.37.07.51a4.11,4.11,0,0,0-.15-.46c-.21-.36-.34-.77-.58-1.13.21,0,.41.27.64.1a4.67,4.67,0,0,0-1.68-.69c-.29,0-.37-.36-.45-.58s.16-.53.24-.79.12-.53.14-.8c0-.49.43-.9.42-1.4,0-1.95,0-3.9,0-5.84a2.34,2.34,0,0,1,0-.38l.38.12a4,4,0,0,1,.18-.68,4.59,4.59,0,0,1,.41-.36,2.28,2.28,0,0,1,1.2-.33c4.08,0,8.16,0,12.24,0a2.6,2.6,0,0,1,1.7,1.28A2.79,2.79,0,0,1,60,35.06c0,1.62,0,3.24,0,4.85.18.12.46.17.55.4h0l-.33,0v-.18c-.16-.11-.21.17-.26.26a2,2,0,0,0,0,.65,1.41,1.41,0,0,1,.88.15.88.88,0,0,1,.26.65A3.3,3.3,0,0,1,60.44,43.16Z"/><path class="cls-1" d="M50.47,40.36a9.39,9.39,0,0,0,.21-1c.06-.49-.1-1-.06-1.46-.55,0-1.1,0-1.66,0-.14,0-.32,0-.43-.08a.68.68,0,0,1-.31.08c-1-.07-2,0-2.94,0a5.52,5.52,0,0,1-.07,1.22,5.24,5.24,0,0,1,.11,1c.12.32.14.73.45,1a2.94,2.94,0,0,0,2.33.38,5.06,5.06,0,0,0,.95.06,3.15,3.15,0,0,1,.44-.11C49.83,41.1,50.35,40.88,50.47,40.36Z"/><path class="cls-1" d="M52.84,38a2.2,2.2,0,0,0-.12,1A6.11,6.11,0,0,0,52.77,40a3.19,3.19,0,0,0,.89,1.26c.42.4,1,.25,1.56.28a6.81,6.81,0,0,0,1.86-.12,3.14,3.14,0,0,1,.48-.33,5.3,5.3,0,0,0,.46-.6,21.89,21.89,0,0,0,0-2.56Z"/><path class="cls-1" d="M52.86,44.19a10.14,10.14,0,0,1-.12-2.06,16.45,16.45,0,0,0-1.86,0c-.16.29,0,.65-.11.95a3.1,3.1,0,0,0-.23.71c0,.22,0,.52-.24.64a3,3,0,0,0-.74.64c0,.23-.07.51.1.71a4.08,4.08,0,0,0,1-.1l.08-.27a6.91,6.91,0,0,1,.27-1.11l.1-.06a3.6,3.6,0,0,1-.24.91c.33,0,.65,0,1,0v.57h1.6A1.75,1.75,0,0,0,52.86,44.19Z"/><path class="cls-1" d="M93.74,11.62a2.54,2.54,0,0,0-1.43-.14l-1.19-1.2a.75.75,0,0,0,.25-.42A1.34,1.34,0,0,0,91,8.51,3.47,3.47,0,0,1,91,7a5.09,5.09,0,0,0-.1-2.77l1.38-1.39a2.62,2.62,0,0,0,1.43-.14A.91.91,0,0,0,94,2.53a.92.92,0,0,0,.23-.89A1,1,0,0,0,94,1.25.92.92,0,0,0,93.24,1,.89.89,0,0,0,93,.27.83.83,0,0,0,92.59,0a.88.88,0,0,0-.89.23.66.66,0,0,0-.17.23,2.58,2.58,0,0,0-.14,1.42L90.27,3a3.33,3.33,0,0,0-.76-.68,4.49,4.49,0,0,0-2.66-.71,4.16,4.16,0,0,0-3.19,1.18l-.91-.91A2.45,2.45,0,0,0,82.61.49a.72.72,0,0,0-.17-.22.9.9,0,0,0-1.28,0A.92.92,0,0,0,80.9,1a.9.9,0,0,0-.72.26.92.92,0,0,0-.23.39.9.9,0,0,0,.23.89.76.76,0,0,0,.23.17,2.49,2.49,0,0,0,1.42.14l1.09,1.09a4.44,4.44,0,0,0-.26.67,5.91,5.91,0,0,0,.21,3.2,1.26,1.26,0,0,1-.31.93,1,1,0,0,0,.33,1.68l-1.06,1.07a2.41,2.41,0,0,0-1.42.14,1.19,1.19,0,0,0-.23.16.92.92,0,0,0-.23.9,1,1,0,0,0,.23.39.9.9,0,0,0,.72.26.94.94,0,0,0,.26.72.88.88,0,0,0,.39.23.92.92,0,0,0,.9-.23.73.73,0,0,0,.16-.23,2.49,2.49,0,0,0,.15-1.42l1.65-1.65a4,4,0,0,1,.31,1.44s0,.59.56.5c0,0,.26,0,.31-1.13,0,0,.29-.28.27.38,0,0-.07.78.42.73,0,0,.28.17.39-.68,0,0,0-.74.26-.46,0,0,.08,1.08.39,1.19,0,0,.45.14.53-.45,0,0,0-.95.25-.78,0,0,.09.07.1.64,0,0,0,.61.38.57,0,0,.4,0,.51-.93,0,0-.07-1,.45-1.21l1.85,1.84a2.63,2.63,0,0,0,.14,1.43.72.72,0,0,0,.17.22.88.88,0,0,0,.89.23.83.83,0,0,0,.39-.23.89.89,0,0,0,.26-.72.92.92,0,0,0,.73-.26,1.12,1.12,0,0,0,.23-.39.92.92,0,0,0-.23-.89A.72.72,0,0,0,93.74,11.62ZM84.63,9.34a1.66,1.66,0,0,1-.48-.19,1.2,1.2,0,0,1-.63-1.25A1.3,1.3,0,0,1,85.11,7a1.57,1.57,0,0,1,.77.42,1.11,1.11,0,0,1,.34,1A1.3,1.3,0,0,1,84.63,9.34Zm2.68.85a.34.34,0,0,1-.18.07.37.37,0,0,1-.29-.18.35.35,0,0,1-.28.18.29.29,0,0,1-.18-.07.5.5,0,0,1-.19-.43.61.61,0,0,1,0-.15c.06-.39.63-.87.63-.87s.58.48.64.87a.68.68,0,0,1,0,.15A.53.53,0,0,1,87.31,10.19Zm2.47-1.25a1.55,1.55,0,0,1-.76.4,1.58,1.58,0,0,1-.72,0,1.16,1.16,0,0,1-.87-.86h0a1.2,1.2,0,0,1,.62-1.23,1.5,1.5,0,0,1,.5-.2,1.29,1.29,0,0,1,1.58.89A1.15,1.15,0,0,1,89.78,8.94Z"/></g></g></svg>