<svg xmlns="http://www.w3.org/2000/svg" viewBox="0 0 79.02 112.75"><defs><style>.cls-1{fill:#fff;}.cls-2{fill:none;stroke:#fff;stroke-linecap:round;stroke-linejoin:round;stroke-width:0.76px;}</style></defs><g id="Layer_2" data-name="Layer 2"><g id="Layer_1-2" data-name="Layer 1"><path class="cls-1" d="M14.89,77.2a21.6,21.6,0,0,0-.71,2.13C14,80,12,83,13.11,83.76c.89.62,1.07,0,1.33-.09s.8-1.6.8-1.6-.35,1.86.27,1.69.88-2.84.88-4.17a14,14,0,0,1,.18-2.3Z"/><path class="cls-1" d="M43.86,64.17a9.26,9.26,0,0,0,2-2.12c.8-1.24,2.31-3.28.62-4.17s-2.21,1.77-2.21,1.77.62-1.33-.36-1.41-.44,3-.79,3.54A4.55,4.55,0,0,0,42.53,63Z"/><path class="cls-1" d="M22.24,92.09a85.27,85.27,0,0,0-.62,8.59,44.19,44.19,0,0,1-.44,7.53c-.27,1.15-2.66,2.93-1.51,3.9A2.8,2.8,0,0,0,24,110.52c.45-2.22,1.07-6.56,1.33-8.86s.36-6.38.62-7.8A17.33,17.33,0,0,0,26.23,91l-4.08-.71Z"/><path class="cls-1" d="M30.44,92.26s.12,5,.65,8.59a43.26,43.26,0,0,1,.67,7.51c-.09,1.18-2.2,3.29-.92,4.08a2.8,2.8,0,0,0,4.06-2.21c.12-2.26.09-6.65,0-9s-.59-6.37-.54-7.81a17,17,0,0,0-.15-2.84l-4.14-.1Z"/><path class="cls-1" d="M51.19,33.58a7,7,0,0,0,3.41-6.45,8.55,8.55,0,0,0-8.28-8.72c-2.37-.15-5.09.37-6.81,2.07.06-.36,0-8.44-10-8-3.62.17-6.76,1.78-8.31,4.38a8.06,8.06,0,0,0-14.75,4C2.72,21.92,0,25,0,28.55A7.71,7.71,0,0,0,3.59,34.9a7.43,7.43,0,0,0-2.17,5.17c0,3.41,2.45,6.32,5.91,7.5a7.32,7.32,0,0,0,.24,4.55c1.65,4.14,6.87,6,11.67,4A10.59,10.59,0,0,0,22,54.55a10.41,10.41,0,0,1-2.77-1.9c-5.67-5.4-3.9-13.55-3.9-13.55a5.13,5.13,0,0,0,3.9-1,5.79,5.79,0,0,0,1.95-3s1.22,3.36,4.61,3.36a4.07,4.07,0,0,0,4.07-3.19,4.54,4.54,0,0,0,5,3.64c3.28-.27,4.52-4.79,4.52-4.79s3,7.39,0,14.36a11.24,11.24,0,0,1-8.34,6.37c3.64,3.51,9,3.88,12.14.79a7.38,7.38,0,0,0,2.12-4.76,9.74,9.74,0,0,0,1.22.08,9.3,9.3,0,0,0,4.62-17.39Z"/><path class="cls-2" d="M26.5,51.41a2.24,2.24,0,0,0,1.77,1.15,1.82,1.82,0,0,0,1.59-1.15"/><path class="cls-1" d="M41.29,69.13A11.73,11.73,0,0,0,44,64.53l-1.42-2s-1.68,2.39-3.36,2.3a6.28,6.28,0,0,1-2.49-.53s-2.39-8.42-11.34-7.35a7.11,7.11,0,0,0-4.69,2.48c-2,2.51-5.94,16.48-6.21,17.19s.89,1.24,2,1.24,2.13-2.75,2.13-2.75a29.57,29.57,0,0,0-.53,9.31c.44,4.27,1.59,6.11,2.3,6.64a41.47,41.47,0,0,0,7.62.71,38,38,0,0,0,9.39-1.15s2.49-3.1,2.22-8.77A53.65,53.65,0,0,0,37.48,70.2,3.62,3.62,0,0,0,41.29,69.13Zm-14.35-9.3a1.15,1.15,0,1,1,0,2.3,1.15,1.15,0,1,1,0-2.3Zm.26,6.38a1.15,1.15,0,1,1,1.16-1.15A1.16,1.16,0,0,1,27.2,66.21Z"/><path class="cls-1" d="M68.87,10.77a5,5,0,0,1,1.69-.84,7.5,7.5,0,0,1,2.06-.13c1,0,2.3-.3,2.55-1.43l.5.35a1.73,1.73,0,0,0-.07-.87A4,4,0,0,1,75,7.78a2.84,2.84,0,0,1-.56-.19,1.73,1.73,0,0,0-.42.77l.68-.13c-.28,1.29-2,1.07-3,1.07a5.23,5.23,0,0,0-3.19,1.13C68.29,10.62,68.63,11,68.87,10.77Z"/><path class="cls-1" d="M76.7.06A2.48,2.48,0,0,0,76.16,0a3.67,3.67,0,0,0-3.29,3.11,3.62,3.62,0,0,0,1.85,4.27l.36.11.37,0h.17a3.68,3.68,0,0,0,3.29-3.12C79.36,2.38,78.37.42,76.7.06Z"/></g></g></svg>