<svg xmlns="http://www.w3.org/2000/svg" viewBox="0 0 84.41 111.81"><defs><style>.cls-1{fill:#fff;}</style></defs><g id="Layer_2" data-name="Layer 2"><g id="Layer_1-2" data-name="Layer 1"><path class="cls-1" d="M28.68,14.19a2.91,2.91,0,0,1,1.51,2.27,7.38,7.38,0,0,1-.05,2.77,2.24,2.24,0,0,0,3.52,2.24,2.27,2.27,0,0,0,.86-2.4A6,6,0,0,0,32.8,16c-1.46-1.32-3-2.56-4.47-3.84l-.14-.12.06-.1c.88.47,1.79.9,2.64,1.42a33.52,33.52,0,0,1,8.56,7.72,76.87,76.87,0,0,1,9.43,15.1c.75,1.54,1.44,3.12,2.13,4.69a1.41,1.41,0,0,1,.07.81c-1.24,4.73-2.48,9.45-3.78,14.15a41.23,41.23,0,0,1-3.38,8.85,17,17,0,0,1-1.33,2.21,10.72,10.72,0,0,1-1.3,1.31l-.11-.08c.12-.76.25-1.52.36-2.28.43-2.94.9-5.88,1.28-8.83.29-2.27.54-4.55.71-6.84a8.61,8.61,0,0,0-6.2-8.83A9.5,9.5,0,0,0,34.79,41c-6.6,0-13.21,0-19.82,0H14.6a.67.67,0,0,0-.7.61c0,.36.19.6.6.69,1.37.3,2.77.51,4.11.92a25.63,25.63,0,0,1,12.5,8.42,28.14,28.14,0,0,1,6.07,12.77c.3,1.56.41,3.16.58,4.74a13.46,13.46,0,0,1,0,1.68.68.68,0,0,1-.18.46c-2.33,2.27-4.62,4.57-7,6.77A45.4,45.4,0,0,1,20.1,85.42,20.65,20.65,0,0,1,13,87.65,13,13,0,0,1,1.75,83.78,15,15,0,0,1,.41,82a3.52,3.52,0,0,1-.29-2.66,22,22,0,0,1,3.37-8.57,42.78,42.78,0,0,1,12-12.49c2-1.41,4-2.79,6-4.23a13.67,13.67,0,0,0,2-1.81A2.19,2.19,0,0,0,23.6,49a11.45,11.45,0,0,0-3.49-2.93,20.06,20.06,0,0,0-6.18-2.51,16.23,16.23,0,0,0-2.51-.3,5.38,5.38,0,0,1-5.13-4.14,10.44,10.44,0,0,1-.53-2.93.55.55,0,0,1,.49-.64A86.41,86.41,0,0,0,17.45,32a.74.74,0,0,0,.49-.56,23.33,23.33,0,0,1,3.13-6.54,4.73,4.73,0,0,1,2-1.6c1.82-.81,3.66-1.56,5.5-2.31.26-.11.39-.2.33-.49a3.45,3.45,0,0,1,.23-1.85c.12-.35.22-.7.33-1.05a3.11,3.11,0,0,0-.32-2.64C29,14.71,28.87,14.5,28.68,14.19Z"/><path class="cls-1" d="M65.63,101.4a17.94,17.94,0,0,0,6.79-14.55,17.31,17.31,0,0,0-5.81-12.73,13.51,13.51,0,0,1,1.53,5,12.65,12.65,0,0,0-6.81-2.1,15.21,15.21,0,0,0-2.42.21,13,13,0,0,1,6.4,5.59,13.73,13.73,0,0,0-5.68-1.27A12.45,12.45,0,0,0,54,83a12.67,12.67,0,0,1,9.38,5.61,9.5,9.5,0,0,0-8.52.28,7.73,7.73,0,0,0-3,2.82,9.78,9.78,0,0,1,8.47.39,7.79,7.79,0,0,1,3.51,3.7c-.42-.4-.78-.79-1.19-1.12a6.72,6.72,0,0,0-5.37-1.56,40.3,40.3,0,0,0-8.89,2.46c-3.52,1.3-7,2.74-10.52,4.08a49,49,0,0,1-9.54,2.7,27,27,0,0,1-7,.24A25.84,25.84,0,0,1,12.1,100,21.73,21.73,0,0,1,1.57,89.43,16.87,16.87,0,0,1,.06,83.64c0-.12,0-.24,0-.36s0-.25,0-.37c1,4.29,3.84,6.81,7.86,8.14a15.47,15.47,0,0,0,9.92-.3A36.84,36.84,0,0,0,27.06,86a89.06,89.06,0,0,0,9.58-8,53.24,53.24,0,0,1,10.23-7.53,18.32,18.32,0,0,1,5.4-2,18.75,18.75,0,0,1,6.47,0,17.65,17.65,0,0,1,11.49,7.06,17.19,17.19,0,0,1,3.48,9.39,17.79,17.79,0,0,1-6.39,15.25C66.79,100.57,66.2,101,65.63,101.4Z"/><path class="cls-1" d="M63.58,102.89a5.4,5.4,0,0,0,.14,5.71,2.13,2.13,0,1,1-3.95,1.15,7.4,7.4,0,0,1,2.36-5.67c.43-.45.91-.84,1.37-1.26Z"/><path class="cls-1" d="M77.39,3a1.8,1.8,0,0,0,1,1.61l.2.1V3.83A.87.87,0,0,0,77.68,3h-.29Z"/><path class="cls-1" d="M80.9,3.83v.91l.2-.1a1.8,1.8,0,0,0,1-1.61V3h-.29a.87.87,0,0,0-.88.88Z"/><path class="cls-1" d="M82.07.29A.29.29,0,0,0,81.68,0a1.26,1.26,0,0,0-.78,1.17H78.56A1.26,1.26,0,0,0,77.78,0a.29.29,0,0,0-.39.27V2.36h.29a1.47,1.47,0,0,1,1.47,1.47V5l.45.23a.31.31,0,0,0,.13,0,.28.28,0,0,0,.13,0L80.32,5V3.83a1.46,1.46,0,0,1,1.46-1.47h.29Z"/><path class="cls-1" d="M75.68,6.2A4.32,4.32,0,0,0,76.34,8L77.9,5.88H76A.29.29,0,0,0,75.68,6.2Z"/><path class="cls-1" d="M80,10a4.41,4.41,0,0,0,2.64-7.92V3a2.37,2.37,0,0,1-1.3,2.13l-1.24.62a.76.76,0,0,1-.39.1h-1.1L76.71,8.45A4.39,4.39,0,0,0,80,10Z"/></g></g></svg>