<svg xmlns="http://www.w3.org/2000/svg" viewBox="0 0 88.05 109.22"><defs><style>.cls-1{fill:#fff;}</style></defs><g id="Layer_2" data-name="Layer 2"><g id="Layer_1-2" data-name="Layer 1"><path class="cls-1" d="M0,41a2.86,2.86,0,0,1,2.7-2.1l3.8-.45c-.06-.62-.07-1.19-.17-1.73a9.52,9.52,0,0,1,.4-5.85,1.86,1.86,0,0,0,.14-.78c0-.68-.22-1.36.79-1.66s1.63-.65,2.5.24a21.57,21.57,0,0,0,3.29,2.65,3.7,3.7,0,0,1,1.87,3c-1.78.88-3.42.37-5-.75-.17,3,3,6.83,6.18,7.53-.63-4.66.69-9,1.59-13.49a1.39,1.39,0,0,1,1.57-1.32c2,0,4.06-.24,6.09-.29a5.2,5.2,0,0,1,1.51.45c-.3.54-.48,1.25-.93,1.59a16.33,16.33,0,0,1-3.27,2,3.45,3.45,0,0,0-2,4.27,44.9,44.9,0,0,0,2,7.1c1.19,3.1,3.92,4.49,6.9,5.42a1.88,1.88,0,0,0,2.58-1.14,3.23,3.23,0,0,1,.56-.9,1.88,1.88,0,0,0,0-2.69c-1.11-1.42-.91-4.5.32-6,.92,2.76,2.71,5.13,2.48,8.18a9.71,9.71,0,0,0,.09,2.64c.49,2.2-.43,3.61-2.13,4.91a47.07,47.07,0,0,0-4.74,4.42,3.23,3.23,0,0,0-.64,1.8c1.32-.64,2.92,0,4-1.29.26-.33,1.17-.25,1.75-.17a4.14,4.14,0,0,0,3.59-1.18c1.89-1.72,4-3.22,5.89-4.9a2,2,0,0,0,.62-1.51c-.27-2.08-.81-4.14-1-6.23a40,40,0,0,1,.05-4.77c0-.79,0-1.59,0-2.38.08-1.21.11-2.33-1.56-2.41a.87.87,0,0,1-.57-.47c-1.17-2.49-1.67-5-.28-7.6a30.33,30.33,0,0,0,1.47-3c1.31-3.28,3.93-4.71,7.23-4.86s6.39.25,8.88,2.63a11.62,11.62,0,0,1,3.31,6.51,16.21,16.21,0,0,1-1.1,8.32c-.42,1.15-.91,2.43-2.87,1.62-.66,2.37-1.36,4.58-1.9,6.83-.46,2-.82,4-1.1,6-.17,1.23.45,1.86,1.59,1.59,1.84-.45,2.92.57,4,1.71a6.43,6.43,0,0,1,1.11,1.49,5,5,0,0,0,3.63,2.58c2.69.61,5.33,1.66,8.29.84L73,58.79l1.3.11c-2.31,3.11-.81,4.46,2.21,5-.49,1.78-1,3.5-1.42,5.25a1.9,1.9,0,0,0,.45,1.47c.85.88,1.82,1.64,2.8,2.49-2,1.4-2,4.39-.3,6.27.54.61,1,1.32,1.47,2l-.4,0c-.35,1-.66,2-1,3-.3.79-.7,1.54-1,2.33a1.88,1.88,0,0,0-.12.93c.11.6.52,1.21.45,1.77-.27,2.22.88,3.79,2.22,5.28.83.91.73,1.62.15,2.75-1.81,3.47-4.82,5.4-8.14,7l-1,.53a5.21,5.21,0,0,1,.3-1.09,3.73,3.73,0,0,0-.22-4.51c-1.49-2.09-1.61-4.63-2.16-7A8.27,8.27,0,0,0,68,90.7c-.93,2.3-2.77,4.18-2.79,6.83,0,3.79,0,7.58,0,11.58-1.84-.41-3.36-.82-4.92-1.07a10.7,10.7,0,0,0-3-.07c-2.32.32-4.61.86-6.93,1.14a7,7,0,0,1-3.46-.23c-2.86-1.22-5.69-.83-8.58-.38-1,.16-2.08.26-3.15.39-.58-3.8-1.15-7.49-1.71-11.11-1.44.84-2.75,1.68-4.12,2.39a3.72,3.72,0,0,1-4.18-.79,13.85,13.85,0,0,1-3-4.41c-1.1-2.35-1.8-4.89-2.81-7.29A17.74,17.74,0,0,1,18,80.31a9.74,9.74,0,0,0-.58-3,19,19,0,0,0-1.08-2.46c.11-.18.14-.3.21-.32,1.54-.46,1.73-1.55,1.79-3,.11-2.92-.08-5.74-1.58-8.31A2.33,2.33,0,0,0,15.4,62a4.7,4.7,0,0,1-3.23-1.81,17.76,17.76,0,0,0-4-3.33A15.84,15.84,0,0,1,2.6,50a1.8,1.8,0,0,1,1.37-2,28.32,28.32,0,0,1,3.9.29c.51.06,1,.31,1.54.35C7.31,46.94,5.72,44.68,2.9,44,1.84,43.74,1,42.71,0,42Zm50.18-4.21-.54.15-.41,2.24c-1.1-.43-2.39-1.41-3.3-1.13s-1.48,1.79-2.35,3c1.62.63,3.54.06,3.67,2.25l.74-.9,2.95,1.87.21-.29L52,45.78a11.37,11.37,0,0,0,1.37-2c.35-.89.42-1.9.75-2.8.42-1.15.08-1.82-1.09-2.24l-.59,1.48C50.29,40.12,50.35,38.36,50.18,36.76Zm8.53-7.85c-.91-2.09-1.83-2.7-4-2.8-1.1-.06-2,.27-2.27,1.35a2.1,2.1,0,0,0,1.05,2.46C55.39,31.07,57.16,31.16,58.71,28.91Zm-11.27-.15a1.63,1.63,0,0,0,1.83-1.48,2.27,2.27,0,0,0-1.05-1.81,4.87,4.87,0,0,0-2.94-.22c-.61.16-1.16,1.1-1.37,1.8-.09.28.76,1,1.31,1.26A9.71,9.71,0,0,0,47.44,28.76Zm3.76,0-.38-.19c-.72.89-1.5,1.76-2.15,2.71-.17.25,0,1.07.14,1.13a22.84,22.84,0,0,0,2.63.61,3.26,3.26,0,0,0,.12-.74C51.46,31.1,51.32,29.93,51.2,28.75Z"/><path class="cls-1" d="M81.08,2.38h.48l1.17,1.17,1.12-1.12L82.68,1.26V.78a.78.78,0,0,0-1.56,0v0h0a.78.78,0,0,0,0,1.56Z"/><path class="cls-1" d="M87.27,5.36h-.48L85.62,4.19,84.49,5.32l1.17,1.17V7a.78.78,0,0,0,1.56,0v0h0a.78.78,0,1,0,0-1.56Z"/><path class="cls-1" d="M87.27,2.38a.78.78,0,1,0,0-1.56h0v0a.78.78,0,0,0-1.56,0v.48l-4.1,4.1h-.48a.78.78,0,0,0,0,1.56h0V7a.78.78,0,0,0,1.56,0V6.49l4.11-4.11Z"/></g></g></svg>