<svg xmlns="http://www.w3.org/2000/svg" viewBox="0 0 76.21 99.86"><defs><style>.cls-1{fill:#fff;}</style></defs><g id="Layer_2" data-name="Layer 2"><g id="Layer_1-2" data-name="Layer 1"><path class="cls-1" d="M27.5,99.86C56.43,90.44,55,48.55,55,48.55c-18.72-.5-27.5-13.14-27.5-13.14S18.73,48.05,0,48.55C0,48.55-1.42,90.44,27.5,99.86ZM1.6,50.07A37.38,37.38,0,0,0,27.5,38,37.44,37.44,0,0,0,53.41,50.07a82,82,0,0,1-2.87,20.25c-4.12,14.65-11.86,24-23,27.85-11.19-3.83-18.94-13.23-23-27.93A81.73,81.73,0,0,1,1.6,50.07Z"/><path class="cls-1" d="M27.51,97.16c10.68-3.79,18.12-12.91,22.11-27.1A81.67,81.67,0,0,0,52.44,51a38.49,38.49,0,0,1-24.93-11.6A38.55,38.55,0,0,1,2.57,51a81.39,81.39,0,0,0,2.8,19C9.35,84.22,16.8,93.36,27.51,97.16ZM3.23,51.54A39.08,39.08,0,0,0,27.51,40.28,39,39,0,0,0,51.78,51.54,80,80,0,0,1,49,69.88c-3.9,13.89-11.14,22.84-21.5,26.6C17.12,92.71,9.88,83.74,6,69.81A80,80,0,0,1,3.23,51.54Z"/><path class="cls-1" d="M27.5,68.26V95.8h0c10-3.73,17.07-12.51,20.88-26.09.14-.48.27-1,.39-1.45Z"/><path class="cls-1" d="M27.5,41.18A39.87,39.87,0,0,1,3.89,52.12,80.57,80.57,0,0,0,6.23,68.26H27.5Z"/><path class="cls-1" d="M76.21,5.7h-3v3H70.51v-3h-3V3h3V0h2.68V3h3Z"/></g></g></svg>