<svg xmlns="http://www.w3.org/2000/svg" viewBox="0 0 90.31 101.87"><defs><style>.cls-1{fill:#fff;}</style></defs><g id="Layer_2" data-name="Layer 2"><g id="Layer_1-2" data-name="Layer 1"><path id="_10" data-name="10" class="cls-1" d="M85.78,34.49c-2.44.33-3.06.35-3.06.35a27.18,27.18,0,0,1-2,2.14c-1,.89-4,3.51-4.93,4.21s-1.44,1.15-1.93,1.54a3.79,3.79,0,0,0-2.64.68,3.21,3.21,0,0,0-1.06,1.07l-.37.05a5.6,5.6,0,0,0-.38-1.5c-.17-.08-.92.63-1.21.78s-4.74,1.85-5.73,1.82a2.9,2.9,0,0,1-1.72-.72,6.25,6.25,0,0,0-1,.52l-1.17-.33-1,.56S54,44.44,53.44,44.3l-2.72-.63c-.08,0-1.44-.29-1.85-.35s-1.19-.18-1.1-.62a13.7,13.7,0,0,1,1.56-2.26,7.9,7.9,0,0,0,3.38-.69c.91-.55-.1-1-.48-1.2s-.46-.37-.43-.5l0-.14s-.4.13-.44.13a1.72,1.72,0,0,1-.6,0,2,2,0,0,1-.89-.42c-.07-.05-.49-.48-.23-.44s.82.43,1.31.32a1,1,0,0,0,.71-.5c0-.08-.32-.13-.39-.3a.59.59,0,0,1,.16-.57,2.58,2.58,0,0,1,1.17-.46,7.77,7.77,0,0,0,1,0c.15,0,.16-.31-.1-.58A3.6,3.6,0,0,0,51,34.45c-1,.18-.41-.57-.41-.57a.58.58,0,0,0,0-.66,1.89,1.89,0,0,0-.9-.31,6.13,6.13,0,0,1,3-3.19,26.63,26.63,0,0,1,3.69-1.88,2.75,2.75,0,0,0-1.66-.78,17.7,17.7,0,0,0-5.31,2.06c-1.95,1.07-1.8,1.22-2.18,1.06s-.69-1.22-.83-1.34-.44-.57-1.6-.25c-1.22-.87-4-3.18-5.61-3.51s-3.48-.52-3.69-.6a2.46,2.46,0,0,0-1.18,0,3.84,3.84,0,0,0-1.47.77c-.25.24-1.71,2-2.38,2.6S29.23,29,28.81,30.92s-.9,2.25-1.31,2.57l-1.05.85a15,15,0,0,0,2.73-1.43c.44-.45,1.77-3.27,2.34-3.68a10.59,10.59,0,0,1,1.1-.69s.41,1,1.24,0c.46.88.77.83,1.61.28a9.29,9.29,0,0,1,2,1.88l.75,2.07s-.7.59-.65.9a17.64,17.64,0,0,0,.7,1.77,11.54,11.54,0,0,1-4,3,24,24,0,0,0-3.66,1.71s.4.87,1,.91A39.17,39.17,0,0,0,36,40s-2.67,2.56-3.33,3.4-3.78,3-6,1.57a2.3,2.3,0,0,0,2.42,1.38c-1.64.83-6.31,2.62-8.5,1.37,2.09,1.35,7.94.91,9.55.17-1.63,1.75-4.94,4.67-9,4.69,3.4.52,8.11-1.1,9.82-2.69-2,2.48-3.17,3.45-4.26,4,3.5-1.22,6.12-3,7-4.36C32.26,52.11,31.78,53,31.82,53c.15-.28.73-.56,1-.76a22.79,22.79,0,0,0,2.08-1.84A12.41,12.41,0,0,0,37.68,46c.83-1.93,2-4.09,4.31-4.08A17.14,17.14,0,0,0,39.06,46c-.4.86-2.41,5.79-2.68,6.46S34,57.37,33.3,58.77,30.71,64.68,30.89,67s2,3.92,5.33,4.31C31,75.21,26.9,78.05,26.9,78.05l1.2-1.8s-1.5,1-1.83,1.16a4.86,4.86,0,0,0,.48-1.65,8.47,8.47,0,0,1-1.15,1.47,11.35,11.35,0,0,0,.82-2.16l-.46,0-1.39,3.22-.62.15.59-2.23-.38.15s-1.58,4-1.73,4.17c-.44-.32-.39-.47-.54-.32s-.18.52-.29.55-.25-.25-.43-.22-.11,1-.1,1.15-4.12.6-5,1-4.87,1.89-6.34,1.64c.31.36,2.26.47,2.26.47a29.66,29.66,0,0,1-4.24,2,34.13,34.13,0,0,1-5,.93l0,.58A11.09,11.09,0,0,0,8.84,87,20.4,20.4,0,0,1,5,89.61c-1.16.5-5,1.46-5,1.46l.23.35a20.88,20.88,0,0,0,5.41-1.23A21.07,21.07,0,0,1,.86,93.43c-.29.4.08.48.08.48a16.24,16.24,0,0,0,5.21-2.66A28,28,0,0,1,1.25,96a.57.57,0,0,0,.29.5s4.16-3,5.53-3.61c-2.26,2.35-3.88,3.87-3.81,3.81s.12.33,2.65-1.46C4.73,96.59,3.5,98,3.55,98s.2.29.25.24,4.05-3.26,4-3.18S3.36,99.6,3.36,99.6l.47.28L9.06,95.4l-3.27,4.85.47.23s2.88-3.57,3-3.78c-.1.16-1,2-1,2L8,100.35l.24,0s.85-1.42,1.1-1.8,1.63-2,1.63-2S9.27,99.85,9.32,99.8l2.18-2.36.1.15-1.53,4.28.44,0s2-3.49,2.13-3.78S14.31,96,14.31,96l.89-.66s-.36,1.83-.45,2.1a7,7,0,0,0-.23.69A1.71,1.71,0,0,1,15,98s.43-1.2.6-1.58.55-1.56.81-2.07a8.75,8.75,0,0,1,1.68-1.65,17.1,17.1,0,0,0,3.41-4.59c.72-1.82,1.26-3.3,1.38-3.41s.31.06.31.06.39.19.54.09.2-.1.22-.29a2.15,2.15,0,0,0,0-.43,1,1,0,0,0,.36,0c.22,0,.41-.17.42-.3s-.06-.74-.06-.74,4.89-1.45,5.69-1.7v-.24l-2,.13,2.91-1.19L31.13,80l-2,.59,2-1.29c-.06,0-2.53.82-2.53.82l-1.25.43,11-7.71a20.86,20.86,0,0,1,0,2.62,7.73,7.73,0,0,1-2.12,3.72,35,35,0,0,1-5.05,4.2c-.48.38-2.1,2.09-1.83,3.6a8.22,8.22,0,0,1,4.21-3.89c2.63-1.22,3.87-2.29,4.47-3.48C36.78,82.18,36.47,83.46,36,84A8.2,8.2,0,0,1,34,85.59a5.52,5.52,0,0,0,3.37-1.51c1.41-1.26,2.72-2.44,4.27-2.65a8,8,0,0,0,4.24-1.91A10.92,10.92,0,0,0,45.61,84a4,4,0,0,1-.16,2.23,2,2,0,0,0-2,1.26l-1.85,1a8.75,8.75,0,0,0,.32,1.18c0-.07,2.22,0,2.22,0a3.13,3.13,0,0,1,.32,1.72c-.43,1.38-.57,2.92.73,3.92a2.24,2.24,0,0,0,3.51-1c-.1.24-1,.31-1.23.23a1.42,1.42,0,0,1-.51-.43,1.69,1.69,0,0,1-.43-1,1.93,1.93,0,0,1,.2-.71,8.37,8.37,0,0,0,1-4.75c-.14-1.07,0-1.07,0-1.07a35,35,0,0,0,2.65-8.33c1.71-1.49,7.07-6.06,7.07-6.06a9.68,9.68,0,0,0,1.61,7.28,1.76,1.76,0,0,0-1.13,2c-1.23,1.46-1.92,2.19-1.87,2.14s.77,1.34.84,1.23a15.37,15.37,0,0,1,1.59-.78,2,2,0,0,1,.73,1.79c-.08,1.23.9,3.16,1.92,3.35a3.34,3.34,0,0,0,3-1c.8-.85.55-1.11.53-1.12a3.77,3.77,0,0,1-.56.59,1.13,1.13,0,0,1-1.11,0,1.76,1.76,0,0,1-.8-1.34,6.25,6.25,0,0,1,.09-1.61,9.14,9.14,0,0,0-.77-5.62,43.78,43.78,0,0,1,.85-8.34c.47-1.54,1.4-7.1,1-8.33s-1.4-2.19-3.53-2.64-3.77-.7-3.77-.7l5.74-4.56.7.4a5,5,0,0,1,.06,1.54,2,2,0,0,0,.56,1.55,1.11,1.11,0,0,1,0,1.32c.9-.81.94-1.5.7-2.05s0-1.31.34-1.45a5.61,5.61,0,0,1,1.16,1.66,10.34,10.34,0,0,0,.35,1.91,18.28,18.28,0,0,0,1.42,1.8,3.62,3.62,0,0,1,.41,3c-.31,1.54,1.14,3.57,1.14,3.57s-.54-2.56-.15-3.36a7.08,7.08,0,0,0,.67-2.66,5.79,5.79,0,0,0-.67-1.57c-.26-.54.56-2,.37-2.36s-1.28-1.2-1.41-1.68a2.14,2.14,0,0,1-.1-1.54A14.67,14.67,0,0,0,67.83,52a2.73,2.73,0,0,0-.38-1.89,8.78,8.78,0,0,0,.94-.72,1.16,1.16,0,0,0,1.18.21c.72-.25.51-.5.51-.5a1.18,1.18,0,0,0,.67-.15c.24-.17-.06-.46-.06-.46a1.18,1.18,0,0,0,.8-.17c.27-.24.29-.6,0-.68.43-.23.5-.39.44-.73,1-.14,1.49-.11,1.67-.3a.34.34,0,0,0,.07-.38.75.75,0,0,0,.6-.09c.32-.2.4-.34,0-.54.69-.25,1.24-.67.63-.9.41-.39.46-.54.28-.74s-.7-.11-.7-.11,4.76-3.61,5.35-4.14S85.54,34.69,85.78,34.49Zm-33.7,24.8s-5.84.08-7.39.33c-1.67-1.59.25-4.45.58-4.79s2.1-.7,2.67-1.22-.1-3.2,0-3.47a4.45,4.45,0,0,1,.57-.85c0-.07,2.39,3.73,3.83,4.33s3.89,1.55,6.3.91Z"/><path class="cls-1" d="M87.3,6.61a0,0,0,0,0-.06,0,1.27,1.27,0,0,1-.72.55h0A.17.17,0,0,1,86.34,7a.15.15,0,0,1,.14-.15,1.09,1.09,0,0,0,.58-.44,0,0,0,0,0,0,0,27.16,27.16,0,0,1-.51-2.95.09.09,0,0,0,0-.08.28.28,0,0,0-.22-.05.58.58,0,0,1-.69-.51.16.16,0,0,1,.09-.19.16.16,0,0,1,.21.08v0c0,.28.18.28.38.27s.31,0,.4.14a.06.06,0,0,0,.07,0c.52-.22,1.33-.79,1.86-.58s.92.88,1.26.72-.65-2-1.11-2.34A4.12,4.12,0,0,0,85.19.09c-1.54.26-3.83,4.54-4.39,6.26h0c-1.32,0-3.94.41-3.64,1.53.2.77,2.16.69,3.58,1s4.89,1.16,7.23.41C91.33,8.25,91.05,7.3,87.3,6.61ZM85.11,7.83h-.57a6.58,6.58,0,0,1-3-.52.18.18,0,0,1,0-.23.17.17,0,0,1,.23,0h0c.82.57,3.34.46,3.36.46a.15.15,0,0,1,.17.15.16.16,0,0,1-.15.17Z"/></g></g></svg>