<?xml version="1.0" encoding="UTF-8"?>
<svg id="Layer_2" data-name="Layer 2" xmlns="http://www.w3.org/2000/svg" viewBox="0 0 1148.82 319.47">
  <defs>
    <style>
      .cls-1 {
        fill: #b2d7eb;
      }
    </style>
  </defs>
  <g id="Layer_1-2" data-name="Layer 1">
    <path class="cls-1" d="M.99,101.51c0-.46-.23-1.15,0-1.62,2.54-7.84-.46-15.91,0-23.75.23-1.39.23-2.77.23-4.15.23-.92.46-2.31,0-3-.93-2.54-1.39-4.61.23-7.15.46-.69.23-2.07,0-3.23-.23-3.69-1.39-7.61-.92-11.3.92-5.07,0-10.15,0-15.22.23-5.76,0-11.53-.46-17.07C-.39,10.64,1.46,7.42,3.53,3.96c1.39-2.07,4.38-2.77,6.69-1.38,2.77,1.84,5.53,4.15,8.3,6.46.46.23,1.16,1.15,1.16,1.38-.93,3.69.92,7.38-.69,10.84-.46,1.15-.23,2.77,0,3.92.92,2.54,1.84,5.08.46,7.84-.23.46-.23,1.38,0,2.07,1.15,3.92,1.15,7.84.69,11.99-.23,4.61-.46,9-.69,13.37,0,.93.23,2.08.46,2.77,1.15,3.69,2.07,7.38-.23,11.07-.69,1.15,0,3.46.23,5.07.69,3.23,2.07,6,.23,9.22-.69.92-.23,2.77,0,3.92.46,2.77.69,5.31.23,8.07-.69,2.3.69,5.08.46,7.61,0,3.23-.69,6.23-1.15,9.45,0,.93-.23,2.08.23,2.77,1.84,3.69,1.15,7.38.92,11.3,0,4.15-.46,8.3-.46,12.45,0,.23,1.62,1.15,2.54,1.15,3.69-.69,7.15-1.38,10.84-1.84,1.38-.23,3-.23,4.38,0,3.23.69,6.22,2.08,9.45,2.54,5.07.46,8.07,5.53,7.15,9.46-.93,4.61-6.23,8.53-10.84,7.84-2.77-.46-5.31-.92-8.07-1.39-2.31-.46-4.38-.46-6.69.93-2.31,1.61-5.31,2.07-8.3,1.15-3-.69-6-.92-9-2.08-4.38-1.38-7.38-4.38-8.76-8.99-1.16-4.15-1.84-8.3-.93-12.91.23-1.84.46-4.15,0-6-1.84-6.22-.46-12.45-.69-18.68v-3.23h.46c-.46-3.46-.69-6.92-.92-10.61Z"/>
    <path class="cls-1" d="M67.42,17.79c0-3.92,1.15-6.69,4.38-9.45,3.46-3.23,7.15-4.15,11.76-4.61,4.38-.23,8.99-1.15,13.37-1.15,4.61,0,9.22,1.15,13.84,1.84,2.07.23,4.38.46,6.69.92,2.31.23,4.61.46,6.92,1.38,3.69,1.16,5.31,4.61,5.53,8.3,0,1.39-.69,3.23-1.84,4.15-3,2.3-6.23,4.38-10.38,3.69-3-.46-6.22,0-9.45.23-1.38,0-3,.46-4.38.23-3-.69-5.77-.23-8.54.23-1.15.23-2.3,0-3.46-.23-4.15-1.15-5.53,0-5.3,4.15.23,1.38.23,3-.46,4.38-1.38,3.23-.69,6.45,0,9.68.23,2.07,1.39,2.54,3,1.62,4.61-3.46,10.14-2.31,15.22-2.77,2.77-.46,5.76-.46,8.53-.69,5.53-.92,11.76,3,13.15,7.84,1.15,4.85-2.31,10.84-8.77,10.84-6.92.23-12.91,2.07-18.91,4.61-4.38,1.84-8.77,4.15-11.76,7.84-.92.92-1.39,2.3-1.39,3.23.69,7.38-.92,14.76,1.15,21.91.69,2.31,0,4.84-.23,7.38-.23,5.07.23,10.38-.23,15.68-.46,3.92.46,7.84.69,11.76.23,3.69.23,7.15,0,10.61,0,1.62.46,2.31,2.07,2.07,5.07-1.15,9.92,0,14.99.69.92.23,1.84-.23,2.77,0,4.15,0,8.3-.23,12.23.69,6.69,1.39,9.68,11.53,5.07,16.6-1.84,2.07-4.38,3-7.38,2.54-3.46-.23-7.15-.69-10.61-.69-5.77,0-11.3.23-17.07.23-.92,0-1.84.23-2.77.46-8.07,2.3-13.84-2.54-15.68-8.77-1.38-3.46-1.62-7.38-1.84-11.3-.23-3,.69-6,.46-9.22,0-3.23-.69-6.46-.93-9.69,0-3,.23-5.99.23-8.76v-14.76c-.23-3.92-.23-8.07-.46-12.22-.23-5.08-.69-10.15-.92-15.45,0-.69-.23-1.62,0-2.31,1.15-3.92.23-7.61-.23-11.3,0-1.84.23-3.69.23-5.31.23-3,.23-5.76.23-8.53.23-3.92.23-7.61.46-11.53,0-5.77-.23-11.3,0-17.07Z"/>
    <path class="cls-1" d="M161.05,92.28v3.46c-.92,7.84,0,15.68.69,23.52.46,6,1.62,11.99,2.54,18.22.69,3,7.84,7.61,10.61,6.46,1.39-.69,2.77-1.84,3.23-3,2.3-4.85,4.84-9.45,4.15-15.22-.46-3,.46-5.99.46-8.99,0-3.69-.46-7.38-.69-11.07-.23-3.23-.46-6.23-1.62-9.46-1.15-2.77-.92-6.46-1.38-9.68-1.16-6.23-4.15-11.99-7.15-17.76-.46-.93-.92-2.08-1.39-3.23-1.61-3.46-3.69-6.23-7.38-7.38-.23,0-.69-.23-.92-.46-3.69-3.23-7.38-6.46-10.84-9.92-1.84-2.08-3.23-4.15-4.61-6.46-2.54-4.38-3.23-9.69-2.31-14.3.92-4.61,1.84-9.68,7.15-12.22,3-1.62,5.08-4.38,7.84-6.46,1.39-.92,3-1.84,4.38-2.07,4.38-.46,8.77-1.39,13.15-.69,4.15.46,8.76,1.62,11.99,5.31,4.15,4.84,8.07,9.68,8.31,16.37.23,2.08.23,4.15-.23,6-.92,3.92-5.53,5.76-8.99,3.92-4.15-2.07-7.84-4.61-9.22-9.22-.69-2.54-2.54-3.46-4.85-3.46-1.84,0-3.92,0-5.76.23-4.15.69-6.46,6.69-3.69,10.15,2.07,2.77,4.38,4.84,7.38,6.69,7.84,5.53,14.3,12.22,17.76,21.68,2.08,5.76,4.84,11.3,6.92,17.06,1.84,5.31,3.46,11.07,2.54,17.06-.23,1.16-.46,2.54,0,3.46,1.84,6.23,1.61,12.46,1.38,18.68-.23,3.23-.46,6.46-.23,9.69.69,4.61-1.15,8.53-3,12.45-1.39,3.23-2.54,6.46-3.92,9.46-3.92,7.84-10.84,11.53-18.91,12.68-3.92.69-8.3-.23-11.76-3.46-.69-.69-1.62-1.15-2.3-1.39-4.38-1.61-6.69-5.53-9.92-8.3-3-2.53-2.31-6.46-3.92-9.68-2.53-5.31-1.61-11.53-3.69-17.07-.46-1.84-.23-3.92-.23-5.76-.23-2.31,0-4.61-.23-6.92-.46-2.77-1.62-5.31-.23-8.31.92-2.07-.23-4.84-.23-7.15.23-4.38.46-8.53.46-12.91,0-.46.23-.92.23-1.15-1.84-4.38-.23-8.07,1.16-12.23,1.15-3.23,3.92-6.22,7.38-6.46,4.61-.69,8.76,2.77,9.22,7.38,0,.69.23,1.39.23,2.08v8.07c0,3.92.23,7.84.46,11.76Z"/>
    <path class="cls-1" d="M284.45,35.09c-.23,1.38-.46,3,0,4.15,1.61,3.92.92,7.84,0,11.99-.23,1.39,0,2.77,0,4.15-.23,4.38-.23,8.76-.69,12.91-.23,1.84-.23,3.23.92,4.61,1.62,2.3,1.62,4.61.92,7.15-.23.92-.46,1.84-.46,2.77.23,6.46.46,12.91.46,19.6,0,.46.23,1.39.23,1.84-1.62,6.46-.23,12.91-.23,19.14-.23,3.92-.69,8.07-.92,11.99,0,1.84.23,5.07.46,6.92.46,3,1.84,4.38,4.38,3.69,4.85-1.38,30.44-.46,35.28-.23,6.46.23,13.15-.23,19.84-.46,3.46-.23,6.92-.46,10.15-.69,8.07-.69,13.61,7.15,10.61,14.53-1.15,2.3-3.23,3.69-5.99,3.92-8.3.23-16.6.69-24.91.92-6,0-12.22-.46-18.45-.46-5.07,0-31.36,0-36.43.23-3.23,0-6.46-.23-8.31-2.76-3.23-3.69-4.61-8.31-4.38-13.15.23-3.69-.23-8.76-.46-12.45-.23-4.15-.46-8.54-.46-12.68-.23-3.69-.23-7.61-.23-11.3,0-2.31-.23-4.85.46-6.92,1.38-5.31.46-10.61.23-15.91-.46-5.07-.46-10.38-.46-15.45,0-7.15.46-14.3.46-21.45,0-1.84-1.15-3.69-1.15-5.53,0-5.31.23-10.84.46-16.37v-5.3c.23-4.62.23-9.22.46-13.84.46-5.3,6.92-9.22,11.99-7.15.23,0,.46.23.69.23,1.84,4.61,7.15,7.38,5.99,13.38-.69,3.23.23,6.69.46,11.07-.23,1.61-.69,4.15-.92,6.92ZM309.59,113.96c4.61-.46,9.22.23,13.84.46,2.31,0,4.84,0,7.38-.46,6.69-1.15,13.84-.92,20.76-.92,3,0,6.45.92,9.45,1.84,3.46,1.38,5.99,6.45,5.53,9.91-.46,3.69-2.77,5.53-7.15,6.92-4.38,1.62-8.77.23-13.37.23-3.23.23-6.46-.23-9.69,0-1.84,0-3.46.92-5.07,1.15-1.84.23-3.46.46-5.31.23-3,0-6,0-9-.69-3.92-.46-7.84-1.15-11.3-2.54-2.77-1.15-4.85-3.92-4.15-7.15.23-5.76,2.54-8.76,8.07-9ZM359.4,89.51c-2.3,5.08-5.53,8.53-10.38,10.84-6.46,2.53-12.91,4.38-19.84,2.3-.69-.23-1.61-.23-1.84-.69-3.69-3.69-9.45-4.85-13.37-8.31-2.31-2.07-3.46-5.3-5.08-7.84-.46-1.15-.92-2.3-1.61-3.46-1.39-2.53-2.77-5.31-2.77-8.53-.23-3.69-1.61-7.38-2.3-11.53-.69-3.46-.23-5.76-.46-9.45.92-10.84,4.84-41.74,20.75-46.12,3.46-.69,6.92-2.07,10.38-2.77,3.23-.69,6.46-.46,9.69-.46.69,0,1.38.23,2.07.46,3.92,2.54,8.07,4.84,12.22,7.61.69.46,1.62.92,2.08,1.61,2.53,4.38,5.99,8.07,7.38,13.15,3.69,13.14,2.07,8.53,2.53,19.37-2.3,15.69-1.38,27.21-9.45,43.82ZM321.58,64.38c0,3,1.38,6.69,2.31,9.68,1.61,5.31,6.45,7.61,10.38,10.84,1.61,1.15,3.92,1.15,5.3-.46,2.08-2.07,4.15-3.69,5.31-6.92,1.62-1.62,3.69-13.14,3.69-15.22.46-4.84.69-9.68.92-14.99v-.23c1.62-16.37-.23-14.76-1.15-16.83-1.62-3.46-7.38-9.45-10.84-9,0,0-.23,0-.23.23-4.61,2.07-9.22,4.38-11.53,9.22-6,33.67-3.92,4.61-4.15,33.67Z"/>
    <path class="cls-1" d="M409,162.39c-4.84-.69-9.68-1.62-13.14-5.53-.23-.23-.46-.46-.69-.46-6-2.76-8.3-8.3-10.38-13.83-.92-2.54-1.84-5.31-2.07-7.84-.69-5.76-.69-11.76-.93-17.53,0-.92,0-2.07-.46-2.77-1.15-1.84-.46-3.69-.23-5.53.23-2.07,1.15-4.38.46-6.23-1.84-5.31-.69-10.38-.46-15.45,2.77-9.92,0-45.66.92-52.35,0-1.84.23-3.92.23-5.77v-10.61c0-2.31.69-4.61.46-6.69-.46-5.31,2.76-8.77,8.07-8.3,7.61.69,10.38,3.23,10.38,10.84.23,5.77-.69,11.3-.93,17.07,0,6.92-.46,13.84.23,20.76.69,6.92-.23,13.83-.46,20.75-.23,8.77-.69,17.53-.23,26.29,0,3.92,1.15,7.84-.23,12,0,.23,0,.92.23,1.15,2.3,4.84.92,10.15,1.39,15.22.23,5.77,1.38,11.53,6.92,14.76,1.84,1.15,4.38,1.84,6.46,1.84,3.46.23,7.15.23,10.61-.92,4.84-1.38,7.15-5.53,8.07-10.15,1.16-4.61.69-9.45.69-14.07.23-4.84,1.38-9.68.69-14.76-.46-5.08.69-10.15.69-15.22.23-6.46.46-13.15-.46-19.61-.92-9,.23-17.99.23-26.75,0-5.3-.69-10.38-.92-15.45-.23-5.3-.46-10.61,0-15.91.23-5.07,3.69-7.38,9.92-7.84,5.76-.23,8.77,2.77,8.07,8.3v.46c.23,1.84,0,3.69.46,5.53,1.15,3.92,1.39,7.84,0,11.76-.46,1.38-.23,3.23.23,4.61.92,2.54.69,4.61.46,7.15-.69,4.84-.69,9.45-.69,14.3,0,4.38.46,8.77.46,13.15,0,2.76-.46,5.3.92,7.84.23.46.23.92.23,1.39,0,5.3.23,10.38.23,15.68,0,2.54-.23,4.85-.69,7.38,0,1.39-1.15,3.23-.69,4.38,1.38,3.92,1.15,7.84.46,11.76-.69,3.69-.69,7.61-.92,11.3-.23,3,.23,6-.69,8.54-1.38,4.84-3.23,9.45-5.3,14.07-.46.92-1.62,1.61-2.31,2.3-2.07,1.62-3.92,3.23-5.99,4.84-1.39.93-3,1.39-4.38,2.08-4.61,2.3-9.69,2.54-14.76,2.3-3.46,0-6.92.23-10.15-.23Z"/>
    <path class="cls-1" d="M528.92,60.23c-1.84,5.53-5.76,10.15-11.07,13.14-4.84,2.77-10.15,5.08-15.45,7.38-1.84.69-3.92.46-5.99.93-3,.46-6.23.69-9.22,1.84-.92.23-1.62,2.53-1.62,4.15,0,2.07.69,4.15,1.16,6.23,0,.69.46,1.38.23,2.07-1.16,4.38-.92,8.76-.69,13.38.23,1.38.23,2.76.23,4.38,0,3.46-.23,6.92-.23,10.61,0,3,.23,6.22.23,9.22,0,3.69,0,7.61-.23,11.3,0,1.39.23,2.77.23,3.92s.23,2.07,0,3c-1.15,3.23-2.3,6.92-3.92,9.91-1.62,3.23-7.38,3.46-10.15.46-2.54-2.77-5.08-5.77-4.15-10.15.23-.23.23-.69,0-.92-1.84-4.61-.23-9.22,0-14.07,0-2.31-.23-4.85-.46-7.38-.23-1.62-.23-3.46-.23-5.08,0-1.15.23-2.07.23-3-1.38-10.61.69-21.45-.46-32.29-.46-4.38,0-9-.23-13.61,0-1.15-.46-2.07-.69-3.23,0-.93-.46-2.31-.23-3,2.08-4.15.92-8.07.69-11.99-.46-3.69.23-7.38.23-10.84.23-1.62.46-3.46.46-5.08-.46-5.08.46-10.15-1.15-15.45-.69-3,.92-6.69.69-9.92-.23-2.76.46-5.07,2.07-6.22,3.46-2.54,6.92-4.85,10.84-6,3.92-1.38,8.3-1.38,12.46-1.84,1.38-.23,3-.23,4.38-.23,4.38.69,8.54,2.31,13.15,2.31,2.07-.23,4.38,2.3,6.46,3.69,1.62,1.15,3.23,2.3,4.38,3.69,1.84,2.07,3.23,4.15,4.85,6.45,4.38,6.69,7.15,13.84,7.15,23.98-.93,4.85-1.62,11.76-3.92,18.22ZM514.17,40.16c-.46-5.07-3-8.99-5.53-13.14-3-5.07-5.53-6.22-11.53-5.53-3,.46-6.23.69-9.22.46-3.46-.23-3.92,0-3.46,3.23.23,2.77.92,5.53.92,8.07.23,3.46-.92,7.15,0,10.61,1.39,5.53-.69,10.84-.23,16.37.46,3.23,0,3.69,3.23,3.69,2.08,0,4.61-.92,6.46-.46,2.31.92,3.92,0,5.53-1.16,1.84-1.15,3.69-2.3,5.53-3.46,1.16-.92,2.54-2.08,3.69-3.23,3.46-3.92,3.46-9.22,4.85-13.84,0-.69-.23-1.15-.23-1.62Z"/>
    <path class="cls-1" d="M562.61,92.28v3.46c-.92,7.84,0,15.68.69,23.52.46,6,1.62,11.99,2.54,18.22.69,3,7.84,7.61,10.61,6.46,1.39-.69,2.77-1.84,3.23-3,2.3-4.85,4.84-9.45,4.15-15.22-.46-3,.46-5.99.46-8.99,0-3.69-.46-7.38-.69-11.07-.23-3.23-.46-6.23-1.62-9.46-1.15-2.77-.92-6.46-1.38-9.68-1.16-6.23-4.15-11.99-7.15-17.76-.46-.93-.92-2.08-1.39-3.23-1.61-3.46-3.69-6.23-7.38-7.38-.23,0-.69-.23-.92-.46-3.69-3.23-7.38-6.46-10.84-9.92-1.84-2.08-3.23-4.15-4.61-6.46-2.54-4.38-3.23-9.69-2.31-14.3.92-4.61,1.84-9.68,7.15-12.22,3-1.62,5.08-4.38,7.84-6.46,1.39-.92,3-1.84,4.38-2.07,4.38-.46,8.77-1.39,13.15-.69,4.15.46,8.76,1.62,11.99,5.31,4.15,4.84,8.07,9.68,8.31,16.37.23,2.08.23,4.15-.23,6-.92,3.92-5.53,5.76-8.99,3.92-4.15-2.07-7.84-4.61-9.22-9.22-.69-2.54-2.54-3.46-4.85-3.46-1.84,0-3.92,0-5.76.23-4.15.69-6.46,6.69-3.69,10.15,2.07,2.77,4.38,4.84,7.38,6.69,7.84,5.53,14.3,12.22,17.76,21.68,2.08,5.76,4.84,11.3,6.92,17.06,1.84,5.31,3.46,11.07,2.54,17.06-.23,1.16-.46,2.54,0,3.46,1.84,6.23,1.61,12.46,1.38,18.68-.23,3.23-.46,6.46-.23,9.69.69,4.61-1.15,8.53-3,12.45-1.39,3.23-2.54,6.46-3.92,9.46-3.92,7.84-10.84,11.53-18.91,12.68-3.92.69-8.3-.23-11.76-3.46-.69-.69-1.62-1.15-2.3-1.39-4.38-1.61-6.69-5.53-9.92-8.3-3-2.53-2.31-6.46-3.92-9.68-2.53-5.31-1.61-11.53-3.69-17.07-.46-1.84-.23-3.92-.23-5.76-.23-2.31,0-4.61-.23-6.92-.46-2.77-1.62-5.31-.23-8.31.92-2.07-.23-4.84-.23-7.15.23-4.38.46-8.53.46-12.91,0-.46.23-.92.23-1.15-1.84-4.38-.23-8.07,1.16-12.23,1.15-3.23,3.92-6.22,7.38-6.46,4.61-.69,8.76,2.77,9.22,7.38,0,.69.23,1.39.23,2.08v8.07c0,3.92.23,7.84.46,11.76Z"/>
    <path class="cls-1" d="M649.1,92.05c-3.92,0-7.84.69-11.76.46-4.84,0-9.45,0-14.07.69-1.61.23-3.46-.69-4.84-1.84-3.23-2.3-3.46-5.99-4.38-9.22-.69-2.54,2.77-6.23,6.23-7.15,2.3-.69,4.61-1.38,7.15-1.15,5.76.69,11.76.46,17.76.46,2.54,0,5.07-.69,7.61-.46,3.23,0,6.69.23,9.69,1.15,5.31,1.62,6.69,6.69,3.92,11.76-2.54,4.38-6.69,5.31-10.61,6.23-2.3-.46-4.61-.92-6.69-.92Z"/>
    <path class="cls-1" d="M740.66,68.07c2.08.92,3.92,2.54,4.15,4.84.23,5.76,1.84,11.53.46,17.53-.92,4.15-.23,8.53-.46,12.91,0,2.31-.46,4.38-.46,6.69-.23,3-.23,5.76-.23,8.77.46,5.07.23,10.15-1.62,14.99-.23,1.15-.23,2.3-.23,3.23.69,3.92-.92,6.92-3.23,9.91-.93,1.39-1.84,3.23-3,4.85-3.92,5.07-8.53,9.22-14.3,11.99-.69.23-1.39.69-1.62.46-3.23-1.84-6.69-.23-10.15-.23-2.77,0-5.76-.92-8.07-3.23-3.69-3.46-8.07-5.99-11.53-9.68-2.08-1.84-2.77-5.08-3.69-7.84-.92-2.53-1.84-5.07-2.54-7.84-.69-2.77-1.62-5.76-1.84-8.77-.69-7.61-1.15-15.45-1.84-23.06-.23-3-.23-5.76-.23-8.76-.23-5.53.46-11.3-.23-16.83-.69-7.15,0-13.84,0-20.76,0-2.77.69-5.53.92-8.3.46-4.84.69-9.68,1.62-14.53.92-5.31,1.84-10.61,4.38-15.22,2.54-4.85,6.69-9,10.84-12.68,1.84-1.62,5.53-1.62,8.53-2.07,4.15-.46,8.53-.69,12.68-1.16.92,0,1.84,0,2.77.23,8.76,2.77,15.45,8.07,19.6,16.37.23.69.46,1.62.46,2.77.23,1.61.23,3.46.69,5.07,1.84,6,.46,11.3-1.38,16.83-.46.69-.69,1.62-1.39,1.84-3,1.39-6.22,2.31-9.45,1.39-4.15-1.39-6.23-4.84-5.31-9.69,1.16-4.61-2.07-8.07-2.53-12.22,0-.69-1.39-1.62-2.31-1.84-5.07-1.38-9.92-1.84-14.53,1.15-.92.46-1.84,1.62-2.3,2.77-2.31,6-4.15,12.22-3.69,18.91.23,3.69-1.15,7.15-1.62,10.84-.92,6.22-.69,12.22.92,18.21.92,3.46,0,7.61,0,11.3s.23,7.38.23,11.07-.23,7.61-.46,11.3c0,2.53-.46,5.07.92,7.84,1.38,2.77,2.77,5.76,1.38,9-.23.46-.23.92,0,1.39,2.31,5.53,3.69,11.53,8.3,15.91,2.31,2.3,7.15,2.54,9.69,0,3.46-3.46,5.76-7.15,5.76-12.22.23-2.08.23-4.15.46-6.23.23-5.77.46-11.53.69-17.53,0-1.62-.46-3-.46-4.61-.23-1.15-.46-2.77,0-3.69,1.84-3.69.92-7.84,1.15-11.76.23-2.07-.46-3-2.77-3.46-3.23-.69-6.46-1.38-9.45-2.77-4.38-2.07-5.53-8.3-2.54-11.99,2.07-2.77,4.38-4.84,8.3-4.38,2.07.23,4.15-.23,6-.46,5.3-.69,9.91,1.38,14.53,3.46Z"/>
    <path class="cls-1" d="M777.79,90.21c0,.69-.23,1.15-.23,1.84,0,9.68.46,19.6-.92,29.28-.92,6.46.23,10.84.46,17.3,0,3.23.92,6.23,1.39,9.22.92,4.84-.46,9.46-3.46,13.61-3,4.38-9,3.92-12.22-.46-2.77-3.69-3.92-7.61-4.15-12,0-2.53-1.15-4.61-1.15-6.92,0-5.31,0-8.3.23-13.38.23-5.3,0-10.84,0-15.91,0-1.61.23-3,.23-4.38.23-1.15.69-2.3.69-3.46-1.15-8.53,0-17.07.69-25.37,1.38-21.22,1.84-41.05,13.38-61.57,1.38-2.3,3.92-4.15,5.99-6.22,1.84-1.84,3.92-3.46,5.76-5.53,2.77-3.46,7.84-4.85,11.99-3.23,1.39.46,3.46.46,5.08.46,7.15,1.61,20.06,9.92,22.6,14.76,3.23,7.38,4.38,15.45,6.23,23.29.92,4.38.92,8.3,1.62,12.68.92,4.61.92,9.22.69,13.84-.46,7.61.93,15.22-.69,23.06-.69,3.23.46,6.92.23,10.15-.46,5.3,1.39,10.61-.23,15.45-.46,1.38.23,3.46.23,5.07s-.46,3.46-.46,5.53c.46,4.61-.23,9.22-1.16,13.84-.23.92-.46,1.84-.23,2.3,1.84,3.69,0,7.38-.92,10.84-.46,4.38-2.77,7.61-6.69,8.77-7.38,2.3-11.3-3-11.53-9.22-.46-5.76.23-11.53.92-17.53.69-7.15.46-14.53-.23-21.68,0-.92.23-1.84.23-3,0-3-.23-5.99-.23-9.22.23-3.23.69-6.69.92-9.92,0-2.77.46-5.76,0-8.3-.23-3.69-.92-7.15-.23-11.07.46-1.84-.69-2.53-2.31-2.3-6.69.46-13.37.69-20.06,1.38-3,.46-5.99,1.62-9.22,2.77-.92.23-1.61,1.84-1.84,3l-1.38,12.22ZM802.47,53.54c2.07-.46,4.61-.69,6.69-1.15,1.84-.46,2.54-1.39,2.07-3.69-.46-2.77-.46-6-.69-8.77-.23-.69-.69-1.62-.92-2.3-.23-.92-.93-1.84-.69-2.77.23-2.31-1.15-3.69-1.84-5.31-1.62-3.23-4.38-4.38-6.69-6-2.77-1.84-4.85-1.38-6.69,0-3.23,1.84-5.31,5.08-6.22,8.54-.46,1.62-.93,3-1.84,4.38-3.46,4.62-3.46,9.92-3.92,15.22-.23,2.07.92,2.31,2.77,2.07,6-.23,11.99-.46,17.99-.69v.46Z"/>
    <path class="cls-1" d="M865.9,98.51c0,4.84-.46,9.45-.23,14.07,0,4.61.69,9.45.92,14.07.23.69.46,1.39.23,2.07-1.61,4.85-.46,10.15-2.07,15.22-.23.69-.23,1.62,0,2.31,1.62,5.07,0,10.14-1.62,14.76-.92,3-4.15,4.84-7.61,5.3-3.46.69-6-.92-7.84-3.92-2.07-3-2.3-6.69-2.07-10.15.46-4.38,1.39-8.53,2.07-12.91v-4.38c-.23-6.23-.46-12.22-.46-18.45v-19.6c-.92-6.69,0-13.14.23-19.84.23-3-.69-5.99-.92-8.99-.23-.92-.69-1.84-.46-2.77,2.07-6.23-.46-11.99-.46-18.22,0-1.15.23-2.54.23-3.92s.46-3,0-3.92c-1.38-2.31-1.15-4.38-.92-6.69,0-5.76,0-11.53-.23-17.53-.23-3.92,3-8.99,6.69-10.38,4.15-1.62,8.07-2.77,12.46-1.84,1.15.23,2.77,0,4.15,0,5.08-.23,10.15-.46,15.45-.69,1.15,0,2.31.46,3.46.92,1.84.69,3.92,1.39,5.53,2.31,1.15.46,2.54,1.15,3,2.07,2.54,5.07,6.92,8.3,10.15,12.68,1.84,2.77,2.54,6.69,3.23,10.38.69,3.46.46,7.38.69,11.07,0,1.15-.23,2.3-.69,3.46-3.92,8.3-9.69,15.45-17.07,20.98-2.77,2.31-3.46,4.62-1.84,7.61,1.39,2.54,1.62,5.07,1.39,7.61-.69,5.31,1.38,9.69,3.46,14.3,1.38,3,1.84,6.23,2.76,9.46.93,3,1.84,6.23,2.77,9.22.69,3.23,1.38,6.46,2.07,9.45.92,3.46,2.07,6.69,3,10.15.92,2.77,2.77,5.31,2.31,8.53-.23.92.69,2.08,1.61,3,1.84,2.08,2.08,4.38,1.39,6.92-.46,1.84-1.15,3.69-1.62,5.53-.69,3.23-2.31,5.08-5.07,5.53-3.69.69-7.84-.69-9-3.46-2.07-5.07-4.85-9.68-5.31-15.45-.46-3.46-1.62-6.69-2.77-10.15-1.38-4.38-3.46-8.53-4.61-12.91-.69-3-1.39-5.99-2.3-8.99-1.16-4.38-1.84-9-2.77-13.61v-.46c-3.92-5.31-3.23-12-5.3-17.76-.46-1.15-.23-2.53-.46-3.69-.46-2.3-1.15-4.61-2.07-6.92-.23-.46-1.62-.92-2.3-.92-.23,0-.93,1.15-.93,1.84,0,1.84.23,3.46.23,5.31h-.46c0,7.61.23,14.99,0,22.37ZM864.52,22.87c0,2.77-.23,5.76-.46,8.53-.46,5.07.23,10.38.46,15.45.23,2.07.92,3.23,3.23,3.23,3.23,0,6.46.69,9.69.92.46,0,1.15-.23,1.61-.23,10.61-2.3,13.38-10.38,11.07-19.14-1.38-4.84-5.3-8.07-9.22-10.61-.46-.23-1.15-.46-1.61-.46h-10.61c-1.15.23-3.92-1.38-4.15,2.31Z"/>
    <path class="cls-1" d="M992.52,51.92v7.84c-.23,6.46-1.15,12.68-.23,19.37,0,.92.23,1.84.23,2.77-.46,7.84-1.15,16.14-.92,23.98,0,5.31-1.16,10.15-2.31,14.99-.23,1.39-.23,3-.23,4.61.69,6,.46,11.53-2.77,16.83-1.84,2.77-3,5.77-4.15,9-2.08,5.07-5.53,8.76-10.38,11.07-6.46,2.77-12.91,4.61-19.83,2.54-.69-.23-1.62-.23-1.84-.69-3.69-3.92-9.46-5.07-13.38-8.76-2.3-2.08-3.46-5.31-5.07-8.07-.46-1.15-.92-2.31-1.62-3.46-1.38-2.77-2.77-5.53-2.77-9-.23-3.69-1.62-7.61-2.3-11.76-.69-3.69-1.16-7.61-1.39-11.53-.46-5.76-.92-11.3-.92-16.83,0-3.69.69-6.92,1.15-10.38,0-.46.46-1.15.23-1.61-.23-6.69-.46-13.84-.69-20.53,0-.46-.23-.92-.23-1.38,1.84-4.61,1.61-9.22,1.84-13.84.46-3.23.92-7.15,1.38-10.38.92-7.38,3.69-14.53,8.53-20.53,2.07-2.53,3.69-5.53,5.53-8.53,1.16-2.07,2.31-3.46,4.85-4.15,3.46-.92,6.92-2.31,10.38-3,3.23-.69,6.46-.46,9.68-.46.69,0,1.39.23,2.08.46,3.92,2.53,8.07,5.07,12.22,7.84.69.46,1.61.92,2.07,1.84,2.54,4.38,5.76,8.3,7.38,13.37,2.07,6.69,3,13.15,2.77,20.06.23,2.77.46,5.53.69,8.3ZM942.71,64.84c.23,7.38.46,14.76.46,21.91,0,.69-.46,1.62-.46,2.31-.46,2.07-1.15,4.15-1.15,6.22,0,6.23.23,12.46,1.61,18.91.69,3.69.69,7.61,1.15,11.53.46,3.23,1.39,6.46,2.31,9.46,1.62,5.53,6.46,8.07,10.38,11.3,1.62,1.15,3.92,1.15,5.31-.46,2.07-2.07,4.15-3.92,5.31-7.15,1.38-3.23,2.77-6.23,2.53-9.92,0-.69.69-1.62.93-2.31.23-.92.23-2.3.23-3.46.46-5.07.69-10.14.92-15.45v-.46c1.61-3.69,1.61-7.38,1.15-11.3-.23-1.84,0-3.92,0-6.23.23-5.07.69-10.38.69-15.68s-.46-10.38-.46-15.45.69-9.45.46-14.07c-.23-3.92-1.39-7.61-2.08-11.3-.23-1.84-.92-3.69-.92-5.53-.23-3.69-7.38-9.69-10.84-9.22,0,0-.23,0-.23.23-4.62,2.08-9.22,4.38-11.53,9.46-2.31,5.3-5.07,10.61-4.38,17.06,0,.92-.23,1.62-.23,2.54-.46,5.53-1.15,11.53-1.62,17.06h.46Z"/>
    <path class="cls-1" d="M1032.65,162.39c-4.84-.69-9.69-1.62-13.14-5.53-.23-.23-.46-.46-.69-.46-5.99-2.76-8.3-8.3-10.38-13.83-.92-2.54-1.84-5.31-2.08-7.84-.69-5.76-.69-11.76-.92-17.53,0-.92,0-2.07-.46-2.77-1.15-1.84-.46-3.69-.23-5.53.23-2.07,1.15-4.38.46-6.23-1.84-5.31-.69-10.38-.46-15.45,2.77-9.92,0-45.66.92-52.35,0-1.84.23-3.92.23-5.77v-10.61c0-2.31.69-4.61.46-6.69-.46-5.31,2.77-8.77,8.07-8.3,7.61.69,10.38,3.23,10.38,10.84.23,5.77-.69,11.3-.92,17.07,0,6.92-.46,13.84.23,20.76.69,6.92-.23,13.83-.46,20.75-.23,8.77-.69,17.53-.23,26.29,0,3.92,1.15,7.84-.23,12,0,.23,0,.92.23,1.15,2.31,4.84.92,10.15,1.38,15.22.23,5.77,1.39,11.53,6.92,14.76,1.84,1.15,4.38,1.84,6.46,1.84,3.46.23,7.15.23,10.61-.92,4.85-1.38,7.15-5.53,8.07-10.15,1.15-4.61.69-9.45.69-14.07.23-4.84,1.39-9.68.69-14.76-.46-5.08.69-10.15.69-15.22.23-6.46.46-13.15-.46-19.61-.92-9,.23-17.99.23-26.75,0-5.3-.69-10.38-.92-15.45-.23-5.3-.46-10.61,0-15.91.23-5.07,3.69-7.38,9.92-7.84,5.76-.23,8.76,2.77,8.07,8.3v.46c.23,1.84,0,3.69.46,5.53,1.16,3.92,1.39,7.84,0,11.76-.46,1.38-.23,3.23.23,4.61.93,2.54.69,4.61.46,7.15-.69,4.84-.69,9.45-.69,14.3,0,4.38.46,8.77.46,13.15,0,2.76-.46,5.3.92,7.84.23.46.23.92.23,1.39,0,5.3.23,10.38.23,15.68,0,2.54-.23,4.85-.69,7.38,0,1.39-1.16,3.23-.69,4.38,1.38,3.92,1.15,7.84.46,11.76-.69,3.69-.69,7.61-.92,11.3-.23,3,.23,6-.69,8.54-1.39,4.84-3.23,9.45-5.31,14.07-.46.92-1.62,1.61-2.31,2.3-2.07,1.62-3.92,3.23-5.99,4.84-1.39.93-3,1.39-4.38,2.08-4.61,2.3-9.68,2.54-14.76,2.3-3.46,0-6.92.23-10.15-.23Z"/>
    <path class="cls-1" d="M1109.23,92.28v3.46c-.92,7.84,0,15.68.69,23.52.46,6,1.62,11.99,2.54,18.22.69,3,7.84,7.61,10.61,6.46,1.39-.69,2.77-1.84,3.23-3,2.3-4.85,4.84-9.45,4.15-15.22-.46-3,.46-5.99.46-8.99,0-3.69-.46-7.38-.69-11.07-.23-3.23-.46-6.23-1.62-9.46-1.15-2.77-.92-6.46-1.38-9.68-1.16-6.23-4.15-11.99-7.15-17.76-.46-.93-.92-2.08-1.39-3.23-1.61-3.46-3.69-6.23-7.38-7.38-.23,0-.69-.23-.92-.46-3.69-3.23-7.38-6.46-10.84-9.92-1.84-2.08-3.23-4.15-4.61-6.46-2.54-4.38-3.23-9.69-2.31-14.3.92-4.61,1.84-9.68,7.15-12.22,3-1.62,5.08-4.38,7.84-6.46,1.39-.92,3-1.84,4.38-2.07,4.38-.46,8.77-1.39,13.15-.69,4.15.46,8.76,1.62,11.99,5.31,4.15,4.84,8.07,9.68,8.31,16.37.23,2.08.23,4.15-.23,6-.92,3.92-5.53,5.76-8.99,3.92-4.15-2.07-7.84-4.61-9.22-9.22-.69-2.54-2.54-3.46-4.85-3.46-1.84,0-3.92,0-5.76.23-4.15.69-6.46,6.69-3.69,10.15,2.07,2.77,4.38,4.84,7.38,6.69,7.84,5.53,14.3,12.22,17.76,21.68,2.08,5.76,4.84,11.3,6.92,17.06,1.84,5.31,3.46,11.07,2.54,17.06-.23,1.16-.46,2.54,0,3.46,1.84,6.23,1.61,12.46,1.38,18.68-.23,3.23-.46,6.46-.23,9.69.69,4.61-1.15,8.53-3,12.45-1.39,3.23-2.54,6.46-3.92,9.46-3.92,7.84-10.84,11.53-18.91,12.68-3.92.69-8.3-.23-11.76-3.46-.69-.69-1.62-1.15-2.3-1.39-4.38-1.61-6.69-5.53-9.92-8.3-3-2.53-2.31-6.46-3.92-9.68-2.53-5.31-1.61-11.53-3.69-17.07-.46-1.84-.23-3.92-.23-5.76-.23-2.31,0-4.61-.23-6.92-.46-2.77-1.62-5.31-.23-8.31.92-2.07-.23-4.84-.23-7.15.23-4.38.46-8.53.46-12.91,0-.46.23-.92.23-1.15-1.84-4.38-.23-8.07,1.16-12.23,1.15-3.23,3.92-6.22,7.38-6.46,4.61-.69,8.76,2.77,9.22,7.38,0,.69.23,1.39.23,2.08v8.07c0,3.92.23,7.84.46,11.76Z"/>
    <path class="cls-1" d="M198.21,197.42c.87.69,2.07.87,3.11,1.21.87.35,1.9.52,2.77.87,2.42,1.03,4.67,1.73,6.4,3.63,2.07,2.08,3.8,4.85,5.53,7.27.17.17.34.52.34.87,1.39,3.11,2.6,6.05,3.81,9.34.69,1.39,1.21,3.29,1.39,4.84.34,3.98.52,8.13.86,12.11.35,3.98,1.21,8.3,1.21,12.46.17,4.84,1.38,9.68.35,14.53-.87,5.53-.17,11.07-.17,16.43,0,.52.35.87.17,1.21-1.91,7.96-2.59,16.43-9.17,22.49-2.77,2.59-4.84,6.05-8.13,8.13-4.5,3.11-9.34,4.67-14.53,5.36-.86.17-1.73.17-2.42,0-2.25-.52-4.67-.87-6.75-1.73-4.5-1.73-6.4-5.19-6.05-10.38,0-3.29-.17-6.4-.17-9.51.17-5.19.52-10.38.52-15.57.17-1.73-.35-3.28-.35-4.84,0-8.3.17-16.6,0-24.91,0-1.9,0-3.98-.52-6.05-.52-1.55,0-3.11.17-4.67.52-2.77.69-5.88.69-9.17.17-2.77.34-5.53.17-8.48,0-3.63-.34-7.09-.52-10.38s-.52-6.4-.35-9.68c0-1.21.86-2.25,1.73-3.11,1.21-.87,2.77-1.73,3.98-2.42l15.91.17ZM190.94,299.98c0,.69-.17,1.39,0,2.08,0,.35.52.86.86.86,4.67.69,7.96-1.73,10.55-5.19,2.59-3.29,4.67-6.74,5.19-11.07,0-.35.17-.52.35-.86,1.73-4.33,3.11-8.48,1.9-13.15-.17-.69,0-1.55,0-2.42.17-1.38.35-2.59.35-4.15.17-1.56,0-3.46,0-4.85,0-1.03.17-2.25,0-3.28-.52-3.11.35-6.23-.87-9-.17-.35.17-1.04.17-1.56,0-.69.17-1.73,0-2.42-.17-4.15-2.42-7.61-1.04-11.76,0-.17-.17-.35-.17-.52-.34-2.25-.69-4.33-1.21-6.23-1.04-3.46-2.42-7.09-4.15-10.55-.35-.87-1.21-1.56-1.9-1.91-2.77-1.21-5.71-2.59-8.3-3.98-.87-.35-1.21-.17-1.55.69-1.04,3.11-.69,6.22-.17,9.34.17.87.35,1.91.35,2.94-.17,1.39-.35,2.77-.35,4.15.17,1.9.52,3.98.52,6.05-.17,3.98-.34,7.96-.52,12.1-.17,1.04-.35,1.73-.35,2.59,0,5.19-.17,10.38-.17,15.57,0,.69-.17,1.38,0,2.07,1.55,5.53.87,10.9.17,16.26-.35,3.46,1.03,6.75,0,10.38-.52,2.59.52,5.36.69,7.78h-.35Z"/>
    <path class="cls-1" d="M233.83,207.97c0-2.94.86-5.02,3.29-7.09,2.59-2.42,5.36-3.11,8.82-3.46,3.29-.17,6.75-.86,10.03-.86,3.46,0,6.92.86,10.38,1.38,1.55.17,3.29.35,5.01.69,1.73.17,3.46.35,5.19,1.04,2.77.86,3.98,3.46,4.15,6.22,0,1.04-.52,2.43-1.39,3.11-2.25,1.73-4.67,3.29-7.78,2.77-2.25-.35-4.67,0-7.09.17-1.04,0-2.25.35-3.29.17-2.25-.52-4.33-.17-6.4.17-.86.17-1.73,0-2.59-.17-3.11-.86-4.15,0-3.98,3.11.17,1.04.17,2.25-.35,3.29-1.04,2.42-.52,4.84,0,7.26.17,1.56,1.03,1.91,2.25,1.21,3.46-2.59,7.61-1.73,11.42-2.07,2.07-.35,4.32-.35,6.4-.52,4.15-.69,8.82,2.25,9.86,5.88.87,3.63-1.73,8.13-6.57,8.13-5.19.17-9.68,1.55-14.18,3.46-3.28,1.39-6.57,3.11-8.82,5.88-.69.69-1.04,1.73-1.04,2.42.52,5.53-.69,11.07.87,16.44.52,1.73,0,3.63-.17,5.53-.17,3.8.17,7.78-.17,11.76-.35,2.94.35,5.88.52,8.82.17,2.77.17,5.36,0,7.96,0,1.21.34,1.73,1.55,1.56,3.81-.87,7.44,0,11.24.52.69.17,1.38-.17,2.07,0,3.11,0,6.23-.17,9.17.52,5.01,1.04,7.26,8.65,3.81,12.46-1.39,1.55-3.29,2.25-5.53,1.9-2.6-.17-5.37-.52-7.96-.52-4.32,0-8.48.17-12.8.17-.69,0-1.38.17-2.07.35-6.05,1.73-10.38-1.9-11.76-6.57-1.04-2.59-1.21-5.53-1.39-8.48-.17-2.25.52-4.5.35-6.92,0-2.42-.52-4.84-.69-7.26,0-2.25.17-4.5.17-6.57v-11.07c-.17-2.94-.17-6.05-.35-9.17-.17-3.8-.52-7.61-.69-11.58,0-.52-.17-1.21,0-1.73.87-2.94.17-5.71-.17-8.48,0-1.38.17-2.77.17-3.98.17-2.25.17-4.33.17-6.4.17-2.94.17-5.71.35-8.65,0-4.32-.17-8.48,0-12.8Z"/>
    <path class="cls-1" d="M371.32,211.6c-2.42-.17-4.67-.17-7.09-.34-1.73-.17-2.25.34-2.07,2.42,0,3.28.35,6.74.35,10.03,0,3.98-.17,7.96-.17,11.94v15.91c0,4.67.35,9.34.35,14.01,0,.17.17.35.17.35-2.25,5.36.52,10.72,0,16.08-.35,5.36-.69,10.72-.87,16.08-.17,3.46-.17,6.75-.17,10.2.17,3.63-1.73,6.92-5.19,8.13-1.04.34-2.77.17-3.63-.52-3.28-2.42-5.01-5.71-5.01-9.69.35-7.26.69-14.36.69-21.45s-.35-13.84-.52-20.76c-.17-3.28,0-6.57,0-10.03,0-5.19.17-10.2.17-15.39,0-1.21.17-2.25.17-3.46,0-3.11-.35-6.23-.35-9.34,0-3.63,0-7.44.17-11.07,0-3.63-.35-4.15-3.98-3.98-2.42,0-4.84.52-7.26.17-2.42-.52-5.19-.69-6.4-3.81-2.25-4.67-2.25-5.53,1.39-9,1.04-1.03,2.59-1.73,3.98-1.73,3.63,0,7.44.52,11.24.87.52,0,1.21.34,1.73.17,3.11-1.38,5.88-.17,8.82.17,1.55.35,3.46,0,5.19,0,2.94.17,6.05.35,8.99.17,3.46-.35,6.23,1.21,8.65,3.11,1.04.87,1.39,2.25,2.08,3.46v1.21c-2.42,4.5-6.4,6.4-11.42,6.05Z"/>
    <path class="cls-1" d="M406.94,270.93c-.35.52-.35,1.38-.35,2.07.35,3.63.69,7.09-.17,10.9-.69,2.59,0,5.36,0,8.13-.17,3.29-.52,6.57-.52,9.69,0,2.25.52,4.5.52,6.74,0,1.73-.17,3.46-.52,5.19-.87,2.6-2.59,4.85-5.53,5.02-2.42.17-4.5-1.21-6.05-3.11-2.42-3.11-3.11-6.92-2.77-10.72.17-2.59.35-5.01.52-7.61,1.73-18.33.69-60.36.35-66.93,0-1.39,0-2.77-.17-3.98,0-.87-.17-1.73-.17-2.42.17-3.46.52-6.75.52-10.03,0-2.43-.69-4.85-.69-7.09.17-2.07.69-4.15,1.38-6.23.69-1.9,2.59-2.77,4.85-2.07,1.73.35,3.28,1.04,4.84,1.73,1.9,1.03,2.94,3.8,2.59,5.88,0,1.39-.35,3.11.17,4.33,1.38,4.15.35,8.13.52,12.28v5.36c0,1.21.17,2.43.17,3.63.17,1.04.69,1.56,1.73.87,2.59-1.73,5.19-3.46,7.78-5.19,1.21-.87,2.42-1.56,3.98-1.21,1.21,0,1.9-.17,1.9-1.9-.17-5.36-.17-10.55,0-15.91,0-2.08.17-4.15.87-6.23.69-3.11,5.19-4.5,8.13-2.59,3.29,1.9,4.5,4.5,3.98,8.48,0,.17-.17.35,0,.52.69,3.81.35,7.61.17,11.59-.17,3.29,1.21,6.75.52,10.03-1.38,5.88,1.04,11.76-.17,17.64-.17.17-.17.35,0,.52,1.21,4.84-.17,9.51-.35,14.36,0,.52,0,1.04.17,1.38.17,2.08.52,4.15.52,6.05,0,6.05-1.04,12.11,0,17.99.17.69,0,1.21-.17,1.9-1.04,4.15-.52,8.48-.17,12.62.17,2.77-.69,5.71-1.04,8.48-.17.52-.52,1.04-.52,1.39-1.21,3.98-2.08,4.67-6.05,3.98-1.56-.35-3.11-.87-4.67-1.73-2.25-1.04-3.29-4.15-2.25-6.4.69-1.73.69-3.46.17-5.19-.35-1.55-1.03-3.28.35-5.01.17-.35.17-.87.17-1.38,0-4.5.17-8.82.17-13.15s-.35-9.16-.35-13.66c-.17-2.25.35-4.5.35-6.74,0-1.73-.35-3.29-.52-5.01,0-.87.52-1.91.35-2.77-.69-4.5,1.56-8.82.35-13.32,0-.52-.17-.86-.35-1.38-.52.17-1.03.35-1.38.52-4.33,2.77-7.27,6.4-9,11.42-1.21,3.28-2.07,6.4-1.73,9.86.17,2.94-.35,5.88-2.43,8.48Z"/>
    <path class="cls-1" d="M467.13,197.08c.86,0,2.07.52,2.77.86,1.38,1.04,2.94,2.08,4.15,3.11,2.08,2.25,1.04,6.92-1.55,7.96-1.9.69-3.63,1.39-5.53,2.25-.52.34-.87,1.55-.87,2.42,0,3.11.35,6.22.35,9.16,0,2.42-.17,4.85-.35,7.27,0,5.53.17,11.42-.52,16.95-.52,3.98.35,8.13.52,12.1,0,.87.17,1.73,0,2.59-1.03,4.67.17,9.34.35,13.84,0,1.39,0,2.42-.17,3.63-.87,3.11-.17,6.23.17,9.51.35,3.98.35,7.96.35,12.1,0,2.25,0,2.59,2.42,3.11,5.19,1.39,6.92,6.57,3.98,11.42-2.25,3.11-5.36,2.77-8.3,2.94-1.56,0-3.11,0-4.5.17-3.46,0-6.92.35-10.55,0-3.46-.35-5.01-3.29-4.5-6.92.52-3.29,2.42-5.19,5.01-6.57,2.25-1.04,3.29-2.25,2.94-5.02-.35-3.28-.52-6.74-1.04-10.2,0-.52-.35-1.21-.17-1.73,1.56-4.15,0-8.13-.52-12.28-.17-.69-.17-1.38,0-1.9,1.21-2.94.35-6.05.17-9.17,0-2.94.35-5.71.52-8.48,0-.35.35-.69.35-.86-2.07-3.11-1.21-6.75-.87-9.86.52-4.32-1.38-9,1.39-12.97.17-.35.35-.87.17-1.21-2.25-4.15-1.04-8.3-1.21-12.28,0-2.08.52-4.33.52-6.23,0-.69-.87-1.39-1.38-1.73-1.04-.87-2.25-1.56-3.46-2.08-2.77-1.55-3.29-4.32-3.11-7.26,0-2.07,1.38-3.46,3.81-3.81,2.07-.35,4.32-.52,6.57-.69h2.42v-.17h9.69Z"/>
    <path class="cls-1" d="M484.59,207.97c0-2.94.86-5.02,3.29-7.09,2.59-2.42,5.36-3.11,8.82-3.46,3.29-.17,6.75-.86,10.03-.86,3.46,0,6.92.86,10.38,1.38,1.55.17,3.29.35,5.01.69,1.73.17,3.46.35,5.19,1.04,2.77.86,3.98,3.46,4.15,6.22,0,1.04-.52,2.43-1.39,3.11-2.25,1.73-4.67,3.29-7.78,2.77-2.25-.35-4.67,0-7.09.17-1.04,0-2.25.35-3.29.17-2.25-.52-4.33-.17-6.4.17-.86.17-1.73,0-2.59-.17-3.11-.86-4.15,0-3.98,3.11.17,1.04.17,2.25-.35,3.29-1.04,2.42-.52,4.84,0,7.26.17,1.56,1.03,1.91,2.25,1.21,3.46-2.59,7.61-1.73,11.42-2.07,2.07-.35,4.32-.35,6.4-.52,4.15-.69,8.82,2.25,9.86,5.88.87,3.63-1.73,8.13-6.57,8.13-5.19.17-9.68,1.55-14.18,3.46-3.28,1.39-6.57,3.11-8.82,5.88-.69.69-1.04,1.73-1.04,2.42.52,5.53-.69,11.07.87,16.44.52,1.73,0,3.63-.17,5.53-.17,3.8.17,7.78-.17,11.76-.35,2.94.35,5.88.52,8.82.17,2.77.17,5.36,0,7.96,0,1.21.34,1.73,1.55,1.56,3.81-.87,7.44,0,11.24.52.69.17,1.38-.17,2.07,0,3.11,0,6.23-.17,9.17.52,5.01,1.04,7.26,8.65,3.81,12.46-1.39,1.55-3.29,2.25-5.53,1.9-2.6-.17-5.37-.52-7.96-.52-4.32,0-8.48.17-12.8.17-.69,0-1.38.17-2.07.35-6.05,1.73-10.38-1.9-11.76-6.57-1.04-2.59-1.21-5.53-1.39-8.48-.17-2.25.52-4.5.35-6.92,0-2.42-.52-4.84-.69-7.26,0-2.25.17-4.5.17-6.57v-11.07c-.17-2.94-.17-6.05-.35-9.17-.17-3.8-.52-7.61-.69-11.58,0-.52-.17-1.21,0-1.73.87-2.94.17-5.71-.17-8.48,0-1.38.17-2.77.17-3.98.17-2.25.17-4.33.17-6.4.17-2.94.17-5.71.35-8.65,0-4.32-.17-8.48,0-12.8Z"/>
    <path class="cls-1" d="M556.18,268.51c0,3.63-.35,7.09-.17,10.55,0,3.46.52,7.09.69,10.55.17.52.35,1.04.17,1.56-1.21,3.63-.35,7.61-1.56,11.41-.17.52-.17,1.21,0,1.73,1.21,3.8,0,7.61-1.21,11.07-.69,2.25-3.11,3.63-5.71,3.98-2.59.52-4.5-.69-5.88-2.94-1.55-2.25-1.73-5.02-1.55-7.61.35-3.29,1.03-6.4,1.55-9.68v-3.29c-.17-4.67-.35-9.17-.35-13.84v-14.7c-.69-5.01,0-9.86.17-14.87.17-2.25-.52-4.5-.69-6.75-.17-.69-.52-1.38-.34-2.07,1.55-4.67-.35-9-.35-13.66,0-.87.17-1.91.17-2.94s.35-2.25,0-2.94c-1.04-1.73-.87-3.29-.69-5.01,0-4.33,0-8.65-.17-13.15-.17-2.94,2.25-6.74,5.01-7.78,3.11-1.21,6.05-2.07,9.34-1.38.86.17,2.07,0,3.11,0,3.8-.17,7.61-.35,11.58-.52.87,0,1.73.35,2.59.69,1.39.52,2.94,1.03,4.15,1.73.87.35,1.9.87,2.25,1.56,1.91,3.8,5.19,6.22,7.61,9.51,1.39,2.07,1.91,5.01,2.43,7.78.52,2.59.34,5.53.52,8.3,0,.87-.17,1.73-.52,2.59-2.94,6.23-7.27,11.59-12.8,15.74-2.07,1.73-2.59,3.46-1.38,5.71,1.03,1.9,1.21,3.8,1.03,5.71-.52,3.98,1.04,7.26,2.59,10.72,1.04,2.25,1.39,4.67,2.08,7.09.69,2.25,1.38,4.67,2.07,6.92.52,2.42,1.03,4.84,1.55,7.09.69,2.59,1.56,5.01,2.25,7.61.69,2.07,2.07,3.98,1.73,6.4-.17.69.52,1.55,1.21,2.25,1.39,1.56,1.56,3.29,1.04,5.19-.35,1.39-.87,2.77-1.21,4.15-.52,2.42-1.73,3.8-3.8,4.15-2.77.52-5.88-.52-6.75-2.59-1.55-3.8-3.63-7.26-3.98-11.59-.35-2.59-1.21-5.01-2.08-7.61-1.03-3.29-2.59-6.4-3.46-9.68-.52-2.25-1.04-4.5-1.73-6.75-.86-3.29-1.38-6.74-2.07-10.2v-.35c-2.94-3.98-2.42-9-3.98-13.32-.35-.87-.17-1.91-.35-2.77-.35-1.73-.87-3.46-1.56-5.19-.17-.35-1.21-.69-1.73-.69-.17,0-.69.86-.69,1.38,0,1.39.17,2.59.17,3.98h-.35c0,5.71.17,11.24,0,16.78ZM555.15,211.77c0,2.08-.17,4.33-.35,6.4-.35,3.81.17,7.78.35,11.59.17,1.55.69,2.42,2.42,2.42,2.42,0,4.84.52,7.26.69.35,0,.87-.17,1.21-.17,7.96-1.73,10.03-7.78,8.3-14.36-1.04-3.63-3.98-6.05-6.92-7.96-.35-.17-.87-.35-1.21-.35h-7.96c-.86.17-2.94-1.04-3.11,1.73Z"/>
    <path class="cls-1" d="M632.11,216.1c-.17-2.94-1.21-3.46-3.98-3.98-.52,0-1.21-.17-1.55-.35-3.81-2.59-9.51.69-10.2,5.53-.69,3.98-.87,7.96-1.39,12.11-.35,2.42-1.21,4.5-1.38,6.74-.35,2.43-.17,5.02-.17,7.44,0,.69.35,1.38.17,2.07-1.04,4.67.17,9.17-.17,13.84-.35,4.15,0,8.3.69,12.63.35,2.76-.34,5.88-.34,8.82,0,1.56.17,2.94.52,4.5,1.04,3.63,1.73,7.44,3.11,11.07.87,2.07,2.42,4.15,3.98,5.88,1.55,1.55,4.15.86,5.19-.87,1.38-2.59,2.77-5.19,3.81-7.96,1.73-4.15,2.94-8.65,3.28-13.15.17-3.28.17-6.4.52-9.34.52-2.77,2.42-4.84,4.67-6.75.17-.17.69-.35,1.04-.52,2.94-.52,8.48,3.98,8.48,6.92,0,4.32-.35,8.82-1.21,13.14-.69,3.81-1.56,7.61-3.29,11.07-.17.35-.35,1.04-.17,1.39.69,2.25-.69,3.98-1.56,5.88-.69,1.38-1.38,2.94-2.25,4.5-.69,1.21-1.38,2.59-2.42,3.63-2.25,2.25-4.67,3.98-6.92,5.88-.35.34-.69.69-1.21.86-1.9.17-4.15.87-6.05.35-3.11-1.03-6.74-1.38-9.17-4.15-.86-.69-2.07-1.04-3.28-1.73-4.33-2.77-5.53-7.26-7.09-11.59-.69-1.9-1.21-3.8-1.73-5.88-.69-2.25-1.21-4.67-1.56-7.27-.69-4.32-1.21-8.82-1.55-13.49-.17-1.9,0-4.15.17-6.4.35-3.46.69-6.74.87-10.2.17-1.38-.17-2.77-.17-4.15,0-8.13-1.04-16.09.86-24.04.35-1.03.35-2.25.52-3.29.52-4.15.69-8.64,1.9-12.8,1.04-3.11,2.25-6.4,4.85-9,1.38-1.38,2.77-2.42,4.32-3.8,3.81-3.11,8.65-2.94,12.8-2.94,4.67,0,9.86,1.21,13.14,5.36.52.69,1.55,1.03,2.25,1.73,1.04,1.04,2.42,2.25,3.11,3.63,1.03,2.07,1.55,4.32,2.42,6.4.52,1.38.87,2.42,0,3.8-.35.35-.17,1.04-.17,1.73.17,3.98.35,8.13.35,12.28,0,.17-.17.69-.52.87-1.73,1.21-3.46,2.77-5.36,3.29-3.81,1.21-7.44-1.73-7.61-5.53-.17-1.91-.35-3.81-.35-5.71,0-2.77.17-5.53-.17-8.48Z"/>
    <path class="cls-1" d="M657.7,207.97c0-2.94.86-5.02,3.29-7.09,2.59-2.42,5.36-3.11,8.82-3.46,3.29-.17,6.75-.86,10.03-.86,3.46,0,6.92.86,10.38,1.38,1.55.17,3.29.35,5.01.69,1.73.17,3.46.35,5.19,1.04,2.77.86,3.98,3.46,4.15,6.22,0,1.04-.52,2.43-1.39,3.11-2.25,1.73-4.67,3.29-7.78,2.77-2.25-.35-4.67,0-7.09.17-1.04,0-2.25.35-3.29.17-2.25-.52-4.33-.17-6.4.17-.86.17-1.73,0-2.59-.17-3.11-.86-4.15,0-3.98,3.11.17,1.04.17,2.25-.35,3.29-1.04,2.42-.52,4.84,0,7.26.17,1.56,1.03,1.91,2.25,1.21,3.46-2.59,7.61-1.73,11.42-2.07,2.07-.35,4.32-.35,6.4-.52,4.15-.69,8.82,2.25,9.86,5.88.87,3.63-1.73,8.13-6.57,8.13-5.19.17-9.68,1.55-14.18,3.46-3.28,1.39-6.57,3.11-8.82,5.88-.69.69-1.04,1.73-1.04,2.42.52,5.53-.69,11.07.87,16.44.52,1.73,0,3.63-.17,5.53-.17,3.8.17,7.78-.17,11.76-.35,2.94.35,5.88.52,8.82.17,2.77.17,5.36,0,7.96,0,1.21.34,1.73,1.55,1.56,3.81-.87,7.44,0,11.24.52.69.17,1.38-.17,2.07,0,3.11,0,6.23-.17,9.17.52,5.01,1.04,7.26,8.65,3.81,12.46-1.39,1.55-3.29,2.25-5.53,1.9-2.6-.17-5.37-.52-7.96-.52-4.32,0-8.48.17-12.8.17-.69,0-1.38.17-2.07.35-6.05,1.73-10.38-1.9-11.76-6.57-1.04-2.59-1.21-5.53-1.39-8.48-.17-2.25.52-4.5.35-6.92,0-2.42-.52-4.84-.69-7.26,0-2.25.17-4.5.17-6.57v-11.07c-.17-2.94-.17-6.05-.35-9.17-.17-3.8-.52-7.61-.69-11.58,0-.52-.17-1.21,0-1.73.87-2.94.17-5.71-.17-8.48,0-1.38.17-2.77.17-3.98.17-2.25.17-4.33.17-6.4.17-2.94.17-5.71.35-8.65,0-4.32-.17-8.48,0-12.8Z"/>
    <path class="cls-1" d="M714.07,270.75c0-.35-.17-.87,0-1.21,1.9-5.88-.35-11.93,0-17.81.17-1.04.17-2.07.17-3.11.17-.69.35-1.73,0-2.25-.69-1.9-1.04-3.46.17-5.36.34-.52.17-1.56,0-2.42-.17-2.77-1.04-5.71-.69-8.48.69-3.81,0-7.61,0-11.42.17-4.33,0-8.65-.35-12.8-.35-3.28,1.04-5.7,2.59-8.3,1.04-1.55,3.29-2.07,5.01-1.03,2.07,1.38,4.15,3.11,6.23,4.84.35.17.87.87.87,1.04-.69,2.77.69,5.53-.52,8.13-.35.86-.17,2.07,0,2.94.69,1.9,1.38,3.8.35,5.88-.17.34-.17,1.03,0,1.55.86,2.94.86,5.88.52,9-.17,3.46-.34,6.74-.52,10.03,0,.69.17,1.56.35,2.07.86,2.77,1.55,5.53-.17,8.3-.52.87,0,2.59.17,3.81.52,2.42,1.55,4.5.17,6.92-.52.69-.17,2.07,0,2.94.35,2.08.52,3.98.17,6.05-.52,1.73.52,3.81.35,5.71,0,2.42-.52,4.67-.86,7.09,0,.69-.17,1.55.17,2.07,1.38,2.77.86,5.53.69,8.48,0,3.11-.35,6.23-.35,9.34,0,.17,1.21.87,1.91.87,2.77-.52,5.36-1.04,8.13-1.38,1.03-.17,2.25-.17,3.29,0,2.42.52,4.67,1.55,7.09,1.9,3.81.35,6.05,4.15,5.36,7.09-.69,3.46-4.67,6.4-8.13,5.88-2.07-.35-3.98-.69-6.05-1.03-1.73-.35-3.29-.35-5.01.69-1.73,1.21-3.98,1.56-6.23.87-2.25-.52-4.5-.69-6.74-1.55-3.29-1.04-5.53-3.29-6.57-6.75-.87-3.11-1.38-6.23-.69-9.68.17-1.39.35-3.11,0-4.5-1.38-4.67-.34-9.34-.52-14.01v-2.42h.34c-.34-2.59-.52-5.19-.69-7.96Z"/>
    <path class="cls-1" d="M785.85,197.08c.87,0,2.07.52,2.77.86,1.38,1.04,2.94,2.08,4.15,3.11,2.08,2.25,1.04,6.92-1.55,7.96-1.9.69-3.63,1.39-5.53,2.25-.52.34-.87,1.55-.87,2.42,0,3.11.35,6.22.35,9.16,0,2.42-.17,4.85-.35,7.27,0,5.53.17,11.42-.52,16.95-.52,3.98.35,8.13.52,12.1,0,.87.17,1.73,0,2.59-1.03,4.67.17,9.34.35,13.84,0,1.39,0,2.42-.17,3.63-.87,3.11-.17,6.23.17,9.51.35,3.98.35,7.96.35,12.1,0,2.25,0,2.59,2.42,3.11,5.19,1.39,6.92,6.57,3.98,11.42-2.25,3.11-5.36,2.77-8.3,2.94-1.56,0-3.11,0-4.5.17-3.46,0-6.92.35-10.55,0-3.46-.35-5.01-3.29-4.5-6.92.52-3.29,2.42-5.19,5.01-6.57,2.25-1.04,3.29-2.25,2.94-5.02-.35-3.28-.52-6.74-1.04-10.2,0-.52-.35-1.21-.17-1.73,1.56-4.15,0-8.13-.52-12.28-.17-.69-.17-1.38,0-1.9,1.21-2.94.35-6.05.17-9.17,0-2.94.35-5.71.52-8.48,0-.35.35-.69.35-.86-2.07-3.11-1.21-6.75-.87-9.86.52-4.32-1.38-9,1.39-12.97.17-.35.35-.87.17-1.21-2.25-4.15-1.04-8.3-1.21-12.28,0-2.08.52-4.33.52-6.23,0-.69-.87-1.39-1.38-1.73-1.04-.87-2.25-1.56-3.46-2.08-2.77-1.55-3.29-4.32-3.11-7.26,0-2.07,1.38-3.46,3.81-3.81,2.07-.35,4.32-.52,6.57-.69h2.42v-.17h9.69Z"/>
    <path class="cls-1" d="M803.31,207.97c0-2.94.86-5.02,3.29-7.09,2.59-2.42,5.36-3.11,8.82-3.46,3.29-.17,6.75-.86,10.03-.86,3.46,0,6.92.86,10.38,1.38,1.55.17,3.29.35,5.01.69,1.73.17,3.46.35,5.19,1.04,2.77.86,3.98,3.46,4.15,6.22,0,1.04-.52,2.43-1.39,3.11-2.25,1.73-4.67,3.29-7.78,2.77-2.25-.35-4.67,0-7.09.17-1.04,0-2.25.35-3.29.17-2.25-.52-4.33-.17-6.4.17-.87.17-1.73,0-2.59-.17-3.11-.86-4.15,0-3.98,3.11.17,1.04.17,2.25-.35,3.29-1.04,2.42-.52,4.84,0,7.26.17,1.56,1.03,1.91,2.25,1.21,3.46-2.59,7.61-1.73,11.42-2.07,2.07-.35,4.32-.35,6.4-.52,4.15-.69,8.82,2.25,9.86,5.88.87,3.63-1.73,8.13-6.57,8.13-5.19.17-9.68,1.55-14.18,3.46-3.28,1.39-6.57,3.11-8.82,5.88-.69.69-1.04,1.73-1.04,2.42.52,5.53-.69,11.07.87,16.44.52,1.73,0,3.63-.17,5.53-.17,3.8.17,7.78-.17,11.76-.35,2.94.35,5.88.52,8.82.17,2.77.17,5.36,0,7.96,0,1.21.34,1.73,1.55,1.56,3.81-.87,7.44,0,11.24.52.69.17,1.38-.17,2.07,0,3.11,0,6.23-.17,9.17.52,5.01,1.04,7.26,8.65,3.8,12.46-1.38,1.55-3.28,2.25-5.53,1.9-2.59-.17-5.36-.52-7.96-.52-4.32,0-8.48.17-12.8.17-.69,0-1.39.17-2.07.35-6.05,1.73-10.38-1.9-11.76-6.57-1.04-2.59-1.21-5.53-1.38-8.48-.17-2.25.52-4.5.34-6.92,0-2.42-.52-4.84-.69-7.26,0-2.25.17-4.5.17-6.57v-11.07c-.17-2.94-.17-6.05-.35-9.17-.17-3.8-.52-7.61-.69-11.58,0-.52-.17-1.21,0-1.73.87-2.94.17-5.71-.17-8.48,0-1.38.17-2.77.17-3.98.17-2.25.17-4.33.17-6.4.17-2.94.17-5.71.35-8.65,0-4.32-.17-8.48,0-12.8Z"/>
    <path class="cls-1" d="M880.27,316.42c-3.63-.52-7.26-1.21-9.86-4.15-.17-.17-.35-.35-.52-.35-4.5-2.07-6.23-6.23-7.78-10.38-.69-1.9-1.39-3.98-1.56-5.88-.52-4.32-.52-8.82-.69-13.14,0-.69,0-1.56-.35-2.08-.87-1.38-.35-2.76-.17-4.15.17-1.55.87-3.29.35-4.67-1.39-3.98-.52-7.79-.35-11.59,2.07-7.44,0-34.25.69-39.26,0-1.38.17-2.94.17-4.32v-7.96c0-1.73.52-3.46.34-5.01-.34-3.98,2.08-6.57,6.05-6.22,5.71.52,7.78,2.42,7.78,8.13.17,4.32-.52,8.48-.69,12.8,0,5.19-.35,10.38.17,15.56.52,5.19-.17,10.38-.35,15.57-.17,6.57-.52,13.14-.17,19.72,0,2.94.86,5.88-.17,8.99,0,.17,0,.69.17.87,1.73,3.63.69,7.61,1.03,11.42.17,4.32,1.04,8.65,5.19,11.07,1.39.87,3.29,1.38,4.85,1.38,2.59.17,5.36.17,7.96-.69,3.63-1.04,5.36-4.15,6.05-7.61.86-3.46.52-7.09.52-10.55.17-3.63,1.03-7.26.52-11.07-.35-3.8.52-7.61.52-11.42.17-4.84.35-9.86-.35-14.7-.69-6.75.17-13.49.17-20.06,0-3.98-.52-7.78-.69-11.59-.17-3.98-.34-7.96,0-11.94.17-3.8,2.77-5.53,7.44-5.88,4.32-.17,6.57,2.07,6.05,6.22v.35c.17,1.39,0,2.77.34,4.15.87,2.94,1.04,5.88,0,8.82-.34,1.03-.17,2.42.17,3.46.69,1.91.52,3.46.35,5.36-.52,3.63-.52,7.09-.52,10.72,0,3.29.35,6.57.35,9.86,0,2.07-.35,3.98.69,5.88.17.35.17.69.17,1.03,0,3.98.17,7.79.17,11.76,0,1.9-.17,3.63-.52,5.53,0,1.04-.87,2.42-.52,3.29,1.04,2.94.87,5.88.35,8.82-.52,2.77-.52,5.71-.69,8.48-.17,2.25.17,4.5-.52,6.4-1.04,3.63-2.42,7.09-3.98,10.55-.35.69-1.21,1.21-1.73,1.73-1.56,1.21-2.94,2.42-4.5,3.63-1.03.69-2.25,1.03-3.28,1.55-3.46,1.73-7.27,1.9-11.07,1.73-2.6,0-5.19.17-7.61-.17Z"/>
    <path class="cls-1" d="M926.96,298.95c.69-1.56,1.38-3.11,1.9-4.5.35-.86.52-1.73.69-2.59.35-1.38.69-2.59,1.03-3.8v-.35c1.56-3.81,2.77-7.78,4.33-11.59.86-1.9,1.55-3.63,1.9-5.88.69-3.98,2.25-7.78,3.81-11.59.52-1.21,1.03-2.07.52-3.28-2.07-4.85-3.98-9.51-5.7-14.36-1.73-4.5-2.94-9.17-4.5-13.84-1.38-3.98-3.11-7.78-4.5-11.76-1.21-2.94-2.59-6.05-3.29-9.17-.35-1.38.52-3.29,1.38-4.5,1.21-1.55,2.77-2.59,4.33-3.81.35-.35,1.04-.52,1.38-.35,2.77.87,5.36,1.56,6.4,5.02,1.04,3.98,2.25,8.13,3.98,11.93,2.07,3.81,3.28,7.79,3.63,12.11.17.35,0,1.04.35,1.21,2.07,1.73,2.07,4.32,3.11,6.4.17.35.52.69.69.87.17-.17.35-.35.52-.69,1.03-2.94,2.07-5.88,3.11-8.82.34-1.21.52-2.59,1.03-3.63,2.59-4.33,3.29-9.34,3.98-14.18.86-4.85,5.53-9.69,10.55-10.21,2.42-.34,4.67,1.39,5.01,3.98.17,2.42,0,5.01-.87,7.44-1.73,4.67-3.11,9.51-4.67,14.36-1.04,3.11-2.25,6.05-3.11,9.17-1.03,3.63-1.55,7.26-2.77,10.72-1.21,3.63-2.77,7.44-4.32,11.07-.52,1.38-.69,2.42-.17,3.81,1.21,2.94,2.42,5.88,3.46,8.99.69,2.08,1.38,4.15,1.55,6.23.52,5.19,4.15,9,5.01,14.01.87,3.98,4.5,9.34,6.05,13.32,1.04,2.77,1.9,5.71,2.59,8.65.52,2.77-1.38,5.36-3.98,6.23,0,0-.17,0-.34.17-5.19,2.25-6.75.52-9.34-4.15-.87-1.38-1.21-3.29-1.73-4.84-.69-2.07-1.04-4.5-2.25-6.23-2.25-3.46-3.8-9-5.53-12.62-1.21-2.42-1.9-4.84-2.94-7.44,0-.34-.34-.52-.69-.86-.17.35-.52.69-.52,1.03-.17,3.63-2.77,6.4-3.98,9.86-.86,2.42-1.03,5.36-1.73,7.96-.35,1.39-.69,2.94-1.38,4.32-1.39,2.77-2.77,5.53-4.15,8.48-.35.52-.52,1.04-.69,1.73-1.21,2.77-3.98,4.5-6.57,3.98-3.11-.52-5.71-3.46-5.71-6.57v-1.21c-.52-4.15,1.73-7.09,3.11-10.2Z"/>
  </g>
</svg>