<svg xmlns="http://www.w3.org/2000/svg" viewBox="0 0 81.46 110.7"><defs><style>.cls-1{fill:#fff;}</style></defs><g id="Layer_2" data-name="Layer 2"><g id="Layer_1-2" data-name="Layer 1"><path class="cls-1" d="M34.24,29.3a19.49,19.49,0,0,0,3.15,5.23l-1.76-.47a2.84,2.84,0,0,0,1,1.92A15.22,15.22,0,0,0,39,37.67a7.05,7.05,0,0,0,2.12.79,7.27,7.27,0,0,1,3.58,1.91c.87.77,1.8,1.46,2.69,2.21A15.46,15.46,0,0,1,51,46.42,6.85,6.85,0,0,0,52.49,41c1.21,1.22,1.28,3.76.24,7.8,3-.24,5.3-1.78,7.39-3.74a20.1,20.1,0,0,1-6.64,6.38c4.58,1.08,9,2,13.16,3.82-1.1-.12-2.2-.32-3.3-.33a23.7,23.7,0,0,0-3.57.23,8.61,8.61,0,0,0-3.38,1.28,22.29,22.29,0,0,1,8,6.67c-.23-.12-.47-.23-.69-.37a16,16,0,0,0-5.59-2.3,7,7,0,0,0-3.18.16A15.89,15.89,0,0,1,57,72.1c-.28-2.77-1.08-5.26-3.55-7-.41,1.53-.74,2.94-1.17,4.32-.51,1.62-1.1,3.21-1.66,4.82a5.47,5.47,0,0,1-2.42,3c-1.26.76-2.54,1.52-3.82,2.27-.43.26-.89.47-1.45.76,1,1.22,1.91,2.42,2.92,3.54a2.07,2.07,0,0,0,1.19.4c1.62.21,2.08.92,1.37,2.41a1.67,1.67,0,0,0,0,1.54,1.31,1.31,0,0,0,.47.52c.76.48.91.77.48,1.47a2.2,2.2,0,0,0-.24,1.76,7.3,7.3,0,0,1-.68,4.64,1,1,0,0,1-.31.44,6.07,6.07,0,0,1-2.69,1.35L46.6,97l-.07-.13-1.43.47c.56-.52.95-.85,1.3-1.21a1.42,1.42,0,0,0,.26-1.79c-.1-.17-.31-.42-.44-.41a.85.85,0,0,0-.58.38c-.21.33-.3.73-.48,1.09a4.92,4.92,0,0,1-.48.64,3.37,3.37,0,0,1-.44-.77,3.19,3.19,0,0,1,.49-2.39,1.37,1.37,0,0,0,.15-1.5c-.24-.48-.33-1-1-1.21s-1-.84-1.31-2.07l2.28-1.18-.11-.22-.84.42c-.72.34-1,.29-1.49-.34a5.25,5.25,0,0,0-1.14-1.23c.84,3,1.69,5.95,2.52,8.89a18.19,18.19,0,0,1-6.24,2.16A13.82,13.82,0,0,0,35.81,92L37,97.26l5.52-1.51c-.05.93.15,1.87-.93,2.52l.35,3.11h1.44c.06,1.15-.17,2.05-1.43,2.31a1.68,1.68,0,0,0,.92,1.64l1,.59a8.19,8.19,0,0,1,1,.64c.89.7.93,1.23.16,2.38l11.6.56v.17c-.85.06-1.69.14-2.54.18-6.26.29-12.52.62-18.78.82-2.82.09-5.65,0-8.47-.16-5-.2-10-.45-15-.69a11.4,11.4,0,0,1-2.24-.31l12-.56c-.09-.16-.14-.28-.21-.39-.49-.73-.48-1.23.2-1.79a14.06,14.06,0,0,1,1.91-1.22,2.12,2.12,0,0,0,1.27-1.75c-.42-.3-.94-.5-1.18-.88a4.61,4.61,0,0,1-.33-1.51h1.49c.11-.92.23-1.81.32-2.7,0-.17,0-.44-.1-.5-.9-.54-.6-1.46-.83-2.32l5.44,1.44c.44-2.19.86-4.34,1.28-6.48a19.18,19.18,0,0,0-1.81,5.89,22.52,22.52,0,0,1-6.21-2.13c.83-3,1.65-6,2.48-8.93l-.2-.1c-.24.34-.49.68-.73,1-.7,1-.73,1-1.95.66a7.56,7.56,0,0,0,.71.44c.29.13.6.22,1,.35-.36,1-.6,1.85-1.68,2.25a1.86,1.86,0,0,0-.65,2.33A3.73,3.73,0,0,1,22.54,95a3.68,3.68,0,0,1-.38.9h-.27c-.2-.4-.4-.8-.59-1.21s-.29-.85-.77-.77-.62.6-.59,1a2.58,2.58,0,0,0,.42,1.17,9,9,0,0,0,1.24,1.15l-1.55-.43c.31.37.48.6.68.81s.47.44.75.7A4.27,4.27,0,0,1,18,95.71a6.78,6.78,0,0,1-.31-4,1.92,1.92,0,0,0-.24-1.44c-.46-.82-.35-1.1.43-1.59a1.58,1.58,0,0,0,.62-1.76,4.37,4.37,0,0,1-.23-.49c-.28-1.2-.22-2.26,1.41-2.21a2,2,0,0,0,1.75-.9c.64-.83,1.36-1.6,2-2.4a2.1,2.1,0,0,0,.18-.31l-.92-.44a38.28,38.28,0,0,1-6-3.3,5.31,5.31,0,0,1-1.94-2.41,53.42,53.42,0,0,1-2.69-8.82c0-.2-.1-.4-.19-.75-2.67,1.79-3.64,4.31-3.85,7.25-1-4.47.49-8.38,2.89-12.16a8.61,8.61,0,0,0-5.39.36A21.17,21.17,0,0,0,1,62.85a21.31,21.31,0,0,1,9.31-7.17C8.2,53.86,4.07,53.16,0,53.93c.88-.67,3.2-1.48,6.64-2.27,2.31-.52,4.65-1,7.11-1.48A19.55,19.55,0,0,1,7,42.34a13.69,13.69,0,0,0,4.87,3.49A29.72,29.72,0,0,0,15.64,47c-1.25-1.77-2.45-3.51-2.22-5.88A16.37,16.37,0,0,0,15,43.23a10,10,0,0,0,2.19,1.57,17.48,17.48,0,0,0,2.35.91c.8-.87,1.52-1.62,2.19-2.41a1.37,1.37,0,0,0,.3-.78,2.85,2.85,0,0,1,1.08-2.23c0-.12,0-.2,0-.26a3.27,3.27,0,0,1,.39-3.45c1.72-2.6,3.31-5.28,4.93-7.93a3.7,3.7,0,0,1,1.37-1.35c1.61-.91,3.2-1.84,4.79-2.78A1.92,1.92,0,0,1,36,24.24c5.22,1,10.44,2,15.66,3.09a1.64,1.64,0,0,1,1,.61c.73,1.12,1.41,2.27,2.06,3.44a2.18,2.18,0,0,1,.24,1c0,1.23,0,2.46-.07,3.69a2.87,2.87,0,0,1-.21.74c-.13-1.33-.26-2.58-.4-3.84A2.47,2.47,0,0,0,53,31.11a14.91,14.91,0,0,0-6.2-2.49,9.07,9.07,0,0,1,1.28,3.73,12.38,12.38,0,0,1-.19,4.17c-.17-.39-.28-.63-.38-.88a6.7,6.7,0,0,0-2.16-3.06,5,5,0,0,0-3-1,2.83,2.83,0,0,0-2.85,1.93c-.08.2-.14.41-.29.83C38,32,35.85,31,34.24,29.3Zm3.93,78.81c-1-.92-1-1.36-.26-2.42l.13-.17c.21-.25.45-.48.27-.86s-.53-.26-.83-.33a2.21,2.21,0,0,1-1-.38.87.87,0,0,1-.23-.78c.15-.29.51-.48.85-.78l-.63-3.33c-1.6.09-1-1.32-1.51-2H31.73c-.42.86,0,2.16-1.53,2.09-.22,1.16-.43,2.26-.63,3.33.95.41,1.19.84.76,1.39a1.6,1.6,0,0,1-.81.46,5,5,0,0,1-1,.08c-.25.39-.33.71,0,1a4.16,4.16,0,0,1,.41.51c.57.84.5,1.32-.29,2a.25.25,0,0,0-.07.15h9.61Zm-19.28-49a11.47,11.47,0,0,0-.61,6.2,5.7,5.7,0,0,0,8.52,4,21,21,0,0,0,2.81-2,3.12,3.12,0,0,0,.49-.59C25.71,65.14,21.8,63,18.89,59.14Zm17.4,7.78a6.92,6.92,0,0,0,3.49,2.6,4.64,4.64,0,0,0,6.3-2.92c1-2.47.55-4.91-.21-7.6C44,63.4,40.47,65.54,36.29,66.92Zm12.9.69A12.27,12.27,0,0,1,41,72.7l2.5,3.4C46.45,73.87,47.72,70.69,49.19,67.61ZM34.31,73.52l3.41,4.07L39.94,73ZM27.45,39.63l-.08.22A18,18,0,0,0,33.76,42c3.36.43,6.72,0,10.08,0,0,0,0,0,.13-.18-1.53-.15-3-.34-4.46-.44-3.25-.21-6.52-.2-9.69-1.1ZM16.14,67.52l-.19.14a55.93,55.93,0,0,0,3.61,6.27l1.8-1.55c-.95-.82-1.88-1.56-2.75-2.36S17,68.35,16.14,67.52Zm17.18,6h-5.1a34.15,34.15,0,0,0,2,3.32Zm-8.8,2.76,2.34-2.86-3.63-.53C23.67,74.06,24.07,75.09,24.52,76.28Zm8.93-31.44c-1.17-.77-5.53-1.83-8.28-2A20.39,20.39,0,0,0,33.45,44.84ZM38.88,92.2l.14,0L39.11,91l.86-.62L38,90.14Zm-.55,3A3.31,3.31,0,0,0,37.44,92C37.71,93,38,94,38.33,95.25Zm6.93-9,.1.12.42-.46-.07-.06Z"/><g id="knife"><g id="icon"><path class="cls-1" d="M73.92,5l4.2-4.2.41-.4a1.62,1.62,0,0,1,2.19,0,1.7,1.7,0,0,1,.48,2.29c-.21.33-.45.53-.9.34s-.77.13-.76.6-.09.64-.61.64-.66.21-.66.66-.13.63-.6.64-.76.26-.64.83a1.26,1.26,0,0,1-.15.67c-.07.15-.22.24-.43.46A6.22,6.22,0,0,1,77,8a.46.46,0,0,1,0,.7.47.47,0,0,1-.71,0c-1.2-1.2-2.39-2.39-3.58-3.6a.44.44,0,0,1,0-.66.44.44,0,0,1,.69,0c.17.17.31.36.5.57Z"/><path class="cls-1" d="M68.83,13.38a2.5,2.5,0,0,1-.61,0A10.25,10.25,0,0,1,67,13.12c-.5-.13-.6-.55-.23-.92q2.82-2.83,5.65-5.66c.32-.32.53-.31.86,0,.56.55,1.12,1.11,1.67,1.67a.52.52,0,0,1,0,.87C74,10,73.05,11,72.09,11.93a5.31,5.31,0,0,1-3.26,1.45Z"/></g></g></g></g></svg>