<svg xmlns="http://www.w3.org/2000/svg" viewBox="0 0 91.45 93.48"><defs><style>.cls-1{fill:#fff;}</style></defs><g id="Layer_2" data-name="Layer 2"><g id="Layer_1-2" data-name="Layer 1"><path class="cls-1" d="M0,57.72c6.9-3.86,13.52-7.67,21.16-9.22,4.9-1,9.69-.25,14.49.67a53.49,53.49,0,0,0,7.21,1,10.08,10.08,0,0,0,4.54-.83c7.47-3.51,15.28-3.75,23.26-2.69,4,.53,8,1.07,12,1.55a29.62,29.62,0,0,0,3.28,0,10.37,10.37,0,0,1-1.13,1.83,15.08,15.08,0,0,0-2.94,5.35c-1.74,4.45-3.42,9-5.52,13.23a30.61,30.61,0,0,1-9.2,11.2,33.52,33.52,0,0,1-4.85,2.68c-1,.54-2.15,1-3.22,1.44A1.72,1.72,0,0,0,58,86.12c.24,1,.6,2,.89,3a12.71,12.71,0,0,1,.55,2.31,1.86,1.86,0,0,1-2,2,1.73,1.73,0,0,1-1.86-2c.09-1.28.36-2.55.56-3.82.3-2-.3-2.66-2.27-2.4a69.1,69.1,0,0,1-19.69,0A80.92,80.92,0,0,1,23.3,83c-6.5-1.93-11-6.43-14-12.29-1.69-3.23-3-6.63-4.45-10-.54-1.28-1.14-2.23-2.72-2.28A7.91,7.91,0,0,1,0,57.72ZM76.48,53.8c-1.58.29-3.09.63-4.63.85-8.24,1.2-16.47,2.57-24.74,3.48a114,114,0,0,1-13.59.26c-6.81-.06-13.62-.24-20.44-.39-1.73,0-1.8-.07-1.82,1.7a30.08,30.08,0,0,0,.26,4.65,18,18,0,0,0,3.06,8.26,11.77,11.77,0,0,0,1.9,1.67l.27-.25a24.42,24.42,0,0,1,1.92-13.41,5.36,5.36,0,0,1,.62,2A3.54,3.54,0,0,0,22.46,66a24.45,24.45,0,0,0,4.19.17,2.43,2.43,0,0,0,2.5-2.08c.13-.58.34-1.15.61-2,.12.71.19,1.1.26,1.5.29,1.7,1.12,2.93,3,3.11s3.93.33,5.9.34,3.58-.46,4.18-2.67c1.09,1.64,1.66,2.14,3,2,2.75-.34,5.5-.75,8.2-1.32,1.7-.36,2.19-1.2,2.27-3,0-.71,0-1.41,0-2.12a20.44,20.44,0,0,1,.71,2.46,2,2,0,0,0,2.3,1.76,37,37,0,0,0,4.08-.36c2.75-.45,3.07-.83,3.63-3.58a5,5,0,0,1,.11-.56c.14-.48.3-1,.46-1.42l.53.06c1.08,5.07.7,10.2.21,15.3C72.44,71.25,77.61,58.66,76.48,53.8ZM19.11,69.57c3.05.67,6.05,1.4,9.07,2,10.37,2,20.71,2.52,31-.79,2.15-.7,4.3-1.43,6.56-2.17a2.24,2.24,0,0,0-2.24-1.27c-3.33.3-6.9-.13-9.17,2.77a6.23,6.23,0,0,0-2-.88,48.4,48.4,0,0,0-5.25,0c-1.47.07-3,.07-3.64,2.22a2.42,2.42,0,0,0-2.71-2.06c-1.33,0-2.66,0-4,0s-2.28.2-2.83,1.62c-.67-1.92-2.34-1.64-3.66-2s-2.92-.53-4.2.76a2,2,0,0,0-1.85-2,30,30,0,0,0-3.41-.29C19.49,67.49,19.05,68.07,19.11,69.57Z"/><g id="Bat"><path class="cls-1" d="M87.08,9.7a2.54,2.54,0,0,1,1.67-.62h0a2.6,2.6,0,0,1,1.82.75l.83.84a7.26,7.26,0,0,0-.87-4.4v0l-.09.1a2.58,2.58,0,0,1-3.64,0,.19.19,0,0,1,0-.28h0l.86-.86h0a1.77,1.77,0,0,1-1.39-1.39h0l-.86.86a.17.17,0,0,1-.14.06.2.2,0,0,1-.14-.06,2.57,2.57,0,0,1,0-3.63l.1-.1h0a7.33,7.33,0,0,0-4.4-.87l.84.84a2.56,2.56,0,0,1,.13,3.48,3.74,3.74,0,0,1,.81,4.1l-.29.72.71-.3a3.74,3.74,0,0,1,4.1.81Z"/></g></g></g></svg>