<svg xmlns="http://www.w3.org/2000/svg" viewBox="0 0 79.26 110.72"><defs><style>.cls-1{fill:#fff;}</style></defs><g id="Layer_2" data-name="Layer 2"><g id="Layer_1-2" data-name="Layer 1"><path class="cls-1" d="M49.61,31.54a9,9,0,0,0-1.75-.63,41.74,41.74,0,0,0-4.17-.41c-.2,0-.59.49-.6.76a1.53,1.53,0,0,0,.71,1.13,17.41,17.41,0,0,1-.52,2c-.89,2.26-1.73,4.55-2.82,6.71C40,42,39,42.59,38.29,43.4a1.55,1.55,0,0,0-.36,1.35,4.52,4.52,0,0,0,1.47,1.74c3.34,2.14,6.77,4.15,10.1,6.31a60.91,60.91,0,0,1,6,4.4,3.43,3.43,0,0,1,1,2.55c-.52,6-1.54,12-4.49,17.4a3.51,3.51,0,0,1-1.22,1.39,1.63,1.63,0,0,0-.9,1.73,33.47,33.47,0,0,1-1.37,9.84A22.15,22.15,0,0,0,48,93.83c-.16,2.62-.27,5.25-.37,7.87,0,1.29.07,2.58,0,3.87-.15,1.92-.95,2.49-2.85,2.82-2.51.44-4.95,1.24-7.46,1.65-4.14.67-8.33,1.07-12.46.11-2.36-.55-3.94-2-3.49-4.78.25-1.57.18-3.19.42-4.76a30.38,30.38,0,0,1,1.11-4.73,10.67,10.67,0,0,0,.17-5.95c-.49-2-.92-4.1-1.34-6.15-.13-.64-.16-1.3-.23-2l.45-.16L23.4,85l.68-.41c-1.31-1.54-1.37-2.14-.24-3.57l-9.59.55c1.42,2.4.88,5.11.83,7.77-.09,5.36-1.3,10.54-2.48,15.73a2.38,2.38,0,0,1-.84,1.31,74.83,74.83,0,0,0,1.7-17.76c-.15,6.24-1.57,12.25-3.09,18.24a125.9,125.9,0,0,0,2.87-24.26l.46,0,.35,5.82c.59-1.56.44-6.2-.36-7.13a13.81,13.81,0,0,0-2.2-1.57,4.19,4.19,0,0,1-2-4.16,2.78,2.78,0,0,1,2.86-2.17l-.57.75,1,.26-.64,1.77,5,.63a29,29,0,0,0,12.64-1.37c2.37-.76,2-.36,1.63-2.77-1.09.84-2.15,1.67-3.24,2.47a2.53,2.53,0,0,1-1,.45,1.55,1.55,0,0,1-1.83-1.82,2.1,2.1,0,0,0-.87-2.5l1.54.58L24.5,69.72l-1.25,3.64L21,71l-.14,2.56a14.66,14.66,0,0,1-1.76-7.41,7.9,7.9,0,0,0,0-1.38c-.62-3,.73-5.2,2.72-7.13s3.77-3.55,5.7-5.28c1.17-1,2.69-1.8,3.53-3s.84-2.72,1.15-4.13a7.41,7.41,0,0,0,0-1.58c-1-.38-2.23-.78-3.38-1.29a1.93,1.93,0,0,1-.81-.88,25.35,25.35,0,0,1-2.53-8.38c-.19-1.09-.36-2.19-.56-3.41,1.74.29,1,1.88,1.65,2.53,1.87-.47,1.46-2.22,1.92-3.46,0-.12-.51-.6-.85-.69-3.13-.86-6.28-1.66-9.43-2.51-.71-.19-1.4-.47-2.1-.71v-.32h3.12c1.84,0,3.69,0,5.53,0a1.38,1.38,0,0,0,.94-.7c1.28-2.86,2.54-5.72,3.74-8.61.85-2.05,2.59-2.91,4.49-3.52A10.07,10.07,0,0,1,37.2,11a2.6,2.6,0,0,1,1.86,1.1,19.66,19.66,0,0,1,2.3,6.45,52.21,52.21,0,0,0,1.46,5.59c.65,2.14,2.54,3.23,4.26,4.26,2,1.18,4.13,2,5,4.61L49.56,31.5l1.13.24c-1.21-1.67-3.16-2.5-4-1.82Zm-26,30.27.52.15A16.76,16.76,0,0,0,23,65.79,20.88,20.88,0,0,0,23.53,70l.31.06a15,15,0,0,0,1-2.2c.42-1.42.71-2.87,1.09-4.42A2.16,2.16,0,0,1,24.65,61a19.55,19.55,0,0,1,1.15-2.89,3.9,3.9,0,0,0-3,4.89Zm8.48,7.55c-.25-.07-.61-.25-.69-.17-.84.9-2.43.8-2.86,2.34-.14.49-1.16.72-1.77,1.09-.33.2-.84.39-.91.68s0,1.2.22,1.33a2,2,0,0,0,1.62.1C29.86,73.6,31.8,72.24,32.1,69.36Zm-6.73-8.09c0,1.09,1,2,1.61,1.44a38.43,38.43,0,0,0,3.38-3.49c.17-.19-.07-.93-.34-1.24s-.72-.11-1.1-.09-.48.18-.73.21A3.65,3.65,0,0,0,25.37,61.27ZM28,32a2.05,2.05,0,0,0-1,2.66,27.87,27.87,0,0,0,.87,3c.82,2.09,1.51,4.31,4.18,5.1-.6-1.26-.25-2.91-2-3.35-.17,0-.31-.27-.45-.42-1.53-1.68-1.34-3.49-.35-5.29ZM25.77,67.79a7.12,7.12,0,0,0,1.52-1.26,5.34,5.34,0,0,1,3.34-2.22c.3-.08.74-.37.76-.6a14.48,14.48,0,0,0-.11-2.16C28.48,62.87,26.51,64.68,25.77,67.79ZM32.3,84.43c.06-2.24-.31-2.6-2.69-2.58-.29,0-.8.11-.83.25a1.7,1.7,0,0,0,.13,1.16A3,3,0,0,0,32.3,84.43Zm-3.06,3.18c1-1.31,1.06-1.89.06-2.88-.29-.29-.59-.69-.95-.77s-1.15-.08-1.34.18c-.36.49-.64,1.15.18,1.7A20.33,20.33,0,0,1,29.24,87.61ZM24,57.36l.25.26c1-.6,1.92-1.26,2.93-1.78,1.45-.72,2.31-1.69,1.8-3.68Zm17.35,37.3a3.7,3.7,0,0,0-2.08,4.46l1.9-.5.33-2.55-.7-.4Zm-18-16.52.06.56c1.64,0,3.29,0,4.94,0,.29,0,.56-.36.84-.55-.23-.3-.4-.75-.7-.86a2.69,2.69,0,0,0-1.46-.11C25.83,77.43,24.61,77.81,23.39,78.14ZM31,106l-.12.31a5.25,5.25,0,0,0,1.08.65c1.35.41,1.15-1.48,2.32-1.44l-1-1.82L31.17,105l.84.78ZM17.47,79.17c.69.1,1.3.24,1.92.28,1.65.13,1.72,0,1.08-1.68l-3.19-.18Zm24.33,9c1.24-1,2.3-1.8,2.19-3.28,0-.32-.35-.83-.59-.86s-1,.2-1.08.43C42.07,85.57,42,86.73,41.8,88.16Zm-12.74-20c1.18-.75,2.63-1.23,2.05-3.41L28,66.54Zm3-43.4a7.71,7.71,0,0,0,1.47-2.08c.2-.68.54-1.71-.48-2.28A3.7,3.7,0,0,0,32.1,24.73Zm2.55,68.09A9.52,9.52,0,0,0,36,92.13a.86.86,0,0,0-.18-.72,1.87,1.87,0,0,0-1.06-.35c-1,0-1.17.88-1.18,1.62,0,.44.28,1.17.58,1.25s.94-.28,1.42-.45l-.14-.35Zm1.12-30.26c1.33-1.53.22-3.42,1-4.92C34.23,58.74,35,60.57,35.77,62.56ZM23.55,99.16h-.47l-.57,5,1.61-.4ZM27,87.79c-1,1.65-.57,3.06.92,3.44C28.62,89.35,28.49,88.85,27,87.79Zm20.26-30.9c-.44-1.59-1.4-2-3.75-1.8C43.76,56.07,46,57.19,47.26,56.89ZM44.4,59.24c-1.67.19-1.74.33-1.15,2.24.1.32.45.56.68.83.31-.35.85-.69.87-1.06A7.88,7.88,0,0,0,44.4,59.24ZM34.4,99c.16-2.8.18-3.38-1.45-3.58C32.83,97.31,33.35,98.67,34.4,99Zm.09-29.88c-.31.09-.53.12-.53.16-.13,1.43-.25,2.86-.35,4.29,0,.08.29.27.36.24s.49-.28.49-.44C34.5,72,34.49,70.57,34.49,69.1Zm-.2-9.43-.36,0a14.87,14.87,0,0,0-.62,1.81c-.1.45-.18,1.22,0,1.35a4.91,4.91,0,0,0,1.8.23ZM33.41,101c.77-1.25.12-1.36-2.4-1.81v2Zm-5.32-81L26.3,24l.3.15,2.16-1.49Zm1.75,33.81a6.28,6.28,0,0,0,2.75-4.19C31.58,50.81,29.77,51.53,29.84,53.74Zm9.52,27.45-4.23,1.12C37.87,83.23,38,83.2,39.36,81.19ZM34,77.82c1.87.53,4.21-.11,5-1.47Zm-3.7-39V34.2A3,3,0,0,0,30.34,38.83Zm.73,52.69c-.42,1.21-1.84,2.38-.33,3.77l.8-.72ZM13.9,79.59c-.23-1.7-.73-2.23-1.93-2.16-.28,0-.54.28-.81.43.14.23.22.58.43.69C12.27,78.91,13,79.2,13.9,79.59Zm12.38,24.74c1.8-1.35-.38-2.93.54-4.26A4.1,4.1,0,0,0,26.28,104.33Zm12-12.72c-.76.86-1.46,1.6-2.1,2.38-.11.14,0,.45,0,.67,0,.06.29.09.43.06A2.68,2.68,0,0,0,38.24,91.61Zm7.94-22.47.87-2.77-3.12,1.72Zm-1,26,.42-.23-.39-4.19a11.14,11.14,0,0,0-.79,3.46C44.43,94.52,45,94.86,45.21,95.18ZM40.5,39.11c-1.7.8-3.21,1.45-2.56,3.72ZM22,66l.46-6.1A8.43,8.43,0,0,0,22,66Zm8.67,37.85,3-2C31.44,101.36,30.62,101.92,30.68,103.82Zm5.41,1.4L38,103.38l-1.95-1.12Zm1.33-31.67c.12,1.59,1.19.8,1.84.79.17,0,.58-1,.42-1.22C38.7,72,38.22,73.51,37.42,73.55Zm12.8-3c1.73-1,2-2.54,2.29-4C52.12,68,50.17,68.59,50.22,70.58ZM33.15,25.64l.59.32c.43-.42,1-.77,1.22-1.28.11-.27-.45-.81-.7-1.24l-.51.1ZM51,60.8c-.23,1-1.53,1.75-.4,3C52.17,61.89,52.17,61.89,51,60.8ZM37,68.33l-.4.16.16,2.66L38.6,70ZM25,84.39c.35-.64.73-1,.64-1.21a6.88,6.88,0,0,0-1-1.22c-.25.3-.77.68-.71.88A6.47,6.47,0,0,0,25,84.39Zm2.1-59.32-2.81,1.3,3.21.4Zm2.58,72.2.39-.09-.77-3.26A2.32,2.32,0,0,0,29.72,97.27ZM28.45,31l1.83.55L29.65,29l-.38-.07Zm7,48.84,0,.65c.47,0,1,0,1.43-.1s1.06-.14,1.6-.21l1.4-.13-.12-.21Zm19-13.25L54,66.5c-.42,1.27-1.11,2.47-1,3.87l.41.1ZM40.71,93.3c2-.64,2-.64,1.81-1.85l-1.71.31Zm12-22.54-1.46,4.37A4.36,4.36,0,0,0,52.69,70.76ZM30.53,25.33l-2.35,1.36,2.52.77ZM46,104.08l-2.2,3.28C45.32,107.15,46,106.25,46,104.08ZM29.63,18.68c-1,.66-.88,3.2.2,3.87ZM39,70.86l-.3-.2c-1.86,1.07-1.86,1.07-1.32,2.6Zm-5.07,17a10.16,10.16,0,0,0,1.39-1.18c.14-.18-.07-.63-.12-1-.27.1-.71.13-.79.31A12.9,12.9,0,0,0,33.92,87.88Zm11-21.51.3.25,2-1.65-1.48-.41ZM16.76,78.92c-.15-.5-.14-.9-.31-1a4.8,4.8,0,0,0-1.4-.46c-.1,0-.27.33-.4.52.35.23.68.5,1,.7A5.14,5.14,0,0,0,16.76,78.92ZM32.32,76l-.13-.29-3.26.86,1,.7Zm.77,13.45.35,0V86.29A2.44,2.44,0,0,0,33.09,89.43Zm-2.16-9.15c-.61-.58-2.55-.37-3.46.6ZM34.17,55l.41.29,1.82-1c-.58-.31-1.09-.7-1.19-.61A7.91,7.91,0,0,0,34.17,55Zm6.27,50.64-.31-.45-2,.44a9.83,9.83,0,0,0,.92,1.1A11.1,11.1,0,0,0,40.44,105.62Zm9-46.72c.19-.41.49-.79.41-.91a3.22,3.22,0,0,0-1-.88,2.32,2.32,0,0,0-.58.63A11.43,11.43,0,0,0,49.47,58.9ZM47.77,78l.47.09,1.13-1.29-1.77-.75ZM33,19.15l.44,0a10.48,10.48,0,0,0,0-1.77,7.25,7.25,0,0,0-1.35-.1Zm5.1,41.61.49.07c-.4-1.26,1.52-1.91.88-3.23L39,57.47Zm6.27,8.1-.51,0-.77,1.9.31.3c.35-.31.82-.56,1-.94S44.39,69.29,44.37,68.86Zm-8.75,28L36,98.37l.39.18,1.1-1.32Zm-8.26.3,1.29.07-.86-2.86ZM51.34,60l1.08,1.15.25-.13-.34-2.46ZM32.86,98.62l-.48-1.88-1.26,1.53ZM29.1,31.57c-.21,2.17,1.89,1,2,1.55Zm-8.18,48.7v.25h5.64v-.25ZM25,98.5c1.47-.9,1.54-1.23.66-2.75Zm2.18-34.8-.39-.2-1.58,3.12.33.18Zm5.27-15.22.33.1c1-1.16.19-2.56.29-3.83ZM31.29,88.35l1-2.66C31,86.2,30.88,87,31.29,88.35ZM22.71,71.21l.51-.06-.44-3-.37,0Zm19,28.86-2.44,1.32C40.77,101.73,41.33,101.41,41.67,100.07ZM26,99.17c-1.17,1.24-1.39,2.24-.77,3.35ZM36,28.74l-.32.18.14,1.54.5.06c.15-.36.44-.74.41-1.09S36.28,29,36,28.74ZM31.15,21l.19.06,1.13-1.68-.73-1.12ZM28.77,99.43l-.32,2.6C29.71,101.21,29.78,100.79,28.77,99.43ZM39.5,93.64l-.41-.15L38,96.6l.37.15Zm-11-31.5.5.51,1.9-2-.53-.55ZM29,91c.35-.13.65-.14.76-.29a4.45,4.45,0,0,0,.56-1.11c0-.06-.36-.35-.38-.33a3.9,3.9,0,0,0-.71.81A3.22,3.22,0,0,0,29,91Zm10.67-2.77c.86-1.19.78-1.77-.11-2.15Zm1.54-6-.32-.34L38.8,83.76l.33.36Zm-15-2.66v-.34l-3.59-.41,0,.39Z"/><path class="cls-1" d="M9.35,49.5a9.11,9.11,0,0,0,1.51-7.83c-1.28-4.73-2.79-9.4-4.2-14.1-.12-.39-.21-.79-.32-1.19l.29-.12A29.14,29.14,0,0,1,7.8,29c1.21,3.57,2.44,7.14,3.51,10.76,1,3.3,1.2,6.7-.49,9.84-1.07,2-.71,3.81-.08,5.69C12.66,61,13.3,66.92,14,72.88a4.5,4.5,0,0,1-.61,2.29c-.42-7.29-2.63-14.23-3.9-21.34A16.27,16.27,0,0,1,7,55.56,1.64,1.64,0,0,1,5.48,55a33.15,33.15,0,0,1-2.14-4.8C2.16,46.73,1.12,43.24,0,39.76c-.06-.2,0-.45,0-.33l6.18,14c1.6-.94,2.1-2.06,1.68-3.55q-1.41-5-2.79-9.93a1.71,1.71,0,0,1,.06-1C7.71,42,7.48,46,9.35,49.5Zm-3.5,5.24c.36,0,.81.13,1.08,0,.89-.52,1.83-1.07,1.72-2.49Z"/><path class="cls-1" d="M76.37,14.08H75s-.15-.11-.14-.16c0-.6,0-1.2.06-1.81s0-1.17,0-1.76c0-.19-.16-.29-.42-.29H73.26A1.34,1.34,0,0,1,72,9a3.19,3.19,0,0,1,0-.54q0-3.28,0-6.57c0-.49.1-1,.15-1.47a1.11,1.11,0,0,1,.08-.34c0,.17.06.35.08.52,0,.4.09.8.09,1.2q0,3.39,0,6.76a1,1,0,0,0,1.1,1.13h.82V9.41c0-2.56,0-5.11,0-7.66,0-.54.09-1.08.14-1.63L74.49,0c.06.65.15,1.25.16,1.84,0,1.31,0,2.62,0,3.94,0,1.07,0,2.15,0,3.22,0,.17,0,.34,0,.5s.1.17.15.17h1.77V9.39c0-2.25,0-4.5,0-6.76,0-.87.09-1.74.13-2.61h.09c0,.2,0,.4.07.6a4.5,4.5,0,0,1,.07.63c0,2.71,0,5.42,0,8.13v.31a6.55,6.55,0,0,0,1.19-.08c.4-.09.71-.4.71-1.06,0-.94,0-1.88,0-2.82,0-1.46,0-2.91,0-4.37a6.46,6.46,0,0,1,.18-1.3,4.67,4.67,0,0,1,.08.52c0,.46.09.91.09,1.36,0,2.24,0,4.48,0,6.72A1.36,1.36,0,0,1,78.2,10a3.55,3.55,0,0,1-.8,0h-.69c-.33,0-.43.12-.43.44l.09,3.32A2.24,2.24,0,0,1,76.37,14.08Z"/></g></g></svg>