<svg xmlns="http://www.w3.org/2000/svg" viewBox="0 0 71.45 108.13"><defs><style>.cls-1{fill:#fff;}</style></defs><g id="Layer_2" data-name="Layer 2"><g id="Layer_1-2" data-name="Layer 1"><path class="cls-1" d="M51,67.87a5.73,5.73,0,0,0-.32-1.33c-.15-.47-.36-.92-.51-1.39a4.92,4.92,0,0,0-1-1.86c-.36-.41-.69-.85-1-1.28a4.7,4.7,0,0,0-.38-.5c-.8-.73-1.6-1.47-2.43-2.17a14.3,14.3,0,0,0-1.58-1.09c-.17-.12-.52-.23-.49.13s-.35.93.19,1.29c-.59.34-.67.58-.36,1a2.48,2.48,0,0,0,.3.25l.65.58c-.15.08-.2.13-.26.13-.66.1-1.31.2-2,.28a2.65,2.65,0,0,0-1.64.39c-.09.07-.25,0-.5.09l.27-.38c.38-.48.79-.94,1.14-1.44a27.17,27.17,0,0,0,2.65-4.35c.33-.75.79-1.45,1.08-2.22.41-1.11.72-2.26,1.07-3.4.2-.68.37-1.38.58-2.06s.41-1.38.67-2c.46-1.2,1-2.36,1.44-3.56.28-.78.37-1.61.64-2.39a8,8,0,0,0,.24-2.87.86.86,0,0,0-.18-.43.37.37,0,0,1,.06-.58,2.13,2.13,0,0,0,.61-2.12,1.26,1.26,0,0,0-1.18-1.16.8.8,0,0,1-.54-.32,11.73,11.73,0,0,1-.95-2.15,10,10,0,0,0-1.51-3.08c-.94-1.35-1.93-2.68-3-4a34.4,34.4,0,0,0-2.4-2.58A25.47,25.47,0,0,0,37.93,19c-1-.8-2.17-1.47-3.24-2.22a19.89,19.89,0,0,0-6-2.87,6.92,6.92,0,0,0-1.36-.38,1.9,1.9,0,0,1-1.83-1.33.67.67,0,0,0-.63-.46,1.5,1.5,0,0,0-1.61,1.11c-.1.41-.13.83-.21,1.24a2.43,2.43,0,0,1-.7,1.45A7,7,0,0,1,20,16.82a16.3,16.3,0,0,0-2.08.81A12.86,12.86,0,0,0,14.23,21a31.07,31.07,0,0,0-3.14,4.54,28.53,28.53,0,0,0-2.17,4.13,19.93,19.93,0,0,0-1.23,4.21,9.06,9.06,0,0,1-.19,1c-.19.7-.46,1.39-.6,2.11a4.63,4.63,0,0,0,0,1.39.91.91,0,0,1-.26.82,2.63,2.63,0,0,0,0,3.59,1.28,1.28,0,0,0,1,.49c.54-.05.61,0,.69.54a2.48,2.48,0,0,1,0,.27,3.07,3.07,0,0,0,1.84,2.74.88.88,0,0,0,.6,0A39,39,0,0,1,17,45.34a4.19,4.19,0,0,1,3.57.86,4.83,4.83,0,0,0,.56.36c.59.34,1.21.64,1.78,1a9,9,0,0,0,2.95,1.09c.28.06.57.1.85.14a8.32,8.32,0,0,0,2.73.07,8.82,8.82,0,0,0,4.43-2.28c.8-.75,1.68-1.42,2.53-2.12a2.42,2.42,0,0,1,2.23-.56,13.6,13.6,0,0,1,1.81.76c.88.38,1.76.78,2.65,1.15.28.12.59.14.87.26a2.23,2.23,0,0,0,2.31,0c.08-.06.22,0,.32,0a.8.8,0,0,1,0,.34,9.73,9.73,0,0,1-.42,1.18,1,1,0,0,1-.34.35c-.34.2-.38.35-.2.7a.84.84,0,0,1,.09.51c-.48,1.45-1,2.9-1.48,4.34a7.42,7.42,0,0,1-.45,1,20.14,20.14,0,0,1-2.2,3.71c-.73.83-1.35,1.76-2,2.64-.19.26-.4.36-.68.09a.4.4,0,0,0-.38,0c-.08,0-.1.22-.11.34a.61.61,0,0,0,.08.26.41.41,0,0,1-.12.58,9.69,9.69,0,0,1-1.07.87A9.93,9.93,0,0,1,35,64.18a7,7,0,0,1-3.34.48c-1-.2-2.11-.14-3.11-.41a14,14,0,0,1-3.91-1.69c-.45-.29-.93-.53-1.35-.86a26.83,26.83,0,0,1-2.15-1.82c-.67-.65-1.28-1.35-1.89-2.05s-1.3-1.54-1.94-2.32a21,21,0,0,0-1.85-2.23,10.14,10.14,0,0,1-1.28-1.51l-.15-.19-1.82-2.21a8.7,8.7,0,0,0-.6-.76c-.1-.11-.31-.11-.46-.17,0,.17,0,.37,0,.5.29.49.62,1,.94,1.45l2.58,3.8c.07.11.16.25.27.28.56.17.84.66,1.18,1.05.5.59.93,1.23,1.38,1.86a.36.36,0,0,1-.06.31l-1.85.49c-1.17.29-2.34.56-3.49.9a10.65,10.65,0,0,0-1.88.78c-.82.43-1.62.91-2.4,1.41-.62.4-1.19.88-1.81,1.29a18.63,18.63,0,0,0-1.73,1.07,13,13,0,0,0-1.43,1.61c-.4.48-.77,1-1.14,1.49a3,3,0,0,0-.59.87c-.26,1-.45,2.1-.67,3.15a1.25,1.25,0,0,1-.13.44A2.67,2.67,0,0,0,0,72.65,51.14,51.14,0,0,0,.54,79c0,.6.06,1.19.11,1.79a1.87,1.87,0,0,0,.2.49,8,8,0,0,1,.45,1.1c.32,1.38.58,2.76.9,4.14.22.9.54,1.78.73,2.69A11.14,11.14,0,0,0,3.28,91c.4,1.06.67,2.17,1,3.27.51,1.8,1,3.62,1.53,5.4.47,1.46,1.09,2.88,1.65,4.32a8,8,0,0,0,.4.77.65.65,0,0,0,.75.37.8.8,0,0,0,.53-.3c.16-.39.38-.36.68-.22a9.8,9.8,0,0,0,1,.44c.9.29,1.8.56,2.71.8,1.11.29,2.22.59,3.35.8,1.67.31,3.36.55,5.05.78,1.07.15,2.15.22,3.23.33l1.37.11c1.11.09,2.22.19,3.33.24.58,0,1.17,0,1.76,0,1.25-.06,2.52,0,3.76-.2,1.58-.22,3.14-.58,4.7-.91a14.6,14.6,0,0,0,1.92-.58.77.77,0,0,0,.46-.46c.13-.7.2-1.4.26-2.1s0-1.37.11-2c.2-1.31.43-2.63.72-3.93.41-1.77.88-3.53,1.33-5.29.36-1.42.7-2.84,1.09-4.26.25-.93.56-1.85.85-2.77.12-.39.26-.77.4-1.15a5.14,5.14,0,0,1,.35-1,6.06,6.06,0,0,0,.83-2.19c.06-.33.17-.66.24-1q.63-2.73,1.25-5.47c.22-1,.39-2.06.64-3.07A13.23,13.23,0,0,0,51,67.87ZM46.38,31.6c.11.14.18.23.24.32l.61.9a1.7,1.7,0,0,1,.09.24l-.28.08a.28.28,0,0,1-.14-.06A1.58,1.58,0,0,1,46.38,31.6ZM43.61,29c.14,0,.36.16.47.31a1.18,1.18,0,0,1,.16.51c.07.42,0,.62-.35.66s-.63-.16-.67-.58v-.28a.32.32,0,0,1,0-.18C43.35,29.27,43.46,29,43.61,29Zm-1.15-3.72.79.91C42.7,26.25,42.44,25.93,42.46,25.28Zm-3.81-1.71c.17.34.31.7.47,1.07-.1.18-.15.39-.27.44a.6.6,0,0,1-.44-.13,1.16,1.16,0,0,1-.07-1.42A.31.31,0,0,1,38.65,23.57Zm.13,6.1a.77.77,0,0,1-.32-.27s.12-.17.25-.35a1.74,1.74,0,0,1,.27.41C39,29.51,38.81,29.68,38.78,29.67Zm-.24-7.83c-.43,0-.49-.3-.61-.65C38.36,21.25,38.47,21.49,38.54,21.84ZM38.27,30l.33.37a8.09,8.09,0,0,1-.68.46s-.21-.18-.21-.27C37.71,30.29,37.89,30.12,38.27,30Zm-3.47-9.5a.89.89,0,0,1,.37.11,2.72,2.72,0,0,1,.38.31c-.11.09-.2.21-.32.29s-.34.17-.6.3c-.13-.16-.31-.29-.34-.45A.51.51,0,0,1,34.8,20.53Zm-1.66-.24c0,.61-.17.86-.47.84s-.32-.18-.31-.4.36-.77.56-.7S33.1,20.25,33.14,20.29ZM33,18.48l-.61-.21.06-.19.61.19ZM31.1,16.07a4.07,4.07,0,0,1,1.75,1s0,.1,0,.22c-.5,0-.95,0-1.4,0-.11,0-.24-.18-.31-.3a5.3,5.3,0,0,1-.28-.65C30.83,16.13,30.92,16,31.1,16.07Zm-1,9.14c-.09-.17.37-.74.55-.69s.15.14.16.22a6.12,6.12,0,0,0,.57,2.18.47.47,0,0,1-.15.41,2.36,2.36,0,0,1-.6.28c-.25.09-.34,0-.29-.35A2.86,2.86,0,0,0,30.06,25.21Zm.23-1.4A2.38,2.38,0,0,1,30,24c-.16-.63.29-.87.57-1.15a4.13,4.13,0,0,1,.92-.59.45.45,0,0,1,.59.16c.17.19.14.31-.07.43Zm-.61,8.86h0c0,.13,0,.26,0,.39s0,.48-.32.56a.59.59,0,0,1-.75-.25,1.94,1.94,0,0,1,0-1.95.51.51,0,0,1,.45-.07c.36.25.71.52.6,1A1.22,1.22,0,0,0,29.68,32.67Zm-3.63-2.94-.62-.18a7.68,7.68,0,0,1,1.09-1.11,1,1,0,0,1,.85,0,1.35,1.35,0,0,1,.2,2.35,5.85,5.85,0,0,1-.77.47,1,1,0,0,1-.26,0,1.37,1.37,0,0,1,0-.29c0-.06.05-.12.07-.18A.74.74,0,0,0,26.05,29.73Zm-9.48,5.33c-.05,0-.07-.28,0-.37.18-.25.41-.48.64-.74.16.32.05,1-.17,1.12A.66.66,0,0,1,16.57,35.06Zm.4,1.37c0,.09-.06.22-.13.26-.35.17-.72.33-1.09.49-.12-.09-.25-.13-.26-.2s0-.23.11-.25a11.6,11.6,0,0,1,1.13-.39C16.79,36.32,16.89,36.4,17,36.43Zm-.34-3.06a5.05,5.05,0,0,1-.83.77c-.27.2-.48.11-.54-.23-.14-.83,0-1,.53-1.37a8.93,8.93,0,0,0,1.58-1.81,5.1,5.1,0,0,0,.43-.67l.15.06a2.22,2.22,0,0,1,0,.45A9.24,9.24,0,0,1,16.63,33.37Zm-3.45,2.06L11.84,36c-.44.18-.66.1-.83-.34a1.9,1.9,0,0,1,.33-1.82.41.41,0,0,1,.37,0,4.54,4.54,0,0,0,1.75,1.29s0,0,.07.12A2.16,2.16,0,0,1,13.18,35.43Zm.11,1.82a7,7,0,0,1-.56.83.41.41,0,0,1-.38,0c-.26-.12-.49-.28-.74-.42s-.29-.32,0-.45a1.55,1.55,0,0,1,.63-.16A9.74,9.74,0,0,1,13.29,37.25Zm-1.11-4a1.35,1.35,0,0,1,.05-.44,1.43,1.43,0,0,1,.43.12,1.73,1.73,0,0,0,1.21.33c.44-.06.64.17.63.68a.47.47,0,0,1-.4.54A1.91,1.91,0,0,1,12.18,33.28ZM14.36,32a4,4,0,0,0-1.19-.42c-.25-.06-.41-.11-.21-.36a5.36,5.36,0,0,1,2-1.69,1.14,1.14,0,0,1,.32-.06c-.18.34-.3.57-.44.81l-.41.67.11.11c.12-.07.28-.11.36-.21.41-.5.83-1,1.2-1.54a1,1,0,0,1,1.08-.55c.39.05.55.26.39.62a6.67,6.67,0,0,1-2,2.65C15,32.34,14.88,32.27,14.36,32Zm-.61-4.38a2.7,2.7,0,0,0,.33-.22c.35-.37.68-.76,1-1.13a7.27,7.27,0,0,1,.79-.68c.07-.06.25-.1.28-.07a.37.37,0,0,1,.08.31,1.53,1.53,0,0,1-.34.46c-.6.56-1.23,1.08-1.81,1.66a2.38,2.38,0,0,1-1.36.63.48.48,0,0,1-.38-.1.51.51,0,0,1,0-.4A5.6,5.6,0,0,1,14.11,26c.31-.24.65-.44,1-.66l.09.12-1.55,2Zm.69,1.33-.61.48-.13-.17.62-.47Zm2.83-2.06a.91.91,0,0,1,.87-.75c.37,0,.49.13.49.58a.6.6,0,0,1-.5.68C17.68,27.35,17.26,27.1,17.27,26.84Zm4.88-2.94c.63-.51,1.24-1,1.85-1.58.2-.18.29-.09.35.11a.51.51,0,0,1-.25.67c-.42.26-.85.52-1.26.8-.79.54-1.58,1.1-2.37,1.66a.64.64,0,0,1-1.1-.38l-.27-.94a.31.31,0,0,1,0-.19,1.15,1.15,0,0,1,1.45-.68,1.78,1.78,0,0,0,.36.14c.58.09.58.09.54.74A4.54,4.54,0,0,0,22.15,23.9Zm3.13.71A9,9,0,0,1,23,26.51c-.62.33-1.19.76-1.78,1.13-.32.19-.44.12-.51-.24,0-.14,0-.28-.09-.42-.17-.67-.18-.69.4-1.09,1.1-.76,2.23-1.47,3.32-2.24.56-.39,1-.17,1.66.06C25.75,24,25.54,24.34,25.28,24.61Zm1.24,1a.37.37,0,0,1,.41.41,1.08,1.08,0,0,1-.88,1.13.71.71,0,0,1-.76-.68C25.29,26.06,25.88,25.64,26.52,25.64Zm-6.91,1.55c0-.05.17-.11.19-.09a.4.4,0,0,1,.17.24,1.5,1.5,0,0,1-.42,1.47c-.22.17-.43.35-.64.53l-.16-.09a2.85,2.85,0,0,1,.11-.79A13.63,13.63,0,0,1,19.61,27.19Zm-2-3.4c-.07,0-.2-.22-.19-.25.34-.49.68-1,1.06-1.43.13-.16.46.16.46.46A1.71,1.71,0,0,1,17.62,23.79Zm.94,8.62a8.57,8.57,0,0,0,1.88-3.18,1.6,1.6,0,0,1,.87-.95L24,26.74c.3-.18.51-.17.66.22a3.38,3.38,0,0,0,.47.74c-.51.21-1,.38-1.45.59a2.89,2.89,0,0,0-1.79,2.18,1.39,1.39,0,0,1-1,1.09A19.8,19.8,0,0,0,18.48,33a1.27,1.27,0,0,1-.48.24C18.19,32.93,18.36,32.65,18.56,32.41Zm4-2.4a3,3,0,0,1,2.66-1.38c-.38.32-.69.61-1,.87s-.82.56-1.24.82a.39.39,0,0,1-.35,0C22.55,30.3,22.54,30.1,22.57,30Zm.37,1.33c.71-.26,1.42-.49,2.14-.72a1.19,1.19,0,0,1,.41,0,1.43,1.43,0,0,1-.09.42A1.86,1.86,0,0,1,24,32.17,8.15,8.15,0,0,1,23,32a.44.44,0,0,1-.29-.32C22.65,31.55,22.82,31.38,22.94,31.34Zm.94,2.49c.29-.3.56-.3,1.05,0a.73.73,0,0,1-1,.38C23.72,34.11,23.72,34,23.88,33.83Zm.14,4c.41-.1.82-.14,1.24-.21l0,.18a1.3,1.3,0,0,1-1.16.56c-.1,0-.29-.12-.29-.19S23.94,37.85,24,37.83Zm1.26-4.25s-.16-.15-.25-.23a1.84,1.84,0,0,1,.36-.28c.07,0,.18.06.39.13A3.28,3.28,0,0,1,25.28,33.58Zm.29,2.55a4.75,4.75,0,0,1,.64-.24c.09.06.22.09.25.16a.31.31,0,0,1-.07.27c-.23.21-.39.63-.82.37a.51.51,0,0,1-.23-.28C25.34,36.31,25.47,36.18,25.57,36.13Zm2.88-10.68a9,9,0,0,1-.56.81l-.12,0c-.07-.34-.15-.67-.2-1,0-.08.12-.25.18-.25a1.94,1.94,0,0,1,.63.15A.36.36,0,0,1,28.45,25.45Zm.15,2.27-.28.39-.47-.43.47-.42Zm-.47,5.94c0,.11-.2.23-.36.38a3.68,3.68,0,0,1-.33-.29,4.51,4.51,0,0,1,.4-.47C27.94,33.41,28.13,33.53,28.13,33.66ZM26.89,32.1a3,3,0,0,1,.55-.39l.16.13c-.15.24-.29.48-.45.71,0,0-.23,0-.25-.08S26.83,32.16,26.89,32.1Zm2.19,5.62a2.38,2.38,0,0,1-1.94,0Zm-.22-1.08a1.53,1.53,0,0,1,.29-.28s.13.08.27.16a1.79,1.79,0,0,1-.34.25S28.94,36.69,28.86,36.64Zm.79-5.45a1.32,1.32,0,0,1-.47-.4.43.43,0,0,1,.52-.66c.29.14.58.32.61.63S30,31.38,29.65,31.19Zm-.12-5.26a1.53,1.53,0,0,1-.13,1.62A1.25,1.25,0,0,1,29.53,25.93Zm.74-6a1.84,1.84,0,0,1,.44-.44.55.55,0,0,1,.46-.06c.13.05.2.23.29.35a6.18,6.18,0,0,1-.29.78.52.52,0,0,1-.77.19A.56.56,0,0,1,30.27,20Zm0,1.58c.14,0,.27.15.41.23a3.82,3.82,0,0,1-.47.35s-.17-.13-.36-.28C30,21.7,30.15,21.55,30.25,21.55Zm-1.57-5.47a.46.46,0,0,1,.29-.27c.28,0,.82.35.75.55s-.24.19-.37.28C28.92,16.57,28.64,16.37,28.68,16.08Zm.68,3.11c-.17.11-.31.24-.35.22a.68.68,0,0,1-.26-.32c0-.07.13-.18.2-.26Zm-.55,1.57a4.26,4.26,0,0,1,.46,1.18,3.78,3.78,0,0,1-.26,2,.51.51,0,0,1-.56.39H27c-.31,0-.36-.11-.22-.39q.8-1.53,1.56-3.06C28.45,20.54,28.68,20.55,28.81,20.76Zm-1.24-2.51.22,0a4.47,4.47,0,0,1,0,.73c0,.08-.17.15-.26.22-.08-.09-.23-.2-.21-.28A5.64,5.64,0,0,1,27.57,18.25Zm-1-1.48c.09,0,.13.17.23.31-.26.48-.51,1-.78,1.44a.24.24,0,0,1-.23.06.26.26,0,0,1-.11-.22c.19-.51.4-1,.62-1.5A.29.29,0,0,1,26.58,16.77Zm-1.07-1.48a1.22,1.22,0,0,1,1,.09v.15c-.32.08-.63.17-1,.22-.06,0-.2-.12-.2-.18S25.44,15.31,25.51,15.29Zm.18,5a2,2,0,0,1,1.78-.35.36.36,0,0,1,.27.52,4.65,4.65,0,0,1-.47,1.12c-.11.18-.41.26-.65.34s-.76.22-1.14.33c-.12,0-.29.14-.34.09a.85.85,0,0,1-.2-.34A2.92,2.92,0,0,1,25.69,20.28Zm-.88-6.18c.22.29.14.46-.07.57,0,0-.15-.07-.15-.08C24.66,14.43,24.74,14.27,24.81,14.1Zm-.68,1.34c.1,0,.27,0,.32,0a.49.49,0,0,1,0,.36,1.83,1.83,0,0,1-1.39.67C23.35,16,23.59,15.6,24.13,15.44ZM23.29,19l.26-.07c.28,0,.57-.11.67.26a.6.6,0,0,1-.44.73l-.29.06c-.33,0-.59-.14-.64-.48S23,19,23.29,19Zm-.6,1.42a4.17,4.17,0,0,0,.77.28c.23.07.33.26.19.41-.43.5-.63,1.21-1.32,1.45-.44.16-.89.26-1.26.36a3.21,3.21,0,0,1-.4-.06c-.21-.06-.29-.18-.12-.37s.28-.31.41-.47c.36-.47.73-.94,1.08-1.42C22.22,20.31,22.4,20.23,22.69,20.39Zm-2.47,1.38a1.16,1.16,0,0,1,1.1-1.66A3.3,3.3,0,0,1,20.22,21.77Zm.19-2.39c-.21.17-.36.46-.71.39l-.07-.15.72-.38ZM20,18.18c-.56.49-1,1-1.54,1.36-1,.75-2,1.46-3,2.2-.22.16-.38.39-.59.56C15.13,21,18.76,18,20,18.18Zm-5.42,5.24c.5-.45,1-.88,1.54-1.28s1.19-.85,1.8-1.25a1.14,1.14,0,0,1,.43-.07,1.61,1.61,0,0,1,0,.49.6.6,0,0,1-.21.31,4.44,4.44,0,0,0-1.26,1.91.91.91,0,0,1-.74.62c-.36.07-.71.18-1.05.27a.62.62,0,0,1-.21,0c-.2-.13-.47-.23-.55-.41S14.43,23.55,14.57,23.42ZM6.81,41.57a3,3,0,0,1-.07-.86.88.88,0,0,1,.61-.83A.84.84,0,0,0,7.9,39a12.66,12.66,0,0,1,.61-4.32,31.56,31.56,0,0,1,1.75-5.32,22.62,22.62,0,0,1,1.57-2.9c.47-.8,1-1.57,1.49-2.35a1.52,1.52,0,0,1,.3-.26c.06.1.11.22.18.32a2,2,0,0,0,.31.43c.3.25.31.36,0,.64A24.61,24.61,0,0,0,12.36,27a3.84,3.84,0,0,0-.66,1.27c-.21.64.19,1.08.86,1,.09,0,.18,0,.37,0a14.52,14.52,0,0,1-.63,1.46c-.49.83-.92,1.68-1.46,2.49a2.6,2.6,0,0,0-.14,2.87.54.54,0,0,1-.13.81L8.89,38.38a2.63,2.63,0,0,0-1,2.76,2.7,2.7,0,0,0,.57.85,2.17,2.17,0,0,0,.36.29C7.8,42.91,7.24,42.73,6.81,41.57Zm3.14-.4a3.74,3.74,0,0,1-.64.26c-.4,0-.68-.14-.62-.48A3,3,0,0,1,9.06,40c.11-.2.29-.11.4,0a8,8,0,0,1,.54.76C10,40.91,10,41.14,10,41.17Zm1.31.69c-.22.09-.44.16-.66.23l-.09-.19c.2-.12.39-.25.6-.35s.18.06.27.09S11.32,41.83,11.26,41.86ZM11.54,39a2.42,2.42,0,0,0-.69,1.2c-.06.33-.26.38-.55.22a.84.84,0,0,1-.53-.88c0-.67.23-.94.91-1a2.89,2.89,0,0,1,.66-.05.49.49,0,0,1,.33.21C11.71,38.76,11.62,38.93,11.54,39Zm.51,1.5c.63-.59.82-1.5,1.65-1.87a1.76,1.76,0,0,1,.4-.06c0,.14,0,.33-.07.42-.4.49-.82,1-1.25,1.44A.55.55,0,0,1,12.05,40.52Zm5.13-2.19c-.23.19-.42.37-.09.66.05,0,0,.31-.07.35a13.41,13.41,0,0,1-1.53.84,7.22,7.22,0,0,1-1.21.33,1.29,1.29,0,0,1-.33,0,1.08,1.08,0,0,1,.09-.32c.34-.54.7-1.07,1.07-1.59a.76.76,0,0,1,.37-.32c.59-.13,1.19-.22,1.78-.32a1,1,0,0,1,.22.08ZM18,35.12c-.08,0-.18-.12-.27-.19.1-.1.18-.26.3-.29s.21.11.44.24C18.25,35,18.13,35.11,18,35.12Zm2.17,2.68a4.17,4.17,0,0,1-.49.62l-.1-.06c0-.24,0-.49,0-.73a1.82,1.82,0,0,1,.11-.38c.13,0,.31,0,.37.13A.5.5,0,0,1,20.18,37.8Zm0-3.62a1.83,1.83,0,0,1-1.6,0c-.28-.1-.31-.31-.09-.52a2.87,2.87,0,0,1,.55-.44c.82-.46,1.65-.9,2.49-1.33a.52.52,0,0,1,.44,0c.44.29.85.61,1.32,1a1.07,1.07,0,0,1-.32.18A9.58,9.58,0,0,0,20.21,34.18Zm1.08,1.58a.33.33,0,0,1-.3,0,.43.43,0,0,1,0-.35.51.51,0,0,1,.31-.22c.53-.12,1.06-.23,1.6-.32.08,0,.18.06.37.14a2,2,0,0,1-.38.26C22.35,35.41,21.82,35.59,21.29,35.76Zm.74.81a5.54,5.54,0,0,1-.36.59l-.36-.37c.18-.15.36-.3.55-.43C21.86,36.36,22.05,36.53,22,36.57Zm-.62,2.35L20.7,39l-.08-.15c.25-.27.48-.56.75-.81s.38-.13.5.12C22.21,38.83,22.19,38.86,21.41,38.92ZM23,38.41a3,3,0,0,1-.43-.37c.1-.09.23-.27.29-.25a2,2,0,0,1,.48.36C23.16,38.29,23,38.43,23,38.41ZM31.1,43a5,5,0,0,1-.5.54,5.76,5.76,0,0,1-5.13,1.64,2.39,2.39,0,0,1-1.86-1.42c-.26-.47.07-.88.68-.93s1.41-.1,2.11-.15l2.23-.13v.08H30.9C31.18,42.58,31.22,42.77,31.1,43Zm-.64-9.84a2.07,2.07,0,0,1,.09-.66c0-.1.26-.12.41-.18a.89.89,0,0,1,0,.36,4.59,4.59,0,0,1-.32.57Zm.57-3c-.12,0-.28-.2-.43-.31.13-.08.26-.24.39-.25.41,0,.81,0,1.22.05v.2A10.43,10.43,0,0,1,31,30.1ZM30,28.78a2,2,0,0,1,.44-.35,6.89,6.89,0,0,1,1-.33c.67-.16.88-.05,1.34.68ZM32,26.92a2.51,2.51,0,0,1-.71-1.52,1.78,1.78,0,0,1,2.43-1.59.56.56,0,0,1,.25,1,3.57,3.57,0,0,0-1,1.93C32.91,27.09,32.37,27.18,32,26.92ZM34.73,32c-.36.18-.74.32-1.11.47l0-.08a1.46,1.46,0,0,1-.3-.07c-.22-.08-.27-.23-.07-.37a2,2,0,0,1,1.36-.39c.09,0,.23.08.24.14S34.8,32,34.73,32ZM35,28.77c0,.05-.14.07-.31.16-.25-.17-.52-.35-.78-.55a.26.26,0,0,1,0-.27.24.24,0,0,1,.26-.05,4.42,4.42,0,0,1,.76.44A.31.31,0,0,1,35,28.77Zm.8-1.55c0,.07-.29,0-.53.05l.22.5-.85-.37c-.23-.09-.45-.19-.69-.26a.43.43,0,0,1-.34-.53,1.87,1.87,0,0,1,.87-1.29.42.42,0,0,1,.42,0,9.42,9.42,0,0,1,1,1.3A.7.7,0,0,1,35.81,27.22Zm-.34-8.28a.31.31,0,0,1,.05-.24.26.26,0,0,1,.24,0c.21.14.4.31.66.52C35.82,19.42,35.52,19.3,35.47,18.94Zm1.25,12a2.53,2.53,0,0,1-.21-.24,3.52,3.52,0,0,1,.31-.35c0,.06.16.14.15.17A3,3,0,0,1,36.72,30.9Zm.67-7.37a1.82,1.82,0,0,1-.42-.35,1.42,1.42,0,0,1-.14-.48,1.48,1.48,0,0,1,.53-.11c.1,0,.16.24.25.38Zm1,11.09c-.21.24-.44.46-.72.74-.19-.61,0-1,.48-1.06a.32.32,0,0,1,.24.08A.26.26,0,0,1,38.4,34.62Zm1.37-3.57c-.16.27-.35.52-.51.78a4,4,0,0,0-.15.39l-.63-.45a2.62,2.62,0,0,1,.24-.34,8,8,0,0,1,.76-.66c.09-.08.24-.07.37-.1A1.51,1.51,0,0,1,39.77,31.05Zm.13-5.15c0-.55.05-1.1.1-1.65a.45.45,0,0,1,.18-.31.33.33,0,0,1,.29.12,18.38,18.38,0,0,1,1.16,1.62c.21.33,0,.46-.56.41-.27,0-.54.07-.81.12S39.89,26.14,39.9,25.9Zm.67,3.39a2.05,2.05,0,0,1-.24-.36c0-.07.06-.18.09-.28l.13,0a1.17,1.17,0,0,1,.2.36C40.76,29.08,40.64,29.19,40.57,29.29Zm.59,3.35-.41-.3c.14-.06.28-.18.41-.17s.23.13.35.21Zm1-4.9a.66.66,0,0,1-.79.32,6.22,6.22,0,0,1-.71-.29c-.07-.05-.16-.24-.12-.29a.88.88,0,0,1,.84-.47,1.79,1.79,0,0,1,.4.1C42,27.23,42.22,27.41,42.11,27.74Zm.09,4.8c.06-.07.14-.19.18-.18a1.58,1.58,0,0,1,.45.23c-.19.09-.3.19-.37.17S42.29,32.62,42.2,32.54ZM44,42.86a2.13,2.13,0,0,1-1.34-.33c-.34-.21-.2-.49-.19-.76s.16-.36.39-.42c.7-.16,1.41-.3,2.1-.5s1.13-.4,1.69-.63c.28-.11.42-.1.48.25a1.45,1.45,0,0,1-.31,1.28A3.31,3.31,0,0,1,44,42.86ZM17.39,59a9.81,9.81,0,0,1,.73-.71s.07,0,.14,0,.15.11.22.18c.68.69,1.36,1.38,2,2.08.09.09.09.27.14.4a1.7,1.7,0,0,1-.45-.08c-.62-.27-1.22-.58-1.84-.84-.37-.16-.75-.26-.92-.67C17.39,59.25,17.34,59.08,17.39,59ZM12,62.2c1-.43,2-.87,3-1.26.18-.07.46.11.7.17.64.18,1.28.34,1.93.53a15,15,0,0,0,1.45.43,21.17,21.17,0,0,0,2.1.28.66.66,0,0,0,.43-.13c.27-.23.48-.15.74,0,1,.65,1.94,1.34,3,1.89a13.41,13.41,0,0,0,6.46,1.53,5.86,5.86,0,0,1,.59,0,6.25,6.25,0,0,0,3.69-1c.62-.39,1.29-.7,1.94-1a.36.36,0,0,1,.3,0,4.07,4.07,0,0,0,2.16.16c.79,0,1.59-.11,2.38-.19a10.66,10.66,0,0,0,1.28-.19,1.57,1.57,0,0,0,.58-.39c.61-.57.63-.57,1.3-.07a15.64,15.64,0,0,1,2.88,2.75,2.31,2.31,0,0,1,.25.36c.32.54.25.65-.42.78l-.57-.3a.67.67,0,0,0-.21-.1,6.33,6.33,0,0,0-2-.14,12,12,0,0,1-1.48.15c-.78.09-1.56.2-2.34.28-1.1.12-2.2.27-3.31.29-1.63,0-3.27,0-4.9,0-1.16,0-2.31,0-3.46,0h-.32c-1.1-.14-2.21-.24-3.3-.45S24.94,66,24,65.72c-1.36-.34-2.73-.6-4.08-1a33.73,33.73,0,0,1-5-1.45,7.69,7.69,0,0,0-1.38-.3l-1.45-.35c-.08,0-.21-.13-.21-.18A.38.38,0,0,1,12,62.2Zm29.32,38.93c0,1.17-.05,2.35-.1,3.52,0,.51-.11.53-.59.59-1.2.14-2.4.33-3.61.47-.63.08-1.27.08-1.91.13-.39,0-.78.09-1.17.14a.76.76,0,0,1-.15,0c-.75-.14-1.49-.31-2.24-.42a9.52,9.52,0,0,0-1.31,0c-.28,0-.55,0-.82,0-.8,0-1.61-.09-2.41-.17s-1.71-.19-2.56-.3-1.7-.28-2.56-.38-1.87-.18-2.81-.25a5.94,5.94,0,0,1-1.7-.11,23,23,0,0,0-3.93-.79A12.2,12.2,0,0,1,9,102a.5.5,0,0,0-.17-.1c-.74-.14-.92-.69-1-1.32-.06-.32-.16-.63-.23-.95s0-.45.39-.37c1.46.33,2.91.65,4.37,1,.75.16,1.51.28,2.28.39,1.25.19,2.5.37,3.76.52,1.51.18,3,.35,4.53.49.95.08,1.91.1,2.86.13,1.54.06,3.08.12,4.62.14.76,0,1.52-.09,2.27-.13,1.06-.06,2.13,0,3.18-.16,1.28-.16,2.55-.44,3.82-.68a6.3,6.3,0,0,0,1-.3C41.26,100.41,41.41,100.5,41.35,101.13Zm.9-6c0,.55-.09,1.09-.17,1.64a13.55,13.55,0,0,1-.29,1.38c0,.11-.18.22-.29.29a3,3,0,0,0-.58.22,2.23,2.23,0,0,1-1.49.52c-.92,0-1.83-.08-2.75-.08-.72,0-1.43.1-2.15.13s-1.29,0-1.93,0c-1.4,0-2.8.06-4.2,0-.83,0-1.67-.14-2.51-.12S24,98.93,23,98.93c-.59,0-1.18,0-1.77-.08a5.36,5.36,0,0,1-.7-.1c-.16,0-.33-.09-.49-.11l-3.43-.34a4.85,4.85,0,0,1-1.7-.4,10.55,10.55,0,0,0-1.9-.46.91.91,0,0,1-.23,0c-1.18-.63-2.51-.44-3.75-.73-.29-.07-.59-.12-.88-.2a1.18,1.18,0,0,0-1,.21c-.32.25-.54.15-.65-.26-.19-.72-.37-1.44-.58-2.16s-.42-1.21-.61-1.82a2.85,2.85,0,0,1-.07-.53c.59.19,1.09.36,1.6.51l3.43,1c.65.18,1.28.39,1.92.57a32.48,32.48,0,0,0,4.69,1c.91.12,1.8.34,2.72.42a37.31,37.31,0,0,0,6.77.2c1.6-.15,3.22,0,4.82,0,1.16,0,2.31,0,3.46-.07,1,0,2-.1,2.94-.15a13.32,13.32,0,0,0,3.14-.41,10.45,10.45,0,0,1,1.12-.18C42.15,94.68,42.27,94.85,42.25,95.12Zm2-6.53c-.32.82-.65,1.63-1,2.44a4.52,4.52,0,0,0-.29.64,1.4,1.4,0,0,1-1.33,1.14c-1.34.23-2.68.48-4,.63a25.51,25.51,0,0,1-2.63.07c-1.74,0-3.48.11-5.22.06a61.15,61.15,0,0,1-6.35-.4c-2.43-.32-4.84-.87-7.25-1.32-1-.18-1.94-.32-2.89-.54-1.49-.35-3-.76-4.45-1.14l-2.93-.74c-.28-.07-.55-.19-.83-.24-.62-.11-.84-.53-1-1.09-.19-.82-.44-1.63-.64-2.46S3.17,84.26,3,83.56a2.55,2.55,0,0,1,0-.55,9.32,9.32,0,0,1,1.14.67,4.17,4.17,0,0,0,1.85.82,34.32,34.32,0,0,1,4.1,1.19c1.31.41,2.65.71,4,1,1,.23,2,.4,3,.54,1.17.16,2.34.25,3.51.38.22,0,.44.07.66.11l1.77.3c.32.06.64.13,1,.16.49,0,1,.07,1.48.1l3.87.27c.72.06,1.43.15,2.15.18,1.3,0,2.59,0,3.89.07,1.9,0,3.8.08,5.69,0a8.7,8.7,0,0,0,1.8-.36c.29-.07.57-.19.87-.27a.46.46,0,0,1,.35,0A.39.39,0,0,1,44.24,88.59Zm2.17-6.42c-.33,1.19-.68,2.38-1,3.58a.59.59,0,0,1-.68.49,3.71,3.71,0,0,0-.47,0v-.08c-1.27.1-2.54.21-3.82.3s-2.55.17-3.83.23c-.56,0-1.12-.07-1.69,0-.74,0-1.48.12-2.23.13-.95,0-1.91,0-2.86-.08-1.3-.09-2.61-.21-3.91-.37-1.07-.14-2.13-.38-3.2-.56s-2.07-.35-3.1-.55c-1.52-.29-3.05-.59-4.57-.93s-3-.72-4.49-1.11c-1.24-.33-2.48-.66-3.7-1.06s-2.7-1-4-1.52a.77.77,0,0,1-.43-.49C2.15,79,2,77.77,1.77,76.58a1.42,1.42,0,0,1,.1-.48,3,3,0,0,1,.5.12c1.18.47,2.34,1,3.53,1.42a40.94,40.94,0,0,0,6.34,1.62c1.34.28,2.72.39,4.07.64s2.81.6,4.22.86c1.59.29,3.19.55,4.79.81l3,.46c.71.11,1.42.26,2.12.39,0,0,.09,0,.12,0a6.54,6.54,0,0,1,2.57.08c.88.07,1.75.2,2.62.19,1.62,0,3.24-.1,4.86-.17.85,0,1.69-.14,2.54-.18a7.74,7.74,0,0,0,2.66-.45.83.83,0,0,1,.27-.07C46.39,81.76,46.5,81.85,46.41,82.17Zm2-6.81c-.41,1.37-.85,2.73-1.27,4.09a1.67,1.67,0,0,0-.08.3c0,.28-.19.37-.49.36-.52,0-1,.07-1.55.09-1.15,0-2.31.06-3.46.09-.73,0-1.46.06-2.2.06-.57,0-1.15,0-1.72-.08l-2-.11c-1.1-.06-2.19-.1-3.29-.19s-2-.25-3-.39c-.78-.11-1.55-.24-2.33-.36s-1.65-.27-2.48-.38c-1.31-.18-2.62-.34-3.93-.51-.35,0-.69-.12-1-.18-.86-.16-1.74-.27-2.59-.47-1.59-.38-3.17-.77-4.74-1.22-1.85-.52-3.7-1.08-5.52-1.7-1.53-.52-3-1.15-4.53-1.76a.67.67,0,0,1-.31-.45c-.07-.62-.09-1.25-.14-2a3.16,3.16,0,0,1,.12-.46.41.41,0,0,1,.54-.31l3.45.94a.81.81,0,0,1,.4.24,1.8,1.8,0,0,0,1.21.57c.93.16,1.86.38,2.8.57.06,0,.15,0,.18.07.4.57,1,.54,1.6.54a39.19,39.19,0,0,1,6,.86c1.19.17,2.35.5,3.54.7.71.12,1.43.12,2.15.19s1.66.15,2.49.25A14,14,0,0,1,28,75a13,13,0,0,0,3.35.2c1.65,0,3.3,0,5-.08l6.95-.2c.73,0,1.47,0,2.2,0s1.62-.09,2.42-.16C48.44,74.66,48.57,74.77,48.4,75.36Zm1.07-4c0,.64-.25.87-.89.94-1.44.14-2.88.26-4.33.38-2,.18-4.1.42-6.16.52-1.79.09-3.59,0-5.39,0-1.08,0-2.17,0-3.25-.12-1.43-.11-2.87-.26-4.3-.4s-3-.25-4.57-.47a16.77,16.77,0,0,1-3.81-.9c-.57-.23-1.18-.35-1.76-.53-1-.32-2-.69-3.07-1C9.67,69.16,7.38,68.58,5.1,68c-.53-.13-1.08-.18-1.63-.28-.39-.07-.53-.34-.26-.63a4.84,4.84,0,0,1,1.13-.88c1.28-.71,2.57-1.4,3.88-2.06a1.36,1.36,0,0,1,.89,0c1.06.35,2.1.76,3.14,1.14l.11,0c1.73.53,3.45,1.09,5.2,1.56,1,.25,2,.35,2.93.54.81.16,1.62.32,2.41.55a40.5,40.5,0,0,0,7.15,1.38c1.82.18,3.65.2,5.48.26.54,0,1.07-.12,1.6-.16L42,69c.3,0,.59-.13.89-.17.64-.1,1.29-.16,1.93-.26s1.42-.25,2.12-.39c.52-.1,1-.22,1.55-.36a2.91,2.91,0,0,0,.6-.27l.29-.15a.92.92,0,0,1,.16.33c.06.49.09,1,.13,1.35C49.58,69.94,49.53,70.63,49.47,71.32Z"/><path class="cls-1" d="M29.24,56.3a1.06,1.06,0,0,0-.3.65,3.18,3.18,0,0,0,.2,1,3,3,0,0,0,1.21,1.64c.25.16.41.45.64.65a.66.66,0,0,0,.44.16,7.22,7.22,0,0,0,.89-.22l0,.11a7.55,7.55,0,0,0,1-.16c.66-.19,1.32-.4,2-.63a4.78,4.78,0,0,0,.9-.46.35.35,0,0,0,.14-.32.44.44,0,0,0-.28-.27,2.75,2.75,0,0,0-1.58,0,2.23,2.23,0,0,1-2.15-.22c-.87-.55-1.67-1.21-2.51-1.81C29.64,56.36,29.31,56.23,29.24,56.3Z"/><path class="cls-1" d="M35.18,53.56c-.2-.11-.44-.3-.63,0s.05.49.24.67a1.22,1.22,0,0,0,.28.14,2.25,2.25,0,0,0,2.68-1,3.41,3.41,0,0,0,.55-2.58c-.1-.87-.17-1.74-.24-2.51,0-.34,0-.58,0-.81s0-.52-.27-.52a.81.81,0,0,0-.56.29.75.75,0,0,0-.1.56c.12,1.05.24,2.1.42,3.14a2.62,2.62,0,0,1-.27,1.68C36.89,53.47,36.09,54.06,35.18,53.56Z"/><path class="cls-1" d="M21.26,53.37c-.31.08-.58.13-.78-.2,0-.06-.19-.05-.29-.07a.68.68,0,0,0,0,.28c.06.22.12.44.2.65s.14.35.25.39a.67.67,0,0,0,.48-.13,2.92,2.92,0,0,0,.46-.47,2,2,0,0,0,.19-.34C21.54,53.43,21.39,53.34,21.26,53.37Z"/><path class="cls-1" d="M43.26,52.85a6.66,6.66,0,0,0,.65-.43.41.41,0,0,0,0-.66.49.49,0,0,0-.73-.06,1.21,1.21,0,0,0-.3.41.64.64,0,0,0-.06.46C42.87,52.69,43.07,52.74,43.26,52.85Z"/><path class="cls-1" d="M16.32,51.9a2.24,2.24,0,0,0,.19.83.5.5,0,0,0,.7.18.61.61,0,0,0,.25-.36c0-.3-.52-.83-.91-.82C16.5,51.77,16.31,51.85,16.32,51.9Z"/><path class="cls-1" d="M34.74,61.05a4,4,0,0,0-.66.63c-.06.09,0,.36.13.48.26.29.52,0,.77-.08s.44-.28.32-.53S35,61.26,34.74,61.05Z"/><path class="cls-1" d="M19.53,55.46c-.08,0-.12.22-.17.33a6.13,6.13,0,0,0,.22.87.46.46,0,0,0,.4.22c.13,0,.34-.26.32-.36a3.67,3.67,0,0,0-.37-1A.42.42,0,0,0,19.53,55.46Z"/><path class="cls-1" d="M35.12,57.39c.3,0,.4-.2.44-.43a.62.62,0,0,0-.65-.58c-.25,0-.47.1-.49.4S34.78,57.39,35.12,57.39Z"/><path class="cls-1" d="M26.1,56.28c-.23-.05-.45,0-.51.27s.49.81.76.77.33-.19.43-.25A.81.81,0,0,0,26.1,56.28Z"/><path class="cls-1" d="M30.13,62.39c-.06.07-.21.18-.24.32s.46.78.74.74a.55.55,0,0,0,.35-.32C31.05,62.85,30.59,62.42,30.13,62.39Z"/><path class="cls-1" d="M22.07,58.33c.32,0,.45-.2.46-.51s-.12-.52-.45-.48-.55.08-.56.31S21.81,58.33,22.07,58.33Z"/><path class="cls-1" d="M25.56,54.32c0-.27-.29-.54-.61-.53a.43.43,0,0,0-.44.49c0,.32.17.46.53.47S25.52,54.65,25.56,54.32Z"/><path class="cls-1" d="M38.14,58c0,.16.23.31.33.43.36-.1.64-.15.64-.5a.42.42,0,0,0-.47-.42C38.35,57.53,38.11,57.7,38.14,58Z"/><path class="cls-1" d="M27,62.3c.07,0,.29-.16.37-.21,0-.34-.23-.66-.47-.63s-.28.2-.42.31A3.27,3.27,0,0,0,27,62.3Z"/><path class="cls-1" d="M24.35,59.13a.5.5,0,0,0-.53-.45c-.24,0-.35.15-.34.38s.15.5.49.49S24.35,59.41,24.35,59.13Z"/><path class="cls-1" d="M32,56.5a1.15,1.15,0,0,0,.36-.28c-.06-.4-.24-.57-.52-.53a.45.45,0,0,0-.31.3C31.49,56.24,31.81,56.57,32,56.5Z"/><path class="cls-1" d="M42.45,54.21c.13.15.23.34.39.41s.26-.14.52-.29c-.25-.21-.38-.39-.54-.42S42.57,54.1,42.45,54.21Z"/><path class="cls-1" d="M28.34,58.66a.39.39,0,0,0,.42.45c.11,0,.33-.24.31-.28a3.53,3.53,0,0,0-.43-.62C28.48,58.44,28.35,58.54,28.34,58.66Z"/><path class="cls-1" d="M17.61,51.2a1.65,1.65,0,0,0-.45-.46c-.05,0-.23.13-.35.2l.45.63A3.51,3.51,0,0,0,17.61,51.2Z"/><path class="cls-1" d="M15,51.5c-.14-.23-.3-.45-.5-.75a2.48,2.48,0,0,0-.25.34c.18.21.37.4.56.59C14.85,51.62,15,51.52,15,51.5Z"/><path class="cls-1" d="M41.59,56.08a2.55,2.55,0,0,0-.38-.52c-.14.18-.28.32-.26.36a2.94,2.94,0,0,0,.35.44C41.41,56.27,41.61,56.13,41.59,56.08Z"/><path class="cls-1" d="M40.65,58.71c0-.07,0-.17-.12-.37-.11.19-.2.28-.21.37s.07.16.12.24C40.51,58.87,40.62,58.8,40.65,58.71Z"/><path class="cls-1" d="M66.33,0a5.09,5.09,0,0,1,5.12,5.12,5,5,0,0,1-1.19,3.29,2.34,2.34,0,0,1,1.19,1.71v.11l-5.12,1.14-5.11-1.14v-.11a2.21,2.21,0,0,1,1.19-1.71,5,5,0,0,1-1.19-3.29A5.09,5.09,0,0,1,66.33,0Zm0,6.25c-.79,0-1.42.4-1.42.86s.63.85,1.42.85,1.42-.4,1.42-.85S67.13,6.25,66.33,6.25Zm-1.7-2.84c-.63,0-1.14.4-1.14.85a1,1,0,0,0,1.14.86c.62,0,1.14-.4,1.14-.86S65.25,3.41,64.63,3.41Zm3.41,0c-.63,0-1.14.4-1.14.85A1,1,0,0,0,68,5.12c.62,0,1.14-.4,1.14-.86S68.66,3.41,68,3.41Z"/></g></g></svg>