<svg xmlns="http://www.w3.org/2000/svg" viewBox="0 0 88.93 109.17"><defs><style>.cls-1{fill:#fff;}</style></defs><g id="Layer_2" data-name="Layer 2"><g id="Layer_1-2" data-name="Layer 1"><path class="cls-1" d="M40.76,46.33a46.56,46.56,0,0,1,12.93,2.21,33.85,33.85,0,0,1,3.66,1.3c2.19,1,4.37,2,6.5,3.11a58.61,58.61,0,0,1,7.5,4.76,70.23,70.23,0,0,1,9.53,8.2,2.39,2.39,0,0,1,.55.8A1.58,1.58,0,0,1,81,68.46c-1.21,1.17-2.41,2.37-3.66,3.51a74.12,74.12,0,0,1-8.06,6.28,66.92,66.92,0,0,1-8.82,5,49.51,49.51,0,0,1-13.6,4.28A33.47,33.47,0,0,1,43,88a41.91,41.91,0,0,1-5.6-.1,47.5,47.5,0,0,1-10.68-2.34c-.89-.3-1.76-.65-2.63-1a61.59,61.59,0,0,1-9.3-4.73A72.78,72.78,0,0,1,7.81,75a72.82,72.82,0,0,1-6.9-6.13C-.26,67.7-.35,66.8.92,65.63c1.72-1.57,3.41-3.17,5.15-4.71a63.08,63.08,0,0,1,6.45-4.84,59.77,59.77,0,0,1,9.24-5.17c1.45-.65,2.89-1.3,4.38-1.82a44.59,44.59,0,0,1,9.46-2.3C37.31,46.59,39,46.48,40.76,46.33ZM58.29,67.26A17.53,17.53,0,1,0,40.86,84.74,17.51,17.51,0,0,0,58.29,67.26Zm19.37,0a70.86,70.86,0,0,0-9.86-8.1,55.68,55.68,0,0,0-11.16-6,21.39,21.39,0,0,1,0,28.29A67.35,67.35,0,0,0,77.66,67.25ZM24.87,81.35a21.23,21.23,0,0,1-5.32-14.12,20.92,20.92,0,0,1,5.39-14.1c-.7,0-4.33,1.8-7.32,3.54A70.94,70.94,0,0,0,3.85,67.24,67,67,0,0,0,24.87,81.35Z"/><path class="cls-1" d="M64.44,92.52a9.84,9.84,0,0,1,5.61,1.68A7.84,7.84,0,0,1,73.63,99a6.43,6.43,0,0,1-.55,4.33,10.74,10.74,0,0,1-4.32,4.68,6.9,6.9,0,0,1-5,1,9.33,9.33,0,0,1-6.62-4.3,5.17,5.17,0,0,1-.47-4.06A12.39,12.39,0,0,1,60.87,94,6.11,6.11,0,0,1,64.44,92.52Z"/><path class="cls-1" d="M16.39,109.16c-3.34-.24-6.14-1.49-8-4.46a4.89,4.89,0,0,1-.52-3.8,12.32,12.32,0,0,1,4.36-7,6.16,6.16,0,0,1,5.38-1.29,14.07,14.07,0,0,1,2.84,1,8.27,8.27,0,0,1,3.77,3.58,6.15,6.15,0,0,1,.42,5.35,10.29,10.29,0,0,1-5.61,5.91A5.89,5.89,0,0,1,16.39,109.16Z"/><path class="cls-1" d="M40.5,92.46a10,10,0,0,1,7.8,4.33,6.32,6.32,0,0,1,.43,6.57,11.15,11.15,0,0,1-3.46,4.16A9.52,9.52,0,0,1,42.08,109a6.4,6.4,0,0,1-3.42-.1,9.26,9.26,0,0,1-5.48-3.53,5.14,5.14,0,0,1-1-4.21,13.12,13.12,0,0,1,3-5.9,8.21,8.21,0,0,1,3.61-2.49A9.68,9.68,0,0,1,40.5,92.46Z"/><path class="cls-1" d="M22.48,32.32a9.13,9.13,0,0,1-1.6,4.77,12.2,12.2,0,0,1-5.27,4.66,8.41,8.41,0,0,1-5.9.49,11.17,11.17,0,0,1-6.23-4,6.11,6.11,0,0,1-1.11-5.63,15.65,15.65,0,0,1,4.07-7,9.18,9.18,0,0,1,3.62-2.21,6.88,6.88,0,0,1,3.13-.15,11.05,11.05,0,0,1,4,1.36A9.83,9.83,0,0,1,22,30,18.17,18.17,0,0,1,22.48,32.32ZM12.23,39.66a8.54,8.54,0,0,0,6.12-2.54,5.72,5.72,0,0,0-.05-8.56A7.55,7.55,0,0,0,6.08,31.15a5.7,5.7,0,0,0,1.38,6.71A6.93,6.93,0,0,0,12.23,39.66Z"/><path class="cls-1" d="M40.68,23.08a25.62,25.62,0,0,1,3.33.77,10.7,10.7,0,0,1,6.26,5.54,7.24,7.24,0,0,1-.14,6.34A12.09,12.09,0,0,1,43.6,42a8.31,8.31,0,0,1-5.73.18,11.52,11.52,0,0,1-5.43-3.31,6.88,6.88,0,0,1-1.84-4.08,6.78,6.78,0,0,1,.53-2.93,18.65,18.65,0,0,1,1.38-3.09,12.93,12.93,0,0,1,4.86-4.85,7.26,7.26,0,0,1,3.29-.7ZM48,33.7a7.52,7.52,0,0,0-5.88-7.44,7.34,7.34,0,0,0-8.92,8.68,3.12,3.12,0,0,0,2.94,2.8.81.81,0,0,1,.46.25,7.14,7.14,0,0,0,8.17,1.06A5.78,5.78,0,0,0,48,33.7Z"/><path class="cls-1" d="M79.5,32.34a9.75,9.75,0,0,1-1.75,5,12.26,12.26,0,0,1-5.43,4.54,8.58,8.58,0,0,1-5.76.32A11.45,11.45,0,0,1,63,40.6a8.17,8.17,0,0,1-3.77-5.15,4.48,4.48,0,0,1-.05-1.59,12.41,12.41,0,0,1,1.41-4.28,28.88,28.88,0,0,1,2.22-3.19,9,9,0,0,1,3.47-2.63,7.45,7.45,0,0,1,4.93-.29A11.8,11.8,0,0,1,75,25.14a9.37,9.37,0,0,1,4.09,5.22A18.67,18.67,0,0,1,79.5,32.34Zm-11.56,8A14.5,14.5,0,0,0,70.11,40a11.22,11.22,0,0,0,6.33-5.43,5.13,5.13,0,0,0,.57-4,5.6,5.6,0,0,0-4.6-4.07,8.8,8.8,0,0,0-7.87,2.25,7.72,7.72,0,0,0-2.75,7,5.12,5.12,0,0,0,1.86,3.49A6.56,6.56,0,0,0,67.94,40.39Z"/><path class="cls-1" d="M30.51,61.47a5.09,5.09,0,0,0,4.88,6.23,5,5,0,0,0,5-5.08,4.88,4.88,0,0,0-2.27-4.1,5.11,5.11,0,0,0-4.71-.46,11.74,11.74,0,1,1-2.94,3.41Z"/><path class="cls-1" d="M83,6.93a1,1,0,1,0-1-1A1,1,0,0,0,83,6.93Zm0-1.39a.35.35,0,0,1,.35.35.35.35,0,0,1-.69,0A.35.35,0,0,1,83,5.54Z"/><path class="cls-1" d="M78.94,7.56a6.49,6.49,0,0,0,8.15,0,10.09,10.09,0,0,0,1.64-1.45l.2-.22-.2-.23a10.32,10.32,0,0,0-1.64-1.44,6.45,6.45,0,0,0-8.15,0A10.32,10.32,0,0,0,77.3,5.66l-.2.23.2.22A10.09,10.09,0,0,0,78.94,7.56Zm7.73-2.79A9.42,9.42,0,0,1,88,5.89,10.27,10.27,0,0,1,86.67,7a6.82,6.82,0,0,1-1.09.65,3.11,3.11,0,0,0,0-3.53A8.71,8.71,0,0,1,86.67,4.77ZM83,3.46a2.43,2.43,0,1,1-2.42,2.43A2.43,2.43,0,0,1,83,3.46Zm-2.56.66a3.11,3.11,0,0,0,0,3.53A7.43,7.43,0,0,1,79.35,7,10.76,10.76,0,0,1,78,5.89a10.69,10.69,0,0,1,1.23-1.06,10,10,0,0,1,1.18-.71Z"/><path class="cls-1" d="M82.67,0h.69V1.73h-.69Z"/><path class="cls-1" d="M84.78,1.93,85.47.54l.62.31L85.4,2.24Z"/><path class="cls-1" d="M86.89,3.26l1-1.39.56.42-1,1.38Z"/><path class="cls-1" d="M79.93.85l.62-.31.69,1.38-.62.31Z"/><path class="cls-1" d="M77.54,2.29l.56-.42,1,1.39-.56.41Z"/></g></g></svg>