<?xml version="1.0" encoding="UTF-8"?>
<svg id="Calque_2" data-name="Calque 2" xmlns="http://www.w3.org/2000/svg" viewBox="0 0 134.68 32.02">
  <defs>
    <style>
      .cls-1 {
        fill: #fff;
      }
    </style>
  </defs>
  <g id="Layer_2_copy" data-name="Layer 2 copy">
    <g>
      <path class="cls-1" d="M16.19,0s-.14,0-.2,0c-.07,0-.2,0-.2,0C6.49.15,0,5.17,0,12.2s6.49,12.05,15.78,12.2c0,0,.14,0,.2,0,.07,0,.21,0,.21,0,9.29-.15,15.77-5.17,15.77-12.2S25.47.15,16.19,0M15.98,20.42h0c-6.79-.07-11.17-3.3-11.17-8.22S9.19,4.05,15.98,3.98c6.79.07,11.17,3.3,11.17,8.22s-4.38,8.15-11.17,8.22"/>
      <path class="cls-1" d="M118.91,0s-.14,0-.2,0c-.07,0-.2,0-.2,0-9.29.15-15.78,5.17-15.78,12.2s6.49,12.05,15.78,12.2c0,0,.14,0,.2,0,.07,0,.21,0,.21,0,9.29-.15,15.77-5.17,15.77-12.2S128.2.15,118.91,0M118.7,20.42h0c-6.79-.07-11.17-3.3-11.17-8.22s4.39-8.15,11.17-8.22c6.79.07,11.17,3.3,11.17,8.22s-4.39,8.15-11.17,8.22"/>
      <path class="cls-1" d="M84.74,0s-.14,0-.2,0c-.07,0-.2,0-.2,0-4.43.07-8.21,1.25-10.97,3.22V1.14h-4.81v30.88h4.81v-10.84c2.75,1.97,6.54,3.15,10.97,3.22,0,0,.14,0,.2,0,.07,0,.21,0,.21,0,9.29-.15,15.77-5.17,15.77-12.2S94.02.15,84.74,0M84.53,20.42h0c-6.79-.07-11.17-3.3-11.17-8.22s4.39-8.15,11.17-8.22c6.79.07,11.17,3.3,11.17,8.22s-4.39,8.15-11.17,8.22"/>
      <path class="cls-1" d="M50.46,0s-.14,0-.2,0c-.07,0-.2,0-.2,0-4.43.07-8.21,1.25-10.97,3.22V1.14h-4.81v30.88h4.81v-10.84c2.75,1.97,6.54,3.15,10.97,3.22,0,0,.14,0,.2,0,.07,0,.21,0,.21,0,9.29-.15,15.77-5.17,15.77-12.2S59.75.15,50.46,0M50.26,20.42h0c-6.79-.07-11.17-3.3-11.17-8.22s4.39-8.15,11.17-8.22c6.79.07,11.17,3.3,11.17,8.22s-4.39,8.15-11.17,8.22"/>
    </g>
  </g>
</svg>