<?xml version="1.0" encoding="UTF-8"?>
<svg id="Calque_2" data-name="Calque 2" xmlns="http://www.w3.org/2000/svg" viewBox="0 0 58.26 86.16">
  <defs>
    <style>
      .cls-1 {
        font-family: BrockScript, BrockScript;
        font-size: 7.83px;
      }

      .cls-1, .cls-2 {
        fill: #fff;
      }
    </style>
  </defs>
  <g id="Layer_2_copy" data-name="Layer 2 copy">
    <g>
      <g>
        <path class="cls-2" d="M44.65,57.69c-.29.2-.54.38-.81.55-.29.18-.59.33-.86.54-.4.31-.84.49-1.29.56-.38.06-.79-.01-1.18-.05-.3-.03-.59-.16-.84-.36-.39-.33-.86-.56-1.08-1.11-.18-.43-.39-.84-.41-1.34-.02-.7-.06-1.4-.06-2.11,0-.62.06-1.23.05-1.85,0-.45.13-.84.3-1.23.25-.55.59-.98,1.04-1.32.23-.17.45-.37.68-.51.18-.11.38-.19.58-.23.37-.06.75-.08,1.12-.1.4-.01.76.18,1.11.4.1.06.2.11.29.18.15.12.29.25.43.38.52.49.97,1.04,1.3,1.72.04.08.09.18.16.22.04.03.15.01.19-.03.21-.24.42-.49.6-.76.39-.59.69-1.24.92-1.93.12-.35.25-.71.31-1.08.09-.55.16-1.1.03-1.66-.16-.7-.43-1.33-.83-1.88-.08-.11-.21-.18-.33-.21-.28-.05-.32,0-.48.39-.12.29-.24.59-.41.85-.15.24-.38.4-.55.63-.36.49-.87.69-1.36.87-.66.24-1.28.06-1.86-.39-.44-.34-.69-.81-.86-1.36-.07-.23-.08-.49-.09-.74,0-.62,0-1.24,0-1.85.01-.46.03-.93.08-1.39.07-.59.1-1.19.3-1.75.12-.35.38-.57.6-.84.41-.51.94-.76,1.5-.93.44-.13.92-.19,1.38-.04.35.11.72.17,1.07.28.53.17.97.54,1.41.92.49.42.8.99,1.11,1.58.27.51.44,1.06.58,1.64.15.63.28,1.26.31,1.91.02.35.05.71.08,1.06.02.2.08.4.08.6,0,.26-.06.52-.08.78-.04.43-.04.86-.1,1.28-.07.52-.19,1.04-.29,1.56-.08.42-.16.85-.25,1.27-.08.37-.13.75-.24,1.11-.17.56-.37,1.11-.56,1.66-.2.57-.47,1.09-.79,1.58-.13.21-.29.4-.4.62-.09.18-.13.39-.16.6-.03.24,0,.49-.02.74-.02.27-.08.53-.11.79-.03.27-.04.54-.06.82,0,.05,0,.1-.01.16-.03.46-.05.91-.09,1.37-.04.46-.09.92-.16,1.38-.08.53-.19,1.06-.29,1.58-.08.4-.15.8-.25,1.2-.07.29-.19.57-.27.86-.15.49-.29.99-.45,1.48-.1.29-.23.56-.34.85-.18.47-.34.96-.54,1.42-.23.54-.49,1.06-.75,1.57-.16.32-.34.62-.52.92-.09.15-.2.28-.3.42-.2.29-.38.59-.6.86-.32.4-.63.8-.99,1.15-.54.53-1.12,1-1.65,1.53-.38.37-.83.58-1.26.85-.22.14-.46.21-.69.31-.3.13-.6.26-.9.37-.16.06-.34.08-.51.11-.27.04-.54.09-.82.11-.66.04-1.32.08-1.98.06-.31,0-.63-.14-.94-.23-.24-.08-.49-.16-.72-.29-.39-.22-.77-.47-1.15-.72-.18-.12-.36-.25-.54-.39-.14-.12-.26-.28-.41-.39-.38-.29-.7-.65-.99-1.05-.18-.25-.4-.47-.59-.72-.1-.13-.17-.28-.26-.41-.41-.58-.73-1.22-1.04-1.87-.17-.35-.3-.72-.44-1.09-.04-.11-.06-.24-.1-.42-.14.18-.23.32-.35.42-.34.31-.69.61-1.05.9-.33.26-.67.51-1.01.74-.21.14-.43.25-.64.38-.43.27-.85.54-1.27.81-.18.11-.36.21-.55.31-.48.27-.96.53-1.45.79-.21.11-.43.21-.65.33-.41.21-.81.45-1.22.65-.36.17-.73.31-1.09.48-.29.13-.56.31-.85.44-.39.18-.8.32-1.19.5-.24.1-.46.24-.69.34-.41.18-.82.34-1.24.51-.24.1-.48.21-.72.31-.1.04-.2.08-.3.12-.56.22-1.11.46-1.67.67-.45.17-.91.31-1.36.47-.18.07-.35.17-.53.24-.29.12-.58.22-.86.33-.37.14-.75.28-1.12.42-.45.17-.91.34-1.36.52-.44.17-.87.36-1.31.51-.24.09-.48.14-.73.19-.05,0-.13-.04-.15-.09-.02-.04.02-.15.06-.17.19-.13.39-.25.59-.35.42-.22.83-.44,1.25-.65.52-.26,1.04-.49,1.56-.76.27-.14.53-.33.8-.48.45-.25.92-.47,1.37-.72.52-.28,1.03-.58,1.55-.88.74-.42,1.49-.84,2.23-1.27.24-.14.45-.33.69-.47.42-.25.85-.47,1.26-.73.57-.35,1.13-.72,1.69-1.09.33-.21.65-.43.97-.65.23-.15.46-.29.68-.45.39-.27.78-.55,1.16-.84.58-.44,1.17-.89,1.73-1.36.43-.35.83-.75,1.24-1.13.32-.3.64-.61.95-.93.42-.43.85-.85,1.26-1.3.24-.26.45-.55.68-.83.03-.03.06-.07.09-.09.18-.13.21-.26.13-.5-.04-.14-.06-.3-.1-.44-.03-.13-.09-.24-.12-.37-.12-.41-.25-.81-.36-1.22-.12-.43-.21-.88-.33-1.31-.12-.44-.28-.86-.42-1.29-.04-.14-.1-.1-.17-.03-.39.4-.79.8-1.19,1.19-.4.39-.79.77-1.21,1.13-.32.28-.66.54-1.01.8-.26.19-.53.35-.8.52-.36.22-.72.45-1.08.65-.3.17-.62.33-.93.47-.64.29-1.27.57-1.92.84-.27.11-.55.18-.82.29-.26.1-.51.22-.76.32-.28.12-.56.23-.85.34-.42.16-.86.29-1.28.46-.43.17-.85.39-1.28.55-.52.2-1.05.36-1.57.56-.35.13-.69.3-1.03.44-.29.12-.59.2-.87.32-.36.15-.71.32-1.07.46-.27.11-.54.19-.81.29-.35.13-.7.25-1.05.38-.28.11-.57.22-.85.33-.36.15-.72.33-1.09.46-.28.1-.57.15-.86.21-.05.01-.11-.04-.17-.06.04-.07.07-.15.12-.19.14-.1.28-.18.43-.27.26-.15.51-.3.77-.44.42-.23.85-.46,1.26-.7.23-.13.44-.29.67-.43.41-.24.83-.46,1.23-.7.29-.17.57-.38.86-.56.31-.19.62-.36.93-.54.63-.37,1.25-.74,1.87-1.12.38-.23.76-.47,1.14-.71.22-.13.44-.26.66-.4.44-.27.87-.56,1.3-.83.31-.19.62-.37.93-.56.46-.28.91-.55,1.36-.85.44-.29.88-.59,1.31-.89.45-.3.9-.59,1.34-.91.21-.15.4-.37.6-.54.17-.14.37-.26.55-.39.26-.2.53-.4.78-.63.25-.22.49-.48.73-.71.45-.43.92-.85,1.36-1.29.21-.21.39-.45.58-.68.13-.14.26-.27.39-.4.12-.13.14-.25.05-.43-.33-.68-.64-1.37-.96-2.05-.15-.31-.3-.61-.47-.9-.22-.38-.44-.77-.68-1.13-.58-.83-1.25-1.56-1.94-2.27-.36-.37-.68-.79-1.01-1.21-.28-.36-.47-.8-.58-1.26-.1-.39-.12-.8-.18-1.21-.15-.98-.07-1.97-.07-2.96,0-.55.03-1.1.09-1.64.08-.68.21-1.35.51-1.97.29-.6.59-1.19.98-1.71.32-.43.64-.87.98-1.28.32-.38.66-.74,1-1.09.32-.34.65-.66.99-.98.26-.25.51-.5.79-.72.4-.32.82-.6,1.23-.9.18-.13.36-.29.54-.41.37-.24.75-.47,1.13-.69.36-.2.73-.41,1.11-.56.37-.14.76-.22,1.15-.3.28-.05.57-.1.85-.08.59.04,1.15.23,1.59.72.3.33.6.68.87,1.04.14.18.23.4.32.61.19.42.39.84.56,1.27.12.32.18.66.26.99.08.36.15.72.22,1.08,0,.01,0,.03,0,.04.04.46.09.93.12,1.39.03.39.05.78.05,1.18,0,.44-.03.87-.05,1.31,0,.19,0,.39-.01.58-.05.51-.11,1.01-.17,1.52-.03.23-.06.46-.09.7-.03.28-.05.56-.09.83-.06.39-.14.78-.21,1.18-.06.33-.11.66-.17.99-.05.28-.11.55-.18.82-.1.39-.21.78-.32,1.16-.1.35-.2.69-.31,1.03-.11.33-.24.66-.37.99-.2.49-.41.97-.61,1.45-.12.28-.23.56-.36.84-.21.46-.44.91-.65,1.36-.07.15-.11.31-.19.44-.35.59-.69,1.18-1.05,1.76-.25.41-.51.81-.79,1.19-.27.37-.56.71-.84,1.07-.14.18-.29.37-.42.56-.02.03-.02.1-.01.14.1.31.22.61.31.92.16.58.31,1.16.46,1.75.07.27.11.56.17.83.07.32.16.65.24.97.02.08.02.16.04.24.01.05.05.11.08.13.02.01.08-.03.11-.06.14-.17.27-.33.4-.51.32-.44.62-.89.94-1.33.25-.35.5-.69.75-1.04.3-.42.59-.85.88-1.27.23-.32.47-.64.68-.97.23-.37.43-.77.64-1.15.17-.29.35-.57.51-.87.18-.31.34-.64.52-.95.1-.19.23-.36.32-.55.22-.46.43-.94.65-1.41.12-.27.26-.54.36-.82.16-.44.3-.89.46-1.33.08-.23.2-.46.28-.69.13-.39.25-.79.37-1.18.13-.44.25-.87.37-1.31.04-.15.06-.3.1-.44.07-.28.16-.57.23-.85.07-.29.13-.59.2-.88.07-.31.13-.62.2-.93.04-.18.07-.37.1-.55.03-.24.06-.48.09-.72.05-.5.11-1.01.14-1.51.02-.35.02-.7,0-1.05-.02-.78-.03-1.56-.08-2.33-.03-.51-.13-1.01-.21-1.52-.05-.37-.1-.74-.17-1.1-.08-.42-.19-.82-.28-1.24-.03-.13-.04-.26-.08-.38-.12-.45-.24-.9-.38-1.34-.16-.53-.33-1.06-.51-1.58-.16-.45-.34-.88-.51-1.32-.19-.48-.36-.97-.55-1.45-.1-.25-.24-.48-.36-.72-.21-.43-.4-.86-.62-1.28-.13-.26-.29-.51-.43-.77-.15-.28-.29-.58-.45-.86-.3-.53-.6-1.05-.91-1.58-.29-.51-.58-1.02-.87-1.52-.15-.24-.33-.46-.47-.71-.25-.43-.47-.87-.72-1.3-.2-.34-.41-.66-.61-1-.22-.37-.44-.75-.65-1.13-.23-.42-.45-.86-.67-1.29-.17-.32-.35-.63-.52-.95-.15-.3-.29-.61-.43-.92-.19-.41-.39-.82-.56-1.25-.16-.43-.28-.88-.42-1.31-.1-.31-.21-.61-.3-.91-.05-.15-.09-.3-.11-.46-.06-.55-.15-1.1-.14-1.64.01-.57.13-1.13.2-1.69.03-.25.05-.49.09-.74.05-.35.07-.71.17-1.03.12-.35.16-.72.25-1.07.1-.38.21-.76.33-1.13.11-.32.22-.64.37-.93.25-.48.53-.94.83-1.38.31-.47.71-.81,1.16-1.09.15-.09.27-.23.42-.31.27-.14.54-.24.81-.36.71-.31,1.45-.31,2.19-.25.47.04.95.11,1.36.43.04.03.1.11.1.15-.02.22.04.45-.09.66-.08.12-.07.32-.1.48-.03.23-.05.46-.09.69-.07.41-.14.82-.22,1.24-.03.17-.06.34-.08.52-.06.39-.11.78-.17,1.17-.02.14-.08.16-.18.11-.21-.11-.42-.23-.63-.33-.09-.04-.19-.08-.29-.09-.4-.03-.8-.21-1.21-.08-.08.03-.17.01-.25.03-.29.06-.61.05-.86.2-.48.28-1,.49-1.34,1.01-.08.12-.15.26-.23.39-.15.26-.32.52-.44.8-.21.53-.36,1.09-.27,1.67.06.39.21.77.32,1.15.05.16.11.31.18.47.15.35.3.69.47,1.04.14.3.28.6.44.89.26.47.53.93.8,1.4.28.49.56.99.85,1.48.15.26.32.51.49.77.06.1.12.1.16-.03.02-.06.04-.12.05-.18.09-.39.16-.79.26-1.18.07-.27.16-.53.27-.77.14-.3.29-.6.46-.88.19-.32.38-.63.59-.92.39-.55.81-1.06,1.34-1.43.2-.14.39-.32.6-.43.21-.11.45-.18.68-.23.26-.05.52-.09.78-.08.46.02.89.16,1.31.37.14.07.18.4.11.65-.06.24-.09.5-.14.75-.07.35-.14.69-.21,1.04-.04.2-.06.4-.1.6-.07.4-.15.79-.22,1.19-.01.06,0,.12-.02.18-.03.18-.1.3-.27.3-.03,0-.06,0-.1,0-.58,0-1.11.23-1.62.53-.37.21-.64.56-.94.87-.44.44-.69,1-.97,1.55-.1.2-.18.42-.24.64-.03.09-.02.24.03.32.28.49.58.97.86,1.46.24.42.48.84.72,1.27.08.15.13.32.2.46.3.59.63,1.17.91,1.77.37.76.72,1.53,1.05,2.32.32.75.6,1.51.9,2.27.14.36.28.72.4,1.09.13.4.23.8.35,1.2.08.28.17.56.26.84.04.14.08.29.12.43.08.25.17.5.23.76.08.3.14.6.19.91.08.48.15.97.22,1.45.04.26.07.53.09.79.04.49.05.99.09,1.48.14,1.63.07,3.27.06,4.91,0,.51-.09,1.01-.13,1.52-.03.31-.05.62-.09.92-.06.48-.14.95-.22,1.43-.03.18-.06.36-.08.54-.08.49-.15.98-.25,1.46-.06.29-.15.58-.21.87-.07.29-.13.59-.2.88-.07.3-.13.6-.19.89-.09.41-.18.83-.28,1.24-.06.25-.14.48-.21.72-.07.25-.14.51-.21.76-.12.42-.24.83-.36,1.24-.08.28-.16.56-.25.84-.21.59-.43,1.18-.65,1.77-.1.28-.2.57-.32.85-.19.45-.4.89-.6,1.33-.12.25-.23.5-.36.74-.28.53-.55,1.06-.84,1.58-.31.56-.64,1.12-.97,1.67-.07.12-.18.21-.25.33-.27.42-.53.85-.8,1.27-.33.5-.66,1-1,1.5-.14.21-.3.41-.45.61-.17.23-.35.46-.52.69-.01.02-.01.05-.03.06-.12.09-.29.16-.24.36.04.14.16.25.24.38.24.35.46.71.71,1.03.28.36.59.68.89,1.02.35.41.74.77,1.17,1.05.36.24.75.38,1.16.5.84.25,1.68.18,2.52.15.39-.02.77-.15,1.16-.24.23-.05.47-.12.69-.2.25-.09.5-.19.73-.32.46-.25.92-.5,1.36-.79.36-.24.69-.52,1.02-.8.31-.26.6-.56.93-.8.39-.29.67-.72,1.01-1.06.39-.39.66-.89,1-1.33.36-.47.6-1.01.88-1.53.4-.74.74-1.52,1.07-2.3.27-.64.5-1.31.73-1.97.11-.3.16-.62.25-.93.07-.25.16-.49.22-.74.07-.28.14-.57.2-.86.07-.33.14-.66.2-.99.01-.06-.03-.14-.04-.2ZM29.16,40.88c-.04-.38-.07-.71-.12-1.04-.09-.51-.18-1.03-.43-1.48-.14-.26-.25-.55-.42-.78-.43-.58-.93-1.04-1.59-1.24-.42-.13-.82-.02-1.22.09-.19.05-.36.16-.55.24-.37.17-.76.32-1.12.51-.29.15-.56.35-.84.52-.37.23-.75.44-1.11.68-.23.15-.45.34-.66.53-.43.36-.86.71-1.27,1.08-.39.36-.76.75-1.06,1.22-.23.36-.54.65-.77,1.01-.38.59-.73,1.21-1.08,1.83-.14.25-.1.48.1.68.36.37.74.72,1.08,1.12.38.43.75.87,1.07,1.35.35.52.66,1.09.96,1.66.31.58.59,1.17.86,1.77.1.22.16.48.25.71.27.73.55,1.46.81,2.2.17.5.31,1.02.46,1.53.04.12.08.18.18.05.25-.34.52-.66.76-1,.22-.31.45-.62.65-.95.47-.76.94-1.53,1.4-2.29.2-.34.4-.68.59-1.02.26-.47.53-.93.75-1.41.32-.7.63-1.42.91-2.14.18-.46.32-.95.48-1.42.16-.49.33-.98.48-1.48.09-.31.18-.63.23-.96.09-.53.15-1.07.21-1.56Z"/>
        <path class="cls-2" d="M42.82,29.2c-.19.13-.35.25-.51.36-.24.16-.48.33-.72.49-.44.28-.89.55-1.32.84-.28.19-.56.39-.84.59-.09.06-.13.16-.05.28.03.04.04.09.06.14.15.26.14.24.36.07.24-.18.49-.32.74-.49.45-.3.9-.6,1.35-.9.34-.22.67-.45,1.01-.67.09-.06.18-.15.29-.18.07-.02.2-.01.23.04.23.37.48.73.54,1.19.05.33.09.67.1,1.01.03.83-.22,1.55-.69,2.17-.34.46-.76.75-1.26.94-.39.14-.77.19-1.17.16-.45-.03-.87-.22-1.27-.46-.03-.02-.04-.07-.06-.12.51-.34,1.02-.67,1.52-1.01.33-.22.66-.45.99-.67.2-.13.4-.27.61-.38.15-.08.17-.19.13-.34-.02-.1-.07-.18-.12-.27-.07-.14-.16-.07-.24-.01-.26.18-.52.35-.79.52-.25.16-.5.31-.74.48-.54.36-1.07.73-1.61,1.09-.08.05-.17.09-.26.14-.54-.54-.71-1.31-.82-2.06-.12-.77.14-1.54.53-2.14,1.09-1.66,2.82-1.84,3.99-.81Z"/>
      </g>
      <text class="cls-1" transform="translate(16.38 84.21) scale(.86 1)"><tspan x="0" y="0">Fouad Couture</tspan></text>
    </g>
  </g>
</svg>