<?xml version="1.0" encoding="UTF-8"?>
<svg id="Calque_2" data-name="Calque 2" xmlns="http://www.w3.org/2000/svg" viewBox="0 0 98.49 53.87">
  <defs>
    <style>
      .cls-1 {
        fill: #fff;
      }
    </style>
  </defs>
  <g id="Layer_2_copy" data-name="Layer 2 copy">
    <g>
      <path class="cls-1" d="M97.46,17.01v15.06H13.74v-15.06h83.72M98.49,15.98H12.71v17.12h85.78V15.98h0Z"/>
      <g>
        <path class="cls-1" d="M18.41,29.46c-.15-.06-.3-.15-.43-.29-.13-.14-.25-.29-.35-.45-.1-.16-.19-.31-.25-.46-.06-.15-.1-.26-.11-.34-.01-.08,0-.27.05-.58.05-.31.11-.69.19-1.14.08-.45.19-.96.3-1.51.12-.55.24-1.12.36-1.69.12-.57.25-1.13.38-1.67.13-.54.25-1.03.36-1.46.11-.43.21-.78.3-1.05s.15-.43.19-.46c.05-.03.13-.02.25.02.12.05.25.11.37.2.13.08.24.17.33.27s.14.17.14.23c-.01.1-.05.26-.1.49-.06.23-.13.52-.22.86-.09.34-.19.72-.3,1.14-.11.42-.22.86-.33,1.32-.11.46-.22.93-.32,1.41-.1.48-.19.95-.27,1.41.08-.21.23-.52.43-.92.2-.4.43-.85.69-1.34.26-.49.54-1,.84-1.53.3-.53.59-1.03.87-1.5.28-.47.54-.89.78-1.26.24-.37.43-.63.56-.79.13.13.26.24.38.34.12.1.23.2.33.3.1.1.17.2.23.32.06.11.1.24.11.39,0,.09-.02.27-.09.55-.06.28-.15.61-.25.99-.1.38-.21.8-.33,1.26-.12.46-.24.91-.35,1.35-.11.44-.21.86-.3,1.25-.09.39-.15.71-.18.95.2-.41.44-.89.74-1.44.3-.55.62-1.11.96-1.68.34-.57.68-1.13,1.03-1.69.34-.55.66-1.05.95-1.49.29-.44.53-.79.72-1.06.19-.27.31-.41.35-.42.07-.02.15.02.24.11.09.09.18.21.27.34.08.14.16.28.21.43.06.15.09.28.09.39,0,.04-.07.18-.21.43-.14.25-.32.57-.55.96-.23.39-.49.83-.79,1.33-.3.5-.61,1.02-.93,1.57-.33.55-.65,1.1-.99,1.67-.33.56-.64,1.1-.93,1.62-.29.52-.55,1-.79,1.44-.23.44-.41.81-.54,1.11-.15-.1-.29-.21-.43-.34-.14-.13-.26-.27-.36-.42-.11-.14-.2-.28-.28-.41-.08-.13-.14-.24-.17-.33-.03-.07-.04-.22-.02-.43.02-.22.05-.48.09-.8.04-.31.1-.66.18-1.04.07-.38.15-.77.24-1.17.08-.4.17-.79.26-1.17.09-.38.17-.74.25-1.06-.1.12-.22.3-.37.53-.15.23-.31.51-.5.81-.18.31-.37.65-.58,1.01-.2.36-.4.73-.61,1.11-.2.37-.4.74-.6,1.11-.19.36-.37.7-.53,1.01-.16.31-.3.58-.42.81-.12.23-.21.41-.27.53Z"/>
        <path class="cls-1" d="M26.9,27.93c-.14-.43-.22-.92-.22-1.47,0-.55.05-1.13.16-1.72.11-.6.26-1.2.46-1.81.2-.61.44-1.19.71-1.73.27-.54.57-1.03.89-1.47.32-.44.66-.78,1.01-1.04.35-.26.7-.4,1.05-.44.35-.04.7.08,1.04.34.4.31.68.7.86,1.18.18.48.27,1,.28,1.57.01.57-.05,1.17-.18,1.8-.13.63-.31,1.24-.54,1.86-.23.61-.48,1.19-.77,1.74-.29.55-.59,1.04-.9,1.46-.31.42-.61.76-.91,1.01-.3.25-.57.38-.81.39-.13,0-.24-.02-.35-.05-.1-.03-.2-.08-.29-.14-.09-.06-.17-.12-.26-.2-.08-.07-.17-.14-.25-.21-.08-.06-.17-.12-.27-.18-.09-.06-.18-.13-.27-.2-.09-.08-.17-.16-.25-.27-.08-.1-.14-.23-.19-.39ZM28.33,27.43c.06.08.15.1.27.05.12-.04.26-.13.41-.26s.31-.3.49-.5c.17-.2.35-.43.51-.67.17-.25.32-.5.47-.77.15-.27.27-.53.38-.78.14-.36.29-.74.44-1.15.15-.41.26-.81.34-1.21.08-.39.11-.75.08-1.08-.02-.33-.14-.58-.34-.77-.16-.14-.34-.16-.54-.04-.2.12-.41.31-.62.58-.21.27-.42.59-.61.97-.2.38-.37.76-.51,1.14-.15.4-.29.83-.42,1.3-.13.47-.24.92-.32,1.36-.08.43-.13.81-.14,1.15-.01.33.03.56.12.69Z"/>
        <path class="cls-1" d="M35.99,18.66s.12-.03.22.01c.1.04.22.1.34.18.12.08.25.18.39.29.13.11.25.22.36.33.11.11.19.21.25.31.06.1.09.17.08.23-.25,1.07-.44,1.97-.57,2.69-.13.73-.22,1.33-.27,1.82-.05.49-.07.88-.05,1.19.02.31.05.58.11.81.15-.46.34-.98.56-1.56.22-.58.46-1.18.7-1.78.25-.6.49-1.2.74-1.78.25-.58.48-1.11.7-1.57.21-.46.4-.85.55-1.15.15-.31.26-.48.32-.53.07-.06.16-.06.27,0,.11.06.21.14.31.25.1.11.19.23.26.37.07.13.11.25.12.36,0,.06-.04.23-.13.49-.09.26-.22.59-.38.99-.16.4-.34.85-.55,1.36-.21.51-.43,1.04-.66,1.59-.23.55-.46,1.11-.7,1.68-.24.57-.46,1.11-.67,1.64-.21.52-.4,1.01-.58,1.45-.17.44-.31.82-.41,1.13-.34-.08-.65-.23-.93-.46-.28-.23-.5-.58-.66-1.06-.11-.32-.19-.65-.24-1.01-.05-.35-.07-.71-.08-1.06,0-.36.01-.71.04-1.06.03-.35.06-.69.11-1.01l-2.15,5.77c-.22-.18-.41-.41-.57-.69-.16-.28-.26-.59-.31-.93-.01-.07.03-.25.11-.55.08-.29.19-.66.33-1.09.14-.43.3-.92.49-1.45.19-.54.38-1.08.58-1.63.2-.55.41-1.09.61-1.62.2-.53.39-1,.57-1.42.18-.42.34-.77.47-1.04.14-.27.24-.43.3-.47Z"/>
        <path class="cls-1" d="M41.21,28.79c-.02.06-.04.12-.07.18-.03.06-.06.11-.1.15-.04.06-.08.11-.12.17-.05,0-.11-.07-.19-.17s-.16-.24-.23-.41-.14-.35-.19-.54c-.06-.19-.08-.38-.08-.55,0-.1.03-.27.09-.49.06-.22.14-.49.24-.8.1-.31.22-.65.35-1.02.13-.37.27-.75.42-1.14.15-.39.29-.78.45-1.17.15-.39.3-.76.43-1.11.14-.35.26-.67.38-.96.12-.29.21-.53.29-.71v-1c.25-.16.51-.3.76-.43s.5-.23.73-.31c.23-.08.45-.11.65-.11s.38.05.53.14c.26.17.49.38.68.65.2.27.35.57.47.9.12.33.2.7.24,1.09s.04.8-.01,1.21c-.05.39-.14.82-.26,1.3-.13.48-.29.97-.5,1.47-.2.5-.44,1-.72,1.49-.27.49-.58.94-.91,1.35-.34.41-.7.76-1.1,1.05-.39.29-.81.48-1.26.58-.1.02-.18.01-.27-.04-.08-.05-.16-.11-.24-.2-.08-.08-.15-.18-.23-.29-.08-.11-.16-.21-.24-.3ZM41.78,27.62c.51-.26.96-.58,1.36-.96.39-.38.74-.78,1.03-1.21.29-.43.53-.87.73-1.31.2-.45.36-.87.47-1.27.12-.4.2-.76.24-1.08.04-.32.06-.56.06-.74-.01-.17-.06-.3-.15-.39-.09-.1-.2-.15-.33-.18-.12-.02-.25-.02-.38.01-.13.03-.23.09-.31.17-.03.03-.09.15-.18.36-.09.21-.2.47-.33.79-.13.32-.27.68-.42,1.08-.15.4-.31.81-.47,1.23-.16.42-.31.82-.46,1.23-.15.4-.28.76-.41,1.09-.12.33-.22.59-.31.81-.08.21-.13.34-.15.39Z"/>
        <path class="cls-1" d="M50.56,18.53c.16,0,.32-.03.48-.07.16-.04.32-.07.46-.1.15-.03.28-.05.41-.05.12,0,.23,0,.31.05.33.17.57.46.72.86.14.4.21.85.21,1.36-.07-.02-.13-.04-.17-.06-.05-.02-.11-.03-.18-.05-.23-.04-.44-.05-.64-.02-.2.03-.39.07-.57.13-.18.06-.35.12-.51.19-.16.07-.32.12-.46.16l-.95,2.14c.15-.06.3-.13.45-.19.15-.06.3-.11.43-.15.14-.04.27-.05.39-.05.12,0,.22.04.31.1.19.15.34.37.46.67.12.29.18.64.15,1.05-.04-.06-.09-.09-.15-.09-.06,0-.12.01-.18.02-.16.02-.37.07-.62.15-.25.08-.49.16-.74.26-.25.1-.47.19-.68.29-.21.1-.36.18-.44.23-.13.09-.23.2-.32.34-.09.14-.16.3-.23.48-.07.18-.13.37-.19.59-.06.21-.13.43-.21.65.16-.1.33-.19.5-.29.17-.1.33-.18.49-.26.16-.08.3-.14.44-.18.14-.04.26-.05.36-.02.08.02.16.08.25.19.09.11.17.25.25.42.08.17.15.35.2.55.06.2.09.41.1.62-.06-.06-.11-.09-.15-.11-.04-.02-.11-.03-.21-.04-.04,0-.12.03-.25.1-.12.06-.27.14-.43.24-.17.1-.35.2-.54.3-.19.11-.38.21-.56.3-.18.09-.35.16-.5.21-.15.05-.27.06-.35.04-.24-.07-.44-.19-.59-.37-.15-.17-.28-.42-.39-.74-.08-.25-.14-.5-.16-.74s0-.48.04-.73c.08-.39.21-.85.39-1.39.18-.54.38-1.11.6-1.71.23-.6.46-1.2.72-1.8.25-.6.49-1.17.71-1.69.22-.52.42-.98.6-1.36.17-.38.3-.66.37-.83.04-.02.09,0,.14.03.05.04.1.08.14.14.05.06.1.11.15.15.05.04.1.07.15.07Z"/>
        <path class="cls-1" d="M52.75,29.7c-.12-.14-.23-.28-.33-.42-.11-.13-.2-.27-.29-.42s-.15-.29-.2-.45c-.05-.15-.07-.32-.06-.49,0-.14.05-.38.13-.73.08-.34.19-.74.33-1.2.14-.46.29-.96.47-1.5.18-.54.36-1.08.55-1.63.19-.55.37-1.08.56-1.59.19-.51.36-.97.52-1.37.16-.4.3-.73.41-.98.12-.25.2-.39.25-.42.05-.02.11-.03.17-.01.06.02.13.04.19.08.07.04.13.09.19.14.06.06.13.11.19.17.28-.1.53-.19.77-.3.24-.1.46-.15.67-.14.21.01.4.12.59.32.19.2.37.55.54,1.05.12.34.17.69.15,1.05-.01.36-.07.72-.18,1.08-.11.36-.26.71-.45,1.05-.19.34-.41.67-.64.97-.24.3-.49.58-.76.83-.27.25-.54.46-.8.62.16.19.31.4.46.63.15.23.28.46.4.68s.22.44.29.63c.07.19.12.35.13.48.01.19,0,.37-.02.54-.03.17-.07.33-.12.48-.05.15-.12.31-.19.46-.07.15-.15.31-.24.46-.08-.19-.19-.41-.32-.65-.13-.24-.27-.49-.42-.75-.15-.26-.31-.52-.47-.78-.16-.26-.32-.51-.48-.73-.16-.23-.3-.43-.44-.61-.14-.18-.25-.33-.35-.43-.1.21-.21.5-.33.84-.12.35-.25.71-.36,1.08-.12.37-.22.73-.31,1.08-.09.35-.15.63-.19.84ZM54.49,24.11c.13-.06.29-.15.49-.28.2-.13.41-.28.63-.46.22-.17.43-.37.64-.58.21-.21.39-.43.54-.65.15-.23.26-.45.32-.68.06-.23.06-.45,0-.67-.04-.12-.12-.19-.23-.21-.11-.02-.23-.01-.37.03-.14.04-.27.12-.41.22-.14.1-.25.22-.35.36-.11.16-.22.35-.33.57-.12.22-.23.46-.34.73-.11.26-.22.53-.32.81-.1.28-.19.55-.27.82Z"/>
        <path class="cls-1" d="M65.33,18.27c.19.13.35.23.49.32.14.09.25.15.35.19.05.02.13,0,.25-.02.12-.03.26-.07.41-.12.15-.05.3-.09.45-.14.15-.04.27-.06.36-.05.12,0,.23.07.33.19.1.12.18.27.25.45.07.18.14.37.19.58.06.21.11.41.15.61-.05-.02-.09-.03-.12-.05-.03-.02-.08-.03-.14-.05-.06,0-.18,0-.38.05-.19.04-.41.1-.66.18-.25.08-.5.17-.75.29-.25.11-.46.23-.64.34l-1.06,2.45c.11-.03.24-.07.38-.12s.29-.09.43-.12c.14-.04.28-.06.4-.08.12-.02.22,0,.29.02.24.11.42.31.53.61.11.29.2.67.25,1.13-.06-.04-.11-.06-.16-.05-.05,0-.11,0-.17-.02-.07-.02-.19,0-.35.03-.16.04-.33.09-.52.15-.19.06-.39.14-.6.23-.21.09-.4.17-.58.26-.18.09-.33.17-.46.25-.13.08-.2.14-.23.19-.13.25-.26.52-.39.81-.13.29-.25.6-.37.92-.12.32-.24.64-.35.97-.11.33-.22.64-.32.95-.23-.25-.43-.55-.6-.9-.17-.34-.28-.68-.33-1.02,0-.04.02-.17.09-.4.06-.23.15-.52.27-.87.11-.36.25-.77.41-1.23.16-.46.33-.94.52-1.45.19-.5.38-1.02.59-1.54s.41-1.03.62-1.51c.21-.48.41-.94.61-1.36.2-.42.39-.78.56-1.08Z"/>
        <path class="cls-1" d="M67.57,27.93c-.14-.43-.22-.92-.22-1.47,0-.55.05-1.13.16-1.72.11-.6.26-1.2.46-1.81.2-.61.44-1.19.71-1.73.27-.54.57-1.03.89-1.47.32-.44.66-.78,1.01-1.04.35-.26.7-.4,1.05-.44.35-.04.7.08,1.04.34.4.31.68.7.86,1.18.18.48.27,1,.28,1.57.01.57-.05,1.17-.18,1.8-.13.63-.31,1.24-.54,1.86-.23.61-.48,1.19-.77,1.74-.29.55-.59,1.04-.9,1.46-.31.42-.61.76-.91,1.01-.3.25-.57.38-.81.39-.13,0-.24-.02-.35-.05-.1-.03-.2-.08-.29-.14-.09-.06-.17-.12-.26-.2-.08-.07-.17-.14-.25-.21-.08-.06-.17-.12-.27-.18-.09-.06-.18-.13-.27-.2-.09-.08-.17-.16-.25-.27-.08-.1-.14-.23-.19-.39ZM69,27.43c.06.08.15.1.27.05.12-.04.26-.13.41-.26.15-.13.31-.3.49-.5.17-.2.35-.43.51-.67.17-.25.32-.5.47-.77.15-.27.27-.53.38-.78.14-.36.29-.74.44-1.15.15-.41.26-.81.34-1.21.08-.39.11-.75.08-1.08-.02-.33-.14-.58-.34-.77-.16-.14-.34-.16-.54-.04-.2.12-.41.31-.62.58-.21.27-.42.59-.61.97-.2.38-.37.76-.51,1.14-.15.4-.29.83-.42,1.3-.13.47-.24.92-.32,1.36-.08.43-.13.81-.14,1.15-.01.33.03.56.12.69Z"/>
        <path class="cls-1" d="M73.85,27.93c-.14-.43-.22-.92-.22-1.47,0-.55.05-1.13.16-1.72.11-.6.26-1.2.46-1.81.2-.61.44-1.19.71-1.73.27-.54.57-1.03.89-1.47.32-.44.66-.78,1.01-1.04.35-.26.7-.4,1.05-.44.35-.04.7.08,1.04.34.4.31.68.7.86,1.18.18.48.27,1,.28,1.57.01.57-.05,1.17-.18,1.8-.13.63-.31,1.24-.54,1.86-.23.61-.48,1.19-.77,1.74-.29.55-.59,1.04-.9,1.46-.31.42-.61.76-.91,1.01-.3.25-.57.38-.81.39-.13,0-.24-.02-.35-.05-.1-.03-.2-.08-.29-.14-.09-.06-.17-.12-.26-.2-.08-.07-.17-.14-.25-.21-.08-.06-.17-.12-.27-.18-.09-.06-.18-.13-.27-.2-.09-.08-.17-.16-.25-.27-.08-.1-.14-.23-.19-.39ZM75.28,27.43c.06.08.15.1.27.05.12-.04.26-.13.41-.26.15-.13.31-.3.49-.5.17-.2.35-.43.51-.67.17-.25.32-.5.47-.77.15-.27.27-.53.38-.78.14-.36.29-.74.44-1.15.15-.41.26-.81.34-1.21.08-.39.11-.75.08-1.08-.02-.33-.14-.58-.34-.77-.16-.14-.34-.16-.54-.04-.2.12-.41.31-.62.58-.21.27-.42.59-.61.97-.2.38-.37.76-.51,1.14-.15.4-.29.83-.42,1.3-.13.47-.24.92-.32,1.36-.08.43-.13.81-.14,1.15-.01.33.03.56.12.69Z"/>
        <path class="cls-1" d="M80.53,28.79c-.02.06-.04.12-.07.18-.03.06-.06.11-.1.15-.04.06-.08.11-.12.17-.05,0-.11-.07-.19-.17s-.16-.24-.23-.41-.14-.35-.19-.54c-.06-.19-.08-.38-.08-.55,0-.1.03-.27.09-.49.06-.22.14-.49.24-.8.1-.31.22-.65.35-1.02.13-.37.27-.75.42-1.14.15-.39.29-.78.45-1.17.15-.39.3-.76.43-1.11.14-.35.26-.67.38-.96.12-.29.21-.53.29-.71v-1c.25-.16.51-.3.76-.43.25-.13.5-.23.73-.31.23-.08.45-.11.65-.11s.38.05.53.14c.26.17.49.38.68.65.2.27.35.57.47.9.12.33.2.7.24,1.09.04.39.04.8-.01,1.21-.05.39-.14.82-.26,1.3-.13.48-.29.97-.5,1.47-.2.5-.44,1-.72,1.49-.27.49-.58.94-.91,1.35-.34.41-.7.76-1.1,1.05-.39.29-.81.48-1.26.58-.1.02-.18.01-.27-.04-.08-.05-.16-.11-.24-.2-.08-.08-.15-.18-.23-.29-.08-.11-.16-.21-.24-.3ZM81.1,27.62c.51-.26.96-.58,1.36-.96.39-.38.74-.78,1.03-1.21.29-.43.53-.87.73-1.31.2-.45.36-.87.47-1.27.12-.4.2-.76.24-1.08.04-.32.06-.56.06-.74-.01-.17-.06-.3-.15-.39-.09-.1-.2-.15-.33-.18-.12-.02-.25-.02-.38.01-.13.03-.23.09-.31.17-.03.03-.09.15-.18.36-.09.21-.2.47-.33.79-.13.32-.27.68-.42,1.08-.15.4-.31.81-.47,1.23s-.31.82-.46,1.23c-.15.4-.28.76-.41,1.09-.12.33-.22.59-.31.81-.08.21-.13.34-.15.39Z"/>
        <path class="cls-1" d="M86.62,20.65c.11,0,.19,0,.26-.02.07-.02.15-.07.24-.13.05-.04.11-.11.19-.22.08-.11.16-.23.25-.37.09-.14.19-.29.28-.44.09-.15.18-.3.26-.42.08-.13.15-.23.21-.32.06-.08.1-.13.12-.14.04,0,.1.02.17.1.08.07.16.16.25.26.08.1.16.21.23.32.07.12.1.22.12.3,0,.07-.03.21-.09.41-.07.2-.16.41-.28.63-.12.22-.26.41-.43.59-.16.17-.33.27-.5.3-.14.02-.26.01-.37-.02-.11-.03-.21-.08-.31-.15-.1-.08-.19-.17-.29-.28-.1-.11-.2-.24-.31-.39Z"/>
        <path class="cls-1" d="M91.71,22.76c.14-.25.28-.48.4-.71.12-.23.22-.44.29-.65.07-.21.11-.4.11-.57s-.05-.33-.16-.48c-.07-.1-.18-.12-.31-.07-.13.05-.27.14-.42.27-.15.13-.29.3-.43.48-.14.19-.24.37-.31.56-.08.19-.14.39-.19.59-.05.2-.06.41-.06.62,0,.21.05.43.12.65.07.22.18.44.34.67.09.13.2.26.32.37.12.12.25.23.37.36.12.12.24.26.36.42.11.15.21.34.28.55.07.21.11.47.12.76.01.29-.02.64-.1,1.03-.08.43-.22.79-.43,1.08-.21.29-.45.52-.74.67-.29.15-.61.23-.95.24-.34.01-.69-.05-1.04-.18-.36-.13-.65-.32-.89-.56-.24-.24-.42-.49-.56-.74-.14-.25-.24-.49-.3-.72-.06-.23-.09-.39-.09-.48,0-.1.04-.21.11-.33.07-.13.15-.26.24-.4.1-.14.2-.28.3-.42.11-.14.2-.27.28-.39.05.34.14.65.27.92.13.27.29.5.46.69.17.19.36.34.56.45.2.11.38.17.56.18.18.02.33-.01.47-.08.14-.07.23-.19.28-.37.06-.2.08-.37.04-.52-.04-.15-.11-.28-.21-.4-.1-.12-.23-.24-.37-.36-.14-.12-.29-.25-.43-.38-.15-.13-.28-.29-.41-.47-.13-.18-.23-.39-.29-.64-.16-.6-.23-1.21-.18-1.81.04-.6.16-1.17.35-1.69.19-.53.43-1,.73-1.42.3-.42.62-.74.96-.98.34-.24.68-.36,1.03-.38.35-.02.66.11.95.38.3.29.51.61.63.97.12.36.18.73.18,1.11,0,.38-.04.75-.13,1.12-.09.36-.19.69-.31.98-.12.29-.23.53-.35.71-.12.18-.21.28-.27.29-.14.03-.25.03-.35-.02-.1-.04-.19-.11-.27-.2-.08-.09-.17-.2-.25-.32-.08-.12-.19-.25-.3-.39Z"/>
      </g>
      <g>
        <path class="cls-1" d="M27.27,14.99h-6.45c.14-3.57.22-7.3.22-11.15h6.01c0,3.84.08,7.58.22,11.15Z"/>
        <path class="cls-1" d="M45.04,34.11c-2.48,12.06-6.25,19.76-10.47,19.76s-8.04-7.25-10.52-18.58c-2.48,11.34-6.27,18.58-10.52,18.58C6.06,53.87,0,29.75,0,0h6.01c0,27.63,3.37,50.03,7.51,50.03,2.27,0,4.3-6.16,5.68-15.91h9.69c1.38,9.75,3.41,15.91,5.68,15.91s4.12-6.12,5.5-15.91h4.97Z"/>
        <path class="cls-1" d="M48.09,0c0,5.2-.19,10.23-.53,14.99h-5.83c.22-4.73.34-9.77.34-14.99h6.01Z"/>
      </g>
    </g>
  </g>
</svg>