<?xml version="1.0" encoding="UTF-8"?>
<svg id="Calque_2" data-name="Calque 2" xmlns="http://www.w3.org/2000/svg" viewBox="0 0 97.44 70.45">
  <defs>
    <style>
      .cls-1 {
        fill: #fff;
      }
    </style>
  </defs>
  <g id="Layer_2_copy" data-name="Layer 2 copy">
    <g>
      <g>
        <polygon class="cls-1" points="37.84 16.44 37.84 16.44 49.73 9.57 64.63 18.18 72.88 13.36 49.73 0 29.53 11.66 37.84 16.44"/>
        <polygon class="cls-1" points="49.73 47.64 33.52 38.28 25.26 43.09 49.73 57.21 67.01 47.24 58.83 42.38 49.73 47.64"/>
        <path class="cls-1" d="M29.07,13.2l8.08,4.63,28.51,16.46,1.65.95v-13.62l6.09-3.46v24.12l-3.01,1.74-7.12-4.11-29.48-17.02-1.65-.95v15.31l-6.09,3.57V14.94l3.01-1.74M29.07,11.93l-4.11,2.37v28.42l8.29-4.86v-14.03l29.48,17.02,7.67,4.43,4.11-2.37v-26.65l-8.29,4.72v12.35l-28.51-16.46-8.64-4.95h0Z"/>
      </g>
      <g>
        <path class="cls-1" d="M0,70.27v-6.9h2.17l3.11,3.55c.08.1.18.24.3.44.15.25.3.51.45.78-.06-.36-.09-.61-.1-.76-.02-.23-.03-.43-.03-.6v-3.41h2.16v6.9h-2.16l-3.11-3.56c-.05-.05-.14-.2-.3-.44-.14-.2-.29-.46-.45-.76.04.25.07.5.11.76.01.3.02.49.02.6v3.41H0Z"/>
        <path class="cls-1" d="M9.08,70.27v-6.9h5.05v1.52h-2.86v1.19h2.7v1.48h-2.7v1.16h2.86v1.55h-5.05Z"/>
        <path class="cls-1" d="M21.41,63.37l1.04,3.28c.05.13.09.29.14.46.01.06.04.15.06.27.03.12.05.21.06.28.05-.2.1-.41.14-.61.02-.1.06-.23.12-.41l.97-3.28h2.27l-2.33,6.9h-2.08l-1.02-2.95c-.07-.22-.13-.42-.18-.61,0-.02-.02-.06-.03-.11-.02-.06-.04-.12-.06-.2,0,.02-.03.11-.08.28-.07.25-.13.47-.2.65l-1,2.95h-2.09l-2.32-6.9h2.27l.95,3.3c.03.11.08.28.14.51.06.25.1.42.12.52.05-.19.09-.33.11-.41.07-.26.13-.46.17-.62l1.04-3.3h1.81Z"/>
        <path class="cls-1" d="M28.72,70.27v-5.27h-1.85v-1.63h5.94v1.63h-1.85v5.27h-2.25Z"/>
        <path class="cls-1" d="M33.73,70.27v-6.9h5.05v1.52h-2.86v1.19h2.7v1.48h-2.7v1.16h2.86v1.55h-5.05Z"/>
        <path class="cls-1" d="M45.5,63.64v2.06c-.32-.29-.63-.5-.91-.64-.32-.13-.65-.19-.99-.19-.64,0-1.16.18-1.57.55-.14.13-.25.27-.34.41-.09.14-.15.3-.19.49-.04.18-.06.36-.06.55,0,.55.2,1.01.61,1.38.41.36.93.54,1.56.54.34,0,.67-.07.99-.2.29-.12.59-.33.91-.63v2.06c-.42.16-.77.27-1.06.33-.36.07-.72.11-1.07.11-.44,0-.86-.04-1.25-.13-.39-.09-.74-.23-1.05-.41-.61-.35-1.08-.79-1.4-1.3-.32-.53-.48-1.13-.48-1.78,0-.52.1-1,.31-1.44.09-.21.21-.41.36-.6.14-.19.33-.38.56-.58.39-.34.84-.59,1.33-.75.49-.17,1.03-.25,1.62-.25.34,0,.7.03,1.07.1.37.08.72.19,1.06.33Z"/>
        <path class="cls-1" d="M46.4,70.27v-6.9h2.25v2.68h3v-2.68h2.25v6.9h-2.25v-2.81h-3v2.81h-2.25Z"/>
        <path class="cls-1" d="M64.85,63.64v2.06c-.32-.29-.63-.5-.91-.64-.32-.13-.65-.19-.99-.19-.64,0-1.16.18-1.57.55-.14.13-.25.27-.34.41-.09.14-.15.3-.19.49-.04.18-.06.36-.06.55,0,.55.2,1.01.61,1.38.41.36.93.54,1.56.54.34,0,.67-.07.99-.2.29-.12.59-.33.91-.63v2.06c-.42.16-.77.27-1.06.33-.36.07-.72.11-1.07.11-.44,0-.86-.04-1.25-.13-.39-.09-.74-.23-1.05-.41-.61-.35-1.08-.79-1.4-1.3-.32-.53-.48-1.13-.48-1.78,0-.52.1-1,.31-1.44.09-.21.21-.41.36-.6.14-.19.33-.38.56-.58.39-.34.84-.59,1.33-.75.49-.17,1.03-.25,1.62-.25.34,0,.7.03,1.07.1.37.08.72.19,1.06.33Z"/>
        <path class="cls-1" d="M65.74,70.27v-6.9h5.05v1.52h-2.86v1.19h2.7v1.48h-2.7v1.16h2.86v1.55h-5.05Z"/>
        <path class="cls-1" d="M71.72,70.27v-6.9h2.35c.45,0,.84,0,1.15.02.31.02.57.04.77.08.35.07.66.19.93.36.3.19.53.43.68.73.16.28.24.6.24.96,0,.53-.16.97-.47,1.31-.31.34-.76.56-1.37.66l2.25,2.78h-2.54l-1.89-2.7v2.7h-2.11ZM73.83,66.63h.42c.49,0,.85-.07,1.06-.2.22-.15.33-.37.33-.66,0-.35-.1-.59-.31-.74-.21-.15-.56-.22-1.05-.22h-.45v1.81Z"/>
        <path class="cls-1" d="M78.51,70.27l2.84-6.9h2.81l2.85,6.9h-2.23l-.42-1.23h-3.19l-.43,1.23h-2.23ZM81.66,67.7h2.23l-.84-2.28s-.05-.15-.11-.34c-.06-.22-.12-.41-.17-.59-.05.16-.1.32-.14.49-.06.16-.11.3-.15.44l-.83,2.28Z"/>
        <path class="cls-1" d="M97.44,70.27h-2.1l-.48-2.98c-.04-.27-.07-.5-.09-.7-.03-.2-.05-.48-.08-.84-.07.33-.17.69-.32,1.09-.03.08-.05.15-.07.2l-1.12,3.23h-1.5l-1.12-3.23c-.01-.05-.03-.12-.07-.2-.16-.42-.26-.79-.31-1.09-.03.35-.06.6-.08.77-.01.09-.03.22-.05.39-.02.17-.04.3-.05.39l-.48,2.98h-2.09l1.27-6.9h2.22l1.24,3.56c.02.07.04.11.05.13.11.3.18.57.22.81,0-.08.04-.22.08-.41.01-.05.07-.22.17-.53l1.25-3.55h2.23l1.27,6.9Z"/>
      </g>
    </g>
  </g>
</svg>