<?xml version="1.0" encoding="UTF-8"?>
<svg id="Calque_2" data-name="Calque 2" xmlns="http://www.w3.org/2000/svg" viewBox="0 0 103.95 47.49">
  <defs>
    <style>
      .cls-1 {
        fill: #fff;
      }

      .cls-2 {
        fill: #999;
      }
    </style>
  </defs>
  <g id="Layer_2_copy" data-name="Layer 2 copy">
    <g>
      <path class="cls-1" d="M16.45,19.59c.14,0,.29,0,.43,0h14.34c.14,0,.29,0,.43,0,1.1-.08,1.66-.98,1.63-1.71-.01-.25,0-.5,0-.75,0-.43-.17-.79-.46-1.09-.36-.38-.8-.53-1.32-.53-5.01,0-10.01,0-15.02,0-.36,0-.71.03-1.07.09-2.29.41-4.22,2.17-4.84,4.41-.17.61-.23,1.24-.23,1.87,0,3.4,0,6.79,0,10.19,0,.24.01.48.03.71.14,1.67.85,3.06,2.11,4.16,1.17,1.02,2.55,1.52,4.1,1.52,4.95,0,9.89,0,14.84,0,.08,0,.17,0,.25,0,.99-.07,1.63-.89,1.61-1.69,0-.24,0-.48,0-.72.02-.89-.76-1.68-1.66-1.67-.14,0-.29,0-.43,0-4.79,0-9.58,0-14.38,0-.23,0-.45,0-.68-.05-.83-.16-1.52-.84-1.67-1.67-.04-.2-.04-.4-.04-.6,0-1.23,0-2.46,0-3.68,0-.52-.04-.48.49-.48h16.3c.19,0,.38,0,.57-.06.71-.2,1.2-.82,1.24-1.58.01-.26.01-.52,0-.79-.05-.88-.64-1.52-1.51-1.64-.18-.02-.36-.02-.53-.02-5.33,0-10.66,0-15.98,0-.13,0-.26,0-.39,0-.13,0-.16-.04-.17-.18,0-.01,0-.02,0-.04,0-.69-.02-1.38.01-2.07.05-1.07.94-1.91,2.01-1.94Z"/>
      <path class="cls-1" d="M100.63,38.48h.36c.18,0,.36,0,.54,0,.46-.03.85-.22,1.15-.58.46-.56.55-1.18.26-1.84-.23-.51-.47-1.02-.7-1.53-1.31-2.83-2.61-5.67-3.92-8.5-1.31-2.83-2.61-5.67-3.91-8.5-.17-.38-.34-.76-.53-1.13-.46-.89-1.52-1.19-2.39-.68-.33.2-.55.49-.71.83-.92,2.01-1.85,4.02-2.78,6.03-1.06,2.29-2.11,4.59-3.17,6.88-.92,1.99-1.84,3.98-2.75,5.97-.12.26-.25.52-.35.78-.39,1.07.39,2.22,1.53,2.26.32,0,.64,0,.97,0,.33,0,.63-.12.9-.31.28-.2.47-.46.61-.78.24-.56.49-1.11.74-1.66,1.55-3.48,3.11-6.96,4.66-10.44.35-.78.7-1.56,1.05-2.35.03-.08.07-.15.11-.23.01-.03.04-.06.07-.07.04-.01.06.02.08.05.04.08.07.15.11.23.42.94.83,1.87,1.25,2.81,1.48,3.32,2.96,6.63,4.44,9.95.26.59.52,1.18.79,1.76.32.68.86,1.03,1.61,1.03Z"/>
      <path class="cls-1" d="M78.17,15.44c-.29,0-.57-.01-.86,0-.69.03-1.19.37-1.5.99-.04.09-.08.17-.12.26-1.17,2.69-2.34,5.37-3.52,8.06-.94,2.15-1.88,4.3-2.82,6.45-.04.09-.06.21-.16.27-.07-.04-.09-.11-.12-.18-.13-.3-.27-.61-.4-.92-1.79-4.09-3.57-8.19-5.36-12.28-.24-.55-.47-1.1-.72-1.64-.3-.66-.83-.99-1.55-1.01-.28,0-.57-.01-.86,0-1.14.06-1.9,1.2-1.5,2.28.05.13.11.26.17.39.85,1.88,1.7,3.75,2.55,5.63,2,4.41,4,8.83,6,13.24.09.21.18.42.29.62.32.6.83.92,1.51.91.67,0,1.18-.32,1.51-.92.06-.12.11-.24.17-.36.41-.9.81-1.8,1.22-2.7,1.14-2.53,2.29-5.06,3.44-7.58,1.14-2.52,2.28-5.03,3.42-7.55.25-.54.5-1.08.73-1.63.46-1.11-.32-2.3-1.52-2.34Z"/>
      <path class="cls-2" d="M56.87,34.39c-.14,0-.29,0-.43,0h-9.44c-.14,0-.29,0-.43,0-1.81-.21-2.91-1.81-2.89-3.17.04-2.29.01-4.58.01-6.86v-6.79c0-.13,0-.26,0-.39-.06-1.08-.91-1.68-1.72-1.66-.25,0-.5-.01-.75,0-.64.04-1.13.35-1.43.93-.15.28-.18.59-.18.9,0,4.59,0,9.18,0,13.76,0,.45.03.91.12,1.35.31,1.51.98,2.83,2.09,3.91,1.41,1.37,3.11,2.07,5.06,2.08,3.23.03,6.46,0,9.69,0,.1,0,.19,0,.29,0,.95-.05,1.58-.7,1.67-1.52.04-.37.03-.74-.01-1.11-.09-.81-.87-1.48-1.65-1.44Z"/>
      <path class="cls-1" d="M57.53,46.5c-.16,0-.31,0-.47,0-18.48,0-36.95,0-55.43,0-.12,0-.24,0-.36,0-.45,0-.43.02-.43-.43,0-1.34,0-2.67,0-4.01V1.41c0-.13,0-.26,0-.39,0-.11.05-.15.15-.16.16,0,.31,0,.47,0h90.4c.06,0,.12,0,.18,0,.08,0,.13.05.14.13,0,.12,0,.24,0,.36,0,3.23,0,6.46,0,9.69,0,.73-.1.61.66.62.15,0,.18-.04.19-.2,0-.06,0-.12,0-.18V.37c0-.08,0-.17,0-.25,0-.07-.05-.11-.12-.11-.14,0-.28,0-.43,0h-45.95C31.22,0,15.89,0,.56,0-.07,0,0-.08,0,.55,0,5.99,0,11.44,0,16.89v29.96c0,.12,0,.24,0,.36,0,.08.05.13.13.14.16,0,.31,0,.47,0h56.46c.12,0,.24,0,.36,0,.05,0,.09,0,.14-.01.05,0,.09-.04.09-.09.03-.2.02-.4,0-.61,0-.08-.06-.13-.14-.13Z"/>
      <path class="cls-1" d="M103.94,43.98c-.01-.08-.06-.12-.14-.13-.09,0-.19,0-.28,0h-3.89c-.1,0-.19,0-.29,0-.07,0-.11.04-.12.11,0,.07,0,.14,0,.21,0,.99,0,1.98,0,2.97,0,.07,0,.14,0,.21,0,.07.05.11.11.11.17,0,.33.01.5,0,.31,0,.31,0,.31-.33,0-.71,0-1.43,0-2.14,0-.1,0-.19,0-.29,0-.11.05-.15.16-.15.21,0,.43,0,.64,0,.11,0,.15.05.15.16,0,.09,0,.19,0,.28v2.04c0,.11,0,.21.02.32,0,.05.04.09.09.09.24,0,.48,0,.71,0,.07,0,.11-.05.12-.12,0-.09,0-.19,0-.28v-2.04c0-.1,0-.19,0-.29,0-.13.04-.17.17-.18.16,0,.31,0,.47,0,.31,0,.31,0,.31.33,0,.65,0,1.31,0,1.97,0,.73-.09.61.63.62.31,0,.32,0,.32-.32,0-1,0-2,0-3,0-.06,0-.12,0-.18Z"/>
      <path class="cls-1" d="M85.17,43.85c-.69,0-1.38,0-2.07,0h0c-.72,0-1.43,0-2.14,0-.18,0-.21.03-.22.2,0,.07,0,.14,0,.21v2.78c0,.08,0,.17,0,.25,0,.14.04.17.17.18.19,0,.38,0,.57,0,.16,0,.19-.03.2-.19,0-.24,0-.48,0-.71,0-.62-.08-.54.56-.54.48,0,.33-.05.73.28.02.01.03.03.05.05.39.33.77.67,1.16,1,.07.06.15.12.25.12.28,0,.57,0,.86,0,.02,0,.04-.02.06-.03.03-.04,0-.07-.02-.09-.3-.27-.61-.53-.92-.8-.14-.12-.29-.25-.43-.38-.03-.02-.06-.06-.03-.09.02-.02.06-.04.09-.04.08,0,.17,0,.25,0,.24,0,.48,0,.71,0,.07,0,.14,0,.21,0,.26,0,.27-.02.28-.29v-.04c0-.51,0-1.02,0-1.53,0-.31,0-.32-.32-.32ZM84,45.32c-.3,0-.59,0-.89,0h-1.07c-.08,0-.17,0-.25-.01-.07,0-.11-.05-.12-.11,0-.16,0-.33,0-.5,0-.06.04-.11.11-.12.07,0,.14-.01.21-.01h2.21c.07,0,.14,0,.21.01.07,0,.1.05.12.12,0,.01,0,.02,0,.04,0,.66.08.59-.54.59Z"/>
      <path class="cls-1" d="M75.91,46.77c-.98,0-1.95,0-2.93,0-.09,0-.19,0-.29,0-.23,0-.24-.02-.25-.24,0-.01,0-.02,0-.04,0-.48-.04-.46.43-.46.71,0,1.43,0,2.14,0,.27,0,.28-.02.29-.28v-.11c0-.32,0-.32-.32-.32-.7,0-1.4,0-2.11,0-.09,0-.19,0-.28,0-.08,0-.14-.04-.14-.13,0-.17,0-.33,0-.5,0-.06.05-.11.12-.11.11,0,.21,0,.32,0,.96,0,1.93,0,2.89,0,.11,0,.21,0,.32,0,.08,0,.14-.04.14-.13,0-.16,0-.31,0-.46,0-.06-.05-.11-.12-.12-.07,0-.14-.01-.21-.01-1.37,0-2.74,0-4.11,0-.31,0-.32,0-.32.33,0,1,0,2,0,3,0,.07,0,.14.02.21,0,.05.04.08.1.09.1,0,.19,0,.29,0,.65,0,1.31,0,1.97,0h1.93c.09,0,.19,0,.28,0,.14,0,.17-.03.18-.16,0-.07,0-.14,0-.21,0-.33,0-.33-.35-.33Z"/>
      <path class="cls-1" d="M63.61,44.57c.96,0,1.93,0,2.89,0,.16,0,.37.08.47-.06.11-.14.04-.35.04-.52,0-.08-.06-.12-.14-.13-.09,0-.19,0-.28,0h-3.93c-.1,0-.19,0-.28.01-.05,0-.09.04-.1.09-.01.06-.02.12-.02.18,0,1.02,0,2.05,0,3.07,0,.27.02.28.28.29.02,0,.05,0,.07,0h4.07c.07,0,.14,0,.21,0,.07,0,.11-.04.12-.11,0-.06,0-.12,0-.18,0-.43.03-.41-.4-.41h-2.93c-.09,0-.19,0-.28,0-.15,0-.18-.04-.19-.2,0-.06,0-.12,0-.18,0-.48,0-.95,0-1.43,0-.39,0-.39.4-.39Z"/>
      <path class="cls-1" d="M93.12,44.44l-.25-.48c-.04-.08-.11-.12-.2-.12-.2,0-.4,0-.61,0-.14,0-.22.05-.28.17-.14.28-.29.55-.43.82-.4.77-.81,1.54-1.21,2.31-.05.09-.13.18-.1.31.17.04.35.02.52.02.56,0,.43.08.69-.43.32-.62.64-1.25.96-1.88.03-.06.05-.14.16-.14.04.07.09.15.13.24.18.36.36.72.55,1.08.24.46.2.41-.27.42-.49,0-.45-.04-.45.47,0,.02,0,.05,0,.07,0,.12.04.15.15.16.04,0,.07,0,.11,0,.63,0,1.26,0,1.89,0,.05,0,.09,0,.19-.02-.04-.11-.07-.17-.1-.23-.48-.93-.97-1.86-1.46-2.78Z"/>
    </g>
  </g>
</svg>