<?xml version="1.0" encoding="UTF-8"?>
<svg id="Calque_2" data-name="Calque 2" xmlns="http://www.w3.org/2000/svg" viewBox="0 0 106.35 78.41">
  <defs>
    <style>
      .cls-1 {
        fill-rule: evenodd;
      }

      .cls-1, .cls-2 {
        fill: #fff;
      }
    </style>
  </defs>
  <g id="Layer_2_copy" data-name="Layer 2 copy">
    <g>
      <path class="cls-2" d="M50.05,1.27c1.66,0,3.22.64,4.38,1.81l18.48,18.48c2.42,2.43,2.42,6.37,0,8.79l-18.48,18.47c-1.17,1.16-2.72,1.81-4.38,1.81s-3.22-.64-4.38-1.81l-18.48-18.46c-2.42-2.42-2.41-6.36,0-8.78L45.66,3.08c1.16-1.16,2.72-1.81,4.38-1.81M50.05,0c-1.92,0-3.83.73-5.29,2.18l-18.48,18.48c-2.91,2.92-2.91,7.68,0,10.59l18.48,18.47c1.45,1.45,3.37,2.18,5.29,2.18s3.83-.73,5.29-2.18l18.48-18.47c2.91-2.91,2.91-7.66,0-10.59L55.33,2.18c-1.45-1.45-3.37-2.18-5.29-2.18h0Z"/>
      <path class="cls-2" d="M53.16,16.84c4.97,0,9.01,3.8,9.01,8.47s-4.04,8.49-9.01,8.49-8.99-3.81-8.99-8.49,4.03-8.47,8.99-8.47M53.16,15.57c-5.64,0-10.27,4.38-10.27,9.75s4.62,9.76,10.27,9.76,10.28-4.39,10.28-9.76-4.62-9.75-10.28-9.75h0Z"/>
      <path class="cls-2" d="M53.16,23.59c1.03,0,1.88.77,1.88,1.72s-.84,1.74-1.88,1.74-1.89-.78-1.89-1.74.85-1.72,1.89-1.72M53.16,22.31c-1.74,0-3.17,1.35-3.17,3s1.42,3.01,3.17,3.01,3.15-1.36,3.15-3.01-1.41-3-3.15-3h0Z"/>
      <path class="cls-2" d="M48.74,9.22v5.29c-1.84.73-3.36,1.73-4.56,3.02v-3.85c.2-2.51,2.27-3.96,4.56-4.45M50.01,7.76c-3.61.2-6.85,2.25-7.11,5.86v8.35c1.1-2.86,3.11-5.23,7.11-6.58v-7.63h0Z"/>
      <path class="cls-2" d="M44.25,33.09c1.21,1.29,2.73,2.28,4.58,3.01v5.28c-2.3-.48-4.38-1.92-4.58-4.45v-3.85M42.97,28.65v8.34c.26,3.61,3.52,5.68,7.13,5.84v-7.62c-4.01-1.33-6.03-3.72-7.13-6.56h0Z"/>
      <path class="cls-1" d="M32.77,63.14c0,.78-.35,1.39-1.04,1.82-.52.32-1.15.49-1.88.52v-1.74c.64-.06.96-.32.96-.8s-.32-.72-.96-.78v-1.67c.47-.06.7-.31.7-.69,0-.34-.23-.54-.7-.6v-1.74c.61.03,1.15.17,1.58.41.66.35.99.89.99,1.59,0,.83-.4,1.39-1.19,1.73.47.14.84.37,1.12.7.29.34.43.75.43,1.24ZM29.85,65.48h-2.65v-8.03h2.28c.12,0,.24,0,.37.02v1.74c-.11-.02-.23-.02-.37-.02h-.34v1.33h.34c.14,0,.26,0,.37-.03v1.67c-.09-.02-.2-.02-.31-.02h-.4v1.61h.4c.11,0,.21,0,.31-.02v1.74Z"/>
      <polygon class="cls-1" points="38.66 65.48 33.86 65.48 33.86 57.45 38.52 57.45 38.52 59.24 35.77 59.24 35.77 60.38 38.12 60.38 38.12 62.18 35.77 62.18 35.77 63.7 38.66 63.7 38.66 65.48"/>
      <polygon class="cls-1" points="46.45 65.48 44.53 65.48 41.76 60.94 41.76 65.48 39.85 65.48 39.85 57.45 41.76 57.45 44.53 62 44.53 57.45 46.45 57.45 46.45 65.48"/>
      <path class="cls-1" d="M53.7,60.33c0,.95-.38,1.67-1.18,2.2-.47.32-1.01.52-1.64.61v-1.81c.14-.05.28-.11.4-.2.31-.2.46-.47.46-.81s-.15-.6-.46-.81c-.12-.08-.26-.14-.4-.18v-1.85c.66.09,1.24.34,1.74.73.72.57,1.07,1.27,1.07,2.11ZM50.88,63.14c-.28.05-.55.06-.86.06v2.28h-1.91v-8.03h2.22c.18,0,.37.02.55.03v1.85c-.17-.06-.35-.09-.55-.09h-.31v2.17h.31c.2,0,.38-.03.55-.08v1.81Z"/>
      <path class="cls-1" d="M60.6,65.33l-1.93.43-.5-1.62h-1.27v-1.79h.72l-.72-2.39v.02-2.52h.81l2.89,7.88ZM56.89,64.14h-1.27l-.49,1.62-1.94-.43,2.89-7.88h.81v2.52l-.72,2.37h.72v1.79Z"/>
      <path class="cls-1" d="M67.42,64.55c-.72.81-1.65,1.21-2.81,1.21-1.06,0-1.93-.46-2.59-1.38-.61-.84-.92-1.82-.92-2.91s.32-2.02.95-2.88c.67-.95,1.53-1.41,2.55-1.41,1.16,0,2.1.4,2.81,1.21l-1.18,1.22c-.37-.46-.83-.69-1.39-.69-.64,0-1.12.28-1.42.84-.24.43-.37.99-.37,1.7,0,1.68.6,2.52,1.79,2.52.58,0,1.04-.28,1.39-.81l1.18,1.36Z"/>
      <polygon class="cls-1" points="75.33 64.78 73.49 65.76 70.42 62.01 70.42 65.48 68.49 65.48 68.49 57.45 70.42 57.45 70.42 60.74 73.11 57.25 74.89 58.11 72.07 61.34 75.33 64.78"/>
      <path class="cls-1" d="M92.38,77.38v-.98h0c.37,0,.63-.17.81-.49.12-.24.18-.55.18-.92s-.06-.67-.18-.92c-.18-.32-.44-.49-.81-.49h0v-.98h0c.66,0,1.21.24,1.64.77.4.46.6,1.01.6,1.62,0,.4-.09.77-.26,1.12-.18.38-.44.67-.78.9l1.13.99-1.21.4-1.12-1.03h0Z"/>
      <path class="cls-1" d="M100.93,75.38c0,.54-.18,1.01-.57,1.39-.4.41-.89.61-1.5.61s-1.1-.2-1.5-.61c-.38-.38-.57-.86-.57-1.39v-2.63h1.21v2.17c0,.41.03.72.11.93.14.35.38.54.75.54s.61-.18.75-.54c.08-.21.12-.52.12-.93v-2.17h1.19v2.63h0Z"/>
      <polygon class="cls-1" points="106.35 77.24 103.33 77.24 103.33 72.75 106.25 72.75 106.25 73.76 104.54 73.76 104.54 74.38 106.01 74.38 106.01 75.39 104.54 75.39 104.54 76.23 106.35 76.23 106.35 77.24"/>
      <path class="cls-1" d="M92.38,72.61v.98c-.37,0-.64.17-.81.49-.14.24-.2.55-.2.92s.06.67.2.92c.17.32.44.49.81.49v.98c-.67,0-1.22-.24-1.65-.76-.38-.46-.58-1.01-.58-1.62s.2-1.16.58-1.62c.43-.52.98-.77,1.65-.77h0Z"/>
      <polygon class="cls-1" points="71.86 76.48 71.86 75.49 72.32 75.49 71.86 74.15 71.86 74.17 71.86 72.75 72.37 72.75 74.19 77.15 72.96 77.38 72.66 76.48 71.86 76.48 71.86 76.48"/>
      <polygon class="cls-1" points="79.19 77.24 76.24 77.24 76.24 72.75 77.45 72.75 77.45 76.23 79.19 76.23 79.19 77.24 79.19 77.24"/>
      <polygon class="cls-1" points="84.3 77.24 81.33 77.24 81.33 72.75 82.54 72.75 82.54 76.23 84.3 76.23 84.3 77.24 84.3 77.24"/>
      <rect class="cls-2" x="86.57" y="72.75" width="1.21" height="4.5"/>
      <polygon class="cls-1" points="71.86 72.75 71.86 74.17 71.4 75.49 71.86 75.49 71.86 76.48 71.07 76.48 70.76 77.38 69.55 77.15 71.36 72.75 71.86 72.75 71.86 72.75"/>
      <polygon class="cls-1" points="35.1 76.27 35.1 75.27 35.55 75.27 35.1 73.94 35.1 73.96 35.1 72.53 35.61 72.53 37.41 76.94 36.21 77.17 35.9 76.27 35.1 76.27 35.1 76.27"/>
      <path class="cls-1" d="M42.59,76.53c-.46.55-1.09.81-1.88.81-.7,0-1.27-.24-1.71-.76-.4-.47-.6-1.04-.6-1.68,0-.6.21-1.13.64-1.61.46-.49,1.01-.72,1.67-.72.8,0,1.42.21,1.88.67l-.78.75c-.24-.29-.61-.44-1.1-.44-.34,0-.61.15-.83.46-.17.26-.26.55-.26.89,0,.37.08.69.23.96.2.34.47.5.86.5.26,0,.49-.08.69-.21v-1.22h1.19v1.61h0Z"/>
      <polygon class="cls-1" points="48.01 77.2 45 77.2 45 72.71 47.92 72.71 47.92 73.72 46.2 73.72 46.2 74.34 47.67 74.34 47.67 75.35 46.2 75.35 46.2 76.19 48.01 76.19 48.01 77.2 48.01 77.2"/>
      <polygon class="cls-1" points="57.8 77.18 56.61 77.38 56.24 74.43 55.39 77.24 54.27 77.24 53.41 74.43 53.08 77.38 51.87 77.18 52.82 72.75 53.93 72.75 54.84 75.79 55.74 72.75 56.86 72.75 57.8 77.18 57.8 77.18"/>
      <polygon class="cls-1" points="62.98 77.24 59.96 77.24 59.96 72.75 62.88 72.75 62.88 73.76 61.17 73.76 61.17 74.38 62.64 74.38 62.64 75.39 61.17 75.39 61.17 76.23 62.98 76.23 62.98 77.24 62.98 77.24"/>
      <polygon class="cls-1" points="68.59 73.76 67.32 73.76 67.32 77.24 66.13 77.24 66.13 73.76 64.86 73.76 64.86 72.75 68.59 72.75 68.59 73.76"/>
      <polygon class="cls-1" points="35.1 72.53 35.1 73.96 34.65 75.27 35.1 75.27 35.1 76.27 34.31 76.27 34 77.17 32.79 76.94 34.58 72.53 35.1 72.53 35.1 72.53"/>
      <path class="cls-1" d="M14.72,77.2v-.98c.4-.03.6-.18.6-.44s-.2-.41-.6-.44v-.92c.29-.05.43-.18.43-.4,0-.18-.14-.29-.43-.34v-.96c.38.02.7.09.98.23.41.2.63.49.63.89,0,.46-.24.78-.75.96.29.08.52.2.7.4.17.18.26.41.26.69,0,.44-.21.78-.64,1.01-.34.18-.72.29-1.18.31h0Z"/>
      <polygon class="cls-1" points="25.99 77.13 23.03 77.13 23.03 72.63 24.23 72.63 24.23 76.12 25.99 76.12 25.99 77.13 25.99 77.13"/>
      <polygon class="cls-1" points="31.31 77.2 28.36 77.2 28.36 72.71 29.55 72.71 29.55 76.19 31.31 76.19 31.31 77.2"/>
      <polygon class="cls-1" points="3 77.2 0 77.2 0 72.71 2.92 72.71 2.92 73.72 1.21 73.72 1.21 74.34 2.68 74.34 2.68 75.35 1.21 75.35 1.21 76.19 3 76.19 3 77.2 3 77.2"/>
      <path class="cls-1" d="M14.72,72.72v.96h-.44v.75h.2c.09,0,.17-.02.24-.02v.92h-.44v.89h.44v.98h-1.65v-4.5h1.41c.09,0,.17,0,.24.02h0Z"/>
      <polygon class="cls-1" points="10.89 77.14 9.7 77.34 9.33 74.39 8.49 77.2 7.36 77.2 6.52 74.39 6.17 77.34 4.96 77.14 5.91 72.71 7.04 72.71 7.92 75.75 8.83 72.71 9.94 72.71 10.89 77.14"/>
      <polygon class="cls-1" points="19.75 76.48 19.75 75.49 20.2 75.49 19.75 74.15 19.75 74.17 19.75 72.75 20.26 72.75 22.06 77.15 20.86 77.38 20.55 76.48 19.75 76.48 19.75 76.48"/>
      <polygon class="cls-1" points="19.75 72.75 19.75 74.17 19.29 75.49 19.75 75.49 19.75 76.48 18.96 76.48 18.65 77.38 17.44 77.15 19.23 72.75 19.75 72.75 19.75 72.75"/>
    </g>
  </g>
</svg>