<?xml version="1.0" encoding="UTF-8"?>
<svg id="Calque_2" data-name="Calque 2" xmlns="http://www.w3.org/2000/svg" viewBox="0 0 128.87 109.21">
  <defs>
    <style>
      .cls-1 {
        fill: #fff;
      }
    </style>
  </defs>
  <g id="Layer_2_copy" data-name="Layer 2 copy">
    <g>
      <g>
        <path class="cls-1" d="M20.95,79.3c-1.97,0-2.95.82-2.96,2.47v14.56c0,.99.26,1.67.77,2.02.42.31,1.16.46,2.2.45v.51h-8.43v-.51c2.04,0,3.07-.82,3.07-2.47v-6.65H5.46v6.65c0,.99.26,1.67.77,2.02.42.31,1.16.46,2.2.45v.51H0v-.51c2.04,0,3.07-.82,3.07-2.47v-14.56c0-.99-.25-1.67-.75-2.04-.42-.29-1.16-.43-2.21-.43v-.51h8.33v.51c-1.98,0-2.96.82-2.96,2.47v6.55h10.12v-6.55c0-.99-.26-1.67-.77-2.04-.42-.3-1.16-.44-2.2-.43v-.51h8.33v.51h0Z"/>
        <path class="cls-1" d="M39.68,94.46l-.58,4.87h-16.28v-.53c2.3-.03,3.46-.68,3.46-1.97v-15.59c0-.75-.2-1.26-.59-1.52-.42-.28-1.26-.42-2.52-.42v-.51h15.28l.16,4.44h-.53c-.23-2.23-.95-3.34-2.15-3.34h-7.03v8.15h5.6c.9,0,1.47-.84,1.74-2.53h.48v6.25h-.48c-.32-1.8-.9-2.7-1.74-2.7h-5.6v7.5c0,1.07.41,1.6,1.23,1.6h6.12c1.45,0,2.4-1.25,2.86-3.76l.58.04h0Z"/>
        <path class="cls-1" d="M67.92,99.33h-7.74v-.46c.48,0,1.05-.23,1.69-.68.68-.48,1.01-.95.98-1.42l-1.14-14.43-7.29,16.99h-.74l-7.62-17.54-.94,15.47c0,.46.38.86,1.13,1.19.63.28,1.21.42,1.75.42l.04.46h-6.43l-.04-.46c1.51,0,2.31-.69,2.39-2.07l.9-15.66c0-.61-.27-1.07-.81-1.37-.44-.25-.99-.38-1.63-.38v-.66h4.9l7.29,16.96,7.29-16.96h4.58v.66c-.12,0-.29,0-.52-.01-.23,0-.41-.01-.53-.01-.95,0-1.4.38-1.34,1.14l1.19,17.28c.03.31.41.57,1.14.78.58.16,1.09.25,1.52.25v.52h0Z"/>
        <path class="cls-1" d="M91.7,79.53c-1.05.13-1.62.21-1.72.25-.51.2-.77.67-.77,1.42v18.13h-.64l-15.53-17.41v14.98c0,1.25.82,1.88,2.47,1.88.22,0,.44-.01.65-.04v.59h-6.52l-.17-.59c1.59,0,2.39-.4,2.39-1.2v-16.44c0-.48-.29-.88-.87-1.19-.44-.24-.95-.4-1.52-.46l.09-.62h4.6l13.78,16.14v-13.77c0-.59-.3-1.03-.9-1.33-.48-.24-1.04-.35-1.68-.33v-.71h6.33l.04.17c0,.16-.01.34-.04.53h0Z"/>
        <path class="cls-1" d="M108.74,94.46l-.58,4.87h-16.28v-.53c2.3-.03,3.46-.68,3.46-1.97v-15.59c0-.75-.2-1.26-.59-1.52-.42-.28-1.26-.42-2.52-.42v-.51h15.28l.16,4.44h-.53c-.23-2.23-.95-3.34-2.15-3.34h-7.03v8.15h5.6c.9,0,1.47-.84,1.74-2.53h.48v6.25h-.48c-.32-1.8-.9-2.7-1.74-2.7h-5.6v7.5c0,1.07.41,1.6,1.23,1.6h6.12c1.45,0,2.4-1.25,2.86-3.76l.58.04h0Z"/>
        <path class="cls-1" d="M128.86,83.61l-.64.09c-.21-1.16-.38-1.93-.51-2.31-.35-1.05-.81-1.58-1.4-1.58h-5.52v16.8c0,.86.32,1.43.95,1.72.41.17,1.1.26,2.05.25v.75h-8.73v-.56c2.06.02,3.09-.7,3.09-2.15v-16.8h-5.45c-.94,0-1.57,1.33-1.89,3.99h-.46l.46-5.62h.26c.39.43.85.65,1.4.65h13.84c.56,0,1.1-.22,1.63-.65h.19l.72,5.44h0Z"/>
      </g>
      <g>
        <path class="cls-1" d="M35.88,107.19c-.23.22-.57.33-1.04.33h-.76v1.66h-.52v-3.97h1.28c.45,0,.79.11,1.02.32.23.22.35.5.35.84s-.11.61-.34.82h0ZM35.49,106.9c.14-.13.2-.3.2-.54,0-.49-.28-.74-.84-.74h-.76v1.46h.76c.29,0,.5-.06.64-.19h0Z"/>
        <path class="cls-1" d="M42.38,109.17l-.95-1.62h-.63v1.62h-.52v-3.97h1.28c.3,0,.55.05.76.15s.36.24.47.42c.1.17.15.37.15.6,0,.27-.08.51-.24.72s-.39.35-.71.42l1,1.67h-.62ZM40.81,107.13h.76c.28,0,.49-.07.63-.21s.21-.32.21-.56-.07-.42-.21-.55-.35-.19-.64-.19h-.76v1.51Z"/>
        <path class="cls-1" d="M47.97,108.95c-.3-.17-.54-.41-.72-.72s-.27-.66-.27-1.05.09-.74.27-1.05c.18-.31.42-.55.72-.72s.64-.26,1.01-.26.71.09,1.01.26.54.41.72.72c.17.31.26.66.26,1.05s-.09.74-.26,1.05-.41.55-.72.72c-.3.17-.64.26-1.01.26s-.71-.09-1.01-.26h0ZM49.73,108.57c.22-.13.4-.31.52-.55.13-.24.19-.52.19-.83s-.06-.6-.19-.83-.3-.42-.52-.55-.47-.19-.75-.19-.53.06-.75.19c-.22.13-.39.31-.52.55s-.19.52-.19.83.06.59.19.83c.13.24.3.42.52.55.22.13.47.19.75.19s.53-.06.75-.19h0Z"/>
        <path class="cls-1" d="M57.4,107.19c-.23.22-.57.33-1.04.33h-.76v1.66h-.52v-3.97h1.28c.45,0,.79.11,1.02.32.23.22.35.5.35.84s-.11.61-.34.82ZM57,106.9c.14-.13.2-.3.2-.54,0-.49-.28-.74-.84-.74h-.76v1.46h.76c.29,0,.5-.06.64-.19h0Z"/>
        <path class="cls-1" d="M62.32,105.62v1.33h1.45v.43h-1.45v1.37h1.62v.43h-2.14v-3.98h2.14v.43h-1.62Z"/>
        <path class="cls-1" d="M70.24,109.17l-.95-1.62h-.63v1.62h-.52v-3.97h1.28c.3,0,.55.05.76.15s.36.24.47.42.15.37.15.6c0,.27-.08.51-.24.72s-.39.35-.71.42l1,1.67h-.62ZM68.67,107.13h.76c.28,0,.49-.07.63-.21s.21-.32.21-.56-.07-.42-.21-.55-.35-.19-.64-.19h-.76v1.51Z"/>
        <path class="cls-1" d="M77.48,105.2v.42h-1.08v3.55h-.52v-3.55h-1.09v-.42h2.69Z"/>
        <path class="cls-1" d="M82.06,105.2v3.97h-.52v-3.97h.52Z"/>
        <path class="cls-1" d="M86.89,105.62v1.33h1.45v.43h-1.45v1.37h1.62v.43h-2.14v-3.98h2.14v.43h-1.62Z"/>
        <path class="cls-1" d="M93.27,109.07c-.21-.09-.37-.22-.49-.39s-.18-.36-.18-.57h.55c.02.19.1.34.23.47s.33.19.59.19.44-.06.58-.18.21-.28.21-.48c0-.15-.04-.28-.13-.37s-.19-.17-.31-.22c-.13-.05-.3-.1-.51-.16-.26-.07-.47-.14-.63-.21-.16-.07-.29-.18-.4-.32-.11-.15-.17-.34-.17-.59,0-.22.06-.41.16-.58s.27-.3.47-.39.43-.14.69-.14c.37,0,.68.09.92.28.24.19.37.43.4.74h-.57c-.02-.15-.1-.29-.24-.4s-.33-.17-.56-.17c-.22,0-.39.06-.53.17s-.21.27-.21.47c0,.15.04.26.12.35s.18.16.3.21c.12.05.29.1.5.16.26.07.47.14.63.21.16.07.3.18.41.32s.17.34.17.6c0,.19-.05.38-.15.55s-.26.31-.46.42c-.2.11-.44.16-.71.16s-.5-.05-.7-.14h0Z"/>
      </g>
      <g>
        <path class="cls-1" d="M82.92,60.39v8.74s2.58,0,2.58,0c.05-4.7.06-9.4.04-14.1.06-1.79,0-3.6.01-5.39.02-3.95.02-7.89-.01-11.84.82.66,1.73,1.23,2.51,1.94.13,3.13-.08,6.29.01,9.42-.13,2.38-.04,4.83-.03,7.22v12.76c.88,0,1.77,0,2.65,0l-.02-7.67c0-1.38.06-2.79-.01-4.16.07-2.62.01-5.24.02-7.86,0-2.65.09-5.32.02-7.97.76.61,1.52,1.27,2.35,1.78.09,1.68.04,3.37.03,5.05-.01,3.09-.05,6.2.04,9.29-.08,1.27,0,2.57,0,3.84v7.72h2.46c-.04-1.48,0-2.97,0-4.46v-8.7c0-1.75.07-3.53-.04-5.27.06-2.81-.06-5.63.05-8.44-2.08-1.38-4.01-2.99-5.99-4.51-2.2-1.69-4.46-3.32-6.68-4.99v14.55c0,2.67-.1,5.37,0,8.03-.05,1.66,0,3.33,0,5h0Z"/>
        <path class="cls-1" d="M71.62,42.54c-.63.49-1.31.93-1.97,1.39-1.79,1.24-3.63,2.41-5.42,3.65-5.26,3.62-10.51,7.26-15.83,10.8-.06,1.83-.04,3.67-.01,5.5-.04,1.75,0,3.51,0,5.26h2.18c0-1.44.12-3.32-.01-4.7.06-.52.02-1.09.02-1.61v-3.39c5.08-3.56,10.29-6.94,15.4-10.45,1.87-1.29,3.92-2.45,5.67-3.9-.02-.85-.01-1.69-.01-2.54h0Z"/>
        <path class="cls-1" d="M77.89,63.19c0,.63-.09,2.3.02,2.8-.04,1.05,0,2.11,0,3.16.85.01,1.7,0,2.55,0,.02-1.77.06-3.56,0-5.33.08-1.21,0-2.45,0-3.67v-7.21s.02-18.56.02-18.56c0-3.66-.05-7.33.05-10.99-.94-.61-1.84-1.28-2.76-1.93l.12,33.79v7.92s0,0,0,0Z"/>
        <path class="cls-1" d="M75.45,9.79v-2.16c-1.36-1.15-2.82-2.21-4.24-3.29-1.9-1.46-3.8-2.91-5.72-4.34-.1,2.55-.05,5.11-.03,7.66,0,4.24,0,8.48.03,12.73v1.51h-1.86V7.86c0-1.23.03-2.47,0-3.7-.98.53-1.87,1.26-2.78,1.91l-4.36,3.08c-.92.66-2.12,1.39-2.93,2.16l.03,8.79c-1.7,1.25-3.45,2.45-5.13,3.72.08,3.17.04,6.35.05,9.53v17.01c-.77.55-1.53,1.16-2.33,1.64-.12-4.47-.03-8.96-.03-13.43,0-1.82.1-3.71-.03-5.52-1.64.97-3.16,2.16-4.73,3.25l-5.32,3.74c-.94.66-1.9,1.3-2.82,1.99v27.13c.86,0,1.72-.02,2.58-.01l.05-25.94c.81-.61,1.69-1.13,2.49-1.76l.02,27.69h2.48s0-29.35,0-29.35c.89-.51,1.72-1.12,2.56-1.71v31.06s2.6,0,2.6,0l.02-14.24c2.28-1.69,4.69-3.17,7.04-4.76l15.39-10.54c1.6-1.12,3.23-2.19,4.81-3.34l-.05,32.91h2.2v-36.86l-.02-13.82c0-2.88.1-5.8,0-8.68h0ZM53.58,47.07c-.76.54-1.52,1.09-2.27,1.65l-.06.02c-.12-.2-.02-21.92-.04-24.26.79-.51,1.53-1.07,2.31-1.59l.05.02c.15.41,0,8.92,0,10.11.04,4.68.04,9.37,0,14.05h0ZM57.81,44.29c-.69.47-1.38,1.01-2.1,1.41V12.34c1.02-.76,2.13-1.42,3.13-2.21.96-.52,1.85-1.29,2.71-1.96-.04.95-.04,1.9-.04,2.86v18.22c0,4.18-.11,8.38.04,12.56-1.27.8-2.5,1.64-3.73,2.49h0ZM65.44,39.1c-.6.42-1.2.87-1.82,1.25v-16h1.86l-.04,14.74h0ZM73.27,14.77c-.03,6.3-.02,12.6.02,18.91-1.09.84-2.25,1.59-3.4,2.35-.79.52-1.56,1.07-2.38,1.54-.1-2.24,0-4.53,0-6.78l.03-15.27c0-2.45.06-4.92,0-7.37.01-1.31.02-2.62,0-3.93,1.3,1.15,2.73,2.17,4.11,3.22.55.42,1.15.81,1.66,1.28-.16.39-.03,5.3-.03,6.06h0Z"/>
      </g>
    </g>
  </g>
</svg>