<?xml version="1.0" encoding="UTF-8"?>
<svg id="Calque_2" data-name="Calque 2" xmlns="http://www.w3.org/2000/svg" viewBox="0 0 119.58 96.73">
  <defs>
    <style>
      .cls-1 {
        fill: #fff;
      }
    </style>
  </defs>
  <g id="Layer_2_copy" data-name="Layer 2 copy">
    <g>
      <g>
        <path class="cls-1" d="M53.37,43.31h-15.85v8.53h14.6c1.07,0,1.88.24,2.41.72.53.48.79,1.12.79,1.91s-.26,1.43-.78,1.93-1.33.75-2.42.75h-14.6v9.88h16.4c1.11,0,1.94.26,2.5.77s.84,1.2.84,2.05-.28,1.49-.84,2c-.56.51-1.39.77-2.5.77h-19.12c-1.53,0-2.63-.34-3.31-1.02-.67-.68-1.01-1.78-1.01-3.29v-26.12c0-1.01.15-1.84.45-2.48.3-.64.77-1.11,1.41-1.4.64-.29,1.46-.44,2.45-.44h18.58c1.12,0,1.95.25,2.5.75.54.5.82,1.15.82,1.95s-.27,1.48-.82,1.98c-.55.5-1.38.75-2.5.75Z"/>
        <path class="cls-1" d="M85.41,43.69h-7.68v25.24c0,1.45-.32,2.53-.97,3.23-.65.7-1.49,1.05-2.51,1.05s-1.89-.36-2.55-1.07c-.66-.71-.98-1.79-.98-3.22v-25.24h-7.68c-1.2,0-2.09-.26-2.68-.79s-.88-1.23-.88-2.1.3-1.61.91-2.13c.61-.52,1.49-.78,2.64-.78h22.37c1.22,0,2.12.27,2.71.81.59.54.89,1.24.89,2.11s-.3,1.57-.9,2.1c-.6.53-1.5.79-2.7.79Z"/>
        <path class="cls-1" d="M119.58,62.2c0,2.1-.54,3.99-1.62,5.66-1.08,1.68-2.67,2.99-4.75,3.93-2.09.95-4.56,1.42-7.42,1.42-3.43,0-6.26-.65-8.48-1.94-1.58-.93-2.86-2.18-3.85-3.73-.99-1.56-1.48-3.07-1.48-4.54,0-.85.3-1.58.89-2.19.59-.61,1.35-.91,2.26-.91.74,0,1.37.24,1.88.71.51.47.95,1.18,1.32,2.11.44,1.11.92,2.03,1.43,2.77.51.74,1.24,1.36,2.17,1.84.93.48,2.16.72,3.67.72,2.09,0,3.78-.49,5.08-1.46,1.3-.97,1.95-2.18,1.95-3.64,0-1.15-.35-2.09-1.05-2.81s-1.61-1.27-2.72-1.65c-1.11-.38-2.6-.78-4.47-1.21-2.5-.58-4.59-1.27-6.27-2.05-1.68-.78-3.02-1.85-4.01-3.2s-1.48-3.03-1.48-5.04.52-3.61,1.56-5.1c1.04-1.48,2.55-2.63,4.53-3.42,1.97-.8,4.3-1.2,6.97-1.2,2.13,0,3.98.26,5.53.79,1.56.53,2.85,1.23,3.87,2.11,1.03.88,1.78,1.8,2.25,2.76.47.96.71,1.9.71,2.82,0,.84-.3,1.59-.89,2.26s-1.33,1.01-2.22,1.01c-.81,0-1.42-.2-1.84-.6-.42-.4-.87-1.06-1.36-1.98-.63-1.31-1.39-2.33-2.27-3.07-.89-.73-2.31-1.1-4.27-1.1-1.82,0-3.28.4-4.4,1.2-1.11.8-1.67,1.76-1.67,2.88,0,.7.19,1.3.57,1.8.38.51.9.94,1.56,1.3.66.36,1.33.65,2.01.85s1.8.51,3.37.9c1.96.46,3.73.96,5.32,1.52,1.59.55,2.94,1.22,4.05,2.01s1.98,1.79,2.61,3c.62,1.21.94,2.69.94,4.44Z"/>
      </g>
      <g>
        <path class="cls-1" d="M68.5,21.94l-15.63-15.63c-.7-.7-1.61-1.04-2.52-1.03-.91,0-1.83.33-2.52,1.03l-15.63,15.63c-1.37,1.37-1.37,3.6,0,4.98h0c1.37,1.37,3.6,1.37,4.98,0l13.17-13.17,13.17,13.17c1.37,1.37,3.6,1.37,4.98,0h0c1.37-1.37,1.37-3.6,0-4.98Z"/>
        <path class="cls-1" d="M1.03,10.97l15.63,15.63c.7.7,1.61,1.04,2.52,1.03.91,0,1.83-.33,2.52-1.03l15.63-15.63c1.37-1.37,1.37-3.6,0-4.98h0c-1.37-1.37-3.6-1.37-4.98,0l-13.17,13.17L6.01,5.99c-1.37-1.37-3.6-1.37-4.98,0h0c-1.37,1.37-1.37,3.6,0,4.98Z"/>
        <circle class="cls-1" cx="19.18" cy="5.17" r="5.17"/>
      </g>
      <g>
        <path class="cls-1" d="M37,79.75h-3.05v1.64h2.81c.21,0,.36.05.46.14s.15.22.15.37-.05.28-.15.37c-.1.1-.26.14-.47.14h-2.81v1.9h3.16c.21,0,.37.05.48.15.11.1.16.23.16.39s-.05.29-.16.39c-.11.1-.27.15-.48.15h-3.68c-.3,0-.51-.07-.64-.2-.13-.13-.19-.34-.19-.63v-5.03c0-.19.03-.35.09-.48s.15-.21.27-.27c.12-.06.28-.08.47-.08h3.58c.22,0,.38.05.48.14s.16.22.16.38-.05.29-.16.38-.27.14-.48.14Z"/>
        <path class="cls-1" d="M38.74,84.75v-5.41c0-.25.06-.44.17-.57.11-.13.26-.19.45-.19s.34.06.46.19c.12.13.17.32.17.57v5.41c0,.25-.06.44-.18.57-.12.13-.27.19-.45.19s-.33-.07-.45-.2c-.11-.13-.17-.32-.17-.56Z"/>
        <path class="cls-1" d="M44.75,83.28h-2.44c0,.28.06.53.17.75.11.22.26.38.44.49.18.11.39.16.61.16.15,0,.29-.02.41-.05s.24-.09.36-.16.22-.15.32-.24c.1-.09.22-.2.38-.35.06-.05.16-.08.27-.08.13,0,.23.04.31.11.08.07.12.17.12.3,0,.11-.04.24-.13.39s-.22.3-.4.43c-.18.14-.4.25-.67.34-.27.09-.58.14-.93.14-.8,0-1.42-.23-1.87-.68-.44-.46-.67-1.08-.67-1.86,0-.37.05-.71.16-1.02.11-.31.27-.58.48-.81.21-.22.47-.4.78-.52.31-.12.65-.18,1.02-.18.49,0,.9.1,1.25.31s.61.47.78.8.26.66.26,1c0,.31-.09.52-.27.61-.18.09-.43.14-.76.14ZM42.31,82.57h2.26c-.03-.43-.15-.74-.34-.96-.2-.21-.46-.32-.79-.32s-.57.11-.76.32c-.2.21-.32.53-.36.95Z"/>
        <path class="cls-1" d="M47.47,81.22l1.01,2.83,1.09-2.95c.09-.24.17-.41.25-.5s.21-.15.37-.15c.16,0,.29.05.4.16s.17.23.17.37c0,.05,0,.12-.03.19s-.04.14-.07.21c-.03.06-.06.14-.09.22l-1.2,2.97c-.03.09-.08.19-.13.32s-.11.24-.18.34-.15.17-.24.22c-.1.05-.21.08-.35.08-.18,0-.32-.04-.42-.12s-.18-.17-.23-.26c-.05-.1-.13-.29-.25-.57l-1.19-2.93c-.03-.07-.06-.15-.08-.22s-.05-.15-.07-.22-.03-.14-.03-.2c0-.09.03-.17.08-.25s.12-.15.21-.21c.09-.05.19-.08.3-.08.21,0,.35.06.43.18s.16.32.26.6Z"/>
        <path class="cls-1" d="M54.69,84.81c-.3.23-.59.41-.87.53s-.6.18-.95.18c-.32,0-.6-.06-.84-.19-.24-.13-.43-.3-.56-.51-.13-.22-.2-.45-.2-.7,0-.34.11-.63.32-.87.22-.24.51-.4.89-.48.08-.02.28-.06.59-.12.31-.06.58-.12.81-.18.22-.05.47-.12.73-.19-.02-.33-.08-.57-.2-.72-.12-.15-.36-.23-.73-.23-.32,0-.55.04-.71.13-.16.09-.3.22-.41.4-.11.18-.19.29-.24.35-.05.06-.15.08-.3.08-.14,0-.26-.04-.36-.13s-.15-.2-.15-.34c0-.22.08-.43.23-.64.16-.21.4-.38.73-.51s.74-.2,1.23-.2c.55,0,.98.06,1.29.19.31.13.53.33.66.61s.19.65.19,1.11c0,.29,0,.54,0,.74,0,.2,0,.43,0,.68,0,.23.04.48.12.73.08.25.12.42.12.49,0,.13-.06.24-.18.35-.12.11-.26.16-.41.16-.13,0-.25-.06-.38-.18-.12-.12-.26-.29-.4-.52ZM54.6,83c-.18.07-.45.14-.8.21-.35.07-.59.13-.72.16-.13.03-.26.1-.38.21-.12.1-.18.24-.18.43s.07.35.21.48c.14.13.33.2.56.2.25,0,.47-.05.68-.16.21-.11.36-.25.46-.42.11-.19.17-.5.17-.93v-.18Z"/>
        <path class="cls-1" d="M56.93,80.55h.14v-.75c0-.2,0-.36.02-.47.01-.11.04-.21.09-.29.05-.09.12-.15.21-.21.09-.05.19-.08.31-.08.16,0,.3.06.43.18.09.08.14.18.16.29s.03.28.03.49v.85h.46c.18,0,.31.04.4.13s.14.19.14.32c0,.17-.07.28-.2.35-.13.07-.32.1-.57.1h-.23v2.29c0,.19,0,.34.02.45.01.11.05.19.11.26.06.07.16.1.29.1.07,0,.17-.01.3-.04.12-.03.22-.04.29-.04.1,0,.19.04.27.12.08.08.12.18.12.3,0,.2-.11.35-.33.46-.22.11-.53.16-.94.16-.39,0-.68-.07-.89-.2-.2-.13-.33-.31-.39-.54-.06-.23-.09-.54-.09-.93v-2.39h-.16c-.18,0-.32-.04-.41-.13-.09-.08-.14-.19-.14-.32s.05-.24.15-.32.24-.13.43-.13Z"/>
        <path class="cls-1" d="M63.65,83.28h-2.44c0,.28.06.53.17.75.11.22.26.38.44.49.18.11.39.16.61.16.15,0,.29-.02.41-.05s.24-.09.36-.16c.12-.07.22-.15.32-.24.1-.09.22-.2.38-.35.06-.05.16-.08.27-.08.13,0,.23.04.31.11.08.07.12.17.12.3,0,.11-.04.24-.13.39s-.22.3-.4.43c-.18.14-.4.25-.67.34-.27.09-.58.14-.93.14-.8,0-1.42-.23-1.87-.68-.44-.46-.67-1.08-.67-1.86,0-.37.05-.71.16-1.02.11-.31.27-.58.48-.81.21-.22.47-.4.78-.52.31-.12.65-.18,1.02-.18.49,0,.9.1,1.25.31.35.21.61.47.78.8.17.33.26.66.26,1,0,.31-.09.52-.27.61-.18.09-.43.14-.76.14ZM61.21,82.57h2.26c-.03-.43-.15-.74-.34-.96-.2-.21-.46-.32-.79-.32s-.57.11-.76.32c-.2.21-.32.53-.36.95Z"/>
        <path class="cls-1" d="M72.49,79.82h-1.48v4.86c0,.28-.06.49-.19.62-.12.14-.29.2-.48.2s-.36-.07-.49-.21c-.13-.14-.19-.34-.19-.62v-4.86h-1.48c-.23,0-.4-.05-.52-.15-.11-.1-.17-.24-.17-.4s.06-.31.18-.41c.12-.1.29-.15.51-.15h4.31c.23,0,.41.05.52.16.11.1.17.24.17.41s-.06.3-.17.4c-.12.1-.29.15-.52.15Z"/>
        <path class="cls-1" d="M76.79,83.28h-2.44c0,.28.06.53.17.75.11.22.26.38.44.49.18.11.39.16.61.16.15,0,.29-.02.41-.05.12-.03.24-.09.36-.16.12-.07.22-.15.32-.24.1-.09.22-.2.38-.35.06-.05.16-.08.27-.08.13,0,.23.04.31.11.08.07.12.17.12.3,0,.11-.04.24-.13.39-.09.15-.22.3-.4.43-.18.14-.4.25-.67.34-.27.09-.58.14-.93.14-.8,0-1.42-.23-1.87-.68-.44-.46-.67-1.08-.67-1.86,0-.37.05-.71.16-1.02.11-.31.27-.58.48-.81.21-.22.47-.4.78-.52.31-.12.65-.18,1.02-.18.49,0,.9.1,1.25.31.35.21.61.47.78.8s.26.66.26,1c0,.31-.09.52-.27.61-.18.09-.43.14-.76.14ZM74.36,82.57h2.26c-.03-.43-.15-.74-.34-.96-.2-.21-.46-.32-.79-.32s-.57.11-.76.32c-.2.21-.32.53-.36.95Z"/>
        <path class="cls-1" d="M83.34,83.97c0,.16-.05.32-.14.5s-.23.34-.42.5c-.19.16-.43.29-.72.39s-.61.15-.98.15c-.77,0-1.37-.22-1.8-.67-.43-.45-.65-1.05-.65-1.81,0-.51.1-.96.3-1.36.2-.39.48-.7.86-.91s.82-.32,1.34-.32c.32,0,.62.05.89.14.27.09.5.22.68.37.19.15.33.31.43.48.1.17.15.33.15.47s-.06.28-.17.38c-.11.1-.25.16-.4.16-.1,0-.19-.03-.26-.08s-.15-.14-.23-.26c-.15-.23-.31-.41-.48-.52s-.38-.17-.63-.17c-.37,0-.66.14-.89.43-.23.29-.34.68-.34,1.18,0,.23.03.45.09.65s.14.36.25.5c.11.14.24.24.4.32s.33.11.51.11c.25,0,.46-.06.64-.17.18-.12.34-.29.47-.53.08-.14.16-.25.25-.33s.2-.12.32-.12c.15,0,.28.06.38.17.1.12.15.24.15.37Z"/>
        <path class="cls-1" d="M85.41,79.35v1.85c.16-.18.31-.33.46-.43.15-.11.32-.19.5-.24s.38-.08.59-.08c.32,0,.6.07.84.2s.44.33.58.58c.09.15.15.32.18.5.03.18.05.4.05.64v2.39c0,.25-.06.44-.17.57-.11.13-.27.19-.45.19-.41,0-.62-.25-.62-.76v-2.1c0-.4-.06-.71-.18-.92-.12-.21-.34-.32-.68-.32-.22,0-.42.06-.6.19s-.31.3-.4.52c-.07.19-.1.52-.1.99v1.65c0,.25-.06.43-.17.56-.11.13-.27.19-.46.19-.41,0-.62-.25-.62-.76v-5.41c0-.25.05-.44.16-.57.11-.13.26-.19.45-.19s.35.06.46.19c.11.13.17.32.17.57Z"/>
        <path class="cls-1" d="M90.97,81.13v.15c.22-.29.46-.5.72-.64s.56-.2.9-.2.62.07.88.21c.26.14.45.35.58.61.08.15.14.32.16.49.02.18.04.4.04.68v2.32c0,.25-.06.44-.17.57-.11.13-.26.19-.45.19s-.34-.07-.45-.2c-.12-.13-.17-.32-.17-.56v-2.08c0-.41-.06-.72-.17-.94-.11-.22-.34-.33-.68-.33-.22,0-.42.07-.61.2s-.32.31-.4.55c-.06.19-.09.53-.09,1.04v1.56c0,.25-.06.44-.18.57-.12.13-.27.19-.45.19s-.33-.07-.44-.2-.17-.32-.17-.56v-3.6c0-.24.05-.41.16-.53.1-.12.25-.18.42-.18.11,0,.21.03.3.08.09.05.16.13.21.23.05.1.08.23.08.38Z"/>
        <path class="cls-1" d="M100.15,82.98c0,.37-.06.71-.17,1.03-.12.31-.28.58-.5.81s-.48.4-.79.52c-.3.12-.65.18-1.03.18s-.72-.06-1.02-.18-.56-.3-.78-.52-.39-.49-.5-.8c-.11-.31-.17-.65-.17-1.02s.06-.72.17-1.04c.12-.31.28-.58.5-.8.22-.22.48-.39.79-.51.31-.12.65-.18,1.02-.18s.72.06,1.03.18.57.3.79.52c.22.22.39.49.5.8s.17.65.17,1.03ZM98.9,82.98c0-.51-.11-.9-.34-1.19s-.52-.42-.9-.42c-.24,0-.46.06-.64.19-.19.13-.33.31-.43.56-.1.25-.15.53-.15.86s.05.61.15.85c.1.24.24.43.42.56.18.13.4.19.65.19.38,0,.68-.14.9-.43.22-.28.34-.68.34-1.18Z"/>
        <path class="cls-1" d="M101.13,84.75v-5.41c0-.25.06-.44.17-.57.11-.13.26-.19.45-.19s.34.06.46.19c.12.13.17.32.17.57v5.41c0,.25-.06.44-.18.57-.12.13-.27.19-.45.19s-.33-.07-.45-.2c-.11-.13-.17-.32-.17-.56Z"/>
        <path class="cls-1" d="M108.33,82.98c0,.37-.06.71-.17,1.03-.12.31-.28.58-.5.81-.22.23-.48.4-.79.52-.3.12-.65.18-1.03.18s-.72-.06-1.02-.18-.56-.3-.78-.52c-.22-.23-.39-.49-.5-.8-.11-.31-.17-.65-.17-1.02s.06-.72.17-1.04c.12-.31.28-.58.5-.8.22-.22.48-.39.79-.51.31-.12.65-.18,1.02-.18s.72.06,1.03.18.57.3.79.52c.22.22.39.49.5.8.11.31.17.65.17,1.03ZM107.08,82.98c0-.51-.11-.9-.34-1.19-.22-.28-.52-.42-.9-.42-.24,0-.46.06-.64.19-.19.13-.33.31-.43.56s-.15.53-.15.86.05.61.15.85c.1.24.24.43.42.56s.4.19.65.19c.38,0,.68-.14.9-.43.22-.28.34-.68.34-1.18Z"/>
        <path class="cls-1" d="M113.9,81.36v3.62c0,.41-.04.77-.13,1.07s-.23.55-.42.74c-.19.19-.45.34-.76.43-.31.09-.71.14-1.18.14-.43,0-.81-.06-1.15-.18-.34-.12-.6-.28-.78-.47-.18-.19-.27-.39-.27-.59,0-.15.05-.28.16-.37.1-.1.23-.14.37-.14.18,0,.34.08.48.24.07.08.14.17.21.25s.15.16.24.21c.09.06.19.1.31.13.12.03.26.04.42.04.32,0,.57-.04.75-.13s.3-.22.37-.38.11-.33.13-.52c.01-.18.02-.48.03-.89-.19.27-.41.47-.66.61-.25.14-.55.21-.9.21-.42,0-.78-.11-1.09-.32-.31-.21-.55-.51-.72-.89-.17-.38-.25-.83-.25-1.33,0-.37.05-.71.15-1.01.1-.3.25-.56.44-.76.19-.21.41-.36.65-.47.25-.11.52-.16.81-.16.35,0,.66.07.92.2.26.14.5.35.72.64v-.17c0-.22.05-.38.16-.5s.24-.18.41-.18c.24,0,.4.08.48.24s.12.38.12.68ZM110.29,82.94c0,.51.11.89.33,1.15s.51.39.86.39c.21,0,.4-.06.59-.17s.33-.28.45-.5c.12-.22.17-.5.17-.81,0-.51-.11-.9-.34-1.19-.22-.28-.52-.42-.88-.42s-.64.14-.86.41c-.21.27-.32.66-.32,1.15Z"/>
        <path class="cls-1" d="M116.31,85.66l.11-.28-1.53-3.86c-.09-.22-.14-.38-.14-.48,0-.11.03-.21.08-.3.05-.09.13-.16.23-.22s.2-.08.3-.08c.18,0,.31.06.41.17.09.11.17.28.24.49l1.05,3.07,1-2.85c.08-.23.15-.41.21-.54.06-.13.13-.22.2-.26.07-.05.17-.07.3-.07.09,0,.18.03.27.08.09.05.15.12.2.2.05.08.07.17.07.27-.01.06-.03.14-.06.25-.03.11-.06.21-.1.32l-1.63,4.25c-.14.37-.28.67-.41.88-.13.21-.31.38-.53.49-.22.11-.52.17-.89.17s-.64-.04-.82-.12c-.18-.08-.27-.22-.27-.43,0-.14.04-.25.13-.33s.22-.12.39-.12c.07,0,.13,0,.2.03.08.02.15.03.21.03.14,0,.26-.02.34-.06.08-.04.16-.12.22-.22.07-.1.14-.26.23-.46Z"/>
        <path class="cls-1" d="M37.67,94.61c0,.4-.1.77-.31,1.09-.21.32-.51.58-.91.76-.4.18-.88.27-1.43.27-.66,0-1.2-.12-1.63-.37-.3-.18-.55-.42-.74-.72-.19-.3-.29-.59-.29-.87,0-.16.06-.3.17-.42.11-.12.26-.18.44-.18.14,0,.26.05.36.14s.18.23.25.41c.08.21.18.39.28.53.1.14.24.26.42.35.18.09.42.14.71.14.4,0,.73-.09.98-.28.25-.19.38-.42.38-.7,0-.22-.07-.4-.2-.54-.14-.14-.31-.24-.52-.32-.21-.07-.5-.15-.86-.23-.48-.11-.88-.24-1.21-.4-.32-.15-.58-.36-.77-.62-.19-.26-.29-.58-.29-.97s.1-.7.3-.98c.2-.29.49-.51.87-.66.38-.15.83-.23,1.34-.23.41,0,.77.05,1.07.15.3.1.55.24.75.41.2.17.34.35.43.53.09.19.14.37.14.54,0,.16-.06.31-.17.44-.11.13-.26.19-.43.19-.16,0-.27-.04-.35-.12s-.17-.2-.26-.38c-.12-.25-.27-.45-.44-.59-.17-.14-.44-.21-.82-.21-.35,0-.63.08-.85.23s-.32.34-.32.55c0,.13.04.25.11.35.07.1.17.18.3.25.13.07.26.12.39.16.13.04.35.1.65.17.38.09.72.19,1.02.29.31.11.57.24.78.39s.38.34.5.58c.12.23.18.52.18.86Z"/>
        <path class="cls-1" d="M43.4,94.2c0,.37-.06.71-.17,1.03-.12.31-.28.58-.5.81s-.48.4-.79.52c-.3.12-.65.18-1.03.18s-.72-.06-1.02-.18-.56-.3-.78-.52-.39-.49-.5-.8c-.11-.31-.17-.65-.17-1.02s.06-.72.17-1.04c.12-.31.28-.58.5-.8.22-.22.48-.39.79-.51.31-.12.65-.18,1.02-.18s.72.06,1.03.18.57.3.79.52c.22.22.39.49.5.8s.17.65.17,1.03ZM42.15,94.2c0-.51-.11-.9-.34-1.19s-.52-.42-.9-.42c-.24,0-.46.06-.64.19-.19.13-.33.31-.43.56-.1.25-.15.53-.15.86s.05.61.15.85c.1.24.24.43.42.56.18.13.4.19.65.19.38,0,.68-.14.9-.43.22-.28.34-.68.34-1.18Z"/>
        <path class="cls-1" d="M44.38,95.97v-5.41c0-.25.06-.44.17-.57.11-.13.26-.19.45-.19s.34.06.46.19c.12.13.17.32.17.57v5.41c0,.25-.06.44-.18.57-.12.13-.27.19-.45.19s-.33-.07-.45-.2c-.11-.13-.17-.32-.17-.56Z"/>
        <path class="cls-1" d="M50.15,96.03v-.16c-.15.19-.31.35-.47.47s-.34.22-.54.29c-.19.06-.42.09-.67.09-.3,0-.57-.06-.81-.19-.24-.12-.42-.3-.55-.52-.16-.26-.23-.64-.23-1.14v-2.47c0-.25.06-.44.17-.56.11-.12.26-.19.45-.19s.34.06.46.19c.12.12.17.31.17.56v1.99c0,.29.02.53.07.73.05.2.14.35.26.46.13.11.3.17.51.17s.41-.06.59-.19c.19-.12.32-.29.41-.49.07-.18.11-.56.11-1.16v-1.52c0-.25.06-.43.17-.56.12-.12.27-.19.45-.19s.33.06.45.19c.11.12.17.31.17.56v3.61c0,.24-.05.42-.16.53-.11.12-.25.18-.42.18s-.31-.06-.42-.18-.17-.3-.17-.52Z"/>
        <path class="cls-1" d="M52.63,91.77h.14v-.75c0-.2,0-.36.02-.47s.04-.21.09-.29c.05-.09.12-.15.21-.21s.19-.08.31-.08c.16,0,.3.06.43.18.08.08.14.18.16.29.02.11.03.28.03.49v.85h.46c.18,0,.31.04.4.13.09.08.14.19.14.32,0,.17-.07.28-.2.35-.13.07-.32.1-.57.1h-.23v2.29c0,.19,0,.34.02.45.01.11.05.19.11.26s.16.1.29.1c.07,0,.17-.01.3-.04.12-.03.22-.04.29-.04.1,0,.19.04.27.12.08.08.12.18.12.3,0,.2-.11.35-.33.46-.22.11-.53.16-.95.16-.39,0-.68-.07-.89-.2-.2-.13-.33-.31-.4-.54-.06-.23-.09-.54-.09-.93v-2.39h-.16c-.18,0-.32-.04-.41-.13-.09-.08-.14-.19-.14-.32s.05-.24.15-.32c.1-.08.24-.13.43-.13Z"/>
        <path class="cls-1" d="M56.5,91.08c-.17,0-.32-.05-.45-.16-.12-.11-.18-.26-.18-.45,0-.18.06-.32.19-.44.13-.11.27-.17.44-.17s.3.05.43.16.19.25.19.45-.06.34-.18.45-.27.16-.43.16ZM57.12,92.37v3.6c0,.25-.06.44-.18.57-.12.13-.27.19-.45.19s-.33-.07-.45-.2-.17-.32-.17-.56v-3.57c0-.25.06-.43.17-.56s.26-.19.45-.19.33.06.45.19.18.3.18.52Z"/>
        <path class="cls-1" d="M63.07,94.2c0,.37-.06.71-.17,1.03-.12.31-.28.58-.5.81s-.48.4-.79.52c-.3.12-.65.18-1.03.18s-.72-.06-1.02-.18-.56-.3-.78-.52c-.22-.23-.39-.49-.5-.8-.11-.31-.17-.65-.17-1.02s.06-.72.17-1.04c.12-.31.28-.58.5-.8.22-.22.48-.39.79-.51.31-.12.65-.18,1.02-.18s.72.06,1.03.18.57.3.79.52c.22.22.39.49.5.8.11.31.17.65.17,1.03ZM61.82,94.2c0-.51-.11-.9-.34-1.19s-.52-.42-.9-.42c-.24,0-.46.06-.64.19-.19.13-.33.31-.43.56-.1.25-.15.53-.15.86s.05.61.15.85c.1.24.24.43.42.56s.4.19.65.19c.38,0,.68-.14.9-.43.22-.28.34-.68.34-1.18Z"/>
        <path class="cls-1" d="M65.19,92.35v.15c.22-.29.46-.5.72-.64.26-.14.56-.2.9-.2s.62.07.88.21c.26.14.45.35.58.61.08.15.14.32.16.49s.04.4.04.68v2.32c0,.25-.06.44-.17.57-.11.13-.26.19-.45.19s-.34-.07-.45-.2c-.12-.13-.17-.32-.17-.56v-2.08c0-.41-.06-.72-.17-.94-.11-.22-.34-.33-.68-.33-.22,0-.42.07-.61.2-.18.13-.32.31-.4.55-.06.19-.09.53-.09,1.04v1.56c0,.25-.06.44-.18.57-.12.13-.27.19-.45.19s-.33-.07-.44-.2c-.12-.13-.17-.32-.17-.56v-3.6c0-.24.05-.41.16-.53.1-.12.25-.18.42-.18.11,0,.21.03.3.08.09.05.16.13.21.23.05.1.08.23.08.38Z"/>
        <path class="cls-1" d="M73.71,95.1c0,.34-.08.64-.25.88-.17.25-.41.43-.74.56-.33.13-.73.19-1.19.19s-.83-.07-1.15-.21-.56-.31-.71-.51c-.15-.21-.23-.41-.23-.62,0-.14.05-.25.15-.35.1-.1.22-.15.37-.15.13,0,.23.03.3.1.07.06.14.15.2.27.13.22.28.39.46.5.18.11.42.16.73.16.25,0,.45-.06.61-.17s.24-.24.24-.38c0-.22-.08-.38-.25-.48-.17-.1-.44-.2-.82-.29-.43-.11-.78-.22-1.05-.34-.27-.12-.48-.27-.65-.46s-.24-.43-.24-.71c0-.25.07-.49.22-.71s.37-.4.66-.53c.29-.13.64-.2,1.05-.2.32,0,.61.03.87.1s.47.16.64.27c.17.11.3.24.39.37s.13.27.13.4c0,.14-.05.26-.14.35-.1.09-.23.14-.41.14-.13,0-.24-.04-.33-.11-.09-.07-.19-.18-.31-.33-.09-.12-.21-.22-.33-.29-.13-.07-.3-.11-.52-.11s-.41.05-.56.14c-.15.1-.22.22-.22.36,0,.13.05.24.16.32.11.08.26.15.44.21s.44.12.77.2c.39.09.7.21.95.34.24.13.43.29.56.46.13.18.19.38.19.61Z"/>
      </g>
    </g>
  </g>
</svg>