<?xml version="1.0" encoding="UTF-8"?>
<svg id="Calque_2" data-name="Calque 2" xmlns="http://www.w3.org/2000/svg" xmlns:xlink="http://www.w3.org/1999/xlink" viewBox="0 0 90.5 79.9">
  <defs>
    <style>
      .cls-1 {
        fill: url(#radial-gradient-6);
      }

      .cls-2 {
        fill: url(#radial-gradient-5);
      }

      .cls-3 {
        fill: url(#radial-gradient-4);
      }

      .cls-4 {
        fill: url(#radial-gradient-3);
      }

      .cls-5 {
        fill: url(#radial-gradient-2);
      }

      .cls-6 {
        fill: url(#radial-gradient);
      }
    </style>
    <radialGradient id="radial-gradient" cx="6.55" cy="66.89" fx="6.55" fy="66.89" r="10.2" gradientUnits="userSpaceOnUse">
      <stop offset="0" stop-color="#fff"/>
      <stop offset="1" stop-color="#c6c6c6"/>
    </radialGradient>
    <radialGradient id="radial-gradient-2" cx="18.54" cy="66.72" fx="18.54" fy="66.72" r=".99" xlink:href="#radial-gradient"/>
    <radialGradient id="radial-gradient-3" cx="22.28" cy="71.51" fx="22.28" fy="71.51" r="10.14" xlink:href="#radial-gradient"/>
    <radialGradient id="radial-gradient-4" cx="56.3" cy="70.44" fx="56.3" fy="70.44" r="25.58" xlink:href="#radial-gradient"/>
    <radialGradient id="radial-gradient-5" cx="43.24" cy="32.59" fx="43.24" fy="32.59" r="37.02" xlink:href="#radial-gradient"/>
    <radialGradient id="radial-gradient-6" cx="43.24" cy="32.59" fx="43.24" fy="32.59" r="37.02" xlink:href="#radial-gradient"/>
  </defs>
  <g id="Layer_2_copy" data-name="Layer 2 copy">
    <g>
      <g>
        <path class="cls-6" d="M13.46,62.32c.95-.15,1.59-.22,1.91-.22.61,0,1.1.06,1.46.19.2.06.41.15.64.27.22.12.46.27.71.44l.08-.15c-.61-.65-1.57-.97-2.89-.97-.79,0-1.48.1-2.08.3-1.42-1.7-3.35-2.55-5.79-2.55-1.8,0-3.27.47-4.42,1.42-1.25,1.02-1.87,2.41-1.87,4.14v.3c0,.08,0,.14.02.21-.31.46-.53.81-.66,1.03-.37.7-.56,1.44-.56,2.23,0,.61.2,1.35.6,2.21l.17-.11c-.36-.97-.54-1.67-.54-2.1,0-1.07.35-2.06,1.05-2.94.17.62.42,1.18.73,1.67.74,1.11,1.75,1.67,3.04,1.67.7,0,1.33-.24,1.89-.73.56-.49.84-1.08.84-1.78,0-.86-.36-1.56-1.09-2.08-.66-.47-1.44-.71-2.32-.71-.94,0-1.92.47-2.94,1.41v-.19c-.01-.06-.02-.13-.02-.19,0-1.2.42-2.29,1.27-3.28,1.12-1.3,2.73-1.95,4.82-1.95,1.85,0,3.42.56,4.72,1.67.41.35.62.58.64.69l-.79.45c-1.59.9-3.06,2.71-4.4,5.42-.29.59-.72,1.64-1.29,3.15-.37,1.02-.7,1.62-.97,1.78-.25-.18-.47-.32-.66-.44-.19-.12-.34-.21-.47-.27-.63-.35-1.24-.52-1.84-.52-.46,0-.86.11-1.2.34-.39.24-.58.58-.58,1.03,0,.6.27,1.04.81,1.31.42.24.96.36,1.61.36.96,0,1.88-.29,2.76-.88.87.59,1.79.89,2.76.9,1.69.01,3.17-.9,4.44-2.74,1.16-1.66,1.74-3.38,1.74-5.15s-.44-3.29-1.31-4.61ZM4.4,64.27c.85,0,1.57.21,2.16.64.69.46,1.03,1.11,1.03,1.93,0,.64-.26,1.18-.79,1.63-.51.44-1.09.66-1.72.66-.96,0-1.76-.33-2.4-.99-.56-.57-.96-1.36-1.18-2.36.96-1,1.93-1.5,2.91-1.5ZM2.66,74.49c-.44,0-.81-.11-1.12-.34-.35-.26-.52-.6-.52-1.01,0-.34.11-.61.34-.82.22-.21.51-.31.84-.31.75.03,1.47.24,2.16.64.3.18.56.38.79.6-.96.82-1.79,1.24-2.47,1.24ZM12.2,71.06c-1.26,2.16-2.76,3.24-4.5,3.24-.24,0-.74-.22-1.52-.66.71-.59,1.16-.99,1.33-1.2.64-.79,1.14-1.72,1.5-2.79.19-.57.35-1.06.48-1.46.13-.4.23-.71.29-.94.77-2.44,1.88-4,3.32-4.69.19.1.37.54.54,1.33.12.59.19,1.09.19,1.52,0,1.89-.54,3.77-1.63,5.64Z"/>
        <path class="cls-5" d="M18.24,66.19c-.19.19-.28.42-.28.68,0,.2.07.37.21.52.14.14.31.22.51.22.25,0,.47-.11.65-.34.18-.22.27-.47.27-.73,0-.19-.07-.34-.2-.46-.13-.12-.29-.18-.48-.18-.26,0-.49.1-.67.29Z"/>
        <path class="cls-4" d="M34.8,71.26c-.37.4-.77.82-1.21,1.26-1.21,1.21-2.03,1.82-2.46,1.82-.28,0-.41-.12-.41-.38,0-.17.11-.46.32-.86l2.46-4.61c-.06.03-.17.11-.32.26-.15.16-.25.24-.3.24-.09,0-.22-.02-.39-.06-.18-.04-.31-.06-.39-.06-.11,0-.24.09-.39.28-.21-.3-.53-.45-.96-.45-1.06,0-2.02.41-2.89,1.24-.31.3-.57.62-.77.95l-2.04,2.25c-.67.75-1.19,1.12-1.56,1.12-.26,0-.39-.11-.39-.34,0-.06.11-.27.34-.64l1.74-2.72c.24-.36.36-.7.36-1.01,0-.57-.29-.86-.86-.86-.67,0-1.61.52-2.81,1.57l.96-1.8s-.07.04-.13.09c-.06.05-.14.12-.24.21-.2.16-.31.24-.32.24-.05,0-.15-.03-.31-.08-.16-.05-.27-.07-.35-.07-.21,0-.4.15-.56.45l-.53,1.01c-.47.55-1.1,1.22-1.89,2.02-1.22,1.24-1.98,1.86-2.27,1.86s-.41-.16-.41-.49c0-.25.05-.49.15-.71l2.38-4.54c-.07.03-.2.13-.37.3-.18.18-.29.26-.34.26-.01,0-.09-.03-.24-.08-.15-.06-.28-.08-.39-.08-.19,0-.36.13-.51.39-.27.5-.51.92-.7,1.27-.19.34-.34.62-.44.82-.46.84-.69,1.55-.69,2.14,0,.72.39,1.09,1.16,1.09.73,0,2.13-1.17,4.19-3.5l-1.94,3.72c.35-.35.58-.52.69-.52.06,0,.18.02.34.07.16.04.28.07.36.07.19,0,.39-.21.62-.62.2-.37.36-.67.47-.89.11-.22.19-.36.22-.42.19-.32.4-.65.63-.97.23-.32.48-.64.76-.97.76-.87,1.39-1.31,1.87-1.31.19,0,.28.06.28.17,0,.1-.09.29-.26.56l-1.56,2.38c-.27.42-.41.81-.39,1.14.04.74.4,1.11,1.09,1.11.59,0,1.22-.37,1.89-1.11.7-.78,1.26-1.41,1.71-1.91-.13.37-.19.77-.19,1.18,0,1.21.41,1.82,1.24,1.82.64,0,1.23-.36,1.78-1.07.34.71.81,1.07,1.42,1.07.9,0,2.54-1.44,4.93-4.33l-.15-.13c-.3.36-.63.74-1,1.14ZM29.5,73.1c-.49.82-.98,1.24-1.48,1.24-.25,0-.37-.21-.37-.62,0-.67.36-1.59,1.07-2.74.8-1.29,1.57-1.93,2.31-1.93.26,0,.39.15.39.45,0,.22-.64,1.42-1.91,3.6Z"/>
        <path class="cls-3" d="M90.35,70.12l-2.47,2.32-1.29,1.24c-.5.46-.98.82-1.44,1.07.47-.67.92-1.33,1.33-1.97.41-.64.78-1.27,1.11-1.91l1.24-2.38c-.08.03-.19.12-.36.28-.18.18-.29.26-.34.26-.06,0-.17-.03-.32-.08-.15-.05-.27-.07-.36-.07-.19,0-.36.15-.52.45l-1.97,3.52c-.21.4-.57.74-1.07,1.01-.4.22-.68.34-.84.34s-.24-.17-.24-.53c0-.24.09-.54.28-.92l2.29-4.27c-.07.03-.19.12-.36.28-.18.18-.28.26-.32.26-.07,0-.19-.03-.36-.08-.16-.05-.29-.07-.38-.07-.19,0-.36.15-.52.45l-.75,1.43c-.18.23-.34.45-.5.66-.3.39-.57.74-.81,1.04-.34.41-.71.78-1.12,1.11-.57.44-1.04.66-1.39.66-.13,0-.23-.08-.33-.25-.09-.17-.14-.32-.14-.46,0-.19.13-.52.39-.99l1.95-3.41h1.41l.11-.28h-1.41l1.89-3.32h-.21c-.28.42-.52.79-.73,1.1-.21.31-.4.55-.56.74-.51.6-1.07,1.09-1.67,1.48h-1.48l-.3.28h1.35l-.68,1.41c-.5.67-1.06,1.33-1.7,1.98-1.07,1.11-1.89,1.67-2.44,1.67-.33,0-.49-.12-.49-.38,0-.19.1-.46.3-.82l2.38-4.48c-.06.01-.18.11-.36.28-.16.16-.27.24-.32.24-.06,0-.17-.02-.33-.07s-.27-.07-.35-.07c-.2,0-.34.08-.43.24l-1.46,2.61c-.17.31-.51.78-.99,1.41-.57.72-.97,1.09-1.2,1.09-.3,0-.45-.16-.45-.49s.1-.66.3-1.05l2.23-4.2c-.06.03-.17.12-.34.28-.16.16-.28.24-.34.24-.08,0-.18-.02-.33-.07-.14-.04-.24-.07-.29-.07-.24,0-.41.09-.51.26l-.75,1.39c-.2.24-.42.48-.65.73-.37.4-.77.82-1.21,1.26-1.21,1.21-2.03,1.82-2.46,1.82-.27,0-.41-.12-.41-.38,0-.17.11-.46.32-.86l2.46-4.61c-.06.03-.17.11-.32.26-.15.16-.25.24-.3.24-.09,0-.22-.02-.39-.06-.18-.04-.31-.06-.39-.06-.11,0-.24.09-.39.28-.21-.3-.53-.45-.96-.45-1.06,0-2.02.41-2.89,1.24-.46.44-.78.91-1,1.41-.37.41-.8.83-1.29,1.27-1.27,1.12-2.32,1.69-3.15,1.69-.34,0-.51-.23-.51-.69,0-.39.11-.82.34-1.31.57,0,1.3-.2,2.17-.6,1.14-.52,1.71-1.18,1.71-1.97,0-.29-.11-.53-.32-.73-.21-.2-.46-.3-.75-.3-.87,0-1.77.38-2.68,1.12-.12.1-.22.19-.33.29l-.03-.03c-.69.61-1.36,1.03-2.02,1.26,0-1.19-.3-2.15-.9-2.89.74-.42,1.27-.82,1.61-1.2.46-.5.69-1.11.69-1.82,0-.49-.17-.97-.51-1.44-.06-.07-.17-.2-.32-.37-.15-.17-.35-.4-.6-.67,1.06-.44,1.94-.66,2.62-.66.65,0,1.33.14,2.04.43.89.38,1.33.84,1.33,1.41,0,.27-.19.52-.56.75-.3.2-.61.32-.92.38l.19.19c.38-.06.72-.2,1.03-.41.36-.26.54-.56.54-.9,0-.62-.47-1.14-1.42-1.56-.79-.34-1.53-.51-2.23-.51-.77,0-1.39.08-1.84.24-.28.1-.51.18-.7.25-.19.07-.34.13-.44.18-.28-.14-.52-.26-.75-.36-.22-.1-.43-.18-.6-.24-.71-.25-1.52-.38-2.44-.38-1.15,0-2.16.16-3.04.49-.21.09-.82.42-1.84,1.01-.9-.36-1.67-.54-2.32-.54-1.84,0-3.4.68-4.69,2.04-1.3,1.36-1.95,2.96-1.95,4.78,0,1.62.53,2.91,1.59,3.86,1,.91,2.32,1.37,3.97,1.37,1.92,0,3.53-.4,4.82-1.2,1.06-.67,2.11-1.81,3.15-3.41.26-.41.57-1.21.92-2.4.31-1.11.63-1.89.96-2.32.92-1.26,1.62-2.01,2.1-2.25.5.28.75,1.02.75,2.25,0,.81-.5,1.69-1.5,2.62-.31-.27-.61-.41-.9-.41-.4,0-.6.14-.6.41,0,.15.09.28.26.38.17.11.34.16.49.16.07,0,.15,0,.23,0,.08,0,.17-.02.25-.03.08.4.11.78.11,1.14,0,1.01-.21,1.71-.62,2.08-.9,0-1.74.13-2.53.37-1.12.36-1.69.94-1.69,1.74,0,.55.42.84,1.27.86.54,0,1.06-.07,1.56-.2.51-.13.97-.33,1.39-.6.42-.27.79-.6,1.12-.98.32-.39.58-.83.77-1.33.57-.24,1.1-.54,1.6-.89-.45.64-.68,1.36-.68,2.15,0,.47.15.87.46,1.18.31.31.69.47,1.15.47.91,0,2.02-.6,3.34-1.8.35-.32.66-.63.94-.93-.08.29-.12.6-.12.91,0,1.21.41,1.82,1.24,1.82.64,0,1.23-.36,1.78-1.07.34.71.81,1.07,1.42,1.07.78,0,2.1-1.07,3.98-3.22l-.18.33c-.41.77-.62,1.44-.62,1.99,0,.6.32.9.96.9.42,0,.8-.11,1.12-.34.1-.09.25-.23.44-.42.19-.19.43-.45.7-.78.09,1.02.46,1.54,1.11,1.54.86,0,1.89-.57,3.07-1.72.36-.36.72-.76,1.07-1.18.04-.05.08-.1.12-.16l-.28.57c-.26.55-.39.98-.39,1.29s.09.59.27.83c.18.24.42.37.72.37.95,0,1.92-.51,2.91-1.54.22-.24.46-.52.73-.85-.21.4-.31.78-.31,1.15,0,.82.33,1.24.99,1.24.4,0,1.01-.3,1.82-.9l-.79,1.56c-1.35.42-2.35.84-3,1.24-.96.59-1.44,1.25-1.44,1.99,0,.42.15.77.44,1.04.29.27.65.4,1.08.4.67,0,1.31-.29,1.89-.88.2-.21.41-.47.62-.79.21-.31.44-.68.67-1.11.05-.1.16-.32.34-.67.18-.34.42-.82.73-1.43.76-.42,1.32-.8,1.69-1.12.32-.31.6-.57.83-.79.23-.21.41-.38.53-.51,1.24-1.16,2.06-1.95,2.47-2.36l-.15-.13ZM59.97,68.96c.26,0,.39.14.39.43,0,.44-.34.96-1.03,1.57-.7.6-1.27.9-1.72.9.97-1.94,1.76-2.91,2.36-2.91ZM48.78,67.74c0,.21-.09.53-.28.96-.45.41-.97.62-1.57.62-.79,0-1.4-.25-1.84-.75-.44-.5-.66-1.14-.66-1.93,0-.66.17-1.25.52-1.76.19-.27.58-.71,1.18-1.31,1.76.97,2.64,2.37,2.64,4.18ZM51.59,65.02c-.82.9-1.44,1.9-1.86,3-.2.52-.36.93-.48,1.23-.12.29-.19.48-.22.55-.44.97-.97,1.79-1.61,2.45-.64.66-1.35,1.19-2.14,1.6-.87.46-1.72.69-2.55.69-1.57,0-2.85-.43-3.82-1.29-1.02-.91-1.54-2.14-1.54-3.69,0-1.74.64-3.27,1.91-4.61,1.29-1.35,2.79-2.02,4.52-2.02.75,0,1.46.18,2.12.54-.54.5-.87.84-.99,1.01-.47.66-.71,1.37-.71,2.14,0,.85.23,1.54.69,2.08.5.57,1.17.86,2.01.86.3,0,.74-.09,1.33-.28-.24.75-.74,1.32-1.52,1.72-.5.25-1.01.38-1.52.38v.26c.4,0,.78-.07,1.14-.2.36-.13.7-.32,1-.55.31-.24.57-.52.81-.84.23-.32.42-.68.55-1.07.67-.67,1.01-1.31,1.01-1.91,0-.26-.05-.53-.15-.81-.01-.01-.04-.06-.08-.13-.04-.08-.11-.19-.2-.36l-.21.06c.29.55.42.97.39,1.26,0,.2-.07.42-.2.65-.13.23-.26.45-.38.67.02-.18.04-.32.06-.43.01-.11.02-.19.04-.22,0-1.76-.89-3.2-2.68-4.31.74-.51,1.4-.87,1.99-1.07.75-.26,1.65-.39,2.7-.39,1.25,0,2.39.33,3.43.99-1,.39-1.95,1.07-2.85,2.06ZM53.18,68.34c-.25,0-.37-.09-.37-.26,0-.11.07-.17.22-.17.19,0,.38.12.58.36-.14.05-.28.08-.43.08ZM52.54,72.84c-.16.21-.3.39-.41.52-.74.74-1.46,1.1-2.17,1.09-.52-.01-.79-.19-.79-.52,0-.7.51-1.21,1.54-1.52.7-.21,1.5-.32,2.4-.32-.21.29-.4.54-.56.75ZM64.67,73.1c-.49.82-.98,1.24-1.48,1.24-.25,0-.38-.21-.38-.62,0-.67.36-1.59,1.07-2.74.8-1.29,1.57-1.93,2.31-1.93.26,0,.39.15.39.45,0,.22-.64,1.42-1.91,3.6ZM82.75,76.8c-.23.37-.43.66-.59.87-.77,1.04-1.45,1.56-2.02,1.56-.52,0-.79-.26-.79-.79,0-.67.46-1.28,1.37-1.82.25-.14.61-.31,1.09-.52.47-.21,1.07-.43,1.78-.68-.33.55-.6,1.01-.83,1.38Z"/>
      </g>
      <g>
        <path class="cls-2" d="M59.38,10.87c-.81-.56-1.57-1.04-2.29-1.42-.72-.38-1.41-.67-2.05-.87-1.17-.4-2.74-.6-4.71-.6-1.05,0-3.1.24-6.16.72,2.82,4.27,4.23,9.22,4.23,14.85s-1.87,11.25-5.61,16.6c-4.11,5.92-8.87,8.85-14.31,8.82-3.1-.04-6.06-1.01-8.87-2.9-2.82,1.89-5.78,2.84-8.87,2.84-2.09,0-3.82-.38-5.19-1.15-1.73-.88-2.6-2.29-2.6-4.23,0-1.45.62-2.56,1.87-3.32,1.09-.72,2.37-1.09,3.86-1.09,1.93,0,3.9.56,5.92,1.69.4.2.9.49,1.51.87.6.38,1.31.86,2.11,1.42.88-.52,1.93-2.44,3.14-5.74,1.85-4.87,3.24-8.25,4.17-10.14,4.35-8.73,9.08-14.55,14.19-17.45l2.54-1.45c-.04-.36-.72-1.11-2.05-2.23C36,2.52,30.92.72,24.97.72c-6.72,0-11.89,2.09-15.51,6.28-2.74,3.18-4.11,6.7-4.11,10.56,0,.2.02.4.06.6v.6c3.3-3.02,6.46-4.53,9.48-4.53,2.86,0,5.35.76,7.49,2.29,2.33,1.69,3.5,3.92,3.5,6.7,0,2.25-.91,4.17-2.72,5.74-1.81,1.57-3.84,2.35-6.1,2.35-4.15,0-7.41-1.79-9.78-5.37-1.01-1.57-1.79-3.36-2.35-5.37-2.25,2.86-3.38,6.02-3.38,9.48,0,1.37.58,3.62,1.75,6.76l-.54.36c-1.29-2.78-1.93-5.15-1.93-7.12,0-2.53.6-4.93,1.81-7.18.4-.72,1.11-1.83,2.11-3.32-.04-.2-.06-.42-.06-.66v-.97c0-5.59,2.01-10.04,6.04-13.34C14.42,1.53,19.17,0,24.97,0c7.85,0,14.07,2.74,18.65,8.21,1.93-.64,4.17-.97,6.7-.97,4.23,0,7.32,1.05,9.3,3.14l-.24.48ZM14.83,41.96c-2.21-1.29-4.53-1.97-6.94-2.05-1.09,0-1.99.33-2.72,1s-1.09,1.54-1.09,2.63c0,1.33.56,2.41,1.69,3.26,1.01.72,2.21,1.09,3.62,1.09,2.21,0,4.87-1.33,7.97-3.98-.72-.72-1.57-1.37-2.54-1.93ZM21.95,17.02c-1.89-1.37-4.21-2.05-6.94-2.05-3.14,0-6.26,1.61-9.36,4.83.72,3.22,1.99,5.76,3.8,7.61,2.05,2.13,4.63,3.2,7.73,3.2,2.05,0,3.9-.7,5.55-2.11,1.69-1.45,2.54-3.2,2.54-5.25,0-2.66-1.11-4.73-3.32-6.22ZM44.77,13.76c-.56-2.53-1.15-3.96-1.75-4.29-4.63,2.21-8.19,7.24-10.69,15.09-.2.72-.51,1.73-.94,3.02-.42,1.29-.94,2.86-1.54,4.71-1.17,3.46-2.78,6.46-4.83,8.99-.56.68-1.99,1.97-4.29,3.86,2.49,1.41,4.12,2.11,4.89,2.11,5.59,0,10.42-3.48,14.49-10.44,3.5-6.04,5.25-12.09,5.25-18.17,0-1.37-.2-3-.6-4.89Z"/>
        <path class="cls-1" d="M85.09,15.15c-2.54-1.09-4.93-1.63-7.19-1.63-2.5,0-4.47.26-5.92.78-.89.32-1.64.59-2.26.82-.62.22-1.1.41-1.42.57-.89-.44-1.69-.82-2.41-1.15-.72-.32-1.37-.58-1.93-.78-2.29-.81-4.91-1.21-7.85-1.21-2.24,0-4.31.19-6.23.58.03.2.05.4.05.61,1.84-.38,3.9-.58,6.18-.58,4.03,0,7.71,1.07,11.05,3.2-3.22,1.25-6.28,3.46-9.18,6.64-2.66,2.9-4.65,6.12-5.98,9.66-.64,1.69-1.16,3.01-1.54,3.95-.38.95-.61,1.54-.69,1.78-1.41,3.14-3.14,5.77-5.19,7.88-2.05,2.11-4.35,3.83-6.88,5.16-2.82,1.49-5.55,2.23-8.21,2.23-4.83,0-8.78-1.28-11.86-3.8-.1.23-.23.44-.37.64,3.15,2.62,7.22,3.94,12.23,3.94,6.2,0,11.37-1.29,15.52-3.86,3.42-2.17,6.8-5.84,10.14-10.99.85-1.33,1.83-3.9,2.96-7.73,1.01-3.58,2.03-6.08,3.08-7.49,2.98-4.06,5.23-6.48,6.76-7.24,1.61.89,2.41,3.3,2.41,7.24,0,2.62-1.61,5.43-4.83,8.45-1.01-.88-1.97-1.33-2.9-1.33-1.29,0-1.93.44-1.93,1.33,0,.48.28.9.85,1.24.56.34,1.09.51,1.57.51.24,0,.49,0,.75-.03.26-.02.53-.05.82-.09.24,1.29.36,2.51.36,3.68,0,3.26-.66,5.49-1.99,6.7-2.9,0-5.61.4-8.15,1.21-3.62,1.17-5.43,3.04-5.43,5.61,0,1.77,1.37,2.7,4.11,2.78,1.73,0,3.41-.21,5.04-.63s3.12-1.07,4.47-1.93c1.35-.86,2.55-1.92,3.59-3.17,1.05-1.25,1.87-2.68,2.48-4.29,2.7-1.13,5.15-2.66,7.36-4.59l-.48-.48c-2.21,1.97-4.39,3.32-6.52,4.04,0-3.82-.97-6.92-2.9-9.3,2.37-1.37,4.1-2.66,5.19-3.86,1.49-1.61,2.23-3.56,2.23-5.86,0-1.57-.54-3.12-1.63-4.65-.2-.24-.54-.64-1.03-1.21-.48-.56-1.13-1.29-1.93-2.17,3.42-1.41,6.24-2.11,8.45-2.11,2.09,0,4.29.46,6.58,1.39,2.86,1.21,4.29,2.72,4.29,4.53,0,.88-.6,1.69-1.81,2.41-.97.64-1.95,1.05-2.96,1.21l.6.6c1.21-.2,2.31-.64,3.32-1.33,1.17-.85,1.75-1.81,1.75-2.9,0-2.01-1.53-3.68-4.59-5.01ZM63.11,33.69c-.81,0-1.21-.28-1.21-.85,0-.36.24-.54.72-.54.6,0,1.23.38,1.87,1.15-.44.16-.91.24-1.39.24ZM61.06,48.18c-.52.68-.97,1.25-1.33,1.69-2.38,2.38-4.71,3.54-7,3.5-1.69-.04-2.54-.6-2.54-1.69,0-2.25,1.65-3.88,4.95-4.89,2.25-.68,4.83-1.03,7.73-1.03-.68.93-1.29,1.73-1.81,2.42Z"/>
      </g>
    </g>
  </g>
</svg>