<?xml version="1.0" encoding="UTF-8"?>
<svg id="Calque_2" data-name="Calque 2" xmlns="http://www.w3.org/2000/svg" viewBox="0 0 100.46 63.9">
  <defs>
    <style>
      .cls-1 {
        fill: #fff;
      }
    </style>
  </defs>
  <g id="Layer_2_copy" data-name="Layer 2 copy">
    <g>
      <path class="cls-1" d="M59.13,12.77c18.92,6.94,29.64,25.69,24.95,42.77.36-.78.69-1.57.99-2.39,6.49-17.71-4.33-37.96-24.17-45.23C41.07.64,19.72,9.09,13.23,26.8c-.3.82-.56,1.64-.79,2.47C19.9,13.2,40.2,5.83,59.13,12.77Z"/>
      <g>
        <path class="cls-1" d="M8.57,33.84c-.92,0-1.78.15-2.59.44-.8.29-1.5.73-2.09,1.3-.59.58-1.06,1.3-1.4,2.15-.34.86-.51,1.86-.51,3s.16,2.12.47,2.95c.32.83.76,1.52,1.35,2.07.58.55,1.28.95,2.1,1.21.82.26,1.73.39,2.73.39.27,0,.56-.01.87-.04.31-.03.62-.07.93-.12.31-.05.61-.11.91-.18.29-.07.56-.15.79-.23v1.77c-.48.19-1.05.33-1.69.44-.64.1-1.3.15-1.97.15-1.37,0-2.58-.19-3.64-.57-1.06-.38-1.95-.93-2.66-1.64-.72-.71-1.26-1.59-1.63-2.62-.37-1.03-.55-2.2-.55-3.5s.19-2.46.58-3.53c.39-1.07.95-2,1.69-2.77.73-.77,1.62-1.37,2.67-1.8,1.05-.43,2.22-.65,3.53-.65.34,0,.69.01,1.02.04.34.03.66.07.97.12.31.05.59.12.86.19.26.07.49.15.68.23v1.77c-.5-.16-1.04-.3-1.63-.41-.59-.11-1.18-.17-1.78-.17Z"/>
        <path class="cls-1" d="M23.1,47.35c.6,0,1.13-.07,1.59-.21.46-.14.87-.34,1.21-.59.34-.25.63-.56.86-.92.23-.36.41-.75.53-1.19.08-.27.14-.57.17-.9.03-.33.05-.65.05-.97v-10.22h2.01v10.17c0,.39-.02.79-.06,1.21-.04.42-.11.81-.2,1.17-.16.61-.39,1.17-.7,1.69-.31.52-.72.96-1.22,1.34-.5.38-1.1.67-1.8.89-.7.21-1.52.32-2.47.32s-1.69-.1-2.38-.3-1.27-.47-1.75-.82c-.49-.35-.89-.76-1.2-1.24-.31-.48-.55-1-.73-1.57-.12-.41-.21-.85-.26-1.32-.05-.47-.08-.92-.08-1.37v-10.17h2.01v10.22c0,.37.03.75.08,1.14.05.39.14.74.25,1.06.29.8.77,1.42,1.43,1.88.67.46,1.55.69,2.65.69Z"/>
        <path class="cls-1" d="M34.9,48.83v-16.47h2.01v16.47h-2.01Z"/>
        <path class="cls-1" d="M43.95,36.72c0,.48.1.88.29,1.2.2.32.46.58.79.78.33.21.72.37,1.15.5.44.13.89.25,1.37.37.64.16,1.27.33,1.88.52.62.19,1.17.45,1.65.78.48.33.87.77,1.17,1.3.3.53.45,1.22.45,2.06s-.16,1.59-.49,2.21c-.32.62-.77,1.13-1.34,1.53-.57.4-1.25.69-2.03.89-.78.19-1.63.29-2.56.29-.43,0-.86-.03-1.31-.08-.45-.05-.87-.13-1.28-.22-.41-.09-.77-.19-1.1-.31-.33-.11-.59-.23-.78-.34v-1.83c.3.15.63.28,1,.41.37.12.75.23,1.14.31s.79.15,1.19.2c.4.05.78.07,1.13.07.57,0,1.12-.05,1.64-.15.52-.1.98-.26,1.37-.49.39-.23.71-.54.94-.94.23-.4.34-.9.34-1.5,0-.49-.1-.9-.3-1.22-.2-.32-.47-.58-.81-.79-.34-.21-.72-.38-1.16-.51-.44-.13-.9-.25-1.38-.37-.64-.15-1.27-.31-1.88-.5-.61-.18-1.16-.44-1.64-.77-.48-.33-.87-.75-1.16-1.27-.29-.52-.44-1.18-.44-1.98s.15-1.56.46-2.16c.31-.6.72-1.1,1.24-1.5.52-.39,1.12-.69,1.81-.87.68-.19,1.41-.28,2.18-.28.88,0,1.7.08,2.46.25.76.17,1.45.39,2.09.66v1.86c-.68-.29-1.38-.52-2.11-.7-.73-.18-1.5-.27-2.33-.28-.62,0-1.17.07-1.62.2-.46.14-.84.33-1.14.58-.3.25-.53.55-.68.91-.15.36-.22.75-.22,1.19Z"/>
        <path class="cls-1" d="M57.52,48.83v-16.47h2.01v16.47h-2.01Z"/>
        <path class="cls-1" d="M73.7,48.83h-.92l-4.15-9.83c-.57-1.35-1.15-2.83-1.72-4.42h-.1c.11,2.29.17,4.39.17,6.29v7.96h-2.01v-16.47h2.89l3.88,9.32c.44,1.07.93,2.35,1.46,3.85h.06c.59-1.67,1.08-2.95,1.46-3.85l3.88-9.32h2.89v16.47h-2.01v-7.96c0-1.86.06-3.96.17-6.29h-.1c-.61,1.68-1.18,3.16-1.72,4.42l-4.15,9.83Z"/>
        <path class="cls-1" d="M85.29,48.83l6.71-16.47h1.74l6.71,16.47h-2.18l-1.97-4.96h-6.89l-1.97,4.96h-2.15ZM92.85,34.92c-.73,2.05-1.44,3.91-2.1,5.59l-.62,1.55h5.46l-.62-1.55c-.68-1.71-1.36-3.57-2.06-5.59h-.05Z"/>
      </g>
      <g>
        <path class="cls-1" d="M6.94,63.69c-.21.11-.64.21-1.19.21-1.27,0-2.21-.8-2.21-2.28s.95-2.36,2.35-2.36c.55,0,.91.12,1.07.2l-.15.47c-.21-.11-.53-.19-.9-.19-1.05,0-1.75.67-1.75,1.85,0,1.11.63,1.81,1.72,1.81.36,0,.72-.07.95-.19l.11.47Z"/>
        <path class="cls-1" d="M10.25,59.33v2.67c0,1,.45,1.43,1.05,1.43.66,0,1.09-.44,1.09-1.43v-2.67h.59v2.63c0,1.38-.73,1.94-1.7,1.94-.92,0-1.61-.52-1.61-1.92v-2.65h.59Z"/>
        <path class="cls-1" d="M16.57,59.33v4.49h-.59v-4.49h.59Z"/>
        <path class="cls-1" d="M19.5,63.12c.26.17.63.29,1.03.29.59,0,.94-.31.94-.77,0-.41-.24-.66-.85-.89-.73-.27-1.19-.65-1.19-1.28,0-.7.58-1.22,1.45-1.22.45,0,.79.11.99.22l-.16.47c-.14-.09-.44-.21-.85-.21-.61,0-.85.37-.85.67,0,.42.27.63.89.87.76.3,1.14.66,1.14,1.32,0,.69-.51,1.3-1.57,1.3-.43,0-.91-.13-1.15-.29l.15-.49Z"/>
        <path class="cls-1" d="M25.44,59.33v4.49h-.59v-4.49h.59Z"/>
        <path class="cls-1" d="M28.45,63.83v-4.49h.64l1.43,2.27c.33.53.59.99.8,1.46h.02c-.05-.61-.07-1.15-.07-1.85v-1.89h.55v4.49h-.59l-1.43-2.28c-.31-.5-.61-1.01-.83-1.5h-.02c.03.57.04,1.11.04,1.86v1.92h-.55Z"/>
        <path class="cls-1" d="M37.16,61.72h-1.74v1.62h1.95v.49h-2.53v-4.49h2.43v.49h-1.85v1.42h1.74v.48Z"/>
        <path class="cls-1" d="M40.04,63.12c.26.17.63.29,1.03.29.59,0,.94-.31.94-.77,0-.41-.24-.66-.85-.89-.73-.27-1.19-.65-1.19-1.28,0-.7.58-1.22,1.45-1.22.45,0,.79.11.99.22l-.16.47c-.14-.09-.44-.21-.85-.21-.61,0-.85.37-.85.67,0,.42.27.63.89.87.76.3,1.14.66,1.14,1.32,0,.69-.51,1.3-1.57,1.3-.43,0-.91-.13-1.15-.29l.15-.49Z"/>
        <path class="cls-1" d="M52.6,61.85c-.03-.63-.07-1.39-.07-1.94h-.01c-.16.52-.34,1.09-.57,1.71l-.79,2.18h-.44l-.73-2.14c-.21-.64-.39-1.21-.51-1.75h-.01c-.01.56-.05,1.31-.09,1.99l-.12,1.93h-.55l.31-4.49h.74l.77,2.17c.19.55.33,1.05.45,1.51h.01c.12-.45.28-.95.48-1.51l.8-2.17h.74l.28,4.49h-.57l-.11-1.97Z"/>
        <path class="cls-1" d="M57.92,63.9c-1.19,0-2.02-.92-2.02-2.28s.88-2.36,2.08-2.36,2.03.94,2.03,2.27c0,1.54-.94,2.37-2.08,2.37h0ZM57.95,63.43c.92,0,1.44-.85,1.44-1.87,0-.89-.47-1.83-1.43-1.83s-1.45.9-1.45,1.87.52,1.82,1.43,1.82h0Z"/>
        <path class="cls-1" d="M62.75,59.4c.36-.05.78-.09,1.24-.09.83,0,1.43.19,1.82.55.41.37.64.89.64,1.62s-.23,1.33-.65,1.75c-.43.42-1.12.65-1.99.65-.42,0-.76-.01-1.06-.05v-4.42ZM63.34,63.37c.15.03.36.03.59.03,1.24,0,1.91-.69,1.91-1.91,0-1.07-.59-1.73-1.82-1.73-.3,0-.53.03-.68.06v3.55Z"/>
        <path class="cls-1" d="M71.52,61.72h-1.74v1.62h1.95v.49h-2.53v-4.49h2.43v.49h-1.85v1.42h1.74v.48Z"/>
        <path class="cls-1" d="M74.47,59.4c.29-.06.72-.1,1.11-.1.62,0,1.03.12,1.31.37.22.19.35.5.35.85,0,.59-.38.98-.85,1.14v.02c.34.12.55.44.66.91.15.63.25,1.06.34,1.23h-.6c-.07-.13-.17-.51-.29-1.07-.13-.62-.38-.85-.91-.87h-.55v1.95h-.58v-4.43ZM75.05,61.44h.59c.62,0,1.01-.34,1.01-.85,0-.58-.42-.83-1.03-.83-.28,0-.47.03-.57.05v1.63Z"/>
        <path class="cls-1" d="M80.06,63.83v-4.49h.64l1.43,2.27c.33.53.59.99.8,1.46h.02c-.05-.61-.07-1.15-.07-1.85v-1.89h.55v4.49h-.59l-1.43-2.28c-.31-.5-.61-1.01-.83-1.5h-.02c.03.57.04,1.11.04,1.86v1.92h-.55Z"/>
        <path class="cls-1" d="M88.76,61.72h-1.74v1.62h1.95v.49h-2.53v-4.49h2.43v.49h-1.85v1.42h1.74v.48Z"/>
        <path class="cls-1" d="M91.65,63.12c.26.17.63.29,1.03.29.59,0,.94-.31.94-.77,0-.41-.24-.66-.85-.89-.73-.27-1.19-.65-1.19-1.28,0-.7.58-1.22,1.45-1.22.45,0,.79.11.99.22l-.16.47c-.14-.09-.44-.21-.85-.21-.61,0-.85.37-.85.67,0,.42.27.63.89.87.76.3,1.14.66,1.14,1.32,0,.69-.51,1.3-1.57,1.3-.43,0-.91-.13-1.15-.29l.15-.49Z"/>
      </g>
      <rect class="cls-1" x=".12" y="53.23" width="100.34" height="1.59"/>
      <path class="cls-1" d="M44.88,1.29l2.64.03,2.61-.03v17.58l.73.35,10.11,4.83-4.09,1.81h-18.76l-4.09-1.81,10.11-4.83.73-.35V1.29M51.41,0l-3.9.04-3.9-.04v18.06l-10.69,5.1-1.93.92.43.19.8.35,5.64,2.5h19.3l5.64-2.5.8-.35.43-.19-1.93-.92-10.69-5.1V0h0Z"/>
    </g>
  </g>
</svg>