<?xml version="1.0" encoding="UTF-8"?>
<svg id="Calque_2" data-name="Calque 2" xmlns="http://www.w3.org/2000/svg" viewBox="0 0 127.21 90.76">
  <defs>
    <style>
      .cls-1 {
        fill: #fff;
      }
    </style>
  </defs>
  <g id="Layer_2_copy" data-name="Layer 2 copy">
    <g>
      <path class="cls-1" d="M89.07,37.66c.08.11.14.26.24.31.45.21.91.39,1.34.56,1.63-.34,2.85-1.23,3.78-2.51.85-1.17,1.66-2.36,2.48-3.56.69-1.01,1.39-2,2.18-2.94.44-.52.91-1,1.45-1.42,1.11-.88,2.34-1.54,3.73-1.86.8-.19,1.61-.18,2.41.03.72.19,1.33.56,1.82,1.12,1.01,1.16,1.61,2.5,1.71,4.04.05.69-.1,1.35-.49,1.93-.56.83-2.2,1.62-3.19,1.48-1.07-.15-1.83-.78-2.19-1.79-.36-1.02-.15-1.96.66-2.73.46-.44,1.02-.55,1.64-.41.59.14.9.89.56,1.41-.1.15-.23.28-.38.38-.3.21-.74.17-.99-.1-.18-.2-.31-.44-.47-.65-.02-.02-.17,0-.21.05-.4.5-.5,1.05-.21,1.64.3.61.8,1,1.48,1.04.97.06,1.77-.34,2.32-1.14.76-1.11.87-3.18-.74-4.37-.52-.38-1.1-.6-1.75-.65-2.29-.17-4.27.54-5.99,2.03-.65.57-1.22,1.21-1.71,1.92-.49.71-.96,1.42-1.43,2.14-.39.61-.76,1.23-1.15,1.84-.56.88-1.19,1.7-1.94,2.43-.55.54-1.13,1.04-1.82,1.39-.2.1-.42.17-.53.4,0,.08-.01.18.03.26.6,1.23.53,2.55.47,3.86-.04.76-.52,1.23-1.29,1.32-.31.04-.63.04-.95.04-2.17,0-4.34.01-6.51.02-.18,0-.36-.01-.54-.02-.29-.02-.52-.16-.7-.37-.23-.28-.4-.6-.63-.88-.36-.44-.83-.66-1.42-.66-1.49.02-2.98.02-4.48,0-.65,0-1.12.28-1.5.77-.19.25-.34.53-.54.78-.17.21-.41.35-.7.36-.36,0-.72.01-1.08.01-3.35,0-6.69,0-10.04.01-.09,0-.18,0-.27,0-.54.03-.97-.15-1.26-.62-.12-.19-.25-.38-.39-.55-.39-.48-.88-.76-1.52-.75-1.45,0-2.89.01-4.34,0-.7,0-1.22.29-1.63.81-.2.25-.35.53-.55.77-.14.18-.34.3-.58.31-.23.01-.45.02-.68.02-2.22,0-4.43,0-6.65,0-.32,0-.63,0-.94-.06-.57-.09-1.02-.53-1.04-1.09-.03-.95-.02-1.9,0-2.84.01-.51.22-.96.5-1.39.17-.26.37-.51.54-.77.02-.03,0-.09-.01-.12-.02-.03-.08-.07-.11-.06-.39.11-.78.22-1.17.34-5.16,1.65-10.26,3.46-15.32,5.42-.29.11-.59.22-.88.35-.32.14-.47.4-.5.74-.02.22-.02.45-.02.68-.03,2.71-.09,5.42-.1,8.13,0,2.3-.16,4.6-.26,6.9,0,.22-.05.45-.09.67-.05.27-.27.45-.58.48-.42.04-.72-.18-.77-.58-.12-1.03-.22-2.06-.22-3.11,0-3.97-.04-7.95-.06-11.92,0-.18-.02-.36-.06-.53-.02-.06-.12-.12-.2-.14-.08-.02-.18-.02-.26,0-.26.09-.51.19-.75.3-2.6,1.15-5.16,2.39-7.68,3.7-.16.08-.32.17-.45.29-.09.08-.18.22-.19.34-.03.22-.03.45-.02.67.17,3.84.06,7.68.17,11.51.01.5,0,.99,0,1.49,0,.32-.02.63-.06.95-.07.6-.41.85-1.03.78-.29-.03-.52-.18-.61-.46-.1-.3-.18-.61-.21-.92-.11-1.26-.19-2.52-.3-3.78-.21-2.52-.24-5.05-.31-7.58-.01-.4.05-.82-.16-1.19-.03-.06-.14-.1-.22-.11-.08,0-.18.03-.25.08-1.12.69-2.18,1.46-3.13,2.36-.42.4-.83.84-1.17,1.31-.74,1-1.27,2.08-1.18,3.37.02.23-.22.38-.46.36-.3-.03-.53-.17-.64-.43-.23-.55-.3-1.13-.19-1.73.1-.54.28-1.04.54-1.52.39-.72.89-1.36,1.45-1.95.9-.96,1.92-1.79,3.02-2.5.57-.37,1.13-.74,1.72-1.09.4-.23.57-.55.54-1-.01-.22,0-.45,0-.68-.02-2.8.12-5.6.26-8.39.07-1.44.15-2.89.41-4.31.03-.18-.12-.35-.31-.38-.09-.01-.18-.03-.27-.03-1.21-.07-2.17-.55-2.77-1.64-.44-.01-.79-.15-1.06-.5-.69-.89-1.43-1.75-2.11-2.65-1.2-1.59-2.56-3.04-4.09-4.32-.21-.17-.42-.35-.6-.55-.26-.29-.31-.64-.21-1.01.03-.11.22-.21.33-.15.44.24.88.47,1.31.71.83.47,1.68.88,2.56,1.23.72.28,1.46.45,2.25.38.58-.05,1-.52.95-1.1-.03-.31-.1-.62-.14-.94-.05-.47.41-.88.88-.77.26.06.52.16.74.3.3.19.57.45.85.67.18.14.36.28.54.41.18.13.48.07.61-.1.3-.4.51-.85.62-1.34.12-.53.19-1.06.21-1.61.05-1.36-.16-2.7-.33-4.05-.1-.81-.27-1.6-.38-2.41-.06-.44-.05-.9-.05-1.35,0-.3.2-.49.44-.64.23-.14.61-.06.72.16.2.4.4.81.56,1.23.46,1.27.9,2.55,1.35,3.83.34.98.71,1.95,1.18,2.88.12.24.26.48.4.71.07.11.18.2.28.29.22.2.57.16.68-.09.13-.29.25-.58.36-.88.1-.3.17-.61.28-.91.06-.17.15-.33.24-.48.21-.33.67-.4.94-.15.26.25.5.52.75.78.15.15.45.13.61-.01.32-.27.51-.63.67-1,.42-.96.66-1.97.85-2.99.25-1.33.33-2.69.51-4.03.03-.22.04-.45.09-.67.05-.24.23-.38.46-.45.24-.08.63.02.75.19.08.11.15.23.21.35.2.41.26.86.3,1.31.05.67.1,1.35.15,2.03.19,2.34.56,4.66,1.01,6.96.25,1.28.53,2.56.8,3.84.03.13.06.27.06.4,0,.27-.26.75-.65.75-.54,0-1.09.01-1.62-.06-.86-.12-1.71-.09-2.57-.05-1.72.09-3.42.28-5.09.7-1.45.36-2.85.86-4.13,1.65-.7.43-1.33.94-1.83,1.59-.22.28-.4.6-.54.93-.19.43-.02.92.37,1.2.37.27.79.44,1.25.46.59.04,1.17.02,1.75-.1,1.65-.34,3.22-.9,4.71-1.66,1.21-.61,2.38-1.3,3.57-1.94.36-.19.72-.36,1.09-.53.05-.02.18.04.21.1.04.06.05.19,0,.25-.1.15-.21.3-.36.39-.68.45-1.36.89-2.06,1.3-1.36.81-2.76,1.55-4.25,2.09-.68.25-1.36.47-2.06.68-.41.12-.45.31-.43.57.19,1.94.13,3.88.18,5.82.04,1.85.05,3.7.08,5.55,0,.36.05.72.1,1.07,0,.05.14.13.21.13.13-.01.26-.07.38-.13,2.68-1.4,5.41-2.7,8.2-3.88.17-.07.33-.15.48-.25.16-.1.25-.26.26-.45.02-.72.03-1.44.04-2.17.02-1.45.05-2.89.18-4.33.06-.72.05-1.44.1-2.16.09-1.31.18-2.61.29-3.92.03-.35.13-.71.24-1.05.07-.23.29-.34.53-.36.28-.03.6.14.67.36.06.17.12.34.13.52.02.41.02.81.02,1.22,0,3.25,0,6.5,0,9.76,0,.4.03.81.06,1.21,0,.1.2.24.3.21.26-.08.52-.16.77-.26,6.24-2.51,12.64-4.6,19.03-6.69.6-.2,1.2-.39,1.8-.6.19-.06.32-.21.31-.4-.02-.86-.06-1.71-.1-2.57,0-.09-.03-.19-.08-.25-.41-.5-.34-1.1-.34-1.69,0-.54.02-1.08.02-1.63,0-.27-.03-.54-.05-.83-.22-.11-.41-.21-.61-.31-.48-.25-.75-.63-.8-1.17-.07-.76-.15-1.53-.07-2.3.02-.22-.04-.44-.08-.66-.02-.07-.11-.17-.18-.18-.17-.04-.36-.05-.54-.05-.5,0-.99,0-1.49-.01-.29,0-.52-.25-.51-.52,0-.2.18-.43.4-.49.17-.04.35-.08.53-.09.45-.02.9-.02,1.35-.03.24,0,.42-.19.44-.43.02-.27.04-.54.04-.81,0-2.85,0-5.69,0-8.54,0-1.32-.04-1.27-1.27-1.3-.36,0-.72-.02-1.08-.05-.2-.02-.32-.17-.37-.35-.06-.18.02-.37.17-.48.14-.1.31-.2.48-.21.54-.03,1.08-.02,1.63-.03.24,0,.43-.16.48-.4.04-.18.07-.35.1-.53.1-.72.47-1.26,1.11-1.61.16-.09.31-.18.48-.27.22-.37.11-.79.16-1.19.03-.22.09-.44.15-.65.04-.14.27-.25.45-.23.16.01.38.18.4.32.02.13.06.26.06.4.02.4.03.81.04,1.25.44.31.97.48,1.33.9.32.38.65.75.98,1.12.36.41.72.81,1.08,1.21.62.68,1.38,1.17,2.24,1.48.81.3,1.64.5,2.5.59.81.08,1.62.17,2.43.21.58.03,1.17,0,1.76-.03.17,0,.33-.11.54-.19.02-.37.05-.73.07-1.09.02-.31.03-.63.07-.94.04-.32.4-.5.73-.36.08.03.16.1.19.17.05.12.08.26.09.39.02.41,0,.81.03,1.22,0,.17.07.35.12.55.66-.04,1.28-.18,1.88-.35,1.83-.5,3.66-1,5.48-1.51,1.96-.55,3.95-.96,5.99-1.04.09,0,.18-.03.25-.08.06-.05.15-.15.13-.21-.02-.12-.08-.3-.17-.33-.21-.07-.44-.08-.66-.08-.58,0-.76-.51-.75-.93,0-.17.03-.39.13-.51.31-.39.3-.83.3-1.29,0-1.04,0-2.08,0-3.12,0-.42-.04-.8-.36-1.12-.17-.17-.17-.41-.17-.64,0-.35.15-.63.45-.78,1.2-.63,2.43-.62,3.65-.07.51.23.71.88.45,1.39-.55.47-.51,1.11-.51,1.75,0,.95,0,1.9,0,2.85,0,.32.03.63.21.91.15.24.15.51.15.79-.01.49-.2.74-.73.78-.22.02-.44.06-.66.1-.11.02-.21.21-.15.33.03.07.09.18.16.19.53.12,1.06.22,1.59.33,1.31.28,2.46.87,3.48,1.73.92.77,1.65,1.67,2.07,2.8.08.21.17.42.27.62.09.17.25.25.44.26.19.01.39-.02.47-.19.36-.78.78-1.53,1.32-2.2.2-.25.24-.58.25-.9.01-.45,0-.9.01-1.35,0-.45,0-.9.01-1.35.01-.81.45-1.37,1.13-1.72,1.44-.76,2.82.27,3.04,1.64.07.4.04.81.04,1.22,0,3.34,0,6.68,0,10.03,0,.41,0,.81.02,1.22,0,.13.06.25.09.36.29.13.55.1.81,0,.41-.16.68-.44.75-.88.02-.13.07-.27.05-.4-.1-1,.11-1.98.13-2.97,0-.41.11-.8.3-1.17.31-.59,1.28-.76,1.76-.3.16.15.28.35.43.52.07.09.31.13.36.07.88-1.08,1.12-1.07,2.6-1.05.68.01,1.36,0,2.03,0,.27,0,.54.01.81.02.48.01.88.21,1.17.59.25.33.52.6.9.79.29.15.27.65-.03.78-.34.14-.64.32-.89.59-.36.39-.82.55-1.34.55-1.08,0-2.17.01-3.25.03-.67,0-1.25-.17-1.68-.71-.06-.07-.13-.12-.2-.18-.15-.13-.36-.14-.48-.02-.35.35-.65.75-1.07,1.03-.1.06-.17.22-.18.35-.04.4-.04.81-.08,1.22-.02.27-.05.54-.12.8-.2.74-.67,1.28-1.39,1.56-.46.18-.94.3-1.41.44-.12.36-.22.7-.36,1.03-.34.77-.96,1.21-1.79,1.24-.89.04-1.56-.4-1.99-1.17-.15-.27-.21-.6-.23-.91-.03-.54,0-1.08,0-1.62,0-.36.03-.72.03-1.08,0-.32-.09-.64-.31-.88-.57-.61-.95-1.31-1.24-2.08-.03-.08-.08-.18-.15-.21-.11-.05-.25-.08-.37-.07-.06,0-.15.1-.16.17-.06.35-.1.71-.16,1.07-.18,1.3-.48,2.57-.8,3.84-.26,1.01-.47,2.02-.6,3.05-.34,2.67.06,5.22,1.28,7.63.27.53.58,1.02,1.01,1.43.05.05.17.07.23.05.07-.03.15-.12.16-.19.04-.27.05-.54.09-.81.17-1.02.72-1.74,1.68-2.12.7-.28,1.41-.27,2.1.08.61.31.96.81,1.12,1.45.24.97-.57,1.81-1.57,1.63-.19-.03-.33-.15-.44-.3-.3-.43-.24-1.04.16-1.34.21-.16.45-.28.68-.42-.09-.18-.21-.3-.41-.33-.27-.04-.53,0-.79.1-1.53.62-1.84,2.62-.55,3.64.37.29.81.38,1.28.31.36-.06.69-.18,1.01-.38.63-.4,1.11-.92,1.49-1.55.54-.89.96-1.84,1.33-2.81.35-.93.68-1.86,1.07-2.78.32-.75.67-1.48,1.06-2.19,1.18-2.08,2.97-3.36,5.31-3.85.94-.2,1.9-.2,2.83-.03,1.41.25,2.35,1.11,2.83,1.52.37.31.65.6.83.81-.13,0-.28.03-.39-.02-.28-.14-.55-.31-.82-.47-.95-.56-1.99-.83-3.06-.98-.91-.13-1.79.09-2.65.36-2.37.74-4.04,2.29-5.1,4.51-.31.65-.53,1.33-.76,2.02-.3.89-.56,1.8-.84,2.7-.2.64-.45,1.27-.79,1.86-.18.31-.37.62-.6.9-.79.98-1.83,1.42-3.08,1.36-.08,0-.16-.08-.23-.12-.12.09-.24.04-.37,0-.04-.01-.08-.03-.13-.02-.02,0-.04.04-.06.06.07.01.13.04.2.03.12,0,.24-.04.36-.06ZM48.62,31.28c-.5,1.08-.69,2.26-.64,3.49,0,.04.03.08.04.13.02.11.09.17.19.16.26-.03.54-.04.79-.12,3.03-.9,6.05-1.82,9.07-2.72,4.06-1.21,8.14-2.4,12.23-3.5.53-.14,1.06-.23,1.6-.23.22,0,.44.07.66.11.15.03.32.26.28.41-.03.12-.1.28-.2.32-.37.16-.75.3-1.14.43-7.37,2.44-14.78,4.75-22.2,7.01-.78.24-1.55.48-2.32.73-.12.04-.26.07-.23.29.49.02.98.05,1.48.05,2.67.02,5.33.04,8,.05,3.62,0,7.23,0,10.85,0,.77,0,1.54-.02,2.3-.06.22,0,.43-.09.63-.13.08-.31.12-.58.21-.84.25-.78.74-1.36,1.58-1.51.56-.1.87-.44,1.12-.89.31-.55.57-1.14.7-1.76.4-1.86.68-3.73.54-5.64-.1-1.34-.58-2.54-1.43-3.59-.61-.74-1.33-1.35-2.15-1.84-.78-.47-1.6-.84-2.45-1.14-1.33-.47-2.69-.73-4.09-.92-2.54-.35-5.05-.17-7.53.42-1.46.35-2.82.94-4.02,1.87-1.21.94-2.12,2.08-2.46,3.62-.11.48-.28.95-.43,1.43-.11.36-.31.65-.62.87-.15.1-.28.22-.44.35-.02.36-.06.72-.06,1.08,0,.22.02.45.05.67.02.19.13.3.36.33.13.02.27,0,.4.02.19.03.33.18.33.37,0,.18-.03.36-.08.53-.02.07-.12.15-.19.16-.22.02-.44,0-.72,0ZM22.57,19.62c-.26.15-.31.42-.38.68-.21.75-.56,1.43-1.02,2.05-.3.41-.68.72-1.13.95-.34.17-.69.21-1.05.11-.21-.06-.4-.22-.67-.11-.16.29-.32.6-.51.91-.49.82-1.88,1.37-2.89.25-.27-.3-.51-.63-.72-.97-.19-.3-.33-.64-.5-.96-.08-.16-.18-.31-.28-.46-.02-.03-.1-.07-.11-.06-.07.04-.17.1-.17.17-.06.49-.11.98-.16,1.48-.09.86-.31,1.68-.78,2.42-.22.35-.48.66-.83.88-.41.26-.82.32-1.28.11-.38-.17-.68-.43-1.02-.66-.1-.07-.23-.08-.34-.12-.1.29-.18.55-.29.79-.38.82-1.05,1.22-1.93,1.25-.4.01-.81-.04-1.21-.11-.44-.09-.87-.24-1.3-.35-.12-.03-.26,0-.4,0,.03.1.03.21.08.27,1.49,1.69,2.76,3.56,4.2,5.3.02.02.07,0,.11.01.03-.03.07-.06.09-.1.04-.08.07-.17.09-.25.2-.92.73-1.63,1.38-2.28.58-.58,1.24-1.04,1.95-1.45,1.3-.75,2.7-1.26,4.15-1.61,2.33-.57,4.7-.88,7.11-.82.36,0,.72-.02,1.08-.03.12,0,.23-.16.22-.29-.01-.18-.01-.36-.05-.54-.45-1.93-.85-3.88-1.14-5.84-.03-.21-.06-.44-.26-.59ZM63.54,17.54c.19-.35.38-.71.59-1.05.78-1.34,1.91-2.26,3.36-2.8.12-.04.27-.05.4-.03.05,0,.14.16.12.19-.2.35-.43.68-.63,1.03-.69,1.2-.17,2.88,1.13,3.43.7.29,1.41.31,2.12.14.3-.07.57-.27.79-.5.43-.44.65-.97.67-1.58.04-1.05-.83-1.78-1.87-1.58-.5.1-.89.54-.89,1.04,0,.04.04.08.06.11.05.1.13.11.21.02.15-.17.27-.36.43-.52.29-.29,1.14-.3,1.41.27.27.57.23,1.15-.16,1.66-.52.7-1.25.84-2.06.71-1.08-.17-1.74-1.04-1.63-2.12.04-.36.15-.7.33-1.02.27-.48.64-.87,1.08-1.2.77-.58,1.65-.96,2.59-1.12,1.25-.22,2.51-.33,3.78-.24,1,.07,1.96.29,2.86.75.15.08.28.21.41.33.03.02.03.09.02.13,0,.03-.06.07-.09.07-.22,0-.45.01-.66-.05-1.32-.39-2.59-.16-3.84.31-.08.03-.17.08-.22.14-.05.06-.09.17-.06.23.03.06.15.13.21.11.44-.09.88-.2,1.31-.31.71-.18,1.42-.16,2.15-.03.89.17,1.75.42,2.55.87.12.07.24.12.36.18.08.04.16.09.25.11.08.01.17-.01.25-.03.1-.02.14-.23.08-.36-.35-.71-.91-1.23-1.56-1.66-1.19-.78-2.51-1.23-3.93-1.33-1.67-.12-3.33,0-4.97.42-1.4.36-2.79.76-4.14,1.28-.77.29-1.55.45-2.38.44-.95-.02-1.9,0-2.85.02-.06,0-.13.08-.19.13-.07.06.09.26.23.27.45.03.9.06,1.35.1.18.02.35.06.53.11.02,0,.04.07.04.11,0,.04,0,.1-.02.12-.53.45-1.16.71-1.83.78-1.35.15-2.71.14-4.04-.18-.61-.15-1.22-.34-1.83-.5-.03,0-.1.04-.1.07-.01.07-.02.2.01.22.19.12.38.25.6.31.74.21,1.48.38,2.22.59.21.06.41.16.61.26.03.01.05.08.06.12,0,.03-.02.08-.05.09-.83.36-1.73.48-2.61.67-.89.2-1.78.28-2.69.28-.65,0-1.25-.14-1.85-.34-.67-.23-1.16-.67-1.52-1.28-.44-.75-.24-1.76.45-2.32.36-.29,1.02-.34,1.4-.08.36.25.53.61.49,1.05-.02.27-.08.53-.1.8,0,.05.11.12.17.17.03.02.1.02.13,0,.1-.08.24-.16.28-.27.2-.48.2-.98,0-1.45-.41-.92-1.71-1.27-2.55-.73-.99.64-1.28,1.65-.91,2.71.47,1.34,1.55,1.99,2.87,2.16,1.16.15,2.34.15,3.51-.12.83-.2,1.67-.38,2.51-.56.17-.04.36-.05.53-.04.07,0,.17.1.18.16.02.17,0,.36,0,.53,0,.12.04.19.13.17.08-.02.18-.05.22-.11.13-.18.24-.38.36-.57.24-.39.57-.71.99-.9,1.03-.45,2.07-.89,3.11-1.32.04-.02.1-.04.13-.02.07.03.14.07.2.13.02.02.02.1,0,.13-.32.59-.65,1.18-.97,1.78-.07.13.02.23.31.36ZM78.31,22.78c.09,0,.18,0,.27-.02,1.14-.22,1.99-.82,2.5-1.87.22-.45.37-.93.32-1.43-.18-1.75-1.36-2.64-2.61-2.89-1.88-.38-3.62,1.22-3.67,2.91-.05,1.77,1.09,3.19,3.19,3.31Z"/>
      <path class="cls-1" d="M33.42,54.37c.25-.15.45-.26.63-.38.36-.24.76-.27,1.17-.23.81.09,1.4.82,1.27,1.62-.07.44-.21.88-.36,1.3-.47,1.37-.95,2.73-1.42,4.09-.21.6-.4,1.2-.58,1.8-.09.3-.17.65.14.87.28.2.61.11.91,0,.17-.06.33-.15.47-.26.5-.34.87-.79,1.11-1.34.18-.41.35-.83.5-1.26.56-1.57,1.1-3.15,1.65-4.73.1-.3.2-.6.33-.89.35-.76,1.05-1.12,1.89-.99.18.03.35.08.51.16.26.13.51.13.78.04.3-.1.61-.18.92-.21.88-.08,1.71.06,2.43.63.07.05.16.08.24.12.43,0,.73-.31,1.1-.46,1.1-.42,2.21-.43,3.31-.02,1.37.52,2.13,1.79,1.78,3.38-.1.44-.27.86-.43,1.28-.43,1.19-.87,2.37-1.29,3.56-.07.21-.09.44-.11.66-.02.15.17.35.33.39.37.09.71.02,1.03-.18.59-.37,1.02-.89,1.31-1.52.19-.41.35-.83.5-1.26.48-1.36.94-2.73,1.42-4.09.13-.38.27-.77.44-1.13.13-.28.29-.56.49-.81.41-.52.93-.69,1.71-.46.57.17.96.89.83,1.54-.08.4-.21.78-.35,1.17-.44,1.28-.9,2.56-1.34,3.83-.16.47-.33.94-.49,1.41-.07.21-.14.43-.19.65-.14.59.22.99.82.89.22-.04.44-.11.63-.22.53-.3.9-.76,1.13-1.31.32-.75.62-1.5.9-2.26.35-.93.67-1.87,1.01-2.8.12-.34.23-.69.39-1.01.62-1.23,1.64-1.89,3.02-1.97.74-.04,1.44.09,2.08.49.15.09.31.19.47.26.06.02.2-.04.23-.1.14-.28.27-.57.37-.87.38-1.06.73-2.13,1.12-3.2.17-.47.35-.93.57-1.37.14-.27.34-.55.58-.74.52-.42.95-.45,1.51-.17.55.28.78.74.76,1.32-.02.45-.16.88-.31,1.31-.79,2.26-1.56,4.52-2.34,6.78-.54,1.58-1.09,3.16-1.63,4.74-.07.21-.1.44-.13.66-.02.14.17.34.32.4.32.13.63.06.92-.09.5-.25.89-.63,1.13-1.14.17-.37.33-.74.46-1.13.48-1.36.95-2.73,1.43-4.09.14-.38.28-.77.46-1.13.63-1.23,1.64-1.88,3.03-1.95.68-.03,1.35,0,2,.27.12.05.26.06.35.08.4.02.62-.25.89-.4.38-.2.78-.23,1.19-.16.72.13,1.21.75,1.14,1.46-.04.36-.12.71-.24,1.05-.55,1.67-1.12,3.34-1.68,5-.19.56-.35,1.12-.51,1.68-.07.26.16.53.45.56.33.04.63-.02.91-.18.57-.32,1.01-.75,1.29-1.35.11-.25.21-.5.3-.75.51-1.45,1.01-2.9,1.52-4.34.04-.11-.05-.31-.15-.34-.04-.02-.08-.03-.13-.04-.09-.02-.18-.03-.26-.06-.61-.23-.86-.61-.82-1.24.04-.53.47-1.07.98-1.17.35-.07.72-.08,1.07-.12.19-.02.34-.13.42-.3.12-.24.22-.5.31-.75.35-.98.69-1.96,1.06-2.93.14-.38.32-.75.54-1.08.14-.22.36-.4.58-.55.51-.34,1.03-.25,1.53.07.44.28.69.9.57,1.43-.08.35-.19.7-.31,1.04-.27.81-.56,1.62-.84,2.43-.17.49-.08.6.48.68.22.03.45.05.67.11.33.08.61.45.63.8.04.63-.28,1.19-.85,1.4-.25.09-.52.15-.78.19-.31.04-.63.03-.95.05-.19.01-.33.12-.41.3-.07.17-.15.33-.21.5-.51,1.45-1.03,2.89-1.53,4.34-.09.25-.16.52-.21.78-.11.6.25,1.04.87,1.13.42.06.81-.01,1.18-.2.71-.36,1.25-.88,1.57-1.62.16-.37.3-.75.44-1.14.37-1.02.73-2.04,1.1-3.06.14-.38.29-.76.48-1.12.81-1.52,2.09-2.32,3.8-2.44.87-.06,1.71.02,2.51.42,1.58.77,2.3,2.57,1.81,4.1-.29.9-.52,1.83-1.11,2.6-.11.15-.09.4.01.5.14.13.31.18.5.15.96-.2,1.64-.73,1.97-1.66.2-.55.38-1.11.58-1.66.34-.98.69-1.96,1.03-2.94.13-.39.32-.74.59-1.05.38-.44,1-.59,1.61-.36.55.21.89.63.92,1.22.02.31-.03.63-.12.93-.16.56-.36,1.12-.56,1.67-.48,1.36-.97,2.72-1.44,4.09-.12.34-.2.69-.28,1.04-.06.25.21.52.49.53.24,0,.44-.06.64-.18.63-.39,1.09-.95,1.4-1.61.19-.41.36-.83.51-1.25.51-1.4,1-2.8,1.51-4.21.06-.17.13-.34.19-.51.44-1.19.46-1.21,1.57-1.99-.16-.5-.32-1.01-.48-1.52-.07-.22.03-.46.23-.58.31-.19.62-.37.93-.56.23-.14.46-.28.7-.44.02-.18.07-.36.07-.54-.02-.81-.03-1.62.16-2.43.04-.18-.04-.36-.19-.48-.35-.28-.72-.55-1.07-.83-.14-.11-.29-.22-.39-.36-.07-.1-.07-.25-.07-.38,0-.08.06-.17.1-.25.65-1.41.46-1.43,2.09-1.02.22.06.44.09.66.13.19.03.38-.02.5-.16.55-.67,1.22-1.21,1.91-1.71.19-.14.28-.35.24-.6-.08-.54-.16-1.07-.22-1.61-.02-.19.09-.35.26-.44.16-.08.33-.15.5-.21,1.17-.42,1.17-.44,1.8.66.2.35.34.75.69.97,1.05.03,2.08.07,3.13.1.22-.07.35-.27.48-.44.25-.32.49-.65.74-.97.2-.25.46-.32.72-.21.25.11.5.22.74.34.62.31.72.41.52,1.17-.07.26-.15.52-.23.78-.15.47-.12.86.31,1.2.57.45,1.01,1.03,1.41,1.63.17.25.42.34.71.3.49-.06.98-.14,1.47-.21.22-.03.46.1.54.32.14.38.28.76.41,1.15.1.31.02.53-.24.7-.45.3-.91.59-1.36.89-.15.1-.25.28-.23.46.08.86,0,1.71-.14,2.56-.04.24.07.44.26.59.43.33.87.65,1.29.98.18.14.24.41.14.61-.2.41-.4.81-.61,1.21-.07.13-.32.25-.47.21-.52-.13-1.05-.27-1.57-.41-.29-.08-.52,0-.74.21-.45.45-.88.92-1.38,1.3-.72.54-.78.58-.64,1.59.04.27.06.54.09.81.04.43-.05.62-.41.75-.38.14-.77.27-1.15.39-.16.05-.38-.03-.48-.18-.17-.27-.33-.54-.5-.81-.14-.23-.27-.47-.43-.69-.11-.16-.28-.23-.47-.23-.36,0-.72,0-1.08,0-.1,0-.22-.2-.18-.31.28-.71.59-1.41,1-2.06.41-.12.8-.21,1.18-.34,1.68-.57,2.89-1.66,3.51-3.33,1.43-3.83-1.44-7.01-3.96-7.53-2.98-.62-5.99,1.06-6.78,3.97-.33,1.19-.3,2.42.16,3.6.13.34.29.66.45,1.01-.25.72-.57,1.41-1,2.05-.07.11-.26.12-.34.01-.23-.28-.45-.57-.68-.84-.12-.14-.29-.22-.48-.19-.44.08-.89.17-1.33.26-.07.24.15.28.25.39.12.13.28.23.38.38.24.35.35.74.24,1.16-.1.35-.22.69-.34,1.03-.6,1.7-1.21,3.4-1.81,5.1-.11.3-.2.6-.3.9-.22.64.28.81.74.73.17-.03.34-.11.5-.19.71-.39,1.18-1,1.47-1.72,1.07-2.69,2.48-5.21,3.69-7.84.11-.25.24-.48.36-.73.18-.35.2-.69-.03-1.02-.13-.19-.25-.38-.36-.57-1.05-1.86-.36-5.19,2.49-6.07.08-.03.18,0,.27-.01.12,0,.25.17.2.28-.2.45-.39.91-.6,1.36-.13.29-.29.56-.42.85-.17.35-.17.69.08,1.02.33.43.65.87.96,1.31.23.32.52.49.92.47.59-.03,1.17-.06,1.76-.1.13,0,.26-.06.39-.09.39-.41.53-.95.79-1.42.27-.46.39-1.01.83-1.4.11.12.23.21.27.32.23.69.36,1.4.23,2.13-.3,1.76-1.26,2.95-3,3.48-.26.08-.52.2-.79.2-.65,0-.94.4-1.19.93-.85,1.79-1.73,3.58-2.6,5.36-.26.53-.52,1.05-.79,1.58-.21.4-.44.79-.82,1.06-.3.22-.49.53-.7.82-.33.49-.7.94-1.14,1.34-.82.76-1.8,1.21-2.91,1.3-.87.07-1.71-.09-2.45-.6-.29-.2-.57-.42-.88-.65-.32.23-.61.44-.9.64-1.06.7-2.2.78-3.37.38-.43-.14-.81-.41-1.09-.77-.22-.28-.42-.58-.63-.87-.17-.1-.35-.09-.52-.04-.67.18-1.34.11-1.9.06-.37.05-.51.24-.65.41-.68.8-1.56,1.19-2.58,1.35-.54.08-1.07.16-1.62.08-.72-.11-1.4-.33-2.01-.75-.18-.13-.37-.26-.53-.37-.28-.06-.45.1-.64.22-.5.31-1.02.59-1.59.74-1.42.36-2.78.24-4.04-.55-.11-.07-.22-.17-.34-.21-.12-.04-.27-.05-.39-.02-.17.05-.32.16-.48.26-.59.36-1.23.56-1.91.66-1.11.15-2.16.04-3.09-.65-.11-.08-.23-.14-.33-.21-.32-.03-.51.19-.74.32-.4.22-.81.39-1.25.49-.98.24-1.88.1-2.71-.48-.15-.1-.3-.21-.42-.29-.28-.08-.47.07-.66.18-.52.29-1.06.49-1.64.62-.84.19-1.62.05-2.37-.3-.37-.17-.71-.39-1.03-.57-.33,0-.53.21-.76.35-1.42.82-2.83.82-4.22-.05-.15-.09-.31-.18-.45-.26-2.5,1.28-3.77,1.17-5.75,0-.33.04-.56.27-.84.41-1.1.55-2.23.68-3.42.33-1.21-.36-2.17-1.38-2.11-2.8.02-.45.06-.9.22-1.33.11-.3.2-.6.31-.89.35-.98.72-1.95,1.06-2.93.1-.29.17-.61.22-.92.05-.3-.28-.61-.6-.58-.18.02-.36.05-.52.13-.5.25-.86.66-1.08,1.17-.22.5-.41,1-.59,1.51-.55,1.53-1.08,3.06-1.64,4.59-.17.46-.37.92-.6,1.36-.4.75-1.43,1.02-2.12.73-.48-.21-.86-.79-.74-1.31.1-.44.25-.87.4-1.29.67-1.87,1.34-3.74,2.02-5.61.09-.26.2-.5.18-.78-.01-.19-.21-.45-.4-.49-.27-.06-.54-.03-.79.11-.41.23-.72.55-.92.96-.2.41-.37.82-.52,1.25-.57,1.62-1.12,3.24-1.69,4.86-.16.47-.33.94-.55,1.38-.42.86-1.2,1.22-2.14.96-.45-.12-.89-.17-1.33-.03-.86.26-1.7.08-2.55-.07-.22-.04-.42-.16-.62-.27-.27-.15-.53-.33-.79-.51-.38.21-.73.42-1.09.6-.85.41-1.72.51-2.63.22-1.02-.32-1.73-.98-2.06-1.99-.23-.7-.18-1.43.05-2.13.16-.52.34-1.03.52-1.54.4-1.15.8-2.3,1.22-3.44.15-.42.33-.84.55-1.23.61-1.06,1.54-1.62,2.76-1.69.73-.04,1.45-.02,2.13.27.12.05.26.06.48.11ZM91.64,63.56c.49-.01.89-.2,1.14-.62.06-.1.09-.26.06-.38-.02-.12-.13-.23-.2-.35-.55-.95-.39-1.98.42-2.66.24-.2.52-.36.84-.4.36-.04.56-.24.63-.6.07-.35.18-.7.24-1.05.08-.44-.3-.91-.74-.98-.42-.06-.8,0-1.15.27-.34.25-.57.58-.71.96-.49,1.4-.98,2.8-1.46,4.2-.07.21-.11.43-.13.66-.04.47.31.87.79.92.09,0,.18.01.26.02ZM76.41,57.75c-.02-.14-.03-.27-.07-.4-.09-.27-.24-.49-.53-.56-.28-.07-.54,0-.75.2-.16.16-.31.34-.41.53-.15.28-.26.57-.36.87-.35,1.07-.7,2.14-1.02,3.21-.13.43-.21.87-.29,1.32-.06.35.32.7.69.64.17-.03.36-.07.51-.15.4-.24.71-.56.85-1.01.44-1.32.87-2.65,1.29-3.98.07-.21.06-.44.09-.66ZM28.93,62.76c0,.18.01.22.01.27,0,.27.24.49.53.51.33.02.62-.07.88-.28.33-.26.54-.6.67-.99.43-1.33.85-2.66,1.27-3.98.03-.09.05-.17.07-.26.07-.38-.03-.71-.26-1.01-.2-.27-.72-.35-.98-.13-.14.11-.28.24-.37.39-.16.27-.31.55-.41.84-.42,1.28-.83,2.57-1.23,3.86-.09.3-.14.61-.18.79ZM61.98,62.11c.01.12.02.16.02.21.02.44.46.68.88.5.53-.23.89-.61,1.09-1.14.39-1.06.78-2.11,1.15-3.18.09-.25.1-.53.1-.8,0-.17-.06-.35-.13-.52-.17-.43-.81-.57-1.14-.26-.1.09-.2.19-.27.3-.14.23-.28.47-.37.72-.41,1.15-.82,2.29-1.2,3.45-.08.25-.09.53-.13.72Z"/>
      <path class="cls-1" d="M63.72,71.67c20.47,0,40.95,0,61.42,0,.54,0,1.08.02,1.63.03.22,0,.43.21.43.44,0,.63.01,1.26,0,1.89,0,.29-.21.47-.53.49-.23.02-.45.02-.68.03-.41,0-.81,0-1.22,0-40.77,0-81.54,0-122.31,0-.54,0-1.08,0-1.63-.01-.13,0-.27-.03-.4-.04-.12-.02-.35-.24-.36-.37,0-.68-.01-1.35,0-2.03,0-.22.22-.41.46-.41.5-.01.99-.03,1.49-.03,20.56,0,41.13,0,61.69,0Z"/>
      <path class="cls-1" d="M42.15,85.21c0-1.44,0-2.89,0-4.33,0-.27.01-.54.05-.81.02-.12.11-.26.27-.26.4-.01.81-.02,1.21,0,.19,0,.33.13.41.31.15.33.29.66.43.99.53,1.25,1.04,2.5,1.59,3.74.11.25.07.66.5.72.22-.22.11-.5.11-.75.01-1.31,0-2.62,0-3.93,0-.27,0-.54.06-.81.02-.1.16-.19.27-.26.07-.04.17-.04.26-.04,1.25-.04,1.29-.02,1.3,1.24,0,2.84,0,5.69,0,8.53,0,.23-.02.45-.03.68-.02.26-.18.44-.41.45-.27.01-.54,0-.81.02-.36.02-.61-.13-.75-.45-.25-.58-.5-1.16-.75-1.74-.49-1.11-.98-2.23-1.47-3.34-.04-.1-.12-.13-.22-.09-.03.01-.06.06-.06.1-.02.27-.04.54-.05.81,0,1.17,0,2.35,0,3.52,0,.27-.02.54-.04.81-.01.15-.21.35-.36.35-.4,0-.81,0-1.21-.03-.09,0-.23-.17-.24-.28-.04-.31-.05-.63-.05-.94,0-1.4,0-2.8,0-4.2Z"/>
      <path class="cls-1" d="M84.73,84.91c-.11-.16-.23-.29-.31-.45-.12-.24-.28-.48-.32-.74-.12-.72-.12-1.44.04-2.15.25-1.1,1.3-1.81,2.1-1.85.36-.02.72-.03,1.08,0,.99.06,2.15.94,2.23,2.19.02.4.05.81.04,1.22-.01.65-.17,1.25-.67,1.73.06.14.09.28.17.37.27.32.4.7.45,1.11.1.81.06,1.62-.02,2.43-.1,1.01-1.07,1.77-1.87,1.9-.44.07-.9.06-1.35.05-.62-.02-1.13-.3-1.56-.72-.3-.29-.5-.63-.58-1.05-.18-.9-.16-1.8-.05-2.7.04-.36.18-.7.43-.98.08-.1.13-.22.21-.36ZM87.71,87.34c-.02-.35-.01-.71-.06-1.07-.05-.4-.52-.72-.87-.7-.39.02-.81.39-.81.77-.02.67-.01,1.35,0,2.02,0,.12.07.26.13.37.16.28.59.43.95.33.31-.08.59-.35.61-.64.03-.36.04-.72.05-1.08ZM85.96,82.68s0,0,0,0c0,.31-.01.63,0,.94.02.29.39.62.74.68.35.06.87-.28.92-.63.09-.58.09-1.16,0-1.74-.05-.31-.45-.6-.8-.61-.41-.01-.84.33-.87.69-.02.22,0,.45,0,.67Z"/>
      <path class="cls-1" d="M35.48,82.83c-.08-.24-.16-.5-.25-.75-.26-.65-.85-.92-1.55-.71-.38.12-.63.35-.71.74-.05.22-.11.45-.1.67.02.53.2.97.75,1.17.6.21,1.19.44,1.78.64.39.13.75.31,1.06.58.32.27.54.61.63,1.02.18.85.2,1.7,0,2.55-.27,1.23-1.24,1.79-2.04,1.93-.63.11-1.26.12-1.89.01-1.34-.23-2.26-1.28-2.32-2.61,0-.24.16-.46.39-.46.4,0,.81,0,1.21.02.07,0,.18.08.21.15.07.16.1.35.15.52.17.55.57.79,1.11.83.22.01.45-.04.66-.09.34-.07.54-.32.65-.63.16-.48.14-.98.05-1.47-.07-.38-.27-.67-.64-.82-.5-.2-1.02-.36-1.52-.57-.38-.15-.75-.31-1.1-.51-.54-.31-.84-.81-.96-1.41-.11-.53-.12-1.08-.04-1.62.18-1.15,1.07-2.06,2.22-2.25.49-.08.99-.09,1.49-.03.75.09,1.38.42,1.89.96.5.53.66,1.16.57,1.88-.02.15-.21.34-.36.36-.45.05-.9.1-1.36-.08Z"/>
      <path class="cls-1" d="M80.04,90.64c-.57.08-1.15.11-1.72-.02-.06-.01-.13-.14-.12-.2.05-.22.11-.44.2-.64.39-.86.79-1.72,1.18-2.59.11-.24.19-.5.29-.77-.17-.06-.29-.12-.41-.15-.26-.06-.54-.09-.79-.16-.71-.22-1.15-.69-1.23-1.45-.1-.95-.08-1.89-.04-2.84.05-.95.73-1.74,1.73-2.02.62-.17,1.26-.16,1.88-.02,1,.23,1.78,1.07,1.85,2.09.05.72.04,1.45,0,2.16-.03.4-.15.8-.31,1.17-.73,1.7-1.49,3.39-2.25,5.08-.05.12-.15.22-.25.36ZM80.94,83c-.01-.37,0-.62,0-.79,0-.06-.01-.16-.02-.28-.01-.12-.11-.25-.2-.34-.24-.23-.54-.31-.87-.21-.34.1-.56.34-.58.67-.03.67-.02,1.35.01,2.02.02.37.36.62.75.65.09,0,.18,0,.27-.01.32-.05.61-.32.63-.62.02-.36,0-.72,0-1.08Z"/>
      <path class="cls-1" d="M50.06,85.13c0-.72,0-1.44,0-2.16,0-.27,0-.54.02-.81.1-1.26.94-2.19,2.18-2.4.54-.09,1.07-.08,1.62-.02,1.11.14,2.39,1.28,2.2,2.79-.02.15-.19.37-.33.38-.31.02-.63.04-.94.04-.43,0-.57-.21-.63-.56-.02-.13-.04-.27-.09-.39-.24-.64-1.18-.9-1.7-.46-.13.11-.23.29-.28.45-.06.21-.09.44-.09.66,0,1.76,0,3.52,0,5.27,0,.09,0,.18.01.27.04.59.49.98,1.1.93.18-.01.35-.07.52-.14.22-.09.37-.25.44-.48.06-.22.08-.45.17-.65.04-.11.17-.22.28-.25.44-.11.89-.11,1.33.02.07.02.15.12.17.2.1.4.08.81-.09,1.19-.41.94-1.14,1.49-2.13,1.68-.58.11-1.18.08-1.75-.05-1.02-.23-1.83-.96-1.97-2.14-.04-.36-.04-.72-.04-1.08,0-.77,0-1.53,0-2.3Z"/>
      <path class="cls-1" d="M57.56,85.18c0-1.49,0-2.97,0-4.46,0-.22.03-.45.07-.67.01-.07.1-.14.17-.19.03-.03.08-.05.12-.05,1.58,0,3.15-.01,4.73,0,.23,0,.41.2.42.44,0,.22.01.45-.04.67-.02.11-.15.24-.25.27-.21.06-.44.08-.66.08-.72.02-1.44.01-2.16.03-.28,0-.5.23-.5.53-.01.68-.01,1.35,0,2.03,0,.33.18.51.49.52.63.01,1.26,0,1.89.02.18,0,.36.03.53.08.07.02.15.11.18.18.1.31.1.63.01.93-.03.11-.15.25-.26.27-.26.06-.53.08-.8.09-.5.02-.99.01-1.49.03-.31.01-.53.2-.54.49,0,.72,0,1.44,0,2.16,0,.22.21.4.46.4.72.01,1.44.02,2.16.03.92.02,1.02.12.99,1.02,0,.09-.03.18-.03.27,0,.16-.13.23-.24.29-.08.04-.17.06-.26.06-1.49,0-2.98,0-4.46,0-.09,0-.18-.02-.26-.06-.07-.04-.17-.11-.18-.18-.04-.27-.08-.54-.08-.8,0-1.49,0-2.97,0-4.46h0Z"/>
      <path class="cls-1" d="M93.15,90.57c-.53.21-1.07.12-1.61.1-.11,0-.26-.18-.24-.28.05-.22.09-.44.16-.65.8-2.35,1.6-4.69,2.4-7.03.12-.34.22-.69.33-1.03.04-.12-.07-.3-.17-.33-.45-.11-.89-.12-1.33.01-.08.02-.17.11-.18.18-.05.22-.07.44-.11.66-.03.2-.16.31-.37.32-.31,0-.63,0-.94-.01-.17,0-.33-.18-.33-.36,0-.67,0-1.35.01-2.02,0-.16.19-.32.37-.33.27-.02.54-.03.81-.03,1.17,0,2.35,0,3.52,0,.13,0,.27.02.4.03.18.02.34.17.36.34.06.63.06,1.25-.16,1.87-.9,2.64-1.77,5.3-2.66,7.94-.07.21-.18.41-.27.63Z"/>
      <path class="cls-1" d="M74.75,85.24c0,1.44,0,2.88,0,4.32,0,.27-.01.54-.06.8-.02.12-.11.24-.27.27-.45.09-.89.09-1.34-.01-.07-.02-.17-.11-.18-.18-.04-.26-.08-.53-.08-.8,0-2.11,0-4.23,0-6.34,0-.45-.02-.9-.04-1.35,0-.11-.2-.22-.3-.18-.08.03-.17.06-.25.1-.24.13-.46.27-.7.4-.34.19-.53.09-.54-.25,0-.18,0-.36-.01-.54-.03-.4.14-.69.48-.89.12-.07.23-.14.34-.22,1.06-.67,1.29-.72,2.54-.6.16.01.36.19.37.34.02.31.04.63.05.94,0,1.39,0,2.79,0,4.18Z"/>
      <path class="cls-1" d="M38.6,85.19c0-1.44,0-2.88,0-4.32,0-.27,0-.54.06-.8.02-.1.16-.19.27-.26.07-.04.17-.04.26-.04,1.25-.04,1.29-.02,1.3,1.24,0,2.84,0,5.68,0,8.51,0,.27-.03.54-.05.81-.01.13-.23.34-.37.34-.4,0-.81-.01-1.21-.04-.07,0-.17-.11-.18-.18-.04-.22-.07-.44-.07-.66,0-1.53,0-3.06,0-4.6h0Z"/>
      <path class="cls-1" d="M60.49,50.4c0,.93-.81,1.74-1.73,1.71-.86-.03-1.69-.74-1.7-1.76,0-.9.85-1.74,1.74-1.71.95.03,1.7.81,1.69,1.76Z"/>
      <path class="cls-1" d="M95.21,24.87c-.96.76-1.55,1.74-1.75,2.96-.07.44-.17.89-.27,1.33-.12.49-.28.95-.61,1.34-.46.54-1.04.69-1.71.52-.57-.15-.99-.87-.88-1.51.04-.27.16-.52.34-.72.15-.18.36-.27.59-.31.37-.05.75.18.86.51.1.31-.1.75-.43.9-.12.05-.26.06-.39.1-.22.06-.29.14-.22.24.08.1.17.22.28.26.49.16.9-.01,1.2-.4.18-.25.32-.55.4-.84.14-.48.22-.97.31-1.45.23-1.14.73-2.13,1.68-2.85.06-.05.16-.11.3-.12.13-.01.24.03.3.06Z"/>
      <path class="cls-1" d="M97.63,34.17c.31-1.01.84-1.25,2.1-2.99.29-.4.65-.75,1.07-1.02.57-.37,1.18-.43,1.81-.22.62.2,1.04,1.05.75,1.66-.18.38-.42.69-.81.87-.37.17-.7.11-1.02-.12-.29-.2-.36-.7-.12-.96.22-.24.49-.4.84-.3.17.05.34.08.51.09.11,0,.15-.1.12-.21-.14-.42-.64-.74-1.04-.66-.45.08-.87.26-1.19.6-.25.26-.47.54-.69.83-.38.51-.72,1.04-1.11,1.54-.3.39-.64.76-.98,1.12-.08.08-.24.09-.36.13.02-.08.05-.21.09-.36Z"/>
      <path class="cls-1" d="M89.07,37.66c-.12.02-.24.05-.36.06-.06,0-.13-.02-.2-.03.02-.02.04-.06.06-.06.04,0,.09,0,.13.02.12.04.24.09.37,0,0,0,0,.01,0,.01Z"/>
      <rect class="cls-1" x="88.18" y="37.37" width=".89" height=".63"/>
    </g>
  </g>
</svg>