<?xml version="1.0" encoding="UTF-8"?>
<svg id="Calque_2" data-name="Calque 2" xmlns="http://www.w3.org/2000/svg" viewBox="0 0 169 28.11">
  <defs>
    <style>
      .cls-1 {
        fill: #fff;
      }

      .cls-2 {
        fill: #999;
      }
    </style>
  </defs>
  <g id="Layer_2_copy" data-name="Layer 2 copy">
    <g>
      <path class="cls-1" d="M119.67,8.49c-.29.05-.59.02-.89.02-.3,0-.6,0-.91,0h-.92c-.02-.07-.04-.13-.05-.19,0-.06,0-.13,0-.19V.26c0-.08,0-.17,0-.26h2.78c0,.12.02.23.02.35,0,2.58,0,5.16,0,7.75,0,.13.03.26-.05.39Z"/>
      <path class="cls-1" d="M105.79,14.71c.01.52-.14.96-.49,1.32-.03.03-.06.07-.09.1-1.16,1.15-2.22,2.38-3.34,3.56-1.73,1.84-3.47,3.66-5.2,5.49-.65.69-1.29,1.39-1.94,2.08-.11.12-.22.24-.34.34-.33.28-.71.43-1.15.45-.33.01-.64-.06-.92-.25-.19-.13-.37-.26-.53-.42-2.3-2.26-4.71-4.4-7.06-6.6-.57-.53-1.12-1.08-1.68-1.61-.41-.38-.82-.76-1.23-1.15-.53-.49-1.05-.99-1.59-1.47-.35-.31-.54-.7-.56-1.16-.01-.47.08-.92.39-1.3.07-.08.14-.16.21-.24,1.79-1.9,3.58-3.79,5.37-5.69,1.37-1.46,2.75-2.92,4.12-4.39.29-.31.58-.64.88-.95.18-.19.36-.37.57-.53.47-.35,1-.43,1.57-.29.18.04.34.13.49.24.13.1.25.2.37.31.56.52,1.11,1.06,1.67,1.58,2.57,2.41,5.14,4.82,7.71,7.23.68.64,1.37,1.28,2.06,1.92.07.07.14.13.21.2.36.34.53.75.51,1.22Z"/>
      <path class="cls-1" d="M169,3.79v4.4c0,.1,0,.19-.01.3-.07.01-.13.03-.19.03-.11,0-.21,0-.32,0h-11.55c-.33,0-.65,0-.97.02-.22.01-.37-.07-.5-.24-.22-.27-.44-.53-.66-.79-.05-.06-.1-.1-.2-.2-.06.43,0,.81-.05,1.19-.07,0-.12.02-.17.02-.12,0-.24,0-.35,0h-25.36c-.34,0-.69,0-1.03.02-.21,0-.36-.06-.49-.24-.23-.3-.5-.57-.75-.85-.03-.03-.06-.05-.11-.08-.06.11-.04.21-.04.3,0,.3,0,.6-.06.9-.1.54-.34,1-.75,1.36-.92.82-1.99,1.18-3.22,1.03-.3-.03-.59-.11-.84-.3.04-.09.13-.09.19-.11.28-.1.56-.23.81-.4.29-.19.53-.44.72-.73.24-.36.35-.76.36-1.19,0-.13,0-.26,0-.39-.01-.65-.03-1.29-.03-1.94,0-1.03,0-2.07,0-3.1,0-.12-.02-.24.04-.37.3-.05.6-.02.9-.02.3,0,.6,0,.91,0,.3,0,.6,0,.88,0,.11.12.08.23.08.33,0,.83,0,1.66,0,2.49v.87c0,.1,0,.21.01.33.07.01.13.03.2.04.11,0,.21,0,.32,0,6.7,0,13.39.01,20.09.02,1.51,0,3.02,0,4.53,0,.13,0,.26.02.38-.04.06-.11.04-.23.04-.35,0-1.08,0-2.15,0-3.23v-.4c.08-.02.14-.05.2-.05.8,0,1.6,0,2.39,0,.04,0,.08.01.12.02.09.11.05.23.05.35,0,1.07,0,2.13,0,3.2,0,.1,0,.19,0,.29,0,.05.02.1.03.16.07.01.13.03.2.03.74,0,1.49.01,2.23.01.04,0,.08-.02.12-.03.07-.11.05-.22.05-.32,0-.59,0-1.19,0-1.78,0-.3,0-.6,0-.91,0-.33-.07-.64-.28-.91-.01-.01,0-.04-.01-.06.02-.06.07-.04.11-.04.35-.02.69-.03,1.03-.04.37-.01.73-.04,1.1.04.07.01.15.03.22.05.3.09.5.29.59.59.03.12.06.25.07.38.02.21.02.43.02.65,0,.66,0,1.31,0,1.97,0,.12-.02.24.04.35.3.08,1.2.09,1.61.02.07-.08.05-.18.05-.27,0-.54,0-1.08,0-1.62,0-.35,0-.71,0-1.07-.02-.48-.06-.6-.3-1,.01-.01.02-.04.04-.04.54-.02,1.08-.05,1.61-.06.2,0,.41.02.61.05.53.08.79.37.85.9.02.23.03.45.03.68,0,.67,0,1.34,0,2,0,.13,0,.26.01.38.27.1,1.19.12,1.6.03.01-.1.03-.2.03-.31,0-.82.01-1.64,0-2.46,0-.18-.02-.37-.05-.55-.04-.23-.12-.45-.28-.63.03-.03.05-.05.06-.05.48-.02.97-.04,1.45-.05.24,0,.47.02.71.06.15.02.3.07.43.14.29.14.44.37.46.69,0,.16.01.32.01.48Z"/>
      <path class="cls-2" d="M89.2,25.97c-.05.07-.09.13-.14.18-.39.42-.79.83-1.17,1.25-.32.34-.68.59-1.15.68-.5.09-.97,0-1.37-.31-.18-.14-.35-.29-.51-.45-2.28-2.14-4.55-4.29-6.83-6.43-1.46-1.36-2.92-2.72-4.38-4.07-.09-.08-.17-.16-.25-.24-.64-.59-.64-1.47-.32-2.08.09-.17.2-.33.33-.48.16-.19.33-.37.5-.55,3.12-3.32,6.24-6.64,9.37-9.97.19-.2.37-.42.57-.62.19-.19.38-.38.6-.54.65-.48,1.57-.47,2.21.09.1.08.19.17.28.26.42.4.84.8,1.26,1.2.07.07.13.13.21.21-.09.1-.16.19-.24.28-1.58,1.68-3.16,3.37-4.73,5.05-1.02,1.09-2.04,2.19-3.07,3.29-.19.2-.38.41-.58.61-.08.09-.16.17-.24.26-.61.72-.73,1.54-.5,2.43.06.23.16.45.32.63.16.19.33.37.51.54,1.8,1.7,3.61,3.4,5.42,5.1,1.09,1.03,2.18,2.05,3.28,3.07.17.16.35.32.53.48.04.04.07.08.12.12Z"/>
      <path class="cls-1" d="M82.37,26c-.04.06-.07.12-.11.16-.42.44-.83.88-1.26,1.3-.43.42-.96.61-1.56.53-.28-.03-.52-.14-.74-.31-.15-.12-.3-.25-.44-.38-.41-.38-.82-.77-1.23-1.15-1.16-1.08-2.31-2.17-3.47-3.25-1.83-1.72-3.66-3.44-5.49-5.16-.38-.35-.76-.7-1.15-1.05-.07-.07-.14-.13-.21-.2-.5-.46-.61-1.04-.49-1.68.07-.36.24-.66.49-.93,1.72-1.83,3.45-3.65,5.17-5.48,1.82-1.93,3.63-3.86,5.44-5.8.25-.27.53-.5.89-.61.59-.17,1.13-.1,1.62.27.16.12.31.26.46.4.34.33.68.67,1.02.99.13.13.27.25.41.38-.04.06-.07.1-.11.14-1.56,1.59-3.07,3.24-4.58,4.88-.81.88-1.64,1.74-2.46,2.61-.55.59-1.1,1.18-1.65,1.77-.2.21-.37.45-.51.7-.32.58-.39,1.2-.23,1.84.07.3.22.56.42.79.14.17.28.32.44.47,2.95,2.77,5.91,5.55,8.86,8.32.15.14.3.28.46.42Z"/>
      <path class="cls-1" d="M63.81,10.97c-.06.02-.11.05-.16.05-.81,0-1.62,0-2.43,0-.03,0-.06-.02-.12-.03-.03-.09-.06-.19-.09-.29-.34-1.3-.68-2.6-1.03-3.9-.02-.07-.05-.14-.1-.27-.1.15-.17.24-.24.34-.41.67-.83,1.34-1.23,2.01-.33.54-.66,1.09-.98,1.63-.21.37-.53.56-.94.61-.17.02-.35.01-.51,0-.29-.04-.53-.17-.72-.4-.07-.09-.15-.19-.21-.29-.63-1.03-1.34-2.01-2.01-3.01-.16-.23-.31-.46-.48-.69-.04-.06-.09-.11-.16-.19-.13.3-.16.6-.23.89-.07.29-.13.59-.2.88-.07.3-.14.61-.2.91-.06.29-.13.59-.19.88-.07.29-.13.59-.2.89-.06.02-.11.04-.16.04-.81,0-1.62,0-2.43,0-.04,0-.08-.01-.12-.02-.06-.09-.01-.17,0-.25.36-1.26.72-2.53,1.08-3.79.25-.87.51-1.74.75-2.6.07-.26.14-.52.2-.78.1-.47.4-.75.85-.88.34-.1.68-.12,1.02-.02.3.09.54.25.7.53.88,1.52,1.88,2.97,2.8,4.46.04.06.09.11.15.18.06-.09.12-.15.16-.22.84-1.34,1.67-2.69,2.51-4.03.1-.16.21-.33.33-.48.38-.49.98-.61,1.51-.4.17.07.33.16.48.26.18.12.3.3.36.52.71,2.39,1.42,4.79,2.12,7.18.03.09.05.18.08.3Z"/>
      <path class="cls-1" d="M142.61,15.65c-.45,0-.88-.02-1.31.01-.02,0-.03.03-.07.06,0,.1-.01.22-.01.34,0,.39,0,.78,0,1.16,0,.6-.01,1.21-.02,1.81,0,.07-.02.14-.04.22-.08,0-.14.01-.21.01-.55,0-1.1,0-1.65-.01-.02,0-.04-.02-.07-.04,0-.06-.02-.13-.02-.21,0-.2,0-.39,0-.58-.01-.32-.06-.64-.17-.95-.17-.5-.51-.84-1.01-1.03-.1-.04-.2-.07-.31-.09-.35-.08-.7-.12-1.06-.12-.53,0-1.06,0-1.59,0-.06,0-.13.02-.16-.09.07-.06.15-.14.23-.2.38-.3.76-.61,1.14-.91.67-.52,1.34-1.05,2.01-1.57.05-.04.14-.07.11-.19h-.26c-.42,0-.84,0-1.26,0-.22,0-.39.06-.56.19-1.01.77-2.02,1.54-3.04,2.3-.18.13-.24.28-.24.49.01.37.02.73.03,1.1,0,.04.01.08.03.14.11,0,.22.02.32.02,1.05,0,2.09,0,3.14,0,.11,0,.21,0,.32,0,.48.03.75.27.84.74.06.28.03.56-.02.84-.01.06-.05.11-.08.18-7.41-.01-14.8.02-22.2-.02-.05,0-.1-.01-.16-.02-.07-.13-.05-.26-.05-.39,0-.93,0-1.85,0-2.78,0-.13.02-.26-.04-.38-.04-.01-.07-.03-.1-.03-.71-.01-1.42.02-2.12.19-.28.07-.56.17-.81.32-.35.21-.61.51-.75.9-.18.52-.25,1.05-.14,1.59.13.59.44,1.05.97,1.35.23.13.47.23.72.28.25.05.51.08.77.11.06.01.12.03.17.04.02.33-.06.45-.34.5-.13.02-.26.02-.39.02-.47,0-.95,0-1.42,0-.08,0-.17.01-.24.02-.06.3-.06.87,0,1.11.04,0,.08.03.12.03.56,0,1.12.03,1.68.02.29,0,.58-.05.86-.12.52-.12.85-.44.96-.97.02-.09.04-.19.05-.28.02-.13.04-.25.06-.39.16-.03.31-.02.46-.02h26.33c.12,0,.24,0,.35,0,.06,0,.12-.02.19-.03,0-.07.01-.13.01-.18,0-1.42,0-2.85,0-4.27,0-.07-.02-.14-.03-.23ZM113.93,19.03c0,.06-.01.13-.02.21-.5.08-.94-.09-1.18-.46-.28-.44-.33-.91-.09-1.37.21-.4.67-.62,1.22-.6.01.05.04.11.05.17.02.22.03.45.03.67,0,.46,0,.92,0,1.38Z"/>
      <path class="cls-1" d="M33.69,10.98c-.09.02-.13.04-.18.04-.22,0-.43,0-.65,0-.88,0-1.77,0-2.65.02-.3,0-.51-.09-.71-.3-.36-.38-.75-.75-1.12-1.12-.21-.21-.44-.42-.64-.64-.16-.17-.35-.23-.58-.23-.94.02-1.87.03-2.81.04-.16,0-.32.02-.52.03-.03.39-.03.75-.03,1.1,0,.34,0,.69,0,1.03-.07.02-.12.04-.17.04-.44.03-2.21,0-2.42-.03-.07-.08-.05-.18-.04-.27.01-1.03.03-2.07.05-3.1,0-.21,0-.43.01-.65,0-.08.02-.17.03-.26.08-.01.16-.03.23-.03,2.22,0,4.44,0,6.66,0,.28,0,.56.01.84-.01.21-.02.43-.06.63-.13.48-.17.7-.68.52-1.16-.13-.35-.39-.56-.74-.67-.13-.04-.27-.06-.41-.07-.27-.01-.54-.01-.81-.01h-6.37c-.1,0-.21,0-.33-.01.01-.05.01-.08.03-.1.42-.55.84-1.1,1.25-1.65.03-.03.06-.07.08-.1.07-.11.17-.17.3-.16.03,0,.07,0,.1,0,1.97,0,3.95,0,5.92-.01,1.02,0,1.9.35,2.67.99.71.59,1.04,1.36,1.05,2.27.01.64-.23,1.2-.67,1.67-.32.34-.72.58-1.16.74-.1.04-.19.08-.3.12.03.14.13.19.21.26.38.32.76.63,1.15.95.45.38.91.76,1.36,1.15.08.07.16.14.26.24Z"/>
      <path class="cls-1" d="M48.08,10.97c-.07.02-.12.04-.17.05-.08,0-.17,0-.26,0-2.99,0-5.97,0-8.96,0-.12,0-.26.03-.39-.05.02-.04.03-.09.06-.12.44-.57.89-1.14,1.32-1.71.11-.14.23-.2.41-.2.93,0,1.85,0,2.78,0,.11,0,.24.02.37-.04-.02-.05-.03-.1-.05-.14-.16-.25-.33-.51-.5-.75-.47-.68-.94-1.36-1.42-2.05-.05-.07-.11-.13-.16-.2-.13.06-.18.17-.25.26-.68.96-1.35,1.92-2.03,2.88-.44.62-.89,1.25-1.32,1.88-.11.17-.24.24-.45.24-.89-.01-1.79,0-2.68,0-.08,0-.16-.01-.27-.03.05-.09.08-.16.12-.22.18-.24.35-.49.53-.73,1.53-2.07,3.06-4.14,4.59-6.21.15-.21.31-.41.47-.62.13-.17.29-.31.47-.44.55-.38,1.36-.36,1.9.1.22.19.41.41.58.65.74,1.04,1.49,2.09,2.23,3.13.96,1.34,1.91,2.68,2.87,4.02.06.09.12.18.19.29Z"/>
      <path class="cls-1" d="M14.21,4.66c-.07.23-.1.65-.07.96.1.08.23.05.34.05.61,0,1.23,0,1.84,0,1.21,0,2.42-.02,3.62-.03h.19c-.02.07-.03.12-.06.15-.46.62-.93,1.24-1.39,1.87-.08.11-.17.14-.3.14-1.22-.02-2.44-.04-3.65-.06-.13,0-.26-.02-.39-.02-.07,0-.14.01-.23.02-.06.37-.05.91.01,1.18.26.04.52.01.79.01.26,0,.52,0,.78,0,.27,0,.54-.01.81-.02.27,0,.54-.01.81-.02.26,0,.52,0,.78,0,.27,0,.54,0,.81-.01.26,0,.52-.01.78-.01s.53-.04.83,0c-.06.11-.1.19-.14.25-.4.59-.81,1.17-1.21,1.76-.09.13-.2.18-.35.17-.34,0-.67,0-1,0h-5.76c-.13,0-.26,0-.4,0-.02-.08-.04-.14-.04-.2,0-.1,0-.2,0-.29,0-2.52-.01-5.04-.02-7.56v-.3c.09-.02.16-.04.23-.04.07,0,.15,0,.23,0,2.71,0,5.41,0,8.12,0,.13,0,.26-.02.4.03-.01.05-.02.09-.04.12-.41.55-.83,1.1-1.25,1.65-.06.08-.13.15-.2.23h-.28c-1.42-.01-2.85-.02-4.27-.03-.11,0-.22-.02-.31.04Z"/>
      <path class="cls-1" d="M115.35,4.53c0-.24-.03-.47-.07-.71-.12-.65-.5-1.08-1.15-1.26-.04-.01-.08-.02-.13-.03-.38-.08-.77-.11-1.16-.11-1.37,0-2.74,0-4.11,0-.3,0-.6,0-.91,0-.06,0-.12.02-.2.04,0,.12-.01.23-.01.33,0,1.65,0,3.29,0,4.94,0,.44.03.88.03,1.32,0,.21-.03.43-.06.64-.03.22-.12.41-.31.54-.07.05-.13.11-.19.17-.03.04-.07.08-.01.17.2.02.43.03.65.03.86-.01,1.59-.33,2.2-.94.27-.27.49-.58.68-.9.05-.08.1-.16.16-.25h2.27c.38,0,.76,0,1.13,0,.38,0,.75.02,1.15-.02,0-.09.02-.14.02-.2,0-1.26,0-2.52,0-3.78ZM112.5,6.5c-.6.03-1.19.02-1.78.01-.11-.22-.05-.44-.07-.65-.01-.2-.01-.41.04-.62.07-.01.15-.04.22-.04.31,0,.62,0,.92.12.49.18.74.61.66,1.18Z"/>
      <path class="cls-1" d="M10.9,8.88c-.01.06-.01.11-.04.15-.39.54-.79,1.07-1.19,1.61-.05.07-.11.13-.16.21-.08.13-.19.18-.35.18-1.53,0-3.06.02-4.59,0-.99,0-1.91-.32-2.75-.83-.18-.11-.35-.25-.51-.4-.38-.36-.68-.78-.93-1.24-.14-.27-.23-.56-.29-.85-.11-.55-.14-1.11-.04-1.67.05-.29.14-.57.27-.83.67-1.34,1.72-2.18,3.19-2.49.41-.09.83-.13,1.25-.12,1.88,0,3.75,0,5.63.01.1,0,.21-.02.33.06-.46.63-.92,1.26-1.37,1.89-.11,0-.2.02-.3.02-.75,0-1.51,0-2.27,0-.51,0-1.01,0-1.52,0-.41,0-.82.05-1.21.18-.25.08-.48.2-.69.35-.41.31-.65.71-.7,1.22-.04.39-.02.78.1,1.15.24.81.85,1.29,1.7,1.36.16.01.32,0,.48,0,1.92,0,3.84,0,5.76,0,.06,0,.11,0,.19.01Z"/>
      <path class="cls-1" d="M62.01,20.03c-.09.02-.18.04-.28.12.11.04.2.08.29.11.75.24,1.17.74,1.26,1.52.03.23.06.45.06.68,0,.8,0,1.59-.01,2.39,0,.02-.01.04-.02.06-.06.08-.15.07-.24.07-.29,0-.58,0-.87,0h-1.36c-.11,0-.21-.01-.34-.02-.02-.1-.05-.18-.05-.26,0-.29.01-.58.02-.87,0-.38.03-.75.02-1.13,0-.25-.06-.49-.11-.73-.08-.33-.3-.54-.63-.64-.26-.08-.52-.13-.79-.13-.54,0-1.08.02-1.62.03-.2,0-.41.01-.61.01-.13,0-.25-.03-.37-.04-.05-.26-.06-2.02,0-2.32.05-.01.11-.04.17-.03.84,0,1.68,0,2.52.02.36,0,.71.02,1.06-.04.08-.01.17-.03.25-.06.32-.11.47-.33.48-.65,0-.35-.16-.6-.47-.69-.21-.06-.42-.09-.64-.1-.27-.01-.54,0-.81.01-.81,0-1.62.01-2.43.02-.04,0-.08-.01-.13-.02-.01-.04-.04-.08-.04-.12,0-.69,0-1.38,0-2.07,0-.04.02-.08.03-.13.09,0,.17-.01.26-.01.85,0,1.7-.02,2.55-.02.56,0,1.12,0,1.68.03.47.02.94.11,1.39.28.8.31,1.31.89,1.51,1.73.12.5.11,1.01-.04,1.5-.16.52-.48.91-.94,1.19-.23.14-.48.24-.74.31Z"/>
      <path class="cls-1" d="M53.25,18.45c-.07-1.49-.76-2.56-2.14-3.14-1.05-.44-2.12-.46-3.19-.08-.9.32-1.58.92-2,1.78-.44.93-.51,1.89-.19,2.86.33,1.03,1.06,1.73,2.04,2.16.79.34,1.62.4,2.47.27,1.42-.22,2.56-1.27,2.89-2.66.08-.33.11-.66.1-.96,0-.1,0-.16,0-.23ZM50.99,19.66c-.17.44-.43.79-.9.95-.5.18-.99.19-1.47-.04-.25-.12-.44-.31-.59-.54-.21-.32-.33-.68-.35-1.06,0-.12,0-.24,0-.35-.02-.31.02-.62.13-.92.24-.69.77-1.08,1.5-1.12.83-.05,1.57.43,1.81,1.42.13.56.09,1.11-.12,1.65Z"/>
      <path class="cls-1" d="M26.54,19.57c-.31,1.32-1.49,2.3-2.65,2.52-.37.07-.75.12-1.12.13-.79.02-1.57,0-2.36,0-.04,0-.08-.01-.14-.02-.06-.28-.09-3.06-.04-4.09,0-.07.02-.14.03-.21.27-.05,1.66-.06,1.97,0,0,.09.02.18.02.27,0,.67,0,1.34,0,2,0,.12-.02.24.03.37.06,0,.12.03.18.03.51,0,.98-.13,1.39-.45.61-.49.81-1.13.64-1.88-.18-.75-.65-1.23-1.42-1.37-.26-.05-.54-.07-.8-.07-.52,0-1.03,0-1.55.01-.14,0-.28,0-.43,0-.02-.06-.05-.11-.05-.16,0-.45,0-.91,0-1.36,0-.04.02-.08.03-.14.08-.01.15-.03.22-.03.84-.03,1.68-.04,2.52.02.39.03.77.07,1.15.19,1.35.42,2.16,1.33,2.44,2.71.1.51.08,1.03-.04,1.54Z"/>
      <path class="cls-1" d="M42.73,20.56c.02.06.04.11.04.16,0,.45,0,.91,0,1.36,0,.03-.01.06-.02.1-.03.01-.05.04-.08.04-.78.04-1.56.03-2.31-.17-1.35-.37-2.19-1.26-2.49-2.61-.29-1.29.11-2.41,1.03-3.34.41-.42.93-.66,1.49-.81.71-.19,1.44-.23,2.18-.19.05,0,.1.02.17.03.06.32.05,1.38,0,1.64-.11.05-.23.03-.34.03-.33,0-.67,0-1,.06-.83.14-1.43.79-1.5,1.63-.02.29-.01.58.1.86.21.51.57.85,1.09,1.03.38.14.78.17,1.18.18.15,0,.3,0,.46,0Z"/>
      <path class="cls-1" d="M34.72,21.38c0,.27.01.54-.01.81-.13.06-.25.04-.36.04-1.33,0-2.65,0-3.98,0h-.59c-.1-.1-.07-.2-.08-.29,0-.6,0-1.21,0-1.81,0-.64,0-1.27,0-1.91,0-.1.01-.21.01-.33.1,0,.19-.02.27-.02,2.15-.03,4.43-.01,4.7.04.04.27.04,1.3,0,1.6-.1.09-.22.06-.34.06-.74,0-1.49,0-2.23,0-.11,0-.24-.02-.37.04-.07.28-.03.58-.02.86.12.1.25.07.36.07.75,0,1.49,0,2.23,0,.12,0,.24-.02.37.05.06.25.02.52.03.79Z"/>
      <path class="cls-1" d="M110.28,19.28c0,.58-.01,1.16-.04,1.74-.02.44-.09.88-.23,1.3-.33.96-1,1.5-2,1.66-.27.04-.53.07-.82.04-.04-.29-.04-1.18,0-1.49.1-.02.2-.05.3-.07.36-.08.62-.29.78-.62.12-.24.18-.5.2-.78.05-.79.04-1.57.02-2.36-.02-.91-.02-1.81-.03-2.71,0-.1.01-.19.01-.3.07-.01.13-.04.19-.04.46,0,.93,0,1.39,0,.05,0,.1.01.17.02.01.07.02.13.02.19.01,1.14.03,2.28.03,3.43Z"/>
      <path class="cls-1" d="M148.34,20.13c0,.06-.02.13-.03.21h-4.7c-.08-.17-.04-.34-.05-.51,0-.17,0-.34,0-.5.12-.1.24-.06.36-.06.9,0,1.79,0,2.69,0,.12,0,.23,0,.37-.01.01-.07.03-.13.04-.19,0-.32-.04-.62-.14-.92-.18-.54-.52-.93-1.05-1.17-.31-.14-.63-.22-.96-.25-.12-.01-.24,0-.36-.08,0-.36-.02-.72.01-1.1.08,0,.14-.02.2-.02.47,0,.92.07,1.37.21.94.3,1.59.92,1.94,1.85.19.5.28,1.02.31,1.55.02.33,0,.67,0,1Z"/>
      <path class="cls-1" d="M34.67,16.79h-4.93c-.08-.27-.03-.54-.04-.8-.01-.27,0-.54,0-.82.09-.02.16-.04.23-.04.24,0,.47,0,.71,0,1.22,0,2.44,0,3.65,0,.13,0,.26-.02.39.04.06.17.03.36.03.54,0,.18,0,.37,0,.55-.01.18.04.36-.05.54Z"/>
      <path class="cls-1" d="M151.56,10.84c-.16.1-.33.15-.52.16-.13-.04-.27-.05-.4-.11-.5-.22-.61-.84-.24-1.24.36-.38,1-.37,1.34.03.3.35.21.91-.18,1.15Z"/>
      <path class="cls-1" d="M153.99,10.22c-.02.41-.27.69-.67.75-.06.01-.13.01-.17.01-.4,0-.7-.2-.82-.51-.21-.57.21-1.02.65-1.08.14-.02.31-.01.45.03.38.1.58.41.56.8Z"/>
      <path class="cls-1" d="M142.69,21.6c0,.19,0,.38,0,.56-.04.03-.05.06-.07.06-.38.03-.77.02-1.17,0-.07-.47-.06-.93.03-1.17.25-.04.84-.04,1.17,0,.09.17.04.37.05.55Z"/>
      <path class="cls-1" d="M140.78,22.19c-.23.06-.88.07-1.17,0-.07-.3-.06-.86.01-1.16.38-.03.76-.02,1.16,0,.06.31.06.89,0,1.15Z"/>
    </g>
  </g>
</svg>