<?xml version="1.0" encoding="UTF-8"?>
<svg id="Calque_2" data-name="Calque 2" xmlns="http://www.w3.org/2000/svg" viewBox="0 0 83.05 91.33">
  <defs>
    <style>
      .cls-1 {
        stroke-width: 2.18px;
      }

      .cls-1, .cls-2, .cls-3 {
        fill: none;
        stroke: #fff;
        stroke-linecap: round;
        stroke-linejoin: round;
      }

      .cls-2 {
        stroke-width: 2.18px;
      }

      .cls-3 {
        stroke-width: 2.18px;
      }

      .cls-4 {
        fill: #fff;
      }
    </style>
  </defs>
  <g id="Layer_2_copy" data-name="Layer 2 copy">
    <g>
      <g>
        <g>
          <path class="cls-4" d="M12.51,87.57h-2.43v1.65h2.68l-.09.62h-3.3v-4.93h3.27v.62h-2.55v1.42h2.43v.62Z"/>
          <path class="cls-4" d="M13.44,87.16c0-.31,0-.64,0-.93h.67c.01.1.03.36.03.53.17-.31.48-.62,1.04-.62.51,0,.85.26.99.63.2-.33.53-.63,1.14-.63s1.14.35,1.14,1.33v2.37h-.68v-2.29c0-.4-.14-.82-.68-.82s-.79.41-.79,1.04v2.07h-.68v-2.27c0-.45-.12-.84-.66-.84s-.81.43-.81,1.1v2h-.69v-2.68Z"/>
          <path class="cls-4" d="M19.48,84.64h.7v2.08c.16-.29.49-.58,1.13-.58.92,0,1.48.76,1.48,1.82s-.55,1.96-1.57,1.96c-.57,0-.86-.2-1.04-.54,0,.17-.01.36-.03.45h-.67c0-.4,0-.81,0-1.21v-4ZM22.07,87.98c0-.75-.33-1.25-.94-1.25-.73,0-.99.49-.99,1.32,0,.72.23,1.3.96,1.3.61,0,.97-.53.97-1.37Z"/>
          <path class="cls-4" d="M26.33,89.03c0,.33.03.72.05.82h-.67c-.03-.08-.05-.25-.06-.45-.13.23-.41.54-1.1.54-.86,0-1.22-.56-1.22-1.11,0-.81.64-1.18,1.71-1.18h.6v-.29c0-.31-.1-.67-.74-.67-.57,0-.67.28-.73.55h-.67c.05-.53.37-1.09,1.43-1.09.9,0,1.4.37,1.4,1.2v1.69ZM25.65,88.1h-.55c-.7,0-1.05.2-1.05.67,0,.35.24.62.67.62.82,0,.93-.56.93-1.18v-.11Z"/>
          <path class="cls-4" d="M27.37,89.84v-5.21h.7v5.21h-.7Z"/>
          <path class="cls-4" d="M29.1,89.84v-5.21h.7v5.21h-.7Z"/>
          <path class="cls-4" d="M33.53,89.03c0,.33.03.72.05.82h-.67c-.03-.08-.05-.25-.06-.45-.13.23-.41.54-1.1.54-.86,0-1.22-.56-1.22-1.11,0-.81.64-1.18,1.71-1.18h.6v-.29c0-.31-.1-.67-.74-.67-.57,0-.67.28-.73.55h-.67c.05-.53.37-1.09,1.43-1.09.9,0,1.4.37,1.4,1.2v1.69ZM32.85,88.1h-.55c-.7,0-1.05.2-1.05.67,0,.35.24.62.67.62.82,0,.93-.56.93-1.18v-.11Z"/>
          <path class="cls-4" d="M37.61,89.5c0,1.16-.47,1.83-1.69,1.83-1.14,0-1.46-.64-1.52-1.11h.71c.1.37.39.57.84.57.79,0,.98-.5.98-1.3v-.27c-.19.39-.52.61-1.11.61-.9,0-1.5-.74-1.5-1.78,0-1.17.68-1.9,1.56-1.9.68,0,.96.32,1.04.54,0-.15.02-.39.03-.46h.66c0,.23-.01.7-.01,1.04v2.22ZM35.05,88.01c0,.74.38,1.22.94,1.22.75,0,.96-.5.96-1.27s-.19-1.24-.94-1.24c-.62,0-.96.52-.96,1.29Z"/>
          <path class="cls-4" d="M39.1,88.17c0,.68.35,1.19.94,1.19.54,0,.71-.27.83-.53h.7c-.14.46-.53,1.1-1.55,1.1-1.15,0-1.62-.92-1.62-1.85,0-1.09.55-1.93,1.66-1.93,1.18,0,1.57.93,1.57,1.72,0,.11,0,.2-.01.3h-2.52ZM40.92,87.7c0-.56-.28-1.01-.87-1.01s-.87.42-.93,1.01h1.8Z"/>
          <path class="cls-4" d="M44.64,88.17c0,.68.35,1.19.94,1.19.54,0,.71-.27.83-.53h.7c-.14.46-.53,1.1-1.55,1.1-1.15,0-1.62-.92-1.62-1.85,0-1.09.55-1.93,1.66-1.93,1.18,0,1.57.93,1.57,1.72,0,.11,0,.2-.01.3h-2.52ZM46.46,87.7c0-.56-.28-1.01-.87-1.01s-.87.42-.93,1.01h1.8Z"/>
          <path class="cls-4" d="M47.94,87.14c0-.31,0-.63,0-.91h.68c.02.1.03.46.03.57.14-.29.43-.65,1.12-.65s1.21.43,1.21,1.38v2.32h-.7v-2.23c0-.52-.2-.87-.73-.87-.63,0-.9.46-.9,1.17v1.93h-.7v-2.7Z"/>
          <path class="cls-4" d="M57.85,88.42c-.21.85-.85,1.48-1.99,1.48-1.49,0-2.23-1.12-2.23-2.51s.75-2.55,2.26-2.55c1.19,0,1.82.68,1.96,1.51h-.73c-.16-.51-.5-.91-1.26-.91-1.05,0-1.47.95-1.47,1.93s.4,1.94,1.5,1.94c.75,0,1.06-.44,1.23-.88h.74Z"/>
          <path class="cls-4" d="M61.43,89.03c0,.33.03.72.05.82h-.67c-.03-.08-.05-.25-.06-.45-.13.23-.41.54-1.1.54-.86,0-1.22-.56-1.22-1.11,0-.81.64-1.18,1.71-1.18h.6v-.29c0-.31-.1-.67-.74-.67-.57,0-.67.28-.73.55h-.67c.05-.53.37-1.09,1.43-1.09.9,0,1.4.37,1.4,1.2v1.69ZM60.75,88.1h-.55c-.7,0-1.05.2-1.05.67,0,.35.24.62.67.62.82,0,.93-.56.93-1.18v-.11Z"/>
          <path class="cls-4" d="M62.47,87.21c0-.48,0-.77,0-.98h.68c.01.1.02.4.02.72.18-.47.61-.79,1.21-.8v.69c-.74.01-1.21.36-1.21,1.29v1.72h-.7v-2.63Z"/>
          <path class="cls-4" d="M64.8,86.23h.61v-1.05h.7v1.05h.78v.56h-.78v2.05c0,.34.09.5.41.5.08,0,.2,0,.3-.03v.51c-.16.06-.39.07-.57.07-.59,0-.84-.31-.84-.91v-2.19h-.61v-.56Z"/>
          <path class="cls-4" d="M70.68,88.03c0,1.05-.61,1.9-1.72,1.9-1.05,0-1.68-.8-1.68-1.89s.63-1.9,1.73-1.9c1.02,0,1.68.75,1.68,1.89ZM67.99,88.04c0,.77.38,1.32.99,1.32s.98-.52.98-1.32-.35-1.32-.99-1.32-.98.51-.98,1.32Z"/>
          <path class="cls-4" d="M71.47,87.14c0-.31,0-.63,0-.91h.68c.02.1.03.46.03.57.14-.29.43-.65,1.12-.65s1.21.43,1.21,1.38v2.32h-.7v-2.23c0-.52-.2-.87-.73-.87-.63,0-.9.46-.9,1.17v1.93h-.7v-2.7Z"/>
        </g>
        <g>
          <g>
            <path class="cls-4" d="M17.89,77.66l-1.54,3.97h-2.09l5.33-13.64h1.92l5.33,13.64h-2.16l-1.5-3.97h-5.29ZM22.47,75.74l-1.92-5.18-1.96,5.18h3.88Z"/>
            <path class="cls-4" d="M29.58,81.63h-1.98v-13.64h3.94c1.64,0,2.89.38,3.75,1.13.86.76,1.29,1.85,1.29,3.28,0,1.11-.36,2.04-1.08,2.79-.72.75-1.65,1.15-2.79,1.2l3.87,5.24h-2.47l-4.53-6.33v6.33ZM29.58,75.08h1.01c1.37,0,2.39-.22,3.05-.67.67-.44,1-1.12,1-2.02s-.29-1.53-.86-1.94c-.57-.41-1.48-.62-2.73-.62h-1.48v5.25Z"/>
            <path class="cls-4" d="M41.92,81.63h-1.98v-11.81h-2.55v-1.84h7.07v1.84h-2.55v11.81Z"/>
            <path class="cls-4" d="M52.89,81.63h-7.08v-13.64h7.08v1.82h-5.11v4.08h5.11v1.78h-5.11v4.08h5.11v1.88Z"/>
            <path class="cls-4" d="M67.72,78.21c-.59,1.19-1.41,2.11-2.46,2.74-1.05.63-2.26.95-3.64.95-1.02,0-1.97-.2-2.83-.59-.87-.39-1.64-.98-2.33-1.75-.58-.64-1.02-1.38-1.32-2.2-.3-.82-.45-1.7-.45-2.64s.18-1.85.54-2.7.89-1.63,1.59-2.33c.66-.65,1.4-1.14,2.21-1.48.81-.33,1.68-.5,2.61-.5,1.4,0,2.63.33,3.69.99,1.06.66,1.86,1.6,2.39,2.81h-2.32c-.44-.61-.97-1.06-1.61-1.37-.64-.31-1.36-.46-2.16-.46-.64,0-1.26.12-1.84.37s-1.1.6-1.55,1.06c-.47.48-.83,1.04-1.1,1.68-.26.64-.39,1.29-.39,1.95,0,.71.12,1.39.36,2.02.24.63.58,1.18,1.02,1.64.47.49,1.01.87,1.62,1.13.61.27,1.24.4,1.87.4.78,0,1.49-.15,2.11-.45.63-.3,1.14-.73,1.55-1.29h2.44Z"/>
            <path class="cls-4" d="M69.11,74.73c0-.96.18-1.86.54-2.72.36-.86.89-1.63,1.59-2.31.66-.65,1.4-1.14,2.21-1.48.81-.33,1.68-.5,2.61-.5s1.84.17,2.66.5c.82.33,1.56.83,2.23,1.49.69.68,1.21,1.44,1.56,2.29.35.84.52,1.75.52,2.73s-.15,1.86-.45,2.67c-.3.82-.75,1.55-1.35,2.2-.71.76-1.49,1.34-2.37,1.72s-1.82.58-2.83.58-1.97-.2-2.83-.59c-.87-.39-1.64-.98-2.33-1.75-.58-.64-1.02-1.38-1.32-2.2-.3-.82-.45-1.7-.45-2.64ZM71.18,74.75c0,.71.12,1.39.36,2.02.24.63.58,1.18,1.02,1.64.47.49,1.01.87,1.62,1.13.61.27,1.24.4,1.87.4,1.41,0,2.59-.5,3.54-1.5.95-1,1.42-2.25,1.42-3.73,0-.63-.11-1.23-.34-1.8s-.56-1.1-1-1.58c-.52-.56-1.07-.97-1.66-1.23-.59-.27-1.24-.4-1.96-.4-.64,0-1.26.12-1.84.37s-1.1.6-1.55,1.06c-.47.48-.83,1.04-1.1,1.68-.26.64-.39,1.29-.39,1.95Z"/>
          </g>
          <path class="cls-4" d="M12.21,78.66c-.07.97-.86,1.74-1.81,1.74H3.27c-1,0-1.82-.85-1.82-1.89v-7.39c0-1.04.82-1.89,1.82-1.89h7.13c1,0,1.82.85,1.82,1.89v.15h1.45v-.15c0-1.87-1.47-3.39-3.27-3.39H3.27c-1.8,0-3.27,1.52-3.27,3.39v7.39c0,1.87,1.47,3.39,3.27,3.39h7.13c1.75,0,3.19-1.44,3.27-3.24h-1.45Z"/>
        </g>
      </g>
      <g>
        <polygon class="cls-1" points="53.82 1.09 45.81 12.79 64.08 22.72 72.09 11.02 53.82 1.09 53.82 1.09"/>
        <path class="cls-3" d="M24.28,45.4v4.63s18.32,9.95,18.32,9.95l-.03-23-10.98,12.4-7.31-3.97h0ZM42.6,59.9l21.45-14.19v-11.12s-15.36,10.16-15.36,10.16l-6.23-7.75.15,22.95v-.05Z"/>
        <path class="cls-1" d="M24.22,27.08l21.59-14.29-12.67.82-21.59,14.29,12.67-.82h0ZM48.73,44.76l21.59-14.29-6.24-7.75-21.59,14.29,6.24,7.76h0ZM24.22,27.08l-10.96,12.37,18.27,9.93,10.96-12.37-18.27-9.92h0Z"/>
        <polyline class="cls-3" points="24.25 50.02 42.52 59.95 64.11 45.66"/>
        <line class="cls-2" x1="45.88" y1="34.45" x2="45.85" y2="12.85"/>
      </g>
    </g>
  </g>
</svg>