<?xml version="1.0" encoding="UTF-8"?>
<svg id="Calque_2" data-name="Calque 2" xmlns="http://www.w3.org/2000/svg" viewBox="0 0 71.15 106.39">
  <defs>
    <style>
      .cls-1 {
        fill: #5b5b5b;
      }

      .cls-2 {
        fill: #fff;
      }
    </style>
  </defs>
  <g id="Layer_2_copy" data-name="Layer 2 copy">
    <g>
      <path class="cls-2" d="M40.25,75.28c-1.26,2.9-2.52,5.81-3.78,8.71-.09.21-.17.43-.25.64-.38.92-1.09,1.4-2.06,1.39-.92,0-1.51-.53-1.86-1.36-.71-1.69-1.44-3.37-2.16-5.05-.61-1.42-1.24-2.84-2.08-4.21,0,.8,0,1.61,0,2.41,0,2.2,0,4.4,0,6.6,0,1.98-.75,2.72-2.76,2.72-6.01,0-12.02.02-18.03,0-4.04-.01-7.23-3.12-7.24-7.16-.03-15.2-.03-30.39,0-45.59,0-4.09,3.17-7.17,7.31-7.19,4.6-.03,9.19-.02,13.79.01.69,0,1.05-.21,1.37-.81,2.17-4.1,4.38-8.18,6.58-12.27.6-1.11.58-1.09-.48-1.56-3.38-1.5-6.76-3-10.12-4.54-1.84-.85-2.8-2.65-2.47-4.47.36-2,1.72-3.27,3.81-3.53.74-.09,1.44.12,2.1.4,4.59,1.93,9.18,3.88,13.76,5.83.55.23,1.05.57,1.36,1.09.81,1.34,1.88,1.82,3.44,1.3,1.28-.42,2.53-.06,3.7.55.23.12.51.38.69.33,2.01-.63,3.8.38,5.68.72.69.13,1.17.13,1.76-.38,2.2-1.9,4.56-1.23,5.48,1.52.15.45.49.57.84.74,2.75,1.3,5.65,1.87,8.68,1.81.62-.01,1.24.01,1.85.17,1.23.31,1.78.88,1.96,2.14.16,1.08-.34,2.1-1.31,2.64-1.42.79-2.94.81-4.54.51,1.5,1.25,2.26,2.72,1.79,4.67-.47,1.98-1.85,2.93-3.85,3.28.72.46,1.47.64,2.08,1.08,2.01,1.44,3.09,3.4,3.09,5.85.03,15.26.02,30.52,0,45.79,0,3.87-3.1,7.03-6.98,7.06-6.11.05-12.21.02-18.32,0-1.75,0-2.54-.77-2.56-2.52-.04-2.79-.03-5.58-.04-8.37,0-.32,0-.63,0-.95-.08,0-.15,0-.23,0ZM19.21,69.29c.88,0,1.59-.03,2.29.01.36.02.87-.24,1.05.24.18.51.04.97-.42,1.39-2.14,1.94-4.22,3.93-6.36,5.88-.77.7-1.42,1.88-2.36,1.97-.97.1-2.01-.66-3.04-.98-.7-.22-1.05-.56-.8-1.34.21-.66-.02-1.06-.72-1.34-1.21-.48-2.37-1.12-3.57-1.64-.52-.23-.58-.48-.31-.96.8-1.43,1.54-2.89,2.35-4.31.29-.51.26-.78-.29-1.07-.93-.49-1.79-1.09-2.73-1.56-.54-.27-.5-.51-.25-.97,3.21-5.93,6.39-11.88,9.59-17.82,2.99-5.56,5.97-11.14,8.98-16.69.44-.82.24-.96-.6-.95-4.89.03-9.78,0-14.68.02-3.15.01-5.37,2.25-5.37,5.42,0,15.03,0,30.06,0,45.1,0,3.22,2.23,5.47,5.43,5.47,5.88,0,11.75-.01,17.63.02.81,0,1.05-.2,1.05-1.02-.04-5.87-.03-11.75-.03-17.63,0-.27,0-.54,0-.8.07,0,.14-.02.2-.02,2.63,6.1,5.26,12.21,7.97,18.48,2.72-6.27,5.36-12.38,8.03-18.56.25.43.15.79.15,1.13.03,5.81.06,11.62.05,17.43,0,.77.21.99.99.98,5.84-.03,11.69-.01,17.53-.02,3.25,0,5.42-2.18,5.42-5.43,0-15.03,0-30.06,0-45.1,0-3.32-2.13-5.45-5.48-5.46-3.51-.01-7.03-.03-10.54.01-.8,0-1.89-.5-2.22.85-.01.06-.25.04-.36.1-.15.08-.3.34-.22.38.82.42.58,1.58,1.46,1.96.78.34.99,1.05.77,1.81-.23.78-.89.97-1.68.91.06-.11.1-.19.15-.26.16-.23.52-.43.31-.74-.16-.23-.49-.05-.74-.01-1.31.18-2.62.16-3.93-.03-.18-.03-.4-.17-.53.06-.12.21.07.36.16.53.09.15.33.21.28.45-1.48-.04-2.31-1.13-1.5-2.1.63-.75,1.26-1.48,1.86-2.26.35-.47.3-.61-.16-.71-.41-.09-.45-.38-.43-.66.04-.46.45-.28.7-.28,1.21-.02,2.43-.02,3.64,0,.43,0,.61-.11.43-.57-.12-.3-.14-.64-.22-.96-.08-.29-.11-.52.31-.51.83.02.86-.52.78-1.13-.17-1.3-.33-2.6-.51-3.9-.13-.95.33-1.72,1.14-1.9.58-.13,1.1.07,1.62.29,3.44,1.52,6.88,3.04,10.33,4.56,1.39.61,2.65.18,3.21-1.09.54-1.23-.07-2.48-1.56-3.13-3.15-1.37-6.31-2.74-9.47-4.1-.55-.24-1.06-.53-1.49-.93-.27-.26-.64-.55-.47-1,.17-.44.61-.44,1.01-.45.59,0,1.18.07,1.75.25,2.94.94,5.9,1.78,8.91,2.45,1.31.29,2.62.7,3.98.51.6-.09,1.5-.09,1.42-1-.08-.9-.93-.63-1.49-.61-3.86.1-7.48-.8-10.92-2.49-.59-.29-.9-.59-.82-1.34.11-1.09-.9-1.64-1.86-1.07-.33.2-.62.48-.89.76-.49.51-1.05.76-1.77.6-.99-.23-1.98-.46-2.97-.66-.86-.17-1.73-.65-2.6-.36-.95.32-1.71.12-2.5-.38-.98-.62-2.03-.69-3.1-.23-.36.16-.76.36-1.14.19-1.31-.58-2.92-.69-3.55-2.32-.12-.32-.42-.49-.73-.62-4.59-1.95-9.17-3.9-13.76-5.83-1-.42-1.97-.16-2.59.59-1.02,1.24-.59,2.83.99,3.54,3.61,1.63,7.23,3.23,10.84,4.87,1.51.69,1.77,1.55,1.01,2.97-1.89,3.52-3.79,7.04-5.68,10.56-.78,1.45-1.56,2.9-2.41,4.5h20.03c-8.02,13.4-15.97,26.67-24,40.09ZM50.81,22.32c.17,1.49.39,2.82.45,4.15.03.65.24.72.78.72,2.85-.02,5.7,0,8.56-.02.24,0,.51.11.79-.19-3.5-1.54-6.95-3.06-10.58-4.66Z"/>
      <path class="cls-2" d="M5.5,101.75c.51-1.69,1.05-3.37,1.53-5.06.14-.49.33-.7.87-.67.82.05,1.64.03,2.46,0,.43-.01.57.13.57.56-.01,3.05-.01,6.1,0,9.15,0,.43-.15.54-.57.56-1.83.1-1.83.12-1.83-1.67v-5.76c-.07-.01-.13-.03-.2-.04-.25.79-.5,1.58-.74,2.37-.43,1.41-.88,2.81-1.27,4.23-.17.62-.4.9-1.12.88-.66-.02-.88-.27-1.04-.85-.63-2.26-1.31-4.51-2.17-6.75,0,.42,0,.84,0,1.26,0,1.9-.03,3.8.01,5.71.02.9-.59.6-.99.59-.4,0-1.02.32-1.01-.58.03-3.02.02-6.03,0-9.05,0-.48.15-.66.61-.6.06,0,.13,0,.2,0,.95.02,2.13-.28,2.77.17.59.41.6,1.65.86,2.52.29,1,.58,2,.87,3l.19.03Z"/>
      <path class="cls-2" d="M27.37,101.73c.52-1.69,1.06-3.37,1.53-5.07.14-.51.37-.68.88-.65.79.04,1.58.05,2.36,0,.55-.03.65.19.65.68-.02,2.98-.01,5.97,0,8.95,0,.44-.08.62-.59.64-1.81.07-1.81.1-1.81-1.69v-5.73l-.22-.03c-.68,2.24-1.37,4.47-2.02,6.71-.16.56-.42.73-1.01.76-.7.03-.95-.23-1.13-.87-.63-2.26-1.31-4.5-2.17-6.73,0,2.16,0,4.32,0,6.48,0,.35.19.9-.13,1-.5.16-1.1.1-1.65.05-.29-.03-.18-.37-.18-.58,0-3.02,0-6.03-.02-9.05,0-.5.19-.64.63-.58.03,0,.07,0,.1,0,.95.01,2.09-.29,2.8.13.72.42.62,1.69.92,2.58.32.99.58,2,.87,3,.06,0,.13,0,.19,0Z"/>
      <path class="cls-2" d="M40.09,102.06c.59-1.96,1.11-3.61,1.58-5.27.15-.55.36-.83.99-.78.94.08,2.2-.3,2.76.17.58.5.16,1.79.17,2.74.02,2.16-.02,4.33.02,6.49.01.68-.16.97-.86.86-.22-.04-.46-.03-.69,0-.69.1-.89-.16-.88-.86.04-2.19.02-4.37-.18-6.6-.47,1.54-.95,3.08-1.42,4.62-.22.72-.48,1.43-.63,2.17-.13.65-.53.67-1.06.69-.58.02-.87-.14-1.03-.73-.56-2.05-1.18-4.08-1.78-6.12-.08-.26-.08-.57-.42-.81,0,2.32-.05,4.57.03,6.82.03.87-.39.85-.99.83-.54-.02-1.05.14-1.03-.79.07-2.92.04-5.84.01-8.75,0-.54.12-.76.7-.72.98.06,2.2-.29,2.87.18.61.42.63,1.7.9,2.6.29.99.57,1.99.94,3.26Z"/>
      <path class="cls-2" d="M64.1,106.18c-.1.04-.13.07-.16.07q-2.33.16-3.15-2.02c-.2-.52-.4-1.04-.58-1.56-.11-.34-.28-.5-.68-.54-.85-.08-1.38.05-1.21,1.1.08.48.01.98.01,1.47,0,1.64-.34,1.9-1.98,1.59-.29-.05-.38-.17-.38-.44,0-3.11,0-6.23,0-9.34,0-.41.19-.48.54-.48,1.54.01,3.08-.04,4.62.02,1.46.06,2.38.8,2.78,2.08.4,1.27.05,2.35-1.15,3.25-.39.3-.35.54-.21.9.53,1.3,1.04,2.6,1.55,3.9ZM58.33,99.27c-.17.72-.03,1.21,1.11,1.13,1.52-.12,2.1-.37,2.12-1.29.02-.93-.52-1.29-1.96-1.29q-1.26,0-1.26,1.46Z"/>
      <path class="cls-2" d="M47.49,101.16c0-1.48.02-2.95-.01-4.43-.01-.55.14-.73.7-.72,1.94.03,3.87.05,5.81,0,.95-.03.62.62.65,1.06.03.46.17.99-.66.95-1.11-.07-2.23.02-3.35-.03-.63-.03-.76.2-.76.78.02,1.39-.01,1.39,1.41,1.39.59,0,1.18.03,1.77,0,.83-.06.59.55.55.93-.03.38.4,1.08-.53,1.05-.82-.02-1.64.02-2.46-.01-.52-.02-.75.09-.75.69,0,1.48-.04,1.48,1.42,1.48.92,0,1.84.03,2.76,0,.91-.04.57.61.58,1.01.02.42.26,1.01-.62.98-1.97-.05-3.94-.04-5.91,0-.56,0-.63-.22-.63-.69.02-1.48,0-2.95,0-4.43Z"/>
      <path class="cls-2" d="M20.89,106.27c-.34,0-.56,0-.79,0-1.69.01-1.71.02-2.22-1.58-.14-.45-.34-.66-.81-.59-.23.03-.46,0-.69,0-1.76,0-1.78,0-2.31,1.61-.13.41-.29.6-.74.57-.48-.04-.96,0-1.52,0,1.03-3.31,2.03-6.52,3.02-9.73.11-.34.26-.51.68-.53,2.21-.13,2.2-.14,2.84,1.97.82,2.72,1.66,5.43,2.53,8.29ZM16.13,98.81c-.23.75-.38,1.23-.53,1.72q-.59,1.92,1.56,1.74c-.32-1.08-.64-2.15-1.03-3.46Z"/>
      <path class="cls-2" d="M68.17,101.18c0,1.44-.03,2.89.01,4.33.02.59-.13.79-.75.78-1.61-.02-1.61.02-1.61-1.58,0-2.59.03-5.18-.02-7.77-.01-.72.15-1.05.9-.91.16.03.33.02.49,0,.73-.11,1.04.11.99.93-.08,1.41-.02,2.82-.02,4.23Z"/>
      <path class="cls-1" d="M19.21,69.29c8.03-13.42,15.98-26.69,24-40.09h-20.03c.86-1.6,1.63-3.05,2.41-4.5,1.89-3.52,3.79-7.04,5.68-10.56.76-1.42.5-2.29-1.01-2.97-3.6-1.64-7.22-3.24-10.84-4.87-1.58-.71-2.01-2.3-.99-3.54.62-.75,1.59-1.01,2.59-.59,4.59,1.93,9.18,3.89,13.76,5.83.31.13.6.3.73.62.63,1.63,2.24,1.74,3.55,2.32.38.17.77-.04,1.14-.19,1.07-.47,2.12-.4,3.1.23.79.5,1.55.69,2.5.38.87-.29,1.74.19,2.6.36.99.2,1.98.43,2.97.66.72.16,1.28-.09,1.77-.6.27-.28.56-.56.89-.76.96-.57,1.97-.02,1.86,1.07-.08.75.23,1.05.82,1.34,3.45,1.69,7.07,2.59,10.92,2.49.55-.01,1.41-.29,1.49.61.08.91-.82.91-1.42,1-1.36.2-2.67-.22-3.98-.51-3.01-.66-5.98-1.51-8.91-2.45-.57-.18-1.15-.26-1.75-.25-.4,0-.84,0-1.01.45-.17.45.2.75.47,1,.43.4.94.7,1.49.93,3.16,1.36,6.32,2.73,9.47,4.1,1.49.65,2.1,1.9,1.56,3.13-.56,1.27-1.82,1.71-3.21,1.09-3.44-1.52-6.88-3.04-10.33-4.56-.51-.23-1.04-.42-1.62-.29-.81.18-1.27.95-1.14,1.9.18,1.3.34,2.6.51,3.9.08.61.05,1.15-.78,1.13-.42,0-.39.22-.31.51.08.32.1.65.22.96.18.46,0,.58-.43.57-1.21-.01-2.43-.01-3.64,0-.25,0-.66-.18-.7.28-.02.27.02.57.43.66.46.1.51.24.16.71-.59.78-1.23,1.51-1.86,2.26-.82.98.02,2.07,1.5,2.1.05-.24-.2-.3-.28-.45-.09-.17-.28-.32-.16-.53.13-.22.35-.08.53-.06,1.31.19,2.61.22,3.93.03.25-.03.59-.22.74.01.21.31-.15.51-.31.74-.05.07-.09.15-.15.26.8.07,1.46-.12,1.68-.91.22-.76,0-1.47-.77-1.81-.87-.39-.64-1.55-1.46-1.96-.08-.04.07-.3.22-.38.11-.06.35-.04.36-.1.33-1.35,1.42-.84,2.22-.85,3.51-.04,7.03-.02,10.54-.01,3.35,0,5.48,2.14,5.48,5.46,0,15.03,0,30.06,0,45.1,0,3.25-2.17,5.43-5.42,5.43-5.84,0-11.69-.01-17.53.02-.78,0-.99-.22-.99-.98.01-5.81-.02-11.62-.05-17.43,0-.34.1-.7-.15-1.13-2.68,6.18-5.32,12.28-8.03,18.56-2.71-6.28-5.34-12.38-7.97-18.48-.07,0-.14.02-.2.02,0,.27,0,.54,0,.8,0,5.88,0,11.75.03,17.63,0,.83-.24,1.03-1.05,1.02-5.88-.03-11.75-.01-17.63-.02-3.2,0-5.43-2.25-5.43-5.47,0-15.03,0-30.06,0-45.1,0-3.17,2.22-5.41,5.37-5.42,4.89-.02,9.78,0,14.68-.02.83,0,1.04.13.6.95-3.01,5.55-5.99,11.12-8.98,16.69-3.19,5.94-6.38,11.88-9.59,17.82-.25.46-.29.7.25.97.93.48,1.8,1.08,2.73,1.56.55.29.58.56.29,1.07-.81,1.42-1.55,2.88-2.35,4.31-.27.48-.22.73.31.96,1.2.53,2.35,1.16,3.57,1.64.7.28.93.68.72,1.34-.25.78.1,1.11.8,1.34,1.03.32,2.07,1.08,3.04.98.94-.1,1.59-1.27,2.36-1.97,2.13-1.95,4.22-3.94,6.36-5.88.47-.42.61-.88.42-1.39-.17-.48-.69-.22-1.05-.24-.71-.04-1.42-.01-2.29-.01Z"/>
    </g>
  </g>
</svg>