<?xml version="1.0" encoding="UTF-8"?>
<svg id="Calque_2" data-name="Calque 2" xmlns="http://www.w3.org/2000/svg" viewBox="0 0 60.68 75.46">
  <defs>
    <style>
      .cls-1 {
        fill: #a2a2a2;
      }

      .cls-2 {
        fill: #fff;
      }

      .cls-3 {
        fill: #868686;
      }
    </style>
  </defs>
  <g id="Layer_2_copy" data-name="Layer 2 copy">
    <g>
      <g>
        <g>
          <path class="cls-2" d="M16.66,58.14c-2.82.22-5.28-.55-7.3-1.31,0,0-1.08-.48-2.67-.86-1.05,1.68-2.31,2.83-4.05,2.95,0,0-2.37.15-2.43-1.56-.08-1.67,1.85-2.64,4.86-2.72.09-.23.21-.5.31-.78-4.59,0-5.59-2.58-5.36-4.61.23-1.99,1.79-3,2.6-3.21.11-.03.2.07.17.16-.42,1.03-1.9,5.2,1.46,6.23,0,0,.61.22,1.58.3,1.01-2.57,2.44-6.04,4.28-8.85,0,0,1.84-2.92,4.1-3.08,2.13-.13,2.79,2.77,2.1,5.01-.98,3.2-3.72,6.82-8.4,7.8-.18.41-.36.8-.56,1.17,1.49.24,2.89.67,2.89.67,3.29.82,7.05,1.27,8.65-1.08.06-.07.15-.06.2,0,.46.67,2.08,3.46-2.43,3.79ZM4.62,55.66c-.72-.03-1.51.02-2.13.31,0,0-1.32.51-1.23,1.48.08.76,1.5.37,2.53-.65.42-.39.82-1.13.82-1.13ZM9.72,48.89c-.44,1.22-.89,2.45-1.34,3.61,2.5-.73,5.89-3.11,6.43-7.64,0,0,.47-3.11-1.11-2.95,0,0-1.47.13-3.99,6.98Z"/>
          <path class="cls-2" d="M21.11,37.98c-.31,1.87-1.01,4.27-1.51,5.33l-1.2.27c.35-1.32.68-3.63.76-5.21l1.95-.4Z"/>
          <path class="cls-2" d="M27.26,47.8c-.39,1.07-.92,1.95-1.41,2.7-.66,1.01-1.39,1.6-2.05,1.93-1.02.48-1.89.34-1.89.34-2.77-.42-1.09-4.52-1.09-4.52,1.2-3.01,3.47-4.33,4.44-4.03.81.22.8,1.38.8,1.38,0,0,.17,2.54-3.37,3.14-.18.39-.35.84-.44,1.27-.15.67-.11,1.28.34,1.45.46.19.97.05,1.4-.19.76-.45,1.36-1.27,1.36-1.27.6-.78,1.17-1.82,1.35-2.15.04-.07.1-.12.16-.13l.35-.03s.09.06.05.1ZM23.18,47.67c.43-.02.9-.2,1.14-.38,1.39-.97,1.04-1.59,1.04-1.59-.21-.39-1.01-.09-2.18,1.97ZM26.33,42.5c.18.27-.69,1.42-2.1,1.26,0,0-.44-.07-.27-.3.12-.14.39-.02.72-.27.34-.28.51-.55.8-.74,0,0,.62-.39.86.04Z"/>
          <path class="cls-2" d="M33.27,45.92c-.6,1.2-1.49,1.42-2.46,1.15-.07-.01-.08-.1-.01-.13.12-.08.28-.2.4-.33.28-.29.25-.75.17-.89-.06-.15-.23-.11-.23-.11-.58.1-1.53,1.75-2.21,3.2-.46,1.03-.82,2.03-1.02,2.64-.17.43-.47.53-.75.54-.17.02-.33-.03-.45-.11-.51-.32-.96-1.04-.57-2.63.16-.58.33-1.06.71-1.8,0,0,1.46-2.79,1.52-3.54.01-.07.06-.09.12-.1.2.02.62.13.89.61,0,0,.52.8-.07,1.93,0,0-.53.97-.9,1.84-.25.55-.47,1.16-.6,1.63.41-.94,1-2.16,1.64-3.23,0,0,2.03-3.66,3.59-2.53.57.4.49,1.17.23,1.85Z"/>
          <path class="cls-2" d="M41.55,46.35c-1.09,2.84-2.79,4.59-3.87,4.7-.99.1-1.1-1.55-1.11-1.85-.5.93-1.31,1.97-2.43,1.84-2.17-.28-.63-4.06-.63-4.06,1.2-3.01,3.51-4.35,4.44-4.03.56.18.72.63.78.97.17-.24.31-.4.41-.52.08-.12.22-.2.35-.21l1.62-.16c.09,0,.14.09.08.14-.47.57-2.05,2.63-2.65,4.62-.56,1.78,0,1.73,0,1.73.78-.06,2.14-2.53,2.44-3.09.04-.07.1-.12.18-.13l.32-.03s.09.06.08.1ZM37.87,45.57c.18-.41.22-.66.25-.77.13-.84-.82-.99-2.27,1.69-1.69,3.1-1,3.23-1,3.23.53.01,1.05-.63,1.44-1.26.11-.19.22-.39.34-.56.54-.89,1.02-1.83,1.25-2.33Z"/>
          <path class="cls-2" d="M47.21,47.02c-1.11,2.45-2.62,3.19-3.6,3.1,0,0-.79-.05-1.09-.63,0,0-.58-.97.25-2.1.13-.21.33-.43.55-.6,0,0,1.17-.93,1.7.44,0,.06-.01.11-.08.12-.24,0-.86.09-1.36.55-.52.49-.63.94-.47,1.16.1.1.27.06.27.06,1.58-.34,4.13-5.77,2.8-5.77-1.42,0-3.18,2.86-3.31,3.07-.75,1.47-1.21,2.92-.87,4.15,0,.07-.03.11-.1.12-.48-.02-2.15-.26-1.47-2.89.69-2.85,4.84-6.98,4.67-9.69-.01-.11.07-.2.18-.19.57.05,2.12.24,1.76,1.44-.3.97-1.21,2.33-2.19,3.81.6-.54,1.26-.94,1.9-.87,0,0,2.59-.07.46,4.74Z"/>
          <path class="cls-2" d="M50.15,48.62c.78-.1,2.59-2.88,2.88-3.44.04-.07.1-.12.16-.13l.35-.03s.07.06.05.1c-1.07,2.84-3.08,4.77-4.31,5.05-.51.12-.93.09-1.28-.11-.58-.33-.57-1.12-.57-1.12-.04-.78.24-1.69.73-2.72.7-1.49,1.81-3.48,1.81-3.48,1.51-2.73,2.12-4.89,2.13-5.44,0-.13.13-.25.26-.2,2.68,1.02,1.07,3.82.52,4.71,0,0-.98,1.54-1.75,2.78-.83,1.29-1.39,2.19-1.72,3.1-.4,1.22.73.93.73.93Z"/>
          <path class="cls-2" d="M59.45,44.53c-.39,1.07-.92,1.95-1.41,2.7-.66,1.01-1.39,1.6-2.05,1.93-1.02.48-1.89.35-1.89.35-2.77-.42-1.09-4.52-1.09-4.52,1.2-3.01,3.47-4.33,4.44-4.03.81.22.8,1.38.8,1.38,0,0,.17,2.54-3.37,3.14-.18.39-.35.84-.44,1.27-.15.67-.11,1.28.34,1.45.46.19.97.05,1.4-.19.76-.45,1.36-1.27,1.36-1.27.6-.78,1.17-1.82,1.35-2.15.04-.07.1-.12.16-.13l.35-.04s.09.06.05.1ZM55.38,44.4c.43-.02.9-.2,1.14-.38,1.39-.97,1.04-1.59,1.04-1.59-.22-.39-1.01-.09-2.18,1.97Z"/>
          <path class="cls-2" d="M44.58,53.35c-.34,2.01-1.08,4.6-1.63,5.74l-1.29.3c.37-1.43.73-3.91.82-5.61l2.1-.42Z"/>
          <path class="cls-2" d="M52.76,63.45c-.15.11-.36.15-.54.2.5,1.17-.35,3.26-.35,3.26-.51,1.23-1.16,1.81-1.74,2.13-.84.49-1.87.38-1.87.38-3.15-.48-1.74-4.64-1.74-4.64,1.04-3.14,3.02-4.52,4.39-4.23,1.06.22.92,1.46.92,1.46,0,0,0,.38-.13.79.23-.09.44-.26.6-.6.02-.03.07-.05.11-.03.13.08.42.24.53.56.11.34.04.61-.18.75ZM50.54,63.61c-.38,0-.68,0-.78.15-.02.02-.07.03-.07-.02-.06-.11-.12-.29-.05-.54.07-.22.31-.41.83-.39.12.01.26.02.41.05.09,0,.17,0,.24,0,.45-1.15-.65-1.77-2.16,1.4,0,0-.63,1.24-.8,2.34-.11.72-.22,1.81.41,1.96,0,0,1.5.39,2.36-2.24.5-1.56.09-2.36-.37-2.71Z"/>
          <path class="cls-2" d="M60.47,62.2c-.65,1.29-1.61,1.53-2.65,1.23-.07-.02-.08-.11-.01-.14.13-.08.31-.22.43-.35.3-.31.27-.8.18-.96-.06-.16-.25-.12-.25-.12-.62.11-1.64,1.88-2.38,3.44-.5,1.11-.88,2.18-1.1,2.84-.19.47-.51.57-.81.58-.19.02-.36-.03-.48-.12-.55-.34-1.03-1.12-.62-2.83.17-.63.35-1.14.77-1.94,0,0,1.58-3.01,1.63-3.81.02-.07.06-.1.13-.11.21.03.67.14.96.65,0,0,.56.86-.07,2.08,0,0-.58,1.05-.97,1.98-.27.59-.51,1.25-.64,1.76.44-1.01,1.08-2.32,1.76-3.47,0,0,2.19-3.94,3.86-2.72.61.43.53,1.26.25,2Z"/>
        </g>
        <g>
          <g>
            <path class="cls-2" d="M32.56,35.02c-.29-.01-.47-.31-.58-.57-.99-2.32-.99-5.25-1.35-7.74,0-.05-.02-.1-.04-.15.07-.01.14-.03.22-.03.08-.01.17-.02.26-.02.08,0,.17,0,.25,0,0,.04.01.08.02.12.34,1.63.69,3.26,1.04,4.88.1.48,1.24,3.55.17,3.51Z"/>
            <path class="cls-2" d="M42.3,16.25c-.96.24-1.8.06-2.76-.07-.62-.08-1.24-.18-1.85-.27-.32-.05-.65-.22-.98-.19-.39.04-.58.4-.81.67-.64.76-1.27,1.52-1.88,2.3-1.21,1.54-2.37,3.12-3.46,4.75.95,0,1.89.04,2.84.12.45.04.96.04,1.4.14.37.09.72.24,1.1.27-.86-.07-1.7-.07-2.56-.14-.47-.04-.95-.07-1.42-.09-.24-.01-1.19.11-1.35-.03.05.04.05.1.02.15l.49,2.64c-.09,0-.17,0-.26.02-.14-.96-.27-1.94-.54-2.83-.95.17-1.9.66-2.73,1.14-.36.2-.62.41-1.02.56-.47.18-.92.4-1.36.64.55-.54,1.32-.95,2-1.31.83-.44,1.68-.84,2.55-1.19l-6.23-3.7-.33-.2-.24-.14c-.11-.07-.62.1-.75.12-.3.05-.6.1-.9.15-.57.1-1.15.2-1.72.31-1.07.2-2.13.39-3.21.48.22-.02.46-.23.68-.3.18-.06.33-.05.51-.07.55-.07,1.1-.22,1.64-.32,1.13-.21,2.26-.41,3.39-.59-2.2-1.31-4.52-2.51-6.61-3.98-.28-.2-.53-.43-.74-.69.14.14.5.31.66.41.28.17.58.32.87.49.69.41,1.37.81,2.06,1.22,1.37.81,2.74,1.63,4.11,2.44-.14-.08-.28-.5-.37-.65-.15-.26-.3-.51-.46-.77-.3-.49-.6-.97-.92-1.45-.52-.8-1.26-1.66-1.53-2.59.36.26.55.71.81,1.05.35.47.67.96.99,1.46.32.49.63.99.94,1.49.08.14.77,1.47.84,1.46l.14.26h0c2.25,1.35,4.5,2.69,6.75,4.02.02,0,.04-.01.06-.01h.02s0,0,0-.01l-.83-4.47c-1.48-.98-2.97-1.94-4.4-3.01.28.21.69.28.99.44.38.2.74.47,1.09.71.75.49,1.49.99,2.24,1.48l-1.13-6.04c-.07.03-.15-.01-.18-.07-.06-.12-.5-.27-.62-.35-.22-.13-.44-.27-.65-.41-.42-.29-.83-.61-1.22-.95-.75-.65-1.57-1.45-2.03-2.34,1.43,1.42,2.84,2.86,4.65,3.8-.43-2.32-.87-4.65-1.3-6.98-.11-.59-.22-1.17-.33-1.76-.14-.74-.15-1.48-.21-2.23.02.27.23.52.27.79.03.17.02.35.05.52.04.28.11.57.16.85l.4,2.12c.28,1.49.55,2.97.83,4.46.13.68.25,1.35.38,2.03,0-.11.91-.92,1.02-1.06.33-.39.62-.81.89-1.25.52-.85,1.01-1.83,1.3-2.79-.07.24-.02.52-.11.77-.07.2-.13.41-.19.61-.16.51-.45,1.02-.72,1.48-.57.96-1.29,1.83-2.14,2.56l1.13,6.03c.9-1.18,2.01-2.35,2.68-3.68-.16.31-.18.65-.3.96-.13.34-.45.65-.68.95-.54.71-1.09,1.43-1.63,2.14l.02.1s0,.02,0,.03l.79,4.24c1.8-2.66,3.77-5.21,5.87-7.63.13-.15.04-.97.05-1.19.03-.42.06-.84.09-1.26.07-.84.18-1.64.33-2.47-.03.37.01.73.04,1.1.03.37-.04.75-.07,1.12-.04.39-.07.79-.1,1.18-.01.22.07,1.03-.06,1.19,1.66-1.88,3.5-3.6,5.15-5.49-.31.37-.54.88-.82,1.28-.37.54-.94.98-1.4,1.44-.98,1.01-1.94,2.04-2.87,3.1,1.01.15,2.02.29,3.03.44.51.07,1.01.13,1.52.22.28.05.81.18,1.07.11Z"/>
            <path class="cls-2" d="M45.56,14.26c-1.68,1.42-3.34,3.25-4.59,5.08-.62.74-1.24,1.48-1.88,2.21-.48.55-1.03.8-1.66,1.18,1.01.51,1.3,1.35,1.8,2.31.04.09.08.18.15.32-1.18.05-2.31.1-3.44.16-1.29.06-2.59.11-3.88.18-.53.03-.79.33-.73.81-.08,0-.17,0-.25,0l-.49-2.64s.03-.11-.02-.15c.16.14,1.12.02,1.35.03.47.02.95.05,1.42.09.85.07,1.7.07,2.56.14-.38-.03-.74-.18-1.1-.27-.44-.11-.95-.11-1.4-.14-.95-.08-1.89-.12-2.84-.12,1.09-1.62,2.25-3.21,3.46-4.75.61-.78,1.24-1.54,1.88-2.3.23-.28.42-.64.81-.67.33-.03.66.14.98.19.62.09,1.24.18,1.85.27.96.14,1.8.31,2.76.07-.26.06-.79-.06-1.07-.11-.5-.08-1.01-.14-1.52-.22-1.01-.15-2.02-.29-3.03-.44.93-1.06,1.88-2.09,2.87-3.1.45-.47,1.03-.91,1.4-1.44.27-.4.51-.91.82-1.28-1.66,1.88-3.49,3.6-5.15,5.49.13-.15.05-.97.06-1.19.03-.4.06-.79.1-1.18.03-.37.1-.75.07-1.12-.03-.37-.07-.73-.04-1.1-.16.83-.26,1.63-.33,2.47-.04.42-.07.84-.09,1.26-.01.22.08,1.04-.05,1.19-2.11,2.42-4.07,4.97-5.87,7.63l-.79-4.24s0-.02,0-.03l-.02-.1c.54-.71,1.09-1.43,1.63-2.14.22-.29.55-.6.68-.95.12-.31.15-.65.3-.96-.67,1.33-1.77,2.5-2.68,3.68l-1.13-6.03c.85-.73,1.57-1.6,2.14-2.56.27-.46.55-.96.72-1.48.07-.2.12-.41.19-.61.08-.25.03-.54.11-.77-.29.96-.78,1.94-1.3,2.79-.26.44-.56.86-.89,1.25-.11.13-1.02.94-1.02,1.06-.13-.68-.25-1.35-.38-2.03-.28-1.49-.55-2.97-.83-4.46l-.4-2.12c-.05-.28-.12-.57-.16-.85-.03-.18-.01-.35-.05-.52-.05-.26-.25-.52-.27-.79.06.75.07,1.49.21,2.23.11.59.22,1.18.33,1.76.44,2.32.87,4.65,1.3,6.98-1.81-.94-3.22-2.39-4.65-3.8.46.89,1.28,1.68,2.03,2.34.39.34.8.65,1.22.95.21.14.43.28.65.41.12.07.56.23.62.35.03.06.11.11.18.07l1.13,6.04c-.75-.5-1.49-.99-2.24-1.48-.36-.24-.71-.52-1.09-.71-.31-.16-.72-.23-.99-.44,1.43,1.07,2.92,2.03,4.4,3.01l.83,4.47s0,0,0,.01h-.02s-.04,0-.06.01c-2.25-1.34-4.5-2.67-6.75-4.01h0s-.14-.27-.14-.27c-.08.01-.76-1.32-.84-1.46-.3-.5-.62-1-.94-1.49-.32-.49-.64-.99-.99-1.46-.26-.35-.45-.79-.81-1.05.26.93,1,1.79,1.53,2.59.31.48.62.96.92,1.45.16.25.31.51.46.77.08.15.23.57.37.65-1.37-.81-2.74-1.63-4.11-2.44-.69-.41-1.37-.82-2.06-1.22-.28-.17-.59-.32-.87-.49-.17-.1-.52-.27-.66-.41.21.27.46.5.74.69,2.09,1.47,4.41,2.68,6.61,3.98-1.13.18-2.26.38-3.39.59-.54.1-1.09.26-1.64.32-.18.02-.33.01-.51.07-.21.06-.46.28-.68.3,1.09-.08,2.14-.28,3.21-.48.57-.11,1.15-.21,1.72-.31.3-.05.6-.1.9-.15.13-.02.64-.18.75-.12l.24.14.33.2,6.23,3.7c-.87.35-1.72.75-2.55,1.19-.67.36-1.45.77-2,1.31.44-.24.9-.45,1.36-.64.39-.15.66-.36,1.02-.56.83-.48,1.78-.97,2.73-1.14.27.89.39,1.87.54,2.83-.07,0-.15.02-.22.03-.12-.36-.48-.56-.86-.43-1.27.41-2.54.83-3.81,1.26-1.08.36-2.15.72-3.28,1.1.04-.4.21-3.45.92-3.45-3.91-.1-7.77-1.71-10.59-4.42.85-.24,1.39-.54,2.14-.94.58-.31,1.26-.42,1.8.01-1.73-1.39-2.56-3.26-3.5-5.21-.06-.11-.11-.23-.18-.39.5,0,.97.01,1.44.02,1.45.04,2.77.22,4.2.48-.42-.93-.85-1.85-1.27-2.78.06.13,1.67.39,1.9.48.65.24,1.28.54,1.87.91,1.18.73,2.17,1.7,2.96,2.83-.49-.96-.77-1.9-1.38-2.79-.76-1.1-1.38-2.3-1.78-3.59-.41-1.33-.56-2.56-.42-3.93.76.62,1.66.38,2.53.67.54.18,1.04.51,1.41.95-.3-.87-.09-1.63.17-2.46.39-1.21.77-2.43,1.16-3.64.03-.11.07-.22.13-.38.1.11.17.19.24.28.8.99,1.61,1.98,2.4,2.98.61.78,1.5,1.42,1.52,2.5,0-.44.72-1.1,1-1.39.59-.59,1.15-.89,1.67-1.59,1.32,3.28,1.47,7.02.42,10.4.16-.51.44-.99.59-1.5.2-.67.52-1.3.89-1.9.7-1.13,1.61-2.12,2.51-3.1.65,1.02.95,2.26.81,3.46.09-.8,1.01-1.07,1.6-1.22,1.03-.26,2.02-.78,3-1.18.04-.01.08-.02.17-.04,0,.15-.01.28-.02.41-.15,1.81-.3,3.91-1.03,5.59.35-.36.88-.44,1.39-.41.13,0,.26.02.39.04.62.1,1.27.27,1.87.09Z"/>
            <path class="cls-3" d="M42.3,16.25c-.96.24-1.8.06-2.76-.07-.62-.08-1.24-.18-1.85-.27-.32-.05-.65-.22-.98-.19-.39.04-.58.4-.81.67-.64.76-1.27,1.52-1.88,2.3-1.21,1.54-2.37,3.12-3.46,4.75.95,0,1.89.04,2.84.12.45.04.96.04,1.4.14.37.09.72.24,1.1.27-.86-.07-1.7-.07-2.56-.14-.47-.04-.95-.07-1.42-.09-.24-.01-1.19.11-1.35-.03.05.04.05.1.02.15l.49,2.64.17.9c.03.18-.24.23-.27.05-.06-.3-.11-.62-.15-.93-.14-.96-.27-1.94-.54-2.83-.95.17-1.9.66-2.73,1.14-.36.2-.62.41-1.02.56-.47.18-.92.4-1.36.64.55-.54,1.32-.95,2-1.31.83-.44,1.68-.84,2.55-1.19l-6.23-3.7-.33-.2-.24-.14c-.11-.07-.62.1-.75.12-.3.05-.6.1-.9.15-.57.1-1.15.2-1.72.31-1.07.2-2.13.39-3.21.48.22-.02.46-.23.68-.3.18-.06.33-.05.51-.07.55-.07,1.1-.22,1.64-.32,1.13-.21,2.26-.41,3.39-.59-2.2-1.31-4.52-2.51-6.61-3.98-.28-.2-.53-.43-.74-.69.14.14.5.31.66.41.28.17.58.32.87.49.69.41,1.37.81,2.06,1.22,1.37.81,2.74,1.63,4.11,2.44-.14-.08-.28-.5-.37-.65-.15-.26-.3-.51-.46-.77-.3-.49-.6-.97-.92-1.45-.52-.8-1.26-1.66-1.53-2.59.36.26.55.71.81,1.05.35.47.67.96.99,1.46.32.49.63.99.94,1.49.08.14.77,1.47.84,1.46l.14.26h0c2.25,1.35,4.5,2.69,6.75,4.02.02,0,.04-.01.06-.01h.02s0,0,0-.01l-.83-4.47c-1.48-.98-2.97-1.94-4.4-3.01.28.21.69.28.99.44.38.2.74.47,1.09.71.75.49,1.49.99,2.24,1.48l-1.13-6.04c-.07.03-.15-.01-.18-.07-.06-.12-.5-.27-.62-.35-.22-.13-.44-.27-.65-.41-.42-.29-.83-.61-1.22-.95-.75-.65-1.57-1.45-2.03-2.34,1.43,1.42,2.84,2.86,4.65,3.8-.43-2.32-.87-4.65-1.3-6.98-.11-.59-.22-1.17-.33-1.76-.14-.74-.15-1.48-.21-2.23.02.27.23.52.27.79.03.17.02.35.05.52.04.28.11.57.16.85l.4,2.12c.28,1.49.55,2.97.83,4.46.13.68.25,1.35.38,2.03,0-.11.91-.92,1.02-1.06.33-.39.62-.81.89-1.25.52-.85,1.01-1.83,1.3-2.79-.07.24-.02.52-.11.77-.07.2-.13.41-.19.61-.16.51-.45,1.02-.72,1.48-.57.96-1.29,1.83-2.14,2.56l1.13,6.03c.9-1.18,2.01-2.35,2.68-3.68-.16.31-.18.65-.3.96-.13.34-.45.65-.68.95-.54.71-1.09,1.43-1.63,2.14l.02.1s0,.02,0,.03l.79,4.24c1.8-2.66,3.77-5.21,5.87-7.63.13-.15.04-.97.05-1.19.03-.42.06-.84.09-1.26.07-.84.18-1.64.33-2.47-.03.37.01.73.04,1.1.03.37-.04.75-.07,1.12-.04.39-.07.79-.1,1.18-.01.22.07,1.03-.06,1.19,1.66-1.88,3.5-3.6,5.15-5.49-.31.37-.54.88-.82,1.28-.37.54-.94.98-1.4,1.44-.98,1.01-1.94,2.04-2.87,3.1,1.01.15,2.02.29,3.03.44.51.07,1.01.13,1.52.22.28.05.81.18,1.07.11Z"/>
          </g>
          <path class="cls-1" d="M21.97,12.86c-.32-.49-.69-.93-.98-1.44-.3-.55-.54-1.12-.71-1.72-.34-1.2-.3-2.36-.19-3.58,0-.04-.05-.04-.06,0-.34,1.15-.22,2.49.08,3.64.29,1.13.84,2.43,1.73,3.21.07.06.19-.02.13-.1Z"/>
          <path class="cls-1" d="M41.8,26.51c-.55-.87-1.05-1.86-1.72-2.64-.06-.07-.15.02-.12.09.37.86.97,1.67,1.49,2.46-2.78-.34-5.68-.41-8.43.12-.04,0-.03.07,0,.07,2.91-.2,5.77-.29,8.67.09.1.01.15-.11.11-.19Z"/>
          <path class="cls-1" d="M46.22,14.48c-.95.82-1.75,1.87-2.59,2.8-.81.9-1.66,1.79-2.4,2.75-.03.04.04.09.07.06.91-.89,1.73-1.87,2.58-2.81.81-.89,1.73-1.75,2.44-2.72.05-.06-.05-.12-.1-.08Z"/>
          <path class="cls-1" d="M43.52,8.28c-.02-.05-.1-.04-.1.01,0,.88.08,1.72-.05,2.59-.12.82-.39,1.58-.68,2.36-.02.06.07.1.1.04.8-1.37,1.19-3.47.72-5.01Z"/>
          <path class="cls-1" d="M21.44,25.18c-.6-.1-1.2-.1-1.8-.19-.6-.09-1.2-.2-1.78-.36-1.22-.32-2.41-.77-3.53-1.35-.04-.02-.08.04-.04.06,1.08.62,2.23,1.11,3.44,1.44,1.15.31,2.5.63,3.7.5.06,0,.08-.1.02-.11Z"/>
          <path class="cls-1" d="M27.07,27.63c-1.51.18-3.03.91-4.25,1.8-.06.04,0,.14.06.1,1.32-.86,2.71-1.35,4.21-1.79.05-.02.05-.11-.01-.1Z"/>
          <path class="cls-1" d="M32.56,35.58c-.86-.18-1.09-1.46-1.33-2.17-.27-.8-.42-1.61-.58-2.44,0-.04-.07-.03-.07.01-.07,1.1.34,2.2.7,3.23.2.57.47,1.66,1.28,1.5.06-.01.06-.11,0-.13Z"/>
          <path class="cls-1" d="M30.16,4.01c-.21-.34-.52-.62-.79-.92-.28-.32-.56-.65-.83-.98-.56-.68-1.08-1.39-1.62-2.09-.05-.06-.14.02-.1.08.46.73.99,1.41,1.53,2.08.51.63,1.06,1.44,1.73,1.91.05.03.11-.03.08-.08Z"/>
        </g>
      </g>
      <path class="cls-2" d="M40.6,61.07c-.31-1.86-1.26-3.1-2.36-3.89-.07-.05-.14-.1-.21-.14-.04-.03-.08-.06-.12-.08-1.79-1.14-3.79-1.19-3.79-1.19,0,0-5.37-.51-7.63,4.52,0,0-1.04,2.36-.19,3.85.28.49.75.88,1.54,1.07.12.01.2-.09.17-.21-.1-.32-.23-.95-.13-1.81.08-.69.32-1.52.85-2.45,0,0,1.59-2.84,4.52-3.45,0,0,2.25-.63,3.71.4.04.03.08.05.12.08,1.53,1.18,2.18,3.87.71,8.16-.26.76-.54,1.45-.85,2.09-.06.12-.12.23-.17.35-.13.25-.34.6-.59,1.01-.18.29-.39.59-.63.91-.16.22-.33.44-.52.65-.02.03-.04.05-.07.08-1.06,1.19-2.18,2-2.82,2.11s-1.38-.4-1.87-.87c.12-.25.84-2.37.9-2.59.12-.47.33-1.16.63-1.79,0,0,0,0,0,0,1.2-2.78,3.29-5.6,3.67-7.37.18-.8-.4-1.15-1.02-1.3-.38-.09-.77-.1-1.01-.1-.1-.01-.18.09-.17.18.03.2.03.41.02.62-.15,2.67-2,4.43-3.85,8.83-.28.77-.86,2.05-1.22,2.8-1.44-.37-3.46.08-4.56.52-3.15,1.25-1.63,3.36.37,3.41,1.89.05,4.62-.35,5.62-2.03,0,0,0,0,0,0,.9.29,1.5.83,2.57.82s3.73-1.56,5.24-3.38c.38-.38.56-.62.77-1.02.82-1.19,1.48-2.55,1.92-4.05.56-1.9.65-3.46.44-4.73ZM24.04,74.29c-.44-.34-.46-.93.14-1.25.91-.48,1.33-.48,2.22-.48.48,0,1.16.31,1.38.36-.96,1.38-3.14,1.85-3.75,1.37Z"/>
    </g>
  </g>
</svg>