<?xml version="1.0" encoding="UTF-8"?>
<svg id="Calque_2" data-name="Calque 2" xmlns="http://www.w3.org/2000/svg" viewBox="0 0 118.12 92.14">
  <defs>
    <style>
      .cls-1 {
        fill-rule: evenodd;
      }

      .cls-1, .cls-2 {
        fill: #fff;
      }
    </style>
  </defs>
  <g id="Layer_2_copy" data-name="Layer 2 copy">
    <g>
      <g>
        <g>
          <g>
            <path class="cls-2" d="M80.61,49.08h-47.68c-.37,0-.67-.3-.67-.67V.66c0-.36.3-.66.67-.66h47.68c.36,0,.66.3.66.66v47.75c0,.37-.3.67-.66.67h0ZM33.59,47.75h46.35V1.33h-46.35v46.42h0Z"/>
            <path class="cls-1" d="M41.56,36.09c.45-1.2.74-2.13.69-3.36-.29-.19-.57-.43-1.07-.42.24-.77.13-1.77-.26-2.95-.2-.14-.62-.31-.92-.33-.05-.74-.32-1.95-.76-2.32-.53.01-.71,0-1.22.15-.25-.88-.83-1.65-1.88-2.42-.36.08-.72.23-1.04.58-.42-.91-.81-1.82-1.96-2.49-.33.02-.66.07-1.09.54-.3-.64-.55-1.28-1.32-1.86-.48.03-.92.12-1.09.53-.18-.62-.43-1.23-.86-1.81-.6.19-.6.31-.7.43-.44-.52-.91-1.03-.9-1.6-.27-.07-.51-.03-.67.23-.31-.4-.7-.83-1.52-1.32-.37.54-.68,1.16-.63,2.29-.27-.04-.54,0-.81.09,0,.58.06,1.14.33,1.69-.3,0-.59-.01-.88.13-.09.65-.11,1.28.07,1.9-.42.02-.78,0-.96-.09-.19.74-.35,1.5-.15,2.47-.34-.05-.68-.09-1.1-.03-.3.83-.52,1.7-.38,2.75-.47-.04-.9-.12-1.56.09-.4.95-.63,1.91-.43,2.88-.49.09-.98.2-1.44.56-.05,1.28.06,2.53.68,3.73-.29-.02-.57-.02-.81.4.26.65.63,1.3,1.29,1.9-.4.16-.61.31-.61.43.66,1.04,1.42,2.07,2.77,3.03-.33.09-.48.34-.52.67,1.37,1.07,2.63,1.98,4.49,2.57-.18.31-.28.51-.1.83.51-.19,4.02,3.24,7.08,2.73.36-.06.74.14,1.07.16.26-.11.5-.48.78-.43,2.58.44,5.59-6.5,6.55-7.09.03-.17.02-.38-.33-.67,1.07-1.31,2.17-2.55,2.83-3.95-.15-.18-.51-.62-.65-.63ZM38.65,38.67c-.23.01-.43,0-.65-.02-.02,0-.04-.02-.05-.04-.96,1.47-1.89,2.95-2.87,4.41-.87,1.3-1.79,2.66-2.85,3.87.04.23.21,1.22.25,1.49.15-.09.28-.23.41-.35.39-.37.74-.83,1.09-1.28.88-1.16,1.67-2.38,2.61-3.5.23-.28.49-.56.74-.81.4-.4.83-.76,1.34-.97.17-.08.35-.14.55-.15.12-.02.21-.01.33,0-.7,0-1.25.38-1.72.8-.25.22-.49.46-.71.71-.29.33-.58.68-.86,1.03-.73.91-1.38,1.9-2.06,2.84-.28.39-.57.79-.89,1.17-.25.28-.49.55-.79.76.01.07-.23.35-.28-.08-1.75-.5-3.31-1.53-4.97-2.28-.56-.26-1.14-.5-1.76-.61-.42-.06-.88-.05-1.29.13.07-.03.13-.07.2-.1.11-.03.22-.06.33-.09.24-.06.5-.04.71-.02.63.09,1.22.3,1.79.56,1.03.48,2.04,1.04,3.07,1.53.6.28,1.23.52,1.88.65-.07-.53-.16-1.08-.16-1.04-3.1-1.72-5.5-3.34-7.71-4.78-.01.02-.02.04-.04.04-.77.28-1.68.42-2.52.36-.62-.04-1.19-.17-1.75-.35,1.11.27,2.44.48,3.67.08.19-.06.37-.12.53-.2-.94-.61-1.84-1.17-2.76-1.71-1.23-.71-2.5-1.29-3.8-1.79.94.32,1.84.68,2.73,1.12,1.23.59,2.42,1.33,3.6,2.08,2.36,1.5,4.64,3.21,8,4.86l-.39-2.21c-.04-.22-.08-.44-.12-.66-.01,0-.02-.01-.03-.02-2.32-1.64-4.57-3.46-6.78-5.29-.97-.79-1.93-1.59-2.88-2.39,0,0-.01.02-.03.02-.24.14-.49.26-.76.37-.24.1-.51.16-.79.2-1.14.18-2.16-.11-3.12-.48.22.07.44.14.66.19.95.25,2.09.44,3.13.04.29-.11.56-.25.81-.44-1.52-1.27-3.03-2.55-4.56-3.82,2.47,1.93,4.85,3.94,7.24,5.91,2.29,1.89,4.63,3.79,7.06,5.4-.22-1.17-.47-2.33-.72-3.48,0,0-.01,0-.01,0-.32-.21-.62-.41-.93-.63-.95-.69-1.85-1.45-2.69-2.22-1.32-1.21-2.58-2.46-3.81-3.75-1.47-1.54-2.9-3.11-4.33-4.69,2.19,2.26,4.28,4.57,6.52,6.76,1.57,1.53,3.29,3.08,5.18,4.24-.38-1.7-.79-3.38-1.21-5.05,0,0-.02,0-.02,0-.66-.46-1.32-.93-1.96-1.44-2.64-2.13-4.74-4.64-6.56-7.31,1.93,2.57,3.93,5.11,6.59,7.17.6.47,1.24.9,1.88,1.29-.27-1.08-.54-2.15-.82-3.23-.15-.59-.3-1.18-.46-1.77,0,0,0,0-.01,0-.82-.37-1.56-.95-2.26-1.57-1.43-1.27-2.57-2.78-3.65-4.3,1.16,1.43,2.29,2.91,3.69,4.18.65.59,1.38,1.12,2.15,1.43-.36-1.37-.72-2.74-1.07-4.11-.03-.1-.06-.19-.08-.28-.65-.2-1.22-.56-1.79-1.02-.77-.63-1.42-1.36-2-2.11.63.68,1.25,1.37,1.98,2,.54.46,1.13.83,1.78.99-.26-.99-.51-1.98-.77-2.98-.62-.3-1.24-.66-1.77-1.14-.22-.2-.41-.41-.6-.63.68.67,1.44,1.29,2.32,1.62-.32-1.28-.64-2.55-.96-3.82.35,1.24.7,2.46,1.04,3.7.09-.11.18-.23.24-.35.22-.45.31-.96.41-1.47.07-.33.15-.65.24-.98-.08.51-.17,1.02-.28,1.52-.11.5-.24,1-.57,1.41h0s.02.08.02.08c0-.06.02-.01,0,.01h0c.11.42.26.95.81,2.96.73-1.16.97-1.82,1.17-2.49.23-.74.42-1.51.63-2.26-.16.76-.34,1.5-.55,2.22-.28.93-.62,1.85-1.19,2.66h-.03c.03.12.47,1.72.89,3.32.09.31.17.63.26.95.8-1.09,1.24-2.35,1.58-3.61.38-1.39.67-2.83.99-4.24-.22,1.41-.49,2.81-.86,4.16-.36,1.38-.83,2.76-1.64,3.96.45,1.67.88,3.34,1.3,5.01.37-.48.65-1.01.91-1.53.36-.78.65-1.58.89-2.37.78-2.58,1.29-5.29,1.8-7.99-.24,1.7-.55,3.37-.91,5.01-.21.98-.45,1.94-.74,2.89-.45,1.46-.95,2.97-1.87,4.27h0c.19.76.93,3.83,1.1,4.61.49-.67.89-1.39,1.25-2.13.48-.96.88-1.93,1.24-2.92.56-1.54,1.04-3.13,1.49-4.72.49-1.68.95-3.39,1.4-5.08-.49,2.11-1.02,4.2-1.63,6.27-.33,1.14-.69,2.27-1.09,3.37-.48,1.31-.98,2.59-1.63,3.85-.28.55-.58,1.09-.94,1.6,0,.01-.02.02-.02.03.27,1.2.53,2.41.78,3.62.75-.99,1.38-2,1.95-3.06.71-1.32,1.33-2.64,1.92-3.98.79-1.8,1.5-3.63,2.22-5.46.53-1.34,1.06-2.67,1.6-4-.73,1.96-1.46,3.92-2.23,5.87,1.29-.06,2.26-.6,2.95-1.6.15-.21.27-.43.39-.64.16-.29.3-.6.42-.92-.32,1.06-.96,2.15-1.94,2.72-.53.32-1.12.49-1.84.58,0,0-.02,0-.02,0-.45,1.14-.92,2.27-1.4,3.4-1.08,2.5-2.28,5.03-3.92,7.33,0,.02-.03.04-.05.04.1.5.2,1,.29,1.49.09.51.19,1.02.28,1.53.97-1.08,1.85-2.29,2.66-3.47,2.13-3.06,3.9-6.32,6.35-9.22.32-.38.65-.72.98-1.07-1.34,1.5-2.52,3.17-3.61,4.82l-.54.83c.14.03.28.05.44.06.28.02.59-.03.86-.11.73-.18,1.38-.61,1.93-1.06.25-.2.51-.4.75-.62-.66.69-1.38,1.24-2.25,1.61-.33.14-.71.25-1.11.28Z"/>
            <path class="cls-1" d="M49,39.03c.19-.28.37-.62.51-1.24-.42-.12-.87-.19-1.58.08-.03-.18-.12-.35-.23-.49-.36.12-.71.27-.99.56-.06-.19-.12-.38-.27-.53-.43.08-.83.2-1.18.44-.1-.26-.17-.49-.14-.63-.51.03-1.02.09-1.59.42-.04-.22-.09-.45-.21-.7-.59-.02-1.18.02-1.8.33-.08-.3-.12-.59-.39-.97-.69-.05-1.34,0-1.91.33-.16-.29-.33-.58-.65-.79-.81.23-1.58.57-2.2,1.21-.05-.18-.11-.37-.42-.42-.36.3-.69.67-.94,1.21-.19-.22-.32-.32-.39-.3-.52.64-1.02,1.33-1.33,2.39-.13-.2-.31-.24-.53-.2-.38,1.09-.7,2.08-.68,3.37-.23-.05-.38-.07-.54.11.22.28-1.2,3.22-.24,5.04.11.21.07.5.12.71.13.14.41.22.44.41.26,1.73,5.26,2.18,5.83,2.66.12-.01.25-.07.35-.35,1.06.41,2.07.84,3.09.97.08-.14.28-.46.26-.55.86.03,1.5.02,2.27-.27.06-.22.15-.45.04-.76.53,0,1.14-.29,1.8-.78.05-.16.07-.46.02-.66.46-.18,1.17-.61,1.3-.96-.12-.33-.15-.45-.35-.74.5-.34.87-.87,1.13-1.7-.13-.21-.29-.4-.58-.53.49-.45.98-.89,1.16-1.75-.08-.2-.18-.41-.57-.58.34-.32.69-.61.89-1.22-.12-.31-.27-.56-.57-.58.35-.24.69-.53.96-.93-.24-.34-.32-.31-.42-.35.24-.39.46-.79.82-.9-.01-.18-.09-.33-.28-.38ZM48.15,39.45c-.34.04-.68.06-1-.06,0,0,0,0,0,0l-.05.03s.01.01-.01.01c-.24.16-.54.36-1.69,1.13.88.23,1.35.23,1.81.22.51,0,1.03-.04,1.56-.07-.51.06-1.02.1-1.51.11-.65.02-1.29,0-1.92-.19l-.02-.02c.09-.05-.9.61-1.89,1.26-.17.12-.36.24-.54.36.85.29,1.74.29,2.61.25.95-.05,1.92-.17,2.87-.26-.93.15-1.87.27-2.8.33-.94.05-1.91.04-2.84-.21-.96.63-1.92,1.25-2.89,1.87.38.13.77.2,1.16.25.56.07,1.13.08,1.68.07,1.78-.04,3.6-.29,5.4-.53-1.12.2-2.23.35-3.34.47-.67.07-1.32.12-1.98.13-1.01.02-2.07.02-3.07-.29h0c-.44.28-2.22,1.38-2.68,1.67.54.17,1.07.26,1.61.34.7.1,1.4.15,2.1.17,1.09.03,2.19,0,3.28-.04,1.16-.04,2.33-.11,3.49-.18-1.43.13-2.85.23-4.29.28-.79.03-1.58.04-2.35.01-.93-.03-1.84-.08-2.77-.22-.41-.07-.81-.14-1.21-.26,0,0-.01,0-.02,0-.7.42-1.41.84-2.12,1.26.78.27,1.55.45,2.34.58.98.17,1.94.3,2.92.39,1.31.12,2.6.18,3.91.26.96.06,1.9.12,2.85.17-1.39-.05-2.78-.1-4.16-.18.31.8.85,1.3,1.62,1.53.16.05.33.09.49.11.22.04.44.07.67.08-.73.02-1.55-.16-2.12-.66-.31-.27-.54-.61-.74-1.04h0c-.82-.06-1.63-.11-2.44-.19-1.8-.15-3.65-.39-5.45-.94,0,0-.02-.01-.03-.02-.29.17-.59.34-.88.5-.3.17-.6.33-.91.49.88.39,1.83.69,2.74.96,2.38.7,4.8,1.14,7.14,2.08.3.12.59.26.88.4-1.23-.53-2.53-.92-3.8-1.27l-.64-.17c.01.09.03.19.05.28.05.19.15.37.25.53.27.42.68.74,1.08,1,.17.12.36.24.55.34-.57-.28-1.07-.61-1.49-1.08-.15-.18-.31-.4-.4-.65-.06-.13-.1-.27-.13-.41,0-.02,0-.03.01-.05-1.13-.29-2.26-.58-3.38-.89-1-.28-2.05-.58-3.03-.99-.13.07-.73.38-.89.47.09.08.2.13.31.19.31.16.68.3,1.03.41.92.32,1.85.57,2.76.92.22.09.45.19.66.3.34.17.65.37.9.64.08.09.16.2.21.32.04.07.05.13.07.2-.15-.44-.5-.71-.87-.92-.2-.1-.39-.21-.6-.3-.27-.12-.55-.22-.83-.33-.73-.27-1.49-.47-2.22-.71-.31-.1-.62-.2-.92-.32-.23-.09-.45-.19-.64-.33-.04.02-.26-.07-.01-.19-.05-1.21.27-2.42.4-3.62.04-.41.08-.82.02-1.23-.05-.28-.16-.57-.35-.79.03.03.07.07.1.11.04.06.09.12.13.19.08.13.13.31.16.44.08.41.07.84.03,1.25-.09.75-.23,1.51-.32,2.26-.05.44-.07.89-.02,1.32.32-.16.64-.32.62-.32.43-2.33.95-4.18,1.4-5.87-.01,0-.03,0-.04-.01-.34-.42-.62-.97-.75-1.52-.1-.4-.14-.79-.14-1.18.06.76.21,1.64.71,2.34.07.1.15.2.24.29.19-.72.35-1.41.49-2.1.19-.93.29-1.84.34-2.77,0,.66-.05,1.3-.13,1.96-.12.91-.34,1.81-.56,2.71-.46,1.81-1.06,3.61-1.39,6.08l1.31-.71c.13-.07.26-.14.39-.21,0-.01,0-.02,0-.03.55-1.81,1.23-3.61,1.92-5.4.3-.77.6-1.55.91-2.32,0,0-.02,0-.02-.01-.14-.12-.27-.25-.39-.4-.11-.14-.21-.29-.29-.45-.36-.68-.38-1.39-.36-2.07,0,.15,0,.31.02.46.05.66.16,1.41.63,1.98.13.16.28.3.44.42.49-1.22.98-2.44,1.45-3.67-.7,1.96-1.46,3.89-2.21,5.8-.72,1.84-1.42,3.72-1.93,5.59.69-.39,1.37-.79,2.03-1.19,0,0,0-.01,0-.02.07-.24.13-.48.21-.72.24-.74.53-1.47.83-2.17.49-1.08,1.02-2.14,1.57-3.19.66-1.25,1.35-2.48,2.05-3.71-.97,1.85-1.99,3.65-2.9,5.52-.63,1.31-1.26,2.73-1.59,4.17.99-.6,1.96-1.21,2.93-1.83,0,0,0-.01,0-.01.15-.51.31-1.03.5-1.54.79-2.12,1.93-3.96,3.24-5.67-1.21,1.76-2.4,3.55-3.14,5.66-.17.48-.31.97-.42,1.45.62-.39,1.24-.79,1.86-1.19.34-.22.68-.44,1.02-.66h0c.06-.6.27-1.19.52-1.76.5-1.17,1.21-2.2,1.94-3.2-.66,1.03-1.36,2.05-1.86,3.2-.23.53-.42,1.11-.45,1.66.79-.51,1.57-1.03,2.36-1.54.05-.04.11-.07.16-.11,0-.45.1-.89.27-1.34.23-.62.56-1.18.91-1.71-.3.54-.6,1.08-.85,1.67-.17.44-.28.89-.25,1.32.57-.37,1.14-.73,1.72-1.1.06-.45.16-.92.34-1.36.07-.17.17-.34.28-.51-.28.58-.51,1.19-.53,1.81.74-.47,1.47-.93,2.2-1.4-.71.48-1.41.95-2.12,1.43.08.04.18.06.27.08.33.04.67,0,1.01-.05.22-.02.44-.04.66-.05-.34.06-.68.1-1.02.13Z"/>
          </g>
          <g>
            <path class="cls-2" d="M17.12,53.71c-.36,0-.63.27-.63.64-1.51-.71-3.12-1.07-4.89-1.07-6.41,0-11.6,5.16-11.6,11.58s5.2,11.61,11.6,11.61c1.7,0,3.41-.44,4.89-1.11,0,.4.27.67.63.67.31,0,.61-.27.61-.67v-1.81c0-.4-.3-.64-.61-.64-.36,0-.63.24-.63.64v.4c-1.41.77-3.15,1.27-4.89,1.27-2.82,0-5.4-1.17-7.31-3.09-1.88-1.88-3.02-4.46-3.02-7.28s1.14-5.37,3.02-7.29c1.9-1.88,4.49-3.06,7.31-3.06,1.74,0,3.48.47,4.89,1.24v.44c0,.37.27.63.63.63.31,0,.61-.26.61-.63v-1.85c0-.37-.3-.64-.61-.64Z"/>
            <path class="cls-2" d="M34.25,74.29c-.4,0-.63.24-.63.64v.27h-12.2v-20.31h.27c.37,0,.64-.27.64-.64,0-.3-.26-.6-.64-.6h-1.84c-.3,0-.6.3-.6.6,0,.37.3.64.6.64h.3v20.95c0,.27.1.34.17.43.17.17.3.17.47.17h12.83v.3c0,.27.24.64.63.64.37,0,.61-.37.61-.64v-1.81c0-.4-.24-.64-.61-.64Z"/>
            <path class="cls-2" d="M105.42,55.88c.37,0,.6-.37.6-.64v-1.81c0-.4-.24-.64-.6-.64-.4,0-.64.24-.64.64v.27h-10.5c-.08-.04-.17-.06-.26-.06h-1.84c-.3,0-.6.3-.6.6,0,.37.3.64.6.64h.31v20.95c0,.27.1.34.16.43.17.17.3.17.47.17h11.67v.3c0,.27.24.64.64.64.37,0,.6-.37.6-.64v-1.81c0-.4-.24-.64-.6-.64-.4,0-.64.24-.64.64v.27h-11.03v-9.82h12.2v.3c0,.27.23.63.63.63.37,0,.6-.36.6-.63v-1.81c0-.4-.23-.63-.6-.63-.4,0-.63.23-.63.63v.27h-12.2v-9.19h11.03v.3c0,.27.24.64.64.64Z"/>
            <path class="cls-2" d="M55.01,75.23h-.47l-8.01-21.21c-.17-.17,0-.23-.5-.23-.3,0-.44.13-.54.23-2.68,7.05-5.36,14.2-8.01,21.21h-.47c-.37,0-.63.33-.63.61,0,.37.26.64.63.64h1.84c.24,0,.61-.27.61-.64,0-.27-.37-.61-.61-.61.94-2.45,1.65-4.43,2.55-6.88h9.19c.87,2.38,1.75,4.56,2.65,6.88h-.08c-.3,0-.6.33-.6.61,0,.37.3.64.6.64h1.85c.38,0,.64-.27.64-.64,0-.27-.27-.61-.64-.61ZM41.87,67.1l4.15-10.98c1.44,3.86,2.75,7.25,4.13,10.98h-8.28Z"/>
            <path class="cls-2" d="M71.17,53.51h-1.81c-.34,0-.61.27-.61.64s.27.64.61.64h.3v14.24c0,1.67-.74,3.22-1.81,4.33-1.14,1.14-2.65,1.78-4.32,1.78s-3.15-.64-4.29-1.78c-1.14-1.14-1.81-2.69-1.81-4.33v-14.24h.27c.4,0,.63-.27.63-.64s-.23-.64-.63-.64h-1.82c-.33,0-.6.27-.6.64s.27.64.6.64h.31v14.24c0,4.06,3.28,7.38,7.34,7.38s7.37-3.32,7.37-7.38v-14.24h.27c.41,0,.64-.27.64-.64s-.23-.64-.64-.64Z"/>
            <path class="cls-2" d="M79.45,53.57h-4.86v-.3c0-.37-.27-.6-.63-.6s-.64.23-.64.6v1.85c0,.33.27.6.64.6s.63-.27.63-.6v-.27h.06v20.28h-.06v-.27c0-.27-.27-.64-.63-.64s-.64.37-.64.64v1.84c0,.37.27.61.64.61s.63-.23.63-.61v-.33c.54,0,1.38.03,1.88.03.94.03,1.95.03,2.99.03,6.3,0,11.43-5.14,11.43-11.45s-5.13-11.41-11.43-11.41ZM86.63,72.2c-1.84,1.85-4.39,2.96-7.17,2.96-1.24,0-2.41.03-3.52,0v-20.31h3.52c2.78,0,5.33,1.11,7.17,2.96,1.88,1.88,2.98,4.4,2.98,7.18s-1.1,5.34-2.98,7.22Z"/>
          </g>
        </g>
        <path class="cls-2" d="M79.45,76.43c1.24,0,2.44-.2,3.56-.57l-.4-1.2c-1,.32-2.06.5-3.16.5"/>
      </g>
      <g>
        <g>
          <g>
            <path class="cls-2" d="M88.43,85.17c-.07.33-.32.7-.77,1.12-.43.35-.83.51-1.2.48-.34-.03-.52-.26-.55-.69-.01-.27.02-.55.07-.84l.27-.93c-.34.61-.7,1.15-1.04,1.6-.33.37-.76.71-1.28,1.01-.1,0-.19,0-.23.01-.24,0-.47-.04-.69-.17-.22-.18-.34-.45-.36-.78-.01-.21.05-.57.2-1.06.15-.51.52-1.06,1.1-1.68.59-.61,1.26-.94,1.99-.98l.52.08h.13s-.23.39-.23.39c-.27-.08-.51-.12-.73-.11-.59.03-1.09.4-1.49,1.08-.4.69-.63,1.42-.7,2.19.01.16.07.28.18.37.11.09.24.14.41.12.18-.01.34-.08.5-.19.53-.46.95-1,1.28-1.63l1.21-2.26.51-.03-.78,2.89c-.08.17-.11.34-.1.54l.12.52.33-.02,1.1-1.01.21-.02Z"/>
            <path class="cls-2" d="M91.27,80.92l-.02.38-1.41.09-1.03,4.34c0,.12.05.23.15.34l.26.04c.25-.01.53-.16.85-.46l.64-.77.09.21c-.38.53-.73.91-1.06,1.15-.33.24-.65.36-.96.39l-.32.02c-.29-.19-.45-.48-.48-.87l1.03-4.35-.53.03.07-.38.55-.04.71-3.14.81-.23-.76,3.32,1.41-.09Z"/>
            <path class="cls-2" d="M95.91,84.92l-.95,1.07c-.21.2-.46.31-.76.32-.11,0-.22-.01-.33-.07-.21-.21-.32-.47-.34-.78l.02-.45.48-2.18-1.7,2.97-.21.31-.24.24-.55.12c-.18.01-.33,0-.45-.06-.12-.05-.22-.15-.28-.33-.02-.36-.03-.63-.02-.81,0-.17.04-.49.1-.95.06-.47.23-1.21.54-2.22l.79-.17-.68,2.9-.14.56.04.59c.09.11.2.17.33.19.11,0,.24-.08.39-.24l.27-.4c.82-1.18,1.49-2.42,2-3.72l.74-.05-.65,3.66.1.29.26.02,1.14-1.03.1.22Z"/>
            <path class="cls-2" d="M98.68,81.6c.21.22.32.47.34.79.04.58-.21.99-.74,1.24l-.04-.25.06-.43-.02-.42-.02-.25-.34.11c-.68,1.21-1.27,2.45-1.78,3.74l-.63.03.6-4.11.81-.35-.34,2.81c.31-.85.59-1.48.85-1.91.27-.42.57-.75.89-.98.1-.06.22-.06.36-.03Z"/>
            <path class="cls-2" d="M104.34,84.23c-.07.33-.32.71-.77,1.12-.43.35-.83.51-1.21.49-.34-.03-.52-.26-.54-.7-.01-.27,0-.54.07-.83l.27-.94c-.34.62-.69,1.15-1.05,1.6-.33.37-.76.71-1.27,1.02-.12,0-.19,0-.23,0-.24.01-.47-.04-.69-.17-.22-.19-.34-.45-.36-.78-.02-.21.06-.56.2-1.07.15-.5.52-1.05,1.1-1.67.59-.61,1.25-.94,1.99-.98l.52.08h.12s-.23.39-.23.39c-.27-.08-.52-.12-.72-.11-.6.04-1.1.4-1.5,1.09-.4.68-.63,1.41-.7,2.18,0,.16.07.28.18.37.1.09.24.14.41.12.19,0,.35-.08.51-.2.53-.46.95-1.01,1.27-1.63l1.22-2.25.5-.03-.77,2.89c-.08.16-.11.34-.1.54l.12.52.33-.02,1.1-1.02h.21Z"/>
            <path class="cls-2" d="M109.32,73.43l-.97,2.9c-.18.42-.36.79-.51,1.12-.16.33-.36.7-.6,1.11-.38.67-.84,1.4-1.39,2.19l-.61,3.61.05.73.44-.02,1.13-1.17.08.21-1.19,1.3-.3.14-.38.1c-.11.01-.24-.04-.39-.16-.15-.11-.23-.32-.25-.62l.03-.41.31-2.1-.62.54c.04-.17.13-.36.28-.56l.4-.49c.26-1.89.71-3.75,1.31-5.57.31-.92.64-1.79,1.01-2.62.37-.82.8-1.62,1.27-2.4l.36-.21.34-.02c.23.15.37.41.38.79.01.29,0,.53-.03.73-.04.19-.06.35-.06.46,0,.11-.03.25-.08.42ZM109.1,71.52c-.14,0-.27.06-.39.15-.05.05-.24.45-.57,1.18-.34.73-.69,1.73-1.09,3.01-.4,1.29-.74,2.68-1.03,4.21.93-1.37,1.68-2.76,2.23-4.17l.86-2.9v-1.48Z"/>
            <path class="cls-2" d="M112.16,73.26l-.97,2.91c-.19.42-.36.79-.51,1.12-.16.33-.36.7-.6,1.11-.38.67-.85,1.4-1.39,2.19l-.61,3.61.04.74.44-.02,1.14-1.17.07.21-1.18,1.3-.31.14-.37.1c-.11,0-.25-.04-.39-.16-.15-.12-.23-.33-.24-.62l.02-.41.31-2.1-.62.55c.05-.17.14-.36.28-.57l.39-.49c.27-1.9.71-3.75,1.32-5.58.3-.92.63-1.79,1.01-2.61.37-.83.79-1.62,1.27-2.4l.37-.21.33-.02c.23.14.37.41.39.79.02.29,0,.54-.03.72-.03.21-.06.36-.06.47-.01.12-.04.25-.09.41ZM111.94,71.36c-.14,0-.27.06-.39.15-.05.06-.24.46-.57,1.18-.33.73-.69,1.73-1.09,3.01-.4,1.28-.74,2.69-1.03,4.21.93-1.37,1.67-2.76,2.24-4.17l.86-2.9v-1.48Z"/>
            <path class="cls-2" d="M114.42,83.72l-1.13,1.27-.76,2.88c-.15.53-.37.99-.67,1.4-.3.41-.66.63-1.08.64l-.4-.03c-.18-.16-.28-.37-.29-.61-.02-.23.02-.43.09-.61.08-.18.27-.54.59-1.06l.66-.79.77-.83.25-.46.62-2.87.07-.68-1.21,2.23c-.26.41-.5.69-.74.85-.23.15-.47.25-.71.28l-.28.03c-.29-.2-.45-.52-.47-.98l.03-.54.21-1.22c.03-.18.08-.44.16-.76.07-.33.15-.62.24-.87l.8-.18c-.33,1.1-.54,1.96-.63,2.57l-.11,1.02c.02.2.07.4.14.59.43.02.74-.18.94-.59.39-.58.71-1.12.96-1.63.24-.51.56-1.21.95-2.09l.74-.04-.69,3.7.9-.82.06.21ZM112.28,86.28c-.57.49-1.03,1.02-1.39,1.58-.37.56-.53,1.11-.5,1.67.05.17.17.26.34.27.16-.01.31-.07.47-.2.29-.37.51-.77.67-1.2l.41-2.13Z"/>
          </g>
          <path class="cls-2" d="M79.16,92.14c-.1,0-.18-.06-.22-.16-.04-.12.04-.25.15-.28,1.47-.43,36.01-10.74,38.33-3.53.04.12-.02.24-.14.28-.12.04-.25-.03-.29-.14-2.19-6.8-37.42,3.71-37.76,3.82-.02.01-.05.01-.06.01h0Z"/>
          <path class="cls-2" d="M118.12,89.68c0,.34-.27.61-.61.61s-.61-.28-.61-.61.27-.62.61-.62.61.28.61.62Z"/>
        </g>
        <g>
          <path class="cls-2" d="M79.31,77.44c-1.22,1.96-2.57,4.74-4.06,8.34.57-1.83,1.05-3.71,1.45-5.65.4-1.95.65-3.41.76-4.39.14-.93.21-1.5.21-1.66v-.36c.15-1.06-.76-1.19-.85-1.15-.28.02-.52.14-.72.37-.2.23-.58.81-1.14,1.76-.27.46-.55,1-.83,1.64-.29.65-.59,1.37-.88,2.2l.58.49c.32-.94.63-1.76.93-2.46.35-.83.69-1.56,1.04-2.22,0,0,.72-1.6,1.19-1.46.27.08.19.32.19.43l-.32,1.77-1.07,5.36c-.5,2.37-1.02,4.69-1.56,6.96l.76-.04c.29-.68.62-1.45,1-2.37.49-1.15.84-1.94,1.04-2.38.73-1.59,1.48-3.09,2.28-4.5.34-.6.69-1.16,1.03-1.72-.13,0-.26.01-.39.02-.2.32-.41.65-.64,1.02Z"/>
          <path class="cls-2" d="M84.59,73.88c-.13-.35-.29-.6-.52-.75-.21-.18-.45-.27-.73-.25l-.31.06c-.54.23-.99.55-1.35.96-.18.2-.47.6-.86,1.18.14-.02.29-.04.43-.06.17-.25.34-.52.51-.76.19-.25.43-.48.71-.69.29-.21.55-.32.79-.33l.34.07c.12.05.21.13.26.24l.04.25-.04.72-.26,1.62-.5,2.23c-1.16,3.62-2.01,6.98-2.57,10.1.14.21.24.35.32.4.2.07.36.11.47.11.2-1.23.4-2.33.63-3.31l1.23-5.01c.33-1.27.58-2.27.75-2.99.17-.72.31-1.29.4-1.72.09-.43.16-.76.21-1.01.05-.24.07-.39.07-.45l.02-.34-.03-.25Z"/>
        </g>
      </g>
      <g>
        <path class="cls-2" d="M54.01,24.62c0,2.8,1.08,5.42,3.05,7.38.19.19.39.36.59.53v-15.8c-.2.17-.4.35-.59.53-1.97,1.96-3.05,4.58-3.05,7.36Z"/>
        <path class="cls-2" d="M44.59,13.33c-.07-.13-.27-.19-.44-.19-.13.06-.3.23-.3.39v21.69h-.54c-.2,0-.4.17-.4.4,0,.27.2.43.4.43h1.88c.26,0,.4-.17.4-.43,0-.23-.13-.4-.4-.4h-.54V14.98l10.07,16.11c-.88-1.31-1.48-2.8-1.77-4.41-2.77-4.42-5.52-8.79-8.37-13.34Z"/>
        <path class="cls-2" d="M54.77,31.16l-.04-.07s.03.05.04.07Z"/>
        <g>
          <path class="cls-2" d="M57.12,13.08h.53v2.13c.26-.19.53-.36.8-.52v-1.61h.53c.23,0,.4-.17.4-.4,0-.27-.17-.44-.4-.44h-1.87c-.24,0-.4.17-.4.44,0,.23.16.4.4.4Z"/>
          <path class="cls-2" d="M70.02,16.52c.3,0,.61-.24.61-.64v-1.84c0-.4-.31-.64-.61-.64-.38,0-.64.25-.64.64v.03c-1.47-.74-3.13-1.1-4.94-1.1-2.19,0-4.23.61-5.98,1.66-.28.16-.55.34-.8.52-2.95,2.12-4.89,5.57-4.89,9.47,0,.7.08,1.39.19,2.06.29,1.61.89,3.1,1.77,4.41l.04.07c.96,1.41,2.23,2.6,3.69,3.48,1.75,1.05,3.79,1.67,5.98,1.67,1.7,0,3.35-.38,4.94-1.12v.04c0,.37.25.61.64.61.3,0,.61-.21.61-.61v-1.84c0-.4-.31-.64-.61-.64-.38,0-.64.26-.64.64v.42c-1.56.84-3.26,1.29-4.94,1.29-2.15,0-4.22-.68-5.98-1.93-.28-.19-.55-.4-.8-.62-.2-.17-.4-.34-.59-.53-1.97-1.96-3.05-4.59-3.05-7.38s1.08-5.39,3.05-7.36c.19-.19.39-.36.59-.53v16.02c.26.22.53.43.8.62v-17.26c1.77-1.25,3.84-1.93,5.98-1.93,1.68,0,3.38.45,4.94,1.29v.42c0,.38.26.64.64.64Z"/>
        </g>
      </g>
    </g>
  </g>
</svg>