<?xml version="1.0" encoding="UTF-8"?>
<svg id="Calque_2" data-name="Calque 2" xmlns="http://www.w3.org/2000/svg" viewBox="0 0 91.41 55.11">
  <defs>
    <style>
      .cls-1 {
        fill: #fff;
      }
    </style>
  </defs>
  <g id="Layer_2_copy" data-name="Layer 2 copy">
    <g>
      <path class="cls-1" d="M55.74,28.07c.28-.85.55-1.69.83-2.54.34-1.03.69-2.07,1.03-3.1.3-.92.57-1.85.9-2.75.3-.82.62-1.63,1.18-2.32.41-.51.88-.87,1.52-1.07.92-.29,1.82-.35,2.75-.09,1.06.29,1.64,1.09,2.08,2.01.43.89.72,1.84,1.01,2.78.04.13.08.25.15.36.06.3.16.58.29.85.12.57.34,1.12.52,1.67.95,2.91,1.91,5.81,2.88,8.71.37,1.11.74,2.22,1.11,3.33,0,.02-.01.04-.02.07-1.15,0-2.3.02-3.45.03-.27-.03-.53-.03-.8,0-.73,0-1.46,0-2.19-.02-.12,0-.27.05-.33-.13-.09-.29-.13-.59-.28-.86-.19-.79-.46-1.56-.69-2.34-.05-.16-.14-.2-.29-.2-2.02,0-4.04.01-6.07,0-.2,0-.28.07-.33.26-.28.99-.58,1.98-.87,2.97-.06.21-.15.31-.39.3-.88-.02-1.76,0-2.64,0-.48,0-.47,0-.33-.45.68-2.08,1.35-4.17,2.03-6.26.14-.41.27-.81.41-1.22ZM59.64,25.9c-.12.3-.2.6-.27.91-.01.01-.04.03-.04.04-.27.89-.53,1.77-.81,2.65-.08.26.05.26.23.26,1.42,0,2.85,0,4.27,0,.27,0,.3-.08.23-.32-.39-1.34-.77-2.69-1.15-4.04-.08-.22-.1-.46-.21-.67-.07-.49-.24-.95-.37-1.42-.16-.59-.33-1.17-.49-1.76-.03,0-.06,0-.09-.01-.43,1.45-.87,2.9-1.3,4.35Z"/>
      <path class="cls-1" d="M81.86,36.01c-.97-.04-1.93-.03-2.9,0-.28-.02-.57-.03-.85,0-.92,0-1.84-.02-2.76,0-.28,0-.36-.07-.35-.36.02-.76.02-1.52,0-2.27,0-.24.07-.31.31-.31,1.67.01,3.34.01,5,0,.69,0,1.36-.07,2.04-.26,1.23-.35,1.66-2.21.59-3.08-.71-.57-1.53-.89-2.38-1.14-1.26-.37-2.51-.75-3.7-1.32-2.04-.97-2.88-2.59-2.76-4.8.05-.87.26-1.69.56-2.5.03-.09.1-.17.15-.26l.41-.61c1.31-1.56,3.08-2.17,5.02-2.37,2.24-.23,4.48-.07,6.73-.11.19,0,.24.08.24.25,0,.8,0,1.6,0,2.4,0,.25-.14.25-.31.25-1.32,0-2.65,0-3.97,0-.57,0-1.13.05-1.66.29-.97.44-1.12,1.45-.31,2.14.59.5,1.31.75,2.03.99,1.15.38,2.31.73,3.39,1.29.89.46,1.7,1.02,2.21,1.92.19.33.29.68.43,1.02.07.32.14.64.2.96-.02.16-.02.32.02.48-.02.35-.03.7,0,1.04-.05.18-.04.36-.03.54-.03.04-.05.08-.02.13-.01.06-.02.12-.03.18-.04.04-.05.08-.02.12-.02.1-.03.2-.05.3-.04.03-.06.07-.04.13-.45,1.79-1.49,3.12-3.12,4-.61.33-1.26.52-1.92.7-.04.01-.08.02-.12.03-.08.01-.16.02-.24.03-.05-.02-.09,0-.12.03l-.25.05c-.47.04-.93.08-1.4.11Z"/>
      <path class="cls-1" d="M68.58,47.06c-.38-.51-.66-1.05-.73-1.69,0-.06-.01-.12-.02-.18,0-.8.13-1.57.63-2.23,0-.01,0-.04,0-.06.42-.31.79-.67,1.32-.82,1.74-.48,3.53.4,3.64,2.53.05.97-.17,1.85-.91,2.53-.83.77-2.4.91-3.36.29-.19-.12-.38-.25-.57-.38ZM70.49,47.21c.85,0,1.38-.29,1.71-.87.56-.97.57-1.97-.02-2.93-.71-1.17-2.46-1.12-3.12.08-.46.84-.49,1.73-.11,2.59.32.72.88,1.14,1.52,1.12Z"/>
      <path class="cls-1" d="M78.78,43.68c-.3.42-.58.86-.84,1.31-.18.2-.23.43-.23.7.02.58-.01,1.15.01,1.73.01.28-.09.37-.35.33-.04,0-.08,0-.12,0-.26.04-.36-.06-.35-.33.02-.57,0-1.13.01-1.7,0-.26-.06-.49-.2-.71-.54-.89-1.07-1.78-1.6-2.68-.04-.08-.14-.15-.09-.24.05-.09.16-.03.25-.05.47-.1.73.12.93.54.31.66.68,1.29,1.02,1.93.04.07.05.17.15.17.08,0,.09-.1.12-.16.25-.46.49-.92.73-1.38.08-.12.16-.23.23-.35q.43-.74,1.28-.68c-.32.53-.64,1.06-.95,1.58Z"/>
      <path class="cls-1" d="M64.76,12.84c-.71-.08-1.42-.13-2.13-.11-.4-.04-.8-.1-1.2-.05-.25-.01-.5-.04-.75-.04-1.42,0-2.84,0-4.27.08-1.33.07-2.66.17-3.98.29-1.12.11-2.22.26-3.33.41-.19.03-.29-.02-.38-.19-.27-.5-.54-.99-.83-1.47-.37-.61-.7-1.25-1.11-1.83-.11-.23-.23-.45-.39-.64-.02-.05-.04-.11-.08-.16-.95-1.54-1.94-3.05-2.97-4.53-.04-.06-.13-.11-.08-.2.07-.04.12.01.17.04,1.73.79,3.51,1.41,5.39,1.73.14.02.26.04.35-.09.22-.29.43-.57.6-.89.16-.16.28-.36.37-.56.58-.85.97-1.8,1.32-2.77.04.02.06.02.07.04.05.07.09.14.13.2.77,1.21,1.71,2.28,2.82,3.19.11.09.21.18.37.09,1.02-.56,1.9-1.31,2.65-2.19.79-.93,1.46-1.96,2.01-3.05.08-.15.14-.18.24,0,.63,1.07,1.36,2.08,2.22,2.99.83.87,1.76,1.61,2.83,2.15.11.05.19.08.3,0,1.03-.88,1.96-1.84,2.66-3q.3-.39.48,0c.2.68.52,1.31.85,1.94.29.55.68,1.05,1,1.58.21.35.52.37.8.28.52-.17,1.06-.24,1.58-.39,1.16-.32,2.29-.73,3.37-1.24.04-.02.09-.04.18-.07-.08.27-.25.45-.38.63-1.43,2.06-2.74,4.19-4.04,6.34-.37.62-.7,1.26-1.06,1.89-.11.18-.21.26-.43.22-1.2-.18-2.4-.33-3.61-.44-.56-.05-1.12-.13-1.69-.13-.02,0-.04,0-.06,0ZM47.68,9.72h0s0,0,0,0c.04.01.08.03.12.04v.02s.02,0,.02,0c.47.31.94.62,1.41.92-.11-.58-.27-1.1-.42-1.62-.04-.13-.12-.2-.25-.23-.45-.38-.96-.65-1.45-.97-.02.02-.04.03-.06.05.2.57.41,1.14.61,1.71,0,.02.02.05.03.07ZM59.65,10.98c.37-.94.74-1.87,1.1-2.81.04-.1,0-.19-.04-.29-.18-.47-.35-.95-.53-1.42-.17-.45-.35-.89-.54-1.37-.05.07-.09.09-.1.13-.35.91-.69,1.83-1.05,2.74-.04.11,0,.19.03.29.12.34.26.67.38,1.02.2.58.49,1.13.75,1.71ZM72.24,7.6s-.04-.03-.06-.05c-.31.19-.62.41-.94.58-.52.26-.88.6-.94,1.23-.03.32-.18.63-.3,1.03.59-.38,1.1-.72,1.62-1.05.03-.02.06-.06.07-.09.19-.55.37-1.1.56-1.65ZM54.84,9.76c-.09-.42-.18-.84-.27-1.26-.04-.18-.01-.39-.14-.52-.39-.38-.85-.67-1.3-.98-.06-.04-.14-.04-.2,0-.06.04-.03.11-.02.17.1.41.2.82.3,1.23.03.11.06.21.16.28.48.36.97.7,1.48,1.07ZM64.37,9.82c.55-.42,1.03-.78,1.51-1.15.07-.06.11-.14.14-.23.09-.39.19-.78.28-1.17.02-.09.1-.2-.02-.27-.1-.05-.19,0-.28.06-.36.27-.73.54-1.09.81-.09.07-.14.15-.17.27-.11.53-.23,1.06-.37,1.68Z"/>
      <path class="cls-1" d="M50.56,19.83c-.59,1.31-1.27,2.57-1.9,3.85-1.48,2.99-2.98,5.96-4.48,8.94-.28.57-.28.57.34.57,1,0,2,.03,3-.02.42.03.84.05,1.26,0,.53.04,1.06.04,1.59.01.11.01.22.03.32.03.42.01.83.02,1.25.03,0,.91,0,1.81,0,2.72-.4.01-.81.02-1.21.03-.18,0-.36-.02-.54-.02-4.32,0-8.63.01-12.95.01-.33,0-.76.15-.96-.07-.2-.21-.04-.64-.06-.97,0-.15-.02-.3.06-.45,1.41-2.84,2.82-5.68,4.22-8.52.4-.82.8-1.65,1.19-2.47.24-.44.48-.88.67-1.34.46-.81.8-1.68,1.27-2.48.06-.1.09-.26-.14-.25-.41.02-.82.02-1.23.03-.24-.02-.49-.03-.73,0-.14,0-.28-.02-.42-.02-1.57,0-3.13,0-4.7.01-.27,0-.35-.08-.34-.34.02-.64,0-1.27,0-1.91q0-.61.61-.61c1.64,0,3.28,0,4.91-.01.22,0,.45,0,.67,0,.21,0,.42.02.64.02,1.59,0,3.17,0,4.76,0,.51,0,1.01.02,1.51.11.69.12,1.32.36,1.54,1.13.1.32.09.66.08.99-.07.33-.14.65-.2.98Z"/>
      <path class="cls-1" d="M88.53,42.02c.23,0,.27.13.27.33,0,1.42,0,2.84,0,4.26q0,.52.52.47c.55.01,1.11.04,1.66.03.3,0,.44.07.4.39,0,.04.02.08.03.12-.03.04-.05.08-.08.12-.67.01-1.33.02-2,.03-.28,0-.57,0-.85,0q-.5-.03-.5-.55c0-1.52,0-3.05,0-4.57q0-.57.56-.62Z"/>
      <path class="cls-1" d="M10.57,55.09c-.45.06-.89-.04-1.34-.02-.22-.03-.44-.07-.66-.1-1.67-.25-3.21-.83-4.61-1.77-1.56-1.05-2.71-2.44-3.39-4.2-.08-.24-.17-.48-.25-.72-.12-.58-.28-1.16-.31-1.76-.04-.81,0-1.62.19-2.41.44-1.93,1.35-3.6,2.93-4.82,2.05-1.58,4.35-1.95,6.82-1.23,1.49.44,2.72,1.3,3.63,2.58.12.2.24.4.37.6.05.12.09.24.14.36,1.4,3.33-.63,7.03-3.51,7.57-1.02.19-1.98.16-2.93-.19-1.2-.44-2.07-1.27-2.55-2.47-.06-.26-.12-.53-.18-.79,0-.28-.03-.56,0-.84.18-1.33.78-2.38,2.03-2.94,1.24-.55,2.41-.33,3.47.51.16.19.32.38.48.57.21.44.34.9.33,1.4-.03,1.12-.78,2.04-1.88,2.24-.99.18-1.81-.35-2.24-1.42,0-.22,0-.44,0-.66.2-.53.5-.96,1.08-1.13.04-.01.08-.02.12-.03.14,0,.29,0,.43,0l.12.02c.06.01.12.03.18.04l.48.33c.06.1.12.2.17.31.17.35.1.83-.17,1.13-.25.28-.65.36-1,.22-.41-.16-.5-.49-.46-.88.05-.08.09-.16.15-.23.2-.23.55-.26.78-.07.21.17.22.42.02.65-.02-.03-.05-.06-.07-.09.12-.21.08-.38-.13-.48-.21-.09-.37.01-.48.2-.16.26.03.62.37.68.31.06.58-.09.71-.38.13-.3.04-.67-.23-.86-.63-.46-1.45-.09-1.55.7-.22.79.7,1.64,1.73,1.36,1.14-.3,1.59-1.73.88-2.7-.15-.23-.33-.43-.58-.55-.06-.04-.11-.09-.17-.12-1.53-.84-3.48.26-3.65,2.06-.04.06-.04.12-.03.18,0,.08,0,.16,0,.23-.04.21.02.41.08.61,0,.2.06.37.14.54.64,1.32,1.73,1.95,3.15,2.03,1.52.08,2.72-.54,3.55-1.8.99-1.52,1.12-3.12.32-4.78-.1-.25-.23-.48-.4-.68-.05-.07-.09-.14-.14-.2-.99-1.2-2.28-1.87-3.8-2.12-1.89-.3-3.64.12-5.07,1.36-2.34,2.02-3.14,4.61-2.52,7.64.05.27.12.54.23.79.07.22.12.45.22.65.85,1.77,2.12,3.14,3.87,4.05,1.33.69,2.72,1.18,4.23,1.25.25.05.49.05.74,0,.08-.01.16-.02.24-.03.62-.02,1.23-.08,1.81-.3.1-.02.2-.03.29-.06,1.06-.29,2.05-.77,2.99-1.33,1.02-.61,1.98-1.3,2.81-2.16.48-.44.89-.95,1.28-1.47.14-.17.29-.33.42-.51,1.58-2.1,2.9-4.36,4.36-6.53.5-.74.97-1.5,1.45-2.26,1.15-1.83,2.33-3.64,3.5-5.46.43-.67.6-1.41.47-2.2-.09-.52-.34-.97-.56-1.43-.46-.98-.88-1.97-1.28-2.98-.14-.35-.32-.65-.73-.73-.04-.04-.08-.05-.13-.03-.36-.06-.72-.04-1.09,0-.1,0-.2,0-.3,0-1.96,0-3.91,0-5.87,0-.51,0-1.03-.05-1.54.04-.81.02-1.14.27-1.38,1.03-.04.13-.11.26-.17.39-.43.96-.86,1.92-1.13,2.93-.37,1.41.22,2.38,1.63,2.72.43.1.86.09,1.29.13.3.03.56.09.69.4.14.33.06.46-.3.46-2.94,0-5.88,0-8.83,0-.1,0-.22.01-.3-.03-.11-.06-.3-.16-.16-.31.25-.27.5-.56.88-.67,1.14-.34,1.96-1.05,2.5-2.1,1.27-2.51,2.52-5.04,3.68-7.61.76-1.69,1.56-3.37,2.33-5.06.55-1.19,1.11-2.37,1.61-3.58.23-.47.46-.95.69-1.42.05-.1.1-.2.08-.31.42-.63.66-1.35.99-2.03.94-1.98,1.77-4.01,2.78-5.95.14-.27.15-.27.32,0,.61.96.99,2.03,1.46,3.06,1.27,2.8,2.52,5.61,3.78,8.42.26.55.48,1.11.78,1.64.03.09.05.17.09.26.91,2.01,1.8,4.03,2.73,6.03.35.75.33,1.41-.13,2.11-.59.89-1.14,1.81-1.7,2.72-.32.52-.67,1.03-.95,1.57-.3.42-.58.86-.83,1.31-.47.74-.93,1.49-1.4,2.22-1.19,1.86-2.3,3.77-3.52,5.61-.63.94-1.16,1.94-1.74,2.91-.75,1.25-1.51,2.5-2.35,3.7-.34.48-.68.96-1.02,1.44-.56.63-1.11,1.27-1.72,1.87-1.6,1.58-3.38,2.91-5.57,3.57-1,.3-2.02.46-3.06.54ZM18.44,25.35c.03.18.17.1.26.1.93,0,1.86,0,2.79,0,1.77,0,3.53,0,5.3,0,.08,0,.22.07.21-.11,0-.04,0-.08-.02-.12-.36-.81-.73-1.62-1.09-2.43,0-.07-.03-.12-.08-.16-.07-.17-.15-.34-.22-.5,0-.07-.03-.12-.08-.17-.04-.09-.07-.17-.11-.26,0-.07-.03-.12-.08-.16-.07-.24-.17-.47-.3-.69,0-.06-.01-.11-.07-.15-.02-.18-.12-.32-.19-.47-.62-1.4-1.24-2.8-1.86-4.21-.03-.07-.04-.17-.13-.18-.09,0-.09.1-.12.15-.4.89-.8,1.79-1.19,2.68-.26.56-.52,1.12-.78,1.68-.22.47-.44.95-.65,1.42-.53,1.19-1.06,2.37-1.59,3.56Z"/>
      <path class="cls-1" d="M85.22,47.73c-.26.09-.38-.09-.47-.35-.12-.38-.28-.76-.41-1.14-.07-.2-.16-.3-.39-.29-.54.02-1.07.02-1.61.01-.19,0-.3.07-.36.25-.14.42-.31.83-.44,1.26-.07.24-.19.29-.41.29-.55,0-.55,0-.36-.51.61-1.65,1.22-3.31,1.82-4.97.06-.17.13-.23.31-.23.72,0,.73,0,.97.66.56,1.53,1.12,3.07,1.68,4.61.15.42.15.42-.35.42ZM83.18,45.36h0c.21,0,.42,0,.64,0,.2,0,.24-.05.17-.25-.25-.69-.55-1.37-.73-2.08-.01-.06-.03-.13-.11-.13-.08,0-.07.09-.08.14-.19.65-.43,1.28-.66,1.91q-.14.39.29.39c.16,0,.32,0,.48,0Z"/>
      <path class="cls-1" d="M61.95,44.91c0-.84,0-1.68,0-2.52,0-.2.05-.3.26-.32.77-.07,1.53-.13,2.29.04.68.15,1.12.6,1.21,1.2.1.65-.18,1.21-.82,1.55-.2.11-.25.16-.02.3.42.26.52.72.65,1.16.11.39.2.78.32,1.17.06.19.02.24-.16.23-.09,0-.18-.01-.27,0-.24.04-.35-.08-.41-.3-.1-.38-.2-.76-.31-1.14-.24-.86-.92-1.24-1.78-1-.17.05-.15.17-.15.29,0,.62-.02,1.23,0,1.85.01.36-.21.31-.43.33-.25.01-.41-.02-.39-.33.02-.42,0-.85,0-1.27,0-.41,0-.83,0-1.24ZM62.77,43.66c0,.27,0,.55,0,.82,0,.12.03.22.18.23.39,0,.79.04,1.17-.07.49-.13.83-.55.82-1,0-.48-.28-.82-.81-.97-.39-.11-.78-.08-1.17-.04-.16.01-.2.11-.2.25,0,.26,0,.52,0,.79Z"/>
      <path class="cls-1" d="M38.42,42.05c.33-.1.47.1.59.43.59,1.65,1.19,3.3,1.8,4.95.08.22.07.3-.19.3-.53,0-.53.01-.72-.49-.13-.35-.26-.7-.39-1.05-.06-.16-.15-.24-.33-.24-.56.01-1.11.02-1.67.01-.18,0-.27.07-.33.24-.13.41-.32.81-.43,1.23-.08.28-.22.33-.48.33-.49-.02-.5,0-.33-.46.41-1.1.84-2.19,1.22-3.3.17-.5.36-.99.54-1.49.18-.5.06-.46.71-.45ZM38.3,42.81c-.16.84-.54,1.54-.77,2.3-.06.2,0,.25.19.25.42,0,.85,0,1.27,0,.24,0,.24-.09.17-.28-.21-.56-.41-1.13-.62-1.7-.07-.18-.05-.38-.24-.58Z"/>
      <path class="cls-1" d="M43.14,43.55c0-.26,0-.52,0-.78,0-.02,0-.04.01-.06.03-.66.03-.66.71-.68.61-.02,1.23-.06,1.83.1,1.05.29,1.54,1.36,1.06,2.34-.04.08-.08.16-.12.24-.23.26-.52.44-.81.6-.18.05-.36.1-.55.15-.05-.02-.09,0-.12.03-.29,0-.59.03-.87.01-.26-.02-.31.09-.3.31.01.53,0,1.07,0,1.6,0,.25-.08.36-.33.33-.07,0-.14,0-.21,0-.22.02-.29-.08-.29-.3,0-1.13,0-2.26,0-3.39,0-.17-.01-.34-.02-.51ZM45.89,44.4c.44-.54.3-1.37-.3-1.61-.28-.11-.59-.17-.9-.16-.77.01-.77,0-.68.79-.01.23-.02.46-.03.69-.02.82-.02.81.82.79.45-.01.82-.14,1.09-.51Z"/>
      <path class="cls-1" d="M32.24,45.2c0-.75,0-1.5,0-2.24,0-.22-.07-.28-.28-.27-.43.01-.87,0-1.3.01-.28.01-.28-.15-.27-.35,0-.18,0-.32.26-.32,1.31.02,2.63.03,3.94.03.25,0,.31.1.31.32,0,.23-.08.3-.3.3-.4-.01-.81.01-1.21,0-.26,0-.33.09-.32.33,0,1.46,0,2.91,0,4.37,0,.12.06.3-.11.34-.21.05-.44.07-.65-.02-.1-.04-.05-.16-.05-.25,0-.75,0-1.5,0-2.24Z"/>
      <path class="cls-1" d="M49.3,46.27c0-1.22.01-2.44.02-3.67,0-.09,0-.18,0-.27-.02-.22.06-.33.29-.29.07,0,.14,0,.21,0,.1.01.21.03.31.04,0,1.41,0,2.83,0,4.24,0,.19.01.38.02.57-.01.28-.02.57-.03.85-.15,0-.3,0-.45.01-.25.04-.38-.05-.37-.32.03-.39.02-.77,0-1.16Z"/>
      <path class="cls-1" d="M54.17,47.81c-.53,0-.97-.07-1.4-.24-.38-.15-.11-.38-.07-.58.05-.24.21-.12.32-.06.45.23.94.28,1.44.24.48-.04.89-.35.97-.74.1-.45-.09-.84-.58-1.08-.32-.16-.67-.27-1.01-.41-.38-.16-.72-.36-.96-.71-.43-.64-.18-1.56.49-1.94.77-.44,1.56-.4,2.37-.17.17.05.31.11.19.33-.09.16-.05.41-.39.28-.49-.19-1-.25-1.51-.04-.62.26-.72.97-.19,1.38.28.22.62.33.95.46.21.09.43.18.63.29.58.31.88.8.82,1.47-.06.7-.49,1.13-1.13,1.36-.33.12-.67.15-.94.15Z"/>
      <path class="cls-1" d="M8.65,44.75c0,.08.1.18-.03.2-.1.01-.14-.1-.14-.19,0-.08,0-.21.1-.21.19,0,0,.16.07.21Z"/>
      <path class="cls-1" d="M9.03,44.94c-.1.12-.22.12-.4.04.13-.09.23-.12.33-.13.02.03.05.06.07.09Z"/>
    </g>
  </g>
</svg>