<?xml version="1.0" encoding="UTF-8"?>
<svg id="Calque_2" data-name="Calque 2" xmlns="http://www.w3.org/2000/svg" viewBox="0 0 107.71 53.39">
  <defs>
    <style>
      .cls-1 {
        fill: #fff;
      }
    </style>
  </defs>
  <g id="Layer_2_copy" data-name="Layer 2 copy">
    <g>
      <g>
        <path class="cls-1" d="M14.79,40.32s.07-.01.06-.08c-.03,0-.06.05-.06.08Z"/>
        <path class="cls-1" d="M24.6,42.98h.03s0,0-.03,0Z"/>
        <path class="cls-1" d="M28.27,23.64c.05-.33-.07-.6-.22-.87,0-.15-.04-.25-.1-.35-.03-.18-.1-.35-.09-.53-.02-.11-.06-.17-.12-.27-.03,0-.04-.03-.04-.03,0-.03.03-.04.02-.08-.05-.1-.13-.16-.18-.23-.09-.1-.17-.16-.28-.21-.11-.02-.19-.08-.3-.1-.3-.1-.59-.16-.83-.31-.08-.06-.19-.08-.3-.1-.23-.11-.46-.22-.68-.3-.3-.1-.58-.09-.86-.09-.07.01-.17.03-.25-.03-.02.08.02.14-.04.15-.06.05-.12.09-.18.17-.03.04-.13.06-.19.1-.06.05-.13.09-.15.17-.06.08-.11.16-.18.21-.28.22-.47.5-.64.78-.17.24-.31.44-.45.65-.03.04-.09.09-.12.13-.11.2-.25.4-.39.6-.22.36-.4.75-.66,1.07-.14.2-.24.43-.38.64-.05.12-.07.19-.09.27-.35.59-.67,1.18-.99,1.81,0,0,0,.04.01.07-.18.17-.25.4-.35.59-.11.2-.18.39-.29.58-.05.12-.11.2-.16.31-.08.12-.13.27-.18.39-.03.04-.06.08-.08.12-.16.28-.25.58-.42.82-.08.16-.12.31-.21.43-.04.15-.16.28-.21.43-.1.23-.2.46-.34.7-.16.31-.32.59-.48.9-.03.04-.04.15-.11.2-.17.21-.27.47-.4.71-.08.16-.16.31-.19.5-.1.23-.32.41-.42.64-.03,0-.03.04-.03.04-.07.01-.09.09-.12.13-.08.16-.12.31-.21.43-.13.24-.23.5-.44.72,0,.03.01.07-.02.08-.03,0-.06.04-.13.06-.04.15-.17.24-.29.33-.12-.05-.07-.21-.16-.3-.1.05-.15.13-.22.18-.06.05-.08.12-.15.13-.19.14-.31.26-.41.46,0,.03-.02.08-.05.12-.07-.02-.14.02-.21,0-.1-.17-.2-.33-.24-.54-.04-.21-.07-.42-.11-.63-.04-.21-.04-.43-.11-.63-.1-.38-.16-.73-.22-1.09-.05-.28-.1-.56-.15-.85-.03-.18-.06-.35-.09-.53.01-.33,0-.65-.1-1-.01-.07-.03-.18-.01-.29-.04-.21-.03-.39-.07-.6-.01-.07-.02-.14-.04-.21,0-.15.03-.26,0-.4-.03-.18-.02-.32-.02-.5,0-.15-.01-.29-.04-.43-.02-.11-.04-.21-.03-.36.02-.08.05-.12.04-.19,0-.18,0-.36.05-.55.02-.08,0-.15,0-.22-.04-.25-.05-.46.02-.69.02-.11.03-.26,0-.36-.02-.14-.01-.29,0-.43-.01-.07,0-.15,0-.22-.05-.1-.04-.21-.02-.32.02-.11,0-.25.04-.37.08-.12,0-.25-.03-.39-.03-.18-.06-.32-.02-.5v-.04c-.03-.14-.05-.25-.11-.38-.06-.14-.18-.23-.32-.24-.18,0-.33-.06-.48-.14-.11-.02-.18-.04-.25-.03-.28,0-.57-.06-.81-.2-.3-.14-.59-.16-.91-.19t-.04-.03c-.14.02-.28,0-.42,0-.22-.08-.44-.12-.65-.12t-.07-.03c-.18,0-.38.02-.59.05-.23.07-.47.11-.72.11-.21.03-.37.09-.54.12-.03.04-.02.11-.04.19-.03.04-.06.08-.08.12-.11.2-.17.42-.27.66-.05.12-.13.24-.18.39-.02.08-.04.19-.09.3-.08.12-.16.28-.21.39-.02.11-.07.23-.12.34-.05.12-.13.24-.12.34-.07.19-.23.32-.15.53-.17.24-.22.54-.32.81,0,.04.05.1.06.14-.03.04-.02.08-.06.08-.11.16-.18.35-.26.54-.03.04-.06.08-.05.12.07.21,0,.36-.09.52-.03.04-.02.08-.02.08.02.11-.07.19-.09.27-.11.2-.22.36-.14.6,0,0,0,.04.01.07-.03,0-.06.05-.06.08-.04.19-.11.38-.15.56-.11.2-.1.41-.21.61,0,.04-.03.04-.02.08-.04.15-.05.3-.13.45-.02.08-.04.15,0,.22-.03.04-.06.08-.08.12-.04.19-.11.38-.15.56-.02.11-.03.22-.08.34-.04.19-.11.38-.18.57-.06.26-.13.49-.19.75-.04.15-.09.27-.14.42,0,.04-.02.08-.02.11,0,.22-.08.37-.11.56-.04.15-.13.27-.1.41-.05.3-.19.53-.21.83-.05.12-.1.23-.08.37-.05.12-.07.19-.12.31-.07.19-.1.41-.14.6-.09.27-.08.55-.17.82-.08.16-.08.34-.12.52-.03.04-.02.08-.02.08.02.11,0,.15-.07.23.01.07.02.14-.03.22-.07.19-.1.41-.18.6-.04.15-.05.33-.09.52-.05.12-.03.26-.08.37-.06.08-.03.22-.05.33-.08.16-.04.37-.16.49.02.14-.03.26-.04.37-.04.19-.04.4-.11.56.02.14-.05.3-.06.44-.04.19-.08.37-.11.56-.05.12-.03.26-.1.41-.02.08-.04.19-.02.29-.03.04-.06.08-.08.12.07.17.03.36-.05.51-.04.15-.05.3-.06.44,0,.15-.03.26-.07.41-.05.12-.1.23-.11.38,0,.22,0,.43-.07.59-.02.11.05.1.07.17-.02.11.04.21.02.32-.05.12,0,.18.08.24.09.1.11.2.12.31,0,.03.02.11.03.18.07.03.18,0,.25.03.36.06.67.23,1.03.28.03,0,.07.03.11.06.22.08.43.23.59.35.05.06.11.05.18.04.03,0,.06-.05.09-.09.02-.08,0-.15,0-.22.03-.04.06-.08.05-.12,0-.04-.01-.07.02-.11,0,.04.05.1.09.1.09-.09,0-.25.12-.31.02.11,0,.22.02.32-.02.11-.07.23.02.32.21,0,.41-.06.62-.06-.01-.07.02-.11,0-.15.02-.08.02-.11.08-.12,0-.04-.05-.07-.02-.11.04.03.05.07.02.11.01.07-.04.15,0,.25.17-.03.3-.12.88-.6,0-.22.11-.38.14-.6.07-.19.14-.38.22-.57.03-.04-.01-.07.02-.11.05-.12.1-.23.15-.35q.05-.12.16-.1c.08-.16.08-.12.07-.23.15-.17.18-.35.14-.6.13-.06.11-.16.13-.27.02-.08,0-.18.05-.3.14-.2.24-.43.27-.66,0-.04.03-.04.02-.08.08-.12.13-.24.14-.38,0-.03-.01-.07.02-.11.15-.17.18-.39.25-.58.07-.19.18-.39.25-.58.08-.16.12-.31.09-.48.08-.12.13-.24.19-.32.06-.08.05-.12.07-.19.03-.04.02-.11,0-.15.08-.34.24-.61.33-.95.02-.08.05-.12.04-.19.02-.08.04-.15.1-.23-.02-.14.06-.26.11-.38-.01-.07-.02-.14,0-.18.06-.08.04-.15.06-.26.03,0,.03-.04.06-.08.08-.16.12-.31.16-.49.03-.04.05-.12.04-.19-.02-.14,0-.25.08-.37.03-.04.06-.08.04-.15.04-.15.09-.3.13-.49.02-.11.06-.26.04-.37.02-.11.07-.19.09-.27.02-.11.06-.26.11-.38.02-.11.07-.19.09-.3,0-.18.05-.33.13-.49,0-.04.02-.11,0-.15.02-.08.05-.12.08-.16.04.03.05.1.06.14.05.1.07.21.12.31.01.07.06.14.07.21.06.14.09.31.22.47.02.14.12.27.21.4.11.2.24.36.31.57.13.34.3.71.5,1.05.05.07.1.17.19.26.09.13.16.3.32.42.03.18.12.31.22.47.04.03.09.1.12.09.26.1.49.22.76.32.07.03.15.05.23.11.17.16.37.31.54.46.11.06.2.15.35.17.08.06.19.08.27.14.21-.03.39.01.54-.12.32.02.64.05.88-.17,0-.03-.01-.07-.05-.1-.07-.03-.09.09-.16.1-.03,0-.04-.03-.08-.06.08-.16.2-.25.25-.4.04.03.01.07.05.1.13-.06.23-.11.36-.13.03,0,0-.04.02-.08.12.09.26.07.35-.02.1-.05.19-.1.29-.15.1-.02.15.05.2.12.07-.01.14-.02.17-.03.06-.05.08-.12.11-.16.06-.05.1-.02.14.01t-.03.04s.02.11.03.18c.07.02.17-.06.23-.07.06-.05.08-.12.15-.17.08.06.11.02.17-.06h.03s.02.1.09.13c.04.03.06-.05.13-.06.14-.02.28,0,.36-.16-.09-.1-.15-.05-.25-.03.13-.06.22-.14.35-.23.12-.09.2-.25.24-.43.14-.02.14-.2.2-.28.1-.05.2-.07.28,0,.05-.12.41-.68.47-.76,0-.04-.02-.11,0-.15.16-.1.39-.6.42-.82.06-.05.09-.09.11-.16.08-.12.09-.27.18-.39.03-.04.02-.08-.02-.11-.03.04-.1.05-.13.09-.09.27-.23.5-.43.79-.02.08-.08.16-.13.27-.06.08-.12.13-.19.1-.02.08-.04.15-.11.2-.15.13-.19.32-.26.51-.08.12-.16.28-.29.37-.03.04-.06.05-.1.02.08-.12.1-.23.12-.34.3-.3.45-.65.68-.97.03-.04.07-.01.1-.05-.01-.07.08-.12.11-.16,0-.18.23-.29.16-.49.03-.04.06-.08.08-.12.03,0,.01.07.04.03.03-.04.02-.08.02-.11h-.03s.07,0,.1-.05c.02-.08.08-.16.09-.27.03,0,.04.03.07.03.06-.08.04-.15.06-.26,0-.15.13-.24.18-.39-.03,0-.04-.03-.04-.03l.04.03s.06-.05.06-.08c.04-.15.12-.31.24-.43,0-.04.02-.08,0-.15.09-.09.18-.21.16-.31.11-.2.18-.39.29-.58,0,0,.03,0,.06-.05.03-.04.02-.08.02-.11.03-.04.06-.05.09-.09-.01-.07-.02-.14-.03-.18.07-.23.25-.36.24-.61.1-.02.12-.13.22-.18-.01-.07-.02-.11-.02-.14.09-.09.14-.2.16-.31.03,0,.04.03.08.06.08-.12.09-.3.21-.43,0-.15-.02-.32.06-.48.1-.02.08-.12.14-.2.06-.05.08-.12.14-.2.07-.19.18-.39.26-.54.05-.12.13-.24.18-.39.04-.15.16-.31.23-.47.06-.05.12-.13.11-.2.05.1-.04.19-.02.29.02.11-.03.22.06.35-.06.08-.15.17-.16.28.05.07.05.1.06.14-.06.08-.08.16-.07.23,0,.36-.1.66-.15.96-.05.3-.11.59-.19.93,0,.04-.02.11,0,.18-.04.19-.11.38-.14.6-.03.22-.09.48-.16.71-.01.15-.02.29-.07.41-.04.15-.01.33-.09.48,0,.04.05.07.02.11-.07.19-.1.41-.1.66-.07.01-.06.08-.08.16,0,.18-.04.37-.09.52-.02.11,0,.18-.02.29-.08.12-.09.3-.13.45-.04.19-.04.4-.11.59-.07.19-.07.41-.1.63-.07.23-.13.49-.12.74t-.02.08c-.05.12-.07.23-.05.33,0,.04.05.07.06.14q-.08.16-.09.27s-.06.05-.06.08c.02.14-.13.27-.03.44-.11.2-.13.24-.11.38h.03s0-.04.03-.04t-.03.04c.01.07.02.14,0,.18-.02.08-.1.05-.12.13.01.07.08.06.09.1.01.07-.02.11-.04.19-.03,0-.04-.03-.07-.03.01.07-.05.12,0,.15,0,.04.03,0,.07.03.02.14-.06.26-.04.4-.06.08-.12.13-.07.23-.03.04-.06.08-.08.12.05.07,0,.15.04.25.01.07-.02.11-.04.15-.06.08-.05.12-.07.19,0,.15-.05.3-.03.44,0,.15-.05.3-.06.44-.07.23-.17.46-.15.75,0,0,0,.03-.02.08,0,.03-.02.11,0,.15.01.07-.02.11,0,.15-.06.08-.04.19-.03.26-.02.08,0,.15-.03.22,0,.04-.02.11,0,.18,0,.25-.02.51-.08.77,0,.22.04.43-.03.62,0,.03.01.07.01.07.02.11.04.21-.02.29t.01.07c.01.29-.04.58-.06.84,0,.15-.06.26.03.36-.03.04-.06.08-.05.12.02.11.04.21.01.29,0,.25.05.46.05.71-.02.11-.03.22.01.29.07.17.05.28,0,.43,0,.04.04.03.08.06-.02.08,0,.15,0,.25.03-.04.02-.08.06-.08.04.03.08.06.06.14.01.07-.05.12-.04.15.04.03.07-.01.1-.02.01.07.1.17.11.24.03.18.13.34.16.52.02.11.04.25.1.35.05.1.04.21.09.31-.08-.06-.05-.1-.06-.14-.03,0-.04-.03-.08-.06-.05.12-.04.19.11.45v-.03s.02-.04.06-.05c0,.15.13.16.15.27.02-.11-.04-.25-.06-.35-.05-.1-.04-.25-.1-.35.07-.01.14-.02.16-.1s.08-.12.14-.2c.08.06.11.02.17-.03.04.03.14.01.2.12.01.07.02.14.04.21.03,0,.04.03.04.03t.07-.01.16.09q-.15-.23-.09-.31c.05.07.06.14.07.21.05.07.08.06.12.09.03,0,.03-.04.06-.05.04.03.05.07.09.1.04.03.07-.01.1-.02.05.07.14-.02.21,0,.03-.04-.06-.14.04-.15.01.07.09.13.11.2.09.13.18.23.2.33.07.21.17.37.3.5.07.02.15.05.22.07.01.07.05.1.1.17.03,0,.07-.01.1-.05.06-.08,0-.15,0-.22-.01-.07-.02-.14,0-.25-.03,0-.07-.03-.12-.06-.01-.07-.02-.11-.03-.18.07-.19,0-.43.1-.63,0,0,0,.04.04.03,0,.04.04.03.05.07-.02.11.02.14.13.16-.05-.06-.06-.14-.03-.18.02-.08.02-.11,0-.18-.02-.14-.01-.29-.05-.46-.02-.14.05-.3-.04-.43v-.04s.03.03.06-.01c.02-.08-.03-.18-.01-.29v-.04s-.04,0-.05-.03c.05-.12.03-.22-.08-.28.03-.04.02-.08.06-.08-.05-.1-.11-.2-.1-.35-.07.01-.08-.06-.09-.13t-.07-.03s-.02-.11,0-.18c.05.07.02.14.07.21.07-.01.06-.08.08-.12-.02-.11-.03-.18-.04-.25.03-.04.1-.05.09-.09.02-.08-.02-.14,0-.22.03,0,.07.02.1-.02-.02-.11-.12-.09-.2-.15.05.1,0,.15-.07.23.03,0,.04.03.05.07,0,.04.04.03.04.03t-.04-.03s-.03,0-.06.05c-.04-.03.02-.08.02-.11,0-.03-.04-.03-.04-.03.02-.08.04-.15.07-.23-.03,0-.04-.03-.04-.03.1-.05.19-.14.2-.25.1-.02-.02.08.06.14.03,0,.09-.09.17-.03-.02.08-.11-.02-.13.06.04.03.05.1.1.17.03-.04.02-.08.02-.11.11-.2.18-.39.17-.64-.02-.11.03-.26.08-.37.08-.16.12-.31.13-.49-.02-.14.02-.29.04-.4.09-.27.11-.56.21-.79.03,0,.03-.04.02-.08.02-.11.07-.19.09-.27.11-.2.14-.38.18-.57.03-.22.1-.45.13-.67.02-.11.07-.23.08-.34.06-.26.09-.52.18-.79.03,0,.02-.08.05-.12-.02-.11.04-.19.09-.3,0,0,.03-.04-.01-.07v-.03s.06-.05.08-.09c0-.04-.01-.07-.02-.14-.03,0-.07-.03-.08-.06,0,0,0-.04.03-.04.04.03.05.07.05.1.02-.11.06-.26.07-.41-.01-.29.07-.59.06-.88.03-.04.02-.08.05-.12.04-.19.08-.37.04-.55,0-.15.01-.33.06-.48.03-.04.05-.12.07-.19,0-.18.01-.33.02-.51-.01-.07-.02-.14,0-.18.07-.23.1-.41.17-.64.06-.26.08-.55.17-.82v-.04c0-.11.07-.19.12-.31.13-.24.15-.53.15-.78-.01-.07-.05-.07-.05-.1.03-.04.06-.08.09-.09-.02-.14.03-.22.08-.34.05-.12.1-.23.01-.33.08-.16.09-.3.09-.48.02-.11.03-.26.04-.37.03,0,.03-.04.02-.08-.04-.03-.07.01-.07.01.02-.08.06-.05.12-.09,0-.22.13-.45.01-.73.03,0,.07-.01.07-.01.04-.15.13-.27.14-.42-.02-.11,0-.18.06-.26.08-.16.12-.34.15-.53.03-.04.02-.11-.02-.14.13-.24.24-.61.23-.72,0,0-.03.04-.03,0,0-.04.07-.01.09-.09.03-.04.05-.12.07-.19t-.07-.03c.06-.08,0-.15.04-.19.02-.08.09-.09.08-.16.09-.09.14-.2.18-.35-.03,0-.04-.03-.04-.03.03,0,.04.03.04.03.03-.04.04-.15.04-.19-.02-.14,0-.22.05-.33-.01-.07.02-.11.04-.19-.07.01-.1.05-.16.1,0,0,0-.04-.05-.07.1-.05.16-.1.26-.11.05-.12.02-.29.08-.37.02-.08-.05-.1,0-.15,0,0,0,.03.04.03.06-.08.15-.13.17-.24.02-.08,0-.18.03-.26.06-.05.08-.12.07-.19.06-.26.09-.52.18-.79.02-.08-.02-.14.03-.22.02-.08.04-.19.05-.3.02-.08,0-.18.06-.26.03-.04.05-.12.04-.19.02-.11.04-.19.06-.26-.01-.07,0-.15,0-.22,0-.15.09-.3.06-.44,0-.15.02-.29.1-.41-.01-.07-.02-.14,0-.22.04-.19,0-.36.05-.51.03-.04.02-.11,0-.15,0-.04-.02-.11,0-.15.03-.26.09-.48.05-.73.02-.11.04-.19-.01-.29.03-.04.06-.08.05-.12-.02-.11.03-.22-.02-.32ZM4.49,47.64s-.03,0-.07-.02c.03,0,.03-.04.06-.05.04.03.01.07.01.07ZM15.33,39.62q-.02-.11.12-.13s-.05.12-.12.13ZM16.68,39.71s-.01-.07.06-.08c0,.04-.03.04-.06.08ZM18.55,37.12v.04s0-.04,0-.04ZM18.95,36.37s.03,0,.07-.01t-.07.01ZM19,36.22h.03s-.03.04-.03,0ZM19.25,35.68v-.04s.03,0,.03,0l-.03.04ZM19.7,50s0-.03.06-.05c-.03.04-.06.05-.06.05ZM20.61,51.78s-.04-.03-.05-.07h.03s.04.03.01.07ZM22.35,49.86v.03s-.03-.03,0-.03c0-.04.03-.04.03,0,0,.03-.03,0-.03,0ZM22.96,51.32s0-.04-.01-.07c.04.03,0,.04.01.07ZM22.75,49.91s.05.07.02.11c-.04-.03-.05-.07-.02-.11ZM22.76,48.35s-.05-.07-.02-.11c0,.04.05.07.02.11ZM22.93,47.93s0,.04-.03.04c0,0,0-.04.03-.04ZM22.93,48.54v-.04s.03,0,.03,0t-.03.04ZM23.17,48.29v.04s0,0-.03-.03h.03ZM23.05,48.41s0,.04-.03.04t.03-.04ZM23.15,48.58h-.03s-.03.05-.03.05c-.03,0-.04-.03-.08-.06.03-.04.06-.05.1-.05t.05.07h.03s-.03,0-.03,0ZM23.21,48.5s-.08-.06-.02-.11c.04.03.05.07.02.11ZM23.19,48.21s.03,0,.07-.01c-.03,0-.06.05-.07.01ZM23.43,47.56v-.03s-.09-.06-.1-.13c.07.02.09.1.09.1,0,.04.04.03.01.07ZM23.64,44.75h.03s-.03.03-.03,0ZM23.86,44.35s-.07-.03-.08-.06c.03-.04.1-.05.14.01-.03,0-.07.01-.06.05.07-.01.07.02.12.09-.07-.02-.14-.01-.12-.09ZM23.97,43.18s0-.04-.01-.07h-.03s.03-.04.03-.04c.04.03.05.07.02.11ZM24.03,44.33s-.03,0-.04-.03c.03,0,.07-.01.07.03t-.03,0ZM26.84,30.97s0-.03.03-.04c0,0,0,.03-.03.04ZM27.58,27.97s-.03,0,0-.03c0,.03.04.03,0,.03ZM27.65,27.78s0-.04.03-.04t-.03.04ZM27.8,27.61s-.04-.03,0-.04t0,.04ZM27.88,26.84s-.03,0-.04-.03c.03,0,.07-.01.04.03ZM28.01,25.99s.04.03.04.03t-.04-.03Z"/>
        <path class="cls-1" d="M46.26,28.34c.04-.13.01-.25,0-.3l-.02-.06c-.06-.18-.09-.33-.09-.48v-.04s0-.04,0-.04c-.03-.18-.06-.35-.06-.51v-.04s0-.04,0-.04c0-.05-.02-.1-.04-.17h0c.01-.23-.02-.45-.13-.69h0s.1-.04.1-.04l-.07-.4-.11-.38-.16.02s-.01-.08-.02-.12h.04s0-.05,0-.05h-.04s0,0,0-.01c0-.07-.02-.14-.03-.22l-.02-.09-.05-.07s-.06-.12-.08-.21c-.04-.21-.14-.39-.29-.52l-.02-.02c-.07-.07-.16-.17-.17-.21-.1-.3-.28-.51-.44-.71l-.04-.04c-.06-.06-.12-.12-.18-.18-.11-.11-.23-.23-.37-.33l-.03-.02c-.02-.08-.06-.18-.17-.27-.08-.06-.16-.08-.23-.09-.12-.14-.25-.24-.37-.34-.06-.05-.12-.09-.18-.15-.06-.05-.11-.1-.17-.15-.17-.16-.34-.32-.54-.44-.24-.18-.49-.32-.79-.41-.1-.03-.22-.11-.37-.24l-.29-.32-.06-.05c-.18-.13-.38-.1-.45-.09l-.4.06v.02s-.02,0-.02,0l-.12.09s0,0-.01,0c-.03,0-.07,0-.11,0l-.17.03-.05.07s-.11.04-.17.08l-.05.04-.13.2c-.08.17-.12.33-.16.5-.04.15-.07.29-.13.4-.03.03-.05.05-.08.07-.11.1-.25.22-.35.41l-.04.09s-.09.06-.13.09l-.06.05c-.06.06-.11.09-.2.1l-.36.05-.08.06c-.06.05-.11.1-.15.17-.02.01-.05.03-.08.04l-.18-.12-.19.28c-.11.04-.21.1-.29.19l-.09.06s-.08.04-.13.07c-.03.01-.07.03-.11.05-.09,0-.18.02-.25.05l-.11-.08-.16.02c-.3.05-.55.13-.78.2-.12.04-.21.11-.28.16-.03.02-.07.05-.06.05h-.17s-.12.11-.12.11c-.01,0-.05.02-.08.04-.05.02-.1.04-.15.06l-.23.05-.04.13-.04.02c-.23.12-.46.31-.68.56l-.07.08c-.07.08-.11.12-.15.15-.08.01-.18.04-.3.13l-.12.11-.04.03-.22.31v.06s-.03.02-.04.03l-.09.1c-.05.07-.09.13-.13.2-.06.1-.12.19-.16.23-.14.13-.26.31-.34.49l-.31,1.05c-.01.05-.03.11-.04.18,0,.04-.02.08-.03.11v.06c-.04.19-.06.35-.13.45h-.03s-.02.07-.02.07l-.08.1v.08c-.03.1-.06.21-.1.33-.04.11-.07.22-.1.29-.08.16-.14.33-.2.5-.06.15-.11.3-.18.45-.04.1-.06.19-.07.26,0,.01,0,.02,0,.03v.02c-.18.33-.25.64-.33.96l-.04.15c-.08.22-.12.42-.16.63-.09.24-.15.46-.21.68-.03.11-.05.21-.09.33-.07.29-.12.57-.16.84-.03.17-.05.33-.08.49v.11s0,.02,0,.02c-.04.16-.04.3-.05.4,0,.03,0,.05,0,.08-.04.15-.04.28-.04.38,0,.04,0,.07,0,.14,0,.09-.01.18-.02.27-.01.11-.02.21-.03.31,0,.06,0,.11-.01.16,0,.02,0,.04,0,.08-.05.23-.06.42-.06.66,0,.1.01.21.02.33.02.18.03.37.02.56-.02.38.01.79.08,1.21.03.37.09.73.15,1.08.02.12.07.23.14.33,0,.03,0,.06.01.09l.07.38.23-.03s.02.06.03.09c.02.07.04.14.07.21l.06.15.14.07s.09.06.15.14c.06.12.15.19.21.23l.07.04s.08.06.1.1l.03.05c.04.05.07.09.1.13.01.02.03.03.04.05l.09.09s.07.07.12.14c.03.04.06.07.09.11.05.07.09.13.14.2.11.16.22.33.34.47.06.07.1.14.15.24l.03.05s.04.05.05.06c.03.19.1.36.16.5.03.07.06.13.08.21l.02.06c.07.13.16.3.3.41,0,0,.02.02.03.03.05.24.17.38.37.4.02,0,.05,0,.07,0,.29.18.61.37,1,.45.09.03.19.05.29.07.07.01.14.02.21.05l.11.02c.19,0,.38.02.53.04.07,0,.14.02.2.03.08.01.15.02.22.03.09.01.19.02.28.02.24,0,.48-.04.68-.06.09-.01.23-.04.37-.11.04-.01.07-.02.11-.03.17-.05.37-.1.56-.23.02,0,.05-.01.07-.02.15-.05.33-.1.49-.24l.1-.04c.07-.03.13-.06.2-.09.15-.07.32-.15.49-.27.06-.04.12-.07.17-.11.08-.05.17-.1.25-.16l.05-.04.04-.05c.07-.1.11-.2.1-.34,0,0,0,0,0,0,.14-.13.29-.25.44-.43l.05-.06.02-.08c.02-.05.03-.09.04-.12l.68-.69c.15-.17.31-.35.43-.48.2-.17.34-.38.47-.56.05-.08.12-.14.18-.21.08-.09.17-.19.24-.29.02-.03.03-.05.04-.07.13-.12.25-.29.33-.46.15-.24.32-.47.49-.72.1-.13.19-.26.29-.4l.08-.14c.11-.2.24-.43.34-.66.09-.21.21-.47.37-.71.11-.1.2-.24.24-.38v-.05s.03-.08.06-.1c.17-.14.26-.34.24-.57.04-.05.09-.12.12-.22l.02-.09s.02-.08.04-.13c.02-.06.05-.13.07-.21.05-.13.1-.26.15-.38.05-.14.11-.28.17-.45l.02-.05c.02-.06.05-.13.07-.26.02-.11.06-.22.11-.35.04-.1.07-.2.11-.3l.02-.08c0-.05.04-.14.07-.22.02-.06.05-.13.07-.21.05-.19.1-.37.16-.55.05-.16.1-.32.14-.48v.03s.04-.18.04-.18c0-.04.02-.08.03-.13v-.09c.08-.18.12-.37.16-.53.02-.08.04-.16.06-.24.01-.03.02-.05.02-.08l.21-.48c.1-.22.05-.4.02-.5,0-.01,0-.03-.01-.05-.03-.19,0-.39.09-.61.18-.33.21-.65.24-1.04,0-.11,0-.24-.02-.36,0-.07-.01-.14-.01-.21ZM39.84,34.13s-.02.03-.02.05l-.02.05c-.15.22-.31.44-.47.73-.03.06-.07.11-.11.17-.07.11-.15.23-.22.38-.03.04-.06.08-.09.13-.1.13-.2.27-.3.44-.2.29-.41.59-.65.88-.11.16-.27.34-.42.51l-.03.04c-.14.21-.29.37-.45.55l-.04.04c-.09.07-.19.14-.26.24-.04.06-.11.12-.18.18-.04.03-.07.06-.1.09-.04.04-.1.08-.15.13-.07.05-.13.11-.19.16l-.03.03c-.12.14-.27.28-.42.41-.06.05-.11.1-.16.15-.07.05-.13.1-.2.15-.13.1-.24.19-.35.25-.02.01-.05.02-.08.03-.09.03-.22.08-.33.17-.04.02-.07.04-.11.06-.14.07-.29.15-.43.29-.09.01-.14-.01-.25-.21-.25-.37-.41-.78-.48-1.16,0-.02,0-.05-.02-.07.08-.14.07-.28.05-.37,0-.24,0-.5-.1-.77l-.02-.05h0s0-.02,0-.03c0-.04,0-.07,0-.11,0-.12-.02-.23-.04-.32.05-.12.05-.24.06-.32,0-.02,0-.04,0-.06v-.06s-.03-.2-.03-.2c.04-.31.06-.57.05-.81h0s.02-.05.03-.08v-.06c.03-.1.02-.2.02-.29,0-.05,0-.09,0-.14.02-.1.04-.21.05-.31.03-.14.08-.42.09-.69.02-.1.03-.2.04-.31,0-.05.01-.1.02-.15l.05.04.03-.03.07.39.55-.8c.05-.05.13-.15.18-.29.01-.05.02-.09.04-.14.02-.07.03-.12.04-.15.08-.03.14-.09.2-.16l.04-.05.02-.06c.02-.07.05-.18.05-.32.02-.05.04-.09.05-.14l.19-.03v-.35c0-.09,0-.19.03-.3.01-.1.03-.22.04-.34l.03-.17c.02-.1.04-.22,0-.38v-.04c.02-.1.04-.2.06-.3.05-.24.1-.47.18-.7v-.05c.03-.06.05-.13.06-.19.04-.13.08-.27.09-.44,0-.05.02-.12.03-.14l.04-.05.1-.35c.03-.15.1-.3.17-.46.06-.12.11-.24.16-.37.02-.02.03-.04.05-.06.06-.08.09-.18.09-.27.01-.07.06-.13.16-.25.04-.05.09-.11.13-.17l.24-.23c.1-.06.18-.14.24-.2,0,0,.01-.01.02-.02.08-.03.15-.07.2-.12.16-.08.31-.17.44-.25.12-.08.24-.15.37-.21l.1-.05c.26-.14.51-.27.76-.26h.04s.04,0,.04,0c.16-.02.28-.1.37-.17.17-.09.3-.11.45-.09h.07s.06,0,.06,0c.05,0,.13.01.22,0,.13-.02.26-.01.36.02.02,0,.04.02.06.03,0,0,0,0,0,0,.07.08.16.13.25.15.25.06.45.07.65.05.01,0,.03,0,.04,0,.08.14.18.28.27.41,0,.11.02.21.03.27.06.35.05.74.05,1.13,0,.23,0,.44-.03.69-.02.32-.05.6-.08.86-.05.34-.1.69-.18.99-.05.13-.06.24-.06.32v.07c-.04.15-.08.3-.11.45-.04.16-.08.32-.11.48-.03.1-.07.2-.11.3-.05.13-.1.26-.14.4-.03.1-.08.22-.13.32l-.03.07c-.14.21-.23.41-.28.62-.05.05-.1.12-.13.22v.02s-.04.09-.06.13c-.01.03-.03.08-.03.08l-.05.06c-.05.07-.08.16-.1.25-.03.04-.06.09-.08.14-.1.11-.13.24-.16.33l-.03.09v.06Z"/>
        <path class="cls-1" d="M66.82,14.93c.04-.15.04-.25.02-.34l-.02-.09-.05-.07c-.05-.07-.06-.11-.08-.25l-.03-.16-.13-.1c-.18-.13-.35-.11-.42-.1l-.4.06.06.35-.09.05-.05.15c-.08.23-.14.46-.19.67-.02.07-.03.14-.05.2-.31-.01-.56.11-.75.33-.18.18-.3.38-.32.6l-.05.06c-.13.18-.2.36-.25.58-.02.08-.04.16-.06.24-.01.07-.03.14-.03.14-.09.16-.15.32-.21.48-.03.08-.06.16-.1.24-.02.03-.04.06-.05.09,0,0,0,.02-.01.02l-.08.06-.04.13c-.03.12-.07.24-.11.36l-.18.25c-.06.09-.08.19-.08.26-.05.11-.07.23-.05.32l.02.07s0,.03,0,.04c0,.03-.01.06-.02.1-.05.03-.09.07-.12.12l-.09.13.03.16s.02.09.04.13c-.02.05-.04.11-.06.18-.01.02-.03.04-.04.05l-.06.09v.11s-.02.06-.03.1c-.02.08-.05.18-.05.3-.04.07-.06.14-.07.2l-.06.09.03.15c-.09.16-.13.35-.1.5,0,.03,0,.07,0,.12-.02.08-.03.16-.04.25-.01.07-.02.15-.04.21-.03.1-.03.19-.03.27v.03c-.06.1-.12.22-.15.38,0,.04,0,.08-.01.12-.04.03-.07.07-.09.09l-.04.07c-.09.21-.11.23-.25.33l-.17.12v.21c0,.1-.02.22-.05.34-.02.09-.04.19-.06.29v.06s0,.03,0,.03c-.03.08-.04.15-.05.21l-.08.28s0,.03-.02.05c-.03.1-.09.28-.03.48-.06.1-.08.18-.09.24,0,.01,0,.02-.02.07l-.24,1.2s-.02.1-.03.15c-.05.08-.11.21-.08.36l.02.06s0,.07-.02.17c-.02.1-.05.21-.05.35v.02s0,.03,0,.03c0,.02-.01.06-.02.1-.01.05-.03.11-.03.16v.06s0,.03,0,.03c-.06.16-.07.34-.06.54-.01.02-.02.04-.03.07-.07.14-.13.26-.21.35l-.08.09-.03.18c0,.05-.02.11-.02.18-.03.04-.05.09-.07.16v.09c-.02.08-.04.18-.07.3-.01.06-.03.12-.04.21,0,.04-.02.09-.03.13-.02.08-.05.16-.06.24-.02.15-.04.3-.06.45-.04.33-.08.65-.16.97-.06.35-.09.69-.11,1.01-.04.45-.08.87-.16,1.26v.05s-.02.08-.03.12c-.02.1-.04.22-.02.36v.04c-.02-.06-.04-.11-.08-.17,0-.03,0-.06,0-.1l-.02-.07c-.05-.13-.11-.3-.11-.37v-.05s0-.05,0-.05c-.02-.11-.05-.2-.12-.28-.04-.09-.05-.21-.07-.33,0-.05-.01-.11-.02-.16,0-.07,0-.21-.09-.36,0-.02-.02-.04-.02-.05-.01-.03-.02-.05-.04-.09.02-.12,0-.24-.07-.35v-.02s-.01-.06-.02-.09c-.01-.13-.03-.29-.13-.46.07-.2.03-.38,0-.5l-.03-.16-.02-.02.06-.21-.21-.16s-.02-.05-.03-.07c.01-.02.02-.05.03-.08l.03-.09-.02-.09c-.01-.07-.04-.13-.08-.18,0-.03,0-.06,0-.08l.06-.09-.09-.2s-.02-.08-.03-.14c-.02-.09-.04-.2-.09-.32l-.07-.16-.09-.03c-.03-.31-.1-.57-.19-.78.02-.08.05-.25-.05-.42-.02-.04-.04-.08-.06-.11-.01-.08-.04-.16-.07-.24,0-.23-.04-.48-.12-.7-.02-.08-.04-.16-.06-.24-.02-.06-.04-.12-.05-.18l-.1-.56c0-.11-.02-.21-.04-.3-.02-.12-.04-.2-.02-.26l.05-.19-.09-.13c.03-.1.06-.24.03-.42l-.03-.2-.13-.09s-.02-.01-.03-.02c-.06-.21-.1-.43-.14-.68l-.09-.55c-.02-.11-.05-.26-.02-.34l.03-.09-.05-.29c-.01-.06-.04-.13-.1-.2l.03-.11-.07-.14s-.03-.07-.02-.11v-.06s-.03-.21-.03-.21l.11-.04-.06-.34-.03-.09s0,0,0-.02c0-.08-.02-.22-.12-.37v-.04c.02-.28-.09-.52-.2-.7-.12-.23-.31-.34-.44-.4-.09-.05-.14-.09-.24-.26-.04-.06-.09-.12-.13-.21l-.03-.04c-.12-.17-.31-.28-.51-.32h-.05c-.11-.01-.26-.07-.44-.18l-.13-.07h0s-.11-.01-.11-.01c-.15-.02-.27-.03-.39-.07-.08-.03-.16-.04-.24-.04l-.09-.03h-.09c-.17.04-.34.06-.49.06h-.04s-.04,0-.04,0c-.08.01-.16.02-.25.02-.11,0-.22.01-.33.03h-.1s-.08.07-.08.07c-.01.01-.03.02-.04.02-.04.02-.08.04-.14.08-.12.08-.2.2-.27.3-.06.06-.14.15-.16.16l-.17.03-.1.14c-.15.21-.18.43-.21.61,0,.04-.01.08-.01.09-.08.28-.15.59-.19.84,0,.02-.01.04-.02.06-.02.08-.06.19-.05.33,0,.05-.02.11-.03.18-.03.11-.06.23-.06.34-.01.11-.04.21-.06.31-.04.15-.07.31-.08.48,0,.04-.01.08-.02.12-.01.05-.02.1-.03.16-.05.17-.1.36-.11.52-.02.11-.04.23-.07.34-.03.13-.06.27-.08.4v.04s0,.06,0,.06c0,.02,0,.05-.01.08v.05c-.06.12-.12.32-.14.56,0,.08-.01.16-.02.23-.01.09-.03.18-.03.28l-.22.19.02.12s0,0,0,0c-.14.14-.23.32-.26.52-.02.07-.04.13-.06.19-.03.08-.06.16-.09.29-.01.07-.04.15-.06.23-.03.13-.07.27-.1.43-.03.09-.05.19-.07.35v.09c-.01.11-.02.24-.04.34-.07.17-.09.32-.11.45-.01.1-.03.2-.05.27-.03.09-.05.19-.07.29-.02.09-.04.17-.06.25v.04c-.07.33-.13.68-.15.99-.03.22-.1.46-.17.69v.05s-.02.04-.02.05c-.02.09-.07.25,0,.44.01.11,0,.2-.02.31-.05.18-.11.37-.12.57v.05s0,.05,0,.05c.01.09,0,.16,0,.2-.12.21-.08.43-.06.57.03.15,0,.32-.05.48l-.04.1v.07s0,.08,0,.13c-.02.08-.04.16-.06.27-.02.11-.03.21-.05.32-.05.27-.1.56-.1.87v.04s0,.04,0,.04c0,.02,0,.03-.02.1-.05.19-.08.36-.06.56-.01.15,0,.29.01.42.01.12.02.23.01.34-.01.21.02.4.05.57.02.09.03.17.05.25.02.08.04.16.04.22-.04.13-.02.25.06.36,0,0,0,0,0,.01,0,.05,0,.1.02.16l.02.07c.03.09.06.18.08.27.03.1.06.21.1.33l.02.04c.12.25.24.54.37.82.1.29.29.51.55.67.03.02.07.04.1.06.01,0,.03.02.01,0,.13.18.33.29.53.29.02,0,.04.02.06.03.04.02.08.04.11.05.31.16.65.28,1.03.36h.04c.23.03.48.01.7-.29l.14-.2-.09-.17s0-.02,0-.03l.18.09.13-.45c.04-.15.05-.29.05-.42.18-.16.29-.37.3-.63.01-.2-.02-.38-.04-.54,0-.14-.02-.29-.04-.44-.01-.12-.03-.25-.03-.39,0-.14.02-.26.05-.38v-.06c.03-.13.05-.28.03-.47,0-.11.02-.22.04-.28l.04-.17c.02-.1.04-.22,0-.38l-.02-.07c-.02-.06,0-.12.04-.27l.07-.48v-.06c-.02-.07-.05-.12-.08-.17,0-.03,0-.06,0-.1l.1-.71c.02-.09.03-.17.04-.24.01-.09.03-.17.05-.26l.12-.82v-.03c0-.12.03-.26.05-.41.02-.09.03-.18.04-.25.04-.22.09-.44.09-.7,0-.21.05-.42.12-.65v-.04c.02-.08.04-.16.05-.23.04-.24.07-.44.15-.62l.05-.11-.03-.16c.04-.18.04-.36.05-.54l.02-.1s0-.02,0-.03l.12.29.03-.05c.03.11.05.23.07.36.02.09.04.19.07.28.02.06.04.12.05.18l.02.14c-.02.11,0,.21,0,.26l.02.09.05.07s.03.08.04.14c.02.08.04.17.07.27l.02.04s0,.04.01.07c.01.06.03.15.06.25l.09.5v.05c.1.29.19.59.23.83v.07s.06.07.06.07c.01.02.02.09.03.12v.05c.09.24.18.54.22.79.06.33.15.65.25.98.04.13.07.25.1.38.04.14.07.29.12.43l.04.09s.02.09.03.12c.03.15.08.33.17.55.01.06.03.12.06.18.01.04.03.07.03.11.03.2.07.42.19.65,0,.01,0,.03,0,.04v.04c.1.33.2.66.35,1.02.03.09.07.19.11.29.04.11.08.21.11.29l.02.05c.09.27.19.59.36.87l.04.06.06.04s.08.06.15.1l.05.07c.06.16.18.25.23.29.23.17.46.34.69.48l.05.02c.17.07.35.15.44.23l.1.08.09.03c.07.03.19.08.34.05,0,0,.04,0,.07.01.18.1.36.16.53.2.11.03.21.06.29.1l.16.04c.09.02.21.04.37.03.13.04.26.05.37.06.05,0,.09,0,.14.01l.14.1.2-.06c.06-.02.12-.03.18-.04.17-.04.38-.08.59-.23l.07-.05c.11-.07.27-.18.37-.38.03-.03.05-.06.06-.09l.11-.08.04-.13c.03-.09.04-.19.06-.3.08-.13.14-.26.2-.38.02-.04.04-.08.06-.12.07-.11.12-.22.17-.32.02-.04.04-.08.05-.12l.07-.1c.06-.08.08-.17.08-.24v-.02c.09-.2.18-.44.22-.69v-.06s0-.06,0-.06c0-.03,0-.07.02-.14,0-.02,0-.03.01-.05.08-.14.11-.28.1-.43l.12-.17-.03-.15c.04-.07.06-.13.07-.18.08-.21.03-.39,0-.5,0-.02,0-.04-.01-.06-.01-.08,0-.12.02-.18l.02-.04s.03-.05.06-.1l.09-.13-.04-.25c.02-.06.03-.12.04-.17l.29-.28-.22-.17s0-.04,0-.06h0s.04-.07.04-.07c.07-.16.07-.31.07-.42,0-.03,0-.06,0-.09l.02-.13-.05-.09.02-.03v-.13c0-.06,0-.13,0-.2.01-.15.02-.34,0-.53l.18-.03-.05-.28s.02-.04.02-.07l.17-.6-.17.02s0-.06.01-.09c0-.08.01-.13.03-.16l.06-.12v-.09s0-.1,0-.18l.02-.13s0-.06.01-.09c.07-.07.12-.16.15-.26l.05-.19-.11-.16s-.06-.08-.09-.12c0-.02,0-.03,0-.05,0-.09-.02-.19-.05-.3.12-.16.16-.37.13-.54,0-.02,0-.05-.02-.07,0-.04,0-.08,0-.11.02-.11.03-.22.05-.33.01-.09.02-.18.04-.27v-.09s0-.07,0-.07l.02-.09c.01-.16.02-.31.03-.5,0-.04.01-.07.01-.11,0,0,0-.02,0-.03l.02-.04c.05-.11.06-.21.07-.3,0-.03,0-.09,0-.09l.16-.23-.13-.18.08-.07-.03-.15c.05-.09.07-.2.06-.33l.03-.45c0-.12.02-.25.04-.32l.06-.15-.06-.15s0-.08,0-.13c.01-.09.02-.19,0-.32-.01-.06-.03-.11-.06-.16,0-.02,0-.05,0-.07.04-.03.06-.06.08-.09.05-.07.16-.22.11-.46,0-.06-.03-.1-.04-.15.05-.13.08-.3.05-.49l-.03-.09s-.02-.07,0-.2v-.07c0-.06.01-.12.02-.19.02-.16.05-.36.01-.55,0-.02,0-.04.02-.06.11-.26.16-.59.15-.99,0-.13.02-.2.05-.26l.02-.05c.06-.19.07-.37.08-.53.08-.28.11-.54.14-.78.07-.32.09-.65.11-.97v-.05s.02-.05.03-.07l.03-.11c.04-.12.08-.26.1-.46,0-.12.03-.26.05-.41.02-.09.03-.18.04-.24l.14-.69v-.07s-.02-.05-.03-.06l.04-.27c.04-.3.08-.61.15-.87.04-.13.05-.25.07-.37,0-.07.02-.13.03-.2.04-.13.07-.26.09-.37.02-.1.03-.19.06-.26l.02-.08c0-.05.02-.1.03-.14.01-.06.02-.12.03-.19v-.13c0-.15,0-.31.03-.45.05-.13.04-.28-.02-.41,0-.03,0-.06.01-.08Z"/>
        <path class="cls-1" d="M88.52,23.93c-.02-.32.04-.64-.02-.99v-.08c0-.16-.04-.36-.06-.51-.03-.19-.07-.39-.02-.56-.1-.34-.11-.66-.24-.96-.12-.26-.21-.57-.42-.86-.16-.26-.25-.56-.49-.81-.03-.16-.13-.3-.27-.44-.1-.11-.19-.17-.28-.28-.24-.28-.49-.57-.75-.77-.1-.11-.18-.17-.27-.24-.11-.18-.28-.28-.42-.42-.13-.1-.26-.16-.39-.26-.13-.1-.26-.16-.39-.26-.17-.09-.34-.19-.47-.25-.34-.15-.62-.23-.92-.38-.42-.18-.8-.36-1.21-.46t-.08.01c-.25-.12-.54-.2-.86-.23-.2-.05-.41-.14-.65-.14-.23,0-.44-.05-.66-.02-.19.03-.35.01-.51,0-.12-.02-.2-.05-.28-.04-.15.02-.31,0-.47-.01-.2-.05-.4-.06-.58,0-.04,0-.08.01-.11.02-.3.04-.57.05-.88.09-.23.03-.47-.05-.73.03-.32-.07-.66-.02-1.01,0-.2-.01-.39.02-.58,0-.08-.03-.12-.02-.16-.02-.31,0-.58,0-.86-.03-.08-.03-.2-.01-.3.05-.33.13-.69.26-1.06.36l-.32.17c-.07.05-.18.11-.25.12-.3.08-.55.16-.74.43-.04,0-.11.06-.14.1-.07.05-.13.14-.19.23-.02.08-.06.13-.08.21-.06.09-.12.22-.1.33-.02.12-.04.24-.09.37-.04.21-.08.41-.05.61.01.08.03.16,0,.24.03.16.05.27.11.42.1.14.17.29.19.45.06.11.07.19.16.26.19-.03.39.02.56.08h.04c.2,0,.42-.03.61-.06.18-.07.34-.05.53-.08.14-.06.34-.05.48-.11.19-.03.39-.02.58,0-.02.12-.04.21-.07.29.02.12-.05.17-.07.29.11-.02.21-.15.33-.09-.06.09-.08.21-.14.34-.1.33-.16.66-.25,1-.08.21-.11.46-.19.67-.1.33-.16.62-.27.92-.08.21-.12.42-.16.62-.07.29-.18.51-.21.79-.07.25-.18.51-.21.79.01.08-.02.12-.04.21-.06.13-.11.26-.12.42-.08.21-.11.46-.2.63-.02.08-.05.17-.07.25-.07.25-.1.53-.17.82-.06.13-.07.25-.1.33-.07.25-.11.49-.19.71-.02.12-.03.24-.06.33-.08.21-.12.42-.13.62-.03.04-.06.13-.09.17-.02.08-.08.21-.1.33-.01.16-.06.33-.11.5-.07.25-.15.5-.18.75-.02.12-.04.24-.09.37-.11.26-.14.54-.21.79-.04.24-.08.45-.11.69-.01.16-.1.33-.15.5-.06.09,0,.24-.1.3.01.08.02.12,0,.2-.05.17-.05.37-.1.53-.02.12-.04.21-.11.26.01.08.02.12.03.16-.02.12-.04.21-.07.29-.05.17-.05.37-.1.53-.2.19-.46.23-.66.42-.04,0-.08.01-.11.06-.22.07-.43.18-.65.3-.14.1-.31.21-.49.31-.07.05-.14.1-.12.18-.03.04.02.12.03.16.11.18.15.42.12.66.01.08.03.19.09.27.15.22.3.39.46.61.1.14.27.24.44.29.24.04.46.17.64.34.05.07.1.11.18.17.1.11.21.09.35.03.11-.06.22-.07.33-.09.04,0,.01.08.09.07.04,0-.02-.12.06-.09-.02.08.1.14.08.23.17.09.32.07.48.09.06-.09.1-.09.21-.11.08.03.16.02.23-.03.07-.05.18-.07.26-.08.04,0,.05.07.09.07.04.03.08-.01.11-.02.08-.01.09.07.12.02,0-.04.02-.08.01-.16.02-.08.09-.13.21-.11.03.16.05.27.07.39h.08c.06-.14.04-.26.14-.31-.04-.03-.11.02-.16-.06.03-.04.06-.09.14-.06v.04c.08-.01.11-.09.14-.14,0,0,.04,0,.04.03.01.08-.07.05-.09.13,0,.04.08.03.09.07-.03.04-.1.09-.09.17.04.03.08-.01.08-.01.17.09.32.07.47.01.15-.02.26-.08.37-.1.04,0,.07-.05.11-.06.02-.12.09-.17.2-.19h.08c.1-.11.21-.12.27-.25.03-.04.07-.05.07-.05.18-.07.36-.17.54-.24h.04s-.02.08.06.11c.07-.05.15-.02.25-.12-.04,0-.04-.03-.04-.03l.04.03s.09.07.12.02c.04,0,.03-.04.02-.08-.08-.03-.16-.06-.18-.13.07-.05.11-.06.14-.1.04,0,.08-.01.11-.02.07-.05.18-.07.26-.08.08.03.16.02.19-.03.18-.11.37-.1.51-.2.07-.05.14-.06.23-.03-.09.13-.21.15-.31.21-.04,0-.08-.03-.16-.02-.04,0-.08.01-.11.06.07.15.19-.03.28.04,0,.04-.08.01-.06.09,0,.04.04.03.04.03.04,0,.08-.01.12.02-.18.07-.31.21-.49.31.16.06.24.04.49-.07t.05.07s.06-.09.11-.02c0,0-.04,0-.03.04.08-.01.16.02.18-.07.03-.04-.05-.07-.06-.11q.07-.05.14-.1c.15-.02.3-.08.4-.18.21-.15.45-.31.62-.45.06-.13-.07-.19-.05-.27.1-.09.16.02.27,0,.03-.04.11-.06.18-.11.03-.04-.01-.08.02-.12.06-.13.21-.15.26-.28-.13-.06-.2-.01-.44.15.03-.04.06-.09.06-.13.11-.06.22-.07.29-.12,0,0,.03-.04,0-.04,0-.04-.08.01-.12-.02.11-.06.17-.14.28-.16.04,0,.07-.05.1-.09.1-.09.24-.16.4-.18.09-.13.24-.19.39-.22.04,0,.11-.02.14-.06.02-.08.1-.09.14-.1.08-.01.09.07.12.02.07-.05.1-.09.09-.17t.07-.05s-.03.04.01.08c.14-.06.2-.19.3-.28.14-.06.25-.12.34-.29-.08-.03-.1.09-.15.02.03-.04.11-.06.14-.1t-.05-.07c.11-.06.21-.15.26-.28.03-.04.04.03.08.03.03-.04.06-.09.1-.09,0-.04-.05-.07-.02-.12.18-.07.36-.17.55-.2.04.03-.02.08.05.07.03-.04.02-.08.06-.13.24-.19.49-.31.68-.58.08.03.15-.02.18-.11s.1-.09.17-.15c.07-.05.18-.07.21-.15.03-.04.07-.05.11-.06-.06.09-.16.18-.26.28-.07.05-.13.14-.19.23v.04c.11-.06.18-.11.28-.2.03-.04.06-.13.13-.14.08-.01.11-.06.14-.1h.08s-.07.04-.06.08c.16.02.21-.15.36-.17-.01-.08.06-.09.05-.17-.04-.03-.11.06-.19.03.03-.04.14-.06.14-.1.08-.01.04.03.05.07.08-.01.11-.02.1-.09.04.03.08.03.11-.02.03-.04-.01-.08-.01-.08.02-.08.05-.17.08-.21.04.03,0,.04.01.08.04,0,.08.03.12.02.11-.02.18-.11.28-.16.12.02.15-.02.25-.12,0-.04.03-.04.06-.09.24-.19.48-.39.68-.58.17-.14.34-.25.38-.5,0,0,.03-.04.06-.09.18-.11.26-.32.42-.5.13-.14.17-.34.3-.48.06-.09.12-.18.19-.27.12-.22.29-.32.42-.5.04,0,.08-.01.08-.01.16-.18.17-.38.29-.56.04,0,.03-.04.06-.09-.01-.08.05-.17.12-.18.03-.04.06-.09.09-.13.06-.13.11-.26.16-.42.02-.08.08-.21.14-.3.09-.13.22-.27.27-.44.03-.04.02-.12.05-.17.16-.22.23-.47.18-.75.02-.12.04-.24.06-.33.03-.04.02-.08.06-.13-.03-.16.03-.28.04-.44,0-.2.08-.45.07-.69,0,0,0-.04-.01-.08.1-.29.05-.61.03-.92ZM72.79,39.08s.07-.05.08.03t-.08-.03ZM76.4,38.18q.02-.08.07-.05s-.04,0-.07.05ZM80.02,35.53s.03-.04.04,0c.04.03,0,0-.04,0ZM81.5,34.23s-.02.08-.07.05c.03-.04.07-.05.07-.05.04,0,.03-.04.07-.05,0,.04-.03.04-.07.05ZM82.99,33.21s0-.04.04,0c0,.04-.03.04-.04,0ZM84.28,23.48c-.06.13-.08.21-.07.29v.04c-.01.12-.28,1-.35,1.09-.1.33-.21.59-.35.89-.05.17-.14.34-.27.48-.1.09-.16.18-.22.27-.05.17-.15.26-.29.36-.07.05-.13.14-.16.22-.01.16-.1.29-.24.4-.06.09-.13.14-.19.23-.09.13-.19.27-.29.32-.07.05-.14.1-.16.18-.13.14-.23.23-.37.33-.07.05-.14.1-.17.14-.1.09-.2.19-.31.25,0,.04-.03.04-.07.05-.16.22-.36.37-.61.53-.24.16-.49.31-.73.51-.07.05-.14.1-.12.18,0,.04-.03.04-.06.09-.21.15-.38.3-.58.45-.17.14-.31.25-.48.35-.14.1-.24.16-.38.26-.14.1-.24.19-.39.22-.02.08-.06.13-.05.17-.7.46-1.4.89-2.11,1.27,0,0-.04,0-.08.01.02-.12.04-.21.07-.29.06-.13.07-.25.05-.37-.03-.16.02-.32.07-.49.1-.33.23-.71.28-1.08.06-.33.11-.69.13-1.02.01-.36.07-.73.04-1.08.01-.16.02-.32,0-.44-.03-.16.03-.28.12-.42.12-.22.19-.47.18-.75,0-.04-.02-.12,0-.2.06-.33.13-.62.18-.98,0-.04.02-.12.04-.21.02-.12.08-.21.06-.33.02-.12.04-.21.1-.33.06-.33.12-.66.18-.95.03-.04.02-.08.02-.12.11-.26.15-.5.22-.75.02-.12.07-.25.08-.41.02-.08.05-.17.08-.21.11-.26.11-.49.11-.73-.03-.19,0-.4.06-.57.01-.16.06-.33.08-.45,0-.2,0-.4.06-.57.16-.42.42-.7.87-.81.04,0,.11-.02.14-.06.15-.02.34-.05.51,0,.16.05.32.07.51.04.04,0,.08.03.16.06.12.02.24.04.35.03.08-.01.16.02.2.01.13.06.29.08.44.05.04.03.12.02.2.05s.2.05.29.08c.11-.02.2.01.24.04.04.03.08.03.08.03.24.04.42.18.63.27.17.09.31.23.48.33.22.17.38.38.53.6.17.29.36.51.62.67.21.09.35.23.47.45v.04c.25.28.18.57.24.88-.01.16-.03.28-.08.41Z"/>
        <path class="cls-1" d="M107.71,18.48c0-.11,0-.24-.02-.36,0-.07-.01-.14-.01-.21.04-.13.01-.25,0-.3l-.02-.06c-.06-.18-.09-.33-.09-.48v-.04s0-.04,0-.04c-.03-.18-.06-.35-.06-.51v-.04s0-.04,0-.04c0-.05-.02-.1-.04-.17h0c.02-.23-.02-.45-.13-.69h0s.1-.04.1-.04l-.07-.4-.1-.38-.16.02s-.01-.08-.02-.12h.05s0-.05,0-.05h-.04s0,0,0,0c0-.07-.02-.14-.03-.22l-.02-.09-.05-.07s-.06-.12-.08-.22c-.04-.21-.14-.39-.29-.52l-.02-.02c-.07-.07-.16-.17-.18-.21-.1-.3-.28-.51-.44-.71l-.04-.04c-.06-.06-.12-.12-.18-.18-.11-.11-.23-.23-.36-.33l-.03-.02c-.02-.08-.06-.18-.17-.26-.08-.06-.16-.08-.24-.09-.12-.14-.25-.24-.36-.34-.06-.05-.12-.09-.18-.15-.06-.05-.11-.1-.17-.16-.17-.16-.34-.32-.54-.44-.24-.18-.5-.32-.78-.41-.1-.03-.22-.11-.37-.24l-.29-.32-.06-.05c-.18-.13-.38-.1-.45-.09l-.4.06v.02s-.02,0-.02,0l-.12.09s0,0-.01,0c-.03,0-.07,0-.11,0l-.17.03-.05.07s-.11.04-.17.08l-.05.04-.13.2c-.08.17-.12.33-.16.49-.04.15-.07.29-.13.4-.03.03-.05.05-.08.07-.11.1-.25.22-.35.41l-.04.09s-.09.06-.13.09l-.06.05c-.06.06-.11.09-.2.1l-.36.05-.08.06c-.06.05-.11.1-.15.17-.02.01-.05.03-.08.04l-.18-.12-.19.28c-.11.04-.21.1-.29.19l-.09.06s-.08.04-.13.07c-.03.01-.07.03-.11.05-.09,0-.18.02-.25.05l-.11-.08-.16.02c-.3.05-.55.13-.78.21-.12.04-.21.11-.28.16-.03.02-.07.05-.06.05h-.17s-.12.11-.12.11c-.01.01-.05.02-.08.04-.05.02-.1.04-.15.06l-.23.05-.04.13-.04.02c-.23.12-.46.31-.68.56l-.07.08c-.07.08-.11.12-.15.15-.08.01-.18.04-.3.13l-.12.11-.04.02-.22.31v.06s-.03.02-.04.03l-.09.1c-.05.07-.09.13-.13.2-.06.1-.12.19-.16.23-.14.13-.26.31-.34.49l-.31,1.05c-.02.05-.03.12-.04.18,0,.04-.02.08-.02.11v.06c-.04.19-.06.35-.13.45h-.03s-.03.07-.03.07l-.08.1v.08c-.03.1-.06.21-.1.33-.04.11-.07.22-.1.29-.08.16-.14.33-.2.5-.06.15-.11.3-.18.45-.04.1-.06.19-.07.26,0,.01,0,.02,0,.03v.02c-.18.33-.25.64-.33.96l-.04.15c-.08.22-.12.43-.16.63-.09.24-.15.46-.21.68-.03.11-.05.21-.09.33-.07.29-.12.57-.16.84-.03.17-.05.33-.08.49v.11s0,.02,0,.02c-.04.16-.05.3-.05.4,0,.03,0,.05,0,.08-.04.15-.04.28-.04.38,0,.04,0,.07,0,.13,0,.09-.01.18-.02.27-.01.11-.02.21-.03.32,0,.06,0,.11-.01.16,0,.02,0,.04,0,.08-.05.23-.06.42-.06.66,0,.1.01.21.02.33.02.18.03.37.02.55-.02.38.01.79.08,1.21.03.37.09.73.15,1.08.02.12.07.23.14.33,0,.03,0,.06.01.09l.07.38.23-.03s.02.06.03.09c.02.07.04.14.07.21l.06.15.14.07s.09.06.15.14c.06.12.15.19.21.23l.07.04s.08.06.1.1l.03.05c.04.05.07.09.1.13.01.02.03.03.04.05l.09.09s.07.07.12.14c.03.04.06.07.09.11.05.07.09.13.14.2.11.16.22.33.34.47.06.07.1.14.15.24l.03.05s.04.05.05.06c.03.19.1.36.16.5.03.07.06.13.08.21l.03.06c.07.13.16.3.3.4,0,0,.02.02.03.03.05.24.17.38.37.4.02,0,.05,0,.07,0,.29.18.61.37,1,.45.09.03.19.05.29.07.07.01.14.02.21.05l.11.02c.19,0,.38.02.53.04.07,0,.14.02.2.03.08.01.15.02.22.03.09.01.19.02.28.02.24,0,.48-.04.68-.06.09-.01.23-.04.37-.11.04-.01.07-.02.11-.03.17-.05.37-.1.56-.23.02,0,.05-.01.07-.02.15-.05.33-.1.49-.24l.1-.04c.06-.03.13-.06.2-.09.15-.07.32-.15.49-.27.06-.04.12-.07.17-.11.08-.05.17-.1.25-.16l.05-.04.04-.05c.07-.1.11-.2.1-.34h0c.14-.13.29-.26.44-.43l.05-.07.02-.08c.02-.05.03-.09.04-.12l.68-.69c.15-.17.31-.35.43-.48.2-.17.34-.38.47-.56.05-.08.12-.14.18-.21.08-.09.17-.19.24-.29.02-.03.03-.05.04-.07.13-.12.25-.29.33-.46.15-.24.32-.47.49-.71.1-.13.19-.26.29-.4l.08-.14c.11-.2.23-.43.34-.66.09-.21.21-.47.37-.71.11-.1.2-.24.24-.38v-.06s.03-.08.06-.1c.17-.14.26-.34.24-.57.04-.05.09-.12.12-.22v-.08s.04-.08.06-.13c.02-.06.05-.13.07-.21.05-.13.1-.26.15-.38.06-.14.11-.28.17-.45l.02-.05c.02-.06.05-.13.07-.26.02-.11.06-.22.11-.35.04-.1.07-.2.11-.3l.02-.09c0-.05.04-.14.07-.22.02-.06.05-.13.07-.21.05-.19.1-.38.16-.56.05-.15.09-.31.13-.46v.02s.04-.17.04-.17c.01-.05.02-.1.03-.14v-.09s.01,0,.01,0c.07-.18.11-.37.15-.53.02-.08.03-.16.06-.24.01-.03.02-.06.03-.09l.21-.48c.1-.22.05-.4.02-.5,0-.01,0-.03-.01-.05-.03-.19,0-.39.09-.61.18-.33.21-.67.24-1.03ZM101.25,23.7s-.02.03-.02.05l-.02.05c-.15.22-.31.44-.47.73-.03.06-.07.11-.11.17-.07.11-.15.23-.22.38-.03.04-.06.08-.1.13-.1.13-.2.27-.3.43-.19.28-.41.59-.65.88-.11.16-.27.34-.42.51l-.03.04c-.14.21-.29.37-.45.55l-.04.04c-.09.07-.19.14-.26.24-.04.06-.11.12-.18.18-.04.03-.07.06-.1.09-.04.04-.1.08-.15.13-.07.05-.13.11-.19.16l-.03.03c-.12.14-.27.28-.42.41-.06.05-.11.1-.16.15-.07.05-.13.1-.2.15-.13.1-.24.2-.35.25-.02.01-.05.02-.08.03-.09.03-.22.08-.33.17-.04.02-.07.04-.11.06-.14.07-.29.15-.43.29-.09.01-.14-.01-.25-.21-.25-.37-.41-.78-.48-1.16,0-.02,0-.05-.02-.07.08-.14.07-.28.05-.37,0-.24,0-.5-.1-.77l-.02-.05s0-.02,0-.03c0-.03,0-.07,0-.11,0-.12-.02-.23-.04-.32.05-.12.05-.24.06-.32,0-.02,0-.04,0-.06v-.06s-.03-.2-.03-.2c.04-.31.06-.57.05-.81h0s.02-.05.03-.08v-.05c.03-.1.02-.2.02-.3,0-.04,0-.09,0-.14.02-.1.04-.21.05-.31.03-.14.08-.42.09-.69.02-.1.03-.2.04-.3,0-.05.01-.1.02-.15l.05.04.03-.03.07.39.55-.8c.05-.05.13-.15.18-.29.01-.05.02-.09.04-.14.02-.07.03-.12.04-.15.08-.03.15-.09.2-.16l.04-.05.02-.06c.02-.07.05-.18.05-.32.02-.05.04-.09.05-.14l.19-.03v-.35c0-.09,0-.19.03-.3.01-.1.03-.22.04-.34l.03-.17c.02-.1.04-.22,0-.38v-.04c.02-.1.04-.2.06-.3.05-.24.1-.47.18-.7v-.05c.03-.06.05-.13.06-.18.04-.13.08-.27.09-.44,0-.05.02-.12.03-.14l.04-.05.1-.35c.03-.15.1-.3.17-.46.06-.12.11-.24.16-.37.02-.02.03-.04.05-.06.06-.08.09-.17.09-.27.01-.07.06-.13.16-.25.04-.05.09-.11.13-.17l.24-.23c.1-.06.17-.14.23-.2,0,0,.01-.01.02-.02.08-.03.15-.07.2-.12.17-.08.31-.17.45-.25.12-.08.24-.15.37-.21l.1-.05c.26-.14.51-.28.76-.26h.04s.04,0,.04,0c.16-.02.28-.1.36-.17.17-.09.3-.11.45-.09h.07s.06,0,.06,0c.05,0,.13.01.22,0,.13-.02.27-.01.36.02.02,0,.04.02.06.03,0,0,0,0,0,0,.07.08.16.13.25.15.25.06.45.07.65.05.01,0,.03,0,.04,0,.08.14.18.28.27.41,0,.11.02.21.03.27.06.35.05.72.05,1.13,0,.23,0,.44-.03.69-.02.32-.05.6-.07.86-.05.34-.1.69-.18.99-.05.13-.06.24-.06.32v.07c-.04.15-.08.3-.11.45-.04.16-.08.32-.11.48-.03.11-.07.2-.11.3-.05.13-.1.26-.14.4-.03.1-.08.22-.13.32l-.03.07c-.14.21-.23.41-.28.62-.05.05-.09.12-.13.21v.02s-.04.09-.06.13c-.01.03-.03.08-.03.08l-.05.06c-.05.07-.08.16-.1.25-.03.04-.06.09-.08.14-.1.11-.13.24-.16.33l-.03.09v.06Z"/>
      </g>
      <g>
        <path class="cls-1" d="M43.26,52.38c-.1.02-.23.04-.37.06-.14.02-.28.04-.43.05-.15.01-.29.02-.43.02-.14,0-.27,0-.37-.03-.3-.06-.41-.24-.32-.54l1.23-4.08c.04-.12.1-.22.19-.3.09-.08.2-.15.34-.22.23-.11.51-.21.83-.3.32-.09.65-.17.99-.23.79-.15,1.36-.14,1.71.03.35.17.45.52.29,1.04-.08.26-.23.5-.45.72-.22.22-.48.4-.77.54.28.02.5.12.64.3.14.18.16.43.06.75-.17.58-.53,1.05-1.07,1.41-.54.36-1.23.62-2.09.78ZM43.03,51.26c.08,0,.19,0,.32-.01.13-.02.26-.04.39-.06.25-.05.47-.13.66-.26.19-.13.32-.29.38-.5.06-.19.03-.32-.08-.37-.11-.06-.31-.06-.58,0l-.76.14-.32,1.07ZM43.68,49.13l.68-.13c.27-.05.47-.13.62-.25.15-.12.25-.26.3-.44.05-.16.02-.27-.1-.34-.11-.07-.31-.07-.58-.02-.09.02-.2.04-.32.07s-.22.05-.29.08l-.31,1.03Z"/>
        <path class="cls-1" d="M48.36,51.28c-.07.02-.18.06-.32.1-.14.05-.28.08-.41.11-.14.03-.26.04-.36.04-.1,0-.18-.01-.24-.05-.06-.04-.09-.1-.11-.18-.01-.08,0-.2.05-.34l1.08-3.56c.07-.02.18-.06.32-.1.14-.05.28-.08.41-.11.14-.03.26-.04.36-.04.1,0,.18.01.24.05.06.04.09.1.11.18.01.08,0,.2-.05.34l-1.08,3.56ZM48.35,46.17c.07-.22.2-.42.41-.6.2-.18.43-.3.69-.34.26-.05.45-.01.56.11.11.12.13.29.07.52s-.2.42-.41.6c-.2.18-.43.3-.69.35-.26.05-.44.01-.56-.11-.11-.12-.13-.29-.07-.51Z"/>
        <path class="cls-1" d="M53.54,49.12c-.13.44-.41.82-.84,1.14-.43.32-.99.54-1.67.67-.26.05-.5.08-.71.08-.21,0-.38-.01-.52-.05-.14-.04-.23-.11-.29-.21-.06-.09-.06-.22-.02-.37.04-.14.11-.26.2-.37.09-.11.19-.2.3-.28.15.06.33.1.54.13.21.03.47.02.77-.04.19-.04.35-.09.46-.16.12-.07.19-.15.22-.24.02-.08,0-.14-.05-.17-.06-.03-.17-.05-.34-.04h-.26c-.51,0-.86-.08-1.06-.24-.2-.16-.24-.44-.12-.84.07-.22.17-.42.33-.61.15-.19.33-.37.55-.52.21-.15.46-.28.73-.39.27-.11.56-.2.86-.25.23-.04.44-.07.63-.07.19,0,.35,0,.48.05s.22.1.28.18c.06.09.06.2.02.34-.04.13-.1.25-.18.36-.08.11-.17.2-.27.28-.04-.02-.11-.04-.19-.05-.09-.01-.19-.02-.3-.03-.11,0-.22,0-.34,0-.12,0-.22.02-.32.04-.2.04-.37.09-.49.15-.12.06-.2.14-.23.24-.02.06,0,.11.04.14.05.03.16.05.32.05h.27c.55.02.92.12,1.1.3.18.18.22.44.11.8Z"/>
        <path class="cls-1" d="M57.47,46.55c-.15.03-.31.08-.46.15-.15.07-.29.16-.42.27-.13.11-.25.24-.35.38-.1.15-.18.31-.24.49-.11.36-.08.61.08.75.16.14.41.18.72.12.19-.03.35-.09.5-.15.15-.07.28-.13.4-.2.1.06.16.13.2.21.03.08.03.19-.01.33-.07.24-.25.45-.53.62-.28.18-.63.3-1.06.38-.39.07-.72.09-1.01.04-.28-.05-.51-.15-.67-.3-.17-.15-.27-.35-.31-.61-.04-.25-.01-.54.09-.87.12-.38.28-.73.5-1.05.22-.31.47-.58.76-.81.28-.23.59-.42.92-.57.33-.15.66-.26.99-.32.44-.08.76-.07.96.03.2.11.26.28.18.52-.03.11-.09.22-.18.33-.08.11-.17.2-.27.29-.09-.03-.2-.05-.34-.06-.14-.02-.29,0-.46.02Z"/>
        <path class="cls-1" d="M59.76,45.19c.07-.03.17-.06.31-.11.14-.04.28-.08.42-.1.14-.03.25-.04.36-.04.1,0,.18.01.24.05.06.04.09.1.11.18.01.08,0,.2-.05.34l-.57,1.88c-.07.24-.06.4.03.48.09.08.26.1.49.05.14-.03.26-.06.36-.1.1-.04.17-.08.23-.11l.92-3.06c.07-.03.17-.06.31-.11.14-.04.28-.08.42-.1.14-.03.25-.04.36-.04.1,0,.18.01.24.05.06.04.09.1.11.18s0,.2-.05.34l-.8,2.66c-.09.29-.28.53-.59.73-.25.17-.54.32-.86.44-.32.12-.66.22-1.01.28-.33.06-.63.09-.89.07-.26-.02-.47-.08-.63-.19-.16-.11-.26-.27-.3-.47-.04-.21-.01-.48.09-.8l.76-2.5Z"/>
        <path class="cls-1" d="M65.5,48.05c-.07.02-.18.06-.32.1-.14.05-.28.08-.41.11-.14.03-.26.04-.36.04-.1,0-.18-.01-.24-.05-.06-.04-.09-.1-.11-.18-.01-.08,0-.2.05-.34l1.08-3.56c.07-.02.18-.06.32-.1.14-.05.28-.08.41-.11.14-.03.25-.04.36-.04.1,0,.18.01.24.05.06.04.09.1.11.18.01.08,0,.2-.05.34l-1.08,3.56ZM65.49,42.94c.07-.22.2-.42.41-.6.2-.18.43-.3.69-.34.26-.05.45-.01.56.11.11.12.13.29.07.52s-.2.42-.41.6c-.2.18-.43.3-.69.35-.26.05-.44.01-.56-.11-.11-.12-.13-.29-.07-.51Z"/>
        <path class="cls-1" d="M68.52,46.12c-.05.15-.03.25.06.3.08.04.22.05.4.01.09-.02.19-.04.29-.08.1-.03.2-.07.28-.11.04.05.06.12.08.19.02.07,0,.16-.03.27-.07.22-.21.42-.43.59-.22.17-.55.3-.99.38-.54.1-.93.06-1.15-.11-.22-.18-.25-.53-.1-1.05l1.13-3.74c.07-.03.18-.07.31-.11.13-.04.27-.08.41-.11.27-.05.47-.05.59.02.12.06.14.24.05.53l-.17.56,1.21-.23c.02.06.03.13.03.22,0,.09-.01.19-.05.31-.06.2-.15.36-.28.47-.12.11-.27.18-.43.21l-.84.16-.4,1.32Z"/>
        <path class="cls-1" d="M74.39,45.19c-.13.44-.41.82-.84,1.14s-.99.54-1.67.67c-.26.05-.5.08-.71.08-.21,0-.39-.01-.52-.05s-.23-.11-.29-.21c-.06-.09-.06-.22-.02-.37.04-.14.11-.26.2-.37.09-.11.19-.2.3-.28.15.06.33.1.54.13.21.03.47.02.77-.04.19-.04.35-.09.46-.16.12-.07.19-.15.22-.24.02-.08,0-.14-.05-.17-.06-.03-.17-.05-.34-.04h-.26c-.51,0-.86-.08-1.06-.24-.2-.16-.24-.44-.12-.84.07-.22.17-.42.33-.61.15-.19.33-.37.55-.52.21-.15.46-.28.73-.39.27-.11.56-.2.86-.25.23-.04.44-.07.63-.07.19,0,.35,0,.48.05.13.04.22.1.28.18.06.09.06.2.02.34-.04.13-.1.25-.18.36-.08.11-.17.2-.27.28-.04-.02-.11-.04-.19-.05-.09-.01-.19-.02-.3-.03-.11,0-.22,0-.34,0-.12,0-.22.02-.32.04-.2.04-.37.09-.49.15-.12.06-.2.14-.23.24-.02.06,0,.11.05.14.05.03.16.05.32.05h.27c.55.02.92.12,1.11.3.18.18.22.44.11.8Z"/>
      </g>
      <g>
        <path class="cls-1" d="M73.68,4.74l-4.8,1.09c-.12.27-.24.58-.35.94-.12.36-.22.75-.3,1.16-.11.56-.16,1.15-.15,1.76,0,.61.13,1.21.36,1.79l2.44-1.06c-.12-.5-.18-.97-.16-1.43.01-.45.05-.85.12-1.2.08-.42.18-.75.29-.99.45.78.6,1.59.43,2.42-.15.74-.54,1.47-1.18,2.19s-1.53,1.37-2.67,1.96l2.86.96c.38-.27.75-.61,1.12-1.03.37-.41.7-.87,1.01-1.37.31-.5.57-1.04.8-1.61.23-.57.4-1.15.52-1.73.13-.68.18-1.34.14-2-.04-.66-.2-1.27-.49-1.85Z"/>
        <path class="cls-1" d="M83.77,2.38c.33-.05.64-.21.93-.48.29-.27.46-.57.53-.89s0-.58-.2-.78c-.19-.19-.46-.26-.79-.21-.33.05-.64.21-.93.47-.29.26-.46.56-.52.88s0,.59.19.79c.19.2.46.27.79.22Z"/>
        <path class="cls-1" d="M81.91,4.86c-.03.33-.08.66-.15,1-.1.49-.24,1-.44,1.52-.19.52-.47,1.07-.83,1.66-.15-.62-.24-1.26-.27-1.92-.03-.66-.04-1.27-.02-1.83.03-.65.09-1.29.19-1.92l-2.96,1.01c.08.3.13.62.15.93.02.32,0,.64-.07.97-.06.33-.18.64-.33.94-.16.3-.37.58-.62.85-.26.27-.58.5-.96.71-.38.21-.82.37-1.32.5l1.65,2.12c.46-.21.87-.47,1.24-.78.37-.31.71-.66,1-1.03.07.15.14.3.21.45.07.15.15.28.26.41l1.6-.24h0s2.52-.37,2.52-.37c.51-.68.92-1.45,1.23-2.29.31-.85.54-1.64.69-2.38.07-.34.12-.65.15-.95.03-.3.05-.54.05-.75l-2.92.43c-.01.32-.03.64-.07.97Z"/>
        <path class="cls-1" d="M99.56,2.77c-.09-.5-.24-.97-.47-1.41l-4.88.72c-.29.8-.62,1.67-.99,2.6-.37.93-.81,1.82-1.32,2.67-.08-.43-.14-.87-.16-1.32-.03-.45-.06-.9-.1-1.35-.04-.45-.1-.89-.18-1.31-.08-.42-.2-.83-.37-1.2l-4.8,1.09c-.12.27-.24.58-.35.94-.12.36-.22.75-.3,1.16-.11.56-.16,1.15-.15,1.76,0,.61.13,1.21.36,1.79l2.44-1.06c-.12-.5-.18-.97-.16-1.43.01-.45.05-.85.12-1.2.08-.42.18-.75.29-.99.45.78.6,1.59.43,2.42-.15.74-.54,1.47-1.18,2.19s-1.53,1.37-2.67,1.96l2.86.96c.47-.33.92-.77,1.34-1.3.43-.53.81-1.12,1.15-1.76l1.2-.18h0s1.72-.25,1.72-.25c.16-.18.32-.36.47-.55.15-.19.29-.39.44-.59.08.29.19.52.31.69.06.09.12.17.19.24l3.22-.48c.43-.58.76-1.14,1-1.66.24-.53.41-1.03.5-1.5.12-.6.13-1.15.05-1.66ZM97,5.08c-.08.42-.22.84-.42,1.26-.15-.2-.25-.44-.3-.7-.04-.26-.06-.52-.05-.78l-.58.09c.22-.39.42-.76.59-1.11.17-.35.33-.68.47-.98.17.23.29.54.35.93.06.4.04.83-.05,1.3Z"/>
      </g>
      <g>
        <path class="cls-1" d="M47.98,14.38l-.68.1c-.14-.16-.25-.34-.32-.56-.15.25-.29.48-.43.67-.62.09-1.21.17-1.77.25-.56.07-1.06.14-1.5.19-.51.06-.99.11-1.43.16l-.41-1.76c.19-.19.42-.37.71-.54.29-.17.59-.32.91-.45.32-.13.65-.24.97-.33.33-.09.63-.16.9-.2l-.15,1.42c-.19.03-.39.06-.61.11-.22.04-.43.1-.64.15-.21.06-.4.12-.58.19-.18.07-.32.14-.43.22.1.06.29.09.57.11.28.01.59.01.95,0,.36-.02.73-.05,1.11-.09.38-.04.73-.08,1.05-.12.07-.19.13-.38.18-.57.05-.19.09-.38.13-.55.03-.16.06-.3.08-.44.02-.13.03-.25.04-.36.01-.12.02-.23.04-.33l1.45-.21c-.07.38-.12.78-.15,1.21-.02.43.01.82.11,1.17l-.11.56ZM44.2,10.92c.03-.14.1-.27.21-.39.11-.11.23-.18.36-.2.13-.02.23.01.31.1.08.09.1.2.07.35-.03.14-.1.27-.22.39-.12.11-.24.18-.37.2-.13.02-.23-.01-.3-.1-.07-.09-.1-.2-.07-.35ZM45.3,10.76c.03-.14.1-.27.22-.39.12-.11.24-.18.37-.2.13-.02.23.01.3.1.07.09.1.2.07.35-.03.14-.1.27-.21.39-.11.11-.23.18-.36.2-.13.02-.23-.01-.31-.1-.08-.09-.1-.2-.07-.35Z"/>
        <path class="cls-1" d="M47.69,15.52c.03-.14.1-.27.21-.39.11-.11.23-.18.36-.2.13-.02.23.01.31.1s.1.2.07.35c-.03.14-.1.27-.22.39-.12.11-.24.18-.37.2-.13.02-.23-.01-.3-.1-.07-.09-.1-.2-.07-.35ZM47.74,14.14c.02-.08.06-.15.12-.21.07-.06.14-.1.22-.11.17-.28.31-.55.4-.8.09-.25.16-.5.21-.73.03-.16.06-.32.07-.48.02-.16.03-.31.03-.47l1.41-.21c0,.1,0,.22-.02.36-.02.14-.04.29-.07.46-.07.36-.18.74-.33,1.15-.15.41-.35.78-.59,1.11l-1.21.18c-.08.01-.15,0-.19-.05-.04-.05-.06-.11-.04-.19ZM48.79,15.36c.03-.14.1-.27.22-.39.12-.11.24-.18.37-.2.13-.02.23.01.3.1.07.09.1.2.07.35-.03.14-.1.27-.21.39-.11.11-.23.18-.36.2-.13.02-.23-.01-.31-.1-.08-.09-.1-.2-.07-.35Z"/>
        <path class="cls-1" d="M53.48,13.57l-.58.09c-.16.31-.35.59-.55.85-.21.26-.42.46-.65.63l-1.38-.46c.55-.28.98-.6,1.29-.94.31-.35.5-.7.57-1.06.08-.4.01-.79-.21-1.17-.05.12-.1.28-.14.48-.03.17-.05.36-.06.58,0,.22.02.45.08.69l-1.18.51c-.11-.28-.17-.57-.17-.86,0-.29.02-.58.07-.85.04-.2.09-.39.14-.56.06-.17.11-.32.17-.45l2.31-.52c.08.18.14.38.18.58.04.2.07.41.09.63.02.22.04.43.05.65.01.22.04.43.08.64l-.11.56Z"/>
        <path class="cls-1" d="M57.58,12.96l-.81.12c-.15-.18-.31-.34-.47-.48l-.3.49c-.25.05-.51.11-.79.17-.24.05-.51.1-.81.15-.3.05-.61.1-.91.15-.08.01-.15,0-.19-.05-.04-.05-.06-.11-.04-.19.02-.08.06-.15.12-.21.07-.06.14-.1.22-.11.28-.04.6-.12.96-.23.36-.11.79-.3,1.27-.54-.34-.22-.67-.38-.99-.46-.32-.08-.6-.11-.85-.07l.1-1.18c.27-.22.55-.46.82-.73.28-.27.54-.56.79-.86.25-.3.48-.6.68-.9.21-.3.38-.59.53-.87l1.19.75c-.41.55-.84,1.05-1.31,1.5-.46.45-.93.86-1.41,1.24.32.1.59.22.81.35.22.13.41.27.58.43.17.15.32.31.46.48.14.17.29.34.45.5l-.11.56Z"/>
        <path class="cls-1" d="M57.34,12.72c.02-.08.06-.15.12-.21.07-.06.14-.1.22-.11.23-.41.41-.83.55-1.26.14-.43.26-.85.36-1.25l1.25-.19c-.04.2-.07.41-.08.62-.02.18-.03.38-.04.62,0,.23,0,.46.02.69.11-.25.21-.49.3-.74.09-.24.16-.46.21-.64.07-.22.13-.43.17-.63l1.25-.19c-.04.2-.07.41-.08.62-.02.18-.03.38-.04.62,0,.23,0,.46.02.69.11-.25.21-.49.3-.74.09-.24.16-.46.21-.64.07-.22.13-.43.17-.63l1.25-.19c-.07.38-.12.78-.14,1.2-.01.42.02.82.09,1.18l-.11.56-.74.11c-.1-.14-.18-.29-.24-.45-.06.09-.13.19-.2.28-.07.09-.14.18-.22.26l-1.18.17c-.1-.14-.18-.29-.24-.45-.06.09-.13.19-.2.28-.07.09-.14.18-.22.26l-1.18.17c-.1-.14-.18-.29-.24-.45-.06.09-.13.19-.2.28-.07.09-.14.18-.22.26l-.72.11c-.08.01-.15,0-.19-.05-.04-.05-.06-.11-.04-.19Z"/>
        <path class="cls-1" d="M63.13,11.86c.02-.08.06-.15.12-.21.07-.06.14-.1.22-.11.17-.28.31-.55.4-.8.09-.25.16-.5.21-.73.03-.16.06-.32.07-.48.02-.16.03-.31.03-.47l1.41-.21c0,.1,0,.22-.02.36-.02.14-.04.29-.07.46-.07.36-.18.74-.33,1.15-.15.41-.35.78-.59,1.11l-1.21.18c-.08.01-.15,0-.19-.05-.04-.05-.06-.11-.04-.19ZM63.53,13.12c.03-.16.12-.3.25-.43.14-.13.29-.2.45-.23s.29.01.38.1c.09.09.13.22.09.37-.03.16-.12.3-.25.43-.14.13-.29.21-.45.23s-.29-.01-.38-.11c-.09-.1-.12-.22-.09-.38Z"/>
      </g>
    </g>
  </g>
</svg>