<?xml version="1.0" encoding="UTF-8"?>
<svg id="Calque_2" data-name="Calque 2" xmlns="http://www.w3.org/2000/svg" viewBox="0 0 116.22 39.11">
  <defs>
    <style>
      .cls-1 {
        fill: #fff;
      }
    </style>
  </defs>
  <g id="Layer_2_copy" data-name="Layer 2 copy">
    <g>
      <path class="cls-1" d="M19.55,0c-1.62,0-3.2.2-4.71.57-.07.02-.14.03-.2.05-1.98.49-3.72,1.26-5.23,2.21-.05.03-.1.06-.15.1C5.56,5.22,2.68,8.72,1.17,12.87c-.01.03-.02.06-.03.09-.74,2.06-1.14,4.28-1.14,6.59,0,10.8,8.75,19.55,19.55,19.55s19.55-8.75,19.55-19.55S30.35,0,19.55,0ZM15.33,3.08c1.11-.3,2.2-.45,3.24-.49.3-.02.61-.02.92-.02,7.97,0,14.66,5.49,16.49,12.89.3,1.22.47,2.49.5,3.8,0,.05,0,.08,0,.08h0l-3.67-1.69c-.61-.22-1-.09-1.35,0l-.76.14c-.12.02-.24.02-.35,0-.6-.12-1.06-.44-1.2-.52-.9-.54-2.38-1.81-3.95-3.25h0c-3.07-2.81-6.48-6.27-6.48-6.27-.19-.17-.48-.15-.65.04l-1.85,2.04h0l-1.98,2.18c-.16.18-.43.2-.63.06l-.76-.57c-.17-.13-.41-.12-.58.02l-4.05,3.37c-.09.07-.19.11-.3.11-.14,0-.27-.06-.36-.17-.15-.19-.42-.23-.62-.09l-4.34,2.89h0s0-.01,0-.04c.13-1.13.37-2.22.72-3.27h0c1.79-5.51,6.33-9.78,11.99-11.21ZM36.53,20.14c-.09,2.78-.85,5.39-2.13,7.67-1.91,3.91-5.51,7.95-12.28,8.54-.84.13-1.7.19-2.57.19-9.38,0-16.99-7.61-16.99-16.99,0-.15,0-.31,0-.46,0-.15,0-.23,0-.23,0,0,0,0,.01,0,.19-.09,2.12-1.04,3.36-1.69.09-.05.17-.09.25-.13.56-.3,1.24-.32,1.82-.07l2.54,1.09s.09,0,.12-.02c0,0,0-.01.01-.02.02-.03.03-.08,0-.12l-1.22-1.71c-.12-.19-.09-.43.05-.6.01-.02.03-.03.04-.04.02-.02.03-.03.05-.04l3.01-2.14c.21-.15.48-.16.7-.04l4.42,2.45c.08.05.16.03.21-.02,0,0,.01-.01.02-.02,0,0,.01-.02.02-.03,0-.01.01-.03.02-.04h0s0-.01,0-.02c0,0,0,0,0,0,0,0,0,0,0,0,0,0,0-.01,0-.02,0,0,0,0,0,0h0s0-.02,0-.03c0,0,0-.02,0-.02h0s0-.01,0-.01c0-.02,0-.04,0-.07,0,0,0-.01,0-.02,0,0,0,0,0,0,0,0,0-.01,0-.02,0-.03,0-.05,0-.08,0-.01,0-.03,0-.04,0-.02,0-.03-.01-.05,0,0,0,0,0,0,0,0,0,0,0,0h0s0,0,0-.01c0,0,0-.02,0-.02,0,0,0-.02,0-.03,0-.01,0-.02-.02-.04,0,0,0,0,0,0,0,0,0-.02-.01-.03,0,0,0,0,0-.01h0s0,0,0,0c0,0,0,0,0,0-.01-.03-.03-.07-.05-.1,0-.02-.02-.04-.03-.05,0,0-.01-.02-.02-.03,0,0,0-.02-.02-.02h0s0,0,0,0c0-.01-.01-.02-.02-.03,0,0,0,0,0,0-.01-.02-.02-.03-.04-.05-.01-.02-.03-.03-.04-.05-.01-.01-.02-.02-.03-.03,0-.01-.02-.02-.03-.03l-.94-1.19s-.05-.07-.07-.1c0-.01-.02-.03-.02-.05-.02-.04-.03-.07-.04-.11,0-.01,0-.03-.01-.05,0-.03-.02-.07-.02-.1,0,0,0-.02,0-.03,0-.05,0-.09,0-.14,0,.04,0,.08,0,.13,0-.04,0-.09,0-.13,0-.04.01-.09.02-.13.01-.04.02-.07.04-.11,0-.01.01-.03.02-.04.02-.03.03-.07.06-.1.01-.02.03-.04.04-.06l1.21-1.57c.23-.3.6-.44.95-.4.17.06.34.13.51.2.02.02.05.04.07.06l9.43,8.26c.37.33.87.46,1.36.38l1.68-.43c.26-.06.53-.09.8-.06.06,0,.13.01.19.02.44.06.88.15,1.3.3l2.34.73h0s0,.05-.01.15ZM16.64,13.41s.03.05.05.07c0-.01-.02-.03-.03-.04,0,0,0,0,0,0,0-.01-.01-.02-.02-.03ZM16.56,13.26s0,0,0-.01c.01.03.02.07.04.1,0,0,0-.01-.01-.02h0s-.02-.04-.02-.06ZM16.53,13.13s0-.02,0-.03c0,.03,0,.05.01.08,0-.02,0-.03-.01-.05ZM17.86,14.97s0,0,0,.01c0,0,0,0,0-.01ZM18.01,15.39s0,0,0,.01c0,0,0,0,0-.01ZM18.01,15.49s0,.02,0,.04c0-.01,0-.02,0-.04ZM18,15.61s0,0,0,0c0,0,0,0,0,0Z"/>
      <polygon class="cls-1" points="22.99 28.47 20.97 22.08 19.4 22.08 18.46 22.08 11.9 22.08 11.9 24.16 14.65 24.16 14.65 31.59 17.01 31.59 17.01 24.16 19.18 24.16 21.75 31.59 24.03 31.59 27.21 22.08 24.98 22.08 22.99 28.47"/>
      <path class="cls-1" d="M65.88,7.54h-5.75v15.57c0,.64-.52,1.16-1.16,1.16h-.76l-.03-16.74h-6.53v15.71c0,.45-.37.82-.82.82h-1.16s-.06-8.44-.06-12.18c0-1.29-.01-4.35-.01-4.35h-6.33s0,.7,0,1.07c0,9.4-.05,30.49-.05,30.49h2.39s4.05.33,3.94-4.05c.09-1.36.03-4.89.03-4.89h12.26s4.75.73,4.76-4.85c.06-5.75.03-17.77.03-17.77h-.76Z"/>
      <path class="cls-1" d="M85.44,30.16h13.82c.75,0,2.39,0,2.39,0,0,0,0,1.41,0,2.18.02,2.17,0,4.47,0,6.76.68,0,1.24.02,1.8,0,3.37-.13,4.54-1.44,4.54-4.79.01-8.7.02-26.76.02-26.76h-22.58s.04,15.69.01,22.62ZM101.66,12.94l-.02,9.81c0,.79-.64,1.43-1.43,1.43h-8.46s0-4.08,0-5.72-.01-5.52-.01-5.52h9.91Z"/>
      <path class="cls-1" d="M83.74,34.48c.02-8.83,0-26.93,0-26.93h-6.27s.02,10.6.02,15.54c0,2.79,0,5.58,0,8.37,0,2.25.06,7.65.06,7.65h3.71s2.72,0,2.48-2.95c.11-.55,0-1.12,0-1.68Z"/>
      <path class="cls-1" d="M74.76,5.12c0-1.24-.02-4.42-.02-4.42h-6.47s0,.66,0,.94c0,9.1,0,18.21,0,27.31,0,.16.02,1.21.02,1.21h3.82s2.75-.24,2.71-3.3c0-.67-.04-1.33-.04-2,0-6.58,0-13.16-.01-19.74Z"/>
      <path class="cls-1" d="M115.27,7.54h-5.7s.02,7.63.02,11.1h0c0,3.52,0,11.52,0,11.52h3.12s3.36-.08,3.37-3.95c.02-6.04-.01-18.67-.01-18.67h-.8Z"/>
      <path class="cls-1" d="M112.9,5.76h2.33s.99.06.99-1.47c0-.7-.16-.66-.16-.66h-4.19v-1.58h3.37s.78.15.78-1.5c.02-.66-.44-.55-.83-.55-.75,0-1.5,0-2.25,0h0c-.83,0-1.67-.03-2.49.02-.21.01-.66-.09-.68.08-.09.94,0,3.71,0,3.71h-.17c-.08,0-.15.07-.15.15v1.8h3.44Z"/>
    </g>
  </g>
</svg>