<?xml version="1.0" encoding="UTF-8"?>
<svg id="Calque_2" data-name="Calque 2" xmlns="http://www.w3.org/2000/svg" viewBox="0 0 104.55 103.5">
  <defs>
    <style>
      .cls-1 {
        fill: #fff;
      }
    </style>
  </defs>
  <g id="Layer_2_copy" data-name="Layer 2 copy">
    <g>
      <path class="cls-1" d="M104.55,28.12v24.23c0,3.17-2.57,5.74-5.74,5.74h0c-3.17,0-5.74-2.57-5.74-5.74v-23.93c0-9.2-7.18-16.96-16.38-17.29-.22,0-.44-.01-.66-.01-.51,0-1.01.03-1.5.07-.04,0-.07,0-.11.01-.42.03-.84.09-1.26.15-.11.02-.23.04-.35.06-.33.06-.67.13-1,.21l-.68.17c-.27.07-.53.16-.79.25-.09.03-.18.06-.27.09-.42.15-.83.31-1.23.49-.13.06-.27.13-.4.18-.29.14-.58.28-.86.43-.13.08-.27.15-.39.22-.3.17-.6.35-.89.54-.1.06-.2.11-.28.17-.39.26-.76.54-1.13.83l-.02.02c-.08.06-.16.14-.25.21-.22.18-.44.36-.66.57-.18.15-.34.32-.5.48-.12.12-.25.23-.35.35-.18.2-.37.4-.54.59-.09.1-.18.2-.27.31-.18.21-.35.43-.52.65-.08.09-.15.19-.22.3-.17.22-.33.45-.48.68-.07.12-.14.22-.21.33-.14.23-.28.46-.42.69-.02.04-.04.06-.06.1-.29.52-.56,1.03-.79,1.59-.06.13-.11.26-.15.39t0,0c-.86,2.09-1.34,4.37-1.34,6.76s-.28,4.64-.8,6.85c-.01.02-.01.03-.02.05-.17.71-.36,1.41-.58,2.09-.06.13-.1.26-.15.4-.06.19-.13.38-.2.57-2.35,6.43-6.92,11.82-12.77,15.21-.03.01-.06.04-.09.05-.26.15-.52.3-.78.44-.13.07-.26.13-.4.2-.18.09-.35.18-.53.27-.23.11-.47.22-.71.33l-.27.13c-3.68,1.62-7.69,2.48-11.76,2.48-7.81,0-14.91-3.11-20.14-8.14C3.43,44.67,0,37.25,0,29.05,0,13.03,13.05,0,29.05,0c4.4,0,8.58.99,12.32,2.75,1.86.87,3.62,1.94,5.24,3.17,2.22,1.68,2.8,4.74,1.42,7.15-.02.04-.04.07-.06.11-1.64,2.89-5.47,3.56-8.12,1.56-1.06-.8-2.21-1.48-3.44-2.03-.08-.04-.15-.06-.22-.09-2.24-1-4.65-1.49-7.14-1.49-9.89,0-17.93,8.04-17.93,17.91h0v.03c0,9.86,8.05,17.92,17.93,17.92.51,0,1.01-.03,1.51-.07.04,0,.06,0,.1-.01.43-.04.84-.09,1.27-.15.12-.03.24-.05.35-.07.33-.06.68-.13,1.01-.21.14-.04.27-.07.41-.11.35-.09.69-.2,1.03-.31.1-.04.2-.06.29-.09.43-.14.83-.31,1.24-.5.14-.06.27-.13.39-.18.29-.14.58-.28.86-.44.14-.07.27-.14.4-.21.3-.18.59-.37.9-.55.09-.06.18-.11.28-.18.39-.26.76-.53,1.13-.83,0,0,.01-.01.02-.02.09-.06.17-.14.25-.21.22-.18.44-.37.65-.56.18-.15.34-.32.51-.49.12-.12.24-.23.36-.35.18-.2.35-.39.54-.59.09-.1.18-.21.26-.31.18-.21.35-.43.52-.64.08-.1.15-.2.23-.3.16-.23.32-.45.47-.69.07-.11.14-.21.21-.33.14-.23.28-.46.41-.7.02-.04.04-.06.06-.1.29-.51.56-1.03.8-1.58.05-.13.1-.27.16-.39h0c.09-.22.18-.44.25-.66.08-.18.14-.37.19-.56h-11.48c-3.07,0-5.57-2.49-5.57-5.57h0c0-3.07,2.49-5.57,5.57-5.57h12.9c.08-.43.18-.85.29-1.27,0-.02,0-.04,0-.05.17-.71.36-1.4.59-2.09.04-.13.09-.26.13-.4.06-.19.13-.38.2-.57,2.35-6.43,6.92-11.82,12.78-15.2.03-.01.06-.04.09-.05.26-.15.52-.3.78-.44.13-.07.27-.13.4-.2.18-.09.36-.18.53-.26.24-.11.47-.22.71-.33.09-.04.18-.09.27-.13,3.67-1.62,7.69-2.48,11.75-2.48,7.83,0,14.95,3.12,20.18,8.18.12.11.24.22.35.34.02.01.04.04.05.06.2.2.39.4.59.61,4.8,5.11,7.34,11.93,7.34,18.94ZM81.55,52.36v-25.25c0-3.17-2.57-5.74-5.74-5.74h0c-3.17,0-5.74,2.57-5.74,5.74v25.25c0,3.17,2.57,5.74,5.74,5.74h0c3.17,0,5.74-2.57,5.74-5.74Z"/>
      <g>
        <path class="cls-1" d="M10.57,64.12c7.26,0,9.33,5.98,9.33,8.48v1.33c0,1.12-.9,2.02-2.02,2.02h-2.14c-1.12,0-2.02-.9-2.02-2.02v-1.33c0-.88-.76-3.08-3.15-3.08-2.55,0-3.15,2.28-3.15,3.08v2.97c0,5.49,12.47,5.54,12.47,16.48v3.03c0,2.14-1.83,8.43-9.33,8.43-4.87,0-9.33-3.69-9.33-8.43v-1.38c0-1.12.9-2.02,2.02-2.02h2.14c1.12,0,2.02.9,2.02,2.02v1.38c0,1.7,1.58,3.03,3.15,3.03,1.38,0,3.15-.88,3.15-3.03v-3.94c0-5.31-12.47-5.02-12.47-16.96v-1.57c0-4.8,4.43-8.48,9.33-8.48Z"/>
        <path class="cls-1" d="M21.13,68.23v-1.81c0-1.03.84-1.87,1.87-1.87h14.92c1.03,0,1.87.84,1.87,1.87v1.81c0,1.03-.84,1.87-1.87,1.87h-4.37v31.1c0,1-.81,1.82-1.82,1.82h-2.54c-1,0-1.82-.81-1.82-1.82v-31.1h-4.37c-1.03,0-1.87-.84-1.87-1.87Z"/>
        <path class="cls-1" d="M60.21,72.55v22.47c0,3.4-1.72,8.43-9.33,8.43-6,0-9.33-4.5-9.33-8.43v-22.47c0-3.92,3.33-8.43,9.33-8.43,7.6,0,9.33,5.03,9.33,8.43ZM54.03,72.55c0-1.24-.94-3.03-3.15-3.03-2.01,0-3.15,1.71-3.15,3.03v22.47c0,1.32,1.13,3.03,3.15,3.03,2.2,0,3.15-1.78,3.15-3.03v-22.47Z"/>
        <path class="cls-1" d="M68.89,103.01h-2.56c-1,0-1.81-.81-1.81-1.81v-34.81c0-1.01.82-1.83,1.83-1.83h7.49c5.69,0,9.33,3.6,9.33,7.92v7.54c0,2.88-1.52,5.13-4.55,6.76l4.86,13.82c.41,1.18-.46,2.41-1.71,2.41h-2.33c-.77,0-1.46-.49-1.71-1.22l-4.77-13.8h-2.27v13.21c0,1-.81,1.81-1.81,1.81ZM73.85,82.46c1.89,0,3.15-1.36,3.15-3.1v-6.15c0-2.37-1.75-3.1-3.15-3.1h-3.15v12.36h3.15Z"/>
        <path class="cls-1" d="M100.52,87.06h-6.95c-.1,0-.18.08-.18.18v10.05c0,.1.08.18.18.18h8.1c1.02,0,1.84.82,1.84,1.84v1.86c0,1.02-.82,1.84-1.84,1.84h-12.62c-1.02,0-1.84-.82-1.84-1.84v-34.77c0-1.02.82-1.84,1.84-1.84h12.46c1.02,0,1.84.82,1.84,1.84v1.86c0,1.02-.83,1.84-1.84,1.84h-7.94c-.1,0-.18.08-.18.18v11.05c0,.1.08.18.18.18h6.95c1.02,0,1.84.82,1.84,1.84v1.86c0,1.02-.83,1.84-1.84,1.84Z"/>
      </g>
    </g>
  </g>
</svg>