<?xml version="1.0" encoding="UTF-8"?>
<svg id="Calque_2" data-name="Calque 2" xmlns="http://www.w3.org/2000/svg" viewBox="0 0 51.14 95.7">
  <defs>
    <style>
      .cls-1 {
        fill: #fff;
      }
    </style>
  </defs>
  <g id="Layer_2_copy" data-name="Layer 2 copy">
    <g>
      <path class="cls-1" d="M26.27,0c.07,1.17.15,2.33.22,3.5.06,1,.13,2,.2,2.99-.66.2-.74.18-1.14-.31-1.06-1.3-2.12-2.6-3.18-3.89-.09-.11-.18-.22-.36-.31.1,1.6.2,3.2.31,4.86-.29.02-.56.03-.87.05-.14-2.19-.29-4.34-.43-6.5.48-.1.83-.09,1.17.35,1.05,1.36,2.16,2.67,3.25,4.01.06.07.13.14.27.19-.1-1.61-.2-3.21-.31-4.81C25.58.07,25.73.04,25.88,0c.13,0,.26,0,.4,0Z"/>
      <path class="cls-1" d="M6.23,47.85c0-6.28,0-12.55,0-18.83,0-8.46,5.17-15.74,13.17-18.5,2.58-.89,5.25-1.2,7.98-.93,4.64.46,8.63,2.34,11.91,5.64,3.07,3.08,4.91,6.81,5.44,11.13.15,1.23.18,2.48.18,3.73.02,9.41.01,18.82.01,28.23,0,2.92.03,5.85-.02,8.77-.09,5.09-1.9,9.5-5.43,13.18-2.79,2.91-6.18,4.79-10.13,5.54-5.71,1.08-10.95-.11-15.56-3.66-4.04-3.11-6.48-7.23-7.29-12.28-.16-1-.25-2.02-.25-3.03-.02-6.33-.01-12.67-.01-19ZM20.88,10.76c-4.5,1.21-8.11,3.72-10.75,7.57-2.3,3.35-3.33,7.07-3.25,11.15,4.62.06,8.68,1.55,12.16,4.53,3.48,2.98,5.6,6.77,6.53,11.33.05-.19.09-.29.11-.39.86-4.03,2.79-7.48,5.82-10.28,3.5-3.24,7.64-4.98,12.42-5.15.3-.01.37-.11.36-.39-.01-1.33-.12-2.64-.37-3.94-1.36-6.88-6.59-12.52-13.33-14.36-.07-.02-.15-.03-.23-.04,2.33,1.61,3.79,3.75,4.14,6.57.35,2.81-.45,5.3-2.42,7.34-3.66,3.78-9.57,3.7-13.11-.12-3.69-3.98-3.08-10.75,1.92-13.82ZM25.91,67.51h.46c2.64,0,5.27,0,7.91,0q.46,0,.46-.45c0-3.12,0-6.24,0-9.36,0-3.14-.04-6.29-.04-9.43,0-3.2.03-6.4.04-9.6,0-1.77,0-3.53,0-5.3,0-.11-.01-.21-.02-.37-.14.08-.24.14-.34.2-1.15.76-2.2,1.62-3.15,2.62-3.45,3.64-5.29,7.95-5.31,12.98-.03,6.09,0,12.18,0,18.27v.44ZM6.94,67.46c.12.01.2.03.27.03,1.22,0,2.45.03,3.67-.01.66-.02,1.32-.1,1.96-.25,4.3-1.01,7.54-5.03,7.46-9.56-.05-2.7-.02-5.4-.03-8.11q0-.43-.43-.43c-4.16,0-8.32,0-12.48,0q-.43,0-.43.43c0,5.84,0,11.67,0,17.51,0,.12,0,.24,0,.39ZM25.59,10.16c-4.44-.09-8.36,3.63-8.35,8.3,0,4.63,3.72,8.36,8.32,8.38,4.37.02,8.38-3.48,8.37-8.36,0-4.96-4.13-8.4-8.34-8.32ZM25.21,68.17c-.1,0-.17-.02-.25-.02-.94.09-1.9.11-2.82.28-5.24.95-9.26,3.75-12.19,8.17-.13.2-.12.33,0,.53.84,1.25,1.8,2.4,2.9,3.42,2.9,2.67,6.3,4.28,10.2,4.83.7.1,1.42.13,2.15.19v-17.4ZM41.68,39.65v9.17h-.64v-.44c0-2.78,0-5.56,0-8.34,0-.32-.1-.41-.41-.4-.58.02-1.17.03-1.75,0-.32-.01-.38.1-.38.39,0,2.8,0,5.6,0,8.4,0,.13,0,.26,0,.38h-.66v-9.15h-2.45v18.31h8.84c0-.15,0-.28,0-.41,0-5.85-.01-11.69-.02-17.54,0-.07.02-.15,0-.2-.05-.08-.13-.19-.2-.19-.76-.01-1.52,0-2.34,0ZM25.18,51.32c.29-3.96-.25-7.69-2.08-11.17-1.32-2.52-3.1-4.65-5.42-6.41,0,.2,0,.33,0,.46.16,2.12.15,4.23-.12,6.33-.26,2.06-.66,4.11-1,6.16-.1.58-.2,1.16-.3,1.76.1.01.17.03.23.03,1.28,0,2.56,0,3.84,0,1.01,0,1.97.2,2.85.71.86.5,1.51,1.21,2.01,2.14ZM6.87,48.48c1.15,0,2.24,0,3.33,0,.28,0,.36-.11.39-.35.09-.58.21-1.15.3-1.72.35-2.25.77-4.49,1.02-6.76.32-2.84.15-5.68-.27-8.5-.04-.3-.16-.45-.47-.52-1.27-.29-2.56-.46-3.86-.51-.43-.02-.44-.03-.44.41,0,5.85,0,11.69,0,17.54v.4ZM29.52,85.1c.06,0,.08,0,.1,0,1.73-.37,3.38-1,4.92-1.86.11-.06.19-.26.19-.4,0-4.78,0-9.55.01-14.33,0-.26-.05-.37-.34-.37-1.53.01-3.07,0-4.6,0-.09,0-.19.02-.29.03v16.92ZM37.72,81.01c.1-.06.14-.08.17-.1,1.54-1.35,2.82-2.91,3.85-4.68.07-.12.1-.27.1-.41,0-5.61,0-11.23.01-16.84,0-.29-.1-.34-.36-.34-1.1.01-2.21,0-3.31,0q-.45,0-.45.44c0,7.18,0,14.36,0,21.54v.39ZM11.19,48.45c.1.01.16.03.22.03,1.31,0,2.63,0,3.94,0,.2,0,.26-.08.29-.26.49-3.02,1.2-6,1.41-9.07.13-1.88.1-3.77-.06-5.65-.01-.15-.15-.35-.28-.43-.68-.41-1.36-.83-2.07-1.17-.75-.36-1.53-.65-2.33-.98,0,.18,0,.28,0,.37.09.81.2,1.62.27,2.43.2,2.16.21,4.32-.05,6.47-.24,1.99-.61,3.96-.93,5.94-.12.77-.27,1.53-.4,2.32ZM44.23,30.17c-.09,0-.13-.01-.18-.01-3.02.07-5.84.87-8.48,2.34-.11.06-.18.26-.19.4-.01,1.91,0,3.82-.02,5.72,0,.3.1.37.38.36,2.7,0,5.4-.01,8.11,0,.32,0,.37-.11.37-.4,0-2.69,0-5.38,0-8.07,0-.11,0-.22,0-.35ZM25.21,55.78c-.94,1.69-2.28,2.63-4.11,2.86-.08,0-.18.16-.2.26-.57,3.95-2.67,6.74-6.28,8.42-.1.05-.19.1-.36.18h10.95v-11.71ZM25.94,85.6c.94-.11,1.84-.21,2.75-.32.26-.03.17-.25.17-.39,0-5.45,0-10.9,0-16.35,0-.12,0-.24,0-.37h-2.92v17.43ZM20.03,68.18H6.96c-.16,1.75,1.39,6.78,2.47,8.02,2.59-3.91,6.1-6.6,10.6-8.02ZM20.98,57.97c2.14-.11,4.3-2.08,4.05-4.88-.18-2.02-2.27-4.07-4.05-3.89v8.77ZM35.4,82.77c.51-.36.95-.68,1.41-.98.2-.14.28-.29.28-.54,0-4.24,0-8.49,0-12.73v-.35h-1.68v14.6ZM42.5,58.64v8.87c.45,0,.87,0,1.3,0q.47,0,.48-.46c0-2.66,0-5.31,0-7.97,0-.09.02-.19-.01-.26-.03-.07-.12-.17-.18-.17-.52-.01-1.03,0-1.58,0ZM37.05,67.51v-8.84h-1.67v.38c0,2.69,0,5.38,0,8.08,0,.07-.02.14,0,.2.04.07.11.18.17.19.49.01.99,0,1.5,0ZM42.51,68.17v6.48c.99-2.05,1.55-4.2,1.71-6.48h-1.71Z"/>
      <path class="cls-1" d="M21.82,95.39c-.3-.03-.55-.05-.87-.08.16-2.17.32-4.33.48-6.5.45,0,.81,0,1.08.48.83,1.46,1.73,2.89,2.61,4.33.08.13.16.25.32.36.12-1.61.24-3.21.37-4.86.28.02.54.05.87.07-.16,2.16-.32,4.32-.48,6.47-.57.11-.79.02-1.06-.42-.9-1.49-1.8-2.98-2.71-4.46-.05-.09-.12-.18-.25-.25-.12,1.61-.24,3.21-.37,4.87Z"/>
      <path class="cls-1" d="M10.26,82.69c.68.61,1.37,1.15,1.97,1.77.67.68.74,1.53.31,2.21-.54.84-1.4,1.09-2.33.67-.17-.08-.33-.16-.47-.24-.05.59-.09,1.17-.16,1.75-.09.67.07,1.18.76,1.38,0,.04.02.05.01.06-.23.69-.43.75-1.01.3-.49-.38-.72-.89-.66-1.5.06-.7.15-1.4.23-2.1.04-.33-.02-.63-.36-.84-.61.73-1.21,1.44-1.83,2.18-.24-.2-.45-.38-.69-.58,1.41-1.68,2.79-3.34,4.22-5.05ZM10.48,83.85c-.51.61-.97,1.16-1.47,1.77.5.35.96.71,1.46.99.49.27.94.1,1.26-.36.28-.4.29-.84-.06-1.25-.35-.4-.77-.75-1.19-1.15Z"/>
      <path class="cls-1" d="M8.57,10.31c.59.72,1.19,1.44,1.8,2.19-.22.18-.44.37-.69.58-1.39-1.69-2.77-3.35-4.21-5.09.78-.58,1.5-1.23,2.32-1.7,1.13-.64,2.38,0,2.61,1.24.1.53-.1,1-.4,1.42-.09.13-.2.26-.28.37.66.18,1.3.36,1.94.54.58.16.83.04,1.28-.57.04.02.09.04.13.07.52.33.53.49.07.93-.52.5-1.13.6-1.81.39-.65-.2-1.31-.39-1.96-.58-.3-.09-.56-.05-.81.21ZM8.13,9.78c.44-.44.88-.81,1.24-1.25.34-.42.28-.84-.05-1.23-.33-.4-.78-.53-1.24-.28-.49.28-.93.64-1.42.98.5.61.96,1.16,1.47,1.78Z"/>
      <path class="cls-1" d="M40.29,3.94c.27.19.5.36.75.53-.55.78-1.08,1.53-1.63,2.31.93.67,1.85,1.32,2.79,1.99.55-.77,1.09-1.53,1.64-2.3.26.18.49.34.76.53-1.26,1.78-2.52,3.54-3.8,5.34-.26-.18-.5-.35-.76-.53.56-.79,1.11-1.57,1.68-2.38-.93-.66-1.85-1.31-2.8-1.99-.56.79-1.12,1.56-1.69,2.37-.25-.18-.47-.34-.75-.53,1.26-1.78,2.52-3.54,3.8-5.34Z"/>
      <path class="cls-1" d="M38.25,88.36c.95-.67,1.87-1.32,2.8-1.98-.55-.78-1.08-1.53-1.62-2.31.25-.18.49-.35.75-.54,1.26,1.79,2.51,3.56,3.78,5.35-.25.18-.48.34-.75.54-.56-.79-1.11-1.56-1.69-2.37-.93.66-1.85,1.3-2.81,1.98.56.8,1.11,1.58,1.67,2.38-.25.18-.48.34-.74.54-1.26-1.78-2.51-3.55-3.78-5.35.25-.18.48-.35.74-.54.54.77,1.08,1.52,1.64,2.31Z"/>
      <path class="cls-1" d="M15.37,89.62c.93.39,1.82.76,2.73,1.15-.1.25-.19.47-.29.72-.91-.38-1.81-.75-2.74-1.14-.28.66-.54,1.3-.82,1.96,1,.42,1.97.83,2.95,1.24-.13.24-.24.45-.37.7-1.24-.52-2.46-1.03-3.72-1.55.84-2.02,1.67-4.01,2.52-6.05,1.23.51,2.44,1.02,3.67,1.53-.1.25-.2.47-.3.72-.94-.39-1.88-.78-2.84-1.18-.26.63-.52,1.23-.79,1.89Z"/>
      <path class="cls-1" d="M16.57,1.45c.1.26.19.48.29.73-.95.39-1.89.77-2.85,1.16.26.64.5,1.25.77,1.89.93-.37,1.83-.73,2.76-1.11.1.25.19.47.29.73-.92.37-1.81.74-2.74,1.12.27.66.52,1.3.8,1.97.99-.4,1.96-.79,2.94-1.18.03.05.05.07.06.1q.23.62-.39.87c-.94.38-1.88.76-2.82,1.14-.1.04-.2.08-.34.13-.82-2.02-1.63-4.02-2.46-6.06,1.24-.5,2.45-.99,3.69-1.5Z"/>
      <path class="cls-1" d="M36.09,3.14c-.27.11-.51.2-.76.3-.03-.03-.07-.05-.08-.07-.31-1.32-2.35-1.92-3.5-.68-.71.77-1,1.69-.84,2.71.22,1.35,2.03,2.08,3.2,1.31.12-.08.23-.17.36-.27.16.22.33.44.5.68-.54.55-1.19.79-1.92.74-1.22-.07-2.27-.5-2.84-1.67-1.01-2.06.58-4.86,2.86-5.02.98-.07,2.35.32,2.89,1.58.05.12.08.24.13.39Z"/>
      <path class="cls-1" d="M34.61,88.53c-.18.23-.34.43-.5.64-.05-.01-.09,0-.11-.03-.9-.94-3.01-.48-3.36,1.32-.17.89.04,1.71.54,2.45.44.65,1.08.92,1.86.82.79-.1,1.42-.45,1.76-1.22.04-.1.08-.2.13-.34.26.11.51.21.81.32-.1.24-.18.47-.29.67-.79,1.37-2.99,1.86-4.32,1-1.35-.87-2.28-3.88-.48-5.51.94-.86,2.73-1.28,3.86-.24.02.02.04.05.08.1Z"/>
      <path class="cls-1" d="M2.67,11.19c.23.15.43.27.66.42-.51.81-1.01,1.6-1.54,2.44.61.39,1.2.76,1.8,1.15.5-.79.99-1.55,1.49-2.33.23.14.44.27.67.41-.49.78-.98,1.54-1.48,2.34.79.51,1.57,1.01,2.38,1.52-.16.26-.31.49-.48.76-1.84-1.17-3.67-2.33-5.53-3.52.68-1.07,1.35-2.12,2.03-3.2Z"/>
      <path class="cls-1" d="M6.83,79.26c-.63.37-1.22.73-1.84,1.09.48.8.93,1.58,1.41,2.38-.22.13-.43.26-.67.41-.47-.8-.94-1.58-1.42-2.38-.82.48-1.62.95-2.44,1.44-.15-.26-.3-.5-.46-.77,1.88-1.12,3.73-2.22,5.63-3.34.65,1.09,1.28,2.16,1.94,3.26-.23.13-.43.26-.68.4-.49-.82-.97-1.63-1.48-2.48Z"/>
      <path class="cls-1" d="M48.58,83.4c-.18.27-.34.51-.51.77-.75-.5-1.47-.99-2.2-1.46-.16-.1-.36-.16-.55-.17-1.16-.02-2.31-.02-3.47-.02-.16,0-.32-.03-.53-.05.18-.27.31-.51.49-.72.07-.08.25-.12.38-.11.89,0,1.78.03,2.67.04.1,0,.19,0,.34-.02-.06-.15-.1-.27-.15-.38-.34-.76-.67-1.53-1.02-2.29-.12-.26-.13-.46.06-.68.11-.13.2-.28.33-.47.25.57.47,1.08.7,1.6.3.69.58,1.38.89,2.06.07.16.21.31.35.41.72.5,1.46.98,2.22,1.49Z"/>
      <path class="cls-1" d="M50.67,14.56c-1,.03-1.99.05-2.98.08-.13,0-.27.04-.39.02-.7-.1-1.22.25-1.74.63-.49.37-1.01.7-1.54,1.07-.18-.26-.35-.5-.52-.75.74-.51,1.46-.99,2.17-1.5.15-.11.29-.27.36-.44.51-1.22,1.01-2.44,1.53-3.72.19.28.38.52.52.78.04.07,0,.21-.04.31-.34.84-.68,1.67-1.02,2.51-.04.1-.07.2-.11.29.66,0,1.29,0,1.92,0,.2,0,.4,0,.59-.04.62-.11,1.03.12,1.24.78Z"/>
      <path class="cls-1" d="M49.26,49.91c-.39.36-.79.73-1.26,1.16.37.12.67.22.92.3.28-.15-.09-.63.43-.58,0,.46,0,.92,0,1.38q-.25.04-.31-.44c-.41-.14-.81-.27-1.24-.41-.28.21-.33.38-.22.83-.21.19-.31.06-.35-.14-.07-.39.06-.71.34-1-.34-.42-.41-.89-.34-1.39.06-.43.26-.79.7-.92.44-.13.85-.06,1.18.3.09.1.17.2.25.3.87-.46,1.26-.47,1.54-.03.24.36.19.94-.12,1.18-.26.21-.58.22-.84.07-.24-.15-.43-.39-.66-.62ZM47.79,50.8c.46-.43.9-.83,1.33-1.23-.33-.53-.87-.69-1.27-.41-.44.3-.48,1.07-.06,1.64ZM49.54,49.57s-.01.09-.02.14c.16.17.3.4.5.49.15.07.43.05.56-.05.11-.09.17-.38.11-.52-.07-.15-.3-.33-.45-.32-.24,0-.47.17-.7.26Z"/>
      <path class="cls-1" d="M3.28,44.35c-.39-.12-.7-.21-1.07-.33,0,.21.02.34,0,.46-.01.06-.1.11-.15.17-.05-.06-.13-.12-.13-.18-.01-.4,0-.79,0-1.18q.26-.06.32.44c.21.05.42.08.63.15.2.07.38.17.58.25.31-.23.37-.41.27-.85.15-.15.3-.14.31.08,0,.26,0,.57-.12.78-.13.23-.12.37,0,.58.22.4.25.84.12,1.28-.11.38-.35.66-.76.75-.43.09-.78-.02-1.08-.33-.09-.09-.17-.2-.28-.33-.32.3-.69.48-1.11.35-.15-.05-.31-.17-.41-.31-.26-.36-.16-.97.16-1.2.4-.28.82-.11,1.44.6.4-.37.8-.74,1.3-1.19ZM2.15,45.87c.23.36.51.58.92.54.35-.04.58-.25.67-.59.11-.42.06-.82-.25-1.18-.46.42-.89.82-1.34,1.24ZM1.79,45.78c-.19-.22-.32-.41-.48-.54-.2-.15-.44-.17-.64.01-.2.18-.21.41-.08.63.13.23.35.32.59.23.19-.07.36-.2.61-.34Z"/>
      <path class="cls-1" d="M1.69,26.6c-.43,0-.82,0-1.2,0-.14,0-.34.05-.33-.2,0-.24.19-.17.32-.17,1.07,0,2.14.01,3.21.04.13,0,.38-.09.38.19,0,.28-.24.13-.38.17-.03,0-.06,0-.22.03.16.11.27.17.35.25.52.54.31,1.41-.41,1.62-.61.18-1.21.12-1.69-.36-.41-.41-.42-.95-.02-1.56ZM2.84,28.21c.45,0,.77-.16.87-.46.12-.33,0-.62-.25-.83-.36-.3-.78-.39-1.24-.26-.39.11-.58.45-.49.85.1.44.51.71,1.1.71Z"/>
      <path class="cls-1" d="M51.11,27.93v.39c-.29,0-.56,0-.83,0-.93.01-1.85.04-2.78.05-.29,0-.3-.02-.25-.35.14,0,.29-.02.5-.03-.33-.27-.59-.53-.58-.95,0-.48.21-.8.67-.95.44-.14.89-.13,1.32.06.69.31.87.99.47,1.78h1.48ZM48.42,26.38s-.12,0-.2.02c-.33.04-.6.17-.69.52-.09.33.05.61.32.81.32.24.7.31,1.09.23.55-.12.78-.68.46-1.15-.23-.33-.58-.42-.99-.42Z"/>
      <path class="cls-1" d="M3.36,67.37c.49.23.8.51.8,1.03,0,.36-.14.62-.43.8-.46.29-.96.38-1.49.22-.68-.21-.97-.88-.66-1.64-.5.11-.98.22-1.48.33-.03-.11-.06-.21-.1-.35,1.26-.29,2.51-.58,3.78-.87.04.12.07.22.1.34-.16.04-.3.08-.52.14ZM2.65,69.16c.26-.07.48-.11.68-.19.26-.1.46-.29.48-.58.02-.31-.13-.56-.4-.71-.45-.26-.92-.22-1.35.04-.42.26-.43.87-.01,1.18.18.13.41.18.6.26Z"/>
      <path class="cls-1" d="M49.7,68.84h1.38v.33h-3.85v-.36c.15,0,.29-.01.45-.02-.15-.19-.3-.34-.4-.53-.28-.55.01-1.18.62-1.37.9-.28,1.85.18,1.94.98.04.29-.09.6-.14.96ZM49.54,68.1c0-.32-.13-.55-.4-.71-.36-.21-.76-.23-1.15-.11-.5.16-.64.7-.29,1.12.31.37.97.53,1.42.35.28-.12.42-.34.42-.65Z"/>
      <path class="cls-1" d="M48.79,39.95c.27.61,1.06.79,1.05,1.51-.4-.37-.8-.74-1.22-1.14-.32.23-.64.43-.92.68-.11.1-.12.31-.18.47-.03.08-.08.14-.12.22-.06-.06-.16-.12-.17-.19-.06-.35.05-.65.35-.86.27-.19.54-.4.81-.59,0-.03-.02-.06-.03-.09-.28,0-.56,0-.84,0-.26.01-.33-.1-.24-.36.11,0,.22,0,.33,0,1.15,0,2.31,0,3.46,0,.1.26.04.37-.23.36-.67-.01-1.34,0-2.03,0Z"/>
      <path class="cls-1" d="M1.52,53.94c.37.39.74.77,1.16,1.21.34-.5,1.19-.51,1.08-1.36.02,0,.05-.03.09-.04.04-.01.08-.02.12-.03.21.44.13.78-.26,1.08-.27.2-.54.4-.81.59.01.03.02.06.03.08h1.06c.1.27.05.38-.22.38-1.11,0-2.23,0-3.34,0-.26,0-.3-.11-.22-.36h2.29c-.26-.59-1.03-.79-.97-1.54Z"/>
      <path class="cls-1" d="M48.49,58.72c.97,0,1.56.69,1.34,1.58-.12.48-.48.74-1.11.82-.83.1-1.52-.45-1.53-1.22-.01-.77.45-1.19,1.3-1.19ZM48.48,59.1c-.65,0-1.02.34-.96.88.04.37.35.67.78.73.58.09,1.02-.06,1.18-.42.03-.07.05-.15.06-.22.06-.58-.36-.97-1.05-.97Z"/>
      <path class="cls-1" d="M4.09,31.49c0,.71-.43,1.11-1.23,1.17-1,.08-1.7-.76-1.4-1.67.03-.08.07-.16.11-.24.29-.45.96-.64,1.6-.45.59.17.92.6.92,1.18ZM2.7,30.63c-.58,0-.92.24-.97.68-.05.41.24.79.69.92.55.15,1.1-.03,1.28-.41.28-.61-.2-1.18-.99-1.19Z"/>
      <path class="cls-1" d="M48.57,65.19c-.92,0-1.48-.59-1.37-1.46.02-.19.11-.39.23-.54.34-.45,1.16-.56,1.77-.26.52.26.77.78.64,1.38-.12.56-.58.88-1.27.87ZM48.58,64.81c.58,0,.93-.27.95-.73.02-.43-.24-.76-.69-.88-.54-.14-1.07.02-1.25.39-.04.09-.07.19-.08.28-.05.55.4.93,1.07.93Z"/>
      <path class="cls-1" d="M4.09,35.54c0,.61-.34,1.02-.94,1.13-.77.15-1.48-.18-1.68-.78-.14-.43-.12-.86.2-1.21.37-.41.87-.45,1.38-.35.66.12,1.05.59,1.05,1.21ZM2.69,34.67c-.56,0-.92.25-.97.69-.05.45.26.83.79.93.59.12,1.07-.09,1.21-.52.18-.6-.28-1.1-1.02-1.1Z"/>
      <path class="cls-1" d="M47.27,37.73c-.09-.27-.03-.37.22-.37.48,0,.97.01,1.45,0,.27,0,.51-.09.58-.39.07-.32-.05-.62-.33-.72-.49-.17-1.01-.26-1.52-.37-.12-.03-.26,0-.41,0v-.36h2.56v.34h-.62l-.02.06c.07.05.15.1.22.14.4.27.57.68.45,1.11-.1.35-.38.55-.87.56-.56.02-1.12,0-1.69,0Z"/>
      <path class="cls-1" d="M3.99,59.89H1.5q-.06-.25.65-.36c-.12-.08-.21-.13-.3-.19-.35-.24-.53-.65-.44-1.03.09-.4.4-.59.77-.61.6-.03,1.21,0,1.83,0,0,.12,0,.21.02.35-.42,0-.81,0-1.21,0-.15,0-.31-.01-.46,0-.27.03-.53.09-.61.41-.07.31.04.58.31.7.36.17.76.26,1.16.35.17.04.35.02.53.03.29.01.3.02.25.35Z"/>
      <path class="cls-1" d="M50.46,58.04c.05-.13.06-.27.13-.31.24-.14.33-.37.24-.59-.07-.18-.25-.35-.43-.44-.14-.08-.34-.04-.57-.06,0,.25.01.48,0,.71,0,.07-.08.14-.13.21-.06-.07-.15-.14-.16-.22-.02-.21,0-.42,0-.67h-2.25c-.1-.27-.06-.39.22-.38.66,0,1.32,0,1.93,0,.23-.15-.08-.51.27-.5.07,0,.13.28.22.49.35.02.82,0,1.07.42.12.19.15.46.16.69,0,.38-.21.59-.69.65Z"/>
      <path class="cls-1" d="M.81,37.42c-.05.1-.08.24-.16.29-.23.15-.28.37-.2.58.07.17.24.32.39.43.09.06.23.05.35.06.16.02.25-.05.25-.22,0-.22,0-.44,0-.64.33-.12.31.08.31.26,0,.17,0,.35,0,.56h2.25v.38H1.8q-.1.51-.34.48c0-.06-.02-.13-.02-.19.02-.23-.07-.3-.3-.3-.72-.01-1.06-.39-1.02-1.07.02-.38.19-.56.69-.61Z"/>
      <path class="cls-1" d="M3.34,52.61c-.03-.1-.05-.19-.08-.27.48-.28.62-.53.5-.98-.04-.16-.22-.33-.37-.39-.22-.08-.32.13-.38.32-.07.25-.12.52-.22.76-.17.42-.68.55-1.04.27-.31-.24-.39-.58-.35-.95.04-.35.21-.62.6-.71.11.14.15.25-.05.36-.28.15-.32.44-.23.69.06.16.24.33.4.36.12.02.33-.16.4-.29.12-.23.14-.51.23-.75.19-.5.71-.6,1.08-.21.53.56.25,1.6-.5,1.8Z"/>
      <path class="cls-1" d="M49.16,44.69c.05-.09.08-.21.15-.27.21-.17.3-.38.25-.64-.04-.23-.15-.42-.42-.44-.26-.02-.37.15-.44.37-.07.24-.12.49-.21.73-.15.39-.57.52-.92.31-.55-.34-.53-1.5.03-1.81.1-.05.3-.08.34-.02.12.15,0,.23-.15.31-.34.19-.44.81-.19,1.11.19.23.5.2.61-.07.09-.21.12-.44.19-.66.12-.44.33-.62.7-.61.38,0,.65.25.74.67.13.58-.1,1.01-.68,1.05Z"/>
      <path class="cls-1" d="M1.42,63.68c.12,0,.21.02.3.02.11.69.25.86.94.99.43.08.87.1,1.34.16,0,.08.01.18.03.33-.45,0-.88,0-1.3,0s-.83,0-1.27,0v-.37h.61c-.44-.26-.78-.55-.66-1.14Z"/>
      <path class="cls-1" d="M49.81,30.26v.31h-.66c.45.27.8.56.69,1.18-.12-.02-.21-.03-.29-.04-.02-.04-.03-.05-.04-.07-.03-.5-.18-.73-.67-.85-.46-.11-.93-.12-1.4-.2-.08-.01-.15-.1-.23-.15.07-.06.14-.17.21-.17.76-.02,1.52-.03,2.27-.03.03,0,.06.02.1.04Z"/>
      <path class="cls-1" d="M4.02,62.13H1.46v-.32h2.55v.32Z"/>
      <path class="cls-1" d="M49.81,33.29v.34c-.82,0-1.62,0-2.42,0-.05,0-.11-.1-.16-.15.06-.06.12-.17.18-.17.79-.01,1.58,0,2.4,0Z"/>
      <path class="cls-1" d="M50.71,33.1c.12.19.24.29.23.37-.02.09-.16.23-.24.23-.08,0-.22-.14-.23-.24-.01-.08.11-.18.24-.36Z"/>
      <path class="cls-1" d="M.94,61.99c-.18.11-.29.23-.38.21-.09-.02-.22-.16-.21-.25,0-.08.15-.22.24-.22.09,0,.18.13.35.26Z"/>
    </g>
  </g>
</svg>