<?xml version="1.0" encoding="UTF-8"?>
<svg id="Calque_2" data-name="Calque 2" xmlns="http://www.w3.org/2000/svg" viewBox="0 0 130.67 38.89">
  <defs>
    <style>
      .cls-1 {
        fill: #fff;
      }
    </style>
  </defs>
  <g id="Layer_2_copy" data-name="Layer 2 copy">
    <g>
      <g>
        <rect class="cls-1" x="84.17" width="15.75" height="2.49"/>
        <rect class="cls-1" x="84.17" y="10.94" width="15.75" height="2.49"/>
        <rect class="cls-1" x="84.33" y="21.87" width="15.75" height="2.49"/>
        <path class="cls-1" d="M121.47,13.86c3.78,0,6.84-3.06,6.84-6.84S125.25.18,121.47.18h-9.3v2.13h8.12c2.6,0,4.71,2.11,4.71,4.71s-2.11,4.71-4.71,4.71h-8.12v2.13h5.29c2.87,3.5,5.74,7,8.6,10.51h4.6c-3.06-3.5-6.13-7-9.19-10.51Z"/>
        <path class="cls-1" d="M4.95,21.8c4.51-6.44,9.01-12.87,13.52-19.31.58-.83,1.16-1.66,1.74-2.49H1.82v2.49h12.95C10.44,8.93,6.12,15.37,1.79,21.8c-.6.83-1.19,1.66-1.79,2.49,6.78.02,13.55.04,20.33.05,0-.85,0-1.7,0-2.55H4.95Z"/>
        <path class="cls-1" d="M41.29,11.76c0-2.62-1.73-4.83-4.11-5.55V0h-3.31v6.19c-2.41.7-4.18,2.93-4.18,5.57s1.77,4.87,4.18,5.57v7.03h3.31v-7.05c2.38-.72,4.11-2.93,4.11-5.55ZM35.47,15.91c-2.32,0-4.19-1.88-4.19-4.19s1.88-4.19,4.19-4.19,4.19,1.88,4.19,4.19-1.88,4.19-4.19,4.19Z"/>
        <path class="cls-1" d="M35.49,5.96c-3.2,0-5.8,2.6-5.8,5.8s2.6,5.8,5.8,5.8,5.8-2.6,5.8-5.8-2.6-5.8-5.8-5.8ZM35.47,15.91c-2.32,0-4.19-1.88-4.19-4.19s1.88-4.19,4.19-4.19,4.19,1.88,4.19,4.19-1.88,4.19-4.19,4.19Z"/>
        <path class="cls-1" d="M61.95,19.21c-3.26-6.23-6.51-12.46-9.77-18.69-.98,0-1.95,0-2.93.01,4.23,8.1,8.46,16.19,12.7,24.29,4.08-8.11,8.16-16.21,12.24-24.32-.94,0-1.88,0-2.82,0-3.14,6.24-6.28,12.48-9.42,18.71Z"/>
      </g>
      <g>
        <path class="cls-1" d="M17.67,35.76c.33-.16.58-.38.76-.68.18-.29.27-.63.27-1.01s-.09-.72-.27-1.01c-.18-.29-.43-.52-.76-.68-.33-.16-.71-.24-1.14-.24h-2.97v6.67h.74v-2.82h2.23s0,0,0,0l1.6,2.82h.89l-1.73-2.92c.13-.04.26-.08.38-.14ZM14.3,32.77h2.27c.28,0,.53.05.74.16.21.11.37.26.49.46.11.2.17.43.17.69,0,.26-.06.49-.18.69-.12.2-.28.35-.49.46-.21.11-.46.16-.73.16h-2.27v-2.62Z"/>
        <polygon class="cls-1" points="25.86 32.16 25.35 32.16 25.35 38.82 25.86 38.82 26.09 38.82 30.15 38.82 30.15 38.2 26.09 38.2 26.09 35.82 29.59 35.82 29.59 35.2 26.09 35.2 26.09 32.77 30.15 32.77 30.15 32.16 26.09 32.16 25.86 32.16"/>
        <polygon class="cls-1" points="38.73 37.88 36.57 32.16 35.79 32.16 38.38 38.82 39.07 38.82 41.67 32.16 40.88 32.16 38.73 37.88"/>
        <path class="cls-1" d="M51.46,32.38c-.39-.19-.87-.29-1.42-.29s-1.03.1-1.42.29c-.39.19-.69.47-.9.84-.21.37-.31.81-.31,1.33v1.89c0,.52.1.96.31,1.33.21.37.51.65.9.84.39.19.87.29,1.42.29s1.03-.1,1.42-.29c.39-.19.69-.47.9-.84.21-.37.31-.81.31-1.33v-1.89c0-.52-.1-.96-.31-1.33-.21-.37-.51-.65-.9-.84ZM51.92,36.46c0,.38-.07.71-.22.98-.15.27-.36.48-.65.62-.28.14-.62.21-1.02.21s-.74-.07-1.02-.21c-.28-.14-.5-.35-.65-.62-.15-.27-.22-.6-.22-.98v-1.95c0-.38.07-.71.22-.98.15-.27.36-.48.65-.62.28-.14.62-.21,1.02-.21s.74.07,1.02.21c.28.14.5.35.65.62.15.27.22.6.22.98v1.95Z"/>
        <polygon class="cls-1" points="60.02 32.16 59.28 32.16 59.28 38.82 59.8 38.82 60.02 38.82 64.08 38.82 64.08 38.2 60.02 38.2 60.02 32.16"/>
        <path class="cls-1" d="M74.65,36.49c0,.58-.16,1.02-.47,1.31-.32.29-.79.44-1.42.44s-1.1-.15-1.42-.44c-.31-.29-.47-.73-.47-1.31v-4.33h-.74v4.3c0,.54.1,1,.29,1.35.19.36.48.63.87.81.39.18.88.27,1.46.27s1.08-.09,1.47-.27c.39-.18.68-.45.88-.81.19-.36.29-.81.29-1.35v-4.3h-.74v4.33Z"/>
        <polygon class="cls-1" points="81.02 32.77 83.29 32.77 83.29 38.82 84.03 38.82 84.03 32.77 86.3 32.77 86.3 32.16 81.02 32.16 81.02 32.77"/>
        <rect class="cls-1" x="92.2" y="32.16" width=".74" height="6.66"/>
        <path class="cls-1" d="M103.76,32.38c-.39-.19-.87-.29-1.42-.29s-1.03.1-1.42.29c-.39.19-.69.47-.9.84-.21.37-.31.81-.31,1.33v1.89c0,.52.1.96.31,1.33.21.37.51.65.9.84.39.19.87.29,1.42.29s1.03-.1,1.42-.29c.39-.19.69-.47.9-.84.21-.37.31-.81.31-1.33v-1.89c0-.52-.1-.96-.31-1.33-.21-.37-.51-.65-.9-.84ZM104.22,36.46c0,.38-.07.71-.22.98-.15.27-.36.48-.65.62-.28.14-.62.21-1.02.21s-.74-.07-1.02-.21c-.28-.14-.5-.35-.65-.62-.15-.27-.22-.6-.22-.98v-1.95c0-.38.07-.71.22-.98.15-.27.36-.48.65-.62.28-.14.62-.21,1.02-.21s.74.07,1.02.21c.28.14.5.35.65.62.15.27.22.6.22.98v1.95Z"/>
        <polygon class="cls-1" points="116.36 32.16 116.36 37.74 112.32 32.16 111.58 32.16 111.58 38.81 112.32 38.81 112.32 33.31 116.35 38.81 117.1 38.81 117.1 32.16 116.36 32.16"/>
      </g>
    </g>
  </g>
</svg>