<?xml version="1.0" encoding="UTF-8"?>
<svg id="Calque_2" data-name="Calque 2" xmlns="http://www.w3.org/2000/svg" viewBox="0 0 154.96 66.96">
  <defs>
    <style>
      .cls-1 {
        fill: #fff;
        fill-rule: evenodd;
      }
    </style>
  </defs>
  <g id="Layer_2_copy" data-name="Layer 2 copy">
    <g>
      <path class="cls-1" d="M55.33,23.96c1.52.05,2.81.3,3.92-2.41.85-8.77.15-13.7,2.52-14.99-7.58-1.17-2.34,15.32-6.45,17.39Z"/>
      <path class="cls-1" d="M52.44,9.61c-7.02-1.26-1.47,10.71-3.23,14.14-.35,0-.72-.04-1.13-.15-.54.67-.42.79-.91,1.56,1.69.05,6.36.18,7.6-2.63.94-9.08.16-14.18,2.8-15.51-6.14-.88-4.51,14.07-5.38,15.14-.06.07-.13.15-.2.23-.39-7.49-1.73-11.77.45-12.77Z"/>
      <path class="cls-1" d="M37.1,19.24l-2.96.04c-.91,9.38-1.27,13.1-5.29,13.78,8.48,3.83,7.8-9.82,8.26-13.82Z"/>
      <path class="cls-1" d="M42.84,27.1s0-.04.01-.06c0-.03.01-.07.02-.1.18-.84.29-1.72.47-2.56,0-.05.01-.09.02-.13-1.02.65-2.45,1.61-3.36-.23.13-4.89,4.81-7.03,3.55-.47-.08.27-.15.55-.21.83-.14.93-.3,1.6-.49,2.66-.35,2.04-.85,5.13-4.71,5.87,8.35,3.79,8.43-10.51,8.52-12.18.81-5.98-9.66-4.83-9.41,3.81.19,1.44,1.44,3.97,5.59,2.57Z"/>
      <path class="cls-1" d="M31.15,27.04c.85-8.77.15-13.7,2.52-14.99-7.58-1.17-2.34,15.32-6.45,17.39,1.52.05,2.81.3,3.92-2.41Z"/>
      <path class="cls-1" d="M22.53,21.37c.73,8.85-4.76,12.42-2.9.9l-2.67.28c.42,9.97-4.56,11.34-3.1.93l-2.44.19c-1.2,18.64-12.6,19.73-6.9.57l-2.48,2.75c-6.99,14.81,5.97,22.02,10.79,4.6,1.05,1.38,3.32,2.79,5.64-.96,5.38,3.97,7.03-5.21,6.87-9.47l-2.8.21Z"/>
      <path class="cls-1" d="M48.83,8.76c.61-.17,1.54-.38,2.91-.68.02-.39.05-.79.07-1.18-.87-.01-1.7.6-2.62-.03-.27-.18.19-1.76,2.05-.87l.69-1.22c-.95-.49-1.73-.59-3.06,0-1.35,1.03-1.31,2.64-.19,2.94-2.87,1.38-3.63,2.1.16,1.05Z"/>
      <path class="cls-1" d="M133.16,16.42c-5.13,5.17-4.08,14.51-6.66,17.55-.77,2.17-4.11,3.31-6.12.67l1.23-18.64c-9.42.42-6.4.26-9.24.68-2.98,26.03-2.5,35.51-14.95,37.15,13.26,7.78,21.58-6.84,20.73-12.39,2.91,1.46,5.33,2.08,7.54,1.72,2.21-.36,4.39-1.63,6.43-4.07,1.94-2.15,3.89-4.29,5.83-6.44.01-.01-4.09-5.14,1.01-13.31,4.59-6.2,9.79-1.41,7.73,6.31-1.22,4.59-3.71,8.55-8.74,7.01l-5.84,6.45c-.33.36,3.53,1.1,3.72,1.1,9.33-.14,14.66-2.95,18.07-12.4,5.44-21.53-11.5-20.72-20.74-11.39Z"/>
      <path class="cls-1" d="M103.29,43.12c3.11-25.13.54-39.26,9.26-42.95-27.83-3.34-8.59,43.89-23.68,49.85,5.59.14,10.32.87,14.41-6.9Z"/>
      <path class="cls-1" d="M69.72,38.68c3.55-1.64,9.57-2.35,18.08-4.23.15-2.44.29-4.89.44-7.33-5.39-.07-10.53,3.72-16.28-.22-1.66-1.14,1.18-10.91,12.68-5.39l4.25-7.55c-5.9-3.02-10.7-3.67-19,0-8.39,6.36-8.16,16.36-1.17,18.23-6.21,2.56-11.85,4.7-13.53,10.6-2.11,7.63,4.66,7.6,8.83,8.93,4.04,1.29-5.61,11.19-19.47,8.6-4.59-.86-6.71-13.41,2.25-25.56l-8.43-.95c-4.81,8.72-12.88,23.31-.58,31.61,8.52,4.75,29.96-2.15,34.33-12.42,5.91-13.88-20.22-6.1-2.42-14.32Z"/>
      <path class="cls-1" d="M76.61,55.83c-2.29,0-4.17,1.84-4.17,4.1s1.87,4.1,4.17,4.1,4.17-1.84,4.17-4.1-1.87-4.1-4.17-4.1Z"/>
      <path class="cls-1" d="M86.61,53.36c-2.29,0-4.17,1.84-4.17,4.1s1.87,4.1,4.17,4.1,4.17-1.84,4.17-4.1-1.87-4.1-4.17-4.1Z"/>
    </g>
  </g>
</svg>