<?xml version="1.0" encoding="UTF-8"?>
<svg id="Calque_2" data-name="Calque 2" xmlns="http://www.w3.org/2000/svg" viewBox="0 0 139.5 108.14">
  <defs>
    <style>
      .cls-1 {
        fill: #fff;
      }
    </style>
  </defs>
  <g id="Layer_2_copy" data-name="Layer 2 copy">
    <g>
      <polygon class="cls-1" points="75.47 30.39 75.47 35.01 75.07 35.01 74.83 30.42 75.47 30.39"/>
      <path class="cls-1" d="M29.57,44.68l-.34,13.85c-.59.23-1.64.36-3.15.41-.43.02-.73-.11-.84-.36-.04-1.21-.39-11.91.25-12.57,1.48-.68,2.85-1.12,4.08-1.32Z"/>
      <path class="cls-1" d="M37.11,44.66l-1.44,12.12c-.07.66-.37,1.19-.94,1.21l-3.97.18c-.2-4.91.05-9.42.78-13.6.18-.25.5-.39.98-.39l3.9-.27c.43,0,.66.25.68.75Z"/>
      <path class="cls-1" d="M118.91,35.01v17.73l-2.95-2.8c-.09-.76-.45-1.47-1.01-2.01-.64-.61-1.5-.95-2.39-.92l-34.14.98c-1.81.05-3.25,1.54-3.24,3.36v.87s-5.01-.21-5.01-.21c-.24-.36-.54-.66-.89-.9-1.35-3.5-3.81-6.25-7.04-7.88.25.05.51.07.77.06l5.85-.25c.06,0,.12,0,.17,0,.54.23,1.13.34,1.75.33.06,0,.12.01.19.01.29.02.7.05,1.15.05v1.05c0,1.84,1.49,3.33,3.33,3.33h3.4c.22,0,1.4-.02,2.36-.98.96-.95.98-2.14.98-2.36v-17.09c0-.58-.14-1.12-.4-1.59.28-.55.42-1.17.42-1.8,0-1.07-.42-2.09-1.18-2.85l-.5-.5c-.63-.63-1.47-.98-2.36-.98h-.01c-.89,0-1.74.36-2.36.99l-1.73,1.76c-.62.62-.96,1.47-.96,2.34v.26c-.33.33-.59.73-.76,1.17-1.37-.21-2.62-.32-3.73-.26-.54-1.29-1.68-2.09-2.81-2.35-.34-.08-.7-.1-1.05-.06-5.97.59-10,1.19-12.32,1.84-3.41.79-5.87,2.1-7.51,3.99-.28.32-.49.69-.63,1.09l-1.58,4.55-.82,2.36s-.02.07-.04.11c-.51.24-.99.49-1.44.74-1.33.74-1.97,2.27-1.62,3.71-.66-.48-1.47-.75-2.37-.75-.08,0-.16,0-.23.01l-3.81.27c-.91.02-1.62.25-2.18.56-.38-.07-.78-.08-1.17-.01-1.56.26-3.22.79-4.94,1.58-.03.02-.07.03-.1.05v-8.63L72.63,0l46.28,35.01Z"/>
      <path class="cls-1" d="M66.91,54.54c-5.12-14.64-22.49-6.6-25.42-1.25,6.32-12.7,23.42-11.6,25.42,1.25Z"/>
      <path class="cls-1" d="M29.57,44.68l-.34,13.85c-.59.23-1.64.36-3.15.41-.43.02-.73-.11-.84-.36-.04-1.21-.39-11.91.25-12.57,1.48-.68,2.85-1.12,4.08-1.32Z"/>
      <path class="cls-1" d="M37.11,44.66l-1.44,12.12c-.07.66-.37,1.19-.94,1.21l-3.97.18c-.2-4.91.05-9.42.78-13.6.18-.25.5-.39.98-.39l3.9-.27c.43,0,.66.25.68.75Z"/>
      <path class="cls-1" d="M66.91,54.54c-5.12-14.64-22.49-6.6-25.42-1.25,6.32-12.7,23.42-11.6,25.42,1.25Z"/>
      <path class="cls-1" d="M74.83,30.42l.24,4.59h.4v-4.61l-.64.02Z"/>
      <path class="cls-1" d="M91.35,69.14l-.05.07h.11l-.07-.07Z"/>
      <g>
        <path class="cls-1" d="M66.91,54.54c-1.99-12.85-19.1-13.95-25.42-1.25,2.92-5.36,20.3-13.39,25.42,1.25Z"/>
        <path class="cls-1" d="M77.91,24.67l.78-.78c.27-.27.27-.71,0-.98l-.5-.5-1.73,1.76v2.62h-.98v2.78c-1.78-.36-7.49-1.62-8.28-.36-1.03,1.6-1.42,3.59-1.48,5.8-.01.44,0,.89,0,1.34l-3.33.25c.02,1.42.18,2.33.5,2.76l5.89-.25c.32,0,.66-.16,1-.52.16.59.5.89,1.03.84.71.02,2.53.3,2.81-.41l-.07-1.62,1.67-.07-.12-2.32-.24-4.59.64-.02v13.48h3.4v-17.09h-.96v-2.12ZM70.47,39.06c-.36-.07-.64-.41-.66-.77l-.12-3.28-.14-3.84c0-.41.37-.69.78-.71l1.83-.04c.5-.02.93.23.96.64l.11,3.95.11,3.96c-.64.18-1.62.34-2.87.09Z"/>
        <path class="cls-1" d="M65.61,27.29l-2.53,7.72-.32.97c-6.3.87-11.71,1.94-16.27,3.17l-4.45,1.37c2.87-1.6,7.17-2.92,12.85-3.97l-.11-1.55-.03-.35c.5-.21,1.96-.48,7.14-2.01l-7.51,1.37c-.27-.21-.68-.37-1.21-.46l-3.13-.55c-1.03-.18-1.85.05-2.1.84l-.35,1.15-.72,2.37-1.83.48.99-2.85,1.41-4.07c1.16-1.35,3.1-2.33,5.82-2.94,2.05-.59,6-1.19,11.82-1.76.41.09.59.43.52,1.05Z"/>
        <path class="cls-1" d="M117.53,69.21c1.48-.71,2.23-1.92,2.21-3.63.66-.23.98-.64.94-1.23l-.18-4.29c-.11-.16-.25-.23-.46-.2l-.04-2.1-1.08-1.03-6.24-5.91-.02-1.07-34.14.98.02,2.92,9.36.69.07,1.14,10.13.23.02.5,4.24-.07c.64-.02,1.03.75.82,1.46-.68,2.28-.96,4.27-.78,6.19,0,.08.01.15.02.23.11.87-.32,1.69-1.09,1.71l-3.81.11.39-1.32c.07-.27.13-.51.19-.73.67-2.54.79-2.57.75-5.55-.12-.75-.34-1.3-.71-1.64-1.17.07-1.48.48-.91,1.26.16.92-.04,3.9-.4,5.93-.14.8-.31,1.45-.49,1.78-.37.07-.53-.07-.43-.43.1-.33.19-.8.28-1.35.29-1.84.5-4.56.54-5.68l-1.25-1.32c.07-.16.11-.27.18-.37l-8.35-.34-.71-.62-18.69-.8-.5-1.39h-.11c.96,2.12,1.6,4.13,1.94,6.03-.11-.98-.3-1.94-.5-2.88l6.48.14c-.11-.07-.23-.5-.37-1.3l5.89.21c-.21.78-.32,3.19-.39,7.26h.39c-.02-2.74.14-5.11.46-7.12l.46.02c-.25.84-.41,3.35-.48,7.53l-1.37.05-.2.34,1.25-.02-.16.27-.18.3h-10.11l-1.35.02-1.19-.32-.09-.02c-.14-11.2-10.43-18.21-14.81-6.07l-.77.04c-4.02.07-8.83.39-14.47.85-.62.04-1.16.43-1.78,1.25-.21.3-.59.48-1.07.5l-9.51.64c-.09-.59-.43-1-1.03-1.23-.11.08-.21.14-.31.19-1.16.59-1.48-.62-1.61,2.09l1.61-.11,1.47-.1c.83.16.81,1.19.83,1.96,0,.1,0,.19.01.27l-1.92.11-.03-.39-.13-1.6h-.24s-1.63.09-1.63.09c-.02.82,0,1.83.05,3.03.36,1.37,1.41,2.42,3.19,2.37l4.11-.09c.25.59.57,1.14.91,1.62H0v1.69h139.5v-1.69h-21.97ZM34.37,61l9.67-.64-6.96.73c-.43,2.47-1.51,2.21-3.51,2.37-.05-1.21.23-2.03.8-2.46ZM35.76,67.11l-4.52.27c-.59,0-.94-.2-1-.59,2.21-.11,3.99-.27,5.34-.5l-.09-1.05c.48.27.87.66,1,1.19.09.34-.18.66-.73.68ZM43.15,69.21c.21-.3.41-.64.57-.98l6.85-.55c.3.57.61,1.07.93,1.53h-8.35ZM23.03,65.29l1.12-.34c9.33-.89,18.57-.94,27.93-1.16-9.7.48-19.4.73-29.05,1.51ZM63.12,63.78c-.31,2.57-1.98,4.57-4.08,4.63-2.18.08-4.05-1.93-4.46-4.63-.04-.27-.07-.54-.08-.82-.12-3.1,1.73-5.71,4.13-5.78,2.4-.09,4.45,2.35,4.54,5.46.01.39,0,.77-.05,1.14ZM64.15,69.21c.12-.18.23-.37.34-.55l.68-1.3,12.03-.43c.14.25.39.39.75.41l2.99-.14c.32.82.73,1.51,1.19,2.01h-17.98ZM89.71,69.21c-1.55-.87-2.49-2.53-2.44-4.31.32,2.15,1.94,3.86,4.04,4.31l.05-.07.07.07h-1.71ZM99.63,69.21c.23-.25.41-.55.57-.89.27.36.53.66.78.89h-1.35ZM109.65,69.21c.12-.07.21-.16.3-.25.07.09.16.18.25.25h-.55ZM111.57,63.78c-.16,2.74-1.19,4.93-2.58,5.43h-1.23c-1.39-.51-2.56-2.67-2.87-5.43-.04-.32-.06-.65-.07-.98-.3-8.76,6.48-9.02,6.78-.23.01.41.01.82-.02,1.21ZM112.82,52.44l5.84,5.34-.87.05-4.98-4.52v-.87ZM116.25,68.39c-1.03,0-2.17-1.76-2.14-3.85,0-.26.02-.51.04-.75.16-1.75.76-3.05,1.67-3.03.9.02,1.74,1.31,1.91,3.03.03.25.04.51.03.78-.02,2.12-.48,3.85-1.51,3.83Z"/>
        <path class="cls-1" d="M26.08,58.94c1.51-.05,2.56-.18,3.15-.41l.34-13.85c-1.23.2-2.6.64-4.08,1.32-.64.66-.29,11.36-.25,12.57.11.25.41.39.84.36Z"/>
        <path class="cls-1" d="M34.73,57.98c.57-.02.87-.55.94-1.21l1.44-12.12c-.02-.5-.25-.75-.68-.75l-3.9.27c-.48,0-.8.14-.98.39-.73,4.17-.98,8.69-.78,13.6l3.97-.18Z"/>
      </g>
      <g>
        <path class="cls-1" d="M31.07,90.79c.33-.88.51-2.63.53-5.25v-1.26c0-1.24-.02-2.22-.05-2.94-.03-.72-.17-1.37-.4-1.96-.23-.58-.43-.99-.6-1.23-.17-.23-.56-.42-1.18-.56-.62-.14-1.17-.22-1.64-.23s-1.29-.02-2.44-.02H3.05v3.82h5.91v17.1h5.05v-17.1h9.76c.24,0,.55.02.91.07.37.04.61.09.73.13.12.04.28.13.48.26.2.13.32.28.37.45.04.17.1.39.18.68.08.29.12.6.13.93.01.33.02.74.02,1.23s0,.89-.02,1.21c-.01.32-.05.62-.12.9-.07.28-.12.5-.17.66-.05.17-.16.31-.33.43-.18.12-.32.21-.43.27-.11.05-.33.1-.66.13-.33.03-.61.05-.83.05h-2.36v-5.61h-5.05v15.3h5.05v-5.78h2.19l2.52,5.78h5.05l-2.59-5.88c1.15-.18,1.89-.71,2.22-1.59Z"/>
        <path class="cls-1" d="M47.11,77.44h-4.68v10.39c0,.6,0,1.37.03,2.32.02,1.97-.04,3.15-.18,3.55-.14.4-.59.6-1.34.6h-1.63c-.75,0-1.2-.2-1.33-.6-.13-.4-.2-1.58-.2-3.55.02-.95.03-1.73.03-2.32v-10.39h-4.68c-.05.95-.07,4.41-.07,10.39,0,4.74.22,7.63.65,8.68.43,1.05,1.79,1.6,4.07,1.64v.03h4.72v-.03c2.26-.05,3.6-.59,4.03-1.64.43-1.05.65-3.94.65-8.68,0-6.02-.02-9.48-.07-10.39Z"/>
        <path class="cls-1" d="M77.05,88.88c-.16-1.03-.32-1.67-.5-1.93-.18-.25-.54-.55-1.08-.88-.54-.33-1.1-.5-1.68-.51-.57-.01-1.44-.02-2.59-.02l6.11-8.1h-4.75l-4.82,6.41v-6.41h-4.75v16.97h-6.04c-1.79,0-2.83-.27-3.12-.8-.29-.53-.43-2.41-.43-5.65v-.13c0-3.25.15-5.15.47-5.69.31-.54,1.39-.81,3.25-.81h4.25v-3.88h-5.78c-2.5,0-4.09.12-4.78.36-.93.31-1.53,1.06-1.79,2.26-.24,1.02-.37,3.61-.37,7.77v.76c0,3.87.14,6.31.43,7.31.31,1.04.95,1.7,1.92,1.99.69.2,2.41.3,5.18.3h11.55v-8.8h2.12c.2,0,.46.02.78.07s.54.07.65.08c.11.01.26.09.45.25.19.15.3.27.35.35.05.08.12.27.22.58s.15.55.15.73.02.53.05,1.05c.03.52.05.95.05,1.28v4.42h4.75v-2.29c0-2.01,0-3.43-.02-4.25-.01-.82-.1-1.74-.25-2.77Z"/>
        <path class="cls-1" d="M90.67,77.44l-3.05,8.03h-.56l-3.05-8.03h-5.21l6.17,15.17v5.58h4.75v-5.58l6.18-15.17h-5.21Z"/>
        <path class="cls-1" d="M118.92,79.67c-.31-1.02-.95-1.66-1.93-1.92-.66-.2-2.38-.3-5.15-.3h-6.51v14.18h4.75v-10.29h.83c1.86,0,2.94.27,3.25.81.31.54.46,2.44.46,5.69v.13c0,3.19-.14,5.04-.41,5.56-.28.52-1.27.78-2.97.78h-5.91v3.88h6.97c2.57,0,4.19-.12,4.88-.37.95-.31,1.56-1.05,1.83-2.22.24-1.02.36-3.61.36-7.77v-.96c0-3.83-.15-6.23-.46-7.2Z"/>
        <path class="cls-1" d="M136.45,77.44h-4.72v.03h-10.79v4.72h10.79v.07l-10.79,9v6.94h15.51v-4.75h-9.43l9.43-7.87v-8.13Z"/>
      </g>
      <g>
        <path class="cls-1" d="M16.06,100.79v1.51h1.73v5.62h1.51v-5.62h1.73v-1.51h-4.97Z"/>
        <path class="cls-1" d="M26.47,105.59c.55-.55.82-1.21.82-1.99s-.27-1.44-.82-1.99c-.55-.55-1.21-.82-1.99-.82h-2.59v7.13h1.51v-1.51h1.08c.06,0,.13,0,.19-.01l.87,1.52h1.74l-1.17-2.03c.13-.09.24-.19.35-.3ZM25.4,104.51c-.25.25-.56.38-.92.38h-1.08v-2.59h1.08c.36,0,.66.13.92.38.25.25.38.56.38.91s-.13.66-.38.92Z"/>
        <path class="cls-1" d="M32.06,100.79h-1.12l-3.35,7.13h1.69l.4-.86h3.66l.41.86h1.67l-3.35-7.13ZM30.38,105.55l1.12-2.39,1.12,2.39h-2.25Z"/>
        <path class="cls-1" d="M40.68,100.79v4.2l-3.08-4.2h-1.24v7.13h1.51v-4.2l3.07,4.2h1.24v-7.13h-1.51Z"/>
        <path class="cls-1" d="M47.7,103.9l-1.68-.4c-.39-.17-.59-.39-.59-.68,0-.2.09-.37.28-.52s.45-.22.8-.22c.52,0,.95.18,1.29.55l1.17-.94c-.67-.75-1.51-1.12-2.54-1.12-.67,0-1.25.21-1.76.65-.5.43-.76,1.01-.76,1.73,0,.43.16.83.47,1.19.31.36.72.62,1.24.78l1.67.41c.24.11.37.29.39.52,0,.26-.11.45-.33.58-.22.13-.5.19-.84.19-.59,0-1.11-.3-1.57-.89l-1.24.84c.7,1.04,1.64,1.56,2.82,1.56.86,0,1.52-.23,1.99-.69.46-.46.69-.99.69-1.6,0-.92-.5-1.57-1.49-1.94Z"/>
        <path class="cls-1" d="M55.2,101.61c-.55-.55-1.21-.82-1.99-.82h-2.59v7.13h1.51v-1.51h1.08c.78,0,1.44-.27,1.99-.82.55-.55.82-1.21.82-1.99s-.27-1.44-.82-1.99ZM54.13,104.51c-.25.25-.56.38-.92.38h-1.08v-2.59h1.08c.36,0,.66.13.92.38.25.25.38.56.38.91s-.13.66-.38.92Z"/>
        <path class="cls-1" d="M63.34,101.68c-.74-.74-1.63-1.1-2.67-1.1s-1.94.37-2.68,1.1c-.74.74-1.11,1.63-1.11,2.67s.37,1.94,1.11,2.68c.74.74,1.63,1.11,2.68,1.11s1.93-.37,2.67-1.11c.74-.74,1.11-1.63,1.11-2.68s-.37-1.93-1.11-2.67ZM62.27,105.96c-.44.44-.98.66-1.6.66s-1.16-.22-1.61-.66c-.44-.44-.66-.98-.66-1.61s.22-1.15.66-1.6c.44-.44.98-.67,1.61-.67s1.16.22,1.6.67c.44.44.66.97.66,1.6s-.22,1.16-.66,1.61Z"/>
        <path class="cls-1" d="M70.32,105.59c.55-.55.82-1.21.82-1.99s-.27-1.44-.82-1.99c-.55-.55-1.21-.82-1.99-.82h-2.59v7.13h1.51v-1.51h1.08c.06,0,.13,0,.19-.01l.87,1.52h1.75l-1.18-2.03c.13-.09.25-.19.36-.3ZM69.25,104.51c-.25.25-.56.38-.91.38h-1.08v-2.59h1.08c.36,0,.66.13.91.38.25.25.38.56.38.91s-.13.66-.38.92Z"/>
        <path class="cls-1" d="M71.17,100.79v1.51h1.73v5.62h1.51v-5.62h1.73v-1.51h-4.97Z"/>
        <path class="cls-1" d="M85.03,105.59c.55-.55.82-1.21.82-1.99s-.27-1.44-.82-1.99c-.55-.55-1.21-.82-1.99-.82h-2.59v7.13h1.51v-1.51h1.08c.06,0,.13,0,.19-.01l.87,1.52h1.75l-1.18-2.03c.13-.09.25-.19.35-.3ZM83.96,104.51c-.25.25-.56.38-.92.38h-1.08v-2.59h1.08c.36,0,.66.13.92.38.25.25.38.56.38.91s-.13.66-.38.92Z"/>
        <path class="cls-1" d="M93.39,101.68c-.74-.74-1.63-1.1-2.67-1.1s-1.94.37-2.68,1.1c-.74.74-1.11,1.63-1.11,2.67s.37,1.94,1.11,2.68c.74.74,1.63,1.11,2.68,1.11s1.93-.37,2.67-1.11c.74-.74,1.11-1.63,1.11-2.68s-.37-1.93-1.11-2.67ZM92.32,105.96c-.44.44-.98.66-1.6.66s-1.16-.22-1.61-.66c-.44-.44-.66-.98-.66-1.61s.22-1.15.66-1.6c.44-.44.98-.67,1.61-.67s1.16.22,1.6.67c.44.44.66.97.66,1.6s-.22,1.16-.66,1.61Z"/>
        <path class="cls-1" d="M100.11,100.79v4.32c0,.41-.15.77-.44,1.07-.3.3-.65.44-1.07.44s-.78-.15-1.07-.44c-.29-.3-.44-.65-.44-1.07v-4.32h-1.51v4.32c0,.83.29,1.55.88,2.14.59.59,1.3.89,2.14.89s1.55-.3,2.14-.89c.59-.59.89-1.3.89-2.14v-4.32h-1.51Z"/>
        <path class="cls-1" d="M102.27,100.79v1.51h1.73v5.62h1.51v-5.62h1.73v-1.51h-4.97Z"/>
        <path class="cls-1" d="M108.11,100.79v7.13h1.51v-7.13h-1.51Z"/>
        <path class="cls-1" d="M116.1,102.3v-1.51h-4.75v7.13h4.75v-1.51h-3.24v-1.3h2.59v-1.51h-2.59v-1.29h3.24Z"/>
        <path class="cls-1" d="M121.97,105.59c.55-.55.82-1.21.82-1.99s-.27-1.44-.82-1.99c-.55-.55-1.21-.82-1.99-.82h-2.59v7.13h1.51v-1.51h1.08c.06,0,.13,0,.19-.01l.87,1.52h1.74l-1.17-2.03c.13-.09.24-.19.35-.3ZM120.9,104.51c-.25.25-.56.38-.92.38h-1.08v-2.59h1.08c.36,0,.66.13.92.38.25.25.38.56.38.91s-.13.66-.38.92Z"/>
      </g>
      <rect class="cls-1" x="77.92" y="43.9" width="4.27" height="5.52"/>
    </g>
  </g>
</svg>