<?xml version="1.0" encoding="UTF-8"?>
<svg id="Calque_2" data-name="Calque 2" xmlns="http://www.w3.org/2000/svg" xmlns:xlink="http://www.w3.org/1999/xlink" viewBox="0 0 149.92 57.32">
  <defs>
    <style>
      .cls-1 {
        filter: url(#drop-shadow-1);
      }

      .cls-2 {
        fill: #fff;
      }
    </style>
    <filter id="drop-shadow-1" x="0" y="0" width="149.92" height="57.32" filterUnits="userSpaceOnUse">
      <feOffset dx="0" dy="0"/>
      <feGaussianBlur result="blur" stdDeviation="3.85"/>
      <feFlood flood-color="#000" flood-opacity=".75"/>
      <feComposite in2="blur" operator="in"/>
      <feComposite in="SourceGraphic"/>
    </filter>
  </defs>
  <g id="Layer_2_copy" data-name="Layer 2 copy">
    <g class="cls-1">
      <line class="cls-2" x1="26.36" y1="53.97" x2="26.59" y2="42.95"/>
      <g>
        <path class="cls-2" d="M26.74,47.1c.19.08.22.28.19.45-.08.42,0,.84.02,1.26.06.82.14,1.64.22,2.46,0,.07.02.13.02.22.33-.03.64-.06,1-.09-.14-.34-.28-.66-.41-.99-.13-.33-.24-.66-.33-1,.24.2.36.5.48.79.12.29.21.59.36.89-.05-.23-.06-.47-.14-.69-.28-.75-.35-1.49-.11-2.24.02-.07.06-.14.1-.24-.17,2.14.06,1.88.2,2.62.02,0,.03,0,.05,0-.05-.35-.11-.7-.16-1.06,0,0,.01-.01.02-.02.07.17.16.33.2.51.05.22.06.45.1.67.05.25.11.49.17.73.02.07.08.12.1.16-.07-.58-.18-1.18-.21-1.77-.03-.62-.01-1.24.04-1.85.04-.55.23-1.03.52-1.46-.38,1.02-.32,2.13-.34,3.23.2-1.76.65-3.4,1.38-4.91-.16.47-.35.93-.47,1.42-.19.78-.35,1.58-.5,2.38-.07.39-.12.79-.14,1.2-.04.58-.01,1.16.16,1.73-.01-.09-.02-.17-.03-.26-.16-1.15.03-2.21.4-3.23.16-.43.33-.86.49-1.29.01-.03.03-.07.03-.11-.03-.55.26-.91.51-1.28.05-.08.18-.09.27-.13.11.17.05.31,0,.44-.13.29-.25.58-.4.86-.04.08-.14.12-.21.18-.05.04-.1.09-.13.16-.36,1-.58,2.05-.69,3.14-.05.46-.09.92-.13,1.39,0,.05,0,.09.04.15.03-.21.07-.42.09-.63.09-.8.19-1.59.45-2.33.15-.43.37-.81.62-1.15.01-.02.04-.02.08-.02-.3.72-.59,1.46-.77,2.25-.18.79-.32,1.6-.32,2.44.05.03.09.05.13.07.21.09.22.06.26-.2.09-.65.18-1.3.32-1.93.13-.61.3-1.21.5-1.79.13-.37.35-.69.53-1.04.02.01.04.03.06.04-.16.55-.3,1.1-.48,1.64-.29.9-.6,1.8-.75,2.76-.02.15-.05.3-.06.46,0,.05.03.11.05.17.04-.04.09-.07.11-.12.12-.35.22-.71.34-1.06.17-.46.56-1.08.77-1.24.02,0,.03.02.05.03-.34.82-.68,1.64-1.01,2.44.28.21.64.18.83.53,0,.03-.01.07-.02.1-.23-.03-.47-.07-.7-.1-.3-.05-.6-.13-.9-.14-.69-.04-1.39-.04-2.08-.06-.04,0-.08,0-.13.01.02.19.04.38.07.58.05.02.11.05.17.08-.11.21-.48.25-.6.08-.02-.03,0-.11,0-.18.08.04.14.06.22.1-.03-.23-.05-.43-.08-.69-.71.12-1.43.19-2.12.38-.68.19-1.34.49-2.01.73.39-.5.92-.72,1.47-.94-.06-.04-.12-.08-.2-.13.05-.07.08-.12.14-.2-.49-.84-.99-1.71-1.47-2.54.33.44.69.91,1.05,1.38-.35-1.07-.81-2.07-1.35-3.03.71,1.07,1.34,2.21,1.78,3.47.02-.01.04-.02.06-.03-.09-.35-.15-.7-.26-1.04-.44-1.3-1.07-2.49-1.74-3.65-.07-.11-.13-.23-.27-.23-.05,0-.12-.08-.16-.14-.16-.22-.32-.44-.47-.67-.16-.24-.31-.48-.48-.76.11.12.2.22.3.31.06.05.14.08.21.12.04.02.08.03.11.07.21.27.43.53.62.81.15.22.25.48.38.71.32.6.66,1.19.98,1.79.17.32.3.65.46,1-.06-.59-.36-1.73-1.01-2.91.09.14.18.27.27.42.34.57.61,1.18.82,1.84.28.89.4,1.81.52,2.73,0,.05.02.09.03.15.24-.11.47-.22.71-.3.24-.09.48-.16.73-.23.13-.04.16-.12.1-.26-.23-.58-.45-1.17-.68-1.75-.02-.05-.03-.1-.03-.16.45.42.64,1.01.9,1.59-.02-.14-.02-.28-.05-.41-.11-.43-.21-.86-.34-1.28-.1-.33-.21-.66-.22-1.02.21.56.42,1.1.61,1.65.14.42.25.85.19,1.3,0,.05,0,.11,0,.18.12-.01.23-.02.35-.03-.03-.36-.05-.72-.08-1.07-.09-.88-.18-1.76-.27-2.64-.02-.18-.05-.37-.07-.55.05-.05.09-.1.14-.15"/>
        <path class="cls-2" d="M34.7,39.4c-.2-.24-.39-.45-.56-.68-.55-.76-.86-1.66-1.28-2.5-.56-1.13-1-2.34-1.78-3.32-.42-.53-.96-.88-1.58-1.05-.99-.26-1.99-.46-2.98-.69-.41-.1-.81-.22-1.2-.37-.77-.31-.95-1.09-.68-1.86.33-.94.92-1.71,1.45-2.51.51-.75,1-1.52,1.11-2.46.05-.39,0-.78,0-1.18,0-.08-.02-.16-.02-.24l.08-.02c.04.32.11.63.11.95,0,1.02-.22,1.97-.85,2.81-.48.64-.95,1.29-1.26,2.05-.2.48-.36.97-.22,1.51.09.34.28.58.58.68.58.18,1.18.37,1.78.46.81.12,1.57.39,2.33.68,1.21.47,1.95,1.44,2.5,2.66.64,1.4,1.24,2.83,2.07,4.12.12.18.26.34.35.53.05.11.02.27.03.45"/>
        <path class="cls-2" d="M19.06,27.61c.27-.28.54-.55.81-.83.87-.89,1.74-1.78,2.61-2.67.3-.3.6-.6.9-.9.05-.05.14-.11.18-.09.35.19.65.02.94-.17.49.55,1.13.4,1.39-.35.04-.13.05-.32-.02-.42-.06-.09-.23-.08-.36-.12.06-.21.3-.35.54-.29.35.09.46.42.33,1,.07-.06.13-.11.19-.16,0,.38,0,.75,0,1.18-.12-.22-.21-.37-.29-.52-.19.44-.38.8-.77.9.12-.26.24-.54.36-.82l-.07-.07c-.39.3-.81.35-1.24.2-.04-.01-.11.04-.15.07-1.74,1.34-3.48,2.67-5.22,4.01-.03.02-.06.04-.1.06-.01-.02-.03-.03-.04-.05M22.03,24.82s.02.03.03.05c.59-.49,1.18-.99,1.77-1.48-.1-.03-.24-.06-.31,0-.5.47-.99.95-1.49,1.43"/>
        <path class="cls-2" d="M33.66,38.71c-.28-.22-.53-.48-.83-.66-.44-.27-.92-.49-1.38-.73-.87-.45-1.77-.87-2.62-1.37-.66-.39-1.29-.85-1.89-1.34-.66-.53-1.28-1.13-1.75-1.88-.11-.17-.21-.39-.22-.59-.01-.19.05-.44.16-.57.16-.18.41-.28.62-.41.01.02.03.05.04.07-.1.09-.22.17-.31.27-.28.32-.17.67-.02.98.24.53.6.95,1.06,1.27.68.48,1.36.96,2.05,1.42.33.22.68.4,1.04.58.75.37,1.52.71,2.27,1.09.58.29,1.08.7,1.5,1.22.14.18.22.41.33.61l-.05.02"/>
        <path class="cls-2" d="M23.72,22.79c.06-.32.13-.64.18-.97.05-.34.2-.62.45-.84.44-.38.92-.69,1.51-.66.44.02.75.26.97.43.48.36.69.79.79.98.48.99.62,2.86-.32,4.28-.28.42-.63.87-1.53,2.1-.09.12-.16.24-.24.37-.02-.01-.05-.02-.07-.04.12-.24.22-.49.36-.71.34-.54.69-1.07,1.04-1.6.6-.91.84-1.9.69-2.99-.1-.77-.36-1.44-.93-1.95-.83-.74-2.03-.41-2.45.69-.12.32-.28.64-.42.95-.01,0-.02-.02-.03-.03"/>
        <path class="cls-2" d="M27.1,43.59s.05-.04.07-.07c.33-.21.66-.41.97-.64.25-.18.47-.39.71-.57.05-.04.16-.03.22,0,.07.03.13.12.23.22-.24.16-.46.31-.68.45-.4.25-.8.49-1.2.74-.04.02-.06.08-.09.11-.08.04-.16.09-.24.13-.51.32-1.03.64-1.53.98-.3.21-.59.45-.87.69-.05.04-.11.09-.12.15-.1.41-.41.65-.62.97-.07.1-.09.24-.12.31.21.08.36.14.52.2-.04.1-.05.19-.09.25-.08.11-.18.28-.27.29-.14.01-.33-.06-.42-.16-.14-.16-.23-.37-.32-.57-.1-.23.04-.41.27-.4.28.01.43-.23.3-.52-.14.05-.06.42-.35.28.13-.29.24-.58.4-.83.08-.12.25-.18.39-.26.73-.43,1.47-.86,2.19-1.29.22-.13.44-.29.65-.44"/>
        <path class="cls-2" d="M25.26,52.76c.22-.02.45,0,.66-.06.2-.05.4-.15.58-.26.07-.04.09-.18.13-.27-.08-.02-.16-.08-.24-.07-.57.08-1.1-.05-1.62-.23-.06-.02-.12-.04-.19-.07,0,.35.35.27.47.5-.32.1-.58.03-.83-.1-.33-.17-.63-.39-.78-.76-.05-.11-.04-.27,0-.4.02-.06.15-.08.22-.13.02.07.05.15.04.22-.03.23.04.33.28.36.04-.49.48-.84.94-.71-.04.07-.08.12-.12.17-.2.22-.19.47.07.59.45.21.92.39,1.44.31.3-.05.38-.22.2-.56.09.02.16,0,.19.04.15.14.28.3.24.55-.01.09.04.18.07.27.09-.03.18-.06.27-.09.04-.02.07-.06.12-.09.09-.05.18-.09.27-.14-.02.13,0,.31-.07.37-.24.22-.49.45-.77.6-.43.23-.9.27-1.37.14-.08-.02-.16-.08-.24-.12.01-.02.02-.05.03-.07"/>
        <path class="cls-2" d="M24.05,27.08c-.19.25-.4.49-.57.76-.51.84-.9,1.75-.97,2.75-.04.54-.02,1.09.04,1.62.06.56.06,1.12-.05,1.68-.03.13-.09.26-.15.38.14-.77-.07-1.48-.18-2.21-.14-.92-.11-1.82.26-2.72.41-.99,1.01-1.85,1.6-2.71.47-.69.91-1.42,1.36-2.13.03-.05.06-.1.1-.12.21-.15.43-.29.68-.45-.21.31-.4.61-.6.9-.43.63-.86,1.25-1.29,1.87-.05.08-.09.18-.13.27-.03.04-.06.07-.1.11"/>
        <path class="cls-2" d="M26.84,33.39c.34-.27.73-.41,1.15-.44,1.03-.08,1.89.33,2.67.98.98.81,1.65,1.89,2.25,3.04.01.02.02.04,0,.08-.2-.28-.4-.56-.6-.83-.67-.89-1.4-1.73-2.31-2.34-.91-.61-1.92-.78-2.99-.51-.05.01-.11.02-.16.03"/>
        <path class="cls-2" d="M27.37,33.75c.6-.18,1.17-.12,1.74.06.96.3,1.66.99,2.31,1.74.28.32.53.68.79,1.01.05.06.1.11.16.17l-.07.07c-.19-.17-.38-.34-.56-.52-.72-.69-1.48-1.31-2.32-1.82-.46-.28-.95-.5-1.47-.63-.19-.04-.38-.05-.57-.08"/>
        <path class="cls-2" d="M31.56,34.1c-.25-.28-.47-.56-.72-.8-.45-.45-.95-.79-1.53-1.05-.78-.35-1.58-.32-2.37-.1-.36.1-.69.35-1.05.54.03-.27.2-.48.42-.67.34-.29.76-.38,1.15-.34.67.07,1.35.18,1.99.39.81.27,1.41.89,1.9,1.63.07.11.14.23.21.34,0,0,0,.02-.01.07"/>
        <path class="cls-2" d="M26.9,23.89c-.13.41-.22.84-.38,1.23-.29.71-.78,1.27-1.24,1.85-.47.59-.93,1.21-1.11,1.98-.1.42-.1.86-.14,1.26-.23-.48-.21-1-.03-1.54.28-.89.85-1.59,1.41-2.3.59-.75,1.14-1.51,1.41-2.47,0-.01.02-.02.03-.03.02,0,.04.01.06.02"/>
        <path class="cls-2" d="M24.05,27.08s.07-.08.1-.11c.4-.53.81-1.06,1.21-1.6.08-.1.16-.21.28-.29-.13.2-.25.4-.38.6-.55.88-1.14,1.74-1.65,2.66-.49.89-.65,1.9-.77,2.91-.02.13-.03.27-.04.4,0,.03-.02.06-.06.14-.17-1.03-.05-1.98.35-2.87.25-.57.59-1.09.89-1.64.04-.06.05-.14.08-.21"/>
        <path class="cls-2" d="M26.4,33.08c.17-.36.46-.58.8-.71.85-.33,1.66-.27,2.39.27.46.34.88.72,1.32,1.09.04.04.07.1.09.17-.24-.19-.48-.38-.73-.56-.68-.48-1.43-.79-2.26-.78-.57,0-1.11.19-1.61.52"/>
        <path class="cls-2" d="M28.19,51.56c.18.19.34.31.45.47.18.25.13.56-.14.78-.37.31-.78.5-1.25.47-.09,0-.17-.05-.26-.07,0-.03-.01-.05-.02-.08.16-.1.31-.2.47-.29.29-.16.56-.35.68-.69.05-.15.04-.33.07-.58"/>
        <path class="cls-2" d="M33.32,41.18c.9.48,1.84.45,2.81.22-.22.39-.82.69-1.31.66-.63-.05-1.15-.29-1.5-.88"/>
        <path class="cls-2" d="M24.62,27.12c-.17.27-.32.55-.5.81-.47.71-.57,1.46-.34,2.27.12.41.21.84.11,1.28-.03.12-.09.22-.12.28-.09-.41-.17-.83-.29-1.24-.19-.7-.09-1.39.21-2.03.23-.5.55-.95.82-1.43.03.02.06.04.1.06"/>
        <path class="cls-2" d="M30.99,36.17c-.98-.59-1.95-1.18-2.93-1.77.62-.02,1.19.13,1.67.53.44.37.86.77,1.29,1.16l-.04.08Z"/>
        <path class="cls-2" d="M37.05,40.67c-.42.36-.86.46-1.34.32-.53-.16-.81-.57-.97-1.16.69.58,1.39.99,2.31.84"/>
        <path class="cls-2" d="M33.16,40.51c.11.03.2.02.24.07.47.51,1.06.71,1.72.73.09,0,.18.03.28.05-1.12.17-1.92-.12-2.62-.8-.11-.11-.16-.28-.22-.43-.01-.04.05-.15.09-.16.07-.02.18,0,.22.04.12.17.22.36.3.5"/>
        <path class="cls-2" d="M23.2,30.34c.3.82.32,1.62.11,2.44-.35-.77-.21-1.58-.11-2.44"/>
        <path class="cls-2" d="M25.71,32.46c-.27-.52-.2-.87.3-.97.34-.06.69-.06,1.04-.08v.08c-.15.03-.32.05-.47.09-.44.11-.75.37-.86.88"/>
        <path class="cls-2" d="M34.99,41.01c-.46.12-1.09-.19-1.35-.64.06-.05.11-.13.18-.15.08-.03.23-.04.25,0,.2.38.52.59.92.79"/>
        <path class="cls-2" d="M36.59,40.42c-.14,0-.29.02-.41-.04-.58-.28-1.23-.47-1.42-1.33.54.6,1.11,1.08,1.84,1.3,0,.02,0,.05,0,.07"/>
        <path class="cls-2" d="M24.18,22.51c.17-.27.29-.61.51-.8.19-.16.5-.16.76-.24,0,.03.02.05.03.08-.42.34-.83.68-1.25,1.02-.02-.02-.04-.05-.06-.07"/>
        <path class="cls-2" d="M24.31,29.41c-.17-.58.45-1.68.92-2.03-.3.67-.61,1.36-.92,2.03"/>
        <path class="cls-2" d="M29.25,52.35c.24.15.27.51.05.7-.17.15-.4.22-.6.31-.03.01-.09-.04-.13-.07.02-.04.04-.1.07-.11.35-.14.54-.42.61-.82"/>
        <path class="cls-2" d="M24.86,21.18c.55-.46,1.43-.27,1.86.31-.6-.32-1.18-.42-1.86-.31"/>
        <path class="cls-2" d="M33.68,39.96c-.08.04-.16.07-.24.12-.14-.15-.29-.31-.44-.46,0-.02,0-.04,0-.06.16.02.31.04.48.07-.03.08-.05.14-.08.2.11,0,.37-.28.26.14h.01"/>
        <path class="cls-2" d="M33.68,39.96h-.01c.05.03.11.05.16.08-.04.06-.06.13-.11.17-.02.02-.08-.02-.12-.03.03-.07.06-.15.09-.22"/>
        <polygon class="cls-2" points="27.02 53.98 26.68 53.97 26.91 42.95 27.25 42.95 27.02 53.98"/>
        <path class="cls-2" d="M27.1,43.59c-.16.04-.16-.09-.17-.19-.14-1.57-.29-3.14-.41-4.71-.02-.24-.15-.36-.32-.47-1.08-.7-1.99-1.61-2.67-2.75-.39-.66-.62-1.38-.66-2.17,0-.14.02-.27.05-.41.08.67.09,1.36.6,1.87-.01-.22-.03-.45-.04-.74.12.29.21.52.34.83.11-.15.19-.22.22-.31.17-.44.03-.84-.12-1.23-.02-.05-.03-.1-.03-.15.41.41.48.95.41,1.52-.06.43-.18.86-.04,1.3.03-.28.06-.55.09-.83.03,0,.05,0,.08-.01,0,.67.2,1.27.56,1.78.36.52.86.83,1.41,1.1-.04-.2-.1-.38-.12-.57-.01-.17-.05-.36.13-.52-.03.88.38,1.4,1.07,1.71.39.17.79.32,1.19.47.08.03.19,0,.35,0-.36-.35-.37-.77-.41-1.18-.02-.26-.09-.52-.14-.79.22.14.31.41.37.68.13.65.29.91.85,1.25-.13-.36-.25-.71-.39-1.11.22.24.45.46.66.7.5.6,1.12.79,1.86.68.4-.06.65.07.85.49-.16.08-.32.17-.53.28.16.04.36-.09.34.19-1.21-.25-2.47-.3-3.7-.78.03.23.04.43.09.63.11.45.25.88.36,1.33.08.31.12.62.15.95-.19-.17-.38-.31-.48-.6-.3-.86-.64-1.71-1-2.55-.06-.13-.26-.2-.44-.33-.02.29-.04.5-.06.7-.06.95-.12,1.9-.17,2.85-.01.22,0,.44.04.65.03.16,0,.27-.11.38-.02.02-.05.04-.07.07"/>
        <path class="cls-2" d="M31.9,39.04c-.62.33-1.17.07-1.61-.42-.18-.2-.35-.41-.53-.63.34-.02.63.14.89.33.39.28.73.67,1.26.71"/>
        <path class="cls-2" d="M33.7,39c-.51-.34-1-.71-1.53-1.01-.56-.31-1.16-.53-1.73-.81-.5-.24-.99-.49-1.47-.75-1.03-.55-1.96-1.27-2.79-2.12-.6-.61-1.13-1.28-1.47-2.11-.14-.32-.1-.54.16-.76.16-.13.35-.23.58-.37-.37.03-.68.06-.97.23-.28.16-.37.36-.32.68.02.09.05.17.07.26-.09.07-.11.23-.1.37-.08.77-.11,2.29.8,3.81.24.4.87.93,1.13,1.21.09.15.05-1.45.45-1.06,0,.15,0,.95.66,1.58.48.46,1.03.57,1.23.6-.16-1.17.07-1.51.28-1.62.03-.01.06-.01.09-.02.18.1.35.21.53.31.86.51,1.78.85,2.69,1.23.51.21,1.01.48,1.5.74.21.11.4.28.6.43-.06-.31-.09-.65-.37-.84ZM26.08,35.76c-.04.29-.11.58-.16.87-.96-.25-1.6-1.74-1.24-2.62.02.63.13,1.18.61,1.61-.02-.25-.03-.43-.04-.62.01,0,.02,0,.04,0,.1.25.19.49.29.75.25-.21.31-.69-.04-1.4.44.27.65.81.56,1.42ZM26.76,36.14c.11.48.16,1.01.6,1.29-.03-.21-.06-.37-.09-.53q.3.48.48.58c.17-.46-.02-.79-.25-1.12.21,0,.48.27.57.59.04.14.04.29.06.44.02.13.02.27.04.4.02.12.06.23.09.35-.97-.05-1.77-.86-1.51-2Z"/>
      </g>
      <path class="cls-2" d="M61.94,47.7c1.1.37,1.69,1.3,1.77,2.8v.29c0,.13,0,.2,0,.22-.02.58-.17,1.11-.46,1.57-.32.52-.8.94-1.43,1.26-.3.15-.69.26-1.15.33h-3.51c-.47-.07-.85-.18-1.16-.33-.65-.32-1.14-.74-1.48-1.26-.3-.46-.48-.98-.52-1.57v-.22s-.08-3.43-.08-3.43h2.65l.07,3.18c.1.75.79,1.13,2.08,1.13h.27c1.29,0,1.98-.38,2.05-1.13,0-.02,0-.03,0-.03,0-.02,0-.08,0-.19h-1.75c-.35-.38-.58-.64-.69-.78-.27-.38-.46-.72-.57-1.03-.21-.65-.24-1.28-.09-1.89.15-.59.48-1.11.97-1.58.31-.29.82-.77,1.66-.89.8-.12,1.44.15,1.69.27-.13.03-1.13.28-1.58,1.27-.47,1.01.04,1.93.1,2.04.38,0,.77-.02,1.15-.02M58.02,56.96c.25-.24.36-.52.36-.86,0-.34-.14-.63-.39-.87-.26-.24-.56-.35-.91-.35s-.65.12-.89.35c-.25.24-.36.53-.36.87s.14.63.39.86c.25.24.55.36.91.36s.65-.12.9-.36M59.19,55.6c-.07.15-.1.32-.1.49,0,.34.14.63.4.86.25.24.55.36.91.36s.65-.12.9-.36c.24-.24.36-.52.35-.86,0-.34-.14-.63-.39-.87-.26-.24-.56-.35-.91-.35s-.65.12-.89.35c-.11.11-.2.24-.26.38"/>
      <path class="cls-2" d="M70.89,42.4c-.35,0-.65.12-.89.35-.24.24-.36.53-.36.87,0,.34.14.63.39.87.25.24.55.37.91.37s.65-.12.9-.37c.25-.24.36-.52.36-.87,0-.34-.14-.63-.39-.87-.25-.24-.56-.35-.91-.35"/>
      <path class="cls-2" d="M77.74,47.09l-.05-2.54c1.34-.71,2.11-1.93,1.94-3.08-.08-.53-.34-.95-.6-1.25,1.01.16,1.85.84,2.18,1.76.32.89.1,1.88-.56,2.57h2.78c.13,0,.21,0,.23,0,.61.03,1.16.19,1.64.47.55.32.99.78,1.34,1.4.16.29.29.66.37,1.11l.08,4.14h-10.24l-.05-2.48h7.63v-.1c-.03-1.24-.43-1.9-1.21-1.99h-.23s-5.24-.01-5.24-.01Z"/>
      <path class="cls-2" d="M76.93,41.32h-5.12c.7.18,1.37.65,1.38,1.3,0,0,.13,6.62.14,7.13,0,.24.1.46.1.46,0,.03.08.25.2.45.26.44.71.69.88.78.59.29,1.14.25,1.36.23h1.47l-.05-2.48h-.37c-.51,0-.8-.13-.88-.38-.07-.14-.11-.45-.12-.91h0c-.03-1.61-.07-3.68-.1-5.26-.01-.61.53-1.08,1.06-1.1.47-.02.9.33.91.79,0,.14-.06.41-.22.47.16-.26-.05-.55-.35-.55-.21,0-.36.16-.35.37-.02.31.24.45.48.45.47,0,.69-.33.69-.73-.01-.55-.49-1.02-1.08-1.02"/>
      <path class="cls-2" d="M65.63,52.18s-.13-6.55-.19-9.54c-.01-.61-.57-1.08-1.1-1.1-.47-.02-.89.33-.88.8,0,.14.07.41.24.47-.18-.26.03-.55.33-.55.21,0,.36.16.37.37.03.31-.22.45-.46.45-.47,0-.71-.33-.72-.73-.01-.55.45-1.02,1.04-1.02h5.12c-.7.18-1.35.65-1.33,1.3l.19,9.56h-2.61Z"/>
      <path class="cls-2" d="M72.37,47.1c.05.31.89,5.95-2.2,8.05-1.1.75-2.35.83-2.35.83-1.27.08-2.99-.35-3.54-1.47-.18-.36-.26-.91-.08-1.27.17-.31.52-.54.92-.54.58,0,1.06.45,1.07,1.01.01.56-.63,1.01-1.03,1.01s-.38-.07-.54-.15c.71,1.14,2.81,1.01,3.89.08,1.86-1.6,1.24-5.32,1.19-7.51l2.66-.04Z"/>
      <path class="cls-2" d="M58.92,45.03c.32-.32.99-.88,1.98-1.04,1.4-.23,3.01.4,3.54,1.47.18.36.26.91.08,1.27-.17.31-.52.54-.92.54-.58,0-1.06-.45-1.07-1.01-.01-.56.63-1.01,1.03-1.01s.38.07.54.15c-.41-.56-1.1-.87-1.8-.82-.7.06-1.31.48-1.6,1.09-.59-.22-1.18-.43-1.77-.65"/>
      <path class="cls-2" d="M53.94,48.58c0-.52-.01-1.04-.02-1.56,0-.52-.12-1.14-.55-1.64-.53-.63-1.18-.81-1.18-.81,0,0,2.61-.53,3.75.9.32.4.44.82.49,1.08,0,0,.11.28.12.84"/>
      <path class="cls-2" d="M43.38,41.63c-.21,0-.41,0-.62.02-.14,0-.27-.02-.41-.02-3.45,0-6.15,2.04-6.1,4.6.05,2.57,3.95,4.6,6.28,4.6.28,0,.53,0,.75-.01.09,0,.19.01.28.01.74,0,1.23-.03,1.6-.09-2,2.06-5.47,3.05-9.27,3.13-4.32-.08-8.92-1.28-12.13-3.34-11.31-7.32-12.06-24.68-8.59-34.35C18.35,7.36,25.84,1.32,32.13,1.32c.01,0,.02,0,.04,0,3.46.16,5.73,2.08,5.23,4.83-4.04,6.34-5.23,12.01-2.51,14.05.93.7,2.18,1.12,2.18,1.12,1.05.35,2.23.51,3.56.46,1.54.07,3.29-.17,5.24-.82-1.74.06-3.07-.23-4.08-.78-2.25-1.24-2.5-3.45-2.63-4.65C38.49,9.17,50.85.86,52.1.04h0,0,0-19.99c-.72-.03-1.43-.04-2.13-.03C17.02-.2,7.33,6.34,2.87,15.59-3.95,29.85.33,56.65,27.12,56.65c.23,0,.46,0,.69,0,.11,0,.22,0,.34,0,8.22,0,17.62-2.04,20.57-6.72.98-1.66,1.34-4.15.19-5.81-1.04-1.43-3.2-2.49-5.53-2.49"/>
      <path class="cls-2" d="M72.19,38.21s-1.95-.46-3.51-1.89c-1.05-.97-1.59-2.26-1.62-3.85l-.14-13.99c-.4-6.46-5.94-10.31-14.82-10.31-.09,0-.18,0-.27.01-.25,0-.5-.01-.75-.01-5.25,0-9.46,3.18-9.38,7.08.05,2.69,1.84,4.29,4.78,4.29.17,0,.33,0,.49-.02.17.01.35.02.53.02,2.59,0,4.6-1.51,4.56-3.44-.04-1.85-2.61-3.44-4.69-3.44-.22,0-.42,0-.61.02-.14-.01-.28-.02-.41-.02-.26,0-.49.01-.7.03,1.16-1.64,3.41-2.78,5.96-2.91,2.82.15,4.34,1.59,4.77,4.52-.31,1.93-4.16,4.36-7.87,6.72-2.57,1.63-5,3.16-6.48,4.63-2.9,2.92-3.55,6.09-1.78,8.68,1.49,2.19,4.44,3.51,7.88,3.53.18,0,.38,0,.58-.01.15,0,.29.01.44.01,1.87,0,4.71-.38,7.65-2.17.25-.14.48-.29.71-.45.28.49.63.94,1.05,1.35,2.24,2.19,6.07,2.65,8.92,2.65.17,0,.34,0,.51,0,.17,0,.35,0,.52,0,2.01,0,3.53-.23,3.68-.25.24-.04.41-.19.41-.37,0-.18-.15-.34-.38-.4M51.88,34.1c-2.26-.99-3.74-3.81-3.29-6.27.61-3.35,2.99-5.11,5.52-6.97.8-.59,1.62-1.2,2.38-1.86l.02,12.56c.02,1.18-.76,1.73-1.62,2.23-.62.35-1.23.55-1.84.63-.39-.05-.78-.15-1.16-.32"/>
      <path class="cls-2" d="M125.24,38.21s-1.95-.46-3.51-1.89c-1.05-.97-1.59-2.26-1.62-3.85l-.14-13.88v-.11c-.4-6.46-5.94-10.31-14.82-10.31-.09,0-.18,0-.27.01-.25,0-.5-.01-.75-.01-5.25,0-9.46,3.18-9.38,7.08.05,2.69,1.84,4.29,4.78,4.29.17,0,.33,0,.49-.02.17.01.35.02.53.02,2.59,0,4.6-1.51,4.56-3.44-.04-1.85-2.61-3.44-4.69-3.44-.22,0-.42,0-.61.02-.14-.01-.28-.02-.41-.02-.26,0-.49.01-.7.03,1.16-1.64,3.41-2.78,5.96-2.91,2.82.15,4.34,1.59,4.77,4.52-.31,1.93-4.15,4.36-7.87,6.72-2.57,1.63-5,3.16-6.48,4.63-2.9,2.92-3.55,6.09-1.78,8.68,1.49,2.19,4.44,3.51,7.88,3.53.18,0,.38,0,.58-.01.15,0,.29.01.44.01,1.87,0,4.71-.38,7.65-2.17.25-.14.48-.29.71-.45.28.49.63.94,1.05,1.35,2.24,2.19,6.07,2.65,8.92,2.65.17,0,.34,0,.51,0,.17,0,.35,0,.52,0,2.01,0,3.53-.23,3.68-.25.24-.04.41-.19.41-.37,0-.18-.15-.34-.38-.4M104.93,34.1c-2.26-.99-3.74-3.81-3.29-6.27.61-3.35,2.99-5.11,5.52-6.97.8-.59,1.62-1.2,2.38-1.86l.02,12.56c.02,1.18-.76,1.73-1.62,2.23-.62.35-1.23.55-1.84.63-.39-.05-.78-.15-1.16-.32"/>
      <path class="cls-2" d="M84.06,20.25c-2.55-2.38-4.96-4.62-5.37-6.65-.33-1.73.45-3.16,1.79-3.38,3.05.33,5.68,3.51,6.31,5.37.07.2.32.33.59.3.22-.02.39-.14.44-.3.07.19.32.32.58.3.27-.02.47-.19.46-.39l-.14-6.94c0-.22-.25-.4-.54-.4h-10.28c-4.21,0-7.11,1.73-7.94,4.75-1.3,4.36,3.11,8.56,7,12.27,1.59,1.51,3.09,2.94,4.11,4.28,1,1.31,1.61,4.52-.14,5.66-.36.24-.84.39-1.4.45-2.64-.27-5.35-2.84-7.01-6.69-.08-.19-.34-.31-.6-.28-.21.03-.37.14-.42.29,0,0,0,0,0-.01-.08-.19-.34-.31-.6-.28-.26.03-.45.2-.44.4l.3,6.03c0,.11.07.21.18.28.91.61,1.91,1.12,2.99,1.52,1.83.67,3.88,1.03,5.97,1.03.18,0,.36,0,.53,0,.01,0,.02,0,.04,0,.15,0,.3,0,.45,0,.18,0,.36,0,.53,0,3.1,0,5.87-1.14,7.62-3.11,2.01-2.27,2.35-5.27.9-7.81-1.29-2.34-3.65-4.54-5.93-6.67"/>
      <path class="cls-2" d="M136.35,8.16c-.18,0-.37,0-.55.01-.16,0-.31-.01-.47-.01-6.92,0-13.98,5.34-13.8,14.27.18,9.08,6.43,15.42,15.19,15.42.18,0,.36,0,.54-.01.16,0,.32.01.49.01,3.78,0,7.21-1.24,9.4-3.38,1.63-1.46,2.41-3.21,2.18-4.91-.01-.38-.09-.76-.24-1.13-.6-1.63-2.36-2.64-4.59-2.64-.17,0-.33,0-.49.02-.17-.01-.35-.02-.53-.02-2.5,0-4.66,1.61-4.62,3.44.04,1.93,2.64,3.49,4.76,3.49.22,0,.42,0,.61-.02.14.01.27.02.41.02.22,0,.42,0,.61-.02-1.45,1.89-4.26,3.25-7.04,3.39-.24-.01-.48-.04-.71-.07-6.29-.95-6.59-8.77-6.67-12.79h18.59c.29,0,.53-.18.53-.4-.12-5.9-3.83-14.67-13.57-14.67M130.78,20.69c.28-6.56,2.96-10.28,5.09-10.81,2.06.53,4.27,4.28,4.73,10.81h-9.81Z"/>
      <path class="cls-2" d="M43.38,41.63c-3.45,0-6.15,2.04-6.1,4.6.05,2.57,3.95,4.6,6.28,4.6s2.23-.3,3.13-.68c-3.96,5.21-16.35,4.6-22.93.38-11.31-7.32-12.06-24.68-8.59-34.35C18.35,7.36,25.84,1.32,32.13,1.32c4.05-.23,6.83,1.81,6.29,4.83-4.04,6.34-5.23,12.01-2.51,14.05.93.7,2.18,1.12,2.18,1.12,2.06.68,4.67.66,7.78-.36-1.74.06-3.07-.23-4.08-.78-2.25-1.24-2.5-3.45-2.63-4.65C38.49,9.17,50.85.86,52.1.04h0,0,0-19.99C18.6-.57,8.48,6.08,3.9,15.59-2.93,29.85,1.36,56.65,28.15,56.65c8.22,0,17.62-2.04,20.57-6.72.98-1.66,1.34-4.15.19-5.81-1.04-1.43-3.2-2.49-5.53-2.49"/>
      <path class="cls-2" d="M125.24,38.21s-1.95-.46-3.51-1.89c-1.05-.97-1.59-2.26-1.62-3.85l-.14-13.88v-.11c-.4-6.46-5.94-10.31-14.82-10.31-5.25,0-9.46,3.18-9.38,7.08.05,2.69,1.84,4.29,4.78,4.29,2.59,0,4.6-1.51,4.56-3.44-.04-1.85-2.61-3.44-4.69-3.44-.82,0-1.41.09-1.87.24,1.18-1.88,3.76-3.14,6.64-3.14,3.13,0,4.8,1.44,5.26,4.54-.31,1.93-4.15,4.36-7.87,6.72-2.57,1.63-5,3.16-6.48,4.63-2.9,2.92-3.55,6.09-1.78,8.68,1.49,2.19,4.44,3.51,7.88,3.53,1.87,0,4.71-.38,7.65-2.17.53-.29,1-.63,1.43-1.05.31.72.76,1.37,1.35,1.95,2.24,2.19,6.07,2.65,8.92,2.65,2.01,0,3.53-.23,3.68-.25.24-.04.41-.19.41-.37,0-.18-.15-.34-.38-.4M110.56,18.04l.02,13.52c.02,1.18-.76,1.73-1.62,2.23-1.38.77-2.73.88-4.03.31-2.26-.99-3.74-3.81-3.29-6.27.61-3.35,2.99-5.11,5.52-6.97,1.18-.87,2.38-1.75,3.4-2.82"/>
      <path class="cls-2" d="M84.06,20.25c-2.55-2.38-4.96-4.62-5.37-6.65-.33-1.78.48-3.24,1.89-3.4,3.43-.32,6.54,3.34,7.24,5.39.07.2.32.33.59.3.27-.02.47-.19.46-.39l-.14-6.94c0-.22-.25-.4-.54-.4h-9.26c-4.21,0-7.11,1.73-7.94,4.75-1.3,4.36,3.11,8.56,7,12.27,1.59,1.51,3.09,2.94,4.11,4.28,1,1.31,1.61,4.52-.14,5.66-.5.32-1.2.49-2.04.47-2.75-.04-5.65-2.68-7.39-6.72-.08-.19-.34-.31-.6-.28-.26.03-.45.2-.44.4l.3,6.03c0,.11.07.21.18.28.91.61,1.91,1.12,2.99,1.52,1.83.67,3.88,1.03,5.97,1.03.18,0,.36,0,.53,0,3.1,0,5.87-1.14,7.62-3.11,2.01-2.27,2.35-5.27.9-7.81-1.29-2.34-3.65-4.54-5.93-6.67"/>
      <path class="cls-2" d="M136.35,8.16c-6.92,0-13.98,5.34-13.8,14.27.18,9.08,6.43,15.42,15.19,15.42,3.78,0,7.21-1.24,9.4-3.38,1.63-1.46,2.4-3.21,2.18-4.91,0-.38-.09-.76-.24-1.13-.6-1.63-2.36-2.64-4.59-2.64-2.5,0-4.66,1.61-4.62,3.44.04,1.93,2.64,3.49,4.76,3.49.77,0,1.32-.07,1.76-.19-1.7,2.38-5.54,3.98-8.91,3.49-6.29-.95-6.59-8.77-6.67-12.79h18.59c.29,0,.53-.18.53-.4-.12-5.9-3.83-14.67-13.57-14.67M130.78,20.69c.3-7.1,3.42-10.88,5.6-10.88s4.74,3.81,5.23,10.88h-10.84Z"/>
      <path class="cls-2" d="M42.35,41.63c-3.45,0-6.15,2.04-6.1,4.6.05,2.57,3.95,4.6,6.28,4.6s2.23-.3,3.13-.68c-3.96,5.21-16.35,4.6-22.93.38-11.31-7.32-12.06-24.68-8.59-34.35C17.32,7.36,24.81,1.32,31.11,1.32c4.05-.23,6.83,1.81,6.29,4.83-4.04,6.34-5.23,12.01-2.51,14.05.93.7,2.18,1.12,2.18,1.12,2.06.68,4.67.66,7.78-.36-1.74.06-3.07-.23-4.08-.78-2.25-1.24-2.5-3.45-2.63-4.65C37.47,9.17,49.82.86,51.07.04h0,0,0-19.99C17.57-.57,7.45,6.08,2.87,15.59-3.95,29.85.33,56.65,27.12,56.65c8.22,0,17.62-2.04,20.57-6.72.98-1.66,1.34-4.15.19-5.81-1.04-1.43-3.2-2.49-5.53-2.49"/>
      <path class="cls-2" d="M71.17,38.21s-1.95-.46-3.51-1.89c-1.05-.97-1.59-2.26-1.62-3.85l-.14-13.99c-.4-6.46-5.94-10.31-14.82-10.31-5.25,0-9.46,3.18-9.38,7.08.05,2.69,1.84,4.29,4.78,4.29,2.59,0,4.6-1.51,4.56-3.44-.04-1.85-2.61-3.44-4.69-3.44-.82,0-1.41.09-1.87.24,1.18-1.88,3.76-3.14,6.64-3.14,3.13,0,4.8,1.44,5.26,4.54-.31,1.93-4.16,4.36-7.87,6.72-2.57,1.63-5,3.16-6.48,4.63-2.9,2.92-3.55,6.09-1.78,8.68,1.49,2.19,4.44,3.51,7.88,3.53,1.87,0,4.71-.38,7.65-2.17.53-.29,1-.64,1.43-1.05.31.72.76,1.37,1.35,1.95,2.24,2.19,6.07,2.65,8.92,2.65,2.01,0,3.53-.23,3.68-.25.24-.04.41-.19.42-.37,0-.18-.15-.34-.38-.4M56.48,18.04l.02,13.52c.02,1.18-.76,1.73-1.62,2.23-1.38.77-2.73.88-4.03.31-2.26-.99-3.74-3.81-3.29-6.27.61-3.35,2.99-5.11,5.52-6.97,1.18-.87,2.38-1.75,3.4-2.82"/>
      <path class="cls-2" d="M83.04,20.25c-2.55-2.38-4.96-4.62-5.37-6.65-.33-1.78.48-3.24,1.89-3.4,3.43-.32,6.54,3.34,7.24,5.39.07.2.32.33.59.3.27-.02.47-.19.46-.39l-.14-6.94c0-.22-.25-.4-.54-.4h-9.26c-4.21,0-7.11,1.73-7.94,4.75-1.3,4.36,3.11,8.56,7,12.27,1.59,1.51,3.09,2.94,4.11,4.28,1,1.31,1.61,4.52-.14,5.66-.5.32-1.2.49-2.04.47-2.75-.04-5.65-2.68-7.39-6.72-.08-.19-.34-.31-.6-.28-.26.03-.45.2-.44.4l.3,6.03c0,.11.07.21.18.28.91.61,1.91,1.12,2.99,1.52,1.83.67,3.88,1.03,5.97,1.03.18,0,.36,0,.53,0,3.1,0,5.87-1.14,7.62-3.11,2.01-2.27,2.35-5.27.9-7.81-1.29-2.34-3.65-4.54-5.93-6.67"/>
      <path class="cls-2" d="M135.33,8.16c-6.92,0-13.98,5.34-13.8,14.27.18,9.08,6.43,15.42,15.19,15.42,3.78,0,7.21-1.24,9.4-3.38,1.63-1.46,2.41-3.21,2.18-4.91,0-.38-.09-.76-.24-1.13-.6-1.63-2.36-2.64-4.59-2.64-2.5,0-4.66,1.61-4.62,3.44.04,1.93,2.64,3.49,4.76,3.49.77,0,1.32-.07,1.76-.19-1.7,2.38-5.54,3.98-8.91,3.49-6.29-.95-6.59-8.77-6.67-12.79h18.59c.29,0,.53-.18.53-.4-.12-5.9-3.83-14.67-13.57-14.67M129.75,20.69c.3-7.1,3.42-10.88,5.6-10.88s4.74,3.81,5.23,10.88h-10.84Z"/>
      <path class="cls-2" d="M21.33,17.22l-.14-6.97c0-.36-.36-.62-.73-.72h2.7c.31,0,.57.26.57.56,0,.22-.12.4-.36.4-.12,0-.26-.08-.25-.25,0-.11.07-.2.19-.2.16,0,.27.16.19.3.09-.03.12-.18.12-.26,0-.26-.23-.45-.48-.44-.28.01-.57.27-.56.6.04,2.24.09,4.47.13,6.71,0,.35.03.77.71.8,1.13.02,1.85-1.3,1.93-2.23l.14,2.4h-4.85c.37-.1.71-.36.7-.72"/>
      <path class="cls-2" d="M29.63,16.16c.04.38-.1.75-.34,1.04-.37.49-.94.73-1.5.73-1.35,0-2.42-1.31-2.47-3.37-.04-1.86,1.03-3.11,2.2-3.11,1.58,0,2.17,1.97,2.19,3.2h-3.19c.02.91.04,2.81,1.2,3.05.7.13,1.51-.4,1.69-1.12-.12.12-.2.2-.49.2s-.7-.3-.71-.69c0-.38.33-.68.68-.68s.6.22.68.53c.02.08.04.16.04.24M26.52,14.26h1.99c-.08-1.61-.5-2.62-.98-2.62s-.99,1.01-1.01,2.62"/>
    </g>
  </g>
</svg>