<?xml version="1.0" encoding="UTF-8"?>
<svg id="Calque_2" data-name="Calque 2" xmlns="http://www.w3.org/2000/svg" viewBox="0 0 151.53 60.29">
  <defs>
    <style>
      .cls-1 {
        fill: #fff;
      }
    </style>
  </defs>
  <g id="Layer_2_copy" data-name="Layer 2 copy">
    <g>
      <path class="cls-1" d="M37.86,42.28v-.12c.08-.11.15-.22.22-.33.08-.13.08-.4,0-.51-.05-.05-.13-.09-.22-.11v-.15c-.11.05-.22.09-.33.14-.12.02-.24.12-.33.21-.09.1-.18.19-.26.29-.2.19-.4.39-.59.6-.3.34-.6.67-.9,1.01-.52.57-1.05,1.14-1.57,1.71-.5.55-1,1.1-1.51,1.65v.1c-1,1.11-2.02,2.22-3.04,3.32-.2.21-.44.39-.68.54-.4.24-.71.06-.68-.4.02-.28.08-.56.18-.82.24-.61.48-1.23.78-1.82.74-1.48,1.69-2.83,2.82-4.03.62-.66,1.27-1.3,1.9-1.95.14-.15.29-.31.12-.53-.17-.22-.39-.26-.62-.12-.17.1-.35.21-.49.35-.02.02-.03.03-.05.05-.08.06-.16.13-.24.19v.05c-.32.33-.63.66-.95.99-1.45,1.56-2.69,3.27-3.6,5.2-.42.89-.79,1.79-.77,2.8.02.86.68,1.31,1.47,1.01.82-.31,1.39-.93,1.97-1.53.59-.62,1.14-1.28,1.7-1.93.66-.76,1.3-1.54,1.96-2.3.23-.26.47-.51.7-.76l.04.03c-.05.08-.1.16-.15.24-.25.41-.52.81-.75,1.23-.59,1.06-1.07,2.17-1.39,3.34-.11.4-.15.82-.17,1.23-.02.3.28.54.61.54.13,0,.19-.04.23-.1.23-.06.15-.31.18-.48.09-.45.09-.93.26-1.35.47-1.18.93-2.39,1.55-3.5.77-1.37,1.71-2.65,2.57-3.97Z"/>
      <path class="cls-1" d="M21.45,6.67c-.51-.85-1.1-1.66-1.73-2.42-.5-.6-1.09-1.14-1.71-1.6-.68-.51-1.43-.93-2.17-1.33-1.29-.69-2.67-1.12-4.14-1.15C7.92.11,4.15.06.38,0,.24,0,.1.01,0,.02c0,.36,0,.64,0,.93,0,11.79,0,23.58,0,35.37,0,.43,0,.85,0,1.28,0,.23.09.32.32.31,1.36,0,2.73,0,4.14,0,0-.12,0-.25,0-.38,0-3.74,0-7.48,0-11.22,0-.53,0-.53.54-.53,1.53,0,3.05-.02,4.58,0,1.99.04,3.9-.25,5.74-1.05,1.07-.46,2.05-1.05,2.96-1.77,1.09-.86,2-1.89,2.76-3.05.77-1.16,1.32-2.42,1.66-3.77.39-1.57.49-3.17.3-4.78-.2-1.67-.67-3.26-1.53-4.7ZM17.6,13.36c-.1,1.63-.63,3.14-1.6,4.44-1.74,2.32-4.06,3.56-7,3.55-1.38,0-2.76,0-4.14.01-.33,0-.42-.1-.42-.42.01-2.68,0-5.37,0-8.05h0c0-2.68,0-5.37,0-8.05,0-.3.1-.38.38-.38,1.68.01,3.37.01,5.05,0,1.14,0,2.2.36,3.17.9.7.39,1.37.86,1.96,1.4.73.67,1.31,1.49,1.75,2.4.64,1.34.94,2.73.85,4.21Z"/>
      <path class="cls-1" d="M30.04,37.91c0-.09.01-.19.01-.3,0-4.23,0-8.46,0-12.7,0-.21.01-.43.05-.64.35-1.86,1.26-3.35,2.84-4.43,1.3-.88,2.72-1.21,4.3-1.02,0-.08.03-.18.03-.27,0-1.36,0-2.72,0-4.08,0-.32-.11-.43-.41-.47-1.28-.14-2.53.01-3.76.38-.86.25-1.64.66-2.26,1.32-.25.26-.49.53-.78.85,0-.16-.02-.26-.02-.35,0-.63-.01-1.26,0-1.89,0-.28-.08-.37-.36-.36-1.27.01-2.54,0-3.8,0-.12,0-.24.02-.33.02,0,.29,0,.55,0,.8,0,7.57,0,15.13,0,22.7,0,.32.09.43.42.42,1.34-.02,2.69,0,4.06,0Z"/>
      <path class="cls-1" d="M82.37,16.07c-3.79,4.34-4.73,11.54-.07,17.19,3.65,4.42,10.03,6.15,15.94,3.38-.02-.06-.03-.12-.06-.18-.58-1.21-1.16-2.43-1.74-3.64-.25-.52-.25-.5-.77-.29-1.36.56-2.76.8-4.24.62-1.82-.23-3.39-.94-4.75-2.17-1.04-.94-1.78-2.07-2.25-3.38-1.25-3.52-.04-7.41,2.89-9.63,1.81-1.37,3.84-1.93,6.1-1.66,1.8.21,3.34.95,4.68,2.15,1.14,1.02,1.89,2.29,2.42,3.7.08.21,0,.3-.2.31-.1,0-.2,0-.3,0-2.65,0-5.3,0-7.95-.01-.2,0-.4,0-.64,0,.2.37.37.66.52.97.53,1.08,1.04,2.16,1.58,3.23.05.11.23.21.35.21,2.21.02,4.42.02,6.63.02,1.63,0,3.27,0,4.91,0,.91-3.78-.61-10.5-6.74-13.83-4.9-2.67-11.76-2.24-16.33,2.99Z"/>
      <path class="cls-1" d="M61.54,35.04c5.41-4.25,6.89-12.74,1.75-18.86-2.23-2.65-5.12-4.16-8.55-4.61-2.25-.29-4.41.04-6.5.86.53,1.52,1.04,2.99,1.57,4.5,2.18-.88,4.34-.96,6.49-.11,2.16.86,3.74,2.37,4.68,4.49,1.65,3.76.42,8.05-3.05,10.43-3.39,2.33-7.89,1.89-10.8-1.09-1.41-1.45-2.22-3.2-2.36-5.22-.2-2.98.93-5.41,3.19-7.36-1.23-1.07-2.44-2.12-3.64-3.16-4.71,4.05-6.29,12.37-1.14,18.44,4.25,5.02,12.26,6.48,18.37,1.68Z"/>
      <path class="cls-1" d="M61.36,5.28c0,.34.1.44.44.44,2.69-.01,5.39,0,8.08,0q.53,0,.53.54c0,9.09,0,18.18,0,27.28,0,.84.23,1.61.68,2.29.31.47.72.89,1.15,1.25.65.53,1.44.75,2.26.86.39.05.39.06.39-.35,0-1.55,0-3.1,0-4.65,0-8.93,0-17.87-.02-26.8,0-.34.12-.41.43-.41,2.41,0,4.82,0,7.24,0,.43,0,.86,0,1.34,0,0-.12,0-.24,0-.36,0-1.2,0-2.4,0-3.6,0-.52,0-.52-.51-.52-7.19,0-14.38,0-21.58,0-.15,0-.31,0-.48,0,.02.3.04.53.05.75,0,1.1.01,2.2,0,3.3Z"/>
      <path class="cls-1" d="M107.34,17.66c.47-.01.94,0,1.41,0,.49,0,.5,0,.5.48,0,4.93,0,9.86,0,14.79,0,1.57,0,3.14,0,4.72,0,.25.05.36.33.36,1.35-.01,2.71,0,4.1,0,0-.09.01-.19.01-.3,0-6.53,0-13.07-.01-19.6,0-.41.01-.42.44-.42,1.26,0,2.53,0,3.82,0,0-.09.02-.2.02-.31,0-1.27,0-2.54.01-3.81,0-.3-.09-.38-.39-.38-1.17.01-2.33,0-3.5.01-.29,0-.39-.08-.39-.38.01-1.39,0-2.78,0-4.18,0-.11.01-.23.06-.33.24-.52.57-.98,1.02-1.35,1.1-.89,2.83-.83,3.86.14.21.2.47.33.69.47.16-.44.38-1.03.59-1.61.31-.83.63-1.65.92-2.49.03-.1-.01-.28-.09-.35-.72-.68-1.56-1.17-2.5-1.47-1.36-.44-2.74-.46-4.11-.08-1.46.4-2.69,1.16-3.63,2.36-.92,1.17-1.33,2.52-1.3,4.01.03,1.62.02,3.23.03,4.85,0,.29-.1.44-.41.43-.52-.02-1.03,0-1.55,0-.12,0-.23.02-.33.02,0,1.38,0,2.72,0,4.05,0,.29.1.4.39.39Z"/>
      <path class="cls-1" d="M104.76,45.9c.13.11.25.26.41.32.14.05.32.01.52.01-.24.42-.45.78-.65,1.14-.45.85-.86,1.71-.83,2.7.02.7.43,1.04,1.12.94.17-.03.35-.08.51-.16.65-.31,1.07-.86,1.52-1.39.08-.09.16-.17.26-.28-.05.4-.13.74-.12,1.08,0,.52.33.8.84.79.43,0,.78-.17,1.06-.49.2-.22.41-.43.63-.67.03.08.06.14.07.2.19.96.74,1.38,1.71,1.28.15-.02.33-.15.41-.28.55-.91,1.15-1.79,1.94-2.52.25-.23.52-.44.78-.66-.12.67.05.88.68.9.74.02,1.32-.38,1.9-.76.16-.1.42-.25.25-.5-.19-.27-.39-.04-.58.05-.03.01-.05.04-.08.06-.32.14-.63.29-.96.4-.09.03-.24-.03-.33-.09-.03-.02,0-.21.07-.28.26-.27.54-.53.81-.79.14-.13.47-.15.31-.45-.15-.28-.4-.25-.64-.12-.08.04-.17.07-.24.12-.58.41-1.17.82-1.75,1.25-.26.19-.5.41-.76.62.02-.17.09-.29.18-.39.26-.32.54-.63.79-.96.07-.1.11-.37.07-.4-.14-.08-.35-.15-.47-.09-.23.11-.44.28-.6.47-.69.83-1.21,1.77-1.64,2.77-.14.33-.3.64-.44.96-.43-.16-.68-.46-.67-.85,0-.36.09-.73.23-1.06.19-.44.46-.84.7-1.26.12-.21.15-.41-.07-.56-.24-.17-.46-.09-.63.1-.14.15-.25.34-.35.53-.29.52-.52,1.07-.86,1.56-.27.4-.64.74-.99,1.08-.09.09-.29.1-.43.07-.05-.01-.11-.24-.08-.35.05-.24.13-.47.24-.69.37-.74.9-1.36,1.46-1.96.09-.1.1-.27.14-.4-.16-.05-.35-.18-.47-.13-.25.1-.51.26-.69.46-.39.43-.74.89-1.11,1.34-.33-.3-.41-.25-.72.12-.42.51-.87.99-1.35,1.44-.14.13-.46.18-.63.11-.12-.05-.18-.39-.14-.58.23-1.21.85-2.26,1.51-3.27.12-.19.28-.43.47-.48.72-.21,1.46-.36,2.19-.5.25-.05.3-.2.2-.34-.09-.13-.29-.26-.44-.26-.44.02-.88.11-1.34.18.04-.07.07-.14.11-.2.22-.3.44-.59.66-.89.14-.2.16-.41-.05-.56-.21-.15-.41-.04-.57.13-.29.33-.62.63-.84,1-.43.76-1.01,1.18-1.9,1.19-.12,0-.24.18-.35.28Z"/>
      <path class="cls-1" d="M47.24,16.87c.85.73,1.69,1.47,2.53,2.2.06.05.15.06.23.08,0-.08.03-.17,0-.24-.3-.9-.61-1.8-.92-2.71-.57-1.69-1.15-3.38-1.72-5.06-.1-.29-.22-.34-.46-.19-.84.55-1.69,1.1-2.53,1.66-.37.24-.73.49-1.14.77.63.55,1.21,1.07,1.79,1.58.73.64,1.47,1.27,2.21,1.9Z"/>
      <path class="cls-1" d="M69.73,49.07c.13-.14.23-.33.02-.45-.09-.05-.28,0-.4.07-.15.09-.29.22-.41.35-.45.48-.96.9-1.58,1.12-.37.13-.81.15-1.21.11-.16-.01-.35-.3-.41-.49-.08-.26.19-.31.38-.36,1.04-.32,1.9-.88,2.52-1.79.27-.39.36-.86.18-1.13-.17-.25-.62-.37-1.08-.17-.47.21-.93.49-1.34.82-.5.41-.96.87-1.56,1.14-.18.08-.39.09-.58.13.05-.26.16-.43.23-.61.11-.25.23-.49.28-.75.03-.18-.01-.48-.12-.53-.15-.08-.42-.04-.59.05-.55.29-.61.84-.65,1.39-.01.16,0,.36-.08.48-.39.54-.81,1.07-1.23,1.59-.08.1-.21.18-.33.22-.1.03-.25.03-.33-.03-.06-.04-.09-.21-.05-.3.18-.42.37-.84.57-1.25.28-.57.59-1.13.84-1.72.05-.12-.06-.39-.18-.47-.19-.12-.34.04-.44.23-.41.75-.82,1.49-1.23,2.24-.24.44-.41.9-.38,1.41.04.63.43.92,1.03.71.26-.09.54-.21.72-.41.49-.5.93-1.05,1.39-1.58.05-.06.14-.12.21-.12.33,0,.66.04,1.04.07-.02.1-.06.2-.06.29-.01.31-.07.63,0,.93.09.47.5.73,1.07.76,1.16.07,2.07-.5,2.93-1.17.3-.23.56-.51.83-.78ZM67.67,47.07c.1-.05.26,0,.39,0-.01.12.02.26-.04.36-.44.71-1.07,1.18-1.85,1.46-.05.02-.1,0-.19.01.4-.79.91-1.44,1.69-1.83Z"/>
      <path class="cls-1" d="M84.43,48.6c.04-.1.12-.19.2-.26.94-.84,1.95-1.62,2.82-2.53.84-.88,1.55-1.88,2.28-2.85.22-.29.32-.69.41-1.06.13-.53-.23-.91-.75-.8-.32.06-.64.22-.9.42-1.04.79-1.79,1.85-2.52,2.91-.95,1.39-1.8,2.84-2.47,4.39-.2.47-.33.98-.4,1.48-.07.5.19.73.74.73.07-.01.23-.02.37-.08.99-.42,1.58-1.25,2.08-2.15.04-.07-.04-.22-.06-.33-.14.03-.32.02-.41.11-.17.17-.27.41-.44.59-.32.34-.65.67-1,.98-.08.07-.28.08-.36.02-.07-.04-.08-.24-.04-.35.13-.42.29-.83.45-1.23ZM85.98,45.73c.64-.96,1.3-1.91,1.99-2.83.26-.34.62-.6.95-.88.07-.06.26-.08.28-.05.06.1.13.26.09.35-.16.34-.33.69-.54,1-.96,1.44-2.07,2.75-3.53,3.77.25-.45.48-.93.76-1.36Z"/>
      <path class="cls-1" d="M48.27,47.14c-.04-.42-.32-.74-.74-.7-.39.03-.77.17-1.22.28.14-.21.3-.4.41-.61.11-.2.21-.45-.02-.61-.22-.16-.42-.04-.58.16-.06.08-.14.15-.2.23-.44.68-.89,1.35-1.3,2.04-.66,1.13-1.32,2.27-1.94,3.41-.48.87-.92,1.77-1.36,2.66-.2.4-.35.83-.5,1.25-.09.25.02.46.25.55.24.1.38-.08.46-.27.13-.27.22-.56.35-.84.59-1.21,1.2-2.4,1.79-3.61.1-.2.17-.25.4-.17.61.22,1.2.08,1.74-.23.77-.45,1.38-1.08,1.83-1.84.31-.53.66-1.05.6-1.71ZM47.29,47.71c-.4,1.05-1.07,1.91-2.02,2.51-.17.11-.4.14-.62.21-.14-.06-.33-.08-.41-.19-.05-.06.05-.26.12-.38.47-.76.86-1.58,1.55-2.17.24-.21.52-.39.81-.51.15-.06.4-.04.52.05.09.07.09.34.04.48Z"/>
      <path class="cls-1" d="M51.8,50.82c-.42-.24-.55-.44-.49-.92.11-.76.45-1.43.86-2.06.29-.44.09-.93.16-1.4,0-.06-.1-.14-.17-.19-.41-.33-.86-.26-1.31-.12-.67.22-1.19.66-1.63,1.19-.65.77-1.14,1.64-1.24,2.67-.09.9.63,1.4,1.44,1.01.2-.09.37-.25.53-.4.2-.2.38-.42.63-.71,0,.18,0,.28,0,.38,0,.64.49,1.16,1.11,1.13.13,0,.26-.12.38-.18-.09-.14-.14-.33-.27-.4ZM49.68,50.07c-.07.06-.13.14-.21.16-.15.04-.35.11-.47.05-.11-.05-.15-.26-.26-.46.19-.44.32-.91.58-1.3.35-.53.77-1.01,1.2-1.48.3-.32.84-.34,1.07-.09.06.07.09.23.05.3-.18.3-.42.57-.6.88-.4.68-.75,1.4-1.36,1.95Z"/>
      <path class="cls-1" d="M39.48,46.65c-.15,0-.31.08-.44.16-.35.22-.69.45-1.02.7-.05.04-.1.08-.15.12v-.91c-.31-.12-.5-.11-.67.08,0,0,0,0,0,0-.1.02-.19.15-.25.25-.42.63-.85,1.26-1.24,1.91-.29.49-.52,1.01-.76,1.53-.1.21-.11.44.12.57.22.12.44.06.6-.14,0-.01.02-.02.03-.03.03-.01.06-.02.09-.03.09-.04.16-.16.21-.25.49-.85,1.11-1.59,1.88-2.2h0s.04-.04.06-.06c.03.02.05.05.08.07-.06.1-.11.21-.17.31-.41.67-.7,1.39-.61,2.19.04.42.33,1.06.73,1.06.14,0,.27-.05.41-.08-.03-.13-.03-.29-.09-.39-.21-.34-.28-.7-.24-1.09.07-.62.33-1.17.69-1.66.35-.49.78-.92,1.15-1.4.11-.15.18-.4.13-.56-.03-.09-.33-.14-.52-.14Z"/>
      <path class="cls-1" d="M78.86,47.23c-.34.19-.72.28-1.08.44-.13.06-.32.19-.32.28,0,.21.2.28.4.25.63-.08,1.22-.29,1.7-.72.15-.14.28-.32.37-.51.23-.49,0-.94-.52-1.06-.2-.05-.42-.04-.63-.06-.6.02-1.46.27-1.98.61-.89.57-1.12,1.35-.62,2.21.18.31.41.59.62.88.17.24.24.52.09.76-.16.23-.38.44-.71.43-.56-.01-1.01-.47-.96-1.03.02-.24.13-.47.22-.7.09-.23,0-.37-.23-.31-.15.04-.31.14-.42.25-.43.44-.36,1.52.07,1.96.55.56,1.58.53,2.05.3.35-.17.74-.34.82-.81.07-.39-.03-.74-.24-1.05-.13-.2-.3-.37-.41-.57-.23-.41-.51-.81-.2-1.31.41-.65,1.05-.89,1.75-1.01.14-.02.41.16.45.29.04.13-.09.41-.22.48Z"/>
      <path class="cls-1" d="M56.8,45.89c-.19-.03-.38-.03-.57-.04-.74-.01-1.39.26-2,.62-.87.52-1.08,1.26-.62,2.15.16.32.41.59.62.88.23.32.24.68.05.9-.33.37-.73.43-1.17.15-.38-.23-.55-.7-.39-1.11.06-.16.13-.31.19-.47.09-.24-.02-.32-.24-.29-.11.02-.23.08-.32.16-.48.42-.51,1.45-.12,1.95.54.68,1.67.67,2.22.37.82-.43.98-1.07.48-1.86-.12-.19-.27-.36-.4-.54-.45-.67-.44-1.26.15-1.7.38-.29.87-.44,1.32-.61.24-.09.52.03.55.29.02.16-.12.43-.26.51-.33.18-.7.26-1.05.41-.13.06-.33.18-.33.28,0,.22.22.29.4.24.49-.15.99-.28,1.44-.51.26-.14.48-.43.63-.71.26-.5-.01-.98-.57-1.08Z"/>
      <path class="cls-1" d="M87.85,51.02c.33,0,.87-.19,1.4-.48.73-.4,1.4-.88,1.92-1.55.06-.08.07-.3.02-.33-.09-.06-.26-.08-.37-.04-.14.06-.24.19-.36.29-.33.28-.64.6-1,.85-.53.37-1.09.67-1.78.55-.31-.05-.49-.23-.53-.52-.05-.33.23-.33.44-.4,1.12-.38,2.06-.99,2.63-2.07.14-.26.22-.53.04-.8-.17-.26-.45-.35-.74-.28-.29.06-.6.13-.85.28-.39.23-.77.51-1.1.82-.66.61-1.2,1.31-1.28,2.26-.08.99.33,1.43,1.58,1.42ZM88.02,47.91c.29-.3.63-.56.98-.8.11-.08.3-.04.46-.05-.02.14,0,.32-.06.42-.48.7-1.12,1.22-1.95,1.44-.03-.02-.05-.04-.08-.07.21-.32.39-.67.65-.94Z"/>
      <path class="cls-1" d="M75.56,47.55c-.18-.24-.37-.04-.56.06-.32.16-.64.32-.98.44-.11.04-.27-.02-.4-.04.03-.13.01-.31.09-.39.29-.29.63-.54.93-.82.08-.08.18-.28.15-.31-.1-.11-.25-.2-.4-.23-.1-.02-.24.06-.34.13-.56.37-1.12.74-1.66,1.14-.34.25-.65.54-1.04.86.04-.11.04-.15.06-.17.32-.4.65-.79.97-1.19.12-.15.26-.36.04-.49-.13-.08-.37-.07-.52,0-.2.1-.4.27-.53.46-.45.66-.92,1.32-1.3,2.03-.32.6-.54,1.25-.77,1.89-.05.13.01.41.11.46.2.1.44.05.57-.19.13-.23.28-.46.42-.69.45-.76,1.04-1.39,1.66-2.01.2-.2.45-.36.74-.59-.21.67-.06.88.56.92.77.05,1.38-.34,1.96-.77.15-.11.44-.23.25-.49Z"/>
      <path class="cls-1" d="M103.06,48.39c.16-.33.37-.64.52-.98.05-.11.03-.31-.05-.39-.09-.09-.29-.16-.41-.13-.14.03-.3.16-.38.29-.37.63-.68,1.29-1.07,1.9-.27.41-.64.77-1,1.12-.1.09-.31.07-.46.1-.02-.14-.09-.3-.06-.43.07-.27.15-.55.31-.77.44-.62.92-1.21,1.37-1.82.08-.11.1-.26.15-.4-.17-.05-.33-.12-.51-.14-.1,0-.21.08-.3.14-.63.45-1.08,1.07-1.45,1.74-.28.5-.51,1.03-.47,1.63.03.51.33.8.84.8.4,0,.72-.17,1.02-.44.22-.2.49-.36.74-.53,0,.05.02.1.03.15.15.76.72,1.22,1.39,1.1.09-.02.23-.1.25-.17.02-.1-.02-.24-.09-.33-.08-.1-.21-.17-.33-.23-.48-.25-.59-.68-.5-1.14.08-.37.27-.73.44-1.08Z"/>
      <path class="cls-1" d="M131.41,11.51c-7.37-.33-13.54,5.36-13.78,12.76-.24,7.42,5.43,13.42,12.67,13.73,7.36.32,13.75-5.43,13.79-13.02.16-7.03-5.37-13.14-12.68-13.47ZM130.67,33.24c-4.72-.09-8.26-3.85-8.28-8.48.08-4.73,3.83-8.53,8.56-8.48,4.74.06,8.41,3.93,8.37,8.51-.04,4.7-3.83,8.54-8.65,8.45Z"/>
      <path class="cls-1" d="M151.53,1.74c0-.35-.12-.44-.44-.43-1.25.01-2.49.02-3.74,0-.32,0-.43.08-.35.4.04.18.01.38.01.57,0,6.88,0,13.76,0,20.64,0,4.57.02,9.14,0,13.7,0,.78.71,1.43,1.39,1.41,1.02-.04,2.04,0,3.11,0,0-.21,0-.42,0-.63,0-11.89,0-23.77.02-35.66Z"/>
      <path class="cls-1" d="M143.54,31.09c-.6,1.32-1.45,2.47-2.45,3.5-.51.52-1.09.98-1.64,1.48-.07.06-.14.16-.14.24,0,.48.02.96.03,1.44,0,.2.09.28.29.28,1.39,0,2.77,0,4.19,0v-7.31s-.05-.02-.07-.02c-.07.13-.14.26-.2.4Z"/>
      <path class="cls-1" d="M141.61,6.21c.95,0,1.75-.75,1.73-1.65-.02-.98-.73-1.67-1.72-1.71-.91-.03-1.65.76-1.64,1.69,0,.9.75,1.67,1.64,1.67ZM141.64,3.12c.78,0,1.44.63,1.42,1.43,0,.77-.63,1.4-1.42,1.4-.77,0-1.38-.59-1.38-1.35,0-.83.6-1.47,1.38-1.47Z"/>
      <path class="cls-1" d="M110.13,52.67c-4.21.24-8.41.59-12.59,1.25-.22.03-.44.05-.72.08.15-.27.26-.46.37-.65.66-1.13,1.09-2.33,1.11-3.66.01-.83-.11-1.6-1.04-2.02.15-.11.23-.22.35-.26.39-.16.79-.33,1.2-.44.41-.11.84-.13,1.24.11.11.06.25.09.39.1.28.02.43-.2.33-.46-.12-.29-.37-.43-.66-.44-.34,0-.69.02-1.03.08-.38.07-.74.2-1.11.31-.02-.02-.04-.04-.07-.06.21-.33.43-.67.63-1,.85-1.39,1.87-2.65,3.02-3.81.15-.15.33-.34.16-.51-.11-.11-.42-.14-.56-.07-.29.15-.56.37-.79.62-1.24,1.35-2.29,2.84-3.17,4.45-.35.65-.7,1.25-1.37,1.64-.43.24-.39.52.04.78-.29.59-.59,1.18-.87,1.77-.56,1.22-1.07,2.45-1.12,3.81,0,.2-.1.27-.28.31-1.3.26-2.6.5-3.89.8-1.97.45-3.93.91-5.89,1.42-1.46.38-2.92.81-4.36,1.26-1.74.55-3.47,1.14-5.21,1.72-.06.02-.15.15-.13.21.05.26.27.37.52.28,1.15-.4,2.3-.84,3.46-1.2,2.59-.81,5.18-1.6,7.78-2.37,1.25-.36,2.52-.66,3.78-.95,1.32-.3,2.65-.57,3.98-.84.11-.02.29.05.35.14.32.44.58.56,1.11.44.53-.12.88-.5,1.24-.87.12-.13.3-.26.46-.29.89-.16,1.79-.3,2.68-.43,1.21-.17,2.42-.32,3.63-.46,1.11-.13,2.23-.27,3.34-.35,1.95-.14,3.9-.27,5.85-.32,2.98-.07,5.97-.07,8.95-.1v-.07c-.4-.01-.81-.04-1.21-.04-3.31-.06-6.62-.08-9.93.11ZM96.68,52.8c-.2.37-.43.73-.66,1.09-.16.25-.97.56-1.23.45-.07-.03-.14-.2-.12-.3.12-.58.18-1.18.4-1.73.52-1.27,1.12-2.52,1.68-3.77.1-.21.23-.17.38-.07.43.27.54.69.51,1.07-.02,1.24-.44,2.26-.97,3.25Z"/>
      <path class="cls-1" d="M141.34,4.71h.33l.38.54h.44l-.45-.57c.19-.07.29-.25.29-.42,0-.23-.16-.45-.48-.45h-.87v1.45h.35v-.54ZM141.34,4.1h.44c.13,0,.2.08.2.16s-.07.16-.2.16h-.44v-.32Z"/>
    </g>
  </g>
</svg>