<?xml version="1.0" encoding="UTF-8"?>
<svg id="Calque_2" data-name="Calque 2" xmlns="http://www.w3.org/2000/svg" viewBox="0 0 148.5 103.88">
  <defs>
    <style>
      .cls-1 {
        fill: #fff;
      }
    </style>
  </defs>
  <g id="Layer_2_copy" data-name="Layer 2 copy">
    <g>
      <rect class="cls-1" x="62.8" y="21.46" width="25.5" height="1.35" rx=".46" ry=".46"/>
      <path class="cls-1" d="M1.65,94.43c.48,0,.83.05,1.05.14.22.1.35.25.41.47.06.22.09.53.09.93v5.7c0,.59-.05.99-.14,1.18s-.28.29-.56.29c-.14,0-.25-.06-.33-.17-.08-.11-.15-.25-.21-.41-.06-.17-.13-.33-.2-.49-.08-.16-.18-.3-.32-.41-.14-.11-.32-.17-.55-.17-.28,0-.5.09-.66.26-.16.18-.24.41-.24.7,0,.36.11.64.32.84.21.2.48.34.8.42.33.08.65.12.99.12.38,0,.77-.03,1.16-.09.39-.06.75-.18,1.08-.37.33-.19.6-.46.8-.81.2-.36.3-.82.3-1.41v-5.21c0-.39.03-.7.08-.93.05-.23.18-.39.38-.48.2-.1.53-.14.98-.14v-.65H1.65v.65Z"/>
      <path class="cls-1" d="M16.71,101.59l-3.25-7.88h-1.58l-3.26,7.85c-.15.39-.29.69-.43.9-.14.21-.29.36-.45.44-.17.08-.38.12-.64.12v.65h3.43v-.65c-.37,0-.63-.03-.79-.1-.16-.07-.23-.22-.23-.46,0-.13.02-.28.08-.44.05-.16.1-.31.14-.44l.43-1.1h3.46l.35.9c.08.21.15.43.21.65.06.22.09.39.09.5,0,.15-.05.26-.14.33-.1.07-.21.11-.35.13-.14.02-.27.02-.4.02v.65h4.83v-.65c-.34,0-.62-.12-.85-.35-.23-.24-.44-.59-.64-1.08ZM11.94,95.97h.06l1.34,3.75h-2.92l1.52-3.75Z"/>
      <path class="cls-1" d="M24.96,98.81c-.27-.26-.57-.49-.91-.68-.34-.2-.68-.37-1.05-.53-.4-.19-.78-.38-1.13-.56-.35-.18-.63-.39-.84-.62-.21-.24-.32-.54-.32-.91,0-.4.14-.7.41-.89.27-.19.67-.29,1.2-.29.56,0,1.03.18,1.39.54.37.36.66,1,.88,1.91h.71l-.09-3.16h-.57c-.03.15-.09.25-.18.29-.09.05-.18.07-.27.07-.12,0-.26-.03-.42-.09-.16-.06-.36-.12-.61-.18s-.56-.09-.94-.09c-.68,0-1.27.1-1.78.29-.5.19-.89.47-1.16.84-.27.37-.41.84-.41,1.4,0,.61.12,1.11.36,1.5.24.39.56.71.96.96.4.26.83.5,1.29.73.39.18.75.37,1.09.56.34.2.61.43.82.71.21.28.32.63.32,1.06,0,.33-.09.59-.27.79s-.41.34-.7.42c-.29.09-.59.13-.91.13-.4,0-.74-.07-1.02-.2-.28-.13-.52-.37-.71-.71-.2-.35-.37-.84-.53-1.48h-.75l.14,3.25h.65c0-.14.04-.25.11-.34.08-.08.17-.13.28-.13s.23.04.37.11c.14.08.33.15.59.23.26.08.63.11,1.11.11.75,0,1.41-.11,1.98-.33.57-.22,1.01-.54,1.32-.97.32-.43.47-.95.47-1.57,0-.47-.08-.88-.24-1.24-.16-.36-.38-.66-.65-.93Z"/>
      <path class="cls-1" d="M34.71,101.72c-.13.27-.29.47-.49.62-.2.15-.45.26-.77.32s-.73.09-1.22.09h-1.78v-3.75h1.34c.5,0,.87.03,1.1.08.23.06.38.18.44.38.07.2.1.5.1.93h.71v-3.48h-.71c0,.39-.03.68-.1.86-.07.18-.21.3-.44.35-.23.05-.6.08-1.1.08h-1.34v-3.46h1.99c.56,0,.98.05,1.26.16.28.11.48.29.61.55s.22.62.29,1.07h.77l-.09-2.72h-8.45v.66c.41,0,.72.04.92.11.2.07.33.2.39.39.06.19.09.48.09.86v5.97c0,.37-.05.64-.14.82-.09.18-.24.29-.44.35-.21.06-.48.08-.82.08v.65h8.62l.36-2.96h-.72c-.12.41-.25.75-.38,1.02Z"/>
      <path class="cls-1" d="M49.4,102.56c-.08-.18-.11-.43-.11-.76v-5.99c0-.37.04-.66.11-.86.07-.2.2-.34.39-.41s.46-.11.8-.11v-.65h-3.94l-2.81,6.97h-.12l-2.83-6.97h-4.23v.65c.38,0,.67.04.86.11.2.08.33.21.39.41.07.2.1.49.1.87v5.55c0,.51-.03.88-.1,1.11-.07.23-.2.38-.39.44-.2.06-.49.09-.9.09v.65h3.82v-.65c-.37,0-.65-.03-.84-.09-.19-.06-.32-.21-.38-.44-.07-.23-.1-.6-.1-1.11v-5.57h.09l3.31,7.85h1.19l3.26-7.85h.09v5.99c0,.33-.03.58-.09.76-.06.18-.19.3-.38.36-.19.07-.48.1-.86.1v.65h4.86v-.65c-.34,0-.61-.03-.8-.1-.19-.07-.32-.19-.4-.36Z"/>
      <path class="cls-1" d="M64.39,101.59l-3.25-7.88h-1.58l-3.26,7.85c-.15.39-.29.69-.43.9-.14.21-.29.36-.45.44-.17.08-.38.12-.64.12v.65h3.43v-.65c-.37,0-.63-.03-.79-.1-.16-.07-.23-.22-.23-.46,0-.13.02-.28.08-.44.05-.16.1-.31.14-.44l.43-1.1h3.46l.35.9c.08.21.15.43.21.65.06.22.09.39.09.5,0,.15-.05.26-.14.33-.1.07-.21.11-.35.13-.14.02-.27.02-.4.02v.65h4.83v-.65c-.34,0-.62-.12-.85-.35-.23-.24-.44-.59-.64-1.08ZM59.62,95.97h.06l1.34,3.75h-2.92l1.52-3.75Z"/>
      <path class="cls-1" d="M74.39,101.59c-.12.29-.27.52-.44.69-.18.17-.4.29-.68.36-.28.07-.62.11-1.05.11h-.92c-.44,0-.74-.06-.9-.17-.16-.11-.23-.35-.23-.72v-5.96c0-.39.03-.69.1-.9.07-.21.2-.36.41-.44.21-.09.53-.13.96-.13v-.65h-5.11v.65c.42,0,.73.04.93.13.2.09.33.23.38.44.06.21.08.51.08.89v5.73c0,.39-.03.69-.09.89-.06.2-.19.34-.39.41-.2.07-.51.11-.93.11v.65h8.56l.42-3.17h-.77c-.11.44-.23.81-.35,1.1Z"/>
      <path class="cls-1" d="M87.55,98.78c-.41-.17-.83-.29-1.26-.35v-.09c.64-.17,1.17-.43,1.58-.78.41-.35.62-.86.62-1.53,0-.45-.11-.84-.33-1.18-.22-.34-.6-.6-1.13-.78-.53-.19-1.26-.28-2.18-.28h-5.02v.66c.39,0,.69.03.89.08.2.06.34.18.41.36.07.19.11.47.11.85v5.91c0,.39-.03.68-.1.88-.07.2-.2.33-.4.39-.2.07-.5.1-.9.1v.65h5.33c1.22,0,2.16-.22,2.82-.67.66-.45.99-1.11.99-1.99,0-.61-.13-1.09-.4-1.44-.27-.35-.6-.61-1.01-.78ZM83.46,94.66c.14-.02.27-.03.38-.04.11,0,.22,0,.33,0,.75,0,1.26.14,1.52.41.26.28.39.71.39,1.3,0,.65-.13,1.11-.38,1.38-.26.27-.75.4-1.5.4h-.74v-3.45ZM86.28,102.04c-.11.26-.25.45-.44.58-.19.13-.42.21-.68.24-.26.04-.55.05-.86.05-.16,0-.31,0-.44-.02-.13,0-.27-.02-.41-.03v-3.97h.87c.37,0,.71.05,1.03.14.32.1.57.29.77.59.2.3.3.75.3,1.36,0,.44-.05.79-.16,1.05Z"/>
      <path class="cls-1" d="M97.78,101.59c-.12.29-.27.52-.44.69-.18.17-.4.29-.68.36-.28.07-.62.11-1.05.11h-.92c-.44,0-.74-.06-.9-.17-.16-.11-.23-.35-.23-.72v-5.96c0-.39.03-.69.1-.9.07-.21.2-.36.41-.44.21-.09.53-.13.96-.13v-.65h-5.11v.65c.42,0,.73.04.93.13.2.09.33.23.38.44.06.21.08.51.08.89v5.73c0,.39-.03.69-.09.89-.06.2-.19.34-.39.41-.2.07-.51.11-.93.11v.65h8.56l.42-3.17h-.77c-.11.44-.23.81-.35,1.1Z"/>
      <path class="cls-1" d="M107.31,94.2c-.74-.4-1.63-.59-2.69-.59s-1.92.21-2.66.62c-.74.42-1.31,1.01-1.7,1.77-.39.76-.59,1.67-.59,2.72s.19,2.03.58,2.8c.39.77.95,1.36,1.68,1.76.74.4,1.63.6,2.69.6s1.95-.21,2.69-.64,1.3-1.04,1.68-1.83c.39-.79.58-1.74.58-2.83s-.19-1.94-.58-2.68c-.39-.74-.95-1.31-1.68-1.71ZM106.59,102.02c-.43.72-1.08,1.08-1.95,1.08s-1.54-.39-1.97-1.17c-.43-.78-.65-1.88-.65-3.29s.23-2.44.68-3.17c.46-.73,1.08-1.1,1.87-1.1.54,0,1.01.16,1.41.49.4.33.7.8.92,1.44.22.63.32,1.41.32,2.35,0,1.54-.21,2.68-.64,3.39Z"/>
      <path class="cls-1" d="M118.18,94.43c.42,0,.73.05.93.15.2.1.33.29.39.57.06.28.09.69.09,1.22v3.41c0,1.03-.22,1.76-.65,2.19-.43.43-1.12.64-2.06.64-.66,0-1.18-.11-1.55-.32-.37-.22-.63-.54-.78-.98-.15-.44-.23-.98-.23-1.63v-3.85c0-.38.03-.67.1-.87.07-.2.2-.34.41-.41.21-.08.51-.11.91-.11v-.65h-5.07v.65c.4,0,.7.04.9.11.2.08.34.21.41.4s.11.46.11.81v4.2c0,1.39.35,2.4,1.04,3.01.69.61,1.82.92,3.38.92s2.56-.35,3.2-1.05c.64-.7.96-1.74.96-3.14v-3.37c0-.52.03-.92.08-1.19.06-.27.19-.46.39-.56s.52-.15.96-.15v-.65h-3.91v.65Z"/>
      <path class="cls-1" d="M128.9,98.81c-.27-.26-.57-.49-.91-.68-.34-.2-.68-.37-1.05-.53-.4-.19-.78-.38-1.13-.56-.35-.18-.63-.39-.84-.62-.21-.24-.32-.54-.32-.91,0-.4.14-.7.41-.89.27-.19.67-.29,1.2-.29.56,0,1.03.18,1.39.54.37.36.66,1,.88,1.91h.71l-.09-3.16h-.57c-.03.15-.09.25-.18.29-.09.05-.18.07-.27.07-.12,0-.26-.03-.42-.09-.16-.06-.36-.12-.61-.18s-.56-.09-.94-.09c-.68,0-1.27.1-1.78.29-.5.19-.89.47-1.16.84-.27.37-.41.84-.41,1.4,0,.61.12,1.11.36,1.5.24.39.56.71.96.96.4.26.83.5,1.29.73.39.18.75.37,1.09.56.34.2.61.43.82.71.21.28.32.63.32,1.06,0,.33-.09.59-.27.79s-.41.34-.7.42c-.29.09-.59.13-.91.13-.4,0-.74-.07-1.02-.2-.28-.13-.52-.37-.71-.71-.2-.35-.37-.84-.53-1.48h-.75l.14,3.25h.65c0-.14.04-.25.11-.34.08-.08.17-.13.28-.13s.23.04.37.11c.14.08.33.15.59.23.26.08.63.11,1.11.11.75,0,1.41-.11,1.98-.33.57-.22,1.01-.54,1.32-.97.32-.43.47-.95.47-1.57,0-.47-.08-.88-.24-1.24-.16-.36-.38-.66-.65-.93Z"/>
      <path class="cls-1" d="M137.35,94.43c.44,0,.76.05.96.14.2.1.32.25.38.47.06.22.08.53.08.93v2.27h-4.36v-2.27c0-.4.02-.71.08-.93.05-.22.17-.38.37-.47.2-.1.52-.14.97-.14v-.65h-5.05v.65c.45,0,.77.05.97.14.2.1.32.26.36.48.05.23.07.53.07.93v5.52c0,.44-.03.77-.08.99-.06.22-.18.36-.38.43-.2.07-.51.11-.94.11v.65h4.99v-.65c-.41,0-.71-.04-.91-.11-.2-.07-.32-.21-.37-.43-.05-.22-.08-.54-.08-.99v-2.42h4.36v2.42c0,.43-.03.76-.08.98-.05.22-.18.37-.38.44-.2.07-.52.11-.96.11v.65h5.08v-.65c-.43,0-.75-.04-.95-.11-.2-.07-.33-.22-.39-.44-.06-.22-.09-.55-.09-.98v-5.52c0-.4.02-.71.08-.93.05-.22.18-.38.38-.47.2-.1.53-.14.98-.14v-.65h-5.08v.65Z"/>
      <path class="cls-1" d="M147.17,95.06c.05-.23.17-.39.37-.48.2-.1.52-.14.96-.14v-.65h-5.04v.65c.43,0,.74.05.94.14.2.1.32.25.38.47.06.22.08.53.08.93v5.52c0,.43-.03.75-.08.97-.05.22-.17.36-.37.44-.2.08-.51.11-.96.11v.65h4.98v-.65c-.42,0-.73-.04-.92-.11-.19-.08-.31-.22-.35-.44-.05-.22-.07-.54-.07-.96v-5.52c0-.39.02-.7.07-.93Z"/>
      <path class="cls-1" d="M83.55,60.24c.1-3.66.03-7.32.02-10.98,0-7.1-.02-14.2-.02-21.3,0-1.56.78-2.31,2.31-2.36.25,0,.51-.03.76-.04.31,0,.47-.14.45-.46-.02-.28-.2-.35-.44-.36-.25,0-.51,0-.76,0-5.47,0-10.94,0-16.41,0-1.63,0-3.26,0-4.89,0-.23,0-.56-.08-.56.32,0,.39.32.32.55.33,1.37.02,2.59.57,3.79,1.15.72.35,1.21.9,1.31,1.73.13,1.11.36,2.21.4,3.33.18,4.74.42,9.47.43,14.21.02,7.89.28,15.78-.18,23.67-.16,2.86-.53,5.68-1.37,8.4,0,0-1.67,4-5.44,8.55-.24.29-.48.57-.71.86.69-.09,1.23-.25,1.6-.37,1.79-.63,3.11-1.87,5.14-3.8h0c2.34-2.01,4.01-4.33,4.94-7.24,1.35-4.21,1.49-8.58,1.64-12.93.13-3.83.01-7.67-.1-11.51-.21-7.06-.2-14.12-.27-21.18,0-.9.15-1.8.61-2.6.49-.85,1.21-1.39,2.23-1.15,1.01.24,1.78.85,1.93,1.96.13.97.2,1.94.21,2.92.05,4.89,0,9.78.17,14.66.14,4.16-.01,8.33-.1,12.49-.12,6.05-.36,9.07-1.14,12.03-.7,2.67-1.65,4.76-2.36,6.14,0,0,3.71-3.48,4.96-7.13,1.03-3.03,1.2-6.2,1.29-9.36Z"/>
      <path class="cls-1" d="M38.29,40.78c2.97,4.23,7.06,5.93,12.18,5.3,4.15-.51,7.2-2.57,9.17-6.24.02-.04.07-.14.16-.24h1.56v-1.35c0-.32,0-.64,0-.97h-.96c-.46-.29-.65-.78-.91-1.22-2.08-3.54-4.14-7.1-6.21-10.66-.89-1.53-1.77-3.07-2.8-4.86,3.99,1.55,7.71,1.57,11.39.26,2.58-.92,4.95-2.37,7.56-3.23.58-.19.42-.59.37-.97-.09-.74-.44-1.45-.25-2.23.18-.73-.09-.76-.75-.55-2.31.75-4.48,1.82-6.55,3.06-4.15,2.48-8.39,2.74-12.79.79-.33-.15-.62-.21-.72-.67-.36-1.67-1.31-2.32-2.96-2.02-.9.17-1.62.69-1.78,1.66-.17,1.01.13,1.83,1.13,2.35.8.42,1.61.21,2.41.11.1.29-.06.46-.16.64-3.29,5.66-6.6,11.32-9.88,16.99-.13.23-.27.42-.44.55h-1.15v2.32h1.57c.32.31.51.77.8,1.18ZM49.38,20.91c0-.1,0-.17,0-.19,3.21,5.52,6.43,11.04,9.64,16.56h-9.67c-.12-.11-.16-.3-.16-.54,0-5.05-.09-8.05.18-15.82ZM48.18,20.98c0,3,0,6,0,9,0,2.17,0,4.35,0,6.52,0,.32,0,.61-.19.78h-9.56c3.03-5.64,6.3-10.98,9.74-16.3Z"/>
      <path class="cls-1" d="M72.23,11.04c-2.33,1.85-2.66,4.98-.72,7.17,1.15,1.31,2.67,1.77,5.07,1.77,1.51-.03,3.35-.81,4.39-2.85,1.18-2.31.52-4.55-1.68-6.26-.78-.61-.71-2.39.11-2.9.81-.51,1.07-1.57.38-2.21-.58-.53-.52-.99-.32-1.59.08-.24.2-.5.17-.73-.16-1.37-.72-2.48-2.07-3.05-1.57-.65-3.08-.51-4.34.62-1.09.99-1.27,2.3-.74,3.67.15.38.2.54-.23.82-.89.58-.87,1.81-.06,2.38,1.06.75,1.08,2.33.05,3.15ZM76.08,12.48c1.39,0,2.51,1.12,2.51,2.51s-1.12,2.51-2.51,2.51-2.51-1.12-2.51-2.51,1.12-2.51,2.51-2.51Z"/>
      <path class="cls-1" d="M97.9,21.52c1.32-.22,2.53-.75,3.92-1.13-3.25,5.59-6.44,11.07-9.62,16.56-.08.14-.16.25-.26.33h-1.16v1.91h0v.41h1.57c.19.19.34.44.48.74.28.58.68,1.12,1.1,1.6,3.01,3.37,6.76,4.7,11.23,4.14,4.09-.51,7.15-2.51,9.13-6.12.08-.14.16-.26.25-.36h1.68v-2.32h-1.27c-.12-.14-.19-.34-.28-.5-2.98-5.1-5.97-10.2-8.93-15.31-.44-.75-.98-1.46-1.22-2.33.38-.09.65.02.93.07,1.23.21,2.55-.68,2.69-1.79.15-1.19-.5-2.13-1.66-2.42-1.29-.32-2.44.25-2.94,1.4-.16.37-.06.87-.56,1.1-2.23,1.02-4.56,1.63-7,1.55-1.77-.06-3.45-.66-5.03-1.49-2.43-1.27-4.81-2.62-7.39-3.59-.74-.28-1.43-.64-1.09.73.17.67-.15,1.35-.34,2-.14.49-.02.71.47.88,2.28.8,4.41,1.94,6.63,2.88,2.77,1.18,5.67,1.55,8.67,1.06ZM104.17,20.72c3.18,5.47,6.35,10.93,9.62,16.57h-9.61c-.15-.12-.21-.33-.21-.64.02-5.28,0-10.56.19-15.92ZM102.93,21.82s-.02,7.13.03,14.55c0,.47-.06.76-.29.91h-9.52c3.23-5.55,6.38-10.97,9.55-16.43.15.63.23.97.23.97Z"/>
    </g>
  </g>
</svg>