<?xml version="1.0" encoding="UTF-8"?>
<svg id="Calque_2" data-name="Calque 2" xmlns="http://www.w3.org/2000/svg" viewBox="0 0 119 75.36">
  <defs>
    <style>
      .cls-1 {
        fill: #fff;
      }
    </style>
  </defs>
  <g id="Layer_2_copy" data-name="Layer 2 copy">
    <g>
      <path class="cls-1" d="M68.89,17.78c1.11,0,1.88.05,2.66.15,1.1.15,2.16.42,3.17.88,1.12.51,2.13,1.2,2.98,2.09.93.98,1.59,2.13,2.02,3.4.24.73.41,1.47.5,2.24.08.7.14,1.39.11,2.09-.02.55-.05,1.1-.11,1.65-.25,2.18-.82,4.27-1.71,6.27-.76,1.71-1.74,3.27-2.98,4.67-2.09,2.35-4.65,3.95-7.68,4.81-.8.23-1.62.38-2.45.47-.72.08-1.45.13-2.17.12-.89,0-1.77-.07-2.65-.22-1.21-.21-2.37-.58-3.45-1.17-2-1.1-3.39-2.73-4.19-4.87-.28-.76-.47-1.54-.58-2.34-.11-.79-.16-1.58-.14-2.37.02-.56.06-1.13.13-1.69.21-1.72.62-3.38,1.23-4.99.65-1.72,1.51-3.32,2.63-4.79,1.95-2.56,4.43-4.4,7.46-5.48.91-.33,1.85-.55,2.81-.7.91-.14,1.82-.2,2.4-.21ZM68.17,24.32c-.2.01-.42.03-.63.04-.42.03-.82.11-1.23.22-.6.17-1.15.45-1.67.78-.93.6-1.7,1.35-2.34,2.24-.57.79-1.02,1.64-1.36,2.55-.38,1.01-.65,2.04-.83,3.11-.12.75-.18,1.49-.15,2.25.02.55.11,1.1.26,1.63.21.72.57,1.36,1.12,1.88.44.41.94.71,1.53.86.29.07.58.13.87.15.43.03.86.03,1.29,0,.73-.06,1.43-.22,2.09-.55,1.32-.65,2.39-1.59,3.23-2.79.59-.84,1.05-1.75,1.39-2.72.29-.81.51-1.64.67-2.49.14-.78.24-1.57.22-2.36,0-.54-.07-1.07-.18-1.6-.19-.86-.61-1.6-1.25-2.21-.48-.45-1.05-.74-1.7-.87-.44-.09-.88-.1-1.33-.13Z"/>
      <path class="cls-1" d="M16.56,17.77c1.88,0,3.76,0,5.64,0,.11,0,.22,0,.32,0,.13-.01.2.06.24.17.03.08.06.15.09.22.43,1.06.85,2.12,1.28,3.18,2.57,6.41,5.14,12.81,7.71,19.22,2.13,5.31,4.26,10.62,6.39,15.93.04.1.08.2.11.3.04.1,0,.16-.1.17-.09,0-.19,0-.28,0-3.82,0-7.63,0-11.45,0-.08,0-.16,0-.24,0-.1,0-.15-.05-.18-.13-.04-.09-.07-.17-.1-.26-.39-.97-.79-1.94-1.18-2.91-2.36-5.85-4.73-11.7-7.08-17.56-2.4-5.97-4.78-11.94-7.16-17.92-.04-.1-.08-.2-.11-.3-.01-.03.02-.09.05-.09.13,0,.27,0,.4,0,1.88,0,3.76,0,5.64,0Z"/>
      <path class="cls-1" d="M48.27,2.17c0,.84-.13,1.62-.35,2.39-.37,1.29-.76,2.58-1.14,3.86-.02.08-.03.16-.06.23-.09.18-.04.33.09.47.41.45.81.9,1.22,1.35.02.02.04.04.06.06.05.05.08.05.14,0,.05-.04.1-.11.17-.09.48.14.95.28,1.43.42.02,0,.05.02.07.04.02.03.05.07.05.1-.02.12-.05.23-.09.35-.05.18-.11.36-.16.54-.03.09-.04.18-.05.28,0,.04.01.08.03.11.04.06.08.11.13.16.29.32.57.64.86.96.13.14.25.28.38.42.04.04.11.03.13-.02.02-.04.02-.08.04-.11.05-.11.13-.15.22-.12.45.13.9.26,1.35.4.14.04.16.14.12.25-.1.32-.19.64-.28.97-.02.05-.04.1-.05.15-.03.1-.02.18.05.26.12.13.23.27.34.4.54.6,1.08,1.2,1.61,1.8.32.36.64.72.96,1.08.05.06.1.12.16.18.07.09.1.19.09.3,0,.08-.01.16-.03.24-.08.27-.16.54-.24.81-.01.04-.04.07-.06.11-.03.05-.13.08-.18.06-.05-.02-.1-.04-.14-.07-.14-.1-.28-.21-.42-.31-1.42-1.04-2.84-2.09-4.25-3.13-.08-.06-.15-.11-.23-.16-.1-.07-.12-.06-.19.03-.02.03-.05.07-.07.09-.02.01-.05.02-.07.02-.04,0-.07-.05-.06-.09,0-.07.02-.13.03-.2.02-.07,0-.13-.06-.18-.13-.09-.26-.19-.4-.28-.04-.03-.12,0-.13.05-.11.41-.23.83-.34,1.24-.4,1.48-.79,2.96-1.18,4.44-.36,1.35-.72,2.7-1.08,4.05-.36,1.36-.73,2.72-1.09,4.09-.28,1.06-.57,2.13-.85,3.19-.32,1.21-.65,2.41-.97,3.62-.29,1.1-.59,2.21-.88,3.31-.33,1.23-.66,2.47-.99,3.7-.29,1.09-.58,2.18-.87,3.27-.36,1.35-.72,2.7-1.08,4.05-.07.27-.14.55-.21.82-.01.05-.04.1-.06.15,0,.01-.02.03-.03.03-.02,0-.05,0-.06-.02-.05-.11-.11-.22-.15-.33-.82-2.04-1.64-4.09-2.46-6.13-.88-2.21-1.77-4.42-2.65-6.62-.63-1.57-1.26-3.14-1.9-4.71-.11-.26-.15-.51-.04-.78.4-1.49.8-2.98,1.19-4.48.39-1.45.77-2.91,1.16-4.36.33-1.25.67-2.49,1-3.74.29-1.08.57-2.15.86-3.23.32-1.19.64-2.39.96-3.58.13-.48.26-.96.39-1.44,0-.03,0-.05.01-.08.01-.08-.03-.14-.1-.14-.11,0-.22,0-.32,0-.25.02-.51.04-.76.06-.06,0-.1.04-.13.09-.03.06-.05.12-.08.18-.02.04-.05.06-.1.05-.04,0-.07-.04-.07-.08,0-.05,0-.11,0-.16,0-.03-.02-.05-.05-.05-.11,0-.21,0-.32,0-.09,0-.19.03-.28.03-.66.04-1.31.07-1.97.1-.23.01-.46.03-.68.05-.03,0-.05,0-.08,0-.65,0-1.29.08-1.93.1-.27,0-.54,0-.8.05-.09.02-.19.02-.28-.01-.04-.01-.1-.08-.1-.12,0-.07,0-.14.01-.2.08-.28.16-.57.25-.85.06-.18.17-.3.35-.36.23-.07.46-.14.7-.2,1.22-.33,2.44-.66,3.65-.99.05-.01.1-.03.15-.06.03-.02.06-.05.08-.09.02-.05.04-.1.05-.15.1-.33.2-.67.31-1,.02-.05.04-.1.07-.14.02-.03.07-.04.1-.05.02,0,.05,0,.08.01.44.13.88.25,1.31.38.11.03.15.1.15.21,0,.03,0,.05,0,.08,0,.03,0,.05,0,.08,0,.03.05.07.08.07.18-.05.36-.09.55-.14.45-.12.9-.26,1.36-.37.14-.04.2-.12.24-.24.09-.28.17-.57.25-.85.02-.05.03-.1.06-.15.03-.05.07-.08.13-.08.04,0,.08,0,.12.01.42.13.85.26,1.27.38.11.03.15.1.16.2,0,.07.05.1.11.08.27-.07.55-.14.82-.22.38-.1.75-.21,1.13-.31.12-.03.18-.1.22-.21.06-.19.12-.38.18-.58.25-.84.49-1.67.74-2.51.11-.39.22-.78.34-1.16.28-.88.66-1.7,1.2-2.45.25-.35.52-.68.88-.93.09-.06.18-.12.28-.17C47.33,0,47.42,0,47.52,0c.1,0,.19.03.25.11.06.07.13.14.17.22.07.13.12.27.16.41.12.43.18.87.17,1.31,0,.05,0,.11,0,.12ZM36.96,39.83c-.01-.15-.12-.27-.23-.28-.13-.02-.25.04-.3.15-.03.07-.06.15-.08.23-.1.36-.19.73-.29,1.09-.01.04-.02.08-.03.12-.02.12.08.26.21.31.1.03.26-.03.31-.13.03-.06.06-.12.07-.19.11-.39.21-.78.31-1.17.01-.05.02-.1.02-.12ZM37.86,36.47c.02-.14-.07-.28-.2-.31-.14-.03-.28.04-.33.16,0,.02-.02.05-.03.08-.11.41-.22.83-.33,1.24-.01.04-.02.08-.02.12-.01.13.09.26.22.3.11.03.25-.04.3-.15.02-.05.04-.1.06-.15.11-.4.21-.8.32-1.2,0-.03,0-.05.01-.08ZM40.57,26.26c0-.11-.11-.22-.23-.25-.1-.02-.23.03-.28.12-.03.06-.06.12-.08.18-.11.4-.22.8-.32,1.2-.01.04-.01.08-.01.12,0,.11.09.23.21.27.11.04.26-.03.31-.13.01-.02.02-.05.03-.07.12-.45.24-.91.37-1.36,0-.03,0-.05,0-.08ZM40.84,24.53c.1,0,.18-.05.23-.13.03-.06.06-.12.07-.19.1-.39.21-.78.31-1.16.01-.04.02-.08.02-.12.01-.11-.07-.23-.18-.28-.09-.04-.22-.01-.29.07-.03.04-.06.09-.08.14-.12.45-.25.9-.36,1.36-.04.15.11.32.28.32ZM37.86,34.37c0,.16.07.26.2.3.11.04.25-.03.3-.14.02-.04.04-.07.05-.11.11-.39.21-.77.31-1.16.02-.08.03-.16.03-.24,0-.07-.03-.13-.08-.18-.11-.11-.3-.1-.39.02-.03.04-.06.09-.08.14-.11.41-.22.82-.33,1.24-.01.05-.01.11-.01.12ZM39.65,29.69c0-.1-.02-.17-.09-.23-.12-.1-.3-.09-.39.03-.03.04-.06.09-.08.14-.12.42-.23.85-.34,1.28,0,.04,0,.08,0,.12,0,.11.09.23.21.26.1.03.25-.04.3-.15.01-.02.03-.05.03-.07.11-.41.22-.82.33-1.24.01-.05.01-.11.02-.14ZM41.48,20.83c0,.18.08.29.2.31.12.03.25-.03.3-.14.02-.04.04-.07.05-.11.11-.41.22-.82.33-1.24.01-.05.01-.11,0-.16,0-.11-.1-.22-.23-.25-.09-.02-.22.04-.27.13-.02.03-.04.07-.05.11-.11.4-.22.8-.32,1.2-.02.06-.02.13-.02.15ZM43.27,16.17c0-.17-.07-.26-.21-.3-.1-.03-.25.03-.3.14-.02.04-.03.07-.05.11-.11.39-.21.77-.31,1.16-.02.08-.03.16-.03.24,0,.07.03.13.08.18.11.1.3.09.39-.03.05-.06.08-.14.1-.22.1-.36.2-.72.29-1.08.02-.08.03-.16.03-.19Z"/>
      <path class="cls-1" d="M90.36,18.21c.59,0,1.18,0,1.77,0,.09,0,.19,0,.28,0,.03,0,.08.06.07.08-.01.11-.02.21-.05.32-.31,1.4-.62,2.81-.93,4.21-.24,1.1-.5,2.2-.72,3.31-.34,1.7-.73,3.39-1.09,5.08-.32,1.51-.66,3.02-.99,4.52-.13.57-.16,1.14-.12,1.72.03.39.14.77.32,1.12.17.31.4.57.69.78.27.19.55.33.87.42.32.09.65.15.99.17.39.02.78.03,1.17,0,1.87-.14,3.32-.99,4.3-2.61.37-.6.62-1.25.77-1.94.22-.97.43-1.94.64-2.91.25-1.17.51-2.34.76-3.5.31-1.42.62-2.83.93-4.25.25-1.14.5-2.28.74-3.42.24-1.12.89-1.94,1.89-2.48.49-.26,1.02-.42,1.56-.52.45-.08.91-.11,1.36-.11,1.05,0,2.1,0,3.14,0,.03,0,.05,0,.08,0,.17,0,.17.06.15.17-.02.12-.05.24-.08.35-.51,2.33-1.02,4.67-1.53,7-.51,2.33-1.02,4.67-1.53,7-.26,1.17-.51,2.33-.77,3.5-.7,3.09-2.67,6.31-6.13,8.33-1.42.83-2.93,1.41-4.53,1.72-.74.15-1.48.24-2.24.28-.46.02-.91.06-1.37.04-.67-.02-1.34-.05-2.01-.14-1.34-.18-2.63-.54-3.82-1.21-.76-.42-1.45-.93-2.04-1.57-.95-1.03-1.56-2.24-1.84-3.62-.16-.79-.21-1.6-.18-2.41.03-.74.14-1.47.3-2.19.29-1.31.57-2.62.86-3.93.31-1.42.62-2.83.93-4.25.31-1.42.62-2.83.92-4.25.13-.59.26-1.18.39-1.77.21-.97.74-1.72,1.56-2.26.45-.3.95-.5,1.48-.62.41-.1.82-.16,1.23-.17.59-.01,1.18-.02,1.77-.03,0,0,0,0,0,0Z"/>
      <path class="cls-1" d="M6.08,56.96c-1.87,0-3.74,0-5.6,0-.13,0-.27,0-.4,0-.03,0-.08-.05-.08-.08,0-.05.02-.11.03-.16.29-1.08.57-2.15.86-3.23.3-1.14.61-2.28.91-3.42.32-1.21.65-2.41.97-3.62.29-1.1.59-2.2.88-3.31.36-1.36.73-2.72,1.09-4.09.36-1.36.73-2.72,1.09-4.09.28-1.06.57-2.13.85-3.19.56-2.09,1.11-4.18,1.67-6.27.26-.97.52-1.94.79-2.92.01-.04.03-.08.04-.11,0,0,.02-.01.04-.01.01,0,.03,0,.04,0,.03.06.07.11.1.17.23.56.45,1.12.67,1.68.71,1.76,1.41,3.51,2.12,5.27.77,1.92,1.54,3.84,2.31,5.76.62,1.55,1.24,3.09,1.86,4.64.06.16.12.33.2.49.06.13.05.26.02.39-.19.71-.39,1.43-.58,2.14-.53,1.98-1.06,3.97-1.59,5.95-.49,1.83-.98,3.66-1.47,5.48-.2.75-.4,1.5-.61,2.26,0,.03-.01.05-.02.08-.03.12-.09.16-.2.17-.12,0-.24,0-.36,0-1.88,0-3.76,0-5.64,0Z"/>
      <path class="cls-1" d="M107.55,46.18c-.56,0-1.13,0-1.69,0-.11,0-.21,0-.32,0-.06,0-.1-.05-.1-.1.01-.09.02-.19.04-.28.37-1.69.74-3.38,1.11-5.08.34-1.55.68-3.09,1.02-4.64.39-1.78.77-3.57,1.16-5.35.47-2.16.95-4.33,1.42-6.49.2-.92.4-1.84.6-2.76.03-.14.06-.29.1-.43.22-.78.67-1.4,1.31-1.88.49-.37,1.05-.6,1.64-.75.42-.1.84-.17,1.27-.18.2,0,.4-.02.6-.02,1.01,0,2.02,0,3.02,0,.07,0,.13,0,.2,0,.02,0,.07.06.06.09-.01.08-.02.16-.03.24-.48,2.2-.96,4.41-1.44,6.61-.43,1.95-.85,3.91-1.28,5.86-.36,1.65-.73,3.3-1.09,4.96-.31,1.42-.61,2.83-.92,4.25-.21.94-.43,1.89-.62,2.83-.24,1.13-.88,1.94-1.88,2.48-.5.27-1.04.43-1.6.53-.47.08-.93.1-1.41.1-.39,0-.78,0-1.17,0h0Z"/>
      <path class="cls-1" d="M84.97,65.47c0,1.16,0,2.31,0,3.47,0,.22,0,.43-.07.64-.06.22-.16.43-.29.62-.43.58-1.01.92-1.73.97-.36.03-.73.02-1.09,0-.51-.01-.97-.19-1.38-.5-.06-.05-.12-.1-.19-.15-.02-.01-.06-.01-.07,0-.05.03-.09.06-.13.09-.46.38-1,.57-1.6.56-.22,0-.43,0-.65,0-.62,0-1.16-.18-1.64-.57-.03-.03-.06-.05-.1-.07-.03-.02-.08-.03-.11,0-.08.07-.17.14-.25.2-.37.27-.78.42-1.23.44-.26.01-.51.02-.76-.03-.36-.07-.69-.21-.99-.44-.07-.06-.15-.12-.22-.18-.04-.03-.08-.02-.11,0-.05.04-.1.08-.16.13-.42.34-.91.52-1.45.52-.24,0-.48,0-.72-.05-.36-.08-.69-.23-.97-.46-.05-.04-.1-.08-.16-.13-.04-.03-.08-.03-.11,0-.08.05-.15.12-.22.17-.39.29-.82.45-1.31.47-.34.01-.67,0-1.01,0-.51-.01-.97-.19-1.37-.51-.05-.04-.1-.09-.16-.13-.04-.03-.1-.03-.15,0-.05.04-.1.09-.16.13-.42.32-.89.5-1.42.5-.34,0-.67.01-1.01,0-.62-.03-1.14-.28-1.57-.72-.35-.36-.55-.79-.56-1.3,0-.11,0-.22,0-.32,0-2.29,0-4.57,0-6.86,0-.12,0-.24,0-.36.02-.22.15-.38.37-.42.15-.03.29-.03.44,0,.2.04.33.19.36.39.01.13.02.27.02.4,0,1.25,0,2.5,0,3.75,0,1.02,0,2.04,0,3.07,0,.15,0,.3.02.44.02.21.12.38.26.53.21.21.46.34.75.35.31.02.62.02.93,0,.35-.02.64-.19.85-.47.13-.17.18-.36.19-.56,0-.11,0-.22,0-.32,0-1.06,0-2.12,0-3.19,0-.12,0-.24.01-.36.01-.16.1-.28.25-.34.22-.1.44-.1.66,0,.13.06.22.16.24.3.02.13.03.27.03.4,0,.91,0,1.83,0,2.74,0,.19,0,.38,0,.56,0,.09,0,.19,0,.28.03.32.18.56.43.74.19.14.4.22.64.22.28,0,.56,0,.85,0,.28-.01.52-.12.73-.31.21-.19.32-.43.34-.71,0-.11,0-.22,0-.32,0-1.06,0-2.12,0-3.19,0-.12,0-.24,0-.36.01-.21.13-.36.33-.41.17-.05.35-.05.52,0,.18.06.3.18.32.38.01.12.02.24.02.36,0,.94,0,1.88,0,2.82,0,.15,0,.3,0,.44,0,.05,0,.11,0,.16-.02.64.42.99.88,1.09.43.09.83.01,1.16-.29.21-.19.32-.43.33-.71,0-.11,0-.22,0-.32,0-1.06,0-2.12,0-3.19,0-.11,0-.22,0-.32.02-.23.17-.41.4-.44.11-.02.22-.02.32,0,.24.03.45.25.47.49,0,.11,0,.21,0,.32,0,1.06,0,2.12,0,3.19,0,.11,0,.22,0,.32,0,.24.1.44.26.62.16.17.36.29.58.34.45.1.86.02,1.2-.29.2-.18.31-.4.31-.68,0-.11,0-.22,0-.32,0-1.08,0-2.15,0-3.23,0-.11,0-.22,0-.32.03-.25.2-.41.45-.44.09,0,.19,0,.28,0,.26.03.45.2.45.48,0,.11,0,.22,0,.32,0,1.05,0,2.1,0,3.15,0,.11,0,.22,0,.32.01.35.16.62.44.82.18.13.38.22.6.22.31.01.62.02.93,0,.34-.02.62-.18.83-.44.12-.15.19-.32.2-.52,0-.13,0-.27,0-.4,0-2.23,0-4.46,0-6.7,0-.11,0-.22,0-.32,0-.05,0-.11.01-.16.04-.22.19-.36.4-.39.13-.02.27-.02.4,0,.21.05.36.21.37.42,0,.12,0,.24,0,.36,0,2.25,0,4.49,0,6.74,0,.12,0,.24,0,.36.01.4.2.69.54.89.16.1.34.16.53.16.28,0,.56.01.85,0,.35-.02.65-.17.87-.45.12-.15.2-.32.2-.52,0-.13,0-.27,0-.4,0-2.23,0-4.46,0-6.7,0-.11,0-.22,0-.32,0-.05,0-.11.01-.16.04-.21.19-.36.4-.4.13-.02.27-.02.4,0,.21.04.36.21.37.42,0,.12,0,.24,0,.36,0,1.17,0,2.34,0,3.51Z"/>
      <path class="cls-1" d="M24.82,65.48c0,1.1,0,2.2,0,3.31,0,.15,0,.3,0,.44-.02.35-.13.66-.33.94-.42.59-1,.94-1.72,1-.41.03-.83.02-1.25,0-.44-.02-.84-.19-1.19-.45-.09-.06-.17-.13-.26-.19-.02-.01-.06-.01-.08,0-.06.04-.11.08-.16.12-.43.35-.93.53-1.49.53-.23,0-.46,0-.68-.05-.36-.08-.69-.23-.97-.46-.06-.05-.13-.1-.19-.15-.02-.01-.06-.01-.07,0-.07.04-.13.1-.19.15-.41.33-.89.5-1.41.51-.28,0-.56,0-.84-.08-.3-.08-.58-.21-.83-.4-.07-.06-.15-.12-.22-.17-.02-.01-.06-.01-.07,0-.06.03-.11.08-.16.12-.43.35-.93.53-1.49.54-.12,0-.24,0-.36,0-2,0-4,0-6.01,0-.03,0-.05,0-.08,0-.42.01-.83-.03-1.22-.2-.08-.03-.12,0-.12.09,0,.07,0,.13,0,.2,0,.11,0,.22,0,.32,0,.75-.44,1.34-1.15,1.58-.34.11-.69.12-1.03.05-.02,0-.05-.03-.06-.05,0-.02,0-.05.02-.06.07-.04.14-.07.21-.11.15-.09.29-.2.4-.33.26-.29.41-.63.41-1.02,0-.12,0-.24,0-.36,0-1.9,0-3.79,0-5.69,0-.12,0-.24,0-.36.01-.2.13-.36.33-.41.2-.05.4-.06.59.03.12.05.2.14.23.26.02.06.03.13.04.2,0,.11,0,.21,0,.32,0,1.04,0,2.07,0,3.11,0,.12,0,.24,0,.36,0,.33.17.59.43.78.19.14.4.22.64.23.3,0,.59,0,.89,0,.06,0,.09-.06.06-.11-.02-.05-.04-.1-.06-.15-.11-.26-.16-.54-.16-.82,0-.7,0-1.4,0-2.1,0-.58.22-1.07.64-1.47.42-.39.91-.61,1.48-.66.3-.03.59-.01.88.06.57.14,1.03.44,1.39.91.23.31.36.66.37,1.05,0,.11,0,.22,0,.32,0,.83,0,1.67,0,2.5,0,.12,0,.24,0,.36,0,.06.05.11.09.11.4,0,.81.03,1.21,0,.46-.04.8-.29.97-.74.03-.09.04-.18.05-.28,0-.11,0-.21,0-.32,0-1.06,0-2.12,0-3.19,0-.11,0-.22,0-.32.01-.25.17-.43.42-.46.12-.01.24-.01.36,0,.21.03.37.19.4.4.02.12.01.24.01.36,0,1.08,0,2.15,0,3.23,0,.11,0,.22,0,.32,0,.26.11.47.29.65.15.16.34.26.56.31.5.11.93.01,1.28-.38.14-.15.22-.34.23-.55,0-.12,0-.24,0-.36,0-1.08,0-2.15,0-3.23,0-.11,0-.22,0-.32.03-.25.2-.42.45-.44.09,0,.19-.01.28,0,.29.05.46.31.46.49,0,.11,0,.22,0,.32,0,1.05,0,2.1,0,3.15,0,.11,0,.22,0,.32,0,.27.11.49.3.68.5.5,1.38.46,1.84-.07.12-.14.2-.29.21-.47.01-.15.02-.29.02-.44,0-1.06,0-2.12,0-3.19,0-.12,0-.24,0-.36.02-.24.17-.4.41-.43.12-.01.24-.01.36,0,.24.03.38.19.4.43,0,.12,0,.24,0,.36,0,1.08,0,2.15,0,3.23,0,.12,0,.24.02.36.04.33.22.57.49.75.17.11.36.18.57.18.28,0,.56,0,.85,0,.32-.01.6-.15.81-.39.13-.14.22-.31.24-.5.01-.16.02-.32.02-.48,0-2.23,0-4.46,0-6.69,0-.11,0-.22,0-.32,0-.07,0-.13.02-.2.03-.14.11-.25.24-.3.22-.09.44-.1.66,0,.15.06.23.18.25.34.01.13.01.27.01.4,0,1.17,0,2.34,0,3.51ZM8.78,68.45c0-.43,0-.86,0-1.29,0-.11,0-.21,0-.32-.01-.24-.11-.44-.28-.61-.43-.44-1.14-.48-1.63-.15-.19.13-.34.31-.41.53-.05.13-.05.26-.05.4,0,.66,0,1.31,0,1.97,0,.04,0,.08,0,.12,0,.3.14.54.36.73.2.17.43.28.7.28.4,0,.8,0,1.21,0,.05,0,.1-.05.1-.1,0-.09,0-.19,0-.28,0-.43,0-.86,0-1.29Z"/>
      <path class="cls-1" d="M53.69,71.18c-.81,0-1.61,0-2.42,0-.22,0-.43,0-.64-.05-.35-.08-.66-.23-.94-.45-.06-.05-.12-.11-.19-.15-.03-.02-.08-.01-.11,0-.07.04-.13.1-.19.15-.41.31-.87.48-1.38.49-.3,0-.59,0-.88-.08-.42-.12-.79-.33-1.1-.65-.36-.37-.56-.82-.56-1.34,0-.75,0-1.51,0-2.26,0-.49.19-.92.52-1.28.45-.49,1.01-.74,1.67-.78.45-.03.89.03,1.29.23.07.03.12.02.18-.04.22-.24.5-.23.78-.15.19.05.29.19.31.38.01.12,0,.24,0,.36,0,1.06,0,2.12,0,3.19,0,.09,0,.19,0,.28,0,.43.22.74.59.94.14.08.3.13.46.13.09,0,.19,0,.28,0,1.51,0,3.01,0,4.52,0,.09,0,.19,0,.28,0,.12,0,.19-.1.21-.21.01-.05,0-.11,0-.16-.01-.08-.04-.16-.06-.23-.25-.82-.5-1.64-.81-2.45-.07-.19-.16-.37-.24-.56-.17-.42-.52-.6-.95-.64-.29-.03-.56.04-.81.2-.26.17-.43.41-.48.72-.02.09-.01.19-.03.28-.02.2-.16.34-.36.38-.15.03-.29.03-.44,0-.2-.04-.33-.18-.36-.38-.04-.24,0-.48.07-.72.08-.28.22-.52.41-.73.43-.48.98-.75,1.62-.81.41-.04.81,0,1.19.15.16.06.32.14.47.24.25.16.46.37.61.63.17.29.3.6.43.91.29.73.51,1.47.72,2.22.07.25.13.49.2.74.06.2.07.4.06.6,0,.3-.15.51-.4.65-.23.13-.47.2-.73.22-.19.02-.38.02-.56.02-.75,0-1.51,0-2.26,0h0ZM46.47,68c0,.3,0,.59,0,.89,0,.08,0,.16,0,.24,0,.27.12.49.32.67.12.11.26.19.41.25.18.07.37.08.55.07.35-.02.64-.17.87-.44.13-.16.21-.34.21-.55,0-.08,0-.16,0-.24,0-.59,0-1.18,0-1.77,0-.08,0-.16,0-.24,0-.24-.1-.44-.26-.62-.38-.42-1.04-.54-1.58-.22-.34.19-.53.49-.53.89,0,.08,0,.16,0,.24,0,.28,0,.56,0,.85Z"/>
      <path class="cls-1" d="M99.38,73.27c-.65,0-1.29,0-1.94,0-.22,0-.43-.01-.64-.06-.46-.11-.85-.33-1.18-.66-.38-.38-.58-.83-.58-1.37,0-.27,0-.54,0-.81,0-.93,0-1.86,0-2.78,0-.11,0-.22,0-.32.02-.19.17-.35.36-.38.15-.03.3-.03.44,0,.19.04.31.15.36.34.02.1.03.21.03.32,0,.6,0,1.21,0,1.81,0,.51,0,1.02,0,1.53,0,.08,0,.16,0,.24.01.45.28.83.7.98.14.05.28.09.43.09.03,0,.05,0,.08,0,1.29,0,2.58,0,3.87,0,.11,0,.21,0,.32-.03.34-.06.59-.25.77-.53.03-.04.04-.1.05-.15.02-.09-.04-.19-.12-.23-.1-.05-.2-.07-.31-.08-.11,0-.22,0-.32,0-.51,0-1.02,0-1.53,0-.19,0-.38-.02-.55-.1-.16-.07-.3-.17-.42-.31-.13-.16-.22-.34-.23-.55,0-.08,0-.16,0-.24,0-.99,0-1.99,0-2.98,0-.2,0-.4.06-.6.07-.25.18-.48.34-.68.42-.53.98-.83,1.65-.91.32-.04.64-.02.96.06.54.13.99.42,1.33.85.29.36.43.77.42,1.23,0,.03,0,.05,0,.08-.02.19-.15.35-.34.4-.16.04-.32.04-.48,0-.2-.05-.32-.18-.36-.39-.01-.08-.01-.16-.02-.24-.01-.21-.1-.39-.24-.54-.44-.49-1.22-.54-1.72-.15-.25.19-.39.44-.4.76,0,.05,0,.11,0,.16,0,.78,0,1.56,0,2.34,0,.08,0,.16.01.24.02.18.15.32.34.35.13.02.27.02.4.02.48,0,.97,0,1.45,0,.13,0,.27.01.4.03.21.02.38.12.55.24.26.2.4.46.42.79.03.51-.12.96-.44,1.34-.46.54-1.04.84-1.75.87-.28.01-.56,0-.85,0-.44,0-.89,0-1.33,0h0Z"/>
      <path class="cls-1" d="M102.71,52.94c-.11.06-.16.18-.22.28-.36.55-.72,1.1-1.08,1.66-.16.25-.32.5-.49.74-.04.06-.08.11-.12.16-.05.06-.13.11-.21.11-.23,0-.46,0-.68,0-.08,0-.15-.06-.18-.14-.03-.09-.05-.18-.07-.27-.17-.75-.33-1.49-.5-2.24-.02-.09-.05-.18-.08-.27,0-.02-.03-.03-.05-.04,0,.01-.02.02-.02.03-.08.37-.17.73-.25,1.1-.15.71-.3,1.42-.45,2.13-.04.18-.08.37-.13.55-.01.06-.07.08-.12.09-.07,0-.13.01-.2.01-.24,0-.48,0-.73,0-.07,0-.13,0-.2-.01-.05,0-.1-.06-.1-.11,0-.05.01-.11.02-.16.23-1.1.47-2.21.7-3.31.21-1,.43-2,.64-2.99.02-.09.05-.18.07-.27.02-.06.08-.11.15-.11.39,0,.78,0,1.17,0,.08,0,.15.06.18.14.01.05.02.1.04.16.25,1.07.49,2.15.74,3.22.03.14.07.29.11.43,0,.02.03.05.06.05.02,0,.05-.02.06-.04.06-.09.12-.18.18-.27.7-1.08,1.4-2.16,2.11-3.25.07-.11.15-.23.22-.33.05-.07.12-.11.2-.11.39,0,.78,0,1.17,0,.06,0,.11.06.1.1-.01.07-.02.13-.03.2-.09.43-.18.87-.28,1.3-.15.7-.3,1.39-.45,2.09-.15.7-.29,1.39-.44,2.09-.07.33-.14.66-.21.98,0,.04-.02.08-.04.11-.01.02-.03.04-.06.05-.02.01-.05.02-.08.02-.36,0-.73,0-1.09,0-.07,0-.12-.07-.11-.14.04-.21.07-.42.12-.63.2-.92.4-1.84.59-2.76.03-.12.05-.24.01-.36.01,0,.02,0,.03,0,0,0,0-.02,0-.03-.01.01-.02.02-.04.04Z"/>
      <path class="cls-1" d="M114.25,67.28c0,.58,0,1.16,0,1.73,0,.16,0,.32-.04.48-.08.33-.23.63-.46.88-.45.49-1,.77-1.66.8-.34.01-.67,0-1.01,0-.08,0-.16,0-.24.01-.03,0-.07.05-.08.08-.02.06-.02.13-.02.2,0,.13-.01.27-.02.4-.02.28-.13.52-.31.73-.35.41-.79.64-1.33.67-.19,0-.38.01-.56-.04-.02,0-.03-.04-.04-.06,0,0,0-.03.02-.03.08-.05.17-.09.25-.13.15-.09.29-.2.4-.33.24-.27.37-.59.39-.95,0-.12,0-.24,0-.36,0-.12-.05-.17-.18-.17-.35,0-.7,0-1.05,0-.24,0-.48-.02-.72-.09-.37-.11-.69-.29-.97-.55-.43-.39-.66-.88-.67-1.46-.01-.74-.01-1.48,0-2.22.01-.56.24-1.04.65-1.42.06-.05.12-.11.18-.16.9-.7,2.46-.72,3.38.27.31.33.51.72.54,1.18,0,.15.01.3.02.44,0,.82,0,1.64,0,2.46,0,.12,0,.24,0,.36,0,.05.05.11.1.11.39,0,.78.01,1.17,0,.34-.01.62-.17.83-.44.12-.15.2-.32.2-.51,0-.12,0-.24,0-.36,0-1.09,0-2.18,0-3.26,0-.12,0-.24.03-.36.03-.17.14-.29.31-.34.18-.06.37-.06.55,0,.18.06.29.19.3.39,0,.11,0,.21,0,.32,0,.58,0,1.16,0,1.73ZM109.54,68.46c0-.43,0-.86,0-1.29,0-.01,0-.03,0-.04,0-.08,0-.16,0-.24-.02-.3-.14-.54-.37-.73-.45-.39-1.14-.39-1.6-.04-.26.2-.4.46-.41.79,0,.05,0,.11,0,.16,0,.62,0,1.23,0,1.85,0,.05,0,.11,0,.16.01.27.11.49.3.68.22.22.48.34.79.35.39,0,.78,0,1.17,0,.01,0,.03,0,.04,0,.05,0,.07-.04.08-.08.01-.08.01-.16.01-.24,0-.44,0-.89,0-1.33Z"/>
      <path class="cls-1" d="M79.04,49.86c.44,0,.89,0,1.33,0,.27,0,.53.05.79.15.26.1.47.25.66.45.19.22.31.48.33.76.09.91-.21,1.66-.9,2.26-.19.17-.41.3-.64.42-.08.04-.11.11-.09.2.05.18.09.36.15.54.18.63.36,1.26.54,1.9.01.04.02.08.03.12.02.07-.03.14-.09.15-.01,0-.03,0-.04,0-.46,0-.91,0-1.37,0-.01,0-.03,0-.04,0-.05-.01-.1-.03-.12-.09-.03-.1-.07-.2-.09-.31-.16-.64-.33-1.27-.49-1.91-.02-.06-.04-.13-.06-.19-.04-.11-.09-.15-.21-.15-.21,0-.43,0-.64,0-.11,0-.18.06-.2.16-.06.29-.12.58-.18.87-.1.47-.21.94-.31,1.42,0,.04-.01.08-.03.11-.02.03-.05.06-.09.08-.02.01-.05.02-.08.02-.39,0-.78,0-1.17,0-.12,0-.18-.07-.15-.18.07-.34.15-.68.22-1.02.19-.89.38-1.78.57-2.68.19-.91.38-1.81.58-2.72.02-.09.05-.18.08-.27.02-.06.06-.09.12-.09.09,0,.19-.01.28-.01.44,0,.89,0,1.33,0h0ZM78.98,52.88s0,0,0-.01c.23,0,.45,0,.68,0,.15,0,.29-.05.42-.12.36-.22.55-.54.54-.97,0-.26-.13-.43-.35-.54-.11-.05-.23-.08-.35-.08-.39,0-.78,0-1.16,0-.03,0-.05,0-.08,0-.06,0-.13.06-.14.13-.09.4-.18.81-.26,1.22-.02.08-.03.16-.05.24-.01.07.04.12.11.13.05,0,.11,0,.16,0,.16,0,.32,0,.48,0Z"/>
      <path class="cls-1" d="M59.4,54.87c-.02-.32.05-.63.11-.95.1-.55.23-1.1.38-1.65.11-.39.28-.76.49-1.1.41-.64.98-1.05,1.7-1.29.3-.1.6-.14.91-.16.42-.03.83.04,1.22.2.24.09.45.23.64.42.17.17.3.38.37.61.11.38.16.76.11,1.15-.04.29-.09.58-.14.87-.07.36-.15.71-.23,1.06-.11.44-.25.88-.48,1.28-.27.48-.63.87-1.1,1.16-.3.18-.63.31-.97.38-.31.07-.63.12-.96.09-.4-.03-.8-.11-1.16-.3-.43-.23-.69-.59-.81-1.05-.06-.24-.09-.48-.08-.73ZM63.78,52.01s0-.16-.02-.28c-.05-.29-.2-.49-.49-.59-.38-.13-.74-.09-1.09.09-.31.16-.52.42-.65.74-.07.17-.13.35-.18.53-.16.64-.3,1.28-.39,1.93-.03.2-.02.4.04.6.11.31.32.49.64.54.09.02.19.01.28.01.5,0,.88-.22,1.15-.63.14-.2.22-.43.28-.66.13-.48.23-.97.33-1.45.05-.25.09-.5.1-.84Z"/>
      <path class="cls-1" d="M69.59,49.85c.2,0,.4.01.6.02.04,0,.1.07.09.12,0,.07,0,.13-.02.2-.27,1.26-.54,2.52-.8,3.78-.04.17-.07.34-.11.51-.05.22-.02.43.06.63.11.27.32.43.6.48.4.07.77,0,1.1-.26.28-.21.45-.5.54-.83.06-.22.11-.44.16-.67.15-.7.29-1.39.44-2.09.09-.45.19-.89.29-1.34.03-.13.06-.26.09-.39.03-.11.08-.15.2-.15.38,0,.75,0,1.13,0,.04,0,.08.01.12.02.03,0,.07.06.06.09-.03.17-.06.34-.1.51-.25,1.18-.51,2.36-.76,3.54-.03.16-.06.32-.1.47-.17.59-.45,1.12-.89,1.55-.44.44-.98.71-1.58.83-.28.06-.56.09-.84.08-.3-.02-.59-.06-.87-.16-.62-.22-1-.65-1.15-1.29-.07-.32-.08-.64-.02-.96.1-.5.2-1,.31-1.5.15-.71.3-1.42.45-2.13.06-.29.12-.58.18-.87.03-.15.09-.19.26-.2.19,0,.38,0,.56,0,0,0,0,0,0,0Z"/>
      <path class="cls-1" d="M90.95,56.96c-.68-.01-1.33-.16-1.93-.5-.21-.12-.4-.27-.55-.46-.03-.04-.03-.12,0-.15.03-.03.05-.06.08-.09.3-.27.59-.54.89-.82.07-.06.14-.06.21.01.15.14.31.25.48.36.31.2.65.31,1.03.3.13,0,.27,0,.4-.01.25-.02.47-.11.67-.25.19-.14.31-.34.36-.56.06-.25-.05-.49-.29-.6-.12-.05-.25-.1-.38-.12-.2-.04-.4-.06-.6-.09-.29-.04-.58-.11-.85-.22-.1-.04-.2-.09-.29-.14-.49-.28-.71-.73-.69-1.28.02-.48.16-.92.42-1.33.24-.37.55-.66.94-.86.36-.19.74-.31,1.14-.37.63-.1,1.23,0,1.82.18.28.09.54.24.77.42.04.03.08.08.11.12.01.02.01.05,0,.08,0,.03-.02.05-.03.07-.26.29-.51.59-.77.87-.07.08-.16.08-.26.02-.16-.09-.32-.2-.49-.28-.39-.19-.8-.23-1.22-.17-.42.06-.71.31-.82.73-.05.19.01.34.14.48.07.08.17.13.27.17.24.09.49.12.75.16.25.03.5.08.75.15.18.05.35.13.52.23.43.25.65.63.67,1.12.02.38-.06.75-.21,1.1-.27.67-.76,1.13-1.41,1.42-.31.14-.63.23-.97.27-.23.03-.45.06-.68.06Z"/>
      <path class="cls-1" d="M108.83,56.83c-.6,0-1.21,0-1.81,0-.11,0-.21,0-.32,0-.15,0-.2-.06-.17-.2.02-.11.04-.21.07-.31.17-.8.34-1.6.51-2.4.21-.97.41-1.94.62-2.91.06-.28.12-.55.18-.83.02-.08.04-.16.07-.23.01-.03.05-.06.09-.07.04-.01.08-.02.12-.02,1.41,0,2.82,0,4.23,0,.05,0,.11.01.16.03.02,0,.04.03.05.06,0,.02.01.05,0,.08-.07.31-.14.63-.2.94,0,.04-.02.08-.04.11-.02.03-.06.06-.09.07-.11.01-.21.01-.32.01-.77,0-1.53,0-2.3,0-.53,0-.43-.03-.55.43-.07.27-.12.55-.18.83-.01.05-.02.11,0,.16,0,.03.04.08.07.08.09.02.19.02.28.02.6,0,1.21,0,1.81,0,.11,0,.21,0,.32.01.04,0,.09.07.09.12,0,.07,0,.13-.02.2-.05.25-.1.5-.16.75-.04.17-.1.22-.28.22-.26,0-.51,0-.77,0-.44,0-.89,0-1.33,0-.08,0-.16,0-.24.01-.06,0-.1.04-.11.1-.02.06-.04.13-.06.19-.07.34-.13.68-.21,1.02-.05.21,0,.23.2.23.81,0,1.61,0,2.42,0,.12,0,.24,0,.36,0,.07,0,.12.08.11.14-.07.34-.15.68-.22,1.02-.02.07-.07.12-.14.12-.11,0-.21,0-.32,0-.63,0-1.26,0-1.89,0Z"/>
      <path class="cls-1" d="M34.93,69.28c0,.73,0,1.45,0,2.18,0,.16-.01.32-.03.48-.03.23-.12.44-.27.62-.34.43-.79.68-1.35.71-.2.01-.4.03-.59-.05-.01,0-.02-.02-.02-.03,0-.01,0-.03,0-.03.08-.05.16-.09.24-.14.19-.11.35-.25.48-.42.15-.19.26-.41.3-.65.05-.31.04-.62.01-.92,0-.02-.04-.05-.06-.04-.09.02-.18.05-.27.08-.53.17-1.06.18-1.59.04-.37-.09-.7-.28-.98-.54-.43-.39-.65-.88-.68-1.46,0-.07,0-.13,0-.2,0-.6,0-1.21,0-1.81,0-.13,0-.27.02-.4.05-.52.3-.94.69-1.28.41-.36.89-.55,1.42-.6.3-.03.59-.01.88.06.59.14,1.05.46,1.41.94.18.24.29.51.33.81.02.17.03.35.03.52,0,.71,0,1.42,0,2.14ZM33.73,68.01h0c0-.28,0-.56,0-.85,0-.08,0-.16,0-.24-.01-.31-.14-.57-.38-.77-.42-.33-.88-.38-1.36-.16-.42.19-.64.52-.64.98,0,.05,0,.11,0,.16,0,.58,0,1.16,0,1.73,0,.07,0,.13,0,.2.03.46.27.78.69.96.19.08.39.1.59.09.51-.01,1.13-.42,1.11-1.14,0-.32,0-.65,0-.97Z"/>
      <path class="cls-1" d="M55.16,49.86c.75,0,1.5,0,2.26,0,.11,0,.21,0,.32.01.07,0,.12.07.1.14-.07.34-.15.68-.22,1.02-.02.11-.09.16-.2.17-.11,0-.21.01-.32.01-.39,0-.78,0-1.17,0-.07,0-.13,0-.2.02-.03,0-.07.04-.09.07-.02.03-.02.08-.03.11-.28,1.3-.55,2.6-.83,3.9-.08.38-.16.76-.24,1.14-.02.08-.04.16-.06.23-.02.08-.08.13-.18.13-.01,0-.03,0-.04,0-.36,0-.73,0-1.09,0-.04,0-.08,0-.12-.01-.04,0-.09-.08-.08-.12.05-.25.1-.5.15-.75.23-1.05.45-2.1.68-3.15.09-.41.17-.81.25-1.22.02-.09.02-.19.02-.28,0-.02-.03-.05-.05-.06-.06-.02-.13-.03-.2-.03-.4,0-.81,0-1.21,0-.09,0-.19,0-.28-.02-.06,0-.12-.09-.1-.15.08-.35.16-.71.23-1.06.01-.07.08-.12.15-.12.11,0,.21,0,.32,0,.74,0,1.48,0,2.22,0Z"/>
      <path class="cls-1" d="M27.04,66.16c0-1.4,0-2.8,0-4.19,0-.12,0-.24,0-.36.02-.22.15-.38.37-.42.15-.03.29-.03.44,0,.2.04.33.19.35.39.01.11.02.21.02.32,0,.48,0,.97,0,1.45,0,2.33,0,4.65,0,6.98,0,.15,0,.3-.02.44-.03.24-.18.39-.43.41-.12,0-.24,0-.36,0-.21-.03-.36-.19-.38-.41-.01-.13,0-.27,0-.4,0-1.4,0-2.8,0-4.19Z"/>
      <path class="cls-1" d="M84.63,56.82c-.19,0-.38,0-.56,0-.11,0-.16-.07-.14-.19.03-.13.06-.26.08-.39.24-1.13.48-2.26.72-3.39.19-.88.37-1.76.57-2.64.08-.36.04-.36.45-.36.3,0,.59,0,.89,0,.05,0,.11.01.16.02.03,0,.07.06.06.09-.02.12-.04.24-.06.36-.23,1.05-.46,2.1-.68,3.15-.2.96-.4,1.92-.6,2.88,0,.01,0,.03,0,.04-.13.45-.02.44-.55.44-.11,0-.22,0-.32,0h0Z"/>
      <path class="cls-1" d="M64.94,72.58c0-.11,0-.21.02-.32.02-.17.16-.33.33-.36.17-.04.35-.04.52,0,.15.04.26.14.3.3.06.24.05.48,0,.72-.03.18-.15.28-.32.33-.16.04-.32.04-.48,0-.21-.04-.35-.2-.36-.42,0-.08,0-.16,0-.24,0,0,0,0,0,0Z"/>
      <path class="cls-1" d="M99.69,74.63c0-.1,0-.21.03-.31.03-.16.13-.26.28-.31.2-.06.4-.06.59,0,.13.05.23.14.26.28.05.25.06.5,0,.75-.03.11-.1.19-.2.24-.24.12-.49.12-.73,0-.11-.06-.19-.15-.2-.28-.02-.12-.02-.24-.03-.36Z"/>
      <path class="cls-1" d="M46.17,63.21c0-.09,0-.19,0-.28.01-.2.15-.35.34-.4.16-.04.32-.04.48,0,.17.04.29.14.33.31.06.25.07.5,0,.75-.04.12-.12.21-.24.25-.21.09-.42.09-.62,0-.16-.06-.26-.19-.28-.36-.01-.09,0-.19,0-.28h0Z"/>
      <path class="cls-1" d="M49.15,63.22c0,.09,0,.19-.02.28-.03.17-.12.29-.29.35-.2.07-.39.07-.59,0-.17-.06-.27-.18-.29-.35-.02-.2-.02-.4,0-.6.02-.2.17-.33.36-.38.15-.03.29-.03.44,0,.21.04.36.2.38.41,0,.09,0,.19,0,.28,0,0,0,0,0,0Z"/>
      <path class="cls-1" d="M8.18,63.21c0,.09.01.19,0,.28-.02.17-.12.3-.28.36-.18.07-.37.07-.55.02-.2-.05-.32-.2-.34-.4-.02-.17-.02-.35,0-.52.02-.19.12-.39.4-.43.12-.02.24-.02.36,0,.26.04.41.2.42.46,0,.08,0,.16,0,.24h0Z"/>
      <path class="cls-1" d="M114.24,63.21c0,.08,0,.16,0,.24-.01.2-.13.35-.32.41-.17.05-.34.05-.51,0-.18-.05-.3-.17-.33-.36-.03-.21-.04-.43,0-.64.04-.19.16-.3.35-.34.15-.03.29-.03.44,0,.22.05.36.2.37.41,0,.09,0,.19,0,.28,0,0,0,0,0,0Z"/>
      <path class="cls-1" d="M64.35,72.6c0,.09,0,.18-.02.28-.02.18-.13.3-.29.35-.19.07-.4.07-.59,0-.15-.05-.25-.16-.27-.32-.04-.21-.03-.43,0-.64.03-.2.17-.34.37-.37.13-.02.27-.02.4,0,.22.03.37.18.39.39.01.11.01.21.02.32Z"/>
      <path class="cls-1" d="M99.1,74.66c0,.1,0,.21-.02.32-.01.13-.08.23-.19.29-.25.14-.51.13-.77,0-.1-.05-.16-.14-.18-.25-.05-.24-.05-.48,0-.71.04-.16.14-.26.29-.3.18-.06.37-.06.55,0,.16.05.27.17.3.34.02.11.01.21.02.32Z"/>
      <path class="cls-1" d="M102.71,52.94s.02-.02.04-.04c0,0,0,.02,0,.03,0,0-.02,0-.03,0,0,0,0,0,0,0Z"/>
    </g>
  </g>
</svg>