<?xml version="1.0" encoding="UTF-8"?>
<svg id="Calque_2" data-name="Calque 2" xmlns="http://www.w3.org/2000/svg" viewBox="0 0 211.95 48.29">
  <defs>
    <style>
      .cls-1 {
        fill: #fff;
      }
    </style>
  </defs>
  <g id="Layer_2_copy" data-name="Layer 2 copy">
    <g id="logo">
      <g>
        <g>
          <path class="cls-1" d="M95.13,48.24h-.79v-5.53h4.39v.82h-3.6s0,1.81,0,1.81h2.67v.82h-2.67s0,2.07,0,2.07Z"/>
          <path class="cls-1" d="M104.75,48.24h-.86c-.07-.26-.08-.57-.08-.94,0-.87-.74-1-.99-1.02h-1.85s0,1.96,0,1.96h-.78v-5.53h2.62c1.07,0,1.82.7,1.82,1.7,0,.58-.26,1.1-.66,1.45.08.07.64.33.64,1.44,0,.61.03.79.15.94ZM100.97,45.44h1.86c.54,0,.99-.47.99-1.04,0-.64-.54-.86-1.01-.86h-1.84s0,1.9,0,1.9Z"/>
          <path class="cls-1" d="M106.12,45.47c0-1.56,1.28-2.83,2.77-2.83s2.77,1.27,2.77,2.83-1.28,2.82-2.77,2.82-2.77-1.26-2.77-2.82ZM106.91,45.47c0,1.1.93,2,1.98,2s1.98-.89,1.98-2-.93-2-1.98-2-1.98.9-1.98,2Z"/>
          <path class="cls-1" d="M113.78,48.24h-.79s.68-5.53.68-5.53h.79s1.55,4.42,1.55,4.42l1.56-4.42h.78s.68,5.53.68,5.53h-.78s-.48-3.89-.48-3.89l-1.37,3.89h-.79s-1.37-3.88-1.37-3.88l-.48,3.88Z"/>
          <path class="cls-1" d="M126.59,48.24h-.79v-2.36s-2.94,0-2.94,0v2.36h-.79v-5.53h.79v2.35s2.94,0,2.94,0v-2.35h.79v5.53Z"/>
          <path class="cls-1" d="M132.54,48.24l-.55-1.33h-2.72s-.54,1.33-.54,1.33h-.79s2.26-5.53,2.26-5.53h.85s2.27,5.53,2.27,5.53h-.79ZM129.62,46.09h2.05s-1.03-2.5-1.03-2.5l-1.02,2.5Z"/>
          <path class="cls-1" d="M135.02,42.71l1.35,4.2,1.11-4.2h.79s1.1,4.2,1.1,4.2l1.36-4.2h.78s-1.79,5.53-1.79,5.53h-.79s-1.06-4.04-1.06-4.04l-1.06,4.04h-.78s-1.79-5.53-1.79-5.53h.79Z"/>
          <path class="cls-1" d="M146.31,48.24l-.55-1.33h-2.72s-.54,1.33-.54,1.33h-.79s2.26-5.53,2.26-5.53h.85s2.27,5.53,2.27,5.53h-.79ZM143.38,46.09h2.05s-1.03-2.5-1.03-2.5l-1.02,2.5Z"/>
          <path class="cls-1" d="M147.93,42.25c-.22,0-.39-.18-.39-.41s.17-.41.39-.41.39.19.39.41-.18.41-.39.41ZM148.86,48.24h-.79v-5.53h.79v5.53ZM149.01,42.25c-.22,0-.39-.18-.39-.41s.17-.41.39-.41.38.19.38.41-.17.41-.38.41Z"/>
          <path class="cls-1" d="M152.04,43.53v-.82h4.91v.82h-2.06s0,4.71,0,4.71h-.79v-4.71s-2.06,0-2.06,0Z"/>
          <path class="cls-1" d="M157.84,45.47c0-1.56,1.28-2.83,2.77-2.83s2.77,1.27,2.77,2.83-1.28,2.82-2.77,2.82-2.77-1.26-2.77-2.82ZM158.63,45.47c0,1.1.93,2,1.98,2s1.98-.89,1.98-2-.93-2-1.98-2-1.98.9-1.98,2Z"/>
          <path class="cls-1" d="M166.31,43.53v-.82h4.91v.82h-2.06s0,4.71,0,4.71h-.79v-4.71s-2.06,0-2.06,0Z"/>
          <path class="cls-1" d="M172.11,45.47c0-1.56,1.28-2.83,2.77-2.83,1.49,0,2.77,1.27,2.77,2.83s-1.28,2.82-2.77,2.82-2.77-1.26-2.77-2.82ZM172.9,45.47c0,1.1.93,2,1.98,2,1.06,0,1.98-.89,1.98-2s-.93-2-1.98-2-1.98.9-1.98,2Z"/>
          <path class="cls-1" d="M178.89,48.24v-5.53h.79v3.02s2.78-3.02,2.78-3.02h1.06s-2.21,2.43-2.21,2.43l2.35,3.1h-1.04s-1.87-2.48-1.87-2.48l-1.05,1.16h-.01s0,1.32,0,1.32h-.79Z"/>
          <path class="cls-1" d="M187.45,48.24v-1.97s-2.31-3.56-2.31-3.56h.97s1.74,2.74,1.74,2.74l1.73-2.74h.96s-2.31,3.59-2.31,3.59v1.94h-.79Z"/>
          <path class="cls-1" d="M191.59,45.47c0-1.56,1.28-2.83,2.77-2.83s2.77,1.27,2.77,2.83-1.28,2.82-2.77,2.82-2.77-1.26-2.77-2.82ZM192.38,45.47c0,1.1.93,2,1.98,2s1.98-.89,1.98-2-.93-2-1.98-2-1.98.9-1.98,2Z"/>
        </g>
        <g>
          <path class="cls-1" d="M59.77,12.02c-4.37.02-7.19,2.94-7.2,7.51,0,5.72.11,11.44-.05,17.16-.08,3.2,1.14,5.2,3.95,6.35,1.61.66,2.6.47,3.21-.84.55-1.17.13-2.32-1.42-2.95-1.49-.61-1.9-1.55-1.41-3.34,1.16,0,2.31.01,3.45,0,4.05-.06,6.92-3.04,6.97-7.27.04-3.03.03-6.06,0-9.09-.03-4.76-2.83-7.54-7.52-7.52ZM63.16,29.22c-.03,1.61-1.03,2.53-2.5,2.69-1.24.14-2.5.03-3.98.03,0-4.56-.06-8.84.03-13.12.03-1.72,1.3-2.59,3.27-2.58,1.97.02,3.13.9,3.17,2.68.08,3.43.07,6.86,0,10.3Z"/>
          <path class="cls-1" d="M137.36,12.38c-1.2-.02-2.4,0-3.55,0-.56-2.4-.58-2.43,1.48-3.57,1.07-.59,1.75-1.5,1.22-2.61-.33-.69-1.37-1.44-2.08-1.42-2.76.08-4.99,2.67-5,5.57-.02,6.24-.04,12.47,0,18.71.03,4.2,3.06,7.12,7.29,7.13,4.2.01,7.31-2.93,7.38-7.08.05-3.26.05-6.52,0-9.78-.06-3.91-2.99-6.9-6.75-6.95ZM140.01,28.99c-.07,1.92-1.3,2.97-3.32,2.95-1.95-.02-3.13-1.04-3.15-2.92-.05-3.83,0-7.67-.03-11.5,0-.96.36-1.35,1.26-1.31.77.04,1.54-.02,2.31.02,1.95.11,2.89,1.11,2.93,3.14.03,1.54,0,3.09,0,4.63,0,1.66.04,3.32-.02,4.98Z"/>
          <path class="cls-1" d="M112.64,12.05c-3.15.3-5.87,3.19-5.94,6.49-.08,3.71-.08,7.43,0,11.13.07,2.89,2.29,5.5,5.08,6.22,3.21.84,6.26-.32,7.76-2.96.91-1.59.78-2.91-.35-3.62-1.11-.71-2.06-.34-3.05,1.26-.76,1.24-1.85,1.6-3.13,1.28-1.27-.32-2.15-1.15-2.24-2.61-.05-.79,0-1.58,0-2.61,2.13,0,3.99.02,5.85,0,2.47-.03,4.22-1.52,4.47-4.07.17-1.68.16-3.44-.13-5.1-.64-3.73-4-5.83-8.32-5.42ZM117.05,21.85c0,.24-.48.7-.76.71-1.79.06-3.59.03-5.53.03,0-1.43-.07-2.62.02-3.8.11-1.42.91-2.3,2.29-2.49,1.48-.2,3.07-.16,3.65,1.51.43,1.23.31,2.68.33,4.03Z"/>
          <path class="cls-1" d="M155.02,12.02c-3.8.04-6.69,2.83-6.82,6.64-.06,1.77-.01,3.55,0,5.32,0,1.83-.05,3.66.01,5.49.14,3.87,3.19,6.71,7.17,6.72,3.94.01,7.13-2.82,7.25-6.66.11-3.66.12-7.32,0-10.98-.13-3.99-3.25-6.58-7.59-6.53ZM158.55,28.87c-.05,1.92-1.18,3.03-3.03,3.08-1.97.05-3.2-.99-3.25-3-.08-3.26-.08-6.52,0-9.77.05-2.07,1.17-2.98,3.26-2.93,1.96.05,2.96,1.02,3.02,3.03.04,1.6,0,3.2,0,4.8,0,1.6.04,3.2,0,4.8Z"/>
          <path class="cls-1" d="M78.28,12.21c-3.99.18-6.85,3.04-6.93,6.98-.03,1.6,0,3.2,0,4.81,0,1.77-.04,3.55,0,5.32.1,3.79,3.07,6.69,6.92,6.84,3.94.15,7.22-2.39,7.44-6.16.23-3.81.24-7.66.02-11.48-.23-3.95-3.42-6.48-7.46-6.3ZM81.87,28.54c-.09,2.24-1.28,3.43-3.29,3.41-2.02-.02-3.12-1.22-3.14-3.5-.02-3.02-.03-6.04,0-9.06.02-2.07.98-3.07,2.88-3.15,2.16-.09,3.26.82,3.53,2.9.01.11.02.23.02.34,0,1.54,0,3.08,0,4.61,0,1.48.05,2.96,0,4.44Z"/>
          <path class="cls-1" d="M195.99,32.04c-1.63-.58-1.88-1.69-1.86-3.29.07-6.8.04-13.6.02-20.4,0-1.97-.74-2.87-2.12-2.84-1.33.03-1.93.86-1.94,2.79-.02,3.66,0,7.31,0,10.97,0,3.37,0,6.74,0,10.11,0,3.75.89,5.08,4.21,6.47,1.19.5,2.25.33,2.82-.88.6-1.27.17-2.48-1.12-2.94Z"/>
          <path class="cls-1" d="M102.77,13.99c-.89-.74-2.17-.58-2.87.36l-5.91,7.93V6.52c0-.66-.53-1.19-1.19-1.19h-1.71c-.66,0-1.19.53-1.19,1.19v28.45c0,.66.53,1.19,1.19,1.19h1.71c.66,0,1.19-.53,1.19-1.19v-5.71l.86-1.16,4.23,7.05c.61,1.01,1.87,1.31,2.82.67h0c.95-.64,1.23-1.98.63-2.99l-4.99-8.32,5.57-7.47c.7-.94.55-2.3-.34-3.04Z"/>
          <path class="cls-1" d="M203.14,22.05c.47.2.93.25,1.41.15.47-.1.88-.33,1.22-.69.16-.16.23-.35.23-.56s-.08-.39-.23-.56c-.14-.16-.32-.24-.53-.24-.2,0-.37.08-.52.24-.13.14-.29.23-.47.26-.18.03-.36.02-.52-.05-.18-.08-.32-.2-.42-.36-.1-.16-.15-.33-.15-.53v-3.48c0-.2.05-.37.15-.53.1-.16.24-.28.42-.36.17-.07.34-.09.52-.05.18.03.34.12.47.26.14.16.32.24.52.24.21,0,.39-.08.53-.24.16-.15.23-.33.23-.54,0-.22-.08-.41-.23-.56-.34-.37-.75-.61-1.22-.7-.47-.1-.94-.05-1.41.15-.46.2-.82.5-1.08.92-.27.42-.4.89-.4,1.41v3.48c0,.52.13.99.4,1.41.27.42.63.73,1.08.92Z"/>
          <path class="cls-1" d="M211.76,15.25c-.13-.31-.3-.57-.52-.8s-.47-.41-.77-.54c-.29-.13-.61-.2-.94-.2s-.65.07-.94.2c-.29.13-.55.31-.77.54-.22.23-.39.49-.52.8-.13.31-.19.64-.19.98v3.48c0,.35.06.68.19.98.13.31.3.57.52.8.22.23.47.41.77.54.29.13.61.2.94.2s.65-.07.94-.2c.29-.13.55-.31.77-.54.22-.23.39-.49.52-.8.13-.31.19-.64.19-.98v-3.48c0-.35-.06-.68-.19-.98ZM210.45,19.71c0,.27-.09.49-.27.68-.18.19-.39.28-.65.28s-.47-.09-.65-.28c-.18-.19-.27-.41-.27-.68v-3.48c0-.27.09-.49.27-.68.18-.19.39-.28.65-.28s.47.09.65.28c.18.19.27.41.27.68v3.48Z"/>
          <path class="cls-1" d="M185.34,13.02c-.53-.15-1.02-.08-1.47.23-.45.31-.75.73-.9,1.28-.24,1.01-.5,2.09-.79,3.25-.24.98-.5,2.09-.79,3.32-.29,1.24-.6,2.5-.92,3.78-.32-1.28-.62-2.54-.9-3.78-.28-1.24-.53-2.35-.77-3.32-.29-1.16-.56-2.25-.79-3.25-.12-.46-.35-.83-.7-1.12-.35-.29-.76-.44-1.23-.44-.44,0-.83.15-1.18.44-.35.29-.58.66-.7,1.12-.24,1.01-.5,2.09-.79,3.25-.24.98-.5,2.09-.79,3.32-.29,1.24-.6,2.5-.92,3.78-.32-1.28-.62-2.54-.9-3.78-.28-1.24-.53-2.35-.77-3.32-.29-1.16-.56-2.25-.79-3.25-.15-.55-.45-.98-.92-1.28-.47-.3-.96-.38-1.49-.23-.53.15-.93.48-1.21.96-.28.49-.34,1.01-.2,1.56l4.38,18.34c.12.46.35.83.7,1.12.35.29.75.44,1.19.44.47,0,.88-.15,1.23-.44.35-.29.58-.67.7-1.12.24-1.01.5-2.09.79-3.25.23-.98.49-2.08.77-3.3.28-1.22.58-2.48.9-3.76.32,1.28.63,2.54.92,3.76.29,1.22.55,2.32.79,3.3.29,1.16.56,2.25.79,3.25.12.46.35.83.7,1.12.35.29.75.44,1.18.44.47,0,.88-.15,1.23-.44.35-.29.58-.67.7-1.12l4.39-18.34c.15-.55.07-1.07-.22-1.56-.29-.49-.7-.81-1.23-.96Z"/>
          <rect class="cls-1" x="201.64" y="23.5" width="10.29" height="1.61" rx=".45" ry=".45"/>
          <rect class="cls-1" x="109.64" y="5.33" width="8.51" height="3.52" rx=".98" ry=".98"/>
        </g>
      </g>
      <g>
        <g>
          <g>
            <path class="cls-1" d="M27.42,16.31l-.69,1.37c-2.16-4.31-4.95-7.15-8.38-8.51-3.54-1.41-7.79-1.25-12.75.45,1.23,2.5,2.42,4.32,3.58,5.46.87.87,1.71,1.32,2.51,1.38.77.05,1.55-.29,2.33-1.02.9-.85,1.79-2.19,2.66-4.03.33-.71,1.45-.18,1.1.57-.95,1.99-1.93,3.46-2.94,4.42-1.03.97-2.11,1.42-3.23,1.35-1.09-.07-2.18-.65-3.27-1.73-1.36-1.35-2.75-3.51-4.15-6.48l-.31-.65.65-.24c5.53-2.03,10.29-2.26,14.26-.68,3.51,1.39,6.38,4.17,8.63,8.34Z"/>
            <path class="cls-1" d="M31.08,15.46l-2.17,2.74,1.3-2.31c.29-.16.58-.3.87-.43Z"/>
            <polygon class="cls-1" points="34.25 14.67 32.93 16.17 32.93 16.17 34.25 14.67"/>
            <path class="cls-1" d="M39.72,15.88l-1.3.65c-1.95.97-3.45,2.05-4.48,3.24-1,1.15-1.57,2.41-1.7,3.77-.2,1.1-1.15.93-1.22-.13.16-1.64.83-3.14,2.01-4.5.88-1.01,2.04-1.94,3.49-2.79-.94-.2-1.87-.24-2.79-.1l1.2-1.37c1.15,0,2.3.24,3.46.7l1.35.54Z"/>
            <path class="cls-1" d="M27.07,13.88c-1.59-.99-2.92-2.27-3.98-3.85-.95-1.41-1.68-3.05-2.19-4.93l-5.24,1.51c-.75.27-1.48-.82-.33-1.24l6.44-1.86.15.64c.48,1.99,1.2,3.7,2.16,5.13.96,1.42,2.16,2.58,3.6,3.48.88.79.02,1.69-.62,1.11Z"/>
            <path class="cls-1" d="M13.26,10.6h0c-.14-.41-.42-.77-.83-.97-.4-.2-.85-.22-1.24-.07h0c-.39.15-.73.45-.93.87-.19.42-.21.89-.07,1.3h0c.14.41.42.77.83.97.4.2.85.22,1.24.07h0c.39-.15.73-.45.93-.87.19-.42.21-.89.07-1.3ZM12.08,11.34c-.05.1-.13.18-.22.21-.09.03-.2.03-.3-.02-.1-.05-.17-.14-.2-.23-.03-.1-.03-.21.02-.32.05-.1.13-.18.22-.21.09-.03.2-.03.3.02.1.05.17.14.2.23.03.1.03.21-.02.32Z"/>
          </g>
          <g>
            <g>
              <path class="cls-1" d="M36.89,2.98l-7.52,13.39-1.6,2.86-.77,1.37-.86,1.53c-.07.12-.18.2-.3.23-.04.01-.08.02-.12.02-.08,0-.16-.02-.23-.06-.23-.13-.32-.43-.19-.68l1.7-3.4.7-1.39,7.45-14.87,1.74,1.01Z"/>
              <path class="cls-1" d="M26.44,22.1l.96-1.21h0s-.96,1.21-.96,1.21ZM26.44,22.1l.96-1.21h0s-.96,1.21-.96,1.21Z"/>
            </g>
            <path class="cls-1" d="M37.66,1.6s0,.01-.01.02l-.47.83-1.76-1.02.43-.85s.05-.09.08-.13c.01-.02.03-.04.04-.06.02-.02.03-.04.05-.06,0,0,.01-.01.02-.02,0,0,.01-.01.02-.02.01-.01.03-.02.04-.04h0s.01-.01.02-.02.01-.01.02-.02c.01-.01.03-.02.04-.03h0s.03-.02.04-.03c.01,0,.03-.02.04-.03h0s.03-.02.04-.02c.02,0,.03-.02.05-.02.02,0,.03-.01.05-.02.02,0,.03-.01.05-.02.02,0,.03-.01.05-.01.02,0,.03,0,.05-.01.02,0,.04,0,.06-.01.02,0,.03,0,.05,0h0s.03,0,.05,0c.02,0,.03,0,.05,0h0s.08,0,.13,0c.02,0,.04,0,.06.01.01,0,.03,0,.04,0,0,0,.02,0,.02,0,.01,0,.02,0,.03,0,.01,0,.03,0,.04.01,0,0,0,0,0,0,0,0,.01,0,.02,0,.01,0,.02,0,.03.01.01,0,.02.01.04.02,0,0,.02,0,.02.01.02.01.04.02.06.03.5.29.68.95.4,1.46Z"/>
          </g>
          <g>
            <g>
              <polygon class="cls-1" points="30.21 17.35 29.98 17.63 30.21 17.35 30.21 17.35"/>
              <path class="cls-1" d="M41.5,6.38l-7.25,8.29-1.32,1.5-5.76,6.59s-.01.01-.02.02-.01.01-.02.02c0,0-.01.01-.02.02,0,0-.01.01-.02.02,0,0-.01.01-.02.02-.01,0-.03.02-.04.03-.01,0-.03.01-.05.02-.02,0-.03.01-.05.02h0s-.02,0-.02,0c0,0-.02,0-.02,0,0,0-.02,0-.02,0-.02,0-.03,0-.05,0-.03,0-.06,0-.08,0-.01,0-.03,0-.04-.01-.01,0-.03,0-.04-.01-.01,0-.03-.01-.04-.02-.03-.01-.05-.03-.08-.05-.01,0-.02-.02-.04-.03,0,0-.01-.01-.02-.02-.01-.01-.03-.03-.04-.04,0-.01-.02-.02-.02-.03,0-.01-.02-.03-.02-.04,0,0,0-.01-.01-.02,0,0,0-.02-.01-.03,0-.02-.01-.03-.02-.05,0,0,0-.02,0-.03,0,0,0,0,0,0,0-.02,0-.03,0-.05,0,0,0,0,0,0,0-.01,0-.02,0-.03,0,0,0-.02,0-.03,0,0,0-.01,0-.02,0-.01,0-.03,0-.04,0-.01,0-.03,0-.04,0,0,0,0,0,0,0-.01,0-.03,0-.04,0-.01,0-.03.01-.04,0-.01.01-.03.02-.04,0-.01.01-.03.02-.04,0-.01.01-.03.02-.04,0-.01.02-.02.03-.04l.96-1.21h0s2.01-2.53,2.01-2.53l.4-.5.18-.22.22-.28,1.77-2.23,8.02-10.1,1.5,1.36Z"/>
              <polygon class="cls-1" points="34.25 14.67 32.93 16.17 32.93 16.17 34.25 14.67"/>
              <path class="cls-1" d="M30.21,17.35l-.22.28.22-.28h0ZM32.93,16.17h0l1.32-1.5-1.32,1.5Z"/>
            </g>
            <g>
              <path class="cls-1" d="M42.53,5.2s-.01.01-.02.02l-.62.71-1.52-1.38.59-.74s.03-.03.04-.05c.01-.01.03-.03.04-.04.02-.02.04-.03.05-.05,0,0,.02-.02.03-.02,0,0,.01-.01.02-.02,0,0,0,0,0,0,0,0,0,0,0,0,0,0,0,0,0,0,0,0,0,0,0,0,0,0,0,0,0,0,0,0,0,0,0,0,0,0,.01,0,.02-.01.03-.02.06-.04.09-.05.03-.02.07-.03.1-.05h0s.03-.01.05-.02c.02,0,.04-.01.05-.02h0s.07-.02.11-.02h0s.03,0,.04,0c.01,0,.02,0,.03,0,0,0,0,0,0,0,0,0,0,0,0,0h0s.03,0,.04,0c0,0,0,0,.01,0,0,0,.01,0,.02,0,.01,0,.03,0,.04,0,.01,0,.03,0,.04,0,.03,0,.06,0,.09.01,0,0,0,0,.01,0,.01,0,.02,0,.03,0,.01,0,.02,0,.03,0,.01,0,.02,0,.03,0,.01,0,.02,0,.03,0,.01,0,.03.01.04.02.01,0,.03.01.04.02.01,0,.03.01.04.02,0,0,0,0,0,0,.01,0,.02.01.03.02,0,0,0,0,.01,0,0,0,.02.01.03.02,0,0,0,0,.01,0,.01,0,.02.01.03.02.01,0,.03.02.04.03.03.02.05.04.08.06.43.39.47,1.07.1,1.52Z"/>
              <path class="cls-1" d="M41.48,3.45s.07-.02.11-.02c-.04,0-.07.01-.11.02Z"/>
              <path class="cls-1" d="M41.72,3.41s0,0,.01,0c-.02,0-.04,0-.05,0,.01,0,.03,0,.04,0Z"/>
              <path class="cls-1" d="M41.92,3.43s-.06,0-.09-.01c.03,0,.06,0,.09.01Z"/>
              <path class="cls-1" d="M41.48,3.45s.07-.02.11-.02c-.04,0-.07.01-.11.02ZM41.84,3.42s.06,0,.09.01c-.03,0-.06,0-.09-.01Z"/>
            </g>
          </g>
        </g>
        <path class="cls-1" d="M34.11,25.99c-.49.17-.99.33-1.49.47-5.24.45-10.58-.39-15.45-2.48-4.33-1.86-8.26-4.7-11.49-8.25-1.37-1.5-2.54-3.19-3.45-5.03-.15-.3-.27-.48-.45-.53-.29-.08-1.92,1.15-1.78,2.27.12.94,1.67,2.84,2.15,3.42-.49,1.51-.79,3.11-.87,4.78,0,0,.01.01.02.02v.05c-.03.51-.03,1.03,0,1.56.03.8.11,1.59.24,2.37.03.16.06.32.09.48.02.08.03.17.05.25.2.94.47,1.87.82,2.76.08.21.17.42.26.63.02.05.05.11.07.16.97,2.2,2.37,4.18,4.09,5.8.36.34.73.66,1.11.96.02.02.04.03.06.05,2.92,2.3,6.39,3.53,10.02,3.55.04,0,.09,0,.13,0,1.94,0,3.84-.34,5.66-1.01,1.72-.64,3.33-1.56,4.78-2.75.05-.04.11-.09.16-.14.14-.12.28-.24.42-.36.57-.51,1.11-1.06,1.61-1.64.01-.02.03-.03.04-.05.01-.02.03-.03.04-.05.19-.23.38-.47.57-.71.68-.9,1.28-1.86,1.78-2.88,0-.01.02-.03.02-.04,0-.01.01-.03.02-.04.17-.36.34-.72.49-1.09.28-.69.52-1.39.71-2.11l.17-.64-.6.2ZM18.12,38.58c-3.1-.02-6.07-.96-8.66-2.71,0,0,0,0,0,0,.02,0,.05,0,.07,0,0,0,.01,0,.02,0,.02,0,.05,0,.07,0,0,0,0,0,0,0,.03,0,.05,0,.08,0h0s.05,0,.08,0c0,0,0,0,0,0,.02,0,.05,0,.07,0,.03,0,.06,0,.09,0,.03,0,.05,0,.08,0,.04,0,.08-.01.12-.02.05,0,.09-.01.14-.02.02,0,.04,0,.06-.01,0,0,0,0,0,0,.06-.01.11-.02.16-.03.01,0,.02,0,.03,0,.04,0,.08-.02.12-.02,0,0,.02,0,.03,0,.06-.01.12-.03.17-.04,0,0,.01,0,.02,0,0,0,.02,0,.02,0,.1-.03.17-.05.2-.06,0,0,0,0,.01,0,0,0,.02,0,.03,0,0,0,.01,0,.02,0,.02,0,.06-.01.1-.02.01,0,.03,0,.04,0,0,0,.02,0,.03,0,.02,0,.04,0,.06-.01.01,0,.02,0,.03,0,0,0,.02,0,.03,0,.05-.01.11-.02.17-.03.01,0,.03,0,.04,0,.03,0,.05-.01.08-.01.05,0,.1-.02.16-.03.05,0,.1-.02.15-.02.02,0,.04,0,.06,0,.06,0,.12-.02.19-.02.03,0,.06,0,.09,0,.03,0,.06,0,.09,0,0,0,0,0,.01,0,.05,0,.1,0,.14-.01,0,0,.01,0,.02,0,.03,0,.06,0,.09,0,.38-.03.79-.03,1.2,0,.07,0,.14.01.21.02.09.01.18.03.28.04.02,0,.05,0,.07.01.09.02.18.04.27.06.04.01.09.02.13.04.07.02.13.04.19.07.02,0,.04.02.07.02t0,0s.08.03.12.05h0s.08.04.12.06c.02.01.04.02.06.03.09.05.18.1.26.16.04.03.09.06.13.1.05.04.09.08.14.12.02.02.04.04.06.06.13.13.24.27.33.44.06.1.12.2.19.29.04.04.07.09.11.13.02.02.04.04.06.06.08.08.17.15.26.22.12.08.24.16.38.22.19.09.4.16.63.21.07.01.13.03.2.04.32.05.67.07,1.05.05.12,0,.25-.01.38-.03.03,0,.07,0,.1-.01.07,0,.13-.02.2-.02s.14-.02.21-.03c.07-.01.14-.02.21-.04s.14-.03.22-.04c1.52-.3,2.85-.88,2.9-.91h.03s.02-.03.02-.03c0,0,.04-.03.11-.07.02-.01.04-.02.06-.04.02-.01.04-.03.07-.04.01,0,.02-.01.04-.02.05-.03.11-.07.17-.1.02-.01.04-.02.06-.04.06-.04.13-.08.2-.11.06-.03.12-.07.18-.1.03-.02.07-.04.11-.06l.09-.05s.09-.05.14-.07c.07-.04.14-.07.22-.11.17-.08.36-.16.55-.24.05-.02.11-.04.16-.06.61-.23,1.27-.41,1.87-.41.03,0,.06,0,.09,0,.04,0,.08,0,.11,0,.03,0,.05,0,.08,0,.03,0,.06,0,.09.01-2.81,2.17-6.26,3.34-9.77,3.32ZM28.57,34.72s-.04-.01-.05-.02c0,0,0,0-.01,0-.02,0-.04-.01-.05-.02,0,0,0,0,0,0-.02,0-.04-.01-.06-.02-.02,0-.04-.01-.06-.02-.05-.01-.11-.03-.16-.04-.02,0-.04,0-.06-.01-.02,0-.03,0-.05,0-.02,0-.03,0-.05,0-.07,0-.13-.02-.2-.02-.02,0-.03,0-.05,0-.04,0-.09,0-.14,0-.03,0-.05,0-.08,0-1.9,0-4.09,1.42-4.37,1.61-1.43.63-5.25,1.84-6.23.13-.02-.04-.05-.08-.07-.12-.04-.06-.08-.12-.12-.17-.03-.04-.06-.07-.08-.11h0c-.04-.05-.09-.1-.13-.15-.05-.05-.09-.1-.14-.14-.03-.02-.05-.05-.08-.07-.01-.01-.03-.03-.05-.04-.03-.02-.05-.04-.08-.06-.02-.01-.03-.03-.05-.04-.07-.05-.14-.1-.22-.15-.07-.05-.15-.09-.23-.13-.04-.02-.08-.04-.12-.06h0s-.08-.04-.12-.05h0c-.06-.02-.11-.05-.17-.07,0,0-.02,0-.02,0-.03-.01-.07-.02-.1-.03-.03,0-.05-.02-.08-.02-.04-.01-.08-.03-.13-.04-.07-.02-.14-.04-.21-.05-.03,0-.06-.01-.09-.02-.03,0-.05-.01-.08-.02-.03,0-.06-.01-.09-.02-.03,0-.05,0-.08-.01-.05,0-.1-.02-.15-.02-.04,0-.09-.01-.13-.02-.04,0-.09,0-.13-.01-.02,0-.05,0-.07,0-.04,0-.08,0-.12,0-.09,0-.18-.01-.26-.01-.04,0-.08,0-.12,0-.08,0-.16,0-.24,0-.04,0-.08,0-.11,0h0s-.07,0-.11,0c-.04,0-.07,0-.11,0-.04,0-.07,0-.11,0-.07,0-.14,0-.21.02-.03,0-.07,0-.1,0h0s-.07,0-.1.01c-.03,0-.07,0-.1.01-.19.02-.37.05-.53.08-.03,0-.05,0-.08.01-.01,0-.03,0-.04,0-.04,0-.07.01-.1.02-.01,0-.03,0-.04,0-.02,0-.04,0-.07.01-.07.02-.14.03-.2.04-.02,0-.03,0-.05.01-.01,0-.03,0-.04,0,0,0-.01,0-.02,0-.02,0-.03,0-.05.01,0,0,0,0-.01,0,0,0-.02,0-.02,0,0,0-.01,0-.02,0,0,0-.01,0-.02,0h-.02s-.01.01-.04.02c0,0-.02,0-.03,0-.02,0-.04.01-.07.02-.01,0-.02,0-.03,0h0s-.02,0-.04,0h0s-.04.01-.06.02c-.04,0-.08.02-.12.03-.02,0-.03,0-.05.01h0s-.04,0-.05.01h0s-.04,0-.06.01c-.01,0-.02,0-.03,0-.02,0-.04,0-.06.01-.29.05-.67.1-1.07.09-.02,0-.04,0-.05,0,0,0-.01,0-.02,0-.03,0-.05,0-.08,0-.02,0-.05,0-.07,0,0,0,0,0,0,0-.02,0-.03,0-.05,0-.02,0-.04,0-.06,0-.01,0-.03,0-.04,0-.07,0-.13-.02-.2-.03-.04,0-.07-.01-.11-.02h0s-.06-.01-.09-.02c0,0-.01,0-.02,0-1.97-1.58-3.59-3.61-4.7-5.92.03,0,.05.02.08.03.04.01.08.03.12.05.03.01.05.02.08.03.01,0,.03.01.04.02.03.01.05.02.08.04.07.03.15.07.22.1.03.02.07.03.1.05.06.03.12.07.18.1.02.01.04.02.06.03.03.02.06.04.09.05.03.02.05.03.08.05.07.05.15.1.22.16.01.01.03.02.04.03.01.01.03.02.04.03.04.04.09.08.13.12.01.01.03.03.05.04.01.01.03.03.04.04.01.01.03.03.04.04.01.01.02.02.03.03.03.03.07.07.1.1.01.02.03.03.04.05.01.02.03.03.04.05.01.02.03.03.04.05.01.02.03.03.04.05.01.02.03.03.04.05.01.02.02.03.03.05.07.09.13.19.19.3,0,.01.01.03.02.04.01.02.03.05.04.07.59,1.15,1.68,1.77,3.14,1.81.42.01.82-.03,1.14-.08.02,0,.05,0,.07-.01.02,0,.04,0,.07-.01.02,0,.04,0,.06-.01.15-.03.27-.06.37-.08.01,0,.02,0,.04,0,.09-.02.16-.04.2-.06,0,0,.01,0,.02,0,0,0,0,0,.01,0,.02,0,.06-.02.13-.03.02,0,.05-.01.08-.02.02,0,.05-.01.07-.02.05-.01.11-.02.17-.03.05,0,.1-.02.16-.03.03,0,.06-.01.09-.02.07-.01.15-.02.23-.04,0,0,.02,0,.02,0,.04,0,.09-.01.14-.02.05,0,.1-.01.14-.02.04,0,.07,0,.11-.01.03,0,.07,0,.1,0,.06,0,.13-.01.19-.01.08,0,.15-.01.23-.01.1,0,.2,0,.31,0h.01c.2,0,.39,0,.59.03h0c.12.01.24.02.36.04.05,0,.09.01.13.02h0c.07.01.13.02.19.04.1.02.19.05.29.08.07.02.14.05.21.07.03.01.05.02.08.03.03.01.06.02.09.04.06.03.12.06.18.09.02,0,.04.02.05.03,0,0,0,0,.01,0,.02.01.04.02.06.04.02.01.04.03.06.04,0,0,0,0,0,0,.06.04.12.08.17.12,0,0,0,0,0,0,.03.02.06.04.08.07t0,0s.04.03.06.05c.02.02.04.04.06.06.01.01.03.03.04.04.02.02.03.03.05.05.02.02.03.03.04.05.01.02.03.03.04.05.03.04.06.08.09.13.02.03.03.05.05.08,0,0,0,0,0,0,.02.03.03.05.05.08.16.28.37.51.62.7.03.02.06.04.09.06.03.02.06.04.09.05,0,0,0,0,0,0,.03.02.06.03.09.05.03.02.07.03.1.05.05.02.1.05.15.07.01,0,.02,0,.04.01.02,0,.04.02.07.02.02,0,.05.02.07.03.01,0,.03,0,.04.01.03,0,.05.02.08.02.02,0,.05.01.07.02.04,0,.07.02.11.03.07.01.13.03.2.04.03,0,.06,0,.09.01.02,0,.04,0,.06,0,.05,0,.09.01.14.02.02,0,.04,0,.07,0,.01,0,.03,0,.05,0,.02,0,.03,0,.05,0,.03,0,.06,0,.1,0,.03,0,.05,0,.08,0,.02,0,.03,0,.05,0,.03,0,.07,0,.1,0,.04,0,.09,0,.13,0h0s.09,0,.14,0c.12,0,.25-.01.38-.03.03,0,.07,0,.1-.01.07,0,.13-.02.2-.02s.14-.02.21-.03c.07-.01.14-.02.21-.04s.14-.03.22-.04c1.52-.3,2.85-.88,2.9-.91h.03s.02-.03.02-.03c.01,0,1.01-.68,2.2-1.13,1.04-.39,2.44-.68,3.23.13.14.14.28.25.42.35,0,0,.01,0,.02.01.02.01.04.03.06.04.04.02.07.04.11.06.01,0,.02.01.03.02.04.02.08.04.11.05.02,0,.04.02.07.03.07.03.13.05.2.07-.44.48-.9.93-1.39,1.35ZM32.27,30.19h0c-.5.9-1.09,1.75-1.74,2.53h0s-.02,0-.03,0c-.02,0-.04,0-.05,0-.05,0-.09,0-.14,0-.02,0-.04,0-.06,0,0,0-.01,0-.02,0-.02,0-.03,0-.05-.01-.01,0-.03,0-.04-.01-.01,0-.03,0-.04-.01-.02,0-.04-.01-.06-.02-.01,0-.02,0-.03-.01-.02,0-.03-.01-.05-.02-.01,0-.02,0-.03-.01,0,0,0,0,0,0,0,0-.02,0-.03-.01,0,0,0,0,0,0,0,0,0,0,0,0,0,0,0,0-.01,0-.01,0-.02-.01-.03-.02h0s-.04-.03-.06-.04c-.02-.01-.03-.02-.05-.03-.02-.01-.03-.02-.05-.04-.01,0-.03-.02-.04-.03-.01,0-.03-.02-.04-.03-.01,0-.02-.02-.03-.03-.01-.01-.03-.02-.04-.04-.02-.02-.04-.04-.06-.05-.02-.02-.04-.04-.06-.06-1.9-1.93-5.85.63-6.24.9-1.43.63-5.25,1.84-6.23.13-.02-.04-.05-.08-.07-.12-.02-.03-.04-.06-.06-.1-.02-.03-.04-.05-.05-.08-.03-.04-.06-.07-.08-.11-.02-.03-.04-.05-.07-.08-.02-.03-.05-.05-.07-.07-.02-.02-.04-.04-.06-.06,0,0-.02-.02-.03-.03-.05-.05-.09-.09-.14-.13-.01-.01-.02-.02-.03-.03,0,0-.02-.02-.03-.02-.02-.01-.03-.03-.05-.04-.16-.12-.32-.22-.5-.31-.04-.02-.08-.04-.12-.06h0s-.08-.04-.12-.05h0s-.04-.02-.06-.02c0,0-.01,0-.02,0s-.01,0-.02,0c0,0-.01,0-.02,0-.03-.01-.06-.02-.08-.03-.03-.01-.05-.02-.08-.03-.17-.06-.35-.1-.53-.14-.02,0-.04,0-.06-.01-.02,0-.03,0-.05,0-.02,0-.03,0-.05,0,0,0,0,0,0,0-.02,0-.05,0-.07-.01,0,0,0,0,0,0-.02,0-.05,0-.07-.01-.02,0-.05,0-.07-.01-.04,0-.09-.01-.13-.02-.07,0-.14-.02-.21-.02-.04,0-.07,0-.11,0,0,0,0,0,0,0-.04,0-.07,0-.11,0-.05,0-.1,0-.15,0-.04,0-.08,0-.12,0-.08,0-.16,0-.24,0-.04,0-.08,0-.11,0h0s-.07,0-.11,0c-.04,0-.07,0-.11,0-.04,0-.07,0-.11,0-.11,0-.21.02-.31.03-.03,0-.07,0-.1.01-.03,0-.07,0-.1.01-.07,0-.14.02-.21.03-.02,0-.05,0-.07,0-.36.05-.64.11-.82.15-.01,0-.03,0-.04,0-.03,0-.06.01-.08.02,0,0-.02,0-.02,0,0,0-.01,0-.02,0,0,0,0,0-.01,0,0,0,0,0,0,0h-.02s-.02.01-.05.02c0,0-.01,0-.02,0,0,0,0,0,0,0,0,0-.01,0-.02,0-.04.01-.09.03-.16.04-.01,0-.03,0-.04.01,0,0-.02,0-.02,0,0,0-.02,0-.03,0-.02,0-.04,0-.05.01,0,0,0,0-.01,0-.61.13-1.79.3-2.76-.17-.03-.02-.07-.03-.1-.05-.02,0-.03-.02-.05-.03-.02-.01-.03-.02-.05-.03,0,0,0,0-.01,0-.04-.02-.07-.04-.11-.07h0s-.08-.05-.12-.08c-.02-.01-.04-.03-.06-.04-.04-.03-.08-.07-.12-.1-.03-.02-.05-.05-.08-.07-.01-.01-.03-.03-.04-.04-.09-.09-.17-.2-.25-.31-.01-.02-.02-.03-.03-.05,0,0,0,0,0,0-.01-.02-.02-.03-.03-.05-.03-.06-.07-.12-.1-.18-.06-.11-.12-.22-.19-.33-.01-.02-.03-.04-.04-.06-.03-.05-.07-.1-.1-.15,0-.01-.02-.03-.03-.04-.01-.02-.03-.04-.04-.05-.01-.02-.03-.04-.04-.06-.07-.09-.14-.17-.21-.25l-.02-.02s-.03-.03-.05-.05c-.03-.03-.06-.06-.09-.09-.03-.03-.07-.06-.1-.09,0,0,0,0,0,0-.03-.03-.07-.06-.1-.09h0s-.06-.06-.1-.09c-.04-.03-.07-.06-.11-.08-.02-.01-.04-.03-.05-.04-.08-.06-.17-.12-.25-.17-.01,0-.03-.02-.04-.03-.03-.02-.06-.04-.09-.06-.02-.01-.04-.02-.05-.03-.01,0-.02-.01-.03-.02-.02-.01-.05-.03-.07-.04-.03-.02-.07-.04-.1-.05-.04-.02-.09-.04-.13-.07-.04-.02-.08-.04-.11-.05-.03-.02-.07-.03-.1-.05-.04-.02-.08-.03-.12-.05-.02,0-.04-.02-.06-.02-.02,0-.04-.02-.06-.02-.03-.01-.06-.02-.09-.04-.04-.02-.09-.03-.13-.05-.03,0-.05-.02-.08-.03-.14-.04-.27-.08-.4-.12,0,0-.02,0-.02,0,0,0,0,0,0,0-.01,0-.02,0-.03,0-.38-.92-.69-1.87-.91-2.84h0c.06.01.13.03.2.04.02,0,.05.01.07.02.04,0,.08.02.13.03.02,0,.04.01.06.02.02,0,.04.01.07.02.02,0,.04.01.06.02.05.01.09.03.14.04.04.01.08.03.12.04,0,0,.01,0,.02,0,.02,0,.04.01.06.02.04.02.09.03.14.05.02,0,.05.02.07.03.11.04.23.09.34.15.02.01.04.02.07.03,0,0,0,0,0,0,.04.02.08.04.12.06.05.02.1.05.14.08.02.01.04.03.07.04,0,0,0,0,.01,0,.04.02.08.05.11.07.12.07.23.15.34.24.03.02.06.04.08.07.09.07.18.15.27.24.02.02.04.04.05.05,0,0,0,0,0,0,.02.02.04.04.06.06.02.02.04.04.05.06.03.03.06.07.09.1.01.02.03.03.04.05.01.01.02.03.03.04.01.02.03.03.04.05.07.1.14.2.21.31.01.02.02.04.03.06.03.06.06.11.09.17.62,1.21,1.77,1.87,3.31,1.91.05,0,.1,0,.14,0,.03,0,.06,0,.09,0,.04,0,.09,0,.13,0,0,0,0,0,0,0,.07,0,.15,0,.22-.01.05,0,.09,0,.14-.01,0,0,0,0,0,0,.07,0,.14-.01.21-.02.01,0,.03,0,.04,0,.05,0,.1-.01.15-.02,0,0,0,0,0,0,.02,0,.03,0,.05,0,.03,0,.06-.01.09-.02.01,0,.03,0,.04,0,0,0,0,0,0,0,.03,0,.07-.01.1-.02.02,0,.04,0,.07-.01.05-.01.1-.02.15-.03.03,0,.06-.01.08-.02.02,0,.03,0,.05-.01.04-.01.08-.02.11-.03.01,0,.03,0,.04-.01.09-.02.15-.04.17-.05.19-.05,3.7-.93,5.24.65.01.01.03.03.04.04.12.13.22.27.31.43.38.67,1.04,1.08,1.95,1.23.5.08,1.07.08,1.71,0,.07,0,.14-.02.21-.03.11-.02.22-.03.33-.05.07-.01.15-.03.23-.04,1.61-.32,3.02-.94,3.07-.96h.03s.02-.03.02-.03c.01,0,1.07-.72,2.33-1.2,1.1-.41,2.6-.73,3.45.14.11.11.21.2.32.29.03.02.06.05.1.07.05.03.1.06.14.09.03.02.07.04.1.05.07.03.13.06.2.09.26.1.52.15.8.14h0s.04,0,.07,0c.02,0,.05,0,.07,0,.04,0,.09,0,.13-.02h.01s.03,0,.05,0c.02,0,.03,0,.05,0,.02,0,.04,0,.06-.01,0,0,.02,0,.03,0,0,0,.02,0,.03,0h0ZM32.78,29.21s-.02,0-.02.01c-.03.02-.06.04-.09.05-.04.02-.08.05-.12.06-.02,0-.03.02-.05.02-.05.02-.1.05-.15.07-.02,0-.04.01-.05.02-.02,0-.04.01-.06.02-.01,0-.02,0-.03.01-.02,0-.03,0-.05.01,0,0,0,0-.01,0-.01,0-.03,0-.04,0-.01,0-.03,0-.04,0,0,0,0,0-.01,0-.02,0-.03,0-.05,0,0,0,0,0-.01,0-.02,0-.03,0-.05,0,0,0,0,0,0,0-.02,0-.04,0-.06,0-.02,0-.04,0-.06,0-.43.02-.82-.16-1.19-.53-2-2.04-6.19.68-6.59.95-1.52.67-5.59,1.96-6.64.13-.09-.15-.19-.3-.29-.43-.03-.04-.06-.07-.09-.11-.25-.28-.55-.5-.88-.68-.04-.02-.08-.04-.12-.06-.04-.02-.07-.03-.11-.05-.2-.09-.41-.16-.62-.22-.03,0-.07-.02-.1-.03-.01,0-.02,0-.03,0-.08-.02-.16-.04-.24-.05-.1-.02-.2-.04-.29-.05-.06,0-.13-.02-.19-.03-.12-.01-.24-.02-.35-.03-.04,0-.09,0-.13,0-.26-.01-.52-.01-.76,0-.04,0-.08,0-.12,0h0s-.08,0-.11,0h0s-.08,0-.11,0c-.07,0-.15.01-.22.02-.04,0-.07,0-.11.01h0s-.07,0-.1.01c-.24.03-.46.06-.65.1-.06.01-.12.02-.18.03-.03,0-.05.01-.07.01-.02,0-.04,0-.06.01,0,0,0,0-.01,0-.02,0-.04,0-.05.01-.02,0-.04,0-.06.01-.03,0-.05.01-.08.02-.02,0-.03,0-.04.01-.08.02-.14.03-.15.04h-.02s-3.37,1.12-4.61-1.27c-.03-.06-.06-.12-.09-.17-.02-.03-.03-.06-.05-.08-.01-.02-.03-.05-.04-.07-.02-.03-.04-.06-.06-.09-.02-.03-.03-.05-.05-.08-.02-.03-.04-.05-.05-.08-.02-.02-.04-.05-.05-.07-.02-.02-.04-.05-.06-.07-.02-.02-.04-.05-.05-.07-.02-.02-.04-.05-.06-.07-.02-.02-.04-.05-.06-.07-.02-.02-.04-.04-.06-.07-.02-.02-.05-.05-.07-.07-.1-.1-.2-.2-.31-.29-.02-.02-.05-.04-.07-.06-.02-.02-.04-.04-.07-.05-.02-.01-.03-.03-.05-.04-.04-.03-.09-.06-.13-.1-.02-.01-.03-.02-.05-.03-.01-.01-.03-.02-.04-.03-.02-.02-.05-.03-.07-.05-.02-.02-.05-.03-.07-.05-.09-.06-.19-.12-.28-.17-.05-.03-.1-.06-.15-.08-.03-.01-.05-.03-.08-.04-.03-.01-.05-.03-.08-.04-.03-.01-.05-.02-.08-.04-.03-.01-.05-.02-.08-.03-.08-.03-.15-.07-.23-.1-.03-.01-.05-.02-.08-.03-.03,0-.05-.02-.08-.03-.13-.05-.25-.09-.38-.13-.02,0-.05-.02-.07-.02-.07-.02-.15-.04-.22-.06-.02,0-.05-.01-.07-.02-.02,0-.05-.01-.07-.02-.09-.02-.19-.04-.27-.06,0,0,0,0-.01,0-.04,0-.08-.02-.12-.02-.04,0-.09-.02-.13-.02,0,0-.02,0-.03,0,0,0-.02,0-.03,0-.15-.82-.24-1.66-.27-2.49,0-.24-.01-.48-.01-.72,2.49,2.37,5.56,4.26,8.93,5.49,4.34,1.58,9.17,2.12,14.35,1.61,2.87-.28,5.71-.87,8.46-1.76-.25.8-.56,1.59-.93,2.34Z"/>
      </g>
    </g>
  </g>
</svg>