<?xml version="1.0" encoding="UTF-8"?>
<svg id="Calque_2" data-name="Calque 2" xmlns="http://www.w3.org/2000/svg" viewBox="0 0 110.38 105.13">
  <defs>
    <style>
      .cls-1 {
        fill: #fff;
      }
    </style>
  </defs>
  <g id="Layer_2_copy" data-name="Layer 2 copy">
    <g>
      <path class="cls-1" d="M66.48,22.84c2.63.67,4.65-.59,6.68-2.15,1.07,3.28.58,6.46-.23,9.74,2.13.59,4.2.99,6.41.06-.09,3.49-.59,6.84-1.85,10.14,2.42.87,4.84,1.06,7.43.78-.23,2.1-.91,4.03-1.68,5.93-.78,1.93-1.82,3.71-3.12,5.32,1.36,1.3,3.32,2.09,6.07,2.42-.9,1.9-1.96,3.66-3.15,5.34-1.18,1.67-2.5,3.21-4.11,4.54.81.54,1.59,1,2.31,1.54.84.63,1.64,1.31,2.41,2.01.3.28.54.66.72,1.04.34.75.06,1.37-.72,1.59-.49.13-1,.21-1.51.21-2.98.03-5.95.03-8.93.03-7.88,0-15.76,0-23.64,0-5.3,0-10.6,0-15.9-.01-.7,0-1.42-.07-2.1-.22-.88-.19-1.19-.88-.77-1.68.23-.44.54-.89.93-1.2,1.17-.94,2.38-1.82,3.59-2.71.27-.2.57-.36.9-.57-3.18-2.74-5.37-6.15-7.29-9.93,2.36-.06,4.29-.94,6.14-2.32-1.3-1.65-2.35-3.42-3.14-5.33-.78-1.9-1.44-3.84-1.73-5.98,2.57.26,5,.08,7.44-.78-1.23-3.28-1.77-6.63-1.84-10.15,2.18.92,4.24.53,6.4-.04-.78-3.24-1.28-6.43-.23-9.75,2.02,1.51,4.05,2.83,6.72,2.13.06-.44.1-.83.18-1.21.28-1.35.81-2.58,1.66-3.68,1.9-2.47,3.71-5.01,5.26-7.72.52-.91.96-1.86,1.44-2.79.08-.15.19-.29.28-.42.13.06.21.07.23.11,1.24,2.85,2.96,5.41,4.73,7.94.68.97,1.38,1.94,2.11,2.88,1,1.29,1.58,2.73,1.75,4.35.02.17.07.33.12.55ZM62.77,70.84c.73,0,1.35-.04,1.95.01.67.06,1.08-.19,1.46-.74,3.46-5.04,4.46-10.64,3.78-16.6-.31-2.75-1.17-5.36-2.2-7.92-2.48-6.17-5.99-11.74-9.93-17.06-.07-.1-.19-.17-.3-.27-.18.23-.33.4-.45.58-1.59,2.35-3.24,4.65-4.74,7.05-2.52,4.02-4.61,8.25-6.07,12.78-1.52,4.76-1.73,9.56-.52,14.41.65,2.61,1.75,5.02,3.35,7.19.16.21.39.52.6.53.85.04,1.72.11,2.64-.04-.18-.29-.31-.5-.45-.71-1.21-1.89-2.22-3.88-3.02-5.98-1.72-4.49-1.99-9.02-.49-13.64.77-2.37,1.64-4.71,2.67-6.98,1.73-3.82,3.72-7.51,5.91-11.09.16-.27.38-.5.66-.85.25.38.44.63.59.89,1.49,2.67,3.02,5.32,4.43,8.03,1.66,3.2,3.01,6.52,4.12,9.96,1.46,4.56,1.26,9.03-.41,13.48-.81,2.16-1.83,4.2-3.07,6.15-.15.23-.28.47-.5.83ZM52.51,26.74c-.05-1.93.49-3.64,1.45-5.22.47-.77,1.01-1.5,1.54-2.24.54-.76,1.1-1.51,1.64-2.27.32-.45.55-.45.9.01.45.59.91,1.16,1.34,1.76.61.85,1.24,1.69,1.78,2.59.9,1.5,1.46,3.13,1.48,4.9,0,.15.05.31.08.48.57-.26,1.07-.59,1.6-.7.92-.18,1.23-.78,1.37-1.59.05-.31.12-.61.14-.92.11-1.88-.41-3.58-1.54-5.09-2.38-3.18-4.71-6.38-6.5-9.94-.05-.1-.13-.17-.21-.27-.07.09-.13.15-.17.22-1.78,3.53-4.07,6.74-6.46,9.87-.85,1.11-1.36,2.35-1.58,3.71-.17,1.08-.08,2.15.33,3.17.09.22.25.47.45.56.74.34,1.5.62,2.37.97ZM43.24,42.98c-2.48.77-5.1,1.3-7.88,1.17.28,2.16.93,4.1,2.1,5.84,1.19,1.79,2.81,3.01,4.89,3.58.7.19,1.41.36,2.18.28.19-1.03.37-2.02.56-3.11-2.19-.26-3.74-1.4-4.76-3.33,1.93-.91,3.8-.79,5.63.38.4-1.07.75-2.04,1.11-3.02-.71-.28-1.35-.5-1.96-.79-.61-.29-1.19-.64-1.86-1ZM68.1,44.85c.37.97.73,1.94,1.1,2.91,2.38-1.16,3.88-1.23,5.6-.31-.99,1.9-2.55,3.03-4.74,3.29.21,1.11.39,2.12.58,3.12,1.99.06,4.5-.88,6.16-2.72,1.32-1.46,2.13-3.19,2.63-5.07.16-.6.25-1.2.4-1.91-2.81.13-5.43-.4-7.81-1.14-1.38.64-2.6,1.22-3.91,1.83ZM35.43,53.18c-1.66,1.23-3.45,2.11-5.54,2.38.09.22.14.41.23.58,1.16,2.15,2.48,4.19,4.07,6.05.89,1.04,1.86,1.98,2.99,2.75.78.53,1.61.94,2.53,1.15.42.1.74.03,1.1-.24.61-.46,1.28-.83,1.92-1.25.12-.08.23-.19.37-.3-4.54-1.21-6.96-4.38-8.45-8.58,1.06-.09,2.05-.02,2.96-.55-.74-.68-1.43-1.3-2.19-1.99ZM72.02,64.29c.91.62,1.74,1.2,2.59,1.74.15.09.38.12.56.09.41-.08.83-.18,1.22-.34,1.29-.5,2.36-1.34,3.34-2.3,2.25-2.2,3.93-4.82,5.42-7.57.05-.1.07-.21.11-.36-2.11-.24-3.89-1.19-5.55-2.37-.74.68-1.44,1.32-2.18,2,.95.47,1.91.46,2.86.51-.19,1.27-1.16,3.19-2.34,4.69-1.55,1.97-3.52,3.31-6.03,3.9ZM57.56,50.65c.16.27.27.44.37.63.94,1.8,2.09,3.44,3.67,4.74.38.32.77.65,1.43.7-.58-5.18-2.69-9.69-5.48-14.14-.78,1.4-1.5,2.61-2.15,3.87-1.48,2.86-2.6,5.85-3.11,9.04-.06.39-.06.8-.1,1.32,1.01-.42,1.69-1,2.29-1.68.58-.66,1.14-1.34,1.63-2.06.51-.73.93-1.53,1.46-2.41ZM57.57,21.58c.85,1.68,1.68,3.28,2.13,5.05.25.98.27,1.91-.59,2.66.29.4.54.75.84,1.16,1.5-1.44,2.41-3,2.07-5.04-.13-.75-.34-1.49-.6-2.2-.54-1.48-1.44-2.75-2.4-3.98-.46-.59-.94-1.17-1.43-1.79-.93,1.25-1.83,2.42-2.68,3.62-.92,1.31-1.54,2.76-1.79,4.36-.28,1.87.63,4.02,2.16,4.94.25-.36.51-.73.76-1.1-.71-.97-.73-1.99-.43-3.04.12-.41.26-.81.43-1.2.48-1.11.98-2.21,1.53-3.44ZM41.1,34.57c-.61,4.95,1.68,8.68,6.26,9.56.29-.64.58-1.29.88-1.95-2.23-1.01-3.43-2.84-3.05-4.64,1.71.03,3.27.42,4.41,1.95.51-.91.97-1.75,1.39-2.5-1.21-.84-2.36-1.65-3.59-2.5-2.01.6-4.14.86-6.3.08ZM64.16,37c.45.79.91,1.61,1.41,2.5,1.16-1.56,2.72-1.93,4.53-1.95-.12,2.27-1.02,3.87-3.19,4.63.32.7.61,1.34.89,1.96,4.62-.89,6.85-4.66,6.26-9.57-2.18.82-4.34.49-6.3-.07-1.27.88-2.4,1.67-3.59,2.5ZM70.73,57.74c1.57-.05,3.03-.09,4.43.62-1.04,1.93-2.62,2.79-4.75,2.69-.21.98-.4,1.87-.61,2.84,2.39.07,4.37-.7,6.12-2.12,1.75-1.42,3.55-4.18,3.63-5.52-.33-.05-.67-.09-1-.15-1.59-.29-2.99-1.01-4.35-1.85-.22-.14-.53-.29-.76-.25-.91.15-1.81.38-2.71.58v3.16ZM44.42,54.55c-.79-.16-1.57-.27-2.33-.48-.45-.12-.79-.08-1.18.18-1.63,1.06-3.37,1.85-5.35,1.99.64,4.04,6.05,8.23,9.79,7.56-.21-.92-.42-1.84-.63-2.77-2.19.09-3.72-.8-4.78-2.79.81-.18,1.51-.4,2.23-.48.72-.08,1.45-.02,2.25-.02v-3.19ZM30.96,42.07c0,.21-.03.35,0,.48.82,3.45,2.09,6.71,4.34,9.49.76.94,1.71,1.73,2.6,2.55.18.16.55.3.74.23.73-.28,1.43-.62,2.09-1.19-4-2.19-5.48-5.78-6.01-10.01.62,0,1.12,0,1.63,0,.54-.01,1.08-.02,1.61-.07.48-.05.95-.15,1.47-.23-.56-.76-1.04-1.42-1.56-2.13-2.22.78-4.54.99-6.92.89ZM74.28,53.66c.78.42,1.38.73,1.96,1.07.38.22.69.16,1-.12.69-.63,1.43-1.21,2.05-1.91,2.59-2.92,4-6.41,4.89-10.15.03-.13.02-.27.04-.49-2.39.11-4.72-.1-6.95-.88-.53.72-1.02,1.39-1.55,2.11,1.55.42,3.1.32,4.68.3-.18,2.06-.71,3.92-1.63,5.67-.99,1.88-2.4,3.34-4.5,4.4ZM54.77,31.09c-.66-.99-1.3-1.82-1.79-2.73-.27-.5-.58-.88-1.05-1.17-1.39-.86-2.93-1.16-4.53-1.25-.58-.03-1.17-.11-1.73.03-.55,4.64,2.28,9.69,5.76,10.29.2-.34.41-.69.64-1.06-2.26-.96-3-2.76-3.2-5.02,2.07,0,3.71.66,4.84,2.46.42-.61.76-1.12,1.06-1.55ZM63.09,35.18c.12.23.22.43.34.62.12.18.26.35.41.56.37-.18.71-.32,1.03-.5,2.72-1.54,4.16-3.92,4.5-6.99.1-.95.28-1.9.11-2.93-.64,0-1.26-.04-1.87,0-1.59.12-3.15.41-4.5,1.33-.25.17-.58.36-.68.61-.48,1.17-1.2,2.17-2.15,3.06.4.58.76,1.11,1.14,1.65,1.59-1.89,3.11-2.61,4.89-2.3-.26,2.16-.97,4-3.21,4.9ZM36.44,31.39c0,.33-.03.64,0,.94.08.82.17,1.64.29,2.45.3,2.02.73,4.01,1.61,5.88.38.8.83,1.55,1.51,2.13.18.15.45.34.65.31.76-.1,1.52-.27,2.26-.6-2.2-2.36-2.76-6.25-2.07-8.72.93.4,1.87.79,2.97.64-.43-1.14-.85-2.25-1.29-3.4-1.94.54-3.89.76-5.93.38ZM71.49,34.42c1.13.15,2.08-.3,3.11-.68.35,3.25.02,6.23-2.26,8.8.65.17,1.21.28,1.73.47.6.22,1.02.03,1.43-.4.9-.95,1.44-2.09,1.86-3.3.66-1.88,1.01-3.83,1.22-5.8.07-.69.12-1.39.18-2.13-2.1.4-4.05.17-5.99-.37-.44,1.16-.85,2.27-1.28,3.42ZM42.25,21.63c-.85,4.66.3,8.79,2.09,12.82,1,.02,1.86-.19,2.8-.49-1.92-2.61-2.12-5.53-2.08-8.64,1.43.05,2.74.1,4.06.15-.15-.7-.3-1.35-.45-2.04-2.42.51-4.42-.4-6.43-1.81ZM70.8,34.53c.34-.84.64-1.51.89-2.2,1.07-2.95,1.75-5.97,1.44-9.14-.05-.49-.16-.96-.26-1.54-1.99,1.43-4,2.3-6.4,1.8-.16.72-.3,1.37-.45,2.08,1.36-.1,2.69-.28,4.05-.1.06,3.08-.18,5.98-2.11,8.61,1.02.18,1.9.33,2.84.49ZM78.14,70.84c-.15-.27-.21-.42-.31-.54-.93-1.06-1.83-2.15-2.82-3.15-.96-.97-2.08-1.75-3.35-2.27-.66-.27-1.33-.48-2.07-.3-.35.89-.69,1.77-1.04,2.67.12.06.19.11.27.12,1.61.21,2.93,1.02,3.83,2.28.73,1.01,1.54,1.31,2.7,1.2.88-.08,1.78-.02,2.8-.02ZM45.56,64.56c-1.18-.17-2.13.27-3.03.8-2.1,1.25-3.78,2.95-5.19,4.92-.1.15-.16.33-.25.52h4.48c1.24-1.82,2.78-3.19,5.06-3.51-.38-.97-.72-1.83-1.07-2.73ZM75.55,66.74s0,.09.03.13c1.14,1.14,2.25,2.31,3.12,3.68.09.14.31.28.47.27,1.33-.03,2.66-.03,3.97-.15.87-.08,1.01-.54.52-1.28-.06-.09-.13-.19-.2-.27-1.45-1.59-3.24-2.69-4.97-3.71-1.05.48-1.99.91-2.93,1.34ZM36.23,70.81c.57-.75,1.07-1.47,1.64-2.13.57-.68,1.19-1.31,1.76-1.92-1.02-.47-1.97-.9-2.98-1.37-1.56.95-3.17,1.94-4.53,3.27-.32.31-.6.68-.81,1.07-.23.45-.06.76.43.89.35.09.72.17,1.08.17,1.13.02,2.26,0,3.41,0ZM62.69,41.77h-10.24c-.32.75-.76,1.43-.98,2.31,1.27,0,2.43-.04,3.58.02.71.04,1.15-.17,1.48-.82.26-.51.52-1.06,1.06-1.45.15.16.29.28.4.44.3.45.6.9.85,1.37.19.35.44.46.83.45,1.19-.02,2.38,0,3.56-.01.13,0,.25-.05.48-.11-.37-.78-.7-1.49-1.03-2.2ZM53.97,64.91c2.45-1.91,4.86-1.85,7.29.04.2-.46.35-.85.54-1.23.16-.32.11-.58-.11-.86-1.82-2.25-4.73-3.18-7.35-.87-1.38,1.21-1.39,1.1-.36,2.91ZM52.66,41.35c1.32.18,9.14.12,9.79-.08-.37-.74-.74-1.46-1.11-2.2h-7.53c-.37.74-.74,1.46-1.15,2.28ZM57.73,54.81c-.88.9-1.66,1.83-2.57,2.61-.91.78-1.95,1.42-2.97,2.14.09.46.19.92.31,1.53,1.36-1.78,3.06-2.49,5.06-2.49,2.01,0,3.73.72,5.1,2.49.12-.66.2-1.11.28-1.58-2.08-1.29-3.97-2.7-5.21-4.71ZM57.67,53.59c.57,1.21,1.36,2.15,2.26,3,.9.84,1.87,1.6,3.07,2.26v-1.38c-2.6-1.03-3.97-3.33-5.46-5.57-1.47,2.26-2.84,4.49-5.4,5.55v1.38c.56-.35,1.01-.61,1.45-.91,1.64-1.13,3.1-2.43,4.08-4.34ZM60.19,67.07c-1.13-1.8-4.48-1.55-5.19.03.8,1.15,1.64,2.35,2.58,3.69.93-1.32,1.78-2.52,2.62-3.71ZM55.15,36.57c-.39.72-.74,1.38-1.15,2.15h7.15c-.37-.69-.66-1.3-1.02-1.87-.09-.15-.37-.26-.56-.27-1.44-.02-2.89-.01-4.42-.01ZM62.14,62.57c.4-.54.3-1.02-.1-1.42-.46-.46-.9-.96-1.45-1.28-1.45-.87-3.05-.98-4.67-.58-1.19.29-2.17.93-2.9,1.94-.32.45-.43.87,0,1.32,2.72-3.02,6.13-3.23,9.11.02ZM46.97,67.99c-1.65-.16-3.88,1.22-4.53,2.79,1.31.14,5.59.09,6.21-.08-.57-.91-1.13-1.82-1.69-2.72ZM72.87,70.81c-.92-1.27-1.91-2.2-3.26-2.67-.34-.12-.71-.18-1.08-.2-.16,0-.4.1-.48.24-.54.85-1.05,1.72-1.6,2.63h6.42ZM57.63,22.95c-.34.7-.62,1.23-.84,1.77-.29.73-.55,1.48-.76,2.24-.17.59-.03,1.16.38,1.77.39-.5.74-.95,1.16-1.48.43.56.79,1.01,1.16,1.48.61-.37.61-.9.52-1.44-.24-1.49-.88-2.84-1.62-4.35ZM55.86,44.33c-1.49,0-2.79,0-4.09.01-.2,0-.49.1-.56.24-.28.54-.49,1.12-.76,1.75h4.36c.33-.63.66-1.25,1.05-2ZM59.32,44.37c.33.64.62,1.15.88,1.68.14.28.35.33.62.33.76,0,1.53,0,2.29,0,.5,0,.99,0,1.62,0-.32-.76-.57-1.37-.84-2.01h-4.57ZM65.71,48.98h-4.13c.28.76.54,1.43.79,2.1h4.01c-.23-.74-.44-1.41-.66-2.1ZM52.79,51.1c.26-.74.51-1.41.77-2.13h-4.12c-.22.71-.43,1.39-.66,2.13h4.01ZM60.95,65.55c-1.56-2.15-5.54-1.95-6.72.02.06.13.13.29.21.43.08.14.17.26.27.4,1.95-1.5,3.86-1.48,5.78.02.17-.32.31-.59.47-.88ZM53.72,48.65c.29-.65.57-1.27.88-1.94h-4.29c-.26.63-.58,1.22-.64,1.94h4.06ZM64.87,46.71h-4.33c.32.7.61,1.33.88,1.9h4.16c-.26-.69-.48-1.28-.71-1.9ZM52.45,34.59c.17-.26.33-.56.54-.82.32-.39.29-.75.02-1.15-.83-1.21-2-1.74-3.43-1.84.05,1.88,1.27,3.49,2.87,3.81ZM65.56,30.84c-1.27-.01-2.42.51-3.17,1.45-.6.75-.61.88-.08,1.7.14.21.29.41.42.59,1.61-.34,2.86-2.02,2.83-3.74ZM45.74,48.49c-1.32-1.17-3.13-1.46-4.43-.75.71,1.46,2.06,2.29,3.89,2.37.04-.04.09-.08.11-.13.15-.49.29-.97.44-1.49ZM69.87,50.08c1.75.07,3.52-1.03,3.95-2.45-1.62-.52-3.08-.28-4.42.82.17.58.32,1.11.47,1.63ZM55.35,36.23h4.47c-.55-.95-1.04-1.8-1.53-2.64h-1.43c-.49.85-.98,1.7-1.51,2.64ZM52.65,51.49h-3.99c-.14.65-.27,1.24-.41,1.89h3.87c.18-.64.34-1.23.52-1.89ZM62.49,51.46c.21.71.38,1.32.55,1.92h3.87c-.16-.7-.31-1.31-.45-1.92h-3.97ZM63.48,55.68h3.74c-.09-.69-.17-1.31-.25-1.98-1.34-.02-2.56-.02-3.86,0,.14.74.25,1.34.37,1.98ZM51.67,55.68c.12-.65.24-1.28.36-1.93h-3.86c-.08.66-.15,1.26-.23,1.93h3.74ZM69.46,38.16c-1.11.03-2.07.3-2.86,1.02-.7.63-.74.92-.31,1.76.11.22.24.43.36.62,1.63-.38,2.54-1.48,2.81-3.4ZM48.02,56.07v1.91h3.47c.04-.65.08-1.25.12-1.91h-3.59ZM67.15,58.03v-1.95h-3.61c.04.67.08,1.28.12,1.95h3.49ZM45.72,38.15c.16,1.86,1.21,3.11,2.82,3.39.13-.23.27-.47.39-.72.35-.7.32-.93-.23-1.5-.79-.82-1.79-1.11-2.98-1.17ZM63.44,60.16h3.39c.09-.62.18-1.19.28-1.83h-3.46c-.07.63-.13,1.21-.2,1.83ZM51.51,58.34h-3.46c.1.65.18,1.22.27,1.82h3.39c-.07-.64-.14-1.21-.2-1.82ZM66.15,62.71c-1.23,0-2.31-.05-3.39.03-.26.68-.48,1.27-.73,1.93h3.4c.22-.6.44-1.2.72-1.96ZM52.37,62.71c-1.12.01-2.18-.04-3.36.04.27.73.49,1.33.71,1.91h3.4c-.26-.68-.49-1.27-.75-1.95ZM48.91,62.45c1.17,0,2.22.02,3.36-.01-.18-.73-.33-1.32-.48-1.91h-3.39c.18.67.34,1.25.51,1.92ZM55.65,69.12c-.4-.63-.7-1.13-1.03-1.62-.09-.13-.25-.28-.38-.28-1.06-.02-2.12-.01-3.35-.01.39.69.68,1.23,1.01,1.75.09.14.32.26.48.26,1.04,0,2.08-.05,3.27-.09ZM59.49,69.12c1.21.04,2.27.08,3.33.09.12,0,.3-.07.36-.17.35-.56.77-1.09.94-1.86-.8,0-1.53.05-2.26-.01-.82-.07-1.42.11-1.74.94-.12.31-.35.57-.63,1ZM63.36,60.51c-.16.67-.3,1.26-.46,1.9h3.35c.16-.63.32-1.23.49-1.9h-3.38ZM60.93,66.87h3.51c.27-.58.53-1.16.83-1.82h-3.43c-.3.6-.59,1.17-.91,1.82ZM54.24,66.89c-.36-.7-.65-1.27-.95-1.86-1.11-.01-2.2-.05-3.42.03.33.7.61,1.28.87,1.83h3.5ZM44.63,60.44c-.04-.59-.09-1.09-.12-1.6-.02-.28-.1-.51-.42-.54-1.09-.11-2.17-.09-3.29.36.99,1.29,2.16,1.95,3.83,1.78ZM70.51,60.45c1.69.14,2.87-.5,3.85-1.81-1.26-.4-2.42-.52-3.67-.24-.06.69-.12,1.33-.19,2.05ZM62.07,70.79c.23-.36.49-.78.86-1.35-1.26,0-2.33,0-3.39,0-.15,0-.33.09-.43.2-.28.33-.53.7-.87,1.14h3.83ZM56.83,70.81c-.48-1.1-1.19-1.58-2.3-1.35-.05.01-.11,0-.17,0-.66.01-1.32.03-2.14.05.36.54.62.93.87,1.3h3.74ZM57.58,32.43c-.18.32-.3.52-.45.78h.88c-.13-.24-.23-.43-.43-.78Z"/>
      <path class="cls-1" d="M84.42,88.52c.1-.12.22-.23.29-.37,1.53-3.07,3.05-6.13,4.56-9.21.23-.47.34-1,.53-1.6.58-.08,1.24-.16,1.87-.25.27.56.04.93-.14,1.31-1.18,2.45-2.37,4.89-3.53,7.35-.89,1.87-1.74,3.75-2.6,5.63-.17.38-.36.77-.08,1.32.22-.09.5-.11.64-.26.56-.63,1.21-1.23,1.59-1.97,1.23-2.39,2.35-4.84,3.52-7.26.62-1.28,1.26-2.54,1.86-3.82.29-.63.52-1.29.82-2.06.5-.07,1.14-.16,1.76-.25.31.53.08.94-.11,1.35-1.1,2.3-2.22,4.59-3.32,6.89-.92,1.94-1.82,3.9-2.72,5.85-.12.26-.24.52-.29.79-.03.2.06.42.09.63.21-.04.47,0,.61-.12.37-.3.75-.63,1.01-1.02.62-.94,1.15-1.95,1.76-2.9.99-1.53,2.1-2.94,3.7-3.9.12-.07.25-.14.38-.2,1.01-.48,1.5-.4,2.3.45.41-1.12,1.3-.63,2.15-.68-.09.27-.14.48-.22.67-.9,1.92-1.82,3.84-2.72,5.76-.2.43-.38.89-.5,1.35-.07.28-.01.59-.01,1.07.39-.26.68-.37.86-.59.42-.49.81-1.02,1.16-1.56.39-.59.71-1.22,1.08-1.83.14-.22.33-.42.59-.74.02.27.06.36.03.42-.65,1.09-1.29,2.2-1.98,3.27-.46.72-1.02,1.37-1.79,1.78-1,.53-1.57.23-1.66-.89-.03-.3-.03-.6-.05-1.08-.31.33-.49.56-.71.76-.54.5-1.04,1.05-1.65,1.45-.77.51-1.41.23-1.74-.64-.12-.31-.19-.65-.23-.99-.04-.3,0-.61,0-1.11-.26.31-.39.5-.56.67-.55.56-1.1,1.13-1.69,1.65-.22.19-.55.29-.85.35-.61.14-1-.1-1.15-.7-.09-.35-.1-.72-.16-1.19-.19.18-.32.34-.48.47-.55.44-1.05.97-1.66,1.28-.92.48-1.54.07-1.64-.96-.09-.99.18-1.91.52-2.81.2-.53.38-1.06.57-1.59h0ZM98.38,85.46c-.09-.18-.15-.53-.34-.62-.19-.09-.57,0-.76.14-.38.28-.72.64-1.02,1.01-1.04,1.28-1.78,2.74-2.46,4.24-.21.46-.37.95-.5,1.43-.07.24-.08.51-.03.75.1.52.48.73.94.46.33-.19.65-.47.89-.77,1.37-1.72,2.29-3.68,3.07-5.72.1-.26.13-.55.22-.93Z"/>
      <path class="cls-1" d="M24.13,92.92c.59.04,1.02-.27,1.35-.64.47-.52.92-1.08,1.27-1.69.76-1.33,1.47-2.68,2.15-4.05.28-.55.49-1.15.64-1.74.1-.41.29-.6.68-.62.45-.02.89,0,1.44,0-.06.37-.07.68-.18.95-.36.86-.74,1.72-1.15,2.55-.61,1.25-1.27,2.47-1.88,3.71-.17.35-.31.74-.35,1.12-.02.21.13.51.3.63.12.09.44,0,.61-.11.26-.16.49-.39.69-.62.7-.82,1.33-1.68,1.76-2.69.77-1.8,1.83-3.39,3.42-4.57.41-.3.85-.57,1.31-.78.88-.4,1.35-.27,2.05.52.16-.23.32-.44.5-.69.43,0,.89,0,1.34,0,.11,0,.21.04.36.08-.08.21-.13.4-.21.57-.92,1.95-1.85,3.89-2.76,5.84-.2.43-.37.89-.5,1.35-.07.26-.04.54-.07.98.33-.15.57-.18.69-.32.47-.53.93-1.07,1.32-1.65.43-.63.78-1.32,1.18-1.97.13-.22.32-.41.53-.66.07.18.12.25.11.27-.66,1.12-1.31,2.25-2.01,3.35-.48.74-1.05,1.41-1.87,1.82-.92.46-1.39.23-1.56-.77-.06-.35-.08-.71-.13-1.19-.38.42-.66.76-.98,1.07-.41.39-.82.79-1.29,1.09-.79.49-1.44.26-1.75-.61-.17-.46-.21-.97-.33-1.55-.22.28-.39.52-.58.75-.56.69-1.19,1.29-2.08,1.53-1.1.29-1.7-.12-1.79-1.25-.02-.22,0-.44,0-.81-.28.29-.47.48-.66.67-.58.59-1.21,1.11-2.03,1.35-.8.23-1.26-.02-1.45-.83-.08-.32-.11-.69-.03-1,.19-.65.42-1.3.72-1.9.67-1.34,1.41-2.65,2.11-3.98.2-.39.48-.78.24-1.3-.73.04-1.22.47-1.62.97-.56.71-1.11,1.44-1.56,2.22-.97,1.69-1.9,3.42-2.8,5.15-.21.4-.44.54-.85.5-.36-.03-.73,0-1.12,0-.09-.6.22-.99.43-1.4.94-1.87,1.91-3.73,2.87-5.59.45-.88.96-1.73.92-2.83h1.92c.36.43-.07.84-.06,1.37.3-.26.53-.48.79-.68.53-.43,1.09-.81,1.83-.81.76,0,1.15.36,1.21,1.12.08.95-.28,1.77-.72,2.57-.75,1.36-1.47,2.74-2.2,4.12-.17.32-.33.66-.16,1.06ZM32.55,92.12c.12.23.19.6.42.78.3.23.65.02.92-.21.21-.18.42-.38.59-.6,1.34-1.71,2.25-3.64,3.05-5.64.11-.28.2-.61.18-.91-.01-.25-.13-.58-.31-.71-.14-.1-.52-.02-.68.12-.4.31-.77.66-1.09,1.06-1.18,1.5-2.03,3.18-2.76,4.94-.14.34-.2.7-.32,1.17Z"/>
      <path class="cls-1" d="M58.51,93.98c0-.89.28-1.61.6-2.29.8-1.69,1.63-3.36,2.45-5.04.12-.25.24-.49.42-.86-1.2,0-2.29-.03-3.38.02-.22.01-.49.27-.64.48-.41.54-.76,1.13-1.14,1.69-1.17,1.78-2.41,3.5-3.87,5.05-.61.65-1.3,1.16-2.13,1.52-1.61.7-3.13-.19-3.66-1.24-.32-.62-.61-1.31-.68-1.99-.23-2.05-.11-4.07.81-5.98.67-1.4,1.58-2.63,2.81-3.58.5-.39,1.09-.72,1.7-.93,1.46-.5,2.7.15,3.11,1.64.47,1.71.21,3.32-.89,4.74-.19.25-.45.46-.7.7-.36-.4-.1-.65,0-.92.23-.58.47-1.15.66-1.73.08-.24.08-.5.08-.76,0-1.86-1.61-2.9-3.28-2.09-.5.24-.99.6-1.33,1.02-1.52,1.85-2.13,3.98-1.63,6.35.12.59.44,1.18.81,1.65.57.73,1.39,1.02,2.28.67.62-.24,1.24-.57,1.75-1,1.77-1.46,3.07-3.31,4.39-5.21-.22-.09-.44-.12-.55-.25-.11-.13-.2-.36-.16-.52.03-.15.23-.27.37-.38.06-.04.17-.04.25-.02.81.17,1.23-.3,1.63-.91.95-1.45,1.93-2.87,2.92-4.28.91-1.31,1.97-2.49,3.22-3.49.7-.56,1.47-.96,2.4-.95.88,0,1.37.44,1.45,1.32.07.79-.13,1.53-.45,2.22-.49,1.05-1.05,2.07-1.57,3.11-1.46,2.85-2.95,5.68-4.37,8.55-.51,1.03-.88,2.14-1.29,3.22-.12.31-.26.48-.6.48-.56,0-1.13,0-1.78,0ZM59.13,84.71c.89,0,1.67,0,2.45,0,.76,0,1.25-.32,1.6-1.02,1-2,2.06-3.97,3.09-5.96.14-.28.28-.56.36-.86.11-.45-.15-.76-.59-.66-.4.09-.83.25-1.14.52-.62.53-1.25,1.09-1.72,1.75-1.3,1.85-2.52,3.76-3.77,5.65-.09.13-.14.29-.27.58Z"/>
      <path class="cls-1" d="M84.42,88.52c-.6,1-1.16,2.01-1.8,2.98-.4.61-.86,1.2-1.36,1.73-.3.32-.71.56-1.12.74-.68.31-1.08.11-1.26-.62-.11-.43-.12-.87-.19-1.43-.37.41-.67.78-1.01,1.09-.41.39-.83.79-1.3,1.08-.76.46-1.37.22-1.7-.6-.12-.31-.19-.65-.23-.99-.04-.3,0-.61,0-1.07-.27.26-.43.44-.61.59-.7.62-1.38,1.25-2.11,1.83-.48.38-1.04.42-1.59.09-.53-.32-.65-.84-.64-1.39.01-.89.28-1.73.67-2.53,1.05-2.16,2.12-4.32,3.19-6.48.13-.27.26-.55.42-.89-.43-.03-.75-.06-1.12-.09v-.69c.17-.02.32-.07.44-.04.9.2,1.36-.29,1.67-1.04.43-1.01.89-2.01,1.28-3.04.27-.74.27-.8,1.05-.87.41-.03.83,0,1.38,0-.37,1.85-1.36,3.28-2.13,4.88.41.05.73.09,1.09.13.01.22.02.4.03.68-.53.03-1.03.05-1.61.08-.84,1.64-1.73,3.28-2.53,4.97-.57,1.2-1.04,2.45-1.54,3.68-.09.21-.13.43-.19.65-.1.34-.18.67.15.93.26.2.71.14,1.07-.22.92-.93,1.72-1.96,2.28-3.15.65-1.37,1.42-2.65,2.55-3.67.54-.49,1.14-.93,1.78-1.3,1.05-.6,1.57-.49,2.41.35.14-.22.27-.43.43-.68.35,0,.72,0,1.08,0,.19,0,.39.03.63.05-.05.17-.07.3-.12.42-.93,1.97-1.86,3.94-2.79,5.91-.2.43-.4.88-.53,1.34-.09.3-.05.64-.08,1.18.43-.28.72-.39.9-.6.45-.54.87-1.11,1.26-1.7.39-.59.73-1.21,1.08-1.82.17-.28.37-.49.73-.46,0,0,0,0,0,0ZM76.07,92.12c.1.21.17.6.4.77.34.26.7.01.98-.24.23-.21.45-.43.64-.67,1.27-1.68,2.18-3.55,2.94-5.51.13-.33.19-.72.19-1.08,0-.59-.43-.83-.91-.5-.41.28-.79.64-1.1,1.03-1.21,1.51-2.08,3.22-2.81,5-.14.34-.19.7-.32,1.19Z"/>
      <path class="cls-1" d="M5.81,88.49c.15-.67.25-1.15.37-1.63.16-.63.11-1.24-.11-1.84-.25-.69-.62-1.29-1.41-1.44-.79-.14-1.37.25-1.83.84-.58.74-.98,1.59-1.23,2.5-.42,1.57-.26,3.09.4,4.56.5,1.11,1.32,1.87,2.58,1.94,1.28.07,2.3-.48,3.02-1.56,1.52-2.26,1.48-4.63.49-7.05-.48-1.19-.81-2.41-.86-3.7-.05-1.18.11-2.32.62-3.39.56-1.17,1.43-2.04,2.64-2.52,1.63-.64,3.08.08,3.5,1.75.35,1.42.08,2.76-.82,3.94-.43.56-.83.74-1.6.74.15-.22.26-.4.38-.56.84-1.17,1.18-2.44.74-3.85-.22-.72-.56-1.41-1.43-1.51-.84-.09-1.29.51-1.64,1.14-.78,1.39-.79,2.86-.34,4.36.4,1.33.84,2.65,1.13,4,.4,1.86.39,3.74-.57,5.46-1.27,2.28-3.28,3.5-5.87,3.61-1.86.08-3.45-1.28-3.82-3.12-.61-3.04.4-5.53,2.67-7.54.51-.45,1.21-.74,1.87-.94,1.22-.36,2.16.22,2.42,1.46.31,1.45.1,2.81-.86,4-.08.1-.2.16-.46.36Z"/>
      <path class="cls-1" d="M110.38,88.08c-.03.13-.03.28-.09.38-.78,1.21-1.54,2.44-2.38,3.62-.51.72-1.18,1.29-1.98,1.71-.45.24-.91.37-1.37.07-.47-.3-.53-.8-.45-1.29.08-.5.2-1.01.42-1.46.6-1.28,1.27-2.53,1.89-3.8.25-.51.45-1.04.61-1.57.05-.17-.05-.45-.18-.58-.07-.07-.4,0-.53.1-.55.48-1.17.93-1.56,1.53-.75,1.13-1.37,2.34-2.01,3.54-.49.92-.96,1.86-1.38,2.82-.3.67-.75.95-1.46.84-.19-.03-.38-.03-.57-.04-.18-.48.06-.82.22-1.17,1.98-4.08,3.96-8.15,5.93-12.23.45-.94.82-1.92,1.25-2.87.06-.14.2-.3.33-.34.38-.11.77-.19,1.16-.21.41-.02.61.17.53.57-.09.44-.23.88-.43,1.28-.85,1.76-1.73,3.51-2.59,5.26-.14.27-.27.55-.32.91.2-.16.39-.35.61-.48.44-.25.88-.55,1.35-.67.86-.21,1.44.29,1.49,1.17.05.88-.23,1.68-.64,2.43-.5.92-1.03,1.82-1.52,2.75-.27.52-.51,1.07-.71,1.63-.05.14.05.39.17.5.07.07.34.02.45-.07.3-.22.6-.45.82-.73.76-.99,1.48-2,2.21-3.01.17-.24.33-.49.5-.73.07.04.14.08.22.12Z"/>
      <path class="cls-1" d="M71.05,87.41c-.06.15-.1.31-.17.46-.89,1.78-1.95,3.46-3.39,4.85-.47.45-.98.87-1.54,1.19-1.06.62-2.14.02-2.13-1.21,0-.66.16-1.36.39-1.98.39-1.03.87-2.03,1.36-3.02.67-1.37,1.38-2.73,2.07-4.09.14-.27.27-.55.44-.92-.41-.05-.75-.1-1.14-.15-.01-.2-.02-.39-.04-.67.34-.02.64-.07.93-.05.45.03.76-.09.95-.53.53-1.22,1.12-2.41,1.59-3.65.19-.5.43-.77.95-.77.47,0,.94.03,1.46.05-.4,1.79-1.37,3.21-2.11,4.8.38.05.68.09,1.04.13.02.2.04.4.06.66-.18.03-.32.09-.45.06-.88-.18-1.32.26-1.68,1.02-1.04,2.23-2.14,4.43-3.19,6.66-.26.56-.42,1.17-.6,1.77-.09.3-.13.64.2.84.33.2.67.1.94-.14.31-.29.63-.59.87-.93.88-1.25,1.73-2.52,2.59-3.79.16-.23.3-.46.46-.69.05.03.1.06.14.08Z"/>
      <path class="cls-1" d="M19.24,86.09c-.08,2-.75,3.52-1.72,4.9-.58.82-1.31,1.57-2.08,2.21-.5.42-1.17.69-1.82.85-1.36.33-2.58-.55-2.74-1.94-.07-.58-.06-1.21.09-1.76.71-2.56,2.2-4.55,4.53-5.88.24-.14.51-.26.78-.34,1.67-.5,3.08.38,2.97,1.97ZM17.89,85.51c-.08-.16-.13-.52-.34-.68-.31-.24-.64,0-.92.21-.2.15-.41.31-.58.49-1.5,1.52-2.58,3.29-3.2,5.34-.14.46-.23.94-.25,1.42-.03.74.56,1.12,1.19.75.45-.27.89-.62,1.22-1.03,1.38-1.7,2.26-3.65,2.78-5.77.05-.19.05-.39.1-.74Z"/>
      <path class="cls-1" d="M45.89,100.93c-.17,2.27-.08,3.43.33,4.07h-1.24c.47-.76.5-4.24.05-5.06q1.03-.16,1.55.69c.57.94,1.13,1.87,1.79,2.79-.07-1.16.31-2.33-.24-3.5h1.03c-.08.4-.2.78-.21,1.17-.03,1.02-.01,2.04-.01,3.06,0,.28,0,.55,0,.79-.5.28-.63-.06-.79-.32-.59-.97-1.17-1.94-1.75-2.91-.13-.21-.27-.42-.5-.78Z"/>
      <path class="cls-1" d="M52.24,105.01c.43-.76.44-4.28.05-5.08.81,0,1.64-.08,2.44.02.82.1,1.36.63,1.58,1.46.2.74.16,1.46-.07,2.17-.27.83-.88,1.33-1.74,1.41-.73.07-1.46.01-2.26.01ZM53.37,100.3v4.32c1.42.16,2.1-.36,2.22-1.69.03-.31.03-.62,0-.93-.11-1.32-.82-1.87-2.23-1.7Z"/>
      <path class="cls-1" d="M35.97,105.03h-1.42c.49-.81.31-1.62.26-2.47h-2.04c.06.84-.25,1.66.34,2.45h-1.44c.45-.76.45-4.31-.01-5.09h1.44c-.52.68-.31,1.41-.3,2.17h2.01c.06-.72.23-1.43-.27-2.17h1.37c-.52.78-.31,1.66-.3,2.5.01.85-.27,1.75.36,2.62Z"/>
      <path class="cls-1" d="M74.46,101.18c0,.65-.02,1.3,0,1.95.02.63-.18,1.3.39,1.89h-1.27c.51-.85.51-4.26.03-5.04.93-.26,1.02-.23,1.48.53.59.97,1.17,1.94,1.77,2.93.28-.88.17-2.9-.2-3.54h1.16c-.11.24-.23.44-.28.66-.05.22-.02.45-.02.68,0,1.19,0,2.38-.01,3.57,0,.05-.03.11-.04.17-.4.24-.56-.06-.72-.33-.6-.99-1.2-1.99-1.8-2.99-.11-.19-.23-.36-.35-.55-.05.02-.1.04-.15.06Z"/>
      <path class="cls-1" d="M83.65,99.91c.8,0,1.59-.03,2.37,0,.55.02.99.28,1.15.84.17.59.04,1.12-.44,1.53-.15.13-.31.24-.46.35.52.79,1.02,1.55,1.51,2.3-.83.24-.88.22-1.3-.54-.18-.32-.34-.65-.52-.97-.35-.6-.39-.61-1.2-.56-.03.71-.25,1.44.33,2.13h-1.44c.47-.79.48-4.24,0-5.1ZM84.74,102.42c.68.1,1.26.08,1.56-.53.2-.41.23-.9-.08-1.29-.39-.49-.92-.41-1.48-.31v2.13Z"/>
      <path class="cls-1" d="M43.92,102.58c-.05.26-.08.66-.19,1.03-.31,1.03-1.06,1.55-2.09,1.51-1.05-.04-1.71-.59-1.87-1.72-.09-.66-.08-1.36.05-2.01.21-1.06,1.07-1.66,2.1-1.61,1.05.05,1.74.69,1.92,1.81.05.28.04.56.07.98ZM43.16,102.49c-.13-.56-.23-1.15-.42-1.7-.15-.43-.54-.66-1-.65-.45.01-.81.26-.98.69-.43,1.1-.42,2.2.05,3.28.19.43.55.64,1.01.64.47,0,.83-.24.98-.68.17-.5.24-1.03.36-1.59Z"/>
      <path class="cls-1" d="M61,105c-.24.03-.41.06-.57.06-.96,0-1.92,0-2.91,0,.45-.86.46-4.34,0-5.15h3.43v1.16c-.41-.34-.67-.69-1.01-.81-.38-.13-.83-.03-1.3-.03v1.82c.63.28,1.11.06,1.55-.55.2.61.18,1.07.03,1.67-.46-.47-.88-.85-1.55-.54-.18.62-.08,1.28-.05,2.05.46,0,.96.12,1.33-.04.36-.15.59-.59.92-.94.31.39.1.8.12,1.29Z"/>
      <path class="cls-1" d="M72.24,104.95c-.43.04-.81.06-1.17.13-1.3.23-2.17-.36-2.36-1.67-.07-.52-.09-1.08-.01-1.6.2-1.42,1.13-2.13,2.55-2.01.31.03.61.1.97.16v1.14c-.21-.16-.36-.24-.46-.36-.63-.84-1.57-.8-2.02.14-.51,1.05-.47,2.15-.02,3.21.1.24.34.46.58.58.34.18.72.15,1.04-.1.26-.21.35-.95.16-1.36-.06-.14-.19-.26-.35-.46.29-.02.51-.05.72-.06.22,0,.45.02.6.02-.08.77-.15,1.51-.23,2.24Z"/>
      <path class="cls-1" d="M26.83,105.01h-1.55c.56-.52.36-1.05.09-1.62h-1.69c-.26.52-.59,1.04.11,1.62h-1.42c.36-.86.73-1.73,1.08-2.61.3-.74.58-1.48.84-2.22.13-.37.35-.49.79-.33.39,1.24.78,2.54,1.19,3.82.14.44.36.87.55,1.33ZM24.68,100.87h-.17c-.24.68-.48,1.35-.73,2.06h1.52c-.22-.73-.42-1.4-.63-2.06Z"/>
      <path class="cls-1" d="M79,99.9h3.45v1.09q-1.18-.83-2.27-.71v1.79c.63.25,1.1.06,1.53-.61.16.65.16,1.11,0,1.74-.43-.58-.88-.85-1.55-.56v1.99c.93.16,1.78.24,2.09-1.01.47.47.17.92.23,1.38h-3.43c.56-.78.32-1.67.31-2.51-.01-.85.3-1.76-.37-2.59Z"/>
      <path class="cls-1" d="M18.41,99.9h3.35v1.21c-.39-.36-.62-.71-.94-.83-.35-.13-.78-.03-1.24-.03v1.9c.69.38,1.06-.15,1.56-.66v1.84c-.48-.51-.89-.94-1.59-.6.05.75-.32,1.57.42,2.3h-1.54c.52-.82.3-1.7.29-2.54,0-.85.25-1.75-.31-2.59Z"/>
      <path class="cls-1" d="M57.6,5.7c-.92-.85-1.85-3.35-1.7-4.45.1-.7.49-1.11,1.2-1.22.22-.03.45-.04.67-.03,1.04.06,1.65.71,1.48,1.74-.15.85-.46,1.68-.76,2.49-.19.51-.38,1.06-.89,1.47ZM57.56,4.78c.53-.8.83-1.61,1.05-2.46.08-.32.07-.67.07-1,0-.35-.22-.57-.53-.69-1.06-.41-1.84.18-1.69,1.3.14,1.01.57,1.92,1.1,2.86Z"/>
      <path class="cls-1" d="M30.53,100.08v.95c-.2-.12-.34-.18-.44-.27-.08-.07-.11-.2-.18-.28-.36-.4-1.01-.43-1.37-.07-.33.33-.3.94.12,1.27.35.28.77.47,1.16.7.51.31.85.73.83,1.37-.03.72-.38,1.15-1.09,1.31-.65.15-1.28.04-1.97-.13v-1.16c.21.18.38.26.44.4.17.38.45.57.85.6.38.02.74-.05.94-.43.19-.36.12-.88-.2-1.17-.21-.19-.46-.32-.7-.47-.29-.18-.61-.32-.86-.54-.81-.71-.57-1.87.44-2.24.64-.23,1.33-.18,2.01.16Z"/>
      <path class="cls-1" d="M62.07,105.04c-.14-.52-.16-.86.06-1.32.19.27.31.4.4.56.25.44.64.52,1.09.46.37-.05.62-.24.7-.63.09-.47-.04-.85-.44-1.11-.33-.21-.69-.38-1.03-.59-.69-.43-.91-.88-.78-1.55.11-.59.6-.97,1.37-1.07.17-.02.34-.03.51,0,.31.03.61.09.97.15v1.16c-.23-.22-.34-.35-.47-.45-.21-.17-.42-.39-.66-.46-.37-.11-.75.02-.95.39-.19.36-.14.73.15,1.02.2.19.46.33.69.48.31.2.65.36.93.59.45.38.58.89.41,1.46-.16.55-.53.89-1.08.93-.61.04-1.23,0-1.87-.01Z"/>
      <path class="cls-1" d="M77.5,30.16c-.17-1.42-.24-2.79.42-4.08.4-.78,1.25-1.05,1.95-.7.76.37,1.05,1.19.68,2.02-.14.3-.34.59-.56.85-.58.71-1.57,1.47-2.49,1.91ZM77.96,29.05l.21.13c.47-.44.96-.85,1.4-1.31.23-.24.41-.55.52-.86.17-.46,0-.86-.4-1.09-.37-.22-.81-.14-1.13.24-.11.13-.21.27-.27.43-.31.8-.35,1.63-.33,2.46Z"/>
      <path class="cls-1" d="M84.06,54.54c-.08-1.16,0-2.17.3-3.15.13-.42.35-.84.62-1.18.46-.56,1.28-.65,1.84-.29.64.41.87,1.13.57,1.84-.09.21-.2.41-.34.58-.78.95-1.78,1.61-3,2.2ZM84.68,53.56c.88-.53,1.64-1.05,2.13-1.87.22-.37.22-.75-.08-1.1-.24-.28-.57-.44-.9-.27-.26.13-.53.35-.67.6-.44.78-.56,1.63-.47,2.64Z"/>
      <path class="cls-1" d="M32.23,41.35c-1.25-.64-2.25-1.3-3.01-2.28-.32-.41-.54-.88-.41-1.42.25-1.11,1.55-1.55,2.39-.79.28.25.5.62.64.98.41,1.07.45,2.19.39,3.51ZM31.61,40.31c.09-1-.03-1.88-.49-2.68-.32-.56-.83-.72-1.28-.48-.51.27-.64.83-.29,1.39.49.78,1.19,1.33,2.07,1.77Z"/>
      <path class="cls-1" d="M32.75,66.35c-1.25-.66-2.34-1.3-3.07-2.38-.23-.34-.35-.85-.33-1.27.03-.53.4-.92.92-1.11.56-.21,1.1-.09,1.48.33.31.35.56.79.7,1.23.32.98.39,1.99.29,3.2ZM32.19,65.39c0-1.06-.07-1.97-.57-2.78-.33-.52-.87-.68-1.3-.42-.48.29-.59.86-.23,1.41.5.77,1.23,1.27,2.1,1.79Z"/>
      <path class="cls-1" d="M31.06,54.54c-1.27-.67-2.44-1.34-3.18-2.53-.48-.77-.27-1.64.44-2.09.68-.44,1.57-.22,2.06.56.21.33.36.71.46,1.09.24.93.32,1.88.21,2.98ZM30.41,53.51c.06-.03.12-.06.18-.09-.11-.63-.19-1.26-.33-1.87-.07-.29-.21-.59-.39-.84-.34-.48-.84-.59-1.25-.32-.46.3-.58.81-.25,1.33.5.81,1.24,1.33,2.04,1.78Z"/>
      <path class="cls-1" d="M82.35,66.2c-.03-1.22.03-2.41.51-3.55.19-.45.48-.82.96-1.02.55-.23,1.05-.17,1.49.23.45.4.7.91.46,1.51-.14.36-.34.72-.6,1-.7.79-1.57,1.36-2.51,1.83-.06.03-.16,0-.31,0ZM82.98,65.38c.78-.48,1.4-.91,1.88-1.51.14-.17.27-.37.35-.58.16-.4.03-.8-.31-1.05-.33-.24-.78-.25-1.09.05-.21.21-.39.49-.51.77-.29.69-.38,1.41-.33,2.32Z"/>
      <path class="cls-1" d="M44.58,20.8c-1.01-.78-1.79-1.55-2.36-2.51-.17-.29-.3-.62-.36-.94-.14-.68.23-1.32.85-1.59.59-.26,1.37-.07,1.75.48.19.27.35.6.4.92.2,1.19.05,2.35-.28,3.65ZM44.24,19.74c.18-1.06.3-1.98-.07-2.9-.23-.56-.75-.78-1.23-.57-.49.21-.67.7-.45,1.27.34.85.91,1.52,1.75,2.19Z"/>
      <path class="cls-1" d="M37.61,30.21c-1.16-.72-2.18-1.45-2.87-2.55-.16-.25-.25-.57-.29-.87-.07-.63.24-1.08.77-1.39.48-.28,1.17-.25,1.56.18.33.36.59.82.75,1.28.28.85.27,2.13.07,3.34ZM37.15,29.23c0-.56.06-.99-.01-1.39-.09-.52-.21-1.06-.44-1.53-.26-.52-.78-.65-1.21-.41-.46.25-.63.72-.38,1.24.42.89,1.16,1.47,2.05,2.09Z"/>
      <path class="cls-1" d="M82.93,41.35c-.03-1.47-.06-2.79.61-4,.61-1.09,1.91-1.18,2.58-.21.26.37.35.78.19,1.21-.09.24-.19.48-.34.68-.77,1.01-1.79,1.68-3.04,2.32ZM83.53,40.47c.68-.58,1.23-1.01,1.73-1.48.2-.19.35-.45.46-.7.19-.42.03-.86-.34-1.11-.34-.23-.77-.21-1.08.11-.21.22-.37.5-.48.78-.27.69-.37,1.41-.29,2.4Z"/>
      <path class="cls-1" d="M70.59,20.79c-.37-1.25-.49-2.4-.32-3.56.11-.73.43-1.36,1.25-1.55.61-.14,1.13.05,1.51.55.48.63.31,1.29-.03,1.92-.56,1.04-1.39,1.84-2.41,2.64ZM70.97,19.7c.77-.62,1.35-1.29,1.69-2.14.24-.6,0-1.13-.52-1.31-.49-.16-.99.09-1.19.67-.31.89-.28,1.8.02,2.78Z"/>
      <path class="cls-1" d="M37.12,105.01c.51-.81.52-4.26,0-5.1h1.43c-.43.81-.43,4.3.02,5.1h-1.44Z"/>
      <path class="cls-1" d="M66.09,99.9h1.41c-.55.8-.32,1.68-.31,2.52.01.85-.29,1.75.35,2.59h-1.42c.47-.83.46-4.26-.03-5.1Z"/>
      <path class="cls-1" d="M33.26,80.32c-.06.59-.38,1.07-.93,1.38-.46.26-.82.07-.95-.45-.15-.57.29-1.47.83-1.72.59-.27,1.06.06,1.05.79Z"/>
      <path class="cls-1" d="M57.56,44.01c.1.1.21.17.24.26.43,1.2.86,2.4,1.28,3.6.02.05.03.11.04.16.3,1.58-.57,2.41-2.13,2.05-.62-.14-1.01-.54-1.02-1.18,0-.47.05-.97.19-1.42.35-1.08.77-2.13,1.16-3.19.04-.1.14-.17.23-.28ZM57.47,44.9c-.29.82-.6,1.63-.88,2.46-.13.4-.22.82-.27,1.23-.05.41.05.81.46,1.01.53.25,1.1.27,1.62-.03.51-.29.48-.81.39-1.28-.23-1.19-.68-2.31-1.33-3.4Z"/>
      <path class="cls-1" d="M58.32,48.43c0,.41-.36.76-.76.77-.44,0-.8-.38-.77-.83.02-.44.33-.72.79-.7.43.02.75.34.74.76ZM58.13,48.53c-.03-.44-.35-.71-.65-.66-.31.06-.49.26-.49.58,0,.3.36.61.63.5.22-.09.39-.31.51-.42Z"/>
    </g>
  </g>
</svg>