<?xml version="1.0" encoding="UTF-8"?>
<svg id="Calque_2" data-name="Calque 2" xmlns="http://www.w3.org/2000/svg" viewBox="0 0 98 118.53">
  <defs>
    <style>
      .cls-1 {
        font-family: Oswald-ExtraLight, Oswald;
        font-size: 5.61px;
        font-weight: 200;
      }

      .cls-1, .cls-2, .cls-3 {
        fill: #fff;
      }

      .cls-2 {
        font-family: Oswald-Regular, Oswald;
        font-size: 29.46px;
      }
    </style>
  </defs>
  <g id="Layer_2_copy" data-name="Layer 2 copy">
    <g>
      <g>
        <path class="cls-3" d="M58.63,82.5l.2-.3c-.05-.04-1.88-1.3-4.18-3.58-.99,1.42-2.01,2.71-3.02,3.88h7Z"/>
        <path class="cls-3" d="M45.59,55.89c.27-2,.84-3.83,1.65-5.53-1.13-2.01-2.65-3.85-4.44-5.61-1.88,2.99-3.25,6.36-3.77,10.26-1.67,12.49,4.87,22.02,10.13,27.48h9.5l.2-.3c-.15-.1-15.36-10.62-13.27-26.3Z"/>
        <path class="cls-3" d="M72.38,9.47c0,9.3-6.99,14.73-15.09,21.03-2.23,1.73-4.55,3.54-6.75,5.49,1.57,1.52,3.06,3.16,4.41,4.93,2-1.76,4.19-3.46,6.4-5.19,8.68-6.75,17.65-13.72,17.65-26.26h-6.62Z"/>
        <path class="cls-3" d="M40.11,38.33c-.09-.27-2.28-6.61-2.4-14.38-.17-10.74,3.68-19.02,11.14-23.95l3.37,5.1c-13.8,9.12-6.41,30.99-6.33,31.21l-5.77,2.02Z"/>
        <path class="cls-3" d="M59.07,35.87l-5.9-1.62c2.91-10.56-5.35-18.04-5.71-18.36l4.03-4.6c.47.41,11.51,10.27,7.57,24.58Z"/>
        <path class="cls-3" d="M6.11,58.07l-4.56-4.08c11.6-12.98,26.37-12.06,27-12.01l-.44,6.1.22-3.05-.21,3.05c-.51-.03-12.47-.67-22.01,9.99Z"/>
        <path class="cls-3" d="M67.41,48.04c-.03-.22-.63-5.54,1.96-11.63,2.37-5.56,7.94-12.9,20.99-16.3l1.54,5.92c-19.95,5.19-18.49,20.63-18.42,21.29l-6.07.72Z"/>
        <path class="cls-3" d="M58.95,12.36c.36,2.89,2.18,5.24,4.63,6.4,2.09-1.72,3.29-4.45,2.93-7.34-.36-2.89-2.18-5.24-4.63-6.4-2.09,1.72-3.29,4.45-2.93,7.34Z"/>
        <path class="cls-3" d="M86.53,32.19c-2.73,1.01-4.6,3.31-5.18,5.96,2.16,1.64,5.08,2.19,7.81,1.18,2.73-1.01,4.6-3.31,5.18-5.96-2.16-1.64-5.08-2.19-7.81-1.18Z"/>
        <path class="cls-3" d="M7.69,35.88c-2.8-.78-5.67,0-7.69,1.81.79,2.59,2.84,4.74,5.65,5.52,2.8.78,5.67,0,7.69-1.81-.79-2.59-2.84-4.74-5.65-5.52Z"/>
        <path class="cls-3" d="M29.11,9.05c-.32,2.89.91,5.6,3.02,7.3,2.43-1.19,4.23-3.57,4.55-6.46.32-2.89-.91-5.6-3.02-7.3-2.43,1.19-4.23,3.57-4.55,6.46Z"/>
        <path class="cls-3" d="M38.97,46.36c-7.48-2.59-20.81-9.5-25.62-26.59l-6.52,1.84c3.31,11.73,10.64,21.14,21.21,27.2,3.2,1.84,6.25,3.11,8.76,3.97.45-2.22,1.17-4.35,2.17-6.42Z"/>
        <path class="cls-3" d="M59.38,48.78c.69,1.84,1.2,3.8,1.48,5.9.01.09.02.19.03.28,6.29-3.59,19.75-9.22,34.78-3.02l2.33-5.65c-16.37-6.75-30.83-1.64-38.62,2.5Z"/>
        <g>
          <path class="cls-3" d="M42.33,40.72l2.26,2.22c1.19,1.18,2.21,2.33,3.09,3.48.05.06.09.12.14.18.11.14.21.28.31.42.08.11.16.23.24.34.07.11.15.21.21.32.12.18.24.37.36.56.03.04.05.08.08.12.19.31.37.62.54.93l.55.97-.02.05c.82,1.72,1.41,3.56,1.68,5.58.6,4.48-.22,8.53-1.68,12.05,1.18,2.5,2.71,4.69,4.23,6.49,2.97-5.18,5.05-11.74,4.02-19.41-1.54-11.5-10.43-18.42-18.27-24.51-8.1-6.3-15.09-11.73-15.09-21.03h-6.62c0,12.54,8.97,19.51,17.65,26.26,2.17,1.69,4.31,3.35,6.28,5.07l.06-.09Z"/>
          <path class="cls-3" d="M42.68,78.62c-2.29,2.28-4.12,3.55-4.18,3.58l.2.3h7c-1.03-1.18-2.05-2.47-3.03-3.88Z"/>
        </g>
      </g>
      <text class="cls-2" transform="translate(14.45 110.07)"><tspan x="0" y="0">BEECA</tspan></text>
      <text class="cls-1" transform="translate(15.14 116.77)"><tspan x="0" y="0">Centres de Formation Professionnelle</tspan></text>
    </g>
  </g>
</svg>