<?xml version="1.0" encoding="UTF-8"?>
<svg xmlns="http://www.w3.org/2000/svg" xmlns:xlink="http://www.w3.org/1999/xlink" viewBox="0 0 4000 4000">
  <defs>
    <style>
      .cls-1 {
        clip-path: url(#clippath);
      }

      .cls-2 {
        fill: url(#Dégradé_sans_nom_21-10);
      }

      .cls-2, .cls-3, .cls-4, .cls-5, .cls-6, .cls-7, .cls-8, .cls-9, .cls-10, .cls-11, .cls-12, .cls-13, .cls-14, .cls-15, .cls-16, .cls-17, .cls-18, .cls-19, .cls-20, .cls-21, .cls-22, .cls-23, .cls-24, .cls-25, .cls-26 {
        stroke-width: 0px;
      }

      .cls-3 {
        fill: url(#Dégradé_sans_nom_21-2);
      }

      .cls-4 {
        fill: url(#Dégradé_sans_nom_21-7);
      }

      .cls-5 {
        fill: url(#Dégradé_sans_nom_21-4);
      }

      .cls-6 {
        fill: url(#Dégradé_sans_nom_21-9);
      }

      .cls-7 {
        fill: url(#Dégradé_sans_nom_21-8);
      }

      .cls-8 {
        fill: url(#Dégradé_sans_nom_21-3);
      }

      .cls-9 {
        fill: url(#Dégradé_sans_nom_21-5);
      }

      .cls-10 {
        fill: url(#Dégradé_sans_nom_21-6);
      }

      .cls-27, .cls-26 {
        fill: url(#Dégradé_sans_nom_21);
      }

      .cls-28 {
        opacity: .25;
      }

      .cls-29 {
        opacity: .41;
      }

      .cls-30 {
        opacity: .35;
      }

      .cls-31 {
        opacity: .54;
      }

      .cls-32 {
        opacity: .5;
      }

      .cls-33 {
        opacity: .88;
      }

      .cls-34 {
        opacity: .7;
      }

      .cls-35 {
        isolation: isolate;
      }

      .cls-36 {
        mix-blend-mode: difference;
        opacity: .62;
      }

      .cls-11 {
        fill: #f8af14;
      }

      .cls-12 {
        fill: #371b45;
      }

      .cls-13 {
        fill: #1d1d1d;
      }

      .cls-14 {
        fill: #22132c;
      }

      .cls-15 {
        fill: #d56b12;
      }

      .cls-16 {
        fill: #fff;
      }

      .cls-17 {
        fill: #ffec8f;
      }

      .cls-18 {
        fill: #ef9426;
      }

      .cls-19 {
        fill: #ea914e;
      }

      .cls-20 {
        fill: #ffd243;
      }

      .cls-21 {
        fill: #ffd666;
      }

      .cls-22 {
        fill: #f28f19;
      }

      .cls-23 {
        fill: #fdce6f;
      }

      .cls-24 {
        fill: #f6a73d;
      }

      .cls-25 {
        fill: #674493;
      }
    </style>
    <linearGradient id="Dégradé_sans_nom_21" data-name="Dégradé sans nom 21" x1="115.45" y1="2517.94" x2="3884.64" y2="2517.94" gradientUnits="userSpaceOnUse">
      <stop offset="0" stop-color="#e8561b"/>
      <stop offset=".44" stop-color="#ed7819"/>
      <stop offset=".61" stop-color="#ed7c1c"/>
      <stop offset=".78" stop-color="#ef8827"/>
      <stop offset=".96" stop-color="#f39d39"/>
      <stop offset="1" stop-color="#f4a33f"/>
    </linearGradient>
    <clipPath id="clippath">
      <path class="cls-26" d="M3880.85,2059.51c-.86,2.92-1.83,5.9-2.97,8.76-50.61,129.25-269.11,110.26-269.11,110.26-38.41,829.39-735.82,1180.84-861.07,1237.36-12.42,5.63-19.21,8.32-19.21,8.32,79.9,38.86,89.51,135.98,42.52,200.77-28.49,39.4-77.98,66.83-145.36,61.84-178.15-13.16-213.65-150.12-213.65-150.12-1201.1,137.12-2016.94-686.17-2016.94-686.17-150.3,81.98-311.55-45.07-274.13-157.22.49-1.43.97-2.86,1.52-4.29,43.09-113.17,219.78-67.47,219.78-67.47,126.39-775.36,1166.34-1093.45,1166.34-1093.45,0,0-18.91-135.21,60.88-168.09,154.95-63.73,156.8,157.3,156.8,157.3,942.02,121.15,1857.5,446.02,1857.5,446.02,147.8-169.66,329.49-17.58,297.11,96.18"/>
    </clipPath>
    <linearGradient id="Dégradé_sans_nom_21-2" data-name="Dégradé sans nom 21" x1="115.46" y1="3187.31" x2="2771.02" y2="3187.31" xlink:href="#Dégradé_sans_nom_21"/>
    <linearGradient id="Dégradé_sans_nom_21-3" data-name="Dégradé sans nom 21" x1="1647.76" y1="2252.81" x2="1803.14" y2="2252.81" xlink:href="#Dégradé_sans_nom_21"/>
    <linearGradient id="Dégradé_sans_nom_21-4" data-name="Dégradé sans nom 21" x1="1621.87" y1="2235.34" x2="1759.92" y2="2235.34" xlink:href="#Dégradé_sans_nom_21"/>
    <linearGradient id="Dégradé_sans_nom_21-5" data-name="Dégradé sans nom 21" x1="2462.13" y1="2406.29" x2="2789.9" y2="2406.29" xlink:href="#Dégradé_sans_nom_21"/>
    <linearGradient id="Dégradé_sans_nom_21-6" data-name="Dégradé sans nom 21" x1="1618.49" y1="2861.57" x2="2237.91" y2="2861.57" xlink:href="#Dégradé_sans_nom_21"/>
    <linearGradient id="Dégradé_sans_nom_21-7" data-name="Dégradé sans nom 21" x1="667.79" y1="265.19" x2="1375.09" y2="673.55" gradientTransform="translate(1233.95 -16.09) rotate(27.2) scale(1.09 1.15)" xlink:href="#Dégradé_sans_nom_21"/>
    <linearGradient id="Dégradé_sans_nom_21-8" data-name="Dégradé sans nom 21" x1="934.7" y1="353.5" x2="1168.11" y2="488.26" gradientTransform="translate(1233.95 -16.09) rotate(27.2) scale(1.09 1.15)" xlink:href="#Dégradé_sans_nom_21"/>
    <linearGradient id="Dégradé_sans_nom_21-9" data-name="Dégradé sans nom 21" x1="1753.9" y1="1323.24" x2="1866.88" y2="1388.46" gradientTransform="translate(1264.15 153.14) rotate(27.2)" xlink:href="#Dégradé_sans_nom_21"/>
    <linearGradient id="Dégradé_sans_nom_21-10" data-name="Dégradé sans nom 21" x1="1796.54" y1="1337.34" x2="1833.82" y2="1358.87" gradientTransform="translate(1264.15 153.14) rotate(27.2)" xlink:href="#Dégradé_sans_nom_21"/>
  </defs>
  <g class="cls-35">
    <g id="Layer_1" data-name="Layer 1">
      <g>
        <g>
          <g class="cls-33">
            <path class="cls-27" d="M3880.85,2059.51c-.86,2.92-1.83,5.9-2.97,8.76-50.61,129.25-269.11,110.26-269.11,110.26-38.41,829.39-735.82,1180.84-861.07,1237.36-12.42,5.63-19.21,8.32-19.21,8.32,79.9,38.86,89.51,135.98,42.52,200.77-28.49,39.4-77.98,66.83-145.36,61.84-178.15-13.16-213.65-150.12-213.65-150.12-1201.1,137.12-2016.94-686.17-2016.94-686.17-150.3,81.98-311.55-45.07-274.13-157.22.49-1.43.97-2.86,1.52-4.29,43.09-113.17,219.78-67.47,219.78-67.47,126.39-775.36,1166.34-1093.45,1166.34-1093.45,0,0-18.91-135.21,60.88-168.09,154.95-63.73,156.8,157.3,156.8,157.3,942.02,121.15,1857.5,446.02,1857.5,446.02,147.8-169.66,329.49-17.58,297.11,96.18"/>
            <g class="cls-1">
              <g>
                <path class="cls-20" d="M1261.17,2363.62c-1.65,15.14-4.24,30.27-7.73,45.32-8.02,34.54-20.91,68.58-39.02,101.13-104.36,187.82-341.2,255.46-529.02,151.1-149.54-83.1-222.89-250.19-193.9-409.65,7.43-40.81,21.55-81.09,42.8-119.37,9.92-17.83,21.04-34.57,33.19-50.2,28.51-36.7,62.76-67.18,100.74-90.82,8.71-5.46,17.63-10.54,26.71-15.24,48.91-25.37,102.76-40.16,157.82-43.24.5-.01.98-.06,1.46-.08,3.37-.19,6.73-.33,10.14-.41,6.72-.19,13.43-.19,20.16-.03,45.68,1.15,91.65,10.4,135.75,28.34,14.57,5.89,28.96,12.76,43.05,20.58,3.03,1.71,6.03,3.4,9,5.18,1.8,1.04,3.57,2.13,5.33,3.23,21.47,13.12,41.23,28.05,59.22,44.46,92.36,84.21,137.65,207.67,124.3,329.68"/>
                <path class="cls-18" d="M1225.71,2423.5c-7.35,23.45-17.17,46.51-29.59,68.83-98.76,177.71-322.85,241.72-500.56,142.96-85.86-47.71-145.18-124.69-172.41-211.57,34.36,38.98,75.84,72.85,123.86,99.54,196.05,108.94,436.48,62.11,578.7-99.77"/>
                <path class="cls-18" d="M1111.02,2363.77c-10.62,47.4,3.92,85.77,32.48,85.7,28.56-.07,62.91-37.34,73.53-84.74,10.62-47.4-6.5-86.99-35.07-86.92-28.56.07-60.33,38.56-70.95,85.96"/>
                <path class="cls-12" d="M1089.6,2332.19c-5.51,12.2-8.75,24.72-9.94,37.45-1.19,12.71-.41,25.57,2.22,38.02,2.65,12.42,7.1,24.52,13.84,35.08,6.69,10.58,15.93,19.44,28.37,23.62l.06.02c1.29.43,1.98,1.82,1.55,3.11-.34,1.01-1.28,1.66-2.3,1.67-7.37.1-14.83-2.21-21.42-5.86-6.64-3.67-12.29-8.82-17.09-14.52-9.54-11.53-15.62-25.38-18.87-39.66-3.25-14.3-3.59-29.29-.6-43.66,2.94-14.32,9.29-28.18,19.2-38.67,1.16-1.22,3.09-1.28,4.31-.12.97.92,1.21,2.32.69,3.47l-.03.05Z"/>
                <path class="cls-18" d="M696.67,2055.62c-21.33.87-38.15,16.34-37.56,34.55.59,18.21,18.36,32.26,39.7,31.38,21.33-.87,38.15-16.34,37.56-34.55-.59-18.21-18.36-32.26-39.7-31.38"/>
                <path class="cls-20" d="M696.24,2078.46c-14.68,6.43-22.08,21.13-16.52,32.84,5.56,11.71,21.98,15.99,36.66,9.56,14.68-6.43,22.08-21.13,16.52-32.84-5.56-11.71-21.98-15.99-36.66-9.57"/>
                <path class="cls-12" d="M698.95,2125.46c-8.5,1.32-17.58.04-25.78-3.8-4.05-2-7.9-4.61-11.24-7.88-3.28-3.32-6.12-7.25-7.98-11.74-3.87-8.94-3.46-19.64.59-28.5,4.08-8.91,11.39-15.73,19.65-20.04,4.17-2.11,8.59-3.66,13.12-4.6,4.55-.87,9.15-1.16,13.74-.92,4.59.35,9.13,1.26,13.49,2.77,4.36,1.52,8.45,3.78,12.17,6.52,7.46,5.45,13,13.84,14.58,23,.75,4.56.65,9.22-.55,13.58-.59,2.17-1.37,4.28-2.37,6.24-.98,1.99-2.31,3.74-3.54,5.5-.62.88-1.83,1.09-2.7.47-.79-.55-1.04-1.59-.64-2.43l.06-.13c3.35-6.97,4.12-14.68,1.83-21.41-2.1-6.72-6.84-12.34-12.84-15.98-11.88-7.54-28.14-7.61-40.33-1.12-6.06,3.27-11.24,8.11-14.11,13.99-1.44,2.92-2.3,6.07-2.55,9.28-.34,3.22.15,6.49,1.15,9.62,2.08,6.25,6.76,11.92,12.85,15.82,6.07,4.01,13.46,6.25,21.2,6.92h.04c1.34.12,2.32,1.29,2.21,2.63-.1,1.14-.97,2.02-2.04,2.19"/>
                <path class="cls-12" d="M748.21,2064.84c5.63,6.3,9.3,14.61,10.34,23.4,1.03,8.8-.8,17.97-4.81,25.97-3.94,8.08-10.12,14.84-17.25,20.02-7.17,5.18-15.36,8.82-23.89,10.77-8.54,1.96-17.37,2.31-26,1.03-8.63-1.23-17.01-4.3-24.42-8.89-7.38-4.62-13.82-10.87-18.2-18.39-4.3-7.54-6.52-16.24-5.89-24.62.08-1.08,1.02-1.88,2.09-1.8.92.07,1.64.76,1.78,1.63v.05c1.26,7.57,4.29,14.49,8.77,20.23,4.45,5.78,10.38,10.23,16.78,13.52,12.86,6.62,28.18,7.93,42.13,4.59,6.97-1.69,13.62-4.56,19.48-8.56,5.87-3.96,10.96-9.06,14.51-15.09l1.31-2.27c.4-.77.72-1.58,1.09-2.37.81-1.57,1.25-3.25,1.82-4.91.33-.82.48-1.68.66-2.54l.56-2.59c.13-1.75.39-3.52.43-5.3.22-7.14-1.71-14.39-5.24-21.13v-.02c-.63-1.19-.17-2.65,1.02-3.28,1-.52,2.21-.28,2.93.53"/>
                <path class="cls-12" d="M593.15,2176.63c2.91.22,5.8.7,8.68,1.3,2.87.65,5.71,1.47,8.51,2.45,5.55,2.04,10.93,4.7,15.96,8.01,4.98,3.35,9.6,7.31,13.73,11.74,4.09,4.47,7.64,9.43,10.66,14.68,6.08,10.52,9.67,22.36,11.1,34.33,1.39,12,.57,24.2-2.28,35.86-5.59,23.34-18.91,44.51-37.25,59.58-9.07,7.64-19.66,13.36-30.71,17.27-1.37.53-2.8.89-4.21,1.29-1.42.38-2.82.81-4.24,1.15-2.89.54-5.71,1.31-8.64,1.53-5.77.88-11.64.76-17.36.33-1.34-.1-2.35-1.27-2.25-2.61.09-1.19,1.02-2.12,2.16-2.24h.09c21.61-2.35,41.25-12.37,56.29-26.79,7.45-7.29,13.96-15.5,19.07-24.52,5.09-9.03,8.92-18.73,11.24-28.74,4.69-19.97,3.06-41.4-5.71-59.75-2.18-4.58-4.87-8.92-7.97-12.95-3.06-4.07-6.58-7.81-10.52-11.11-7.8-6.73-17.21-11.77-27.47-14.91-1.6-.49-2.51-2.18-2.02-3.78.42-1.38,1.75-2.24,3.13-2.14"/>
                <path class="cls-18" d="M512.64,2258.85c-6.91,34.26,11.85,67.12,41.91,73.4,30.06,6.29,60.03-16.39,66.94-50.64,6.91-34.26-11.85-67.12-41.91-73.41-30.06-6.28-60.03,16.39-66.94,50.64"/>
                <path class="cls-20" d="M565.97,2328.12c19.78.23,39.89-13.23,50.22-35.85,13.74-30.13,4.94-65.11-19.67-78.14-3.47-1.85-7.08-3.15-10.75-3.93-14.52,5.92-27.53,18.34-35.42,35.6-13.96,30.6-6.81,65.75,15.62,82.32"/>
                <path class="cls-12" d="M513.5,2246.08c4.84-12.18,13.45-23.11,24.65-30.9,5.63-3.83,11.9-6.89,18.61-8.85,6.71-1.92,13.88-2.66,21.02-2.04,7.1.53,14.33,2.6,20.64,6.15,6.42,3.41,12.16,8.2,16.75,13.86,9.09,11.48,13.3,26.02,13.08,40.11-.18,7.06-1.35,14.04-3.43,20.72l-1.77,4.92c-.58,1.64-1.41,3.18-2.11,4.77l-1.1,2.36-1.28,2.27-1.3,2.26c-.46.74-.95,1.45-1.43,2.18-7.63,11.57-18.39,21.16-31.15,26.73-6.35,2.79-13.17,4.63-20.12,5.12-6.94.51-14.01-.1-20.62-2.26-6.59-2.14-12.73-5.51-17.83-10.02-5.14-4.46-9.2-9.97-11.99-15.93-.57-1.22-.05-2.67,1.17-3.24,1.08-.5,2.33-.15,3.01.77l.02.03c3.52,4.84,7.74,9.03,12.56,12.16,4.82,3.13,10.14,5.36,15.66,6.42,2.75.52,5.53.86,8.31.88,1.39.01,2.78-.01,4.17-.18l2.07-.19c.69-.09,1.38-.23,2.06-.34,5.47-.98,10.82-2.71,15.76-5.33,9.84-5.28,18.21-13.27,23.93-22.85l1.07-1.79.96-1.86.95-1.86.83-1.92c.52-1.29,1.18-2.52,1.6-3.85l1.31-3.94c1.47-5.33,2.37-10.78,2.45-16.24.05-10.89-3.09-21.68-9.42-30.06-3.19-4.16-7.14-7.64-11.66-10.29-2.21-1.42-4.62-2.53-7.1-3.39-1.24-.43-2.5-.82-3.78-1.14-1.3-.35-2.62-.5-3.94-.77-5.29-.84-10.8-.62-16.23.48-5.44,1.05-10.79,3.03-15.79,5.79-10.11,5.4-18.69,13.88-25.23,23.98l-.03.04c-.91,1.4-2.78,1.8-4.18.9-1.23-.8-1.69-2.34-1.17-3.65"/>
                <path class="cls-12" d="M1028.93,2252.76c2.86,15,2.23,30.74-1.42,45.88-1.91,7.55-4.59,14.95-8.01,22.02-3.47,7.05-7.73,13.73-12.61,19.93-9.75,12.44-22.3,22.67-36.3,30.08-14.03,7.39-29.54,11.9-45.28,13.32-31.56,3.01-63.54-6.55-88.74-24.79-12.6-9.16-23.39-20.6-32.02-33.34-8.43-12.88-14.57-27.19-17.67-42.03-.27-1.31.57-2.6,1.89-2.88,1.19-.25,2.35.41,2.77,1.51l.02.05c5.19,13.6,12.25,26.26,21.19,37.36,8.98,11.06,19.64,20.59,31.41,28.28,11.9,7.47,24.83,13.19,38.35,16.57,13.52,3.35,27.54,4.49,41.28,3.12,13.73-1.35,27.2-5.16,39.49-11.35,12.32-6.14,23.41-14.72,32.58-25.06,4.59-5.18,8.62-10.86,12.09-16.89,3.52-6.01,6.43-12.4,8.69-19.06,4.64-13.3,6.64-27.62,6.31-42.06h0c-.04-1.68,1.28-3.06,2.95-3.1,1.5-.03,2.77,1.03,3.04,2.46"/>
                <path class="cls-18" d="M894.35,2178.46c-41.77,4.14-71.87,42.19-67.24,84.98,4.63,42.79,42.25,74.11,84.01,69.97,41.76-4.14,71.87-42.19,67.23-84.98-4.63-42.79-42.24-74.12-84.01-69.97"/>
                <path class="cls-20" d="M835.78,2280.05c7.25,26.66,31.23,47.99,62.58,52.31,41.75,5.74,80.79-20.86,87.21-59.41.91-5.44,1.12-10.84.67-16.1-12.7-17-32.72-29.23-56.65-32.54-42.41-5.82-82.29,18.61-93.82,55.74"/>
                <path class="cls-12" d="M915.14,2176.16c17.38,1.94,34.21,9.88,47.4,22.02,6.56,6.11,12.24,13.24,16.72,21.13,4.45,7.91,7.62,16.61,9.32,25.64,1.8,8.97,1.99,18.46.31,27.57-1.49,9.13-4.51,18.17-9.31,26.23-9.47,16.17-24.93,28.74-42.66,34.57-8.84,2.93-18.13,4.39-27.38,4.33l-6.92-.29-6.84-.94c-4.55-.69-8.99-1.91-13.35-3.34-17.43-5.78-32.87-17.04-43.59-31.7-5.37-7.3-9.72-15.38-12.54-23.98-2.82-8.59-4.28-17.62-4.09-26.61.24-8.97,1.87-17.87,5.17-26.13,3.23-8.27,8.03-15.85,14-22.19.92-.98,2.46-1.03,3.44-.1.89.84,1.01,2.2.32,3.17v.02c-4.69,6.64-8.23,13.96-10.35,21.62-2.12,7.65-2.96,15.61-2.44,23.43.49,7.82,2.23,15.5,5.19,22.69,3,7.16,6.96,13.9,11.89,19.86,9.84,11.89,23.04,20.96,37.69,25.28,3.65,1.08,7.38,1.93,11.14,2.44l5.65.69,5.67.13c7.54-.14,15.03-1.32,22.11-3.74,14.2-4.79,26.42-14.67,34.16-27.35,3.97-6.3,6.49-13.44,7.94-20.8.89-3.66,1.22-7.44,1.33-11.2.04-1.88.02-3.77-.08-5.66-.07-1.91-.4-3.78-.6-5.68-1.02-7.54-3.35-14.94-6.73-21.87-3.34-6.96-7.8-13.46-13.14-19.19-10.59-11.6-24.79-19.99-40.48-24.13h-.03c-1.61-.43-2.57-2.09-2.15-3.7.39-1.47,1.79-2.4,3.26-2.23"/>
                <path class="cls-20" d="M685.56,2476.98c-18.31,9.63-32.6,23.69-40.58,41.64-14.48,32.53-4.22,68.47,22.26,100.12,17.37,20.76,42.03,38.84,71.99,50.98,75.62,30.64,156.36,11.81,180.33-42.05,8.92-20.04,8.72-42.11,1.06-63.51-12.93-36.1-47.83-68.35-95.31-87.59"/>
                <path class="cls-12" d="M647.73,2519.85c-1.62,4.33-2.82,8.77-3.59,13.26-.82,4.48-1.2,9.01-1.16,13.52.07,9.03,1.78,17.99,4.78,26.51,2.92,8.55,7.12,16.68,12.13,24.3,4.96,7.63,10.73,14.88,17.05,21.47,12.64,13.23,27.54,24.35,43.71,33.1,8.04,4.48,16.46,8.26,25.05,11.59,8.61,3.28,17.45,5.9,26.4,8.04,17.9,4.25,36.41,5.78,54.63,4.48,9.11-.68,18.15-2.12,26.91-4.51,4.37-1.21,8.69-2.6,12.91-4.21,4.21-1.63,8.32-3.51,12.28-5.63,7.92-4.26,15.21-9.59,21.53-15.89,6.33-6.31,11.47-13.72,15.31-21.87,3.72-8.05,5.96-17.13,6.85-26.19.84-9.1.11-18.39-2.41-27.33v-.02c-.37-1.29.38-2.64,1.67-3,1.2-.34,2.45.3,2.91,1.43,1.86,4.6,3.28,9.4,4.25,14.31.91,4.92,1.36,9.94,1.34,14.96.02,5.03-.48,10.05-1.36,15.01-.9,4.97-2.16,9.84-3.98,14.72-3.61,9.52-9.11,18.41-15.88,26.1-6.76,7.73-14.9,14.14-23.62,19.37-17.51,10.52-37.44,15.98-57.36,18.03-9.98,1.06-20.04,1.11-30,.39-9.97-.71-19.87-2.2-29.6-4.37-19.48-4.38-38.16-11.76-55.58-21.45-8.66-4.95-16.99-10.49-24.79-16.74-3.93-3.08-7.68-6.4-11.36-9.79-3.62-3.46-7.13-7.04-10.41-10.83-6.62-7.55-12.54-15.61-17.61-24.31-5-8.72-9.12-18.02-11.82-27.81-2.62-9.79-3.82-20.06-2.98-30.2.44-5.06,1.35-10.07,2.72-14.92,1.42-4.84,3.3-9.52,5.56-13.95.76-1.48,2.58-2.07,4.06-1.31,1.38.71,1.98,2.33,1.45,3.74v.02Z"/>
                <path class="cls-18" d="M795.32,2491.77c-60.59-12.68-115.54,13.17-122.73,57.74-7.19,44.57,36.1,90.99,96.69,103.68,60.59,12.68,115.54-13.17,122.73-57.74,7.19-44.57-36.1-90.99-96.69-103.68"/>
                <path class="cls-20" d="M791.48,2536.7c-52-6.9-95.87,14.42-97.99,47.61-2.11,33.19,38.33,65.69,90.33,72.59,52,6.9,95.87-14.41,97.99-47.61s-38.33-65.69-90.33-72.59"/>
                <path class="cls-12" d="M854.56,2643.45c4.32-2.63,8.42-5.57,12.05-8.95,3.7-3.31,6.95-7.03,9.7-11.04,5.51-8.01,8.82-17.32,9.59-26.78.85-9.47-.77-19.1-4.3-28.07-3.48-8.99-8.54-17.45-14.82-24.98-6.26-7.55-13.53-14.32-21.46-20.23-7.97-5.87-16.59-10.89-25.65-14.98-18.05-8.36-37.79-13.11-57.5-13.53-4.92-.08-9.84.08-14.72.53-4.87.5-9.69,1.3-14.41,2.42-9.45,2.23-18.44,5.92-26.42,10.94-7.97,5.05-14.69,11.78-19.32,19.74-4.61,7.98-7.22,17.07-7.31,26.46-.15,9.39,2.13,18.92,5.97,27.89,1.93,4.49,4.26,8.85,6.91,13.04,2.66,4.19,5.72,8.15,8.93,12,13.02,15.34,30.06,27.41,48.69,36.26h.01c1.21.58,1.73,2.03,1.15,3.25-.54,1.13-1.83,1.65-2.99,1.25-20.12-6.94-39.07-18.29-54.37-33.93-7.62-7.83-14.22-16.82-19.21-26.84-5.03-9.97-8.18-21.19-8.51-32.79-.36-11.57,2.32-23.47,8.02-33.74,5.63-10.33,13.97-19.03,23.53-25.42,9.55-6.47,20.22-10.86,31.13-13.55,5.46-1.35,10.98-2.32,16.53-2.94,5.55-.58,11.11-.82,16.67-.78,22.23.32,44.03,5.97,63.95,15.26,9.96,4.71,19.4,10.54,28.15,17.29,4.37,3.39,8.52,7.07,12.49,10.95,3.97,3.88,7.58,8.13,10.98,12.54,6.78,8.84,12.31,18.79,15.9,29.53,3.54,10.74,4.88,22.42,3.21,33.77-.86,5.67-2.49,11.21-4.8,16.41-2.26,5.22-5.26,10.09-8.82,14.45-3.57,4.34-7.63,8.22-12.05,11.54-4.43,3.32-9.21,6.04-14.12,8.35-1.51.71-3.3.07-4.01-1.44-.66-1.41-.14-3.06,1.15-3.85l.06-.03Z"/>
                <path class="cls-18" d="M1004.3,2096.36c13.66-8.08,42.1-23.27,47-36.51,8.88-24-1.94-48.72-25.2-69.27-15.25-13.48-36.04-24.57-60.53-31.08-61.83-16.45-123.87,2.45-138.59,42.2-5.48,14.79-3.63,30.39,4.04,44.99,12.94,24.64,42.86,45.03,81.69,55.36"/>
                <path class="cls-12" d="M1048.45,2070.8c1.43-6.14,1.97-12.36,1.49-18.47-.49-6.1-1.86-12.08-4.11-17.74-4.36-11.41-11.78-21.54-20.42-30.46-17.46-17.75-40.17-29.9-64.25-36.78-24.08-6.8-49.9-8.36-74.21-2.65-12.09,2.92-23.81,7.62-33.94,14.77-10.18,7.04-18.57,16.71-23.71,28.38v.02c-.55,1.23-1.99,1.79-3.22,1.25-1.1-.48-1.66-1.67-1.39-2.8,1.6-6.69,4.43-13.17,8.21-19.05,3.77-5.91,8.51-11.18,13.77-15.83,10.64-9.19,23.39-15.71,36.71-19.76,13.32-4.17,27.28-5.84,41.14-5.81,13.88.07,27.7,2.14,41.04,5.82,13.32,3.74,26.24,9.09,38.19,16.24,11.91,7.14,22.94,16.06,32.04,26.65,4.55,5.28,8.8,10.9,12.29,17.03,3.49,6.12,6.4,12.64,8.31,19.51,1.86,6.86,2.83,14.02,2.45,21.12-.34,7.09-1.94,14.07-4.67,20.45-.66,1.53-2.43,2.25-3.97,1.59-1.37-.59-2.08-2.06-1.75-3.46v-.03Z"/>
                <path class="cls-18" d="M935.13,2104.42c48.63,5.32,89.85-19.23,92.08-54.84,2.23-35.61-35.38-68.79-84.01-74.11-48.63-5.32-89.85,19.23-92.08,54.84-2.23,35.61,35.38,68.79,84.01,74.11"/>
                <path class="cls-20" d="M934.82,2070.01c41.43,1.43,74.29-18.7,73.41-44.97-.89-26.27-35.19-48.72-76.62-50.15-41.43-1.43-74.29,18.7-73.41,44.97.89,26.27,35.19,48.72,76.62,50.15"/>
                <path class="cls-12" d="M877.24,1990.21c-6.25,4.86-11.57,10.7-15.11,17.36-3.56,6.64-5.31,14.04-5.11,21.33.13,7.3,2.15,14.54,5.59,21.14,3.4,6.62,7.96,12.74,13.42,18.04,10.89,10.66,24.58,18.58,39.23,23.54,14.65,5.01,30.29,7.26,45.56,6.1,15.2-1.14,30.25-5.84,41.74-14.74,5.73-4.42,10.35-10.01,13.29-16.38,2.92-6.38,4.3-13.44,3.71-20.61-.53-7.17-2.95-14.32-6.52-20.99-1.8-3.34-3.9-6.55-6.25-9.62-2.35-3.07-5.01-5.92-7.77-8.71-11.18-11.06-25.31-19.33-40.51-25.08h-.02c-1.26-.48-1.89-1.89-1.41-3.14.43-1.15,1.64-1.77,2.81-1.51,16.5,3.7,32.46,11.07,45.93,22.21,6.72,5.58,12.71,12.19,17.53,19.79,4.86,7.55,8.3,16.3,9.53,25.61,1.24,9.29.07,19.15-3.71,27.92-3.71,8.81-9.76,16.52-16.93,22.44-7.17,5.98-15.38,10.36-23.89,13.4-4.26,1.52-8.6,2.75-12.99,3.67-4.39.89-8.82,1.51-13.26,1.91-17.77,1.47-35.6-1.27-52.16-7.21-16.53-6.02-32.12-15.42-44.26-28.65-6.07-6.56-11.25-14.11-14.93-22.47-3.63-8.36-5.57-17.65-5.07-26.92.58-9.26,3.62-18.29,8.71-25.78,2.56-3.73,5.54-7.12,8.83-10.08,3.31-2.95,6.91-5.48,10.69-7.61,1.45-.82,3.29-.31,4.11,1.14.75,1.32.39,2.97-.78,3.87l-.03.02Z"/>
                <path class="cls-20" d="M1111.57,2361.9c-9.29,40.1,1.61,72.14,24.35,71.58,22.74-.56,48.7-33.53,57.99-73.62,9.29-40.1-1.61-72.14-24.35-71.58-22.73.57-48.7,33.53-57.98,73.62"/>
                <path class="cls-12" d="M1212.35,2303.13c-3.92-6.07-8.99-11.18-14.97-14.15-5.96-3.01-12.68-3.86-19.16-2.74-6.52,1.02-12.84,3.89-18.58,7.73-5.76,3.84-11.05,8.58-15.72,13.94-9.34,10.72-16.67,23.36-21.81,36.81-5.18,13.44-8.34,27.69-8.71,41.85-.22,7.07.39,14.1,1.78,20.83,1.46,6.69,3.84,13.08,7.31,18.48,3.47,5.39,8.14,9.61,13.7,11.91,5.56,2.3,11.89,2.83,18.3,1.47,6.41-1.32,12.73-4.3,18.61-8.18,2.94-1.94,5.78-4.11,8.5-6.47,2.71-2.37,5.26-4.95,7.77-7.59,9.94-10.71,17.76-23.59,23.91-37.31v-.02c.56-1.23,2-1.78,3.23-1.22,1.11.5,1.66,1.72,1.35,2.86-4.13,15.02-11.01,29.49-20.72,42.22-4.89,6.33-10.54,12.2-17.05,17.25-6.46,5.09-14.02,9.18-22.47,11.49-8.4,2.28-18.05,2.41-26.74-.95-4.34-1.62-8.41-3.99-11.96-6.9-3.56-2.9-6.6-6.3-9.15-9.93-5.12-7.28-8.21-15.44-10.16-23.61-1.91-8.19-2.6-16.5-2.44-24.7.31-16.42,4.05-32.44,10.09-47.39,6.13-14.92,14.7-28.99,26.16-40.7,5.71-5.84,12.15-11.12,19.39-15.31,7.28-4.09,15.44-7.14,24.15-7.83,8.67-.65,17.76,1.41,24.99,6.2,3.61,2.39,6.76,5.33,9.38,8.58,2.59,3.29,4.7,6.84,6.33,10.54.67,1.53-.02,3.31-1.55,3.98-1.38.61-2.96.1-3.75-1.12v-.02Z"/>
                <path class="cls-12" d="M873.67,2724.04c-66.18,0-133.22-16.3-195.05-50.66-151.04-83.93-231.75-254.47-200.85-424.37,7.88-43.28,22.79-84.88,44.32-123.65,33.2-59.71,81.18-110.23,138.77-146.1,8.91-5.58,18.23-10.9,27.66-15.79,50.35-26.12,106.88-41.61,163.46-44.77l1.7-.09c3.3-.18,6.81-.33,10.34-.41,6.76-.18,13.78-.19,20.83-.02,48.47,1.22,95.79,11.1,140.68,29.35,15.19,6.15,30.19,13.33,44.58,21.32,3.19,1.79,6.31,3.55,9.39,5.39,1.79,1.05,3.66,2.2,5.52,3.35,132.31,80.91,206.93,233.05,190.03,387.54h0c-1.71,15.63-4.4,31.42-8.01,46.95-8.47,36.52-22.06,71.76-40.41,104.77-73.57,132.39-211.25,207.18-352.96,207.18ZM874.71,1946c-3.37,0-6.71.04-9.99.13-3.29.08-6.53.22-9.76.39l-1.66.09c-52.43,2.95-105.05,17.36-151.93,41.67-8.76,4.54-17.41,9.48-25.72,14.68-53.6,33.38-98.26,80.4-129.15,135.98-20.04,36.1-33.93,74.82-41.26,115.08-28.76,158.12,46.36,316.84,186.93,394.95,180.78,100.44,409.58,35.09,510.04-145.68,17.09-30.73,29.74-63.54,37.62-97.51,3.36-14.46,5.87-29.16,7.45-43.68h0c15.73-143.79-53.72-285.38-176.92-360.73-1.73-1.07-3.41-2.1-5.1-3.1-2.96-1.77-5.86-3.4-8.77-5.03-13.35-7.42-27.31-14.1-41.47-19.83-41.78-16.99-85.8-26.18-130.87-27.32-3.16-.07-6.32-.11-9.45-.11ZM1261.17,2363.63h.06-.06Z"/>
              </g>
              <path class="cls-16" d="M602.87,2517.92s-28.21,8.96-64.88,10.48c-1.24,48.07-10.58,85.44-10.58,85.44,0,0-9.34-37.38-10.58-85.44-36.67-1.52-64.88-10.48-64.88-10.48,0,0,28.21-8.95,64.88-10.48,1.24-48.03,10.58-85.41,10.58-85.41,0,0,9.34,37.38,10.58,85.41,36.67,1.52,64.88,10.48,64.88,10.48Z"/>
              <path class="cls-20" d="M1907.41,3393.83s-28.21,8.96-64.88,10.48c-1.24,48.07-10.58,85.44-10.58,85.44,0,0-9.34-37.38-10.58-85.44-36.67-1.52-64.88-10.48-64.88-10.48,0,0,28.21-8.95,64.88-10.48,1.24-48.03,10.58-85.41,10.58-85.41,0,0,9.34,37.38,10.58,85.41,36.67,1.52,64.88,10.48,64.88,10.48Z"/>
              <path class="cls-20" d="M2308.93,2922.6s-20.98,6.66-48.24,7.79c-.92,35.74-7.87,63.53-7.87,63.53,0,0-6.95-27.79-7.87-63.53-27.27-1.13-48.24-7.79-48.24-7.79,0,0,20.98-6.66,48.24-7.79.92-35.71,7.87-63.51,7.87-63.51,0,0,6.95,27.79,7.87,63.51,27.27,1.13,48.24,7.79,48.24,7.79Z"/>
              <path class="cls-16" d="M2436.78,3277.92s-20.98,6.66-48.24,7.79c-.92,35.74-7.87,63.53-7.87,63.53,0,0-6.95-27.79-7.87-63.53-27.27-1.13-48.24-7.79-48.24-7.79,0,0,20.98-6.66,48.24-7.79.92-35.71,7.87-63.51,7.87-63.51,0,0,6.95,27.79,7.87,63.51,27.27,1.13,48.24,7.79,48.24,7.79Z"/>
              <path class="cls-16" d="M3499.35,2092.53s-20.98,6.66-48.24,7.79c-.92,35.74-7.87,63.53-7.87,63.53,0,0-6.95-27.79-7.87-63.53-27.27-1.13-48.24-7.79-48.24-7.79,0,0,20.98-6.66,48.24-7.79.92-35.71,7.87-63.51,7.87-63.51,0,0,6.95,27.79,7.87,63.51,27.27,1.13,48.24,7.79,48.24,7.79Z"/>
              <path class="cls-20" d="M2965.4,1871.71s-20.98,6.66-48.24,7.79c-.92,35.74-7.87,63.53-7.87,63.53,0,0-6.95-27.79-7.87-63.53-27.27-1.13-48.24-7.79-48.24-7.79,0,0,20.98-6.66,48.24-7.79.92-35.71,7.87-63.51,7.87-63.51,0,0,6.95,27.79,7.87,63.51,27.27,1.13,48.24,7.79,48.24,7.79Z"/>
              <path class="cls-16" d="M1540.68,1632.21s-20.98,6.66-48.24,7.79c-.92,35.74-7.87,63.53-7.87,63.53,0,0-6.95-27.79-7.87-63.53-27.27-1.13-48.24-7.79-48.24-7.79,0,0,20.98-6.66,48.24-7.79.92-35.71,7.87-63.51,7.87-63.51,0,0,6.95,27.79,7.87,63.51,27.27,1.13,48.24,7.79,48.24,7.79Z"/>
              <path class="cls-20" d="M1757.19,3103.11s-20.98,6.66-48.24,7.79c-.92,35.74-7.87,63.53-7.87,63.53,0,0-6.95-27.79-7.87-63.53-27.27-1.13-48.24-7.79-48.24-7.79,0,0,20.98-6.66,48.24-7.79.92-35.71,7.87-63.51,7.87-63.51,0,0,6.95,27.79,7.87,63.51,27.27,1.13,48.24,7.79,48.24,7.79Z"/>
              <path class="cls-16" d="M2846.01,3206.61s-20.98,6.66-48.24,7.79c-.92,35.74-7.87,63.53-7.87,63.53,0,0-6.95-27.79-7.87-63.53-27.27-1.13-48.24-7.79-48.24-7.79,0,0,20.98-6.66,48.24-7.79.92-35.71,7.87-63.51,7.87-63.51,0,0,6.95,27.79,7.87,63.51,27.27,1.13,48.24,7.79,48.24,7.79Z"/>
              <g class="cls-31">
                <path class="cls-19" d="M3880.83,2059.49c-.86,2.93-1.82,5.92-2.94,8.81-50.61,129.21-269.15,110.23-269.15,110.23-38.42,829.37-735.79,1180.82-861.05,1237.35-31.59-12.46-129.07-16.15-195.06-34.01,0,0,330.15-143.32,620.63-434.18,54.14-54.21,59.65-140.28,13.48-201.42-80.06-106.04-155.43-264.13-155.43-264.13l320.67-165.9,149.92,161.9c10.57-24.19,20.5-48.89,29.66-74.09,36.39-100.06,48.39-179.41,50-237.88.56-21,14.53-53.34,13.06-68.98-4.1-43.93-28.34-52.59-28.95-53.95,4.11,2.43,187.37,110.99,315.17,16.25"/>
              </g>
              <g>
                <path class="cls-11" d="M3183.35,2922.69c3.12,15.33,5.23,30.66,6.4,45.88-69.78,34.19-201.35,74.3-354.7,105.43-153.32,31.12-290.15,45.48-367.72,41.2-4.86-14.47-8.89-29.4-12.01-44.75-.15-.72-.29-1.42-.42-2.15-1.34-6.77-2.48-13.52-3.42-20.27-2.23-15.8-3.43-31.54-3.63-47.12,0-.63-.03-1.26-.02-1.91-.18-23.15,1.82-45.98,5.84-68.27,7.65-42.4,22.6-82.78,43.75-119.49,51.36-89.12,139.27-156.61,248.02-178.68,107.85-21.89,214.28,5.34,296.05,66.33,33.57,25.03,62.99,55.77,86.65,91.11,12.67,18.9,23.67,39.13,32.79,60.52.75,1.72,1.47,3.44,2.18,5.19,5.89,14.44,10.93,29.39,15.03,44.81,1.54,5.72,2.93,11.5,4.19,17.35.35,1.6.7,3.19,1.02,4.81"/>
                <path class="cls-22" d="M3172.51,3111.76c-4.73,14.46-10.32,28.57-16.77,42.28-9.01,19.26-19.68,37.7-31.83,55.1-52.67,75.51-133.34,131.67-230.69,151.44-97.56,19.8-193.96-.59-272-49.81-17.13-10.82-33.39-23.02-48.56-36.49-11.91-10.55-23.14-21.89-33.64-33.93,93.91-2.06,204.79-14.64,322-38.44,117.2-23.78,224.21-55.43,311.5-90.15"/>
                <path class="cls-22" d="M3189.74,2968.56c-69.76,34.18-201.35,74.32-354.68,105.43-153.33,31.12-290.16,45.49-367.74,41.21-4.85-14.48-8.87-29.41-12-44.76-.15-.72-.28-1.42-.43-2.14-1.33-6.79-2.48-13.52-3.4-20.27-2.23-15.79-3.43-31.53-3.64-47.13,0-.63-.01-1.26,0-1.89-.17-23.17,1.82-46,5.83-68.28,7.66-42.38,22.62-82.77,43.76-119.49,41.54-72.09,106.96-129.99,188.01-161.18-24.82,24.09-46.11,51.52-63.31,81.36-21.17,36.72-36.11,77.08-43.76,119.5-4.03,22.28-6.03,45.12-5.84,68.26,0,.65,0,1.29.02,1.92.01.83.06,1.87.13,3.09,3.97,66.46,64.83,108.05,130.77,117.23,125.69,17.51,425.73-64.49,490.16-84.53,1.71,10.47-4.68,1.28-3.88,11.69"/>
                <path class="cls-15" d="M2861.01,3201.9c117.2-23.79,224.21-55.43,311.5-90.15-4.73,14.46-10.32,28.57-16.77,42.28-67.67,28.91-172.3,59.81-291.45,83.99-114.13,23.17-218.39,35.47-291.64,36.26-11.91-10.56-23.14-21.89-33.65-33.93,93.92-2.06,204.79-14.65,322-38.45"/>
                <path class="cls-15" d="M3182.32,2917.88c.35,1.59.7,3.19,1.02,4.81,3.12,15.33,5.23,30.66,6.4,45.88-69.78,34.19-201.35,74.31-354.7,105.43-153.32,31.12-290.14,45.49-367.72,41.21-4.87-14.47-8.89-29.41-12.01-44.75-.15-.72-.29-1.43-.42-2.15,72.58,8.34,211.36-4.09,367.67-35.82,162.49-32.98,299.41-77.77,359.75-114.6"/>
                <path class="cls-15" d="M2450.27,2942.78l6.83-24.08c48.76,13.82,187.21,2.29,336.68-28.05,178.32-36.2,298.71-82.45,325.49-109.44l17.78,17.63c-35.43,35.71-171.37,82.47-338.28,116.35-155.41,31.54-295.46,42.65-348.49,27.6"/>
                <path class="cls-15" d="M2496.47,2823.73l1.92-24.97c57.39,4.43,161.18-6.64,270.87-28.91,114.94-23.33,216.94-54.71,266.18-81.91l12.11,21.92c-51.32,28.34-156.04,60.72-273.31,84.53-111.8,22.7-218.24,33.94-277.78,29.34"/>
                <path class="cls-15" d="M2444.99,3011.2l5.7-24.38c56.58,13.21,199.77.73,356.31-31.05,164.21-33.33,306.38-80.49,345.73-114.68l16.42,18.89c-42.95,37.33-186.48,85.68-357.16,120.32-162.25,32.94-306.31,45.06-367,30.89"/>
                <path class="cls-15" d="M2620.27,3316.95l.95-6.17-1.61-6.06,1.26-.34,1.3.19c49.78,7.66,150.05-1.21,255.45-22.6,105.98-21.52,199.11-51.47,243.05-78.18l6.5,10.7c-45.1,27.4-139.76,57.97-247.06,79.74-108.37,22-207.93,30.7-259.84,22.72"/>
                <path class="cls-12" d="M2819.68,3389.07c-112.34,0-221.22-48.35-296.58-134.85l-29.61-33.98,45.06-.99c96.11-2.12,206.17-15.27,318.26-38.03,112.15-22.76,218.62-53.56,307.9-89.07l41.88-16.66-14.01,42.84c-43.87,134.14-156.97,234.89-295.16,262.94-25.85,5.25-51.89,7.81-77.74,7.81ZM2587.88,3259.56c81.64,71.67,193.19,102.25,301.15,80.33,107.96-21.91,198.76-93.55,245.98-191.39-81.33,29.21-173.58,54.58-269.8,74.1-96.17,19.53-191.02,32.14-277.33,36.96Z"/>
                <path class="cls-22" d="M2449.47,3030.97l-2.19-4.55c.53-.28,1.13-.53,1.73-.79l.46,5.33Z"/>
                <g class="cls-29">
                  <path class="cls-16" d="M3189.55,2969.82c-8.12,3.98-17.06,8.03-26.8,12.15-1.2-10.3-2.85-20.64-4.94-30.96-.34-1.61-.68-3.2-1.03-4.79-1.24-5.86-2.64-11.64-4.17-17.35-4.11-15.42-9.16-30.38-15.03-44.82-.71-1.74-1.45-3.45-2.18-5.17-9.11-21.39-20.12-41.64-32.8-60.54-23.66-35.34-53.06-66.08-86.64-91.09-81.78-61-188.2-88.25-296.05-66.35-72,14.62-134.88,49.15-184.06,96.7,52.05-61.45,124.35-106.5,209.42-123.78,107.84-21.88,214.27,5.35,296.03,66.34,33.57,25.03,63,55.76,86.66,91.13,12.65,18.89,23.67,39.12,32.78,60.51.76,1.72,1.47,3.46,2.18,5.19,5.9,14.45,10.93,29.38,15.03,44.79,1.53,5.74,2.92,11.52,4.18,17.36.36,1.6.71,3.18,1.02,4.81,3.11,15.33,5.23,30.66,6.4,45.87"/>
                </g>
                <path class="cls-12" d="M2496.97,3137.07c-10.98,0-21.26-.25-30.8-.78l-14.29-.79-4.56-13.56c-5.16-15.35-9.43-31.25-12.69-47.28-1.59-7.83-2.95-15.8-4.06-23.7-2.33-16.45-3.62-33.21-3.83-49.78-2.4-188.11,129.87-351.84,314.51-389.31,184.62-37.47,370.28,61.72,441.4,235.87,6.28,15.39,11.62,31.32,15.89,47.36,2.05,7.63,3.9,15.5,5.49,23.37h0c3.25,15.98,5.52,32.29,6.76,48.48l1.09,14.27-12.85,6.3c-74.46,36.49-208.96,76.54-359.78,107.17-133.44,27.08-258,42.37-342.28,42.37ZM2483.02,3094.68c80.15,1.86,211.14-13.63,347.83-41.37,136.69-27.75,263.34-64.56,336.44-97.52-1.14-9.68-2.7-19.36-4.64-28.9h0c-1.43-7.03-3.07-14.06-4.91-20.89-3.82-14.35-8.59-28.58-14.19-42.3-63.47-155.39-229.14-243.91-393.91-210.45-164.78,33.45-282.82,179.54-280.69,347.39.19,14.78,1.34,29.73,3.42,44.43.99,7.08,2.21,14.19,3.63,21.18,1.94,9.56,4.29,19.08,7.01,28.42Z"/>
                <path class="cls-21" d="M3400.34,2932.34c10.82,53.32-80.4,120.77-227.83,179.42-87.29,34.73-194.3,66.36-311.5,90.15-117.21,23.79-228.08,36.38-322,38.44-158.63,3.48-268.91-23.07-279.74-76.4-9.83-48.43,64.47-108.49,188.58-163.04.2,15.59,1.39,31.33,3.63,47.12-34.82,17.3-53.61,33.03-51.13,45.27,2.54,12.47,26.82,19.67,66.98,21.91,77.58,4.28,214.4-10.09,367.72-41.21,153.34-31.13,284.92-71.24,354.7-105.43,36.09-17.69,55.64-33.81,53.11-46.28-2.48-12.23-25.93-19.4-64.72-21.76-4.1-15.42-9.14-30.37-15.03-44.81,135.55,1.85,227.4,28.19,237.23,76.61"/>
                <path class="cls-24" d="M2450.62,3041.65c.28,2.12.56,4.26.87,6.4-34.83,17.28-53.63,32.99-51.14,45.24,2.54,12.5,26.85,19.71,66.98,21.92,51.45,2.84,129.02-2.53,220.16-15.55-3.03,7-4.65,13.88-4.77,20.54-35.08,4.6-68.85,8.03-100.64,10.24-138.21,9.61-205.33-6.61-209.21-25.75-2.28-11.17,17.05-33.53,77.75-63.04"/>
                <path class="cls-22" d="M2445.1,3021.84l2.18,4.58c-31.01,14.26-55.54,27.76-74.51,40.24,15.27-14.17,39.34-29.04,72.33-44.82"/>
                <path class="cls-24" d="M2372.77,3066.66c-16,14.72-22.47,28.66-19.75,42.06,2.66,13.05,13.83,22.62,30.76,29.49,44.17,17.95,127.48,17.47,199.69,12.44,32.68-2.27,67.43-5.83,103.52-10.56,4.51,9.53,12.51,18.04,23.71,25.56-53.4,7.29-104.67,12.07-152.14,14.16-169.25,7.43-235.49-20.58-240.84-46.83-2.95-14.57,11.62-37.79,55.05-66.32"/>
                <path class="cls-24" d="M2853.8,3203.36c-114.54,22.87-222.79,34.97-314.8,36.99-158.62,3.49-268.92-23.07-279.75-76.42-9.82-48.41,64.51-108.45,188.61-163.02.06,4.64.23,9.28.47,13.95l-4.19-9.29c-72.26,32.66-156.33,81.97-146.25,131.43,3.88,19.14,20.45,32.84,44.32,42.53,56.18,22.79,152.59,23.36,217.24,20.52,56.74-2.49,118.79-8.78,183.27-18.51,28.5,10.58,66.21,17.9,111.09,21.82"/>
                <path class="cls-23" d="M2686.99,3140.09c-36.09,4.73-70.83,8.29-103.52,10.56-72.21,5.03-155.52,5.51-199.7-12.44-16.93-6.87-28.1-16.43-30.75-29.48-2.71-13.4,3.75-27.35,19.75-42.06,18.97-12.48,43.5-25.98,74.51-40.24l2.19,4.55c.34,3.57.73,7.12,1.15,10.68-60.7,29.51-80.03,51.87-77.75,63.04,3.88,19.14,71,35.36,209.21,25.75,31.79-2.21,65.55-5.64,100.64-10.24-.1,3.31.19,6.55.84,9.75.72,3.49,1.85,6.88,3.42,10.15"/>
                <path class="cls-17" d="M2447.28,3026.42c-31.01,14.26-55.54,27.76-74.51,40.24,15.27-14.17,39.34-29.04,72.33-44.82l2.18,4.58Z"/>
                <path class="cls-17" d="M2449.47,3030.97l4.37,9.12c-1.09.51-2.17,1.02-3.22,1.55-.41-3.57-.8-7.12-1.14-10.68"/>
                <path class="cls-17" d="M3096.62,3046.51c-74.1,25.44-161.74,48.77-253.48,67.38-53.34,10.83-106.04,19.66-156.15,26.2-1.57-3.27-2.71-6.66-3.42-10.15-.65-3.2-.93-6.43-.84-9.75,50.12-6.46,102.92-15.29,156.39-26.14,90.89-18.48,177.66-41.55,250.89-66.73,131.01-45.05,186.5-86.17,182.63-105.26-2.33-11.42-29.73-24.72-99.75-27.88l.69-15.22.22-5.05c36.7,1.65,64.72,5.98,84.36,13.08,20.28,7.36,31.6,17.68,34.32,31.01,9.58,47.2-101.24,95.93-195.87,128.49"/>
                <path class="cls-23" d="M2742.71,3181.54c-64.48,9.73-126.54,16.02-183.27,18.5-64.66,2.84-161.06,2.27-217.24-20.52-23.87-9.69-40.44-23.4-44.32-42.53-10.07-49.46,73.99-98.77,146.26-131.43l4.19,9.29c.17,3.61.38,7.2.68,10.79-.6.26-1.2.51-1.73.79l-2.18-4.58c-32.99,15.78-57.06,30.65-72.33,44.82-43.43,28.53-58.01,51.75-55.05,66.32,5.34,26.24,71.59,54.26,240.84,46.83,47.48-2.09,98.74-6.86,152.14-14.16,8.76,5.91,19.48,11.22,32.02,15.89"/>
                <path class="cls-24" d="M2445.1,3021.84l2.18,4.58c-31.01,14.26-55.54,27.76-74.51,40.24,15.27-14.17,39.34-29.04,72.33-44.82"/>
                <path class="cls-17" d="M2448.33,3014.85l4.15,9.19c-1.18.55-2.34,1.07-3.47,1.6-.29-3.59-.51-7.18-.68-10.79"/>
                <path class="cls-17" d="M3137.98,3082.62c-83.01,30.96-181.58,58.42-285.08,79.42-37.16,7.57-74.05,14.07-110.2,19.5-12.53-4.68-23.26-9.99-32.02-15.9,44.92-6.1,91.35-13.98,138.21-23.47,102.45-20.78,199.95-47.95,282-78.54,158.77-59.16,208.84-110.81,203.53-137.04-2.97-14.54-25.35-30.22-76.28-39.6-22.41-4.11-50.34-7-84.58-8.04-1.89-.04-3.8-.09-5.72-.16l.49-20.26c79.28,1.89,175.91,14.55,185.95,63.99,13.06,64.27-129.9,127.87-216.31,160.08"/>
                <path class="cls-12" d="M2512.42,3261.75c-105.88,0-257.71-14.13-273.84-93.6-15.14-74.6,100.83-142.63,200.78-186.57l29.2-12.83.41,31.9c.19,14.78,1.34,29.73,3.42,44.44l2.13,15.09-13.65,6.78c-19.18,9.53-29.32,16.6-34.61,21.11,6.85,2.16,19.53,4.82,42.24,6.08,78.2,4.3,217.06-11.33,362.35-40.82,145.29-29.49,279.25-69.23,349.6-103.69,20.42-10.01,31.05-17.4,36.5-22.06-6.63-2.09-18.72-4.65-40.1-5.94l-15.21-.92-3.92-14.73c-3.81-14.31-8.58-28.54-14.18-42.27l-12.03-29.52,31.87.43c109.17,1.49,242.48,18.94,257.63,93.53h0c17.56,86.53-143.28,164.47-240.71,203.23-91.52,36.42-200.48,67.96-315.1,91.23-114.57,23.26-227.21,36.7-325.74,38.85-8.56.19-17.63.3-27.05.3ZM2428.46,3033.01c-109.45,52.26-153.81,100.54-148.49,126.74,6.56,32.29,89.02,63.22,258.58,59.49,96.06-2.11,206.11-15.25,318.26-38.02,112.2-22.78,218.67-53.58,307.89-89.08,157.57-62.69,221.49-123.32,214.94-155.6h0c-5.32-26.2-65-53.36-186.17-58.82.31.98.61,1.94.91,2.92,31.81,3.18,63.89,11.47,69.16,37.45,6.18,30.49-31.23,53.12-64.51,69.44-74.47,36.49-208.97,76.54-359.79,107.16-150.82,30.61-290.28,46.13-373.08,41.6-37.02-2.06-80.31-8.32-86.5-38.77-5.27-25.99,21.04-46.14,49.09-61.47-.1-1.01-.2-2.02-.3-3.04Z"/>
              </g>
            </g>
          </g>
          <path class="cls-3" d="M2771.02,3624.96c-28.5,39.42-77.99,66.85-145.36,61.85-178.15-13.16-213.68-150.12-213.68-150.12-1201.07,137.11-2016.92-686.14-2016.92-686.14-150.32,81.94-311.56-45.1-274.11-157.25,2.53,30.57,20.1,75.25,98.34,86.09,121.82,16.85,149.71-92.17,149.71-92.17,0,0,215.3,237.87,717.98,465.17,35.94,16.25,73.79,31.53,113.12,45.9l206.04-301.39,255.08,27.03c-2.56,2.46-5.08,4.96-7.57,7.51-138.05,141.48-55.66,380.4,139.38,412.55,356.12,58.7,666.13,72.24,666.13,72.24,0,0,19.08,305.29,311.87,208.72"/>
          <g class="cls-34">
            <path class="cls-16" d="M673.39,2258.68c36.6-135.01,132.56-311.96,387.66-430.49,255.1-118.52,334.27-103.27,282.12-72.68-70.84,41.55-190.24,76.15-440.88,363.66-151.17,173.42-265.5,274.52-228.9,139.51"/>
          </g>
          <path class="cls-12" d="M2641.17,3709.61c-5.61,0-11.33-.21-17.19-.64-153.36-11.33-209.72-107.1-226.97-148.23-270.78,28.9-543.88,11.5-811.99-51.77-218.97-51.67-435.09-133.87-642.37-244.33-305.88-163-503.14-341.17-551.68-387.17-97.07,45.2-188.36,12.26-238.65-31.63-52.49-45.81-71.89-108.94-50.64-164.76,39.78-104.47,168.89-94.84,222.6-85.84,32.37-172.43,111.82-335.78,236.4-485.85,103.44-124.62,238.07-240.38,400.12-344.07,234.83-150.24,461.12-231.73,524.06-252.9-2.36-42.02.49-141.83,76.14-172.96,45.72-18.82,85.06-17.64,116.92,3.5,53.11,35.25,66.24,117.02,69.49,154.69,864.34,113.64,1711.45,399.07,1829.77,439.88,86.19-90.21,181.67-83.67,243.77-46.02,69.13,41.92,102.5,121.4,77.62,184.88-46.22,117.94-208.04,126.35-268.82,125.32-12.37,202.91-65.05,393.34-156.73,566.38-75.95,143.36-178.63,275.05-305.2,391.43-164.14,150.93-323.49,235.53-393.82,268.76,41.09,37.2,57.72,94.64,41.78,153.72-17.55,65.1-77.94,127.59-174.62,127.59ZM2412.02,3514.5c10.01,0,18.93,6.76,21.5,16.65,1.31,4.87,34.61,121.73,193.74,133.49,86.97,6.33,132.82-46.72,145.62-94.2,11.86-43.97-.27-100.07-54.1-126.26-7.9-3.85-12.8-12-12.48-20.79.32-8.79,5.8-16.57,13.97-19.83,2.07-.83,209.32-84.95,418.69-277.85,192.36-177.24,426.16-485.62,447.59-948.21.28-6.04,3.01-11.71,7.56-15.69,4.55-3.98,10.51-5.92,16.56-5.42,2,.2,202.58,15.93,246.52-96.2,16.82-42.91-9.22-100.3-59.28-130.65-63.61-38.57-137.42-20.47-197.43,48.41-6,6.88-15.59,9.4-24.19,6.35-9.13-3.24-924.17-325.48-1852.88-444.93-11.02-1.41-19.29-10.75-19.39-21.85-.31-29.1-10.03-110.58-50.73-137.54-19.07-12.63-43.72-12.43-75.38.6-62.14,25.57-47.52,143.23-47.35,144.42,1.51,10.82-5.06,21.13-15.51,24.33-2.58.79-261.08,81.01-531.21,254.03-247.43,158.48-555.78,429.69-619.68,821.79-1.01,6.17-4.56,11.63-9.79,15.04-5.24,3.41-11.66,4.46-17.71,2.9-1.54-.39-157.96-39.33-193.44,53.83-14.46,37.96.23,82.2,38.33,115.45,42.07,36.72,120.44,63.64,202.87,18.66,8.68-4.74,19.46-3.16,26.43,3.86,2.02,2.04,206.6,206.36,554.09,391.28,320.01,170.3,830.38,358.59,1444.54,288.49.85-.1,1.7-.14,2.54-.14Z"/>
          <path class="cls-12" d="M379.95,2688.91c-.74,12.79-.44,26.72.64,40,1.1,13.4,3.09,26.66,5.88,39.6,2.67,12.97,6.58,25.52,11.19,37.55,4.46,12.13,10.62,23.26,16.97,33.94l.48.81c6.3,10.57,2.83,24.26-7.74,30.56-10.58,6.3-24.27,2.83-30.56-7.75-.47-.78-.93-1.71-1.29-2.52-6.21-14.3-11.65-28.75-15-43.54-3.51-14.72-5.97-29.51-7.04-44.26-1.18-14.76-1.4-29.44-.66-44.02.79-14.7,2.27-28.79,5.17-43.74,1.17-6.02,6.99-9.96,13.02-8.79,5.53,1.07,9.3,6.07,8.98,11.55l-.04.63Z"/>
          <path class="cls-12" d="M2391.33,3544.89c-.5-1.46-.64-2.14-.87-3-.23-.88-.39-1.63-.55-2.4-.33-1.55-.62-3.06-.83-4.52-.52-2.97-.74-5.84-1.04-8.73-.35-5.74-.44-11.42-.02-17.03.81-11.2,2.93-22.18,6.62-32.49.78-2.62,1.99-5.08,2.98-7.61,1-2.52,2.08-4.99,3.39-7.35l3.74-7.11,4.3-6.69c2.71-4.56,6.26-8.44,9.38-12.57,3.33-3.96,7.02-7.57,10.48-11.29,4.17-4.48,11.17-4.73,15.65-.56,3.91,3.64,4.59,9.44,1.93,13.83l-.74,1.23c-2.28,3.77-4.76,7.35-6.83,11.12-1.83,3.9-4.12,7.53-5.47,11.53l-2.31,5.83-1.73,5.96c-.65,1.95-1.06,3.96-1.41,5.97-.33,2.01-.91,3.94-1.07,5.96-1.17,7.96-1.01,15.95-.03,23.6.47,3.83,1.34,7.57,2.29,11.18.59,1.74,1.08,3.54,1.74,5.14.3.86.63,1.62.97,2.33.16.38.32.76.48.99.14.26.35.7.27.35,4.51,11.41-1.09,24.32-12.51,28.83-11.41,4.51-24.32-1.09-28.83-12.51"/>
          <path class="cls-12" d="M2542.45,3372.35c9.21-2.34,17.15-3.44,25.73-4.41,8.43-.79,16.9-1.33,25.34-1.24,16.9.03,33.83,1.54,50.54,4.55,4.19.71,8.3,1.73,12.46,2.59,4.18.84,8.31,1.83,12.38,3.05l12.3,3.45,12.06,4.17c8.17,2.59,15.83,6.27,23.77,9.48,7.8,3.46,15.32,7.47,23.02,11.23,11.07,5.4,15.66,18.74,10.26,29.8-5.4,11.06-18.75,15.66-29.81,10.26-.74-.36-1.45-.76-2.13-1.18l-1.46-.92c-6.29-3.99-12.46-8.31-18.91-12.11-6.57-3.54-12.94-7.64-19.78-10.68l-10.15-4.91-10.42-4.27c-3.46-1.51-6.99-2.8-10.57-3.95-3.57-1.18-7.11-2.53-10.73-3.57-14.43-4.38-29.3-7.46-44.34-9.24-7.52-.97-15.08-1.36-22.63-1.53-7.39-.08-15.43.24-21.91,1.08l-.9.11c-6.08.79-11.64-3.51-12.42-9.58-.72-5.62,2.9-10.81,8.27-12.17"/>
          <path class="cls-12" d="M3574.73,2026.42c8.18,11.5,14.76,22.7,21.03,34.69,6.22,11.88,11.72,24.18,16.49,36.85,2.52,6.29,4.49,12.79,6.68,19.25,1.79,6.57,3.92,13.1,5.32,19.83,3.37,13.35,5.23,27.14,6.71,41.08,1.29,12.25-7.59,23.22-19.83,24.52-12.25,1.29-23.23-7.59-24.52-19.84-.11-1.02-.14-2.02-.12-3.02l.03-.86c.42-11.69.62-23.58-.63-35.5-.34-5.99-1.39-11.93-2.11-17.93-1.11-5.94-1.99-11.96-3.44-17.89-2.61-11.91-5.94-23.76-10.04-35.39-4.01-11.52-8.92-23.34-14.22-33.7l-.31-.61c-2.79-5.46-.62-12.16,4.84-14.95,4.97-2.54,10.97-.97,14.11,3.46"/>
          <path class="cls-16" d="M2002.73,2347.16c-158.41,217.73-529.19,187.21-705.17,287.67-111.8,63.88-175.87,319.52-242.33,413.9-46.05,65.45-215.25,186.51-323.3,191.57-181.49,8.5-277.81-123.34-273.3-213.48.16-4,.56-7.95,1.16-11.74,19.03-121.12,198.25-181.14,196.07-223.81,0,0,3.14-124.86,19.08-205.18,51.82-260.8,200.47-354.58,333.27-399.17,70.96-23.84,162.72-35.12,242.08-34.36,56.08.5,105.98,7.08,137.97,19.53l614.47,175.06Z"/>
          <g class="cls-28">
            <path class="cls-12" d="M2002.73,2347.16c-158.41,217.73-529.19,187.21-705.17,287.67-111.8,63.88-175.87,319.52-242.33,413.9-46.05,65.45-215.25,186.51-323.3,191.57-181.49,8.5-277.81-123.34-273.3-213.48,33,29.46,99.15,67.11,217.48,59.52,247.7-15.89,239.19-208.06,259.23-317.49,24.65-134.27,49.19-264.09,165.9-356.97,87.15-69.33,131.44-195.92,149.05-259.33,56.08.5,105.98,7.08,137.97,19.53l614.47,175.06Z"/>
          </g>
          <path class="cls-12" d="M1384.24,2182.47c-21.61-5.21-44.51-7.44-67.43-8.52-22.95-1.17-46.09-1.06-69.2-.27-46.24,1.73-92.45,5.96-138.12,12.52-22.82,3.4-45.43,7.88-67.46,13.8-11.08,2.91-21.79,6.21-32.63,10.03-10.88,3.71-21.57,7.82-32.17,12.13-42.29,17.32-81.98,39.94-116.92,68.44-34.86,28.56-64.74,62.94-88.73,101.34-23.97,38.42-42.55,80.48-56.03,124.39-6.74,21.95-12.69,44.23-17.24,66.9-4.79,22.38-7.97,45.14-10.62,68.35-5.16,46.29-8.08,93.59-9.6,140.23l-.02-1.68c.36,7.66-1.66,14.27-3.93,19.23-2.32,5.02-4.98,8.9-7.59,12.23-5.24,6.59-10.49,11.53-15.65,16.09-10.35,9.03-20.53,16.45-30.59,23.81-20.1,14.55-39.69,28.32-57.98,43.15-18.25,14.78-35.21,30.51-49.11,47.82-13.92,17.26-24.43,36.2-29.41,56.12-2.52,10.15-3.43,19.57-2.92,29.88.53,10.2,2.48,20.63,5.52,30.87,6.08,20.53,16.53,40.26,29.88,57.84,26.75,35.27,64.81,62.05,107.36,76.47,21.21,7.48,43.59,11.81,66.28,13.68l8.52.68,8.57.24c5.71.27,11.44.16,17.18-.01,5.92-.02,11.11-.46,16.41-.96l8.07-1.11,8.13-1.52c21.78-4.46,43.73-12.24,65.14-21.57,21.42-9.37,42.41-20.36,62.84-32.4,40.77-24.14,79.87-52.27,114.53-83.85,8.59-7.91,16.88-16.07,24.42-24.47,7.68-8.54,13.76-16.5,19.83-26.26,12.04-19.24,22.58-40.75,32.71-62.52,20.19-43.74,38.74-89.19,59.15-134.22,20.52-45.01,42.17-90.13,70.84-132.78,14.42-21.23,30.72-41.92,51.19-60.05,5.18-4.47,10.55-8.82,16.3-12.84,5.64-3.94,12.16-7.94,17.73-10.87,11.51-6.31,23.25-11.87,35.09-16.89,47.49-19.91,96.11-32.11,144.28-43.21,96.33-21.77,192.5-37.92,283.4-68.08,45.29-15.05,89.15-33.6,128.83-58.17,39.65-24.47,74.78-55.32,101.69-92.42,7.21-9.93,21.11-12.15,31.04-4.94,9.93,7.21,12.14,21.1,4.93,31.03l-.03.06c-30.66,42.3-70.61,77.16-114.22,104.05-43.67,27.03-90.7,46.76-138.23,62.56-95.29,31.56-193,47.8-287.54,69.24-47.15,10.83-93.9,22.76-136.82,40.81-10.69,4.53-21.1,9.47-31.06,14.93-5.25,2.79-9.15,5.25-13.57,8.28-4.29,2.99-8.44,6.36-12.53,9.87-16.25,14.36-30.67,32.32-43.7,51.56-26.06,38.69-47.12,82.16-67.14,126.17-20.02,44.17-38.48,89.42-59.32,134.6-10.54,22.58-21.5,45.19-35.42,67.49-6.81,11.07-15.62,22.66-24.36,32.27-8.83,9.81-18.02,18.83-27.42,27.5-37.76,34.36-78.63,63.66-122.06,89.43-21.74,12.81-44.2,24.6-67.63,34.85-23.46,10.19-47.87,19-74.09,24.39l-9.91,1.84-10.12,1.39c-6.88.69-13.9,1.2-20.23,1.22-6.5.19-13.01.3-19.53.01l-9.78-.29-9.79-.77c-26.07-2.14-52.15-7.17-77.15-15.97-50.12-17.02-95.82-48.82-128.28-91.66-16.21-21.4-29.17-45.56-37.04-72-3.93-13.21-6.57-27-7.31-41.25-.81-14.13.72-29.33,4.18-42.92,6.93-27.71,21.12-52.38,37.85-73.15,16.8-20.89,36.07-38.54,55.82-54.56,19.76-16.02,40.27-30.4,59.81-44.56,9.71-7.07,19.29-14.15,27.38-21.24,4.02-3.51,7.63-7.11,10-10.11,1.18-1.47,1.91-2.75,2.15-3.28.27-.58-.12-.04-.03,1.48l-.02-1.68c1.58-48.34,4.52-95.94,9.87-144.11,2.73-23.98,6.13-48.35,11.28-72.43,4.8-23.92,11.11-47.61,18.31-71.07,14.42-46.89,34.47-92.55,60.8-134.76,26.34-42.18,59.58-80.48,98.27-112.14,38.74-31.63,82.54-56.48,128.15-75.15,11.42-4.64,22.91-9.04,34.51-13.01,11.56-4.07,23.59-7.74,35.43-11.06,23.79-6.65,47.78-11.76,71.85-16.06,48.15-8.51,96.99-11.76,145.78-9.48,24.39,1.08,48.78,3.57,73.03,8,24.16,4.62,48.45,10.72,71.37,22.32,5.5,2.78,7.7,9.5,4.92,15.01-2.39,4.71-7.65,6.99-12.57,5.81l-.39-.1Z"/>
          <path class="cls-12" d="M677.62,2786.74c1.35,8.93,3.68,17.32,7.12,25.23,1.49,4.09,3.83,7.68,5.83,11.52,2.53,3.47,4.62,7.33,7.66,10.48,11.16,13.43,26.67,24.1,44.36,31.6,4.26,2.19,8.99,3.54,13.6,5.17l6.95,2.4c2.33.76,4.79,1.23,7.19,1.86,4.84,1.16,9.64,2.48,14.56,3.52l14.95,2.46c2.51.38,4.99.89,7.52,1.18l7.63.71,15.29,1.42c10.26.54,20.6.66,30.94,1.02l.78.03c6.12.21,10.92,5.35,10.7,11.48-.2,5.77-4.83,10.37-10.49,10.69-10.78.58-21.57,1.4-32.43,1.77l-16.37-.07-8.2-.04c-2.73-.07-5.48-.37-8.23-.55l-16.52-1.26c-5.51-.66-11.04-1.66-16.57-2.48-2.76-.47-5.54-.78-8.29-1.41l-8.27-2.03c-5.51-1.41-11.08-2.54-16.5-4.68-21.83-7.09-43.56-18.74-61.16-36.4-17.86-17.33-29.8-41.04-35.55-64.57l-.11-.42c-2.92-11.95,4.39-23.99,16.33-26.91,11.94-2.91,23.98,4.39,26.91,16.33.15.64.28,1.32.38,1.96"/>
          <path class="cls-12" d="M1221.72,2735.65c-10.12,0-19.26-6.95-21.64-17.23-38.3-165.72-116.62-280.06-232.76-339.83-86.75-44.65-163.71-40.71-164.48-40.68-12.25.83-22.76-8.6-23.51-20.83-.74-12.23,8.52-22.75,20.75-23.53,3.57-.2,88.07-4.95,185.34,44.37,89.06,45.15,206.11,146.09,257.98,370.49,2.76,11.95-4.69,23.89-16.65,26.66-1.68.39-3.37.58-5.02.58Z"/>
          <g class="cls-30">
            <path class="cls-12" d="M1698.01,673.85c-.41.29-.59.41-.59.41.19-.12.41-.29.59-.41"/>
          </g>
          <path class="cls-25" d="M1668.99,736.44c.19-.12.41-.29.59-.41-.41.29-.59.41-.59.41"/>
          <path class="cls-16" d="M1877.62,1998.96s-86.14,108.87-386.06,119.29c-68.23,2.37-130.38-1.07-186.96-9.17-167.17-23.78-285.75-87.71-369.26-160.34-152.03-132.25-187.61-293.35-187.61-293.35l270.31-217.88c145.01,237.62,413.15,269.46,608.1,255.75,134.78-9.47,234.58-40.65,234.58-40.65l6.78,139.13,2.13,43.37,5.57,114.48,2.43,49.35Z"/>
          <g class="cls-28">
            <path class="cls-12" d="M1877.64,1998.98s-86.14,108.87-386.07,119.29c-269.76,9.36-444.47-72.28-556.22-169.5,59.93,16.2,132.86,28.85,203.46,22.93,234.28-19.69,550.36-180.51,550.36-180.51l180.48,43.96,7.99,163.83Z"/>
          </g>
          <path class="cls-12" d="M1450.4,2141.21c-311.46,0-490.08-124.31-586.07-231.22-109.02-121.42-137.17-244.58-138.31-249.76-1.82-8.24,1.19-16.8,7.76-22.1l270.34-217.87c4.98-4.01,11.45-5.69,17.75-4.59,6.3,1.1,11.83,4.86,15.16,10.32,97.31,159.46,263.38,242.74,493.6,247.55,174.49,3.67,322-41.66,323.47-42.12,6.56-2.04,13.71-.94,19.34,3,5.64,3.94,9.14,10.26,9.47,17.13l16.94,346.37c.26,5.37-1.43,10.66-4.77,14.88-3.78,4.77-96.06,117.03-402.75,127.68-14.23.5-28.22.74-41.93.74ZM772.99,1663.62c10.11,33.69,43.74,127.47,125.9,218.31,136.56,150.98,335.75,223.01,591.91,214.12,247.14-8.59,342.27-84.16,364.21-105.35l-15.12-309.2c-51.83,13.38-170.93,39.18-308.98,36.49-233.22-4.59-411.77-90.07-518.16-247.6l-239.76,193.22ZM747.72,1655.44h.06-.06Z"/>
          <path class="cls-12" d="M1160.52,2097.84c-7.9,0-15.56-4.23-19.58-11.67-5.82-10.8-1.8-24.27,8.98-30.1h0c2.26-1.23,225.83-125.47,225.83-372.9,0-12.27,9.95-22.22,22.22-22.22s22.22,9.95,22.22,22.22c0,274.42-238.98,406.51-249.15,412-3.36,1.81-6.97,2.67-10.53,2.67Z"/>
          <path class="cls-16" d="M2760.04,1794.64c-4.41,18.58-8.91,36.8-13.52,54.71-14.83,57.8-30.77,112.31-47.67,163.72-25.3,76.93-52.74,146.98-81.94,210.65-53.34,116.51-112.36,211.81-174.36,289.55-46.21,58-94.08,106.23-142.47,146.16-231.8,191.57-474.43,192.83-600.46,171.01-204.78-35.52-489.72-247.08-444.52-588.21,6.37-48.23,23.78-92.27,49.5-133.16,2.53-4,5.11-7.94,7.8-11.9,14.32-21.2,30.92-41.6,49.29-61.29,84.22-90.29,206.39-166.61,327.51-244.71l8.3.06,170,.5,892.54,2.88Z"/>
          <g class="cls-28">
            <path class="cls-12" d="M2341.42,2623.15c-243.8,227.65-508.29,230.43-641.81,207.3-204.77-35.53-489.71-247.08-444.52-588.21,5.46-41.3,18.98-79.51,38.92-115.29-1.07,5.72-2.03,11.5-2.78,17.36-45.2,341.12,239.74,552.68,444.52,588.21,115.7,20.04,329.68,20.6,543.31-127.69l62.35,18.32Z"/>
          </g>
          <path class="cls-12" d="M1695.19,1800.53c-12.98,9.67-26.09,19.12-39.24,28.49l-39.32,28.2c-26.34,18.52-52.46,37.24-78.04,56.46-25.78,18.92-51.25,38.11-75.59,58.41-24.34,20.28-47.69,41.46-69.79,63.53-21.86,22.26-42.04,45.88-59.36,71.09-17.01,25.35-31.57,52.12-41.13,80.47-5.13,14.06-8.53,28.61-11.42,43.19-2.44,14.43-4.27,30.07-5.47,45.41-2.17,30.77-1.82,61.65,1.77,92.14,6.91,61,26.29,120.33,56.59,173.79,30.16,53.56,70.64,101.41,117.82,141.5,47.17,40.09,100.88,72.92,158.17,96.05,28.65,11.47,58.19,20.66,88.09,26.25,30.2,5.59,61.42,8.69,92.52,9.73,62.33,2.04,125.01-4.36,185.78-18.7,60.81-14.27,119.6-36.8,174.86-66.08,55.22-29.42,106.77-65.79,153.95-107.29,47.3-41.41,89.89-88.27,128.76-138.07,77.45-100.06,138.46-212.9,187.49-330.53,49.03-117.79,86.84-240.46,116.79-365.05,2.87-11.94,14.87-19.28,26.8-16.42,11.88,2.86,19.22,14.77,16.46,26.65-29.5,126.64-67.19,251.83-117.11,372.66-49.8,120.69-112.14,237.35-192.5,342-40.28,52.15-84.95,101.28-134.81,144.98-49.73,43.78-104.35,82.4-163.11,113.73-58.79,31.2-121.53,55.28-186.45,70.54-64.89,15.33-131.76,22.21-198.5,20.06-33.41-1.12-66.62-4.36-99.91-10.5-33.59-6.29-65.99-16.4-97.25-28.91-62.45-25.23-120.33-60.61-171.55-104.09-51.16-43.48-95.5-95.64-128.7-154.67-33.29-58.91-54.73-124.83-62.24-192.16-3.91-33.65-4.22-67.6-1.81-101.21,1.38-16.85,3.18-33.3,6.42-50.66,3.55-17.01,7.81-33.93,13.92-50.16,11.54-32.75,28.53-62.98,47.82-90.92,19.6-27.77,41.88-53.12,65.53-76.6,23.67-23.49,49.06-44.79,75.09-64.86,26.03-20.1,52.73-39.02,79.84-57.1,27.33-17.76,54.96-34.83,82.66-51.62,13.87-8.38,27.97-16.35,41.95-24.47,13.98-8.12,28.02-16.13,42.17-23.94,5.38-2.98,12.16-1.03,15.14,4.36,2.73,4.93,1.31,11.04-3.1,14.32"/>
          <path class="cls-16" d="M2358.43,2606.81c-59.78,59.46-126.88,104.21-197.09,139.89-185.23,94.14-391.89,124.96-541.69,195.26-150.62,70.7-219.35,291.01-294.96,378.17-52.49,60.48-233.02,163.83-341.02,157.96-189.44-10.32-271.07-163.52-248-251.54,2.68-10.33,6.58-20.05,11.33-29.2,50.46-96.62,204.37-134.68,206.35-173.7,0,0-1.42-124.34,12.55-205.03,47.52-273.81,231.75-365.66,399.02-360.61,145.36,4.41,269.56,79.92,301.24,137.81l692.27,10.99Z"/>
          <g class="cls-28">
            <path class="cls-12" d="M2161.35,2746.69c-185.24,94.14-391.89,124.96-541.69,195.27-150.62,70.7-219.35,291.01-294.97,378.16-52.48,60.49-233.01,163.83-341.02,157.96-189.44-10.33-271.07-163.53-247.99-251.55,2.68-10.32,6.57-20.04,11.33-29.2,9.36,60.54,47.77,140.25,180.99,163.68,223.3,39.32,411.63-105.32,445.99-265.41,38.11-177.6,123.84-289.55,273.76-319.31,104.3-20.7,331.09,4.51,513.6-29.61"/>
          </g>
          <path class="cls-12" d="M1656.4,2601.16c-9.99-13-23.14-24.26-37.02-34.43-13.92-10.18-28.92-19.17-44.31-27.38-30.88-16.35-63.7-29.09-97.17-39.34-16.74-5.14-33.72-9.54-50.94-12.85-17.22-3.24-34.64-5.39-52.1-6.47-34.92-2.03-69.98.64-103.95,7.83-34,7.12-66.66,19.53-96.82,36.25-29.96,17.06-57.36,38.57-80.66,64.14-23.52,25.36-42.84,54.64-58.72,85.78-15.55,31.37-27.57,64.7-36.46,99.03-2.08,8.62-4.12,17.27-6.04,25.95-1.62,8.73-3.5,17.5-4.93,26.2-2.91,17.31-4.84,35.18-6.41,53.12-3.13,35.91-4.53,72.34-5.13,108.73l-.21,27.26.02,6.77v2.31c-.07,1.52-.22,3.17-.44,4.72-.49,2.86-1.14,5.36-2.02,7.61-3.56,9.23-8.43,14.51-12.76,19.12-8.84,8.79-17.27,14.41-25.58,19.92-8.29,5.37-16.46,10.19-24.54,14.9-32.2,18.59-63.38,36.06-90.52,57.5-27.02,21.2-49.76,46.51-59.86,75.76-10.31,28.07-5.73,61.74,6.56,92.13,6.27,15.22,14.46,29.8,24.32,43.25,9.92,13.4,21.41,25.71,34.14,36.62,25.46,21.89,55.87,37.97,88.41,47.88,16.26,5.02,33.09,8.49,50.19,10.44,4.24.64,8.56.95,12.86,1.28,4.27.31,8.73.8,12.6.76,7.93.35,16.23-.33,24.52-1.08,33.44-3.95,67.51-14.52,100.42-27.64,32.96-13.26,65.11-29.35,95.92-47.46,15.4-9.07,30.44-18.7,44.9-28.92,14.4-10.22,28.46-21,40.75-32.52,23.53-21.83,42.14-53.09,60.47-84.15,18.21-31.37,35.75-63.93,54.52-96.1,18.71-32.22,38.73-64.19,61.45-94.79,22.93-30.41,48.6-59.66,79.43-84.3,15.41-12.26,32.05-23.33,49.86-32.53,9.07-4.82,17.56-8.39,26.24-12.34,8.66-3.81,17.39-7.4,26.12-10.98,35-13.97,70.39-25.94,105.78-37.18,70.79-22.33,141.56-42.03,210.72-65.24,69.11-23.12,136.77-49.61,200.13-83.66,63.32-33.96,122.14-75.7,172.69-126,8.7-8.66,22.77-8.62,31.43.07,8.66,8.71,8.61,22.78-.08,31.44-53.95,53.7-116.57,98.03-183,133.64-66.49,35.73-136.56,63.08-207.05,86.66-70.53,23.66-141.73,43.46-211.41,65.46-34.81,11.04-69.22,22.71-102.64,36.05-8.31,3.41-16.61,6.83-24.8,10.42-8.07,3.68-16.55,7.29-23.73,11.16-14.91,7.71-29.09,17.1-42.49,27.75-26.81,21.4-50.22,47.86-71.57,76.19-21.21,28.56-40.39,59.09-58.65,90.55-18.35,31.44-35.75,63.75-54.5,96.08-9.41,16.16-19.17,32.32-30.05,48.27-5.55,7.96-11.22,15.89-17.6,23.64l-4.81,5.81-5.26,5.81c-3.57,3.72-7.15,7.38-10.82,10.73-14.6,13.65-29.88,25.29-45.48,36.38-15.62,11.03-31.62,21.27-47.96,30.88-32.68,19.21-66.58,36.2-101.95,50.42-35.42,14.06-72.25,25.81-112.06,30.57-10.04.94-20.14,1.75-30.61,1.34-5.36-.01-10.06-.53-14.97-.89-4.88-.37-9.75-.73-14.61-1.45-19.48-2.24-38.89-6.23-57.82-12.06-37.86-11.52-73.97-30.5-104.4-56.67-30.47-26.06-55.26-59.1-70.67-96.84-7.76-18.82-12.91-38.96-14.87-59.85-.91-10.47-.83-21.16.24-31.93,1.21-10.78,3.79-21.8,7.27-31.76,7.07-20.24,18.15-38.57,31.13-54.4,13-15.87,27.78-29.5,43.16-41.62,30.77-24.26,64.21-42.79,95.7-61.02,7.83-4.56,15.52-9.12,22.68-13.76,7.06-4.58,13.87-9.51,18.07-13.77,2.01-1.98,3.15-3.98,2.81-3.44,0,.13-.16.36-.21.96-.09.42-.11.92-.07,1.3l-.02-1.14-.02-7.04.21-27.97c.62-37.25,2.03-74.46,5.29-111.93,1.64-18.74,3.66-37.51,6.85-56.54,1.55-9.46,3.53-18.71,5.28-28.07,2.06-9.31,4.24-18.59,6.48-27.86,9.57-36.96,22.61-73.29,39.79-107.92,17.53-34.43,39.14-67.23,65.73-95.92,26.34-28.88,57.54-53.44,91.58-72.79,34.23-19.01,71.2-32.97,109.3-40.97,38.07-8.07,77.11-10.97,115.72-8.74,38.59,2.04,76.94,8.25,114.01,19.14,37.03,11.03,72.42,27.52,104.73,49.03,16.08,10.87,31.46,22.96,45.3,37,13.75,14.01,26.52,29.75,34.55,49.01,2.37,5.69-.32,12.23-6.01,14.61-4.78,1.98-10.14.42-13.15-3.49l-.34-.44Z"/>
          <path class="cls-12" d="M975.44,3021.36c.44,9.02,1.92,17.6,4.54,25.81,1.07,4.22,3.04,8.03,4.63,12.05,2.17,3.71,3.86,7.76,6.57,11.21,9.74,14.49,24.1,26.67,40.95,35.91,4.01,2.62,8.59,4.43,13,6.52l6.67,3.08c2.25.99,4.66,1.71,6.98,2.58,4.7,1.63,9.34,3.44,14.12,4.97l14.62,3.96c2.45.63,4.87,1.39,7.36,1.93l7.52,1.47,15.07,2.96c10.16,1.57,20.42,2.73,30.68,4.14l.77.11c6.07.83,10.32,6.43,9.49,12.5-.79,5.72-5.86,9.82-11.52,9.58-10.78-.51-21.6-.78-32.44-1.51l-16.27-1.73-8.16-.87c-2.72-.34-5.42-.92-8.14-1.38l-16.31-2.92c-5.42-1.22-10.81-2.76-16.23-4.14-2.71-.75-5.44-1.34-8.12-2.24l-8.02-2.86c-5.34-1.97-10.77-3.65-15.95-6.32-21-9.26-41.44-23.05-57.16-42.39-16.02-19.05-25.5-43.84-28.85-67.83l-.06-.43c-1.69-12.17,6.79-23.42,18.97-25.11,12.18-1.7,23.42,6.79,25.12,18.97.09.65.15,1.34.18,1.98"/>
          <path class="cls-13" d="M1854.64,1989.75l-1.18,2.13,1.48-2.15c-.11-.02-.23.01-.29.02"/>
          <g class="cls-28">
            <path class="cls-12" d="M2442.55,2513.27c-46.21,58-94.09,106.23-142.47,146.17-79.36-12.25-210.59-49.09-378.62-156.45l-46.11,72.68c-28.9,45.5-89.73,59.06-135.18,30.22l-384.09-243.8c-45.45-28.85-59.11-89.68-30.21-135.18l25.05-39.47c-30.72-19.18-45.75-55.52-38.51-90.24,14.32-21.2,30.92-41.6,49.29-61.29,22.07-9.77,48.04-10.27,71.56.76,3.49,1.62,6.79,3.49,9.92,5.52l12.45-19.63c28.85-45.55,89.68-59.12,135.23-30.22l383.98,243.75c5.67,3.59,10.84,7.64,15.49,12.2,31.53,30.41,39.48,79.36,17.36,118.53,33.81,25.81,243.95,179.31,434.85,146.47"/>
          </g>
          <path class="cls-16" d="M1308.63,1991.45c-20.23,43.01-1.75,94.27,41.26,114.49,43.01,20.22,94.27,1.75,114.49-41.26,20.22-43.01,1.75-94.27-41.26-114.49-43.01-20.22-94.26-1.75-114.48,41.26"/>
          <g class="cls-30">
            <path class="cls-12" d="M1308.65,1991.44c-20.22,43.01-1.79,94.29,41.22,114.51,43,20.22,94.32,1.73,114.54-41.27,5.59-11.88,8.26-24.46,8.17-36.81-24.87,20.42-60.31,26.05-91.37,11.43-31.07-14.61-49.34-45.49-49.41-77.63-9.57,7.82-17.56,17.88-23.15,29.77"/>
          </g>
          <path class="cls-12" d="M1386.44,2136.4c-15.71,0-31.36-3.47-46-10.35-26.17-12.31-45.99-34.07-55.79-61.28-9.81-27.21-8.43-56.6,3.88-82.78h0c12.31-26.17,34.07-45.99,61.27-55.79,27.21-9.79,56.61-8.42,82.78,3.88,26.18,12.31,45.99,34.07,55.8,61.28,9.81,27.21,8.43,56.6-3.88,82.78-12.31,26.17-34.07,45.98-61.28,55.79-11.99,4.31-24.4,6.47-36.77,6.47ZM1386.54,1964.2c-7.29,0-14.61,1.27-21.68,3.81-16.04,5.78-28.87,17.46-36.12,32.9h0c-7.25,15.43-8.07,32.75-2.29,48.79,5.78,16.04,17.46,28.87,32.89,36.12,15.44,7.26,32.77,8.07,48.8,2.29,16.04-5.78,28.87-17.46,36.12-32.89,7.25-15.43,8.07-32.76,2.29-48.8-5.78-16.04-17.46-28.87-32.89-36.12-8.63-4.06-17.86-6.1-27.12-6.1ZM1308.63,1991.45h.06-.06Z"/>
          <path class="cls-16" d="M1345.94,2275.61l384.08,243.79c45.45,28.87,106.29,15.3,135.2-30.22l129.72-204.39c25.3-39.85,18.01-91.43-14.75-123.03-4.61-4.52-9.79-8.56-15.46-12.17l-384.02-243.76c-45.51-28.9-106.36-15.32-135.2,30.22l-102.78,161.86-27,42.5c-28.91,45.51-15.24,106.33,30.21,135.2"/>
          <g class="cls-28">
            <path class="cls-12" d="M1345.94,2275.61l384.08,243.79c45.45,28.87,106.29,15.3,135.2-30.22l129.72-204.39c25.3-39.85,18.01-91.43-14.75-123.03-31,.64-50.74,1.12-50.74,1.12-122.83,152.2-192.83,278.39-436.67,99.94-84.07-61.52-126.49-124.63-150.06-164.9l-27,42.5c-28.91,45.51-15.24,106.33,30.21,135.2"/>
          </g>
          <path class="cls-12" d="M1786.1,2561.52c-19.77,0-39.75-5.42-57.65-16.77l-404.79-256.95c-24.25-15.4-41.08-39.4-47.38-67.59-6.3-28.19-1.29-57.07,14.11-81.32l142.92-225.17c31.88-50.22,98.68-65.15,148.91-33.27l404.8,256.95c24.25,15.39,41.08,39.39,47.38,67.59,6.3,28.19,1.29,57.07-14.11,81.32l-142.92,225.16c-20.53,32.34-55.54,50.04-91.27,50.04ZM1752.27,2507.22c29.54,18.74,68.82,9.97,87.57-19.57l142.92-225.16c9.03-14.23,11.97-31.21,8.25-47.81-3.71-16.6-13.59-30.72-27.82-39.75l-404.8-256.95c-29.54-18.75-68.82-9.97-87.57,19.56l-142.92,225.17c-9.03,14.23-11.97,31.21-8.25,47.81,3.71,16.6,13.59,30.72,27.82,39.75l404.79,256.95Z"/>
          <path class="cls-16" d="M1331.49,2264.31c4.32,4.19,9.12,7.95,14.46,11.3l384.08,243.79c33.32,21.13,74.86,19.53,106.09-.84,11.37-7.38,21.37-17.25,29.05-29.41l57.67-90.78,19.03-29.95,53.08-83.63c28.9-45.51,15.23-106.33-30.21-135.2l-83-52.66c33.68,31.49,41.4,83.7,15.87,123.97l-70.04,110.42-59.71,94.03c-28.87,45.45-89.75,59.09-135.2,30.22l-301.16-191.26Z"/>
          <g class="cls-28">
            <path class="cls-12" d="M1331.49,2264.31c4.32,4.19,9.12,7.95,14.46,11.3l384.08,243.79c45.45,28.87,106.29,15.3,135.14-30.25l76.7-120.73c-23.2,15.21-57.19,30.38-86.7,15.5-16.22-8.13-24.25-28.61-27.61-52.59l-59.71,94.03c-28.87,45.45-89.75,59.09-135.2,30.22l-301.16-191.26Z"/>
          </g>
          <path class="cls-12" d="M1782.06,2556.83c-22.53,0-44.58-6.35-63.96-18.67l-384.07-243.8c-6.36-3.98-12.43-8.72-17.95-14l27.29-34.81,301.21,191.24c16.96,10.78,37.22,14.28,57.03,9.86,19.83-4.43,36.68-16.22,47.45-33.22l129.76-204.43c19.47-30.67,14.32-70.98-12.24-95.86l27.09-34.99,82.96,52.64c27.01,17.17,45.75,43.91,52.77,75.31,7.02,31.41,1.44,63.59-15.72,90.59l-129.74,204.39c-17.13,27.03-43.88,45.78-75.3,52.8-8.85,1.97-17.76,2.95-26.59,2.95ZM1721.1,2487.41l20.84,13.23c16.97,10.79,37.21,14.29,57.03,9.86,19.83-4.43,36.68-16.22,47.45-33.22h0s129.75-204.43,129.75-204.43c10.8-16.99,14.3-37.25,9.87-57.06-4.43-19.82-16.23-36.68-33.22-47.48l-18.39-11.66c2.58,25.98-3.26,52.83-18.08,76.17l-129.75,204.42c-15.32,24.16-38.33,41.72-65.5,50.17Z"/>
          <path class="cls-8" d="M1680.23,2228.66c-4.76,7.58-32.47,75.51-32.47,75.51,0,0,19.4,12.16,43.22,27.08,29.76,18.65,73.19,2.96,97.02-35.05,23.82-38.01,19.01-83.94-10.75-102.6-20.08-12.58-43.22-27.08-43.22-27.08,0,0-46.05,49.78-53.8,62.14"/>
          <g class="cls-30">
            <path class="cls-12" d="M1680.23,2228.66c-4.76,7.58-32.47,75.51-32.47,75.51,0,0,19.4,12.16,43.22,27.08,29.76,18.65,73.19,2.96,97.02-35.05,23.82-38.01,19.01-83.94-10.75-102.6-20.08-12.58-43.22-27.08-43.22-27.08,0,0-46.05,49.78-53.8,62.14"/>
          </g>
          <path class="cls-12" d="M1719.01,2355.83c-13.22,0-25.8-3.51-36.88-10.46l-55.1-34.52,5.3-12.98c8.5-20.82,28.8-70.12,33.78-78.07,8.17-13.03,47.82-56.11,55.68-64.61l9.38-10.15,54.92,34.42c37.5,23.51,44.69,79.85,16.03,125.58-13.49,21.52-32.93,37.72-54.74,45.6-9.57,3.45-19.13,5.17-28.37,5.18ZM1668.51,2297.5l31.33,19.63c9.95,6.23,22.82,7.01,36.22,2.17,14.84-5.36,28.27-16.71,37.82-31.95,18.9-30.16,16.44-65.88-5.48-79.63l-31.46-19.72c-17.6,19.32-38.41,42.92-42.54,49.44-2.61,4.52-14.35,32.07-25.88,60.06ZM1680.23,2228.66h.06-.06Z"/>
          <path class="cls-5" d="M1637.01,2201.57c-23.82,38.01-19.01,83.94,10.75,102.6,29.76,18.65,73.19,2.96,97.02-35.06,23.82-38.01,19.01-83.94-10.75-102.59-29.76-18.65-73.2-2.96-97.02,35.05"/>
          <g class="cls-30">
            <path class="cls-12" d="M1744.77,2269.12c-23.8,38-67.25,53.71-97,35.07-29.8-18.67-34.6-64.61-10.74-102.63,3.21-5.14,6.82-9.87,10.71-14.17-8.71,30.91-.65,61.86,22.48,76.31,25.7,16.11,61.64,6.63,86.27-20.85-2.49,8.9-6.42,17.77-11.71,26.27"/>
          </g>
          <path class="cls-16" d="M1744.77,2269.12c-1.61,2.59-3.33,5.07-5.16,7.42,12.75-33.48,5.41-68.75-19.74-84.5-27.75-17.35-67.39-4.94-91.87,27.68,2.33-6.2,5.34-12.26,9.03-18.17,23.8-38,67.25-53.71,97-35.07,29.73,18.7,34.56,64.59,10.74,102.63"/>
          <path class="cls-12" d="M1675.6,2328.59c-12.95,0-25.54-3.31-36.68-10.29-37.5-23.51-44.69-79.84-16.02-125.58h0c28.66-45.73,82.49-63.8,119.99-40.32,37.5,23.52,44.68,79.84,16.02,125.57-20.14,32.14-52.71,50.63-83.3,50.63ZM1651.14,2210.42c-18.91,30.17-16.44,65.88,5.48,79.63,21.92,13.72,55.13.37,74.04-29.79,18.91-30.15,16.44-65.87-5.48-79.62-21.92-13.72-55.13-.38-74.04,29.78h0Z"/>
          <path class="cls-12" d="M1466.26,2366.59c-2.93,0-5.89-.77-8.58-2.39-7.89-4.75-10.43-14.99-5.68-22.88l63.18-104.94c11.79-19.59,12.97-43.6,3.15-64.24-14.99-31.53-12.83-67.97,5.77-97.5l92.03-146.1c4.9-7.8,15.2-10.13,22.98-5.22,7.79,4.9,10.13,15.2,5.22,22.98l-92.03,146.1c-12.48,19.81-13.93,44.26-3.87,65.41,14.64,30.76,12.88,66.56-4.7,95.75l-63.18,104.94c-3.13,5.19-8.64,8.07-14.29,8.07Z"/>
          <path class="cls-16" d="M2451.25,2438.37s27.38,49.24,1.71,96.64c-29.68,54.79-82.89,59.68-82.89,59.68,0,0-183.15,21.05-473.66-167.69,0,0-30.89-122.94,91.23-133.6,0,0,249.55,200.67,463.61,144.97"/>
          <g class="cls-28">
            <path class="cls-12" d="M2453.52,2533.93h.01c-29.56,55.79-83.49,60.75-83.49,60.75,0,0-183.12,21.03-473.64-167.68,0,0-23.59-93.97,52.02-124.73-.14.36-.27.72-.4,1.08-13.47,37.05,1.92,78.62,35.63,99.05,267.86,162.41,434.76,143.25,434.76,143.25,0,0,15.9-1.44,35.11-11.73"/>
          </g>
          <path class="cls-12" d="M2351.36,2617.69c-56.8,0-225.81-15.33-467.06-172.07l-7.32-4.75-2.13-8.46c-.67-2.69-16.14-66.36,17.67-113.85,19.74-27.71,51.09-43.63,93.18-47.3l8.89-.78,6.96,5.59c2.41,1.93,243.49,192.93,444.1,140.8l16.66-4.33,8.36,15.04c1.36,2.45,32.95,60.56,1.82,118.02-34.95,64.5-97.74,70.98-100.4,71.22-1.31.15-8.36.88-20.74.88ZM1916.53,2413.53c275.92,176.78,449.27,159.29,451,159.08,2.03-.22,42.57-5.15,65.89-48.18,11.93-22.04,8.6-45.42,4.24-60.19-198.7,38.63-413.37-114.87-456.49-147.73-24.08,3.53-41.66,12.82-52.31,27.66-16.42,22.89-14.42,54.61-12.33,69.35Z"/>
          <path class="cls-11" d="M1256.79,1266.78c1.44,12.87,2.06,25.67,1.89,38.31-60.06,23.05-171.51,46.42-300.25,60.79-128.72,14.36-242.61,16.11-306.26,6.87-2.94-12.29-5.16-24.9-6.6-37.79-.07-.61-.13-1.19-.19-1.81-.61-5.68-1.04-11.33-1.33-16.97-.68-13.19-.5-26.26.48-39.12.04-.52.07-1.04.13-1.57,1.56-19.11,4.89-37.79,9.85-55.86,9.43-34.4,24.74-66.59,44.89-95.3,48.92-69.7,126.39-118.87,217.69-129.06,90.55-10.1,176.3,20.2,239.23,76.53,25.84,23.11,47.83,50.63,64.74,81.52,9.05,16.52,16.63,34.01,22.57,52.32.49,1.47.96,2.94,1.41,4.44,3.79,12.34,6.84,25.04,9.09,38.06.84,4.83,1.57,9.7,2.17,14.61.17,1.34.34,2.68.49,4.04"/>
          <path class="cls-22" d="M1233.92,1421.89c-4.97,11.57-10.62,22.8-16.95,33.62-8.85,15.22-19.01,29.63-30.31,43.09-49,58.38-119.66,98.74-201.39,107.87-81.91,9.13-159.9-14.79-220.62-61.13-13.33-10.18-25.83-21.45-37.35-33.67-9.04-9.58-17.47-19.76-25.24-30.46,77.59,5.22,169.95,3.02,268.35-7.96,98.39-10.97,188.97-29.17,263.51-51.37"/>
          <path class="cls-22" d="M1258.68,1305.08c-60.04,23.05-171.51,46.44-300.24,60.79-128.73,14.36-242.62,16.12-306.28,6.87-2.93-12.3-5.14-24.91-6.59-37.79-.07-.61-.12-1.19-.19-1.8-.59-5.69-1.04-11.33-1.31-16.97-.68-13.18-.5-26.25.47-39.14.04-.52.08-1.04.14-1.56,1.57-19.12,4.89-37.8,9.84-55.87,9.45-34.39,24.75-66.58,44.9-95.3,39.57-56.38,97.78-99.3,166.92-119.05-22.24,18.03-41.82,39.09-58.2,62.42-20.16,28.72-35.46,60.9-44.89,95.31-4.97,18.07-8.29,36.76-9.85,55.85-.04.54-.09,1.06-.13,1.58-.05.69-.09,1.54-.12,2.56-1.62,55.09,45.5,93.88,99.19,106.3,102.35,23.7,355.81-21.79,410.42-33.57.64,8.76-3.95.71-4.06,9.35"/>
          <path class="cls-15" d="M970.41,1473.26c98.39-10.98,188.97-29.17,263.51-51.37-4.97,11.57-10.62,22.8-16.95,33.62-57.94,18.85-146.48,36.61-246.52,47.77-95.82,10.69-182.7,13.15-243.16,8.39-9.04-9.58-17.47-19.76-25.25-30.46,77.6,5.22,169.95,3.02,268.36-7.96"/>
          <path class="cls-15" d="M1256.3,1262.75c.17,1.34.34,2.68.49,4.04,1.44,12.87,2.06,25.67,1.89,38.3-60.06,23.05-171.51,46.43-300.25,60.79-128.72,14.36-242.61,16.12-306.26,6.87-2.95-12.29-5.16-24.91-6.6-37.79-.07-.61-.13-1.2-.19-1.81,59.24,12.23,174.59,12.21,305.82-2.43,136.42-15.21,252.62-42.06,305.1-67.98"/>
          <path class="cls-15" d="M650.82,1229.3l7.41-19.36c39.19,15,154.21,15.69,279.7,1.69,149.71-16.7,252.4-45.97,276.46-66.25l13.36,15.85c-31.85,26.83-147.39,55.37-287.52,71-130.48,14.55-246.78,13.38-289.4-2.93"/>
          <path class="cls-15" d="M697.69,1134.55l3.43-20.45c47,7.88,133.4,6.41,225.49-3.87,96.5-10.76,182.92-29.12,225.53-47.92l8.37,18.97c-44.41,19.58-133.15,38.57-231.6,49.55-93.87,10.47-182.46,11.9-231.22,3.72"/>
          <path class="cls-15" d="M641.42,1285.33l6.49-19.68c45.68,15.06,164.67,15.33,296.1.67,137.87-15.38,258.57-43.79,293.54-69.08l12.15,16.79c-38.17,27.61-160.09,56.9-303.38,72.89-136.22,15.2-255.91,14.57-304.9-1.58"/>
          <path class="cls-15" d="M763.41,1550.37l1.24-5.02-.88-5.12,1.07-.18,1.06.25c40.49,9.98,123.82,10.06,212.31.19,88.98-9.93,167.98-27.76,206.18-46.55l4.57,9.3c-39.21,19.27-119.52,37.5-209.6,47.54-90.98,10.15-173.72,9.99-215.94-.42"/>
          <path class="cls-12" d="M951.35,1625.83c-103.36,0-201.93-49.54-263.44-134.35l-21.91-30.21,37.23,2.51c79.4,5.34,171.11,2.62,265.24-7.9,94.16-10.5,184.23-28.05,260.45-50.75l35.76-10.65-14.71,34.29c-46.07,107.37-146.75,182.12-262.77,195.06-11.98,1.34-23.95,1.99-35.86,1.99ZM740.94,1500.66c62.03,65.11,151.74,98.54,242.4,88.44,90.64-10.11,170.8-62.5,216.95-139.68-69.21,18.08-147.15,32.2-227.93,41.21-80.76,9.02-159.91,12.42-231.41,10.03Z"/>
          <path class="cls-22" d="M643.66,1301.97l-1.47-3.91c.46-.19.97-.36,1.48-.52v4.43Z"/>
          <g class="cls-29">
            <path class="cls-16" d="M1258.43,1306.11c-6.99,2.68-14.66,5.37-23,8.05-.23-8.58-.83-17.23-1.79-25.9-.16-1.36-.33-2.69-.49-4.03-.59-4.92-1.32-9.79-2.16-14.62-2.25-13.02-5.31-25.73-9.09-38.07-.46-1.48-.94-2.95-1.42-4.43-5.93-18.31-13.52-35.82-22.58-52.34-16.91-30.88-38.89-58.4-64.73-81.5-62.94-56.33-148.68-86.64-239.23-76.54-60.45,6.74-114.84,30.58-158.9,66.17,47.45-46.84,110.39-78.65,181.81-86.63,90.54-10.09,176.29,20.21,239.22,76.53,25.84,23.12,47.84,50.62,64.74,81.53,9.04,16.51,16.63,34,22.57,52.31.5,1.48.96,2.96,1.41,4.44,3.8,12.35,6.84,25.03,9.09,38.05.84,4.84,1.56,9.72,2.17,14.62.18,1.34.35,2.68.48,4.04,1.43,12.87,2.06,25.67,1.89,38.3"/>
          </g>
          <path class="cls-12" d="M752.84,1395.98c-40.58,0-75.79-1.96-103.18-5.94l-11.72-1.7-2.76-11.52c-3.12-13.05-5.47-26.48-6.97-39.92-.74-6.58-1.28-13.26-1.6-19.85-.71-13.73-.54-27.65.51-41.33,11.89-155.29,133.03-280.54,288.04-297.83,155.06-17.27,300.78,78.19,346.59,227.04,4.05,13.19,7.28,26.72,9.61,40.23,1.12,6.45,2.07,13.08,2.81,19.68h0c1.5,13.43,2.17,27.05,2,40.47l-.15,11.85-11.07,4.25c-64.09,24.6-177.96,47.71-304.58,61.84-75.58,8.43-147.43,12.73-207.53,12.73ZM666.63,1356.98c65.98,7.44,175.13,4.33,289.87-8.47,114.75-12.8,221.91-33.82,284.62-55.61-.23-8.06-.8-16.15-1.69-24.17h0c-.66-5.89-1.5-11.81-2.51-17.59-2.08-12.09-4.97-24.16-8.58-35.93-40.87-132.8-170.96-217.97-309.3-202.57-138.34,15.43-246.45,127.2-257.06,265.76-.93,12.2-1.09,24.61-.46,36.89.29,5.9.77,11.85,1.43,17.73.9,8.03,2.13,16.05,3.68,23.96Z"/>
          <path class="cls-16" d="M951.36,1962.22s-128.27-71.15-209.9-302.61c-56.66-160.67-21.01-295.48,24.46-345.76,67.45-74.58,206.07-55.95,256.49,2.62,48.06,55.83,59.8,132.6,64.9,171.97,6.74,52.1-21.31,137.93-60.19,203.1"/>
          <path class="cls-12" d="M940.58,1981.66c-2.58-1.47-4.03-2.45-5.94-3.64-1.85-1.16-3.43-2.31-5.15-3.46-3.44-2.28-6.57-4.69-9.79-7.07-3.27-2.34-6.26-4.87-9.34-7.34-3.07-2.47-6.16-4.94-9.04-7.56-5.92-5.13-11.75-10.34-17.25-15.81-2.78-2.71-5.64-5.36-8.35-8.13l-7.98-8.43c-21.13-22.58-40.28-46.72-57.47-72.07-34.31-50.76-61.24-105.78-82.65-162.46-22.13-56.66-36.16-118.18-37.25-180.25-.63-31.05,1.75-62.33,8.13-93.16,1.69-7.7,3.21-15.42,5.58-23.02l3.27-11.44c1.25-3.78,2.66-7.54,3.99-11.31,5.27-15.09,12.29-29.82,20.87-44.11l6.93-10.58c2.57-3.45,5.41-6.83,8.13-10.22,5.55-6.71,11.88-12.58,18.43-18.18,13.33-10.93,28.27-19.55,43.85-25.93,31.31-12.54,64.67-16.53,97.07-14.1,16.23,1.22,32.33,3.95,48.06,8.49,15.73,4.52,31.16,10.59,45.81,19,14.56,8.22,28.81,19.18,40.19,32.84,10.76,12.46,19.72,26.15,27.58,40.23,15.64,28.28,25.99,58.47,33.16,88.81,3.52,15.18,6.1,30.51,8.21,45.6.51,3.76,1.06,7.31,1.41,11.98l.56,6.6c.12,2.17.08,4.27.12,6.42.09,4.3-.05,8.52-.41,12.62-.24,4.16-.56,8.28-1.14,12.28-3.98,32.32-13.39,62.11-25.47,90.54-12.45,28.22-28.05,54.99-48.04,78.44-4.04,4.73-11.15,5.3-15.88,1.26-3.68-3.13-4.84-8.12-3.29-12.41l.08-.24,14.89-40.85c4.75-13.57,9.23-27.12,13.47-40.66,8.21-27.05,15.48-54.51,17.97-81.08.42-3.33.57-6.58.68-9.81l.21-4.86-.09-4.69c-.03-1.56.03-3.16-.04-4.68l-.38-4.45c-.13-2.71-.66-6.48-1.13-10.04-1.89-14.22-4.28-28.08-7.24-41.76-5.84-27.28-14.22-53.85-27.12-77.48-6.41-11.79-13.6-23.08-22.09-33.1-7.53-9.13-17.08-16.59-28.22-22.91-22.14-12.6-48.68-19.81-75.13-21.76-26.5-2.04-53.39,1.44-77.06,10.95-11.78,4.84-22.7,11.21-32.27,19.02-4.66,4.02-9.26,8.21-13.08,12.93-1.87,2.41-3.84,4.67-5.7,7.12l-5.2,7.99c-13.49,22.06-22.34,48.63-28.02,75.56-5.61,27.1-7.79,55.17-7.21,83.23.69,28.05,3.63,56.24,9.81,83.85,6.09,27.72,13.78,54.69,24.58,81.6,20.37,53.92,45.87,105.87,77.84,153.18,16.01,23.62,33.75,45.93,53.03,66.54l7.28,7.68c2.46,2.52,5.03,4.89,7.54,7.34,4.98,4.97,10.2,9.61,15.45,14.17,2.58,2.36,5.28,4.51,7.97,6.67,2.69,2.16,5.34,4.41,8.09,6.37,2.73,2.01,5.46,4.13,8.18,5.92,1.36.9,2.77,1.94,4.06,2.73l3.49,2.18,1.13.71c10.41,6.48,13.58,20.18,7.1,30.59-6.31,10.13-19.5,13.38-29.8,7.57"/>
          <path class="cls-21" d="M1435.01,1290.74c4.99,44.77-75.2,93.66-201.09,131.15-74.54,22.2-165.11,40.4-263.51,51.37-98.4,10.98-190.76,13.18-268.36,7.96-131.06-8.83-220.04-38.85-225.04-83.62-4.53-40.66,61.16-84.7,167.52-120.54-.98,12.87-1.16,25.93-.48,39.12-29.98,11.7-46.64,23.28-45.5,33.56,1.17,10.47,20.67,18.2,53.61,23,63.65,9.24,177.54,7.48,306.26-6.87,128.74-14.36,240.19-37.74,300.25-60.79,31.06-11.93,48.37-23.77,47.21-34.25-1.14-10.27-19.95-17.91-51.76-22.71-2.24-13.02-5.3-25.72-9.09-38.06,111.64,11.52,185.44,40.01,189.97,80.66"/>
          <path class="cls-24" d="M643.82,1310.86c.08,1.77.14,3.56.24,5.34-29.99,11.68-46.66,23.25-45.5,33.53,1.17,10.49,20.68,18.23,53.61,23.01,42.22,6.13,106.57,7.43,182.69,3.41-3.02,5.54-4.86,11.1-5.44,16.58-29.27,1.21-57.37,1.54-83.74,1.02-114.68-2.27-168.83-20.59-170.62-36.66-1.06-9.38,16.53-26.39,68.76-46.25"/>
          <path class="cls-22" d="M640.73,1294.12l1.46,3.94c-26.62,9.47-47.85,18.8-64.41,27.68,13.64-10.56,34.58-21.05,62.95-31.62"/>
          <path class="cls-24" d="M577.78,1325.74c-14.28,10.96-20.64,21.98-19.39,33.23,1.23,10.96,9.73,19.67,23.19,26.58,35.1,18.06,103.83,23.8,163.75,24.98,27.12.54,56.03.16,86.14-1.08,3.02,8.19,8.99,15.79,17.67,22.82-44.57,2.08-87.2,2.23-126.49.46-140.11-6.35-192.67-34.34-195.14-56.37-1.36-12.23,12.37-30.3,50.29-50.63"/>
          <path class="cls-24" d="M964.36,1473.93c-96.14,10.42-186.29,12.41-262.31,7.29-131.05-8.82-220.05-38.85-225.04-83.64-4.53-40.64,61.19-84.67,167.55-120.52-.29,3.83-.49,7.67-.64,11.53l-2.77-7.97c-62,21.61-134.95,56.07-130.29,97.59,1.79,16.07,14.45,28.59,33.41,38.34,44.65,22.93,124.1,30.51,177.62,32.94,46.97,2.13,98.6,1.52,152.49-1.75,22.72,10.83,53.27,19.65,89.99,26.18"/>
          <path class="cls-23" d="M831.47,1409.46c-30.11,1.24-59.02,1.62-86.14,1.07-59.91-1.18-128.65-6.92-163.75-24.98-13.45-6.92-21.96-15.62-23.18-26.58-1.25-11.25,5.11-22.27,19.39-33.23,16.56-8.89,37.79-18.22,64.41-27.69l1.47,3.91c.02,2.97.08,5.92.16,8.89-52.23,19.86-69.82,36.87-68.76,46.25,1.79,16.07,55.94,34.39,170.62,36.66,26.37.52,54.47.18,83.74-1.02-.32,2.72-.33,5.42-.03,8.1.33,2.93,1.02,5.81,2.07,8.62"/>
          <path class="cls-17" d="M642.19,1298.06c-26.62,9.47-47.84,18.8-64.41,27.68,13.64-10.56,34.58-21.05,62.95-31.62l1.46,3.94Z"/>
          <path class="cls-17" d="M643.66,1301.97l2.93,7.85c-.93.34-1.87.68-2.77,1.04-.08-2.97-.14-5.93-.16-8.89"/>
          <path class="cls-17" d="M1176.14,1362.49c-62.98,15.51-136.96,28.29-213.99,36.87-44.78,4.99-88.89,8.39-130.69,10.1-1.06-2.81-1.74-5.69-2.07-8.62-.3-2.68-.29-5.37.03-8.1,41.8-1.63,85.99-5.02,130.88-10.02,76.31-8.53,149.56-21.16,211.8-36.53,111.36-27.49,160.14-57.3,158.36-73.33-1.08-9.59-22.69-22.57-80.2-30.34l1.69-12.5.56-4.14c30.14,4.07,52.93,9.71,68.6,17.01,16.18,7.57,24.75,16.91,26.02,28.1,4.42,39.63-90.55,71.64-170.99,91.52"/>
          <path class="cls-23" d="M874.36,1447.75c-53.89,3.27-105.52,3.88-152.49,1.74-53.52-2.42-132.98-10-177.63-32.93-18.97-9.75-31.62-22.27-33.41-38.34-4.66-41.52,68.29-75.99,130.3-97.59l2.77,7.97c-.13,2.99-.22,5.97-.23,8.94-.51.17-1.03.33-1.48.52l-1.46-3.94c-28.37,10.58-49.31,21.07-62.95,31.62-37.92,20.32-51.65,38.4-50.29,50.62,2.47,22.03,55.04,50.02,195.14,56.37,39.3,1.78,81.93,1.62,126.49-.46,6.79,5.52,15.23,10.69,25.23,15.47"/>
          <path class="cls-24" d="M640.73,1294.12l1.46,3.94c-26.62,9.47-47.85,18.8-64.41,27.68,13.64-10.56,34.58-21.05,62.95-31.62"/>
          <path class="cls-17" d="M643.9,1288.59l2.74,7.88c-1.01.37-2.01.71-2.98,1.06.02-2.98.11-5.96.23-8.95"/>
          <path class="cls-17" d="M1207.59,1395.32c-70.73,19.41-154.04,34.79-240.93,44.47-31.2,3.5-62.1,6.14-92.3,7.96-9.99-4.78-18.44-9.95-25.23-15.47,37.49-1.72,76.36-4.79,115.7-9.17,86.01-9.58,168.41-24.8,238.33-43.97,135.28-37.07,180.38-75.98,177.94-97.99-1.38-12.21-18.68-26.79-59.98-38.27-18.18-5.04-40.99-9.48-69.15-12.86-1.56-.17-3.13-.36-4.71-.55l1.89-16.67c65.23,7.4,143.98,24.97,148.61,66.48,6.03,53.96-116.54,95.86-190.17,116.05"/>
          <path class="cls-12" d="M786.23,1501.4c-29.6,0-58.16-.91-85.35-2.74-86.61-5.83-233.13-26.47-241.23-99.12-6.99-62.63,93.66-110.18,179.31-139.04l25.02-8.43-2.01,26.33c-.93,12.2-1.09,24.61-.46,36.89l.65,12.6-11.75,4.58c-16.52,6.44-25.4,11.52-30.1,14.85,5.48,2.29,15.74,5.42,34.38,8.13,64.17,9.32,179.82,6.66,301.8-6.95,121.97-13.61,235.36-36.49,295.93-59.73,17.57-6.75,26.88-12.06,31.73-15.5-5.31-2.22-15.1-5.22-32.63-7.86l-12.47-1.88-2.14-12.43c-2.08-12.05-4.96-24.13-8.57-35.9l-7.74-25.23,26.25,2.71c89.91,9.28,198.56,33.49,205.55,96.11h0c8.1,72.65-130.27,125.06-213.47,149.84-78.14,23.28-170.32,41.26-266.56,51.99-64.07,7.15-127.12,10.77-186.12,10.77ZM626.18,1302.1c-94.1,35.02-134.25,71.57-131.79,93.56,3.02,27.11,68.77,58.69,208.84,68.12,79.35,5.34,171.07,2.62,265.25-7.89,94.21-10.51,184.27-28.06,260.46-50.75,134.55-40.07,191.73-85.36,188.71-112.47-2.45-21.99-49.66-48.79-149.18-62.22.18.82.36,1.65.54,2.47,26,4.97,51.83,14.17,54.26,35.98,2.85,25.59-29.66,41.5-58.31,52.5-64.11,24.6-177.97,47.71-304.58,61.84-126.63,14.12-242.78,16.67-310.71,6.8-30.38-4.43-65.6-12.78-68.47-38.35-2.42-21.82,20.75-36.49,45.01-47.07,0-.84-.02-1.68-.02-2.53Z"/>
          <path class="cls-9" d="M2492.18,2671.84c-60.04-109.79-51.64-485.13,229.1-531.11l68.61,342.62-297.71,188.49Z"/>
          <g class="cls-34">
            <path class="cls-16" d="M2492.2,2671.84c-60.03-109.78-51.67-485.11,229.07-531.12l10.33,51.58c-239.41,65.26-239.39,479.54-239.39,479.54"/>
          </g>
          <path class="cls-12" d="M2482.44,2677.17c-15.51-25.55-23.58-53.4-29.66-81.21-5.81-27.95-8.71-56.3-9.42-84.71-1.16-56.79,6.22-114.09,24.26-169.01,9.07-27.4,20.71-54.25,35.86-79.42,15.02-25.2,33.42-48.81,55.22-69.21,21.65-20.55,47.03-37.34,74.09-49.84,27.16-12.35,55.87-20.7,84.91-24.97,12.14-1.78,23.43,6.61,25.22,18.76,1.73,11.77-6.11,22.74-17.65,25.03l-.39.08c-50.17,9.86-96.95,31.36-133.53,65.9-36.65,34.37-63.34,79.51-81,128.4-17.6,49-27.09,101.64-29.32,154.58-1.13,26.48-.38,53.11,2.63,79.36,1.31,13.19,3.63,26.12,6.38,38.94,3.16,12.62,6.82,25.12,11.9,36.67l.18.42c2.47,5.62-.08,12.18-5.69,14.66-5.17,2.27-11.13.29-13.98-4.41"/>
          <path class="cls-10" d="M1618.49,2982.82c6.32-5.34,217.15-383.65,619.41-184.76l-619.41,184.76Z"/>
          <g class="cls-34">
            <path class="cls-16" d="M2237.89,2798.07l-14.5,4.31c-289.01-70.43-443.99,61.51-594.27,183.91l-10.61-3.45c6.28-5.33,217.16-383.7,619.38-184.76"/>
          </g>
          <path class="cls-12" d="M1611.32,2974.33c-.27.06-.52.17-.7.33-.05,0-.28.34-.14.1l.33-.58,1.31-2.32,2.77-4.89,5.72-9.88c3.92-6.57,8.05-13,12.22-19.43,8.34-12.86,17.56-25.11,26.89-37.32,19.13-24.02,40.06-46.84,63.21-67.46,45.94-41.5,100.62-74.86,160.66-94.55,30.01-9.85,61.33-15.41,92.7-18.15,7.87-.49,15.75-.85,23.61-1.17,7.87.07,15.73.39,23.59.59,7.87.02,15.67.88,23.46,1.72,7.78.91,15.63,1.34,23.3,2.88,61.72,10.17,120.3,32.67,172.59,63.89,5.28,3.16,7.01,10,3.85,15.28-2.83,4.76-8.66,6.63-13.65,4.66l-.04-.02c-54.93-21.62-111.14-37.65-167.99-43.92-28.42-2.39-56.9-3.63-85.03-.46-28.16,2.62-55.82,8.58-82.86,16.77-53.89,17.25-103.97,46.11-148.96,82.1-22.4,18.13-43.76,37.85-63.75,59.05-9.98,10.62-19.62,21.58-29.05,32.78-4.68,5.63-9.27,11.33-13.83,17.1l-6.82,8.7-3.42,4.46-1.8,2.34-1.42,1.81c-.76.91-1.57,1.77-2.4,2.56-4.69,3.96-11.69,3.37-15.66-1.32-3.97-4.68-3.38-11.7,1.31-15.66"/>
          <path class="cls-16" d="M3567.84,2476.08c-6.48,67.31-33.91,116.35-56.48,142.52-35.02,40.7-101.98,71.82-191.77,40.39-44.54-15.64-96.62-66.3-158.66-127.85-130.43-129.42-304.68-306.91-544.03-307.41-30.52-.1-62.05,2.73-94.69,8.86l57.6-175.06,70.5-214.24s37.2.46,96.21,6.07c44.29,4.21,100.87,11.34,163.27,23.28,165.8,31.78,372.65,97.83,498.98,235.14,137.26,149.15,167.98,275.93,159.07,368.3"/>
          <g class="cls-28">
            <path class="cls-12" d="M3567.84,2476.08c-6.48,67.31-33.91,116.35-56.48,142.52-35.02,40.7-101.98,71.82-191.77,40.39-44.54-15.64-96.62-66.3-158.66-127.85,26.62-41.65,53.09-82.9,53.09-82.9,0,0,21.56,70.05,148.7,130.38,86.29,40.94,166.61-19.03,205.13-102.54"/>
          </g>
          <path class="cls-12" d="M2650.6,1821.07c27.65.48,54.06,2.1,80.94,4.18,26.76,2.12,53.44,4.86,80.06,8.19,53.22,6.75,106.17,15.94,158.66,27.7,52.49,11.73,104.44,26.5,155.43,44.56,50.97,18.08,100.99,39.8,148.5,66.9l17.78,10.21,17.37,11.02c11.71,7.12,22.8,15.3,34.02,23.23,5.69,3.87,11.07,8.19,16.45,12.51l16.2,12.89c5.27,4.48,10.36,9.19,15.53,13.78,5.08,4.71,10.5,9.03,15.24,14.13,9.63,9.93,19.86,19.68,28.58,29.95l13.55,15.23,13.06,15.73c8.87,10.33,16.86,21.48,25.28,32.23,7.86,11.23,16.11,22.15,23.41,33.83,7.68,11.38,14.6,23.33,21.62,35.2,6.59,12.16,13.25,24.28,19.06,36.92,11.85,25.12,21.87,51.31,29.22,78.48,7.36,27.15,12.01,55.26,13.28,83.74,1.43,28.47-1.22,57.27-7.21,85.4-6.36,28.07-16.24,55.5-30.73,80.91-7.24,12.71-15.51,24.93-25.4,36.53-10.15,11.76-21.86,22.02-34.63,30.59-12.77,8.58-26.62,15.46-41.04,20.61-14.45,5.13-29.5,8.08-44.54,9.67-15.1,1.56-30.12.87-44.91-.63-14.66-2.06-29.17-4.92-42.99-9.4l-10.38-3.28c-3.59-1.39-7.25-3.01-10.85-4.53-7.53-2.88-13.61-6.87-20.26-10.45-6.51-3.68-12.17-7.92-18.28-11.87-5.83-4.13-11.28-8.48-16.93-12.72-21.82-17.39-41.56-35.91-60.94-54.51-38.54-37.32-75.19-75.17-113.13-111.44-37.93-36.14-76.85-70.85-118.07-102.14-41.31-31.07-84.9-58.73-131.06-80.53-46.15-21.77-95.13-36.43-145.12-43.86-50-8.05-100.87-8.91-153.15-6.54h-.06c-6.18.28-11.43-4.5-11.71-10.7-.23-5.12,3.02-9.59,7.65-11.14,51.81-17.31,108.18-21.45,163.12-15.1,54.96,6.9,108.45,23.38,158.28,46.34,49.81,23.18,96.24,52.36,139.73,84.7,43.36,32.54,83.8,68.24,122.74,104.93,38.84,36.74,76.12,74.78,113.88,110.93,18.92,17.97,37.99,35.59,57.69,51.1,4.97,3.67,9.89,7.57,14.88,11.07,5.04,3.17,10.02,6.9,15.07,9.67,5.04,2.61,10.09,5.96,15.05,7.66l7.47,3.14,8.57,2.64c11.4,3.66,23,5.78,34.54,7.4,11.54,1.04,23.1,1.56,34.38.29,11.25-1.28,22.35-3.48,32.86-7.29,10.48-3.83,20.48-8.88,29.66-15.12,9.18-6.22,17.53-13.63,24.63-21.96,7.24-8.61,13.87-18.41,19.66-28.75,11.73-20.66,20.1-43.54,25.45-67.09,10.48-47.32,7.61-97.47-5.41-145.31-6.47-23.97-15.4-47.44-26.11-70.22-5.24-11.45-11.33-22.53-17.34-33.67-6.47-10.92-12.79-21.92-19.93-32.49-6.73-10.8-14.48-21.02-21.76-31.51-7.92-10.08-15.33-20.52-23.73-30.28l-12.29-14.86-12.84-14.45c-8.43-9.94-17.47-18.42-26.23-27.54-4.26-4.63-9.26-8.57-13.88-12.87-4.73-4.19-9.35-8.49-14.16-12.6l-14.89-11.85c-4.94-3.97-9.86-7.96-15.15-11.54-10.39-7.35-20.61-14.93-31.55-21.58l-16.16-10.28-16.66-9.57c-22.18-12.83-45.32-24.15-68.65-35.09-11.84-5.12-23.62-10.39-35.6-15.25-12.09-4.63-23.97-9.71-36.25-13.9-48.73-17.64-98.75-32.27-149.55-43.99-50.8-11.75-102.27-21.06-154.08-28-25.9-3.5-51.87-6.54-77.89-8.91-25.89-2.33-52.35-4.23-77.66-4.99l-.47-.02c-12.27-.36-21.92-10.61-21.55-22.87.36-12.17,10.46-21.76,22.6-21.56"/>
          <g class="cls-28">
            <path class="cls-12" d="M2909.79,1872.63c-64.13,58.66-135.43,105.48-210.95,140.45-38.72,17.92-78.5,32.75-119.04,44.44-151.93,43.98-314.25,44.39-466.84,1.42-15.38-4.41-30.72-9.16-45.95-14.37-41.7-14.38-82.5-32.09-121.97-53.19-23.79-12.71-47.12-26.62-69.85-41.76-8.55-5.67-16.95-11.49-25.3-17.51-35.59-25.51-69.59-54.1-101.63-85.78-10.53-10.58-20.85-21.31-30.72-32.19-6.83-7.54-13.51-15.13-20.04-22.87-12.81-15.14-25.01-30.62-36.6-46.47-12.3-16.85-23.89-34.01-34.77-51.52,134.78-9.46,234.58-40.65,234.58-40.65l6.78,139.13,892.54,2.88c-4.41,18.58-8.91,36.8-13.52,54.71,44.29,4.2,100.87,11.34,163.27,23.28"/>
          </g>
          <path class="cls-16" d="M1490.23,1220.05c16.17,137.22,67.13,271.22,152.83,388.35,17.49,23.88,36.33,47.02,56.64,69.34,9.85,10.88,20.15,21.58,30.72,32.15,32.04,31.71,66,60.31,101.59,85.83,30.61,22.07,62.46,41.8,95.16,59.25,39.46,21.1,80.3,38.8,122.01,53.19,15.23,5.19,30.55,9.98,45.95,14.36,282.19,79.46,597.58,10.56,819.23-207.47,326.59-321.1,325.95-844.03-1.27-1167.98-63.07-62.35-133.65-112.93-208.89-151.36-8.75-4.57-17.67-8.91-26.66-13.07-23.98-11.26-48.37-21.33-73.09-30.21-57.17-20.5-116.14-34.64-175.68-42.46-59.52-7.88-119.76-9.42-179.44-4.64-18.98,1.51-37.9,3.64-56.8,6.45-28.31,4.22-56.4,9.79-84.29,16.93-138.93,35.17-270.32,106.22-379.1,213.2-187.88,184.71-267.43,436.16-238.92,678.14"/>
          <path class="cls-12" d="M2325.55,1956.59c-77.08,0-154.8-10.46-231.03-31.92-15.52-4.43-31.02-9.27-46.07-14.4-42.29-14.59-83.45-32.54-122.34-53.33-33.26-17.75-65.36-37.74-95.41-59.41-35.92-25.75-70.19-54.71-101.85-86.05-11.54-11.54-21.61-22.08-30.81-32.24-19.95-21.92-39.05-45.31-56.78-69.52-83.71-114.42-136.71-249.07-153.25-389.41-29.82-253.14,57.49-500.99,239.57-680,105.29-103.56,236.73-177.48,380.12-213.78,27.16-6.96,55.59-12.67,84.51-16.98,18.54-2.76,37.7-4.93,56.95-6.47,59.83-4.79,120.36-3.23,179.91,4.66,60.12,7.9,119.38,22.22,176.14,42.57,24.74,8.89,49.4,19.08,73.28,30.29,9.63,4.45,18.39,8.74,26.75,13.11,76.77,39.21,147.24,90.27,209.42,151.75,159.33,157.74,246.86,366.91,246.48,588.99-.38,220.32-87.46,427.08-245.21,582.18-158.36,155.77-371.71,239.95-590.38,239.95ZM1492.45,1219.78c16.45,139.58,69.15,273.5,152.41,387.29,17.64,24.08,36.64,47.35,56.48,69.16,9.15,10.11,19.17,20.6,30.65,32.08,31.49,31.17,65.58,59.97,101.31,85.59,29.9,21.55,61.83,41.43,94.91,59.09,38.69,20.68,79.63,38.53,121.68,53.04,14.97,5.11,30.39,9.93,45.84,14.33,290.94,81.92,604,2.64,817.05-206.91,156.89-154.25,243.5-359.88,243.88-579,.38-220.88-86.68-428.92-245.15-585.8-61.86-61.15-131.95-111.94-208.33-150.96-8.31-4.35-17-8.6-26.58-13.03-23.77-11.16-48.3-21.29-72.91-30.13-56.46-20.24-115.41-34.49-175.21-42.35-59.24-7.84-119.45-9.4-178.97-4.63-19.15,1.52-38.2,3.69-56.65,6.43-28.76,4.28-57.04,9.96-84.06,16.89-142.62,36.1-273.36,109.63-378.08,212.63-181.08,178.03-267.93,424.53-238.26,676.28Z"/>
          <g class="cls-28">
            <path class="cls-12" d="M2914.36,1715.03c-221.64,218.06-537.08,286.97-819.24,207.46-15.42-4.36-30.72-9.13-45.93-14.34-41.72-14.37-82.54-32.1-122.02-53.16-32.68-17.48-64.56-37.2-95.15-59.24-35.61-25.51-69.55-54.11-101.62-85.83-10.53-10.61-20.84-21.27-30.72-32.15-20.3-22.33-39.1-45.51-56.6-69.37-85.7-117.13-136.7-251.11-152.85-388.37-8.89-75.38-7.29-151.73,4.82-226.68,18.45,130.62,68.62,257.68,150.37,369.45,17.45,23.91,36.31,47.04,56.61,69.37,9.83,10.87,20.14,21.53,30.72,32.14,32.07,31.72,66.01,60.32,101.57,85.83,30.64,22.05,62.47,41.76,95.15,59.24,39.47,21.07,80.34,38.79,122.01,53.17,15.26,5.2,30.56,9.98,45.98,14.34,282.16,79.5,597.55,10.59,819.24-207.47,129.36-127.17,207.32-286.01,234.03-451.57,35.15,247.8-43.6,507.67-236.38,697.18"/>
          </g>
          <path class="cls-12" d="M2325.53,1971.58c-78.44,0-157.5-10.63-235.08-32.47-15.81-4.51-31.55-9.43-46.84-14.65-43.09-14.87-84.98-33.13-124.57-54.3-33.84-18.06-66.52-38.4-97.11-60.47-36.53-26.19-71.41-55.66-103.63-87.55-11.77-11.77-22.01-22.49-31.38-32.84-20.28-22.28-39.72-46.09-57.76-70.72-85.24-116.5-139.2-253.61-156.04-396.51h0c-30.37-257.77,58.54-510.16,243.94-692.44,107.18-105.42,240.99-180.67,386.95-217.62,27.62-7.08,56.56-12.89,85.98-17.27,18.88-2.81,38.38-5.02,57.97-6.58,60.88-4.88,122.47-3.28,183.07,4.74,61.16,8.04,121.47,22.61,179.23,43.32,25.19,9.05,50.28,19.42,74.6,30.83,9.77,4.51,18.74,8.91,27.32,13.4,78.02,39.85,149.74,91.81,213.02,154.38,162.21,160.59,251.32,373.55,250.93,599.68-.39,224.37-89.06,434.91-249.69,592.84-161.19,158.55-378.36,244.24-600.9,244.24ZM1507.34,1218.03c16.15,137.01,67.89,268.48,149.63,380.2,17.32,23.65,35.98,46.5,55.47,67.92,9.01,9.95,18.86,20.27,30.16,31.57,30.88,30.56,64.36,58.85,99.45,84.01,29.39,21.19,60.74,40.71,93.23,58.05,38,20.32,78.21,37.85,119.51,52.1,14.68,5.01,29.86,9.75,45.06,14.08,285.72,80.44,593.21,2.61,802.43-203.18,154.01-151.42,239.03-353.26,239.4-568.33.37-216.83-85.11-421.08-240.71-575.13-60.75-60.06-129.59-109.95-204.61-148.26-8.22-4.3-16.7-8.45-26.05-12.77-23.44-11-47.52-20.95-71.69-29.64-55.44-19.88-113.35-33.88-172.1-41.6-58.2-7.7-117.34-9.23-175.82-4.55-18.81,1.49-37.53,3.62-55.64,6.32-28.25,4.21-56.03,9.79-82.55,16.58-140.09,35.46-268.46,107.66-371.29,208.8-177.75,174.75-262.99,416.74-233.89,663.84h0Z"/>
          <path class="cls-12" d="M2325.52,1976.58c-78.88,0-158.42-10.7-236.42-32.67-15.91-4.54-31.73-9.48-47.11-14.73-43.35-14.96-85.49-33.33-125.31-54.62-34.03-18.17-66.9-38.63-97.68-60.82-36.73-26.34-71.81-55.97-104.23-88.06-11.85-11.85-22.15-22.63-31.57-33.03-20.38-22.4-39.94-46.35-58.09-71.12-85.75-117.2-140.03-255.13-156.97-398.88h0c-30.56-259.32,58.89-513.21,245.41-696.59,107.81-106.04,242.41-181.74,389.22-218.9,27.76-7.11,56.88-12.96,86.47-17.37,18.99-2.83,38.61-5.05,58.31-6.62,61.23-4.91,123.18-3.31,184.12,4.76,61.51,8.08,122.17,22.75,180.26,43.57,25.34,9.1,50.58,19.53,75.03,31.01,9.82,4.53,18.86,8.97,27.52,13.49,78.43,40.06,150.57,92.33,214.22,155.25,163.17,161.54,252.81,375.77,252.42,603.24-.39,225.71-89.6,437.52-251.19,596.4-162.15,159.49-380.56,245.68-604.41,245.68ZM1512.3,1217.45c16.05,136.16,67.46,266.81,148.69,377.83,17.21,23.5,35.76,46.22,55.13,67.51,8.96,9.9,18.76,20.15,30,31.39,30.67,30.36,63.95,58.47,98.83,83.48,29.22,21.06,60.38,40.47,92.68,57.7,37.77,20.2,77.73,37.62,118.79,51.79,14.58,4.97,29.68,9.69,44.8,14,283.99,79.96,589.61,2.6,797.55-201.94,153.05-150.48,237.54-351.05,237.91-564.78.37-215.48-84.59-418.47-239.23-571.56-60.39-59.7-128.81-109.29-203.36-147.37-8.19-4.28-16.59-8.4-25.87-12.68-23.32-10.94-47.26-20.84-71.28-29.47-55.11-19.76-112.66-33.67-171.06-41.34-57.86-7.66-116.66-9.18-174.77-4.53-18.7,1.49-37.3,3.6-55.3,6.28-28.09,4.18-55.69,9.72-82.04,16.48-139.24,35.25-266.83,107-369.03,207.52-176.64,173.66-261.35,414.13-232.43,659.69h0Z"/>
          <g>
            <path class="cls-12" d="M1542.13,1425.68c328.05,495.44,1038.24,520.01,1290.68-7.54,171.74-358.92-52.81-803.88-413.71-946.44-262.67-103.77-564.49-91.95-836.91,265.32,0,0-95.73,176.67-94.85,320.15.88,143.48,26.28,283.01,26.28,283.01l28.52,85.5Z"/>
            <g class="cls-36">
              <path class="cls-4" d="M2477,936.33l-185.51,360.88c-10.77,20.94-31.29,34.85-53.84,36.48l-382.27,27.61c-22.32,1.61-43.26-9.05-55.08-28.04l-52.65-84.62c-7.62-12.24-8.08-28.07-1.21-41.44l46.39-90.25c5.69-11.07,20.56-12.22,26.87-2.08l49.92,80.23c11.82,18.99,32.76,29.65,55.08,28.04l231.9-16.76c22.54-1.63,43.07-15.54,53.84-36.48l112.68-219.2c10.76-20.93,10.13-45.7-1.65-64.98l-122.98-201.29c-11.76-19.25-32.87-30.1-55.37-28.47l-235.31,17.12c-22.53,1.64-43.05,15.55-53.81,36.48l-260.56,506.88c-5.69,11.07-20.56,12.22-26.87,2.08l-53.73-86.36c-7.62-12.24-8.08-28.07-1.21-41.43l264.54-514.63c10.76-20.93,31.27-34.84,53.81-36.48l387.43-28.18c22.5-1.64,43.6,9.21,55.37,28.46l202.56,331.46c11.78,19.28,12.41,44.05,1.65,64.99Z"/>
              <path class="cls-7" d="M2176.58,947.43l-54.5,106.03c-5.95,11.58-17.3,19.26-29.75,20.17l-112.17,8.11c-12.34.89-23.92-5-30.45-15.5l-60.85-97.81c-6.65-10.68-7.05-24.49-1.05-36.15l54.19-105.43c5.95-11.57,17.29-19.26,29.75-20.16l113.84-8.25c12.43-.9,24.09,5.09,30.59,15.73l59.5,97.35c6.51,10.66,6.86,24.35.91,35.92Z"/>
            </g>
          </g>
          <path class="cls-14" d="M2832.78,1418.13c-252.41,527.55-962.62,502.96-1290.67,7.57l-5.76-17.34c465.26,288.54,1084.55,193.04,1349.86-335.62,14.86,115.68-.45,234.62-53.43,345.38"/>
          <path class="cls-12" d="M2226.45,1913.09c-136.55,0-275.93-32.88-404.43-97.52l-2.97-1.79c-36.78-26.37-71.86-56.01-104.27-88.09-11.85-11.85-22.15-22.63-31.57-33.03-20.38-22.4-39.94-46.35-58.09-71.12-85.75-117.2-140.03-255.13-156.97-398.88h0c-30.56-259.32,58.89-513.21,245.41-696.59,107.81-106.04,242.41-181.74,389.22-218.9l2.21-.56,2.28-.1c110.52-4.79,227.73,16.96,348.38,64.62,217.16,85.78,399.66,271.62,488.2,497.13,79.73,203.09,75.72,415.09-11.31,596.95-94.73,197.94-249.12,338.2-446.47,405.62-82.77,28.28-170.6,42.26-259.63,42.26ZM1843.55,1776.65c201.3,100.75,430.15,119.76,628.17,52.12,185.79-63.47,331.28-195.82,420.74-382.74,81.64-170.61,85.21-370.03,10.03-561.52-84.11-214.23-257.25-390.7-463.15-472.03-113.98-45.03-224.23-65.75-327.85-61.65-138.32,35.43-265.1,106.95-366.75,206.94-176.65,173.67-261.36,414.12-232.43,659.69,16.05,136.16,67.46,266.81,148.69,377.83,17.21,23.5,35.76,46.22,55.13,67.51,8.96,9.9,18.76,20.16,30,31.39,30.26,29.95,63.05,57.71,97.42,82.47Z"/>
          <path class="cls-12" d="M2221.11,1815.67c-268.47,0-528.16-143.96-687.38-384.43l-.74-1.11-29.3-88.15c-.25-1.41-25.57-142.05-26.44-284.75-.88-144.41,92.11-317.71,96.07-325.02l.84-1.31c234.79-307.92,520.32-398.28,848.63-268.59,190.74,75.35,351.06,238.63,428.87,436.78,69.95,178.15,66.48,364.02-9.77,523.38-110.69,231.33-318.08,373.98-569,391.39-17.27,1.2-34.56,1.8-51.79,1.8ZM1551.27,1421.22c165.53,249.19,441.34,391.87,720.24,372.55,243.47-16.9,444.75-155.4,552.21-379.99,73.81-154.26,77.07-334.43,9.19-507.32-75.8-193.05-231.88-352.08-417.51-425.4-318.67-125.89-596.15-37.92-824.71,261.42-6.37,11.98-94.1,179.81-93.28,314.63.83,135.84,24.08,269.77,25.99,280.58l27.87,83.54Z"/>
          <path class="cls-16" d="M3191.16,1522.39c-51.85,154.39-187.88,253.12-303.85,220.48-115.97-32.64-167.95-184.27-116.09-338.66.31-.97.68-1.99,1.04-2.96,52.56-152.7,187.66-249.94,302.81-217.52,89.59,25.21,140.98,121.44,135.85,235.07-1.53,33.46-7.97,68.48-19.76,103.58"/>
          <g class="cls-28">
            <path class="cls-12" d="M3191.16,1522.39c-51.85,154.39-187.88,253.12-303.85,220.48-115.97-32.64-167.95-184.27-116.09-338.66.31-.97.68-1.99,1.04-2.96,7.42,19.43,22.03,40.62,50.69,42.93,50.19,4.02,168.04-71.47,168.04-71.47,0,0,95.5,19.37,219.94,46.09-1.53,33.46-7.97,68.48-19.76,103.58"/>
          </g>
          <path class="cls-12" d="M2932.33,1771.22c-17.21,0-34.3-2.26-51.03-6.97-51.3-14.44-92.8-49.29-120.01-100.78-39.08-73.94-43.13-171.02-11.12-266.35,55.48-165.2,203.94-270.55,330.96-234.77,51.3,14.44,92.81,49.29,120.02,100.78,39.08,73.94,43.12,171.03,11.11,266.34h0c-48.17,143.44-166.46,241.74-279.92,241.74ZM3029.03,1199.68c-94.44,0-194.7,86.44-236.75,211.6-27.74,82.61-24.64,169.12,8.29,231.43,21.39,40.47,53.46,67.7,92.76,78.76,13.1,3.68,26.52,5.46,40.04,5.46,94.45,0,194.71-86.43,236.75-211.6h0c27.74-82.61,24.65-169.12-8.28-231.42-21.39-40.47-53.47-67.71-92.77-78.77-13.1-3.69-26.51-5.46-40.04-5.46Z"/>
          <path class="cls-16" d="M3167.36,1639.59c-76.3,101.72-195.22,125.58-265.59,53.31-70.38-72.28-65.56-213.33,10.74-315.05,76.3-101.72,195.22-125.58,265.59-53.3,70.37,72.28,65.56,213.32-10.74,315.04"/>
          <path class="cls-12" d="M3000.71,1737.01c-38.81,0-73.42-14.57-100.6-42.49-71.02-72.95-66.29-215.63,10.55-318.06,42.83-57.1,100.53-91.98,158.3-95.69,42.93-2.75,81.27,11.82,110.82,42.17,71.02,72.94,66.29,215.62-10.55,318.05h0c-42.83,57.1-100.53,91.98-158.3,95.7-3.43.22-6.84.33-10.21.33ZM3079.13,1285.08c-3.27,0-6.56.11-9.88.32-56.41,3.63-112.86,37.83-154.88,93.84-75.52,100.68-80.43,240.66-10.93,312.04,28.57,29.34,65.65,43.46,107.18,40.76,56.41-3.63,112.86-37.84,154.88-93.85l1.86,1.39-1.86-1.39c75.52-100.68,80.43-240.65,10.94-312.03-26.28-26.99-59.76-41.09-97.31-41.09Z"/>
          <g class="cls-28">
            <path class="cls-12" d="M2849.36,1550.08c3.29-44.28,18.9-87.75,42.75-125.53,1.12,101.63,72.78,166.71,167.3,147.61,61.08-12.32,117.64-57.02,154.51-115.5.12,6.41-.14,13.02-.62,19.73-8.43,112.74-96.73,220.63-197.24,240.97-100.51,20.34-175.11-54.6-166.69-167.28"/>
          </g>
          <path class="cls-12" d="M2995.84,1757.09c-12.31,0-24.49-1.56-36.39-4.82-38.28-10.45-69.4-36.46-89.98-75.23-31.68-59.67-34.18-143.56-6.67-224.39,46.42-136.43,164.51-225.47,263.28-198.5,38.28,10.45,69.39,36.46,89.98,75.22,31.69,59.67,34.19,143.56,6.68,224.4h0c-40.82,119.98-137.1,203.31-226.89,203.31ZM3088.25,1293.59c-70.66,0-148.73,71.54-183.38,173.39-23.63,69.44-22.19,140.18,3.85,189.22,14.69,27.66,36.28,46.06,62.44,53.2,76.53,20.91,170.5-55.34,209.5-169.94,23.63-69.45,22.18-140.19-3.86-189.23-14.69-27.66-36.28-46.05-62.43-53.19-8.52-2.33-17.26-3.45-26.11-3.45ZM3201.69,1546.62h.06-.06Z"/>
          <g class="cls-32">
            <path class="cls-16" d="M2538.34,692.65s-352.96-114.38-620.6,5.92c-.28.12-.57.25-.85.38-56.31,25.37-104.55,65.36-139.98,115.4-46.86,66.17-69.28,118.6-87.21,165.51-54.47,142.71-52.87,219.77-52.87,219.77-53.67-106.41-67.45-209.49-23.29-328.8,4.39-11.75,9.35-23.71,14.84-35.82,1.25-2.79,2.56-5.53,3.92-8.27-.05-.05,0-.1.11-.16,12.87-23.74,30.97-54.32,54.33-87.09,70.37-98.92,188.19-218.15,353.22-231.97,308.57-25.85,516.01,174.72,498.37,185.13"/>
          </g>
          <g class="cls-32">
            <path class="cls-16" d="M2525.61,1134.82c-7.05,70.67,37.1,133.06,98.6,139.37,61.5,6.31,117.07-45.87,124.12-116.54,7.04-70.66-37.1-133.06-98.6-139.37-61.51-6.3-117.08,45.87-124.13,116.54"/>
          </g>
          <g class="cls-32">
            <path class="cls-16" d="M2567.59,1377.84c-.41,29.33,19.96,53.5,45.47,53.98,25.51.48,46.53-22.91,46.93-52.25.4-29.33-19.96-53.5-45.48-53.97-25.51-.48-46.52,22.91-46.92,52.24"/>
          </g>
          <path class="cls-16" d="M2909.28,2315.74c171.19,128.91,167.61,311.71,254.67,289.34,56.52-14.52,52.77-107.18,46.96-177.46l-194.75-218.75-106.88,106.88Z"/>
          <path class="cls-12" d="M2922.65,2297.99c41.77,31.35,78.18,69.89,107.86,112.34,14.95,21.16,28.19,43.3,40.64,65.45,12.43,22.11,23.91,44.56,35.95,65.11,5.97,10.21,12.1,20.02,18.57,27.83,6.5,7.93,12.89,13.09,18.3,14.77,2.78.96,5.78,1.26,9.46,1,1.81-.19,3.98-.48,5.81-.96,1.86-.36,3.54-.97,5.23-1.56,6.49-2.62,12.13-8.02,17-16.22,4.87-8.09,8.26-18.56,10.79-29.47,2.62-10.97,4.23-22.66,5.29-34.52,2.01-23.8,2.25-48.41,2.29-73.24v-.04c.01-6.15,5.01-11.14,11.16-11.13,5.53,0,10.12,4.05,10.98,9.34,4.08,24.8,7.57,50,8.16,76.02.32,25.95-.17,53.1-12.8,81.44-3.27,7.02-7.58,14.02-13.24,20.43-5.63,6.4-12.72,12.13-20.65,16.24-3.98,1.97-8.07,3.73-12.23,4.99-4.12,1.34-8.11,2.13-12.46,2.83-8.67,1.14-18.37.83-27.53-1.8-9.21-2.54-17.43-7.17-24.08-12.33-6.76-5.17-12.19-10.84-16.86-16.57-9.33-11.46-16.31-22.95-22.81-34.28-12.63-22.73-23.46-44.86-35.31-66.24-11.72-21.4-24.27-41.96-38.02-61.53-27.41-39.17-60.29-73.9-98.24-102.4-9.82-7.37-11.8-21.3-4.42-31.12,7.37-9.81,21.31-11.79,31.11-4.42l.04.03Z"/>
          <path class="cls-12" d="M2863.34,2311.18c-.39,0-.79,0-1.18-.03-12.25-.64-21.66-11.07-21.03-23.32.17-3.31,4.59-81.95,41.09-167.57,49.33-115.7,133.74-187.93,244.11-208.86,12.06-2.28,23.69,5.63,25.97,17.69,2.29,12.06-5.63,23.69-17.69,25.97-96.1,18.23-167.09,79.29-211.01,181.47-33.73,78.48-38.05,152.86-38.09,153.6-.63,11.85-10.44,21.05-22.17,21.05Z"/>
          <path class="cls-12" d="M1484.56,3085.74c-10.54,0-19.9-7.53-21.84-18.27-34.78-191.89-110.89-336.28-220.1-417.56-81.92-60.97-154.73-65.63-155.46-65.67-12.22-.67-21.64-11.1-21.02-23.33.63-12.23,10.9-21.73,23.2-21.07,3.42.16,84.75,4.75,177.13,72.43,83.59,61.25,193.07,188.56,239.97,447.27,2.19,12.08-5.83,23.64-17.9,25.83-1.34.25-2.67.37-3.99.37Z"/>
        </g>
        <g>
          <path class="cls-6" d="M2326.57,2182.88l-25.69,49.99c-1.49,2.9-4.42,4.78-7.68,4.94l-55.24,2.64c-3.22.15-6.29-1.41-8.06-4.11l-7.89-12.03c-1.14-1.74-1.26-3.96-.31-5.81l6.43-12.5c.79-1.53,2.94-1.65,3.88-.21l7.48,11.4c1.77,2.7,4.84,4.26,8.06,4.11l33.51-1.6c3.26-.16,6.18-2.04,7.68-4.94l15.61-30.36c1.49-2.9,1.32-6.37-.45-9.11l-18.45-28.61c-1.76-2.74-4.85-4.32-8.11-4.17l-34.01,1.64c-3.26.16-6.18,2.04-7.67,4.94l-36.09,70.21c-.79,1.53-2.94,1.65-3.88.21l-8.05-12.28c-1.14-1.74-1.26-3.96-.31-5.81l36.64-71.28c1.49-2.9,4.42-4.78,7.67-4.94l55.99-2.71c3.25-.16,6.34,1.43,8.11,4.17l30.38,47.11c1.77,2.74,1.94,6.21.45,9.11Z"/>
          <path class="cls-2" d="M2283.12,2183.48l-7.55,14.69c-.82,1.6-2.44,2.64-4.24,2.73l-16.21.78c-1.78.09-3.48-.78-4.46-2.27l-9.12-13.9c-1-1.52-1.1-3.46-.27-5.07l7.51-14.6c.82-1.6,2.44-2.64,4.24-2.73l16.45-.79c1.8-.09,3.5.79,4.48,2.3l8.92,13.83c.98,1.51,1.07,3.43.25,5.04Z"/>
        </g>
      </g>
    </g>
  </g>
</svg>