<?xml version="1.0" encoding="UTF-8"?>
<svg id="Layer_1" data-name="Layer 1" xmlns="http://www.w3.org/2000/svg" xmlns:xlink="http://www.w3.org/1999/xlink" viewBox="0 0 311.3 149.58">
  <defs>
    <style>
      .cls-1 {
        fill: url(#Dégradé_sans_nom_21-2);
      }

      .cls-1, .cls-2, .cls-3, .cls-4, .cls-5, .cls-6, .cls-7, .cls-8, .cls-9 {
        stroke-width: 0px;
      }

      .cls-2 {
        fill: #4bb1af;
      }

      .cls-3 {
        fill: #1d1d1b;
      }

      .cls-4 {
        fill: #acc544;
      }

      .cls-5 {
        fill: #e24a5e;
      }

      .cls-6 {
        fill: #db475c;
      }

      .cls-7 {
        fill: #fff;
      }

      .cls-8 {
        fill: #ebba3a;
      }

      .cls-9 {
        fill: url(#Dégradé_sans_nom_21);
      }
    </style>
    <linearGradient id="Dégradé_sans_nom_21" data-name="Dégradé sans nom 21" x1="14.9" y1="51.68" x2="122.97" y2="114.07" gradientUnits="userSpaceOnUse">
      <stop offset="0" stop-color="#e8561b"/>
      <stop offset=".44" stop-color="#ed7819"/>
      <stop offset=".61" stop-color="#ed7c1c"/>
      <stop offset=".78" stop-color="#ef8827"/>
      <stop offset=".96" stop-color="#f39d39"/>
      <stop offset="1" stop-color="#f4a33f"/>
    </linearGradient>
    <linearGradient id="Dégradé_sans_nom_21-2" data-name="Dégradé sans nom 21" x1="55.68" y1="65.17" x2="91.34" y2="85.76" xlink:href="#Dégradé_sans_nom_21"/>
  </defs>
  <g>
    <path class="cls-9" d="M128.67,48.1v53.76c0,3.12-1.67,6-4.37,7.56l-45.84,26.41c-2.68,1.54-5.97,1.55-8.66.03l-11.98-6.78c-1.73-.98-2.8-2.82-2.8-4.81v-13.45c0-1.65,1.78-2.69,3.21-1.87l11.35,6.43c2.69,1.52,5.98,1.51,8.65-.03l27.81-16.02c2.7-1.56,4.37-4.44,4.37-7.56v-32.66c0-3.12-1.66-6-4.37-7.56l-28.21-16.27c-2.7-1.56-6.02-1.56-8.72,0l-28.21,16.27c-2.7,1.56-4.37,4.44-4.37,7.56v75.51c0,1.65-1.78,2.69-3.21,1.87l-12.22-6.92c-1.73-.98-2.8-2.82-2.8-4.81V48.1c0-3.12,1.66-6,4.37-7.56l46.45-26.79c2.7-1.56,6.02-1.56,8.72,0l46.45,26.79c2.7,1.56,4.37,4.44,4.37,7.56Z"/>
    <path class="cls-1" d="M91.96,67.6v15.8c0,1.72-.92,3.32-2.41,4.18l-13.45,7.75c-1.48.85-3.3.86-4.78.02l-13.84-7.84c-1.51-.86-2.45-2.46-2.45-4.2v-15.71c0-1.72.92-3.32,2.41-4.18l13.65-7.87c1.49-.86,3.33-.86,4.82,0l13.64,7.87c1.49.86,2.41,2.45,2.41,4.18Z"/>
  </g>
  <path class="cls-3" d="M267.61,83.47s-.05-.02-.05-.05c0-.92.35-1.79,1-2.44.65-.65,1.52-1.01,2.44-1.01.03,0,.05.02.05.05,0,.03-.02.05-.05.05h0c-.9,0-1.74.35-2.37.98-.63.63-.98,1.47-.97,2.37,0,.03-.02.05-.05.05h0Z"/>
  <g>
    <path class="cls-7" d="M292.98,53.35v36.12c0,1.9-1.54,3.44-3.45,3.44s-3.44-1.54-3.44-3.44v-36.12c0-1.9,1.54-3.45,3.44-3.45s3.45,1.54,3.45,3.45Z"/>
    <path class="cls-7" d="M275.55,73.95s0,.05-.03.06l-6.44,2.5-15.34,5.95c1.59,2.24,4.16,3.57,6.9,3.57,3.02,0,5.83-1.63,7.34-4.25,0,0,0,0,0-.01,0-.02.03-.03.04-.03.03,0,.05.02.05.05,0,.02-.02.04-.02.05l5.83,3.33c.05-.09.1-.19.15-.29,0-.01.01-.02.01-.02.01-.02.04-.04.06-.03.03,0,.04.03.03.06,0,.01-.01.02-.02.03-.06.1-.11.2-.16.29-.03.05-.06.09-.09.14-2.74,4.67-7.81,7.57-13.23,7.57s-10.76-3.05-13.46-7.97c-1.04-1.89-1.66-3.95-1.83-6.11-.03-.43-.05-.85-.05-1.27,0-8.46,6.88-15.35,15.34-15.35,4.79,0,9.22,2.18,12.15,5.97,1.33,1.71,2.26,3.65,2.76,5.75ZM265.93,70.9v-.02h0s0-.01,0-.02c0,0,0,0,0-.01-1.51-1.19-3.34-1.83-5.28-1.83-4.2,0-7.74,3-8.43,7.14,0,0,0,0,0,.01s0,0,0,.01c0,0,0,0,0,0,0,.02.02.03.03.03h.03l13.63-5.28s0,0,0-.01c0,0,0,0,.01,0s0,0,0,0c0,0,0-.01,0-.02Z"/>
    <path class="cls-7" d="M232.77,85.63c1.34,1.34,1.34,3.53,0,4.87-.67.67-1.56,1.01-2.44,1.01s-1.77-.34-2.44-1.01l-4.8-4.8c-.63-.63-1.48-.98-2.37-.98s-1.74.35-2.37.98l-4.81,4.8c-1.34,1.34-3.53,1.34-4.88,0-1.34-1.34-1.34-3.53,0-4.87l4.81-4.81c1.31-1.31,1.31-3.43,0-4.74l-4.81-4.81c-1.34-1.34-1.34-3.53,0-4.87s3.53-1.34,4.88,0l4.81,4.81c.63.63,1.47.98,2.37.98s1.74-.35,2.37-.98l4.56-4.57h0s.05-.02.06,0,.02.05,0,.06c-.31.32-.56.69-.73,1.09s-.25.84-.25,1.28c0,1.85,1.5,3.35,3.35,3.35.9,0,1.74-.35,2.37-.98.02-.02.05-.02.07,0,.02.02.02.05,0,.06l-4.57,4.57c-.63.63-.98,1.48-.98,2.37s.35,1.74.98,2.37l4.81,4.81Z"/>
    <path class="cls-7" d="M194.39,65.68v23.8c0,1.9-1.54,3.44-3.45,3.44s-3.44-1.54-3.44-3.44v-23.8c0-1.9,1.54-3.45,3.44-3.45s3.45,1.55,3.45,3.45Z"/>
  </g>
  <path class="cls-7" d="M160.35,41.83c9.4,0,17.05,7.65,17.05,17.05s-7.65,17.04-17.05,17.04c-3.69,0-7.2-1.16-10.15-3.35v18.6s-.02.05-.05.05c-.02,0-.05-.02-.05-.05v-.19l-6.7.07v.12s-.02.05-.05.05c-.02,0-.05-.02-.05-.05v-32.3c0-9.4,7.65-17.05,17.04-17.05ZM170.6,58.88c0-5.65-4.6-10.25-10.25-10.25s-10.24,4.6-10.24,10.25,4.6,10.24,10.24,10.24,10.25-4.59,10.25-10.24Z"/>
  <g>
    <path class="cls-4" d="M289.53,49.91c1.9,0,3.45,1.54,3.45,3.45s-1.54,3.44-3.45,3.44-3.44-1.54-3.44-3.44,1.54-3.45,3.44-3.45Z"/>
    <path class="cls-2" d="M274.46,83.43c0,.5-.11,1-.32,1.46-.05.11-.21.38-.25.45,0,0,0,.01-.01.02,0,0,0,.01-.01.02-.64.94-1.7,1.5-2.85,1.5-1.9,0-3.44-1.54-3.44-3.44,0-.19.01-.36.04-.53.21-1.36,1.21-2.47,2.54-2.81.29-.07.58-.11.87-.11,1.9,0,3.45,1.55,3.45,3.45ZM274.05,84.85c.21-.45.32-.94.32-1.42,0-1.85-1.5-3.35-3.35-3.35-.28,0-.56.04-.84.11-1.3.34-2.27,1.42-2.47,2.74-.03.16-.04.33-.04.51,0,1.85,1.5,3.35,3.35,3.35,1.12,0,2.16-.55,2.78-1.48.02-.03.2-.33.26-.45Z"/>
    <path class="cls-2" d="M274.36,83.43c0,.49-.11.98-.32,1.42-.05.12-.24.42-.26.45-.62.93-1.66,1.48-2.78,1.48-1.85,0-3.35-1.5-3.35-3.35,0-.18.01-.35.04-.51.2-1.32,1.17-2.4,2.47-2.74.28-.07.56-.11.84-.11,1.85,0,3.35,1.51,3.35,3.35Z"/>
    <path class="cls-5" d="M233.54,69.08c0,.93-.36,1.79-1.01,2.44-.65.65-1.52,1.01-2.44,1.01-1.9,0-3.44-1.54-3.44-3.44,0-.92.36-1.79,1.01-2.44.65-.65,1.51-1.01,2.43-1.01,1.9,0,3.45,1.55,3.45,3.45ZM232.47,71.45c.63-.63.98-1.47.98-2.37,0-1.85-1.5-3.35-3.35-3.35-.89,0-1.73.35-2.37.99-.63.63-.98,1.47-.98,2.37,0,1.85,1.5,3.35,3.35,3.35.9,0,1.74-.35,2.38-.98Z"/>
    <path class="cls-6" d="M233.44,69.08c0,.9-.35,1.74-.98,2.37-.63.63-1.48.98-2.38.98-1.85,0-3.35-1.5-3.35-3.35,0-.9.35-1.74.98-2.37.63-.63,1.48-.99,2.37-.99,1.85,0,3.35,1.51,3.35,3.35Z"/>
    <path class="cls-2" d="M190.94,52.08c1.9,0,3.45,1.54,3.45,3.44s-1.54,3.45-3.45,3.45-3.44-1.54-3.44-3.45,1.54-3.44,3.44-3.44Z"/>
    <path class="cls-5" d="M160.35,55.43c1.9,0,3.45,1.55,3.45,3.45s-1.54,3.44-3.45,3.44-3.44-1.54-3.44-3.44,1.54-3.45,3.44-3.45ZM163.7,58.88c0-1.85-1.5-3.35-3.35-3.35s-3.35,1.51-3.35,3.35,1.5,3.35,3.35,3.35,3.35-1.5,3.35-3.35Z"/>
    <path class="cls-5" d="M160.35,55.53c1.85,0,3.35,1.51,3.35,3.35s-1.5,3.35-3.35,3.35-3.35-1.5-3.35-3.35,1.5-3.35,3.35-3.35Z"/>
    <path class="cls-8" d="M146.75,87.73c1.9,0,3.45,1.55,3.45,3.45s-1.54,3.44-3.45,3.44-3.44-1.54-3.44-3.44,1.54-3.45,3.44-3.45ZM150.1,91.18c0-1.85-1.5-3.35-3.35-3.35s-3.35,1.51-3.35,3.35,1.5,3.35,3.35,3.35,3.35-1.5,3.35-3.35Z"/>
    <path class="cls-8" d="M146.75,87.82c1.85,0,3.35,1.51,3.35,3.35s-1.5,3.35-3.35,3.35-3.35-1.5-3.35-3.35,1.5-3.35,3.35-3.35Z"/>
  </g>
  <g>
    <path class="cls-7" d="M159.6,104.61c-.86-1.01-1.92-1.62-3.28-1.62-2.26,0-4,2.07-4,4.24s1.81,4.27,4.08,4.27c1.33,0,2.22-.6,3.09-1.54h2.64c-.95,2.22-3.28,3.66-5.67,3.66-3.52,0-6.4-2.93-6.4-6.43s2.89-6.33,6.35-6.33c2.5,0,4.78,1.44,5.79,3.74h-2.59Z"/>
    <path class="cls-7" d="M165.67,108.2v5.17h-2.21v-9.19h2.02v.81h.03c.61-.89,1.06-1.13,2.16-1.13v2.14c-1.44.05-2.01.86-2.01,2.2Z"/>
    <path class="cls-7" d="M177.27,109.76h-7.15c.05.25.17.46.3.66.5.76,1.33,1.23,2.24,1.23s1.68-.36,2.12-1.18h2.32c-.6,1.87-2.49,3.2-4.45,3.2-2.75,0-4.86-2.14-4.86-4.87s2.06-4.94,4.84-4.94,4.76,2.12,4.76,4.79c0,.36-.05.75-.13,1.11ZM172.66,105.89c-1.34,0-2.29.79-2.6,2.1h5.09c-.22-1.32-1.14-2.1-2.49-2.1Z"/>
    <path class="cls-7" d="M186.04,113.37v-1.14c-.73.86-2.09,1.44-3.22,1.44-2.77,0-4.48-2.34-4.48-4.95s1.89-4.85,4.61-4.85c1.01,0,1.97.41,2.72,1.09.1.1.25.25.33.38h.03v-1.16h2.02v9.19h-2.02ZM183.29,105.89c-1.64,0-2.74,1.36-2.74,2.93s1.16,2.83,2.74,2.83,2.69-1.32,2.69-2.9-1.06-2.86-2.69-2.86Z"/>
    <path class="cls-7" d="M192.48,106.13v7.24h-2.21v-7.24h-1.08v-1.95h1.08v-3.06h2.21v3.06h1.33v1.95h-1.33Z"/>
    <path class="cls-7" d="M194.7,103.14v-2.02h2.21v2.02h-2.21ZM194.7,113.37v-9.19h2.21v9.19h-2.21Z"/>
    <path class="cls-7" d="M203.29,113.37h-1.72l-3.72-9.19h2.39l2.22,6.09h.05l2.09-6.09h2.42l-3.73,9.19Z"/>
    <path class="cls-7" d="M217.08,109.76h-7.15c.05.25.17.46.3.66.5.76,1.33,1.23,2.24,1.23s1.68-.36,2.12-1.18h2.32c-.6,1.87-2.49,3.2-4.45,3.2-2.75,0-4.86-2.14-4.86-4.87s2.06-4.94,4.84-4.94,4.76,2.12,4.76,4.79c0,.36-.05.75-.13,1.11ZM212.47,105.89c-1.34,0-2.29.79-2.6,2.1h5.09c-.22-1.32-1.14-2.1-2.49-2.1Z"/>
    <path class="cls-7" d="M231.99,113.37l-1.31-3.16h-4.4l-1.31,3.16h-2.5l5.11-12.25h1.77l5.14,12.25h-2.5ZM228.48,104.31h-.03l-1.39,3.76h2.82l-1.39-3.76Z"/>
    <path class="cls-7" d="M242.01,116.68c-.65.28-1.38.43-2.07.43-2.04,0-3.88-1.13-4.63-3.05h2.52c.61.71,1.34,1.03,2.27,1.03,1.64,0,2.74-1.28,2.82-2.86l-.03-.03c-.71,1.01-1.79,1.47-3.02,1.47-.63,0-1.26-.15-1.82-.41-1.82-.83-2.89-2.6-2.89-4.57,0-2.58,2.06-4.82,4.69-4.82,1.18,0,2.27.45,2.94,1.44h.03v-1.13h2.14v7.5c0,2.2-.85,4.12-2.95,5ZM240.05,105.89c-1.56,0-2.69,1.31-2.69,2.82s1.13,2.95,2.75,2.95,2.64-1.46,2.64-2.96-1.21-2.8-2.7-2.8Z"/>
    <path class="cls-7" d="M255.56,109.76h-7.15c.05.25.17.46.3.66.5.76,1.33,1.23,2.24,1.23s1.68-.36,2.12-1.18h2.32c-.6,1.87-2.49,3.2-4.45,3.2-2.75,0-4.86-2.14-4.86-4.87s2.06-4.94,4.84-4.94,4.76,2.12,4.76,4.79c0,.36-.05.75-.13,1.11ZM250.95,105.89c-1.34,0-2.29.79-2.6,2.1h5.09c-.22-1.32-1.14-2.1-2.49-2.1Z"/>
    <path class="cls-7" d="M263.06,113.37v-4.54c0-1.28-.22-2.95-1.86-2.95-.58,0-1.18.33-1.51.81-.4.58-.4,1.62-.4,2.3v4.37h-2.21v-9.19h2.04v.79c.73-.71,1.46-1.11,2.52-1.11s2.12.5,2.77,1.28c.71.86.85,2.05.85,3.13v5.1h-2.21Z"/>
    <path class="cls-7" d="M271.65,113.67c-2.72,0-4.89-2.24-4.89-4.93s2.19-4.87,4.88-4.87c2.16,0,3.95,1.32,4.63,3.36h-2.49c-.48-.86-1.11-1.34-2.14-1.34-1.64,0-2.67,1.31-2.67,2.88s1.13,2.88,2.77,2.88c.9,0,1.58-.53,2.04-1.28h2.49c-.73,2.02-2.44,3.3-4.61,3.3Z"/>
    <path class="cls-7" d="M280.94,116.43h-2.37l1.69-3.92-3.37-8.33h2.52l2.09,5.9,2.22-5.9h2.5l-5.29,12.25Z"/>
  </g>
</svg>