<?xml version="1.0" encoding="UTF-8"?><svg id="logo" xmlns="http://www.w3.org/2000/svg" viewBox="0 0 2324.46 892.61"><defs><style>.cls-1{fill:#45a4a1;}.cls-1,.cls-2,.cls-3,.cls-4,.cls-5,.cls-6,.cls-7{stroke-width:0px;}.cls-2{fill:#161615;}.cls-3{fill:#cc2f4a;}.cls-4{fill:#d5314c;}.cls-5{fill:#a0bc2b;}.cls-6{fill:#fff;}.cls-7{fill:#e4ad22;}</style></defs><path class="cls-2" d="M1893.52,671.66c-.38,0-.7-.31-.7-.7-.05-13.63,5.2-26.42,14.79-36.04,9.6-9.63,22.4-14.92,36.05-14.92.43,0,.81.28.81.7,0,.38-.31.7-.7.7h-.11c-13.27,0-25.72,5.15-35.06,14.51-9.33,9.35-14.44,21.79-14.39,35.05,0,.38-.31.7-.69.7h0Z"/><path class="cls-6" d="M2268.57,226.37v534.07c0,28.09-22.84,50.93-50.93,50.93s-50.98-22.84-50.98-50.93V226.37c0-28.09,22.9-50.93,50.98-50.93s50.93,22.84,50.93,50.93Z"/><path class="cls-6" d="M2010.92,530.93c.06.34-.11.67-.45.78l-95.27,36.91-226.77,87.95c23.4,33.11,61.48,52.88,102.02,52.88,44.62,0,86.16-24.07,108.39-62.82.06,0,.06-.06.11-.11.11-.22.34-.39.61-.39.39,0,.67.34.67.73,0,.34-.17.56-.28.61l86.16,49.2c.78-1.34,1.56-2.79,2.35-4.24.11-.22.17-.28.17-.34.11-.39.5-.56.89-.45.34.11.56.5.45.89-.06.17-.17.34-.22.45-.84,1.56-1.62,3.02-2.4,4.41-.39.67-.89,1.34-1.34,2.07-40.49,69.02-115.48,111.91-195.56,111.91s-159.09-45.18-198.96-117.83c-15.41-27.98-24.51-58.35-27.14-90.3-.5-6.37-.78-12.68-.78-18.71,0-125.09,101.8-226.88,226.88-226.88,70.81,0,136.25,32.16,179.64,88.29,19.6,25.35,33.34,53.94,40.82,84.99ZM1868.63,485.58c0-.06.06-.06.06-.11-.06-.06-.11-.06-.17-.11,0-.06,0-.11-.06-.17-22.39-17.7-49.36-27.03-78.01-27.03-62.1,0-114.53,44.39-124.58,105.54-.06.06,0,.11,0,.17v.17c0,.06.06,0,.06.06.11.17.28.34.5.39h.11c.06,0,.17,0,.22-.06l201.48-78.07c.06,0,.11-.06.17-.11s.11-.06.17-.11v-.06c.06-.11.06-.17.06-.28.06-.06.06-.17,0-.22Z"/><path class="cls-6" d="M1378.46,703.59c19.88,19.82,19.88,52.16,0,72.04-9.94,9.94-22.95,14.91-36.02,14.91s-26.08-4.97-36.02-14.91l-71.09-71.09c-9.38-9.33-21.78-14.52-35.01-14.52s-25.69,5.19-35.07,14.52l-71.09,71.09c-19.88,19.88-52.16,19.88-72.04,0-19.88-19.88-19.88-52.21,0-72.04l71.03-71.09c19.32-19.32,19.32-50.76,0-70.08l-71.03-71.09c-19.88-19.88-19.88-52.21,0-72.09,19.88-19.82,52.16-19.82,72.04,0l71.09,71.09c9.38,9.38,21.78,14.52,35.07,14.52s25.63-5.14,35.01-14.52l67.51-67.51c.11-.11.34-.17.5-.17s.39.06.5.17c.22.28.22.73,0,1.01-4.69,4.69-8.32,10.16-10.78,16.08-2.46,5.98-3.74,12.34-3.74,18.99,0,27.31,22.22,49.53,49.53,49.53,13.23,0,25.69-5.14,35.07-14.52.22-.28.73-.28.95,0,.28.28.28.73,0,1.01l-67.46,67.51c-9.38,9.33-14.52,21.78-14.52,35.01s5.14,25.69,14.52,35.07l71.03,71.09Z"/><path class="cls-6" d="M811.1,408.63v351.8c0,28.09-22.84,50.93-50.93,50.93s-50.98-22.84-50.98-50.93v-351.8c0-28.14,22.9-50.98,50.98-50.98s50.93,22.84,50.93,50.98Z"/><path class="cls-6" d="M307.86,56.11c138.93,0,251.96,113.02,251.96,252.01s-113.02,251.96-251.96,251.96c-54.56,0-106.38-17.14-150.1-49.53v275.02c0,.34-.28.67-.67.67s-.73-.34-.73-.67v-2.74l-99.12,1.01v1.73c0,.34-.28.67-.67.67s-.73-.34-.73-.67v-477.45c0-138.99,113.08-252.01,252.01-252.01ZM459.3,308.12c0-83.54-67.9-151.5-151.44-151.5s-151.5,67.96-151.5,151.5,67.96,151.44,151.5,151.44,151.44-67.96,151.44-151.44Z"/><path class="cls-5" d="M2217.64,175.44c28.09,0,50.93,22.84,50.93,50.93s-22.84,50.98-50.93,50.98-50.98-22.9-50.98-50.98,22.9-50.93,50.98-50.93Z"/><path class="cls-1" d="M1994.72,670.98c0,7.37-1.62,14.85-4.8,21.61-.73,1.68-3.13,5.58-3.74,6.59,0,.06-.06.17-.11.22-.06.11-.11.22-.22.28-9.44,13.9-25.13,22.22-42.05,22.22-28.09,0-50.98-22.84-50.98-50.93,0-2.79.22-5.36.61-7.76,3.07-20.16,17.81-36.46,37.58-41.6,4.19-1.06,8.49-1.62,12.79-1.62,28.09,0,50.93,22.84,50.93,50.98ZM1988.69,691.97c3.02-6.59,4.63-13.85,4.63-21,0-27.36-22.22-49.59-49.53-49.59-4.19,0-8.38.5-12.45,1.56-19.21,5.03-33.56,20.88-36.58,40.43-.34,2.35-.56,4.91-.56,7.59,0,27.31,22.28,49.53,49.59,49.53,16.53,0,31.89-8.15,41.04-21.83.28-.45,3.07-4.91,3.8-6.65l.06-.06Z"/><path class="cls-1" d="M1993.33,670.98c0,7.15-1.62,14.41-4.63,21l-.06.06c-.73,1.73-3.52,6.2-3.8,6.65-9.16,13.68-24.51,21.83-41.04,21.83-27.31,0-49.59-22.22-49.59-49.53,0-2.68.22-5.25.56-7.59,3.02-19.54,17.37-35.4,36.58-40.43,4.08-1.06,8.26-1.56,12.45-1.56,27.31,0,49.53,22.22,49.53,49.59Z"/><path class="cls-4" d="M1389.79,458.89c0,13.68-5.25,26.47-14.85,35.96-9.66,9.66-22.45,14.97-36.07,14.97-28.09,0-50.98-22.84-50.98-50.93,0-13.68,5.3-26.47,14.97-36.02,9.66-9.66,22.45-14.97,36.02-14.97,28.09,0,50.93,22.84,50.93,50.98ZM1373.93,493.9c9.33-9.27,14.46-21.72,14.46-35.01,0-27.36-22.22-49.59-49.53-49.59-13.23,0-25.63,5.19-35.01,14.52-9.38,9.33-14.57,21.78-14.57,35.07,0,27.31,22.28,49.53,49.59,49.53,13.23,0,25.69-5.14,35.07-14.52Z"/><path class="cls-3" d="M1388.4,458.89c0,13.29-5.14,25.74-14.46,35.01-9.38,9.38-21.83,14.52-35.07,14.52-27.31,0-49.59-22.22-49.59-49.53,0-13.29,5.19-25.74,14.57-35.07,9.38-9.33,21.78-14.52,35.01-14.52,27.31,0,49.53,22.22,49.53,49.59Z"/><path class="cls-1" d="M760.18,207.6c28.09,0,50.93,22.84,50.93,50.93s-22.84,50.98-50.93,50.98-50.98-22.9-50.98-50.98,22.9-50.93,50.98-50.93Z"/><path class="cls-4" d="M307.86,257.14c28.09,0,50.93,22.84,50.93,50.98s-22.84,50.93-50.93,50.93-50.98-22.84-50.98-50.93,22.9-50.98,50.98-50.98ZM357.39,308.12c0-27.36-22.22-49.59-49.53-49.59s-49.59,22.22-49.59,49.59,22.28,49.53,49.59,49.53,49.53-22.22,49.53-49.53Z"/><path class="cls-4" d="M307.86,258.53c27.31,0,49.53,22.22,49.53,49.59s-22.22,49.53-49.53,49.53-49.59-22.22-49.59-49.53,22.28-49.59,49.59-49.59Z"/><path class="cls-7" d="M106.83,734.58c28.09,0,50.93,22.84,50.93,50.98s-22.84,50.93-50.93,50.93-50.98-22.84-50.98-50.93,22.9-50.98,50.98-50.98ZM156.36,785.57c0-27.36-22.22-49.59-49.53-49.59s-49.59,22.22-49.59,49.59,22.28,49.53,49.59,49.53,49.53-22.22,49.53-49.53Z"/><path class="cls-7" d="M106.83,735.98c27.31,0,49.53,22.22,49.53,49.59s-22.22,49.53-49.53,49.53-49.59-22.22-49.59-49.53,22.28-49.59,49.59-49.59Z"/></svg>